<svg width="30" height="65" viewBox="0 0 30 65" fill="none" xmlns="http://www.w3.org/2000/svg">
<path d="M28.0414 7.57178C27.8975 7.29459 27.3642 6.29807 27.1817 5.95771L27.1185 5.84543C24.7957 1.58569 24.7185 2.39273 23.2588 2.13659L23.0939 2.09799C21.4413 1.71903 18.6026 0.645321 17.2166 0.13303C15.8306 -0.379261 12.013 0.73656 9.57784 0.975161C9.07182 1.01448 8.57358 1.12309 8.09711 1.29797C6.97779 1.73307 6.69357 2.46992 6.23742 3.07344C6.08049 3.33173 5.82853 3.51819 5.53565 3.59276C3.64087 4.26996 -0.832898 9.78586 0.135542 17.393C0.210886 18.1333 0.354184 18.865 0.563622 19.579C2.3812 26.895 8.58834 36.6952 10.1007 39.4672C8.98134 42.0427 6.59182 47.3305 5.82689 52.3095C5.69857 53.0613 5.62237 53.821 5.59881 54.5833C5.49706 57.1131 5.97426 59.4325 7.44096 61.0957L7.74271 61.4185C8.45582 62.1092 9.32297 62.6203 10.2726 62.9098C11.5358 63.4536 12.4937 63.1484 13.4305 62.9905C13.8371 63.2351 14.2688 63.4351 14.7183 63.587C17.3745 64.5028 20.3324 63.7694 21.736 62.9905C23.6027 62.3834 24.4553 61.2887 24.9887 59.5939C25.5255 57.9939 26.3501 54.7342 24.4869 49.906C23.6518 47.8217 21.9676 44.5585 19.378 39.8146V39.7865C21.4553 35.8601 27.0203 26.1406 28.0098 23.2949C28.0624 23.144 28.1116 23.0002 28.1572 22.8563C29.8379 18.558 30.9362 12.8701 28.0589 7.5753M14.4762 31.4811C12.3709 27.9547 10.4305 24.6879 9.18134 21.5545C8.77684 20.3384 8.46253 19.094 8.24097 17.8316C7.5392 14.3965 7.83043 12.3789 9.14274 9.59989L9.23046 9.42094C9.98642 8.99281 10.8226 8.72524 11.6867 8.63496C13.8867 8.41741 17.6201 8.98585 19.0552 12.9894C20.5605 17.2281 17.3464 25.495 14.4621 31.4846" fill="white"/>
<path d="M12.8797 44.6567C12.2796 43.5023 10.9673 40.983 10.6866 40.3865C7.63745 46.3234 6.88305 52.9166 6.8269 54.8324C6.85848 56.3061 6.82689 58.5377 8.91115 59.4921C11.6796 55.7271 6.8269 50.1025 12.8691 44.6567" fill="#ACA9A6"/>
<path d="M19.8798 24.8563C20.5816 21.3159 22.3711 18.2983 20.1149 13.3789C18.2552 9.32969 15.0516 7.88054 11.6937 8.64196C13.8937 8.42441 17.6306 8.99284 19.0622 12.9964C20.5675 17.2351 17.3534 25.502 14.4692 31.4916C14.4025 31.6319 14.3323 31.7723 14.2656 31.9126C15.6692 34.3407 16.8131 36.432 18.1815 38.9022C18.1815 38.9022 20.0272 35.9303 20.7921 34.5829C19.2201 30.9477 19.4482 27.0669 19.8938 24.8598" fill="#ACA9A6"/>
<path d="M28.6204 13.3122C28.6204 13.1894 28.6204 13.0666 28.6204 12.9614V12.9403C28.6204 12.8877 28.6204 12.8385 28.6204 12.7894C28.5993 12.2596 28.5642 11.7999 28.5116 11.421C28.4728 11.1339 28.413 10.8501 28.3326 10.5718C27.9335 9.59948 27.3801 8.69784 26.694 7.90161C25.6807 6.66048 24.5859 5.48827 23.4167 4.39276C23.2966 4.44598 23.1795 4.50572 23.0658 4.57172C21.5395 5.48402 21.5746 6.72615 16.2692 4.18574C15.4692 3.80328 14.2165 4.04538 13.5148 4.091C18.8798 8.07003 24.7676 7.9016 28.6238 13.3122" fill="#BCBAB7"/>
<path d="M24.5045 28.2915C24.708 27.9827 24.894 27.695 25.0624 27.4354C25.2624 27.1125 25.4484 26.7792 25.6273 26.4424C25.7092 26.2903 25.7876 26.1359 25.8624 25.9792C28.0414 21.6001 28.652 16.5053 28.6204 13.3123C25.8905 5.38928 17.9324 8.92269 15.3815 3.98224L13.3885 4.10154C13.5148 4.25944 13.6411 4.41734 13.778 4.57523C14.7885 5.72964 17.157 8.08408 19.7009 8.66304C22.2448 9.24199 24.3852 9.63149 26.5326 12.828C28.68 16.0246 26.3958 20.5475 24.3817 24.9651C23.5782 26.7196 23.4975 28.5056 23.3817 30.2565C23.708 29.8038 23.7782 29.2775 24.1677 28.7582C24.28 28.6038 24.3922 28.4494 24.501 28.288" fill="#CCC9C6"/>
<path d="M26.5361 12.835C24.3852 9.63498 22.2518 9.26304 19.7044 8.66654C17.157 8.07003 14.792 5.72964 13.7814 4.57873C13.6446 4.42435 13.5183 4.26645 13.392 4.10855C11.6375 4.28048 10.234 5.68402 9.27609 7.69809C8.93748 8.42658 8.66504 9.18403 8.46204 9.9613C9.38584 9.21687 10.5088 8.76159 11.6902 8.6525C15.0516 7.88757 18.2587 9.35427 20.1114 13.3894C22.3711 18.3018 20.5921 21.3264 19.8763 24.8669C19.4307 27.0704 19.2026 30.9547 20.7746 34.5899C21.5365 33.0874 22.4091 31.6436 23.3851 30.2705C23.5009 28.5161 23.5817 26.7406 24.3852 24.9791C26.4028 20.5545 28.6976 16.0281 26.5361 12.835Z" fill="#BBB8B5"/>
<path d="M11.2937 39.7689C8.91819 43.0778 5.27251 60.7588 10.5744 60.1378C18.8938 58.9728 12.399 42.0216 11.2937 39.7689Z" fill="#9A9794"/>
<g opacity="0.3294">
<path d="M11.9393 7.29811C12.5371 7.11752 13.1522 6.99992 13.7744 6.94722C14.398 6.88167 15.0261 6.86993 15.6517 6.91213C16.9197 6.97978 18.1583 7.31965 19.2833 7.90864C20.4123 8.52438 21.3644 9.41964 22.0483 10.5087C22.3847 11.0551 22.669 11.6319 22.8974 12.2315C23.1146 12.8314 23.2893 13.4458 23.4203 14.0702C23.9361 16.586 23.701 19.1896 23.1781 21.6668C22.6268 24.1402 21.8553 26.5592 20.8728 28.895C19.9254 31.2284 18.8202 33.4846 17.6973 35.7127L15.9885 39.0321L14.3113 42.3374C13.1954 44.521 12.2464 46.7861 11.4726 49.113C11.2916 49.6893 11.1416 50.275 11.0235 50.8674C10.8935 51.4565 10.8102 52.0548 10.7744 52.6569C10.6771 53.8725 10.8633 55.094 11.3182 56.2254L11.1744 56.3026C10.4894 55.2068 10.1012 53.9516 10.048 52.6604C9.98416 51.3742 10.0951 50.0852 10.3779 48.8288C10.644 47.5826 10.9957 46.3563 11.4305 45.1585C11.8446 43.962 12.3323 42.7936 12.8341 41.6497C14.8587 37.0426 17.2412 32.6706 19.3535 28.2143C19.8763 27.0985 20.4062 25.9792 20.8518 24.8423C21.324 23.7112 21.7374 22.5564 22.0904 21.3826C22.7922 19.0457 23.1781 16.586 22.8237 14.1719C22.7331 13.5709 22.5934 12.9783 22.4062 12.4C22.2135 11.8253 21.968 11.2697 21.6728 10.7403C21.0645 9.68197 20.1946 8.79758 19.1465 8.17181C18.0767 7.55738 16.8871 7.18042 15.6587 7.06652C15.0421 7.00147 14.4212 6.98857 13.8025 7.02793C13.1812 7.06134 12.5651 7.15894 11.9639 7.31916L11.9393 7.29811Z" fill="#797775"/>
</g>
<path d="M28.0418 7.57199C27.8979 7.2983 27.3681 6.30179 27.1821 5.95792L27.119 5.84214C24.7961 1.5824 24.7189 2.38943 23.2592 2.13329L23.0978 2.09469C21.4451 1.71574 18.6065 0.638515 17.2205 0.133241C15.8345 -0.372032 12.0169 0.733259 9.58175 0.97186C9.07585 1.01204 8.57773 1.12063 8.10102 1.29467C6.98169 1.72976 6.69748 2.46663 6.24133 3.07015C6.08469 3.3287 5.83261 3.51523 5.53956 3.58945C3.64479 4.26666 -0.828992 9.78257 0.139448 17.3862C0.214556 18.1265 0.357857 18.8583 0.567528 19.5722C2.3816 26.8952 8.58875 36.6954 10.1011 39.4674C8.98174 42.0429 6.59222 47.3307 5.82729 52.3097C5.69913 53.0615 5.62293 53.8212 5.59922 54.5835C5.49746 57.1133 5.97116 59.4327 7.44136 61.0959L7.74312 61.4187C8.45619 62.1102 9.32326 62.6225 10.273 62.9135C11.5327 63.4538 12.4941 63.1521 13.431 62.9942C13.8386 63.2391 14.2715 63.4391 14.7222 63.5907C17.3784 64.51 20.3364 63.7696 21.7399 62.9942C23.6066 62.3907 24.4557 61.2959 24.9926 59.5976C25.5294 58.0011 26.354 54.7379 24.4908 49.9097C23.6522 47.8254 21.9715 44.5622 19.382 39.8183V39.7902C21.4592 35.8638 27.0207 26.1443 28.0137 23.2986C28.0663 23.1478 28.1119 23.0039 28.1611 22.86C29.8418 18.5617 30.9401 12.8703 28.0628 7.57901M10.9327 59.7801C10.6311 59.8289 10.3244 59.8383 10.0204 59.8081C9.50687 59.7331 9.01859 59.5371 8.59576 59.2362C7.95059 58.7859 7.46912 58.1381 7.2238 57.3905C6.47291 55.1449 6.63082 50.6816 10.6414 40.5727C11.059 41.4815 11.452 42.3271 11.6239 42.678C13.4398 46.273 14.4243 50.2303 14.5047 54.2572C14.2555 57.4923 12.6941 59.4538 10.9327 59.7836M18.3012 38.0498C18.0696 37.6638 17.9328 37.4498 17.9328 37.4498L17.6802 37.0217C14.4801 31.2777 11.0379 26.2741 9.1642 21.5653C8.76065 20.3488 8.44636 19.1045 8.22383 17.8424C7.52206 14.4072 7.8133 12.3896 9.1256 9.61063C10.3888 6.93689 14.2064 3.59998 16.3433 4.62106C20.9504 6.82461 21.5644 5.76143 22.6592 4.85615C22.6943 4.83159 22.782 4.76492 22.8171 4.73334L23.0066 4.60702C35.0875 13.8809 22.1364 31.8076 18.2837 38.0498" fill="#EFECE8"/>
<path d="M23.0343 30.5617C22.8588 30.8424 22.4132 31.5091 21.8588 32.3161C20.4763 34.6495 19.164 36.632 18.3008 38.0285C18.5815 38.4812 19.2061 39.4987 19.4763 39.9865L19.3781 39.804L19.3605 39.7759L19.8026 38.9513C19.8026 37.3724 22.4974 31.7758 23.0378 30.5477" fill="#DAD7D3"/>
<path d="M17.2061 1.18917C16.185 0.641788 14.8832 0.687404 13.6446 0.904953C13.2656 0.971621 12.3604 1.14355 12.3604 1.14355C12.3604 1.14355 14.1885 1.59268 15.6516 2.10848C16.592 2.45937 18.171 3.07692 20.0763 2.07339L20.1114 1.9927C19.1004 1.91377 18.114 1.64096 17.2061 1.18917Z" fill="#BBB8B5"/>
<path d="M6.1743 3.74716C6.01469 4.1395 5.89708 4.54763 5.82342 4.96473C5.76377 5.28754 5.70763 5.63843 5.65149 6.01738C7.81645 3.33312 9.99895 2.18573 10.213 2.08046C10.427 1.9752 11.1604 1.48045 11.4691 1.37869C9.12173 2.01379 7.80943 2.97171 6.40589 3.39628C6.3139 3.50205 6.23713 3.62015 6.17782 3.74716" fill="#F6F2EE"/>
<path d="M17.6762 4.677C14.0867 2.66643 12.2375 5.22437 12.2375 5.22437C12.2375 5.22437 12.2165 5.26297 12.2059 5.26648C10.9287 6.40685 9.65502 7.99285 9.12518 9.60692C10.3884 6.93318 14.2095 3.59276 16.3464 4.61734C21.3991 7.03493 21.6518 5.52613 23.0132 4.61734C22.0132 5.22086 21.1851 6.6595 17.6657 4.69103" fill="#EBE7E3"/>
<path d="M22.6694 4.76469C20.3149 5.74717 18.7254 3.82081 16.3534 2.41728C16.2517 2.37517 16.1534 2.32956 16.0482 2.27692C14.3885 1.46638 11.606 5.81735 11.613 5.81735C12.1428 5.42787 14.0867 2.65939 17.6763 4.66645C21.1851 6.63491 21.715 5.51559 22.6729 4.8454L23.0238 4.59276C23.0238 4.59276 22.7185 4.73312 22.6729 4.76821" fill="#FFFBF7"/>
<path d="M11.0761 6.1051C9.02694 7.66303 5.94968 8.31216 5.31457 7.98935C5.03387 11.0631 4.36719 15.0386 5.04791 19.5334C5.34616 21.4949 5.74968 23.5826 6.076 25.6494C5.23738 19.0492 5.05844 11.1263 11.0796 6.1086" fill="#EFECE8"/>
<path d="M8.10412 1.30849C6.98479 1.74359 6.70058 2.48044 6.24443 3.08396C6.08751 3.34226 5.83555 3.52871 5.54266 3.60328C5.7146 3.56819 5.91811 3.51907 6.14619 3.46293C6.75627 3.29422 7.35037 3.07231 7.92166 2.79975C8.49009 2.54711 9.13571 2.2629 9.9638 1.92605C10.4235 1.74008 11.3954 1.38569 11.9077 1.24885C12.42 1.112 13.7744 0.880415 13.8481 0.86287L14.5499 0.771637C14.5007 0.771637 8.84448 1.09797 8.12868 1.30499" fill="#EFECE8"/>
<path d="M22.5325 61.608C22.4764 61.7237 22.4343 61.8255 22.3746 61.9272C22.1877 62.2932 21.9743 62.6451 21.736 62.9799C23.6133 62.3694 24.4554 61.2957 24.9887 59.5833C22.9992 61.6711 22.5325 61.5974 22.5325 61.5974" fill="#D2CFCB"/>
<path d="M18.1711 62.1799C16.6763 61.5237 15.4728 62.808 14.7219 63.5834C17.3781 64.4992 20.336 63.7624 21.7395 62.9834C21.9775 62.6484 22.1909 62.2966 22.3782 61.9308C21.5922 63.236 19.6167 62.815 18.1675 62.1834" fill="#DEDBD7"/>
<path d="M13.571 59.9553C14.3613 58.1598 14.6824 56.193 14.5043 54.2394C14.2517 57.464 12.6903 59.436 10.9323 59.7658C10.6307 59.8148 10.3241 59.8243 10.02 59.7939C9.50573 59.72 9.0163 59.5252 8.59194 59.2255C8.51474 59.1728 8.44105 59.1167 8.37088 59.057C7.69893 58.8517 7.09258 58.4737 6.61234 57.9608C6.1321 57.448 5.79475 56.8181 5.63397 56.1342C5.63397 56.1342 5.63397 56.1096 5.63397 56.0956C5.63397 56.3201 5.66907 56.5447 5.69714 56.7693V56.8184C5.77317 57.4712 5.91663 58.1144 6.12522 58.7377C7.60244 61.4115 11.8517 63.3413 13.5815 59.9448" fill="#EBE7E3"/>
<path d="M10.9323 59.7798C10.6307 59.8289 10.324 59.8383 10.02 59.8079C9.50684 59.7338 9.01861 59.539 8.59539 59.2395C8.24319 58.9954 7.93775 58.6899 7.69363 58.3377C6.48307 57.085 5.81288 54.8464 5.70762 53.3306V53.2744C5.662 53.678 5.61989 54.1516 5.61639 54.5832C5.57406 55.4698 5.61989 56.3584 5.75322 57.2359C5.75468 57.2523 5.75468 57.2687 5.75322 57.285C7.09711 59.8325 10.82 62.3764 13.3008 58.0816C13.0383 58.5072 12.6937 58.8763 12.287 59.1672C11.8804 59.4582 11.4198 59.6653 10.9323 59.7763" fill="#F2EFEA"/>
<path d="M27.1186 5.85593C24.7958 1.5962 24.7186 2.40324 23.2589 2.14709C21.294 2.25236 19.0974 3.62081 16.3395 2.43131C20.2203 4.75066 23.4905 -0.252955 27.1678 5.94015L27.2169 6.03138L27.1748 5.95769L27.1151 5.84191" fill="#E7E4E0"/>
<path d="M10.2796 62.9098C11.262 62.2729 12.099 61.436 12.7358 60.4536C10.8902 62.1484 6.89711 61.5975 5.71814 57.1974C5.90317 58.631 6.4977 59.9809 7.43046 61.0852L7.73221 61.408C8.44488 62.1 9.31208 62.6124 10.2621 62.9028" fill="#CCC9C6"/>
<path d="M17.2236 0.143564C15.792 -0.382763 12.02 0.747093 9.58486 0.985695C9.07896 1.02588 8.58084 1.13447 8.10413 1.3085C9.54275 0.996215 9.64451 1.3085 13.8621 0.834806C13.8832 0.834806 14.4165 0.778667 14.5639 0.77165C15.4694 0.661968 16.3876 0.805279 17.2166 1.18569C18.0733 1.64207 19.0118 1.92469 19.9781 2.0173C21.0693 2.13309 22.1079 2.05589 23.1115 2.10502C21.4623 1.72606 18.6201 0.648844 17.2341 0.140062" fill="#F2EFEA"/>
<path d="M19.9675 2.02078L19.8517 2.08044C18.2797 2.92958 16.8271 2.53307 15.8867 2.17517C16.0411 2.25938 16.1955 2.34359 16.3464 2.43482C19.1043 3.62432 21.3009 2.25237 23.2658 2.14711L23.1044 2.1085C22.0974 2.05938 21.0623 2.13657 19.9675 2.02078Z" fill="#EBE7E3"/>
<path d="M23.0343 50.106C21.2483 42.2356 17.364 37.1232 13.9394 32.9126C11.3539 29.7576 9.56554 26.0268 8.72522 22.0352C8.7954 22.8317 8.86207 23.6668 8.91821 24.5195C9.58138 29.3476 11.3744 35.0811 16.6833 41.569C21.5009 47.4638 22.5185 48.2673 23.0343 50.106Z" fill="#FFFBF7"/>
<path d="M27.2694 6.13663L27.3256 6.26645L27.6764 7.08051C27.9604 7.73758 28.0895 8.45117 28.0536 9.16609C28.0177 9.88101 27.8178 10.5781 27.4694 11.2034C28.7607 15.7649 27.4062 20.9896 25.3115 25.737C24.3992 27.8178 24.4308 29.681 24.1676 31.0003V30.9827C25.922 27.7651 27.501 24.7054 27.9922 23.3054C28.0449 23.1545 28.0905 23.0107 28.1396 22.8668C29.8203 18.5685 30.9186 12.8806 28.0414 7.58578L27.2694 6.13663Z" fill="#EBE7E3"/>
<path d="M23.0237 4.60329C24.173 5.52166 25.1578 6.62867 25.9361 7.87704C25.6799 6.05946 25.2343 4.25942 23.6974 4.41381C23.5085 4.42998 23.3229 4.47372 23.1465 4.54364C23.1465 4.54364 23.1255 4.52258 23.0237 4.59978" fill="#DEDBD7"/>
<path d="M27.7116 7.04194C27.2845 6.39896 26.8157 5.78476 26.308 5.20331C26.0446 4.91249 25.7244 4.67871 25.3671 4.51638C25.0099 4.35405 24.6231 4.2666 24.2308 4.25943C23.8405 4.25359 23.4559 4.35429 23.1185 4.55067C23.0876 4.56664 23.0582 4.58542 23.0308 4.6068C25.2062 3.98222 25.6238 6.08403 25.9431 7.88056C26.6223 8.9055 27.1372 10.0302 27.4695 11.214C27.7914 10.5723 27.9793 9.87169 28.0215 9.155C28.0637 8.4383 27.9595 7.72051 27.7151 7.04545" fill="#CCC9C6"/>
<path d="M14.7183 63.587C15.6657 62.815 16.4411 61.9729 17.4377 62.0045C16.7359 61.9729 14.0446 62.5483 13.4271 62.9904C13.8352 63.2343 14.268 63.4343 14.7183 63.587Z" fill="#D2CFCB"/>
<path d="M23.8624 55.4464C23.8357 54.7196 23.7536 53.9958 23.6168 53.2815C23.3832 51.9307 22.8653 50.645 22.0974 49.5095C19.2903 45.5796 12.6235 38.3338 10.8867 32.688C11.3919 36.225 10.5358 40.4812 11.9393 42.569C12.4212 43.1889 12.889 43.8006 13.3428 44.4041C16.7464 48.4603 20.7114 50.8147 20.5816 56.5693C20.5149 59.6184 19.4868 60.7062 17.9886 62.1097L18.1675 62.1799C19.6167 62.8115 21.5886 63.2325 22.3781 61.9272C23.4717 59.9478 23.9872 57.701 23.8659 55.4429" fill="#EFECE8"/>
<path d="M20.8448 57.0465C21.7465 49.6463 17.4657 45.6813 13.392 41.0146C12.9218 40.4918 11.5604 39.8953 12.0937 41.1233C14.3955 44.7375 15.9289 48.2393 16.3043 49.699C18.4517 58.3026 16.0938 61.0255 13.4411 62.9799C14.0587 62.5378 16.7359 61.9659 17.4517 61.9975C17.6396 62.0043 17.8254 62.0398 18.0026 62.1027C19.2237 60.9588 20.0728 60.3483 20.557 58.5342C20.6237 58.2816 20.6869 58.0009 20.7465 57.6886C20.7851 57.4886 20.8307 57.2746 20.8588 57.0465" fill="#E7E4E0"/>
<path d="M17.7008 51.6464C16.2373 45.9975 13.6763 40.6918 10.1638 36.032C10.1007 36.225 9.72873 37.397 9.42346 38.2672C9.70066 38.7479 9.93575 39.1514 10.1042 39.4637C10.3182 39.8812 10.4551 40.1654 10.634 40.5725C11.0516 41.4812 11.4446 42.3269 11.6165 42.6778C13.4329 46.2726 14.4174 50.23 14.4972 54.257C14.6692 57.4781 13.0551 61.1764 10.2866 62.9133C11.5498 63.4571 12.5077 63.1519 13.4446 62.994C15.7078 62.1694 19.8658 60.2571 17.7149 51.6499" fill="#F2EFEA"/>
<path d="M12.4271 4.10152C11.1572 4.73683 10.0237 5.6141 9.09016 6.68403C8.15926 7.72996 7.42255 8.93366 6.91468 10.2385C5.90062 12.8421 5.81992 15.7228 6.26554 18.4808C6.71116 21.2387 7.68662 23.944 8.25856 26.7722C8.5625 28.1876 8.69911 29.6338 8.66559 31.081C8.61409 32.5126 8.36252 33.9298 7.9182 35.2916C8.20135 33.8998 8.31913 32.4794 8.26909 31.06C8.21033 29.6506 8.00453 28.2511 7.65504 26.8845C7.30416 25.516 6.89714 24.1581 6.4866 22.7861C6.06618 21.4049 5.73334 19.9986 5.49008 18.5755C5.2607 17.1372 5.19829 15.6772 5.30411 14.2245C5.3665 13.4962 5.48379 12.7737 5.655 12.0631C5.82335 11.3502 6.05831 10.6548 6.35676 9.98586C6.9387 8.64447 7.77249 7.42714 8.81295 6.39982C9.8324 5.37282 11.0633 4.58017 12.42 4.07697" fill="#CCC9C6"/>
<path d="M9.50771 38.1548C9.79074 37.3964 9.97702 36.6054 10.0621 35.8004C10.1364 34.9966 10.1458 34.1881 10.0902 33.3828C10.006 31.7687 9.75683 30.1652 9.51472 28.5616C9.27261 26.9581 9.00945 25.3546 8.79541 23.744C8.58137 22.1334 8.49014 20.5194 8.33575 18.9018L9.80596 28.5195C10.0741 30.1268 10.2486 31.7483 10.3288 33.3758C10.3569 34.1962 10.3193 35.0175 10.2165 35.832C10.0909 36.6383 9.85474 37.4235 9.51472 38.1653" fill="#CCC9C6"/>
<path d="M5.46549 5.26642C5.14538 6.28492 4.87719 7.31903 4.66196 8.36473C4.43977 9.40731 4.27693 10.4617 4.17423 11.5227C3.95745 13.6388 3.95745 15.7716 4.17423 17.8877C4.42378 20.0025 4.83434 22.0952 5.40233 24.1475C5.66198 25.2002 5.9462 26.2142 6.18129 27.2634C6.44102 28.3057 6.57531 29.3752 6.5813 30.4494C6.50739 29.3789 6.31558 28.3198 6.00936 27.2914C5.73216 26.2598 5.42338 25.2388 5.12864 24.2107C4.50829 22.1539 4.06456 20.048 3.80229 17.9158C3.69245 16.8458 3.64443 15.7703 3.65844 14.6947C3.66529 13.6201 3.73558 12.5469 3.86896 11.4806C4.00972 10.4175 4.21004 9.36323 4.46898 8.32263C4.73506 7.28435 5.06553 6.26363 5.45847 5.26642" fill="#CCC9C6"/>
<path d="M3.45842 6.14716C3.00367 7.04054 2.65058 7.98212 2.40577 8.95423C2.15574 9.92345 1.96243 10.9064 1.82681 11.8981C1.56003 13.8758 1.5294 15.8782 1.73558 17.8632C1.92884 19.8478 2.42587 21.791 3.20929 23.6247C3.61631 24.5265 4.07246 25.4282 4.5251 26.3195C4.97774 27.2107 5.47951 28.0739 5.95672 28.9687C5.63741 28.5792 5.33214 28.1757 5.0374 27.7651C4.74266 27.3546 4.48651 26.9406 4.21984 26.5195C3.95316 26.0984 3.72159 25.6388 3.49351 25.1896C3.26544 24.7405 3.04437 24.2844 2.84086 23.8177C2.05554 21.9427 1.56323 19.958 1.38118 17.9334C1.198 15.9158 1.27109 13.8833 1.59873 11.8841C1.7569 10.887 1.98436 9.90216 2.27944 8.93669C2.55809 7.96702 2.95402 7.03497 3.45842 6.16119" fill="#DEDBD7"/>
<path d="M5.63741 6.01385C6.59354 4.63089 7.80758 3.44544 9.21293 2.52254C9.91147 2.04197 10.67 1.65504 11.4691 1.37164C11.7605 1.26999 12.0598 1.19254 12.3639 1.14007C12.4832 1.11901 12.6095 1.10848 12.7323 1.10146C13.1737 1.06759 13.6172 1.13232 14.0306 1.29094C15.6376 1.86289 17.0341 2.82431 18.4412 3.69099C19.1302 4.14327 19.8712 4.51084 20.6482 4.78575C21.035 4.91852 21.4433 4.97686 21.8518 4.95768C22.2646 4.93453 22.6661 4.81432 23.0237 4.6068C22.681 4.85396 22.2816 5.01084 21.8623 5.06295C21.4386 5.109 21.01 5.07447 20.5991 4.96119C19.7927 4.71553 19.0196 4.37141 18.2973 3.93662C16.8447 3.11906 15.4622 2.16114 13.9078 1.64183C13.7215 1.57605 13.5303 1.52559 13.3358 1.49095C13.142 1.46163 12.9456 1.45222 12.7498 1.46287C12.3497 1.49144 11.9547 1.57044 11.5744 1.69797C10.7997 1.96795 10.059 2.32709 9.36732 2.76816C8.66434 3.20358 7.99782 3.69526 7.37429 4.23837C6.73153 4.76998 6.14378 5.36479 5.61987 6.01385" fill="#CCC9C6"/>
<path d="M23.0238 4.60327C23.3668 4.32158 23.7883 4.15249 24.2308 4.11905C24.6818 4.09239 25.1316 4.18817 25.5326 4.39625C26.2275 4.74473 26.8019 5.2935 27.1818 5.97172L27.2765 6.14365L27.3397 6.26295C27.7861 7.02335 28.0481 7.8778 28.1046 8.75774C28.165 9.6237 27.9421 10.4858 27.4695 11.2139C27.8471 10.4538 28.0004 9.60184 27.9116 8.75774C27.8245 7.91949 27.5564 7.11016 27.1256 6.38576C26.7168 5.66108 26.1252 5.05619 25.4098 4.63134C25.0538 4.42299 24.6532 4.30269 24.2414 4.28046C23.8187 4.27216 23.4012 4.37501 23.0308 4.57871" fill="#BBB8B5"/>
<path d="M10.4516 35.8636C10.8383 37.7077 11.4696 39.492 12.3288 41.169C12.7525 42.0064 13.2308 42.8152 13.7604 43.5901L14.5674 44.7515L14.971 45.3375C15.1043 45.534 15.2236 45.741 15.3499 45.9375C15.8527 46.7432 16.3085 47.5774 16.7148 48.4358C17.111 49.3003 17.4429 50.1927 17.7078 51.106C17.9648 52.0242 18.1386 52.9637 18.2271 53.9131C18.3133 54.6713 18.3368 55.4353 18.2973 56.1973C18.2864 55.438 18.2207 54.6805 18.1008 53.9306C17.979 52.9989 17.7807 52.0788 17.5078 51.1797C17.2201 50.2866 16.8767 49.4123 16.4798 48.5621C16.0706 47.7174 15.6125 46.8973 15.1078 46.1059C14.9815 45.9094 14.8587 45.7059 14.7288 45.5129L14.3113 44.9129C14.0446 44.5269 13.7674 44.1409 13.5043 43.748C12.9778 42.9609 12.5031 42.1404 12.0832 41.2918C11.2515 39.584 10.6949 37.7556 10.434 35.8741" fill="#CCC9C6"/>
<path d="M9.92527 30.7757C10.0915 32.0472 10.3793 33.2997 10.7849 34.5162C11.1664 35.7394 11.6283 36.9362 12.1674 38.0987C13.2166 40.4291 14.6534 42.5646 16.4166 44.4146C16.8658 44.8602 17.3359 45.3199 17.757 45.8181C18.1783 46.3115 18.5652 46.8332 18.9149 47.3796C19.6174 48.4701 20.1521 49.66 20.5009 50.9095C21.0721 53.0042 21.1739 55.1991 20.7992 57.3377C20.729 57.7447 20.6413 58.1552 20.536 58.5552C20.7934 57.2998 20.904 56.0186 20.8658 54.7376C20.8381 53.4585 20.6399 52.1888 20.2764 50.9621C19.9135 49.7425 19.3783 48.5811 18.6868 47.5129C18.3394 46.9809 17.9561 46.4733 17.5395 45.9936C17.1219 45.5094 16.6657 45.0778 16.2096 44.6146C14.4299 42.7362 12.9929 40.5606 11.9639 38.1864C11.4428 37.0082 11.002 35.796 10.6446 34.5583C10.4691 33.9384 10.3171 33.3138 10.1884 32.6845C10.0514 32.0571 9.9622 31.4202 9.92175 30.7792" fill="#D2CFCB"/>
<path d="M25.2343 27.4459C25.8951 26.1509 26.4661 24.8121 26.9431 23.4388C27.4241 22.0736 27.8259 20.6817 28.1467 19.2703C28.4691 17.8622 28.6791 16.4308 28.7747 14.9895C28.8177 14.269 28.8036 13.5463 28.7326 12.828L28.6765 12.2877L28.5642 11.7578L28.5116 11.4912C28.4905 11.4034 28.4519 11.3192 28.4238 11.235L28.2484 10.7157C28.9326 12.0175 29.0976 13.5228 29.094 14.9965C29.0922 15.7322 29.043 16.4671 28.9467 17.1965C28.8578 17.924 28.7326 18.6469 28.5712 19.365C28.26 20.8016 27.8305 22.2099 27.287 23.5756C26.7514 24.9346 26.0653 26.2292 25.2413 27.4353" fill="#FFFBF7"/>
<path d="M15.6692 55.1833C15.6939 52.2349 15.2109 49.3043 14.2411 46.5199C13.2822 43.7483 12.0245 41.0894 10.4901 38.5899C9.73925 37.3268 8.95679 36.0636 8.21993 34.7828C7.48308 33.5021 6.76376 32.2109 6.07954 30.8986C4.67261 28.3022 3.46104 25.6046 2.4549 22.8282C3.0514 24.1791 3.69001 25.502 4.38476 26.8072C5.07951 28.1125 5.7883 29.4038 6.49007 30.688C7.93571 33.2565 9.45504 35.7723 10.9919 38.2987C12.5415 40.8381 13.7741 43.5579 14.6622 46.3971C15.0975 47.819 15.4086 49.2759 15.592 50.7516C15.7697 52.2224 15.7909 53.708 15.6552 55.1833" fill="#E1DEDA"/>
<g opacity="0.4275">
<path d="M4.38827 26.8073C5.06898 28.1125 5.7918 29.4073 6.49357 30.688C6.79065 31.2167 7.09125 31.7442 7.39535 32.2705C8.26905 33.6741 9.2445 35.0776 10.3147 36.4811C15.2271 42.8462 18.3114 49.3305 16.0868 55.5868C15.6832 56.7272 15.8868 57.2605 16.399 57.2816H16.4657C17.8692 57.2254 21.3255 53.671 21.3781 48.3235V48.0638C21.3395 44.3901 19.6974 39.8987 14.7429 35.1232C10.11 31.6068 5.9783 27.4751 2.46191 22.8423C3.05842 24.1932 3.69703 25.516 4.39178 26.8178" fill="url(#paint0_linear_131_6175)"/>
</g>
<path d="M10.6375 40.5724C10.4621 40.1689 10.3217 39.8707 10.1077 39.4637C8.98836 42.0391 6.59884 47.327 5.83391 52.306C5.70635 53.0579 5.63015 53.8175 5.60583 54.5797C5.6207 54.7413 5.6453 54.9019 5.67952 55.0605C6.35322 57.9623 7.39885 58.457 7.83745 58.5307C7.5636 58.191 7.35322 57.8047 7.21639 57.3903C6.46901 55.1447 6.62339 50.6814 10.634 40.5724" fill="#F2EFEA"/>
<path d="M4.52158 13.4772C4.53598 13.3556 4.58702 13.2413 4.66792 13.1494C4.74882 13.0575 4.85576 12.9924 4.97454 12.9627C5.09332 12.933 5.21832 12.9401 5.33295 12.9831C5.44758 13.0261 5.54642 13.103 5.61634 13.2035C5.33778 13.3921 5.00885 13.4923 4.67246 13.4912C4.6222 13.4939 4.57184 13.4939 4.52158 13.4912M3.03734 12.221C3.12734 12.196 3.22191 12.1923 3.31361 12.2101C3.40531 12.2278 3.49164 12.2667 3.56578 12.3235C3.63993 12.3803 3.69988 12.4535 3.74092 12.5374C3.78195 12.6213 3.80295 12.7136 3.80226 12.807C3.79899 12.9345 3.7547 13.0576 3.67595 13.1579C3.35741 12.9248 3.13127 12.5869 3.03734 12.2035M5.81284 11.9263C5.81353 11.7896 5.8598 11.657 5.94433 11.5496C6.02886 11.4422 6.14682 11.3661 6.27951 11.3333C6.40173 11.7148 6.37541 12.1283 6.20582 12.4912C6.09028 12.4477 5.99076 12.3699 5.92055 12.2684C5.85033 12.1668 5.81276 12.0462 5.81284 11.9228M4.30754 12.4L4.00227 11.828C3.98656 11.7963 3.98083 11.7605 3.98584 11.7254C3.99085 11.6904 4.00637 11.6576 4.03035 11.6315L4.48298 11.1649C4.5074 11.1383 4.53983 11.1206 4.57532 11.1142C4.6108 11.1079 4.64739 11.1133 4.67947 11.1298L5.26194 11.414C5.29407 11.4294 5.32033 11.4549 5.33677 11.4865C5.35322 11.5181 5.35898 11.5543 5.35318 11.5894L5.26194 12.2315C5.25732 12.2669 5.24158 12.2999 5.21698 12.3258C5.19239 12.3516 5.16021 12.369 5.1251 12.3754L4.48649 12.4842H4.45843C4.42766 12.4847 4.39734 12.4769 4.37074 12.4614C4.34414 12.4459 4.32228 12.4235 4.30754 12.3965M3.10049 11.1929C3.24506 10.8247 3.51462 10.5191 3.86192 10.3298C3.91653 10.421 3.94562 10.5252 3.94613 10.6315C3.94659 10.7118 3.93112 10.7914 3.90061 10.8657C3.87009 10.94 3.82514 11.0075 3.76835 11.0643C3.71156 11.1211 3.64406 11.166 3.56978 11.1965C3.49549 11.227 3.4159 11.2425 3.33559 11.2421C3.25377 11.2434 3.17256 11.2278 3.09699 11.1964M4.98475 10.6877C4.87125 10.6436 4.77352 10.5666 4.70411 10.4665C4.63471 10.3665 4.5968 10.248 4.59527 10.1262H4.66895C5.0401 10.1254 5.40085 10.2489 5.69354 10.4771C5.61594 10.5845 5.50535 10.6635 5.37864 10.7022C5.25194 10.7408 5.11607 10.737 4.99177 10.6912M2.31452 11.807C2.31382 12.2742 2.45172 12.7311 2.71078 13.1199C2.96984 13.5087 3.33841 13.8119 3.76985 13.9912C4.20129 14.1704 4.67621 14.2177 5.13452 14.127C5.59282 14.0363 6.01392 13.8116 6.34453 13.4815C6.67513 13.1514 6.90039 12.7306 6.99179 12.2725C7.08319 11.8143 7.03663 11.3393 6.858 10.9076C6.67937 10.4759 6.3767 10.1069 5.98829 9.84725C5.59987 9.58762 5.14317 9.44904 4.67597 9.44904C4.36603 9.44858 4.05903 9.50922 3.77255 9.62751C3.48606 9.7458 3.22571 9.91942 3.00638 10.1384C2.78705 10.3574 2.61306 10.6175 2.49434 10.9038C2.37562 11.1901 2.31452 11.497 2.31452 11.807Z" fill="url(#paint1_linear_131_6175)"/>
<path d="M5.89745 7.00216L4.95239 7.54779L5.49802 8.49285L6.44308 7.94722L5.89745 7.00216Z" fill="url(#paint2_linear_131_6175)"/>
<path d="M4.36592 15.1894L3.60883 15.9753L4.39474 16.7324L5.15183 15.9465L4.36592 15.1894Z" fill="url(#paint3_linear_131_6175)"/>
<path d="M19.2518 63.4747C18.7212 63.5509 18.2109 63.7309 17.75 64.0045C18.5021 63.9693 19.2481 63.8517 19.9746 63.6536C19.8089 63.5151 19.5973 63.4438 19.3816 63.4536H19.2553M16.378 63.4747C16.2406 63.6173 16.094 63.7509 15.9394 63.8747C16.2077 63.921 16.4783 63.9526 16.75 63.9694C16.7822 63.9553 16.8128 63.9377 16.8412 63.9168C16.9864 63.8022 17.1192 63.6728 17.2377 63.5308C17.3289 63.4291 17.3956 63.3168 17.4833 63.208C17.571 63.0992 17.6552 63.008 17.7465 62.9027C17.4902 62.8928 17.2348 62.9392 16.9984 63.0386C16.762 63.138 16.5502 63.2881 16.378 63.4782M13.3078 62.4922C13.1394 62.4922 12.9815 62.4922 12.8201 62.4571C12.9055 62.5555 13.0007 62.6448 13.1043 62.7238L12.8832 62.9062C13.6517 62.8747 14.2236 63.2326 14.7991 63.587C14.7254 63.1273 14.0727 62.5062 13.2797 62.3904L13.3113 62.4887M14.8552 62.3869C14.8124 62.4246 14.7776 62.4705 14.7529 62.522C14.7282 62.5734 14.7141 62.6293 14.7115 62.6862C14.7088 62.7432 14.7177 62.8002 14.7376 62.8536C14.7575 62.9071 14.7879 62.956 14.8271 62.9975C14.8798 63.0642 14.9394 63.1238 14.9815 63.1729C15.1429 63.0396 15.2833 62.9027 15.4412 62.7799C15.5876 62.6841 15.7032 62.548 15.7742 62.388C15.8451 62.2281 15.8684 62.051 15.8412 61.8782C15.8412 61.7975 15.8061 61.7238 15.785 61.622C15.4692 61.9027 15.1499 62.1448 14.8552 62.3904M21.3992 61.1132L21.3396 61.0852C21.1746 60.9904 20.5501 60.8501 20.2307 61.1939C20.0097 61.436 19.7465 62.0501 20.15 62.3133C20.1924 62.3548 20.247 62.3816 20.3057 62.3898C20.3644 62.398 20.4243 62.3872 20.4764 62.3589C20.6039 62.2857 20.702 62.1703 20.7536 62.0325C20.7633 62.0028 20.7704 61.9723 20.7746 61.9413C20.7558 61.9536 20.7381 61.9677 20.722 61.9834C20.5922 62.1238 20.515 62.1624 20.4518 62.1203C20.4097 62.0634 20.3837 61.9963 20.3763 61.926C20.3689 61.8557 20.3804 61.7846 20.4097 61.7203C20.6027 61.3694 20.9606 61.2606 21.1395 61.3694C21.3185 61.4781 21.315 61.6466 21.1992 61.9273C21.0909 62.2339 20.8666 62.4859 20.5746 62.629C20.3412 62.7184 20.097 62.7763 19.8483 62.801C19.6944 62.8086 19.5403 62.7908 19.3921 62.7483C19.1909 62.6859 18.9771 62.6762 18.7711 62.7203C18.0941 62.9635 17.506 63.4049 17.0833 63.987H17.3219C17.4442 63.8426 17.5819 63.712 17.7325 63.5975C18.1059 63.273 18.5817 63.0904 19.0763 63.0817C19.4272 63.0992 19.7149 63.1624 20.0272 63.1764C20.2196 63.1985 20.4138 63.1985 20.6062 63.1764C20.7764 63.1296 20.9348 63.0473 21.0709 62.9348C21.207 62.8223 21.3177 62.6822 21.3957 62.5238L21.1711 62.4746C21.5142 62.1969 21.7529 61.8109 21.8483 61.3799C21.7115 61.4746 21.5852 61.5518 21.4553 61.629C21.542 61.4588 21.617 61.283 21.6799 61.1027C21.7112 61.0363 21.7274 60.9638 21.7274 60.8904C21.7274 60.817 21.7112 60.7445 21.6799 60.6781C21.5887 60.829 21.5044 60.9659 21.4062 61.1238M13.6376 60.0711C13.4834 60.0615 13.3287 60.0615 13.1745 60.0711C13.5171 60.2307 13.8128 60.4761 14.0328 60.7834C14.2529 61.0908 14.3899 61.4497 14.4306 61.8255C14.5502 61.7025 14.6432 61.5561 14.7035 61.3955C14.7639 61.2349 14.7905 61.0635 14.7815 60.8922C14.7521 60.693 14.6801 60.5025 14.5705 60.3336C14.4609 60.1646 14.3163 60.0213 14.1464 59.9132C14.1464 59.9693 14.1464 60.0009 14.1183 60.043C13.9183 59.9518 13.792 59.7553 13.5359 59.7167L13.6517 60.0676M17.2553 59.422C17.0669 59.509 16.9161 59.661 16.8307 59.85C16.9184 59.829 16.9956 59.7974 17.0728 59.7869C17.1064 59.7793 17.1412 59.7788 17.1749 59.7855C17.2087 59.7922 17.2407 59.8059 17.2688 59.8258C17.2969 59.8456 17.3205 59.8711 17.3382 59.9007C17.3558 59.9303 17.367 59.9632 17.371 59.9974C17.374 60.0837 17.3579 60.1697 17.3239 60.2491C17.29 60.3285 17.239 60.3995 17.1745 60.4571C16.964 60.636 16.743 60.808 16.5289 60.9553C16.4164 61.0235 16.3244 61.1207 16.2627 61.2368C16.2009 61.353 16.1717 61.4836 16.178 61.615C16.215 61.858 16.3398 62.079 16.5289 62.236C16.0911 62.771 15.593 63.2537 15.0447 63.6747C15.1885 63.7168 15.3359 63.7589 15.4798 63.7905C15.9755 63.3788 16.4443 62.9358 16.8833 62.4641C17.0737 62.5625 17.2872 62.6072 17.501 62.5936C17.7149 62.58 17.921 62.5086 18.0974 62.3869C18.3 62.2204 18.452 62.0004 18.536 61.7518C18.6061 61.5764 18.6623 61.401 18.7219 61.2185C18.757 61.107 18.8147 61.004 18.8913 60.9159C18.968 60.8277 19.0621 60.7563 19.1676 60.7062C19.336 60.6395 19.4377 60.7237 19.4553 60.9448C19.4553 60.9729 19.4553 61.0009 19.4553 61.0501C19.5526 60.9221 19.6188 60.7731 19.6483 60.615C19.6792 60.5239 19.6847 60.4262 19.6643 60.3322C19.6439 60.2383 19.5984 60.1517 19.5325 60.0816C19.4473 60.0162 19.3412 59.984 19.234 59.9911C19.1268 59.9982 19.0258 60.0441 18.95 60.1202C18.8387 60.2093 18.7426 60.3159 18.6658 60.436C18.5631 60.5973 18.4705 60.7649 18.3886 60.9378C18.1978 61.1963 17.9853 61.4381 17.7535 61.6606C17.9118 61.417 18.0458 61.1585 18.1535 60.8887C18.2483 60.6606 18.3289 60.429 18.4026 60.1869C18.4128 60.1499 18.421 60.1124 18.4272 60.0746C18.3989 60.0988 18.372 60.1246 18.3465 60.1518C18.0254 60.522 17.6834 60.8735 17.3219 61.2044C17.2868 61.236 17.2588 61.2746 17.2272 61.3097C17.2751 61.0837 17.3734 60.8714 17.5149 60.6887C17.5675 60.636 17.6167 60.5834 17.6623 60.5237C17.8087 60.3515 17.9272 60.1574 18.0132 59.9483C18.0621 59.8586 18.0752 59.7537 18.0498 59.6547C18.0244 59.5557 17.9624 59.47 17.8763 59.4149C17.789 59.3534 17.6849 59.3204 17.5781 59.3202C17.4701 59.3236 17.3639 59.3487 17.2658 59.3939M15.2026 58.3412L15.0833 57.9307C15.0048 57.9525 14.9324 57.992 14.8716 58.0461C14.8108 58.1003 14.7632 58.1676 14.7324 58.243C14.6672 58.3884 14.6098 58.5371 14.5605 58.6886L14.3464 58.4991C14.2333 58.6134 14.1651 58.7645 14.1542 58.9249C14.1432 59.0853 14.1903 59.2443 14.2868 59.3728C14.4586 59.6325 14.6436 59.8831 14.8412 60.1237C15.0845 60.3692 15.2421 60.6867 15.2903 61.029C15.289 61.2009 15.2469 61.37 15.1676 61.5224C15.0884 61.6749 14.9741 61.8064 14.8341 61.9062C14.6098 62.0913 14.3246 62.1863 14.0341 62.1729C14.0341 62.1729 13.9955 62.2676 13.992 62.2852C14.0201 62.4185 14.2587 62.3589 14.378 62.3273C15.2798 62.0992 15.8587 61.4185 15.5886 60.7272C15.4833 60.4536 15.1324 60.0255 14.9991 59.7483C14.8632 59.5411 14.8048 59.2926 14.8341 59.0465C14.865 58.8805 14.9581 58.7325 15.0944 58.6327C15.2307 58.533 15.3999 58.4889 15.5675 58.5097C15.6718 58.5238 15.7675 58.5747 15.8376 58.6532C15.9077 58.7317 15.9476 58.8326 15.95 58.9377C15.9427 59.0178 15.9154 59.0948 15.8706 59.1616C15.8259 59.2285 15.7651 59.283 15.6938 59.3202C15.6571 59.3452 15.6137 59.3586 15.5692 59.3586C15.5248 59.3586 15.4814 59.3452 15.4447 59.3202C15.4159 59.2909 15.3982 59.2526 15.3943 59.2117C15.3905 59.1708 15.4008 59.1298 15.4236 59.0956C15.4255 59.0805 15.4255 59.0652 15.4236 59.05C15.3427 59.0673 15.27 59.1113 15.2172 59.175C15.1644 59.2386 15.1345 59.3182 15.1324 59.4009C15.1675 59.6571 15.7499 59.8641 16.0166 59.6886C16.1421 59.5954 16.2367 59.4666 16.288 59.3189C16.3393 59.1712 16.345 59.0115 16.3043 58.8605C16.2801 58.7361 16.2216 58.6209 16.1355 58.5279C16.0493 58.4349 15.9389 58.3678 15.8166 58.3342L15.7394 58.2991C15.7956 58.1623 15.8377 58.0395 15.8868 57.9097H15.8342C15.5324 57.9097 15.364 58.0991 15.1921 58.3588M19.4798 55.6043C19.3828 55.7655 19.3307 55.9496 19.329 56.1377C19.3098 56.3571 19.3098 56.5779 19.329 56.7973C19.2849 56.7506 19.2265 56.7197 19.1631 56.7096C19.0996 56.6994 19.0346 56.7105 18.9781 56.7412C19.0078 56.8343 19.0313 56.9292 19.0483 57.0254C19.053 57.1002 19.053 57.1752 19.0483 57.25C18.9442 57.3127 18.8558 57.3984 18.7901 57.5006C18.7244 57.6028 18.6831 57.7188 18.6693 57.8395C18.6693 57.8886 18.6693 57.9342 18.6693 57.9798C18.6061 57.7868 18.5009 57.5868 18.4482 57.4184C18.4065 57.2799 18.3318 57.1535 18.2307 57.05C18.2037 57.03 18.1742 57.0134 18.143 57.0009C18.1254 57.05 18.1114 57.1026 18.0904 57.1482C18.0817 57.1782 18.0747 57.2087 18.0693 57.2395C18.0209 57.1849 17.9681 57.1345 17.9114 57.0886C17.8679 57.0607 17.8188 57.0427 17.7675 57.0359C17.6588 57.0114 17.6412 57.0359 17.6412 57.1938C17.6412 57.2465 17.6412 57.2991 17.6412 57.3658C17.5796 57.3398 17.5109 57.3362 17.4469 57.3554C17.3828 57.3746 17.3275 57.4155 17.2903 57.4711C17.3395 57.5167 17.3851 57.5447 17.3956 57.6184C17.3992 57.7099 17.3824 57.8009 17.3465 57.8851C17.3135 57.988 17.3062 58.0974 17.3251 58.2039C17.3441 58.3103 17.3887 58.4104 17.4553 58.4956C17.5121 58.5312 17.5793 58.546 17.6458 58.5377C17.7123 58.5294 17.7739 58.4984 17.8202 58.45C17.8893 58.3558 17.9349 58.2465 17.9532 58.1312C17.9715 58.0158 17.962 57.8978 17.9254 57.7868C17.8763 57.7096 17.8447 57.7096 17.75 57.7868C17.7746 57.8395 17.8237 57.8921 17.8167 57.9518C17.803 58.0311 17.7678 58.1051 17.7149 58.1658C17.6482 58.236 17.5746 58.243 17.5219 58.1868C17.4771 58.1199 17.4532 58.0411 17.4532 57.9605C17.4532 57.8799 17.4771 57.8012 17.5219 57.7342C17.5526 57.6762 17.5916 57.623 17.6377 57.5763C17.6896 57.5291 17.7544 57.4985 17.8238 57.4885C17.8933 57.4785 17.9641 57.4895 18.0272 57.5202C18.0857 57.5659 18.1329 57.6245 18.1652 57.6915C18.1974 57.7584 18.2138 57.8319 18.2132 57.9061C18.2377 58.2255 18.0728 58.7237 18.0868 59.043C18.1009 59.3623 18.3079 59.4535 18.5535 59.5027C18.6623 59.5237 18.9395 59.5553 18.9991 59.5764C19.2904 59.6816 19.543 59.6641 19.7009 59.3974C19.8588 59.1307 19.9465 58.6009 20.1185 58.3448C20.1542 58.2786 20.2043 58.2214 20.265 58.177C20.3257 58.1327 20.3955 58.1025 20.4693 58.0886C20.5388 58.0902 20.6063 58.1124 20.6631 58.1524C20.72 58.1924 20.7637 58.2483 20.7887 58.3132C20.8089 58.3755 20.8195 58.4406 20.8202 58.5061C20.8263 58.5862 20.809 58.6663 20.7704 58.7367C20.7317 58.8071 20.6735 58.8648 20.6027 58.9026C20.5255 58.9307 20.4623 58.9027 20.4378 58.7974C20.4157 58.7194 20.4157 58.6368 20.4378 58.5588C20.4588 58.5026 20.5255 58.4816 20.5711 58.4465C20.5185 58.3447 20.4869 58.3307 20.4097 58.3763C20.3276 58.4573 20.2666 58.5574 20.2324 58.6675C20.1981 58.7777 20.1915 58.8946 20.2132 59.0079C20.23 59.078 20.2725 59.1393 20.3322 59.1796C20.392 59.2199 20.4647 59.2362 20.536 59.2255C20.6303 59.1786 20.7116 59.1093 20.7728 59.0236C20.834 58.938 20.8732 58.8386 20.8869 58.7342C20.8951 58.6337 20.9263 58.5365 20.9781 58.45C21.0202 58.3904 21.0729 58.3869 21.1395 58.3693C21.1395 58.3693 21.1395 58.3693 21.1571 58.3412C21.1185 58.1342 20.9781 58.1693 20.8658 58.1132C20.8939 58.05 20.9185 58.0044 20.9431 57.9553C21.0167 57.8149 21.0097 57.7833 20.9044 57.7588C20.8549 57.7415 20.8022 57.7355 20.75 57.7412C20.6782 57.7562 20.6078 57.7774 20.5395 57.8044C20.5395 57.7588 20.5606 57.7377 20.5641 57.7167C20.5676 57.6956 20.5816 57.6114 20.5887 57.5588H20.5501C20.528 57.5554 20.5055 57.5554 20.4834 57.5588C20.37 57.6051 20.2627 57.6651 20.1641 57.7377C19.9949 57.8639 19.8499 58.0197 19.736 58.1974C19.751 58.1316 19.7709 58.0671 19.7957 58.0044C19.8834 57.7833 19.8658 57.6535 19.7957 57.5412L19.6974 57.3833C19.6974 57.3588 19.7185 57.3342 19.729 57.3026C19.7746 57.1552 19.8448 57.0395 19.9009 56.8921C19.874 56.8379 19.8295 56.7946 19.7746 56.769C19.7198 56.7435 19.6579 56.7374 19.5992 56.7517C19.6692 56.5339 19.7058 56.3068 19.7079 56.078C19.7129 55.9077 19.6717 55.7391 19.5886 55.5903C19.585 55.5841 19.58 55.5789 19.5738 55.5752C19.5677 55.5715 19.5607 55.5695 19.5535 55.5692C19.5396 55.571 19.5261 55.5757 19.514 55.5829C19.5019 55.5902 19.4915 55.5999 19.4834 55.6113" fill="url(#paint4_linear_131_6175)"/>
<path d="M24.2834 54.2148C24.292 54.2301 24.3042 54.2432 24.3188 54.2529C24.3334 54.2627 24.3501 54.2689 24.3676 54.271H24.3921C24.4291 54.266 24.4648 54.2541 24.4974 54.2359C24.6132 54.1762 24.6518 54.1131 24.6342 54.0218C24.5674 53.7863 24.4113 53.5862 24.1992 53.4639C24.1363 53.7162 24.1662 53.9827 24.2834 54.2148ZM23.5114 53.5131C23.5267 53.6006 23.5197 53.6906 23.4908 53.7746C23.462 53.8587 23.4123 53.9341 23.3465 53.9938C23.4251 54.0172 23.5085 54.0199 23.5885 54.0014C23.6685 53.983 23.7423 53.9441 23.8027 53.8885C23.857 53.8484 23.9003 53.7952 23.9285 53.7338C23.9567 53.6725 23.969 53.605 23.9641 53.5376C23.9522 53.4051 23.9079 53.2775 23.8351 53.1661C23.7623 53.0547 23.6632 52.963 23.5465 52.899C23.5465 53.1271 23.5044 53.3341 23.5149 53.5236M24.5676 53.5727C24.7571 53.678 25.0307 53.5727 25.1816 53.2464C24.9325 53.3166 24.8308 53.1587 24.7115 53.0288C24.5852 52.9219 24.4502 52.8257 24.3079 52.7411C24.2694 52.8907 24.2732 53.0481 24.3191 53.1956C24.365 53.3431 24.451 53.4749 24.5676 53.5762M22.9044 53.2709C22.8887 53.3646 22.8447 53.4512 22.7781 53.519C22.7116 53.5868 22.6258 53.6325 22.5325 53.6499C22.5795 53.7122 22.6439 53.7593 22.7174 53.7855C22.791 53.8117 22.8706 53.8158 22.9465 53.7973C23.0215 53.7865 23.0927 53.7575 23.1538 53.7129C23.215 53.6682 23.2643 53.6093 23.2974 53.5411C23.3911 53.3535 23.4231 53.141 23.3886 52.9341C23.3793 52.8308 23.3557 52.7292 23.3184 52.6323C23.1276 52.8053 22.988 53.0274 22.9149 53.2745M24.3185 52.1727C24.4278 52.3836 24.5521 52.5865 24.6904 52.7797C24.7367 52.8513 24.8074 52.9036 24.8894 52.9268C24.9714 52.9501 25.0591 52.9427 25.136 52.906C25.2175 52.8688 25.2877 52.8107 25.3395 52.7376C25.322 52.6464 25.3009 52.5587 25.2799 52.4639C25.1576 52.4666 25.0392 52.4213 24.9501 52.3376C24.8021 52.2244 24.6205 52.1638 24.4342 52.1657H24.315M22.7325 51.6744C22.4517 51.8895 22.2296 52.1719 22.0868 52.4955C22.0173 52.6276 21.9917 52.7785 22.0138 52.9261C22.0359 53.0738 22.1045 53.2106 22.2096 53.3166C22.4763 53.0744 22.6728 52.8323 22.5956 52.5236L23.1816 52.485C23.0781 52.3259 23.0196 52.1418 23.0122 51.9521C23.0048 51.7625 23.0487 51.5744 23.1395 51.4077L23.1009 51.3797C22.9816 51.4814 22.8518 51.5727 22.7289 51.6744M20.2412 52.3972H20.3956C20.3079 52.6218 20.2166 52.8394 20.1149 53.0499C20.2921 52.9803 20.4615 52.8921 20.6201 52.7867C20.6728 52.9236 20.7184 53.0499 20.7675 53.1762C21.0938 52.1235 21.8552 51.499 22.6202 50.8849C22.5606 50.8797 22.5008 50.8797 22.4412 50.8849C21.7395 50.8849 20.7324 51.4674 20.2447 52.4078M23.7851 50.9727C23.7851 50.9727 23.7605 51.0007 23.7325 51.0393C24.1395 51.113 24.2904 51.4674 24.3676 51.8815C24.6027 51.8253 24.7185 51.6218 24.8132 51.4393C24.8977 51.5258 24.9867 51.6078 25.0799 51.6849C24.998 51.3879 24.9056 51.0826 24.8027 50.7691H24.6413C24.3456 50.7801 24.0554 50.8518 23.7886 50.9797M23.736 50.3095C23.9974 50.2009 24.2673 50.114 24.543 50.0498L24.4904 49.913L24.3465 49.5621C24.0899 49.7641 23.8813 50.0205 23.736 50.313M17.3323 50.0007L17.5008 50.099C17.2797 50.3305 16.9499 50.4077 16.7709 50.7376H17.3113C17.2221 50.9435 17.1448 51.1544 17.0797 51.3692C18.0938 50.3937 19.0412 50.3165 20.1219 50.4919C20.0868 50.1937 19.4201 49.6779 18.9885 49.5831C18.8608 49.5534 18.7302 49.5381 18.599 49.5375C18.1422 49.559 17.7023 49.7166 17.3359 49.9902M21.5465 50.0428C21.5789 50.1199 21.6264 50.1897 21.6862 50.2482C21.746 50.3067 21.8169 50.3526 21.8947 50.3834C21.9724 50.4141 22.0556 50.429 22.1392 50.4271C22.2228 50.4253 22.3052 50.4067 22.3816 50.3726C22.5009 50.3305 22.6132 50.2779 22.6939 50.2463C22.5851 49.9586 22.4623 49.706 22.3675 49.4323C22.3043 49.1854 22.1715 48.9619 21.9849 48.7883C21.7983 48.6147 21.5657 48.4985 21.3149 48.4533C21.1991 48.4323 21.0798 48.4287 20.9324 48.4077C21.1745 48.9726 21.357 49.52 21.5535 50.0428M23.0237 49.0849C23.1591 49.331 23.2763 49.5867 23.3746 49.8498C23.5771 49.7343 23.7356 49.5549 23.8252 49.3396C23.9147 49.1243 23.9302 48.8854 23.8693 48.6603C23.7771 48.4081 23.6595 48.166 23.5184 47.9375C23.4202 47.7656 23.2974 47.6147 23.1886 47.4463C23.0798 47.2778 22.9921 47.1129 22.8869 46.941C22.7515 47.2869 22.6942 47.6584 22.7191 48.029C22.744 48.3996 22.8504 48.7602 23.0307 49.0849M17.9569 48.3831C18.0671 48.3704 18.173 48.3334 18.2671 48.2747C18.3612 48.216 18.441 48.137 18.5008 48.0437C18.5606 47.9503 18.5988 47.8448 18.6128 47.7348C18.6268 47.6248 18.6161 47.513 18.5815 47.4077C18.3799 47.0596 18.0811 46.7779 17.7218 46.5971C18.2131 47.1585 18.4236 47.7656 17.9569 48.3796M15.9779 47.7164L15.3814 47.6217C15.3623 47.7356 15.3694 47.8523 15.4023 47.9629C15.4351 48.0736 15.4928 48.1753 15.5709 48.2603C15.7185 48.4292 15.8755 48.5897 16.0411 48.741L15.6727 48.8989C15.753 49.1112 15.9061 49.288 16.1047 49.3979C16.3033 49.5078 16.5344 49.5436 16.7569 49.4989C17.1926 49.4361 17.6248 49.3506 18.0517 49.2428C18.5124 49.081 19.013 49.0712 19.4798 49.2147C19.6871 49.3245 19.8667 49.4802 20.0047 49.6699C20.1428 49.8596 20.2357 50.0784 20.2763 50.3095C20.3781 50.7035 20.3293 51.1214 20.1394 51.4814C20.1394 51.4814 20.2236 51.5797 20.2587 51.6007C20.3149 51.4358 20.4833 51.1832 20.5184 51.0148C20.5843 50.7569 20.592 50.4876 20.5409 50.2264C20.4898 49.9652 20.3812 49.7187 20.2229 49.5047C20.0647 49.2906 19.8608 49.1145 19.626 48.9891C19.3913 48.8637 19.1316 48.7922 18.8657 48.7796C18.448 48.7668 18.0298 48.7761 17.613 48.8077C17.2689 48.8526 16.9197 48.7783 16.6236 48.5972C16.4289 48.4614 16.294 48.2558 16.247 48.0232C16.1999 47.7906 16.2443 47.5488 16.3709 47.348C16.4525 47.2256 16.5745 47.1357 16.7156 47.0941C16.8566 47.0524 17.0079 47.0616 17.1429 47.12C17.2442 47.1743 17.3298 47.2538 17.3912 47.351C17.4527 47.4481 17.488 47.5595 17.4938 47.6743C17.501 47.736 17.4891 47.7984 17.4596 47.8531C17.43 47.9077 17.3844 47.9519 17.3288 47.9796C17.2737 47.9992 17.2135 47.9991 17.1585 47.9793C17.1035 47.9594 17.057 47.9211 17.0271 47.8708C17.0116 47.8568 16.9952 47.8439 16.9779 47.8322C16.9509 47.9446 16.963 48.0628 17.0121 48.1674C17.0612 48.2719 17.1445 48.3567 17.2481 48.4077C17.599 48.5165 17.9499 48.0568 17.8832 47.6287C17.8707 47.4391 17.8087 47.2561 17.7035 47.0978C17.5982 46.9396 17.4533 46.8118 17.2832 46.727C17.1216 46.6386 16.9347 46.6082 16.7534 46.6407C16.5722 46.6733 16.4075 46.7668 16.2867 46.9059L16.1955 46.9866C16.0481 46.8357 15.9218 46.7059 15.785 46.5655C15.5569 46.9761 15.7007 47.32 15.9429 47.7129M18.3183 44.7445C18.1954 44.8401 18.1008 44.9673 18.0445 45.1125C17.9883 45.2578 17.9726 45.4155 17.999 45.569C18.0314 45.8697 18.1709 46.1487 18.392 46.355C18.392 46.2287 18.392 46.1024 18.4166 46.0041C18.4208 45.9541 18.4358 45.9055 18.4604 45.8617C18.4851 45.818 18.5188 45.78 18.5594 45.7504C18.6 45.7208 18.6465 45.7002 18.6957 45.6901C18.7449 45.68 18.7957 45.6806 18.8447 45.6918C18.9649 45.7297 19.0756 45.7932 19.1689 45.878C19.2622 45.9629 19.3359 46.0669 19.385 46.1831C19.5324 46.5515 19.6482 46.9305 19.771 47.3059C19.8119 47.4931 19.9032 47.6655 20.0349 47.8046C20.1666 47.9437 20.3338 48.0443 20.5184 48.0954C20.8078 48.1587 21.1102 48.1203 21.3745 47.9866C21.2552 47.9129 21.1605 47.8533 21.0622 47.7972C20.7509 47.59 20.5156 47.2869 20.3921 46.934C20.2127 46.4646 19.9981 46.0095 19.7499 45.5725C19.5796 45.289 19.3652 45.0343 19.1148 44.8181C18.9922 44.7013 18.8314 44.6327 18.6622 44.6252C18.5347 44.6282 18.4115 44.6725 18.3113 44.7515M19.5359 44.4497C19.9036 45.0674 20.2351 45.7059 20.5289 46.362C20.6935 46.6772 20.8849 46.9778 21.1008 47.2603C21.1954 47.3524 21.32 47.4072 21.4517 47.4147C21.4931 47.4184 21.5328 47.433 21.5667 47.4571C21.6006 47.4811 21.6275 47.5137 21.6447 47.5515C22.2949 48.7614 22.8407 50.0245 23.2763 51.3271C23.2907 51.3739 23.2907 51.424 23.2763 51.4709C23.1979 51.6114 23.1672 51.7735 23.1887 51.9329C23.2102 52.0923 23.2828 52.2405 23.3956 52.3551C23.55 52.5481 23.8307 52.9411 23.943 52.9341C23.9719 52.7013 23.9871 52.467 23.9886 52.2323C23.9954 52.0242 23.9717 51.8161 23.9185 51.6148C23.8834 51.499 23.7535 51.4288 23.6658 51.3376C23.5781 51.2463 23.5114 51.2218 23.4834 51.1411C23.0264 49.8685 22.469 48.6342 21.8167 47.4498C21.7823 47.4022 21.7605 47.3467 21.7531 47.2885C21.7458 47.2302 21.7531 47.1711 21.7746 47.1164C21.8021 47.0031 21.8057 46.8853 21.7852 46.7705C21.7647 46.6557 21.7204 46.5465 21.6552 46.4497C21.3351 45.9181 20.9283 45.4437 20.4517 45.0462C20.1815 44.8076 19.9008 44.5936 19.6131 44.376C19.578 44.348 19.5394 44.3304 19.4728 44.2883C19.5043 44.362 19.5184 44.4006 19.5394 44.4357M19.9885 42.7795C19.7184 42.9199 19.5991 43.2988 19.8482 43.783C19.911 43.9065 19.985 44.024 20.0692 44.1339C20.3927 44.5265 20.7445 44.8947 21.1219 45.2357C21.3429 45.4497 21.5535 45.6813 21.764 45.9164C22.0856 46.2934 22.2501 46.7795 22.2237 47.2743C22.3793 47.0744 22.484 46.8396 22.5286 46.5902C22.5732 46.3408 22.5565 46.0842 22.4798 45.8427C22.3458 45.485 22.1135 45.1724 21.8096 44.941C21.5991 44.7585 21.3816 44.5901 21.164 44.4322C21.0266 44.3321 20.9114 44.2047 20.8257 44.058C20.7399 43.9112 20.6855 43.7483 20.6657 43.5795C20.6657 43.3164 20.8166 43.2286 21.1289 43.3058L21.2623 43.3444C21.1388 43.1476 20.9657 42.9867 20.7605 42.8777C20.6117 42.7775 20.438 42.7204 20.2587 42.7128C20.1575 42.7129 20.0577 42.737 19.9675 42.783M15.7183 42.5199C15.6774 42.5349 15.6385 42.555 15.6025 42.5795C15.665 42.6687 15.7355 42.7521 15.813 42.8286C15.7192 42.8428 15.6265 42.8639 15.5358 42.8918C15.4746 42.9188 15.4196 42.9582 15.3744 43.0076C15.2691 43.1058 15.2867 43.1444 15.4551 43.2567L15.6446 43.3865C15.5692 43.4338 15.5135 43.5067 15.4877 43.5918C15.4619 43.677 15.4678 43.7686 15.5042 43.8497C15.5795 43.8187 15.664 43.8187 15.7393 43.8497C15.8396 43.9117 15.9257 43.9942 15.992 44.0918C16.056 44.1878 16.1476 44.262 16.2548 44.3046C16.362 44.3472 16.4796 44.3562 16.592 44.3304C16.6792 44.2957 16.7502 44.2297 16.7911 44.1453C16.832 44.0608 16.8398 43.9642 16.813 43.8743C16.7863 43.7513 16.7248 43.6387 16.6358 43.5497C16.5469 43.4607 16.4342 43.3992 16.3113 43.3725C16.1955 43.3725 16.1674 43.4076 16.1744 43.5515C16.2516 43.5515 16.3394 43.5514 16.399 43.5936C16.4754 43.6653 16.5311 43.7561 16.5604 43.8567C16.592 43.9795 16.5604 44.0602 16.4446 44.0778C16.3401 44.0803 16.2371 44.052 16.1486 43.9965C16.06 43.941 15.9896 43.8606 15.9463 43.7655C15.9051 43.6909 15.8755 43.6104 15.8586 43.5269C15.8439 43.4377 15.8569 43.3462 15.8958 43.2647C15.9347 43.1831 15.9977 43.1154 16.0762 43.0707C16.1674 43.0402 16.2643 43.0307 16.3597 43.0428C16.455 43.055 16.5464 43.0885 16.6271 43.1409C16.9779 43.3444 17.4236 43.8778 17.7815 44.0883C17.9208 44.1713 18.087 44.1968 18.2448 44.1595C18.4026 44.1221 18.5397 44.0249 18.6271 43.8883C18.6271 43.8883 18.6482 43.8883 18.6552 43.8602C18.6541 43.8404 18.6541 43.8204 18.6552 43.8006C18.1499 43.9515 17.6271 43.5936 17.0867 43.2216C16.7955 43.0181 16.4972 42.8181 16.199 42.6321C16.0897 42.5584 15.9623 42.5159 15.8306 42.5093C15.7944 42.5052 15.7579 42.5052 15.7218 42.5093M15.1744 42.0462C15.1744 42.3023 15.5569 42.3374 15.6516 42.3023C15.7464 42.2672 15.8411 42.169 15.9569 42.1269C16.0732 42.11 16.1914 42.11 16.3078 42.1269C16.0477 41.9438 15.7486 41.8237 15.4341 41.776C15.4003 41.7713 15.3658 41.7746 15.3335 41.7854C15.3011 41.7963 15.2717 41.8145 15.2476 41.8387C15.2235 41.8628 15.2053 41.8922 15.1944 41.9245C15.1835 41.9569 15.1803 41.9913 15.1849 42.0251M16.4236 40.418C16.3985 40.4443 16.3825 40.4779 16.3781 40.514C16.3737 40.55 16.381 40.5865 16.399 40.6181C16.5045 40.7974 16.6608 40.9415 16.8481 41.0321C17.2194 41.2096 17.5412 41.4759 17.785 41.8076L17.9078 41.99C17.6973 41.783 17.4517 41.59 17.2306 41.397C17.0537 41.2205 16.8171 41.1166 16.5674 41.1058C16.5401 41.1085 16.5149 41.1217 16.4972 41.1427C16.4795 41.1636 16.4707 41.1907 16.4727 41.2181C16.5194 41.4666 16.642 41.6946 16.8236 41.8707C16.9955 42.0777 17.1744 42.3198 17.3534 42.5444L17.2341 42.4462C16.9433 42.2112 16.6941 41.9289 16.4972 41.6111C16.3955 41.4497 15.9534 40.9093 15.7639 41.1795C15.6937 41.2777 15.8025 41.4742 16.006 41.6286C16.2095 41.783 16.3744 41.8847 16.5569 42.0146C16.5569 42.2356 16.6446 42.3655 16.9078 42.5725C17.0622 42.6813 17.2166 42.7655 17.3674 42.8707C17.4193 42.9048 17.4626 42.9504 17.4938 43.0041C17.5242 43.0937 17.5734 43.1757 17.6382 43.2447C17.7029 43.3137 17.7817 43.368 17.8692 43.4041C18.0121 43.4643 18.167 43.4907 18.3218 43.4813C18.3779 43.4774 18.4324 43.4613 18.4816 43.434C18.5307 43.4067 18.5732 43.369 18.6061 43.3234C18.6736 43.1983 18.709 43.0585 18.709 42.9164C18.709 42.7742 18.6736 42.6344 18.6061 42.5093C18.541 42.4002 18.458 42.3029 18.3604 42.2216C18.2916 42.1686 18.2363 42.1001 18.199 42.0216C18.1087 41.8272 18.0007 41.6417 17.8762 41.4672C17.6938 41.2146 17.5253 41.1163 17.3604 41.1514C17.2177 40.9669 17.0655 40.7901 16.9043 40.6216C16.7935 40.4973 16.6438 40.4144 16.4797 40.3865C16.4529 40.3846 16.4264 40.3934 16.406 40.411M18.385 40.0917C18.3289 40.1338 18.2306 40.2145 18.178 40.5198C18.105 40.4395 18.0265 40.3644 17.9429 40.2952C17.9156 40.3294 17.8931 40.3672 17.8762 40.4075C17.8561 40.4893 17.8527 40.5743 17.8659 40.6574C17.8792 40.7406 17.9089 40.8203 17.9534 40.8917C18.1183 41.204 18.3043 41.5128 18.4833 41.8181C18.8341 42.383 19.1429 42.9234 18.9605 43.4216H19.0201C19.0201 43.4216 19.0412 43.4006 19.0482 43.3971C19.1906 43.319 19.2971 43.1885 19.3449 43.0332C19.3927 42.878 19.3782 42.7102 19.3043 42.5655C19.1148 42.197 18.6025 41.7339 18.4306 41.3549C18.3829 41.2713 18.3549 41.1779 18.3488 41.0818C18.3428 40.9857 18.3587 40.8895 18.3955 40.8005C18.4462 40.7259 18.5181 40.6682 18.602 40.6351C18.6858 40.6019 18.7777 40.5948 18.8657 40.6146C18.9475 40.6385 19.0255 40.674 19.0973 40.7198C19.19 40.7691 19.2661 40.8447 19.316 40.9371C19.366 41.0295 19.3875 41.1345 19.378 41.2391C19.357 41.3409 19.2692 41.383 19.1499 41.3409C19.0514 41.3046 18.9642 41.2429 18.8973 41.1619C18.8517 41.0988 18.8762 41.011 18.8692 40.9338C18.7218 40.9338 18.6833 40.9338 18.6797 41.0567C18.6982 41.1815 18.7524 41.2983 18.8358 41.393C18.9193 41.4876 19.0284 41.5561 19.1499 41.59C19.2382 41.6226 19.3356 41.6209 19.4226 41.5852C19.5097 41.5494 19.5802 41.4823 19.6201 41.397C19.6535 41.2865 19.6523 41.1684 19.6165 41.0586C19.5807 40.9488 19.5122 40.8526 19.4201 40.783C19.3406 40.7203 19.2739 40.6428 19.2236 40.5549C19.2018 40.4762 19.2106 40.3922 19.2482 40.3198C19.2482 40.3198 19.2482 40.2988 19.2482 40.2812C18.9955 40.1759 18.9289 40.3514 18.7885 40.4321L18.6692 40.2356C18.6096 40.1303 18.5745 40.0847 18.5289 40.0847C18.4898 40.0921 18.4542 40.1118 18.4271 40.1409M16.8341 39.9268C16.9364 40.2568 17.1088 40.5608 17.3394 40.8181C17.2936 40.7422 17.2722 40.6542 17.2778 40.5657C17.2834 40.4773 17.3159 40.3928 17.3709 40.3233C17.3856 40.261 17.3839 40.196 17.3661 40.1345C17.3483 40.073 17.3149 40.0172 17.2692 39.9724C17.2052 39.89 17.1237 39.8229 17.0306 39.7759C17.0085 39.7727 16.986 39.7727 16.9639 39.7759C16.8622 39.7759 16.8236 39.8637 16.8376 39.9549M14.5884 39.0847C14.5639 39.0847 14.5428 39.0847 14.5393 39.1268C14.5521 39.31 14.6152 39.486 14.7218 39.6356C14.8564 39.8412 15.0222 40.0246 15.213 40.1794C15.1524 40.202 15.1013 40.2445 15.0681 40.3C15.035 40.3555 15.0217 40.4207 15.0305 40.4847C15.1639 40.583 15.2972 40.6461 15.4235 40.7549C15.6902 40.9725 15.8271 40.8567 15.8481 40.7549C15.8481 40.7198 15.813 40.6566 15.7499 40.583C15.7991 40.6334 15.8655 40.6634 15.9358 40.6672C16.0516 40.6426 16.1323 40.5865 16.0446 40.404C15.999 40.3093 15.9113 40.204 15.8656 40.1058C15.8239 40.0084 15.7876 39.9089 15.7569 39.8075C15.6869 39.8116 15.6204 39.8396 15.5687 39.8869C15.5169 39.9342 15.483 39.9978 15.4727 40.0672C15.3618 39.8574 15.2326 39.6578 15.0867 39.4707C14.9739 39.3035 14.819 39.1692 14.6376 39.0812H14.606L14.5884 39.0847Z" fill="url(#paint5_linear_131_6175)"/>
<defs>
<linearGradient id="paint0_linear_131_6175" x1="17.6056" y1="59.8758" x2="9.80275" y2="27.7575" gradientUnits="userSpaceOnUse">
<stop stop-color="#FAF6F2"/>
<stop offset="0.51" stop-color="#FFFBF7"/>
<stop offset="0.68" stop-color="#FFFBF7"/>
<stop offset="0.9" stop-color="#EBE7E3"/>
<stop offset="1" stop-color="#CCC9C6"/>
</linearGradient>
<linearGradient id="paint1_linear_131_6175" x1="8.0759" y1="5.88847" x2="2.81224" y2="14.988" gradientUnits="userSpaceOnUse">
<stop stop-color="#791426"/>
<stop offset="0.53" stop-color="#AF1C3B"/>
<stop offset="1" stop-color="#791426"/>
</linearGradient>
<linearGradient id="paint2_linear_131_6175" x1="7.34766" y1="7.86063" x2="2.08012" y2="16.9613" gradientUnits="userSpaceOnUse">
<stop stop-color="#791426"/>
<stop offset="0.53" stop-color="#AF1C3B"/>
<stop offset="1" stop-color="#791426"/>
</linearGradient>
<linearGradient id="paint3_linear_131_6175" x1="9.88636" y1="8.21164" x2="4.62215" y2="17.3113" gradientUnits="userSpaceOnUse">
<stop stop-color="#791426"/>
<stop offset="0.53" stop-color="#AF1C3B"/>
<stop offset="1" stop-color="#791426"/>
</linearGradient>
<linearGradient id="paint4_linear_131_6175" x1="8.39682" y1="79.9115" x2="28.2642" y2="32.6771" gradientUnits="userSpaceOnUse">
<stop stop-color="#791426"/>
<stop offset="0.53" stop-color="#AF1C3B"/>
<stop offset="1" stop-color="#791426"/>
</linearGradient>
<linearGradient id="paint5_linear_131_6175" x1="7.75261" y1="24.1258" x2="30.9122" y2="76.0173" gradientUnits="userSpaceOnUse">
<stop stop-color="#791426"/>
<stop offset="0.53" stop-color="#AF1C3B"/>
<stop offset="1" stop-color="#791426"/>
</linearGradient>
</defs>
</svg>
