<svg width="268" height="44" viewBox="0 0 268 44" fill="none" xmlns="http://www.w3.org/2000/svg">
<path d="M179.119 11.5488C179.119 5.4668 174.922 1.76169 167.327 1.76169C164.193 1.67977 161.08 2.28592 158.207 3.53737C157.085 5.37474 156.33 7.41146 155.982 9.53543C159.076 8.208 162.408 7.52758 165.774 7.53608C169.103 7.53608 171.775 8.93423 171.775 12.863C171.775 17.0575 169.145 20.1474 154.863 28.4105C154.866 30.0518 155.016 31.6895 155.311 33.3041H178.895C179.574 31.437 180.043 29.5003 180.294 27.5297H160.151C170.18 24.1042 179.119 20.5389 179.119 11.5348M239.268 11.5348C239.268 5.45281 235.072 1.74769 227.462 1.74769C224.329 1.66713 221.216 2.27324 218.342 3.52338C217.225 5.36273 216.47 7.39872 216.118 9.52152C219.211 8.19484 222.543 7.51438 225.909 7.52208C229.253 7.52208 231.924 8.92024 231.924 12.8491C231.924 17.0435 229.295 20.1335 215.013 28.3966C215.017 30.0378 215.166 31.6755 215.46 33.2902H239.058C239.734 31.422 240.203 29.4857 240.457 27.5158H220.244C230.274 24.0903 239.212 20.525 239.212 11.5209M198.353 13.8558C196.819 14.9525 195.448 16.2611 194.282 17.7426C195.45 19.2228 196.82 20.5313 198.353 21.6295C199.883 20.5285 201.253 19.2203 202.423 17.7426C201.254 16.2637 199.884 14.9554 198.353 13.8558ZM198.255 1.73378C189.358 1.73378 182.672 7.06076 182.672 15.7153C182.672 27.0404 193.583 33.7096 198.255 33.7096C202.927 33.7096 213.838 27.0404 213.838 15.7153C213.838 7.04678 207.165 1.73378 198.255 1.73378ZM198.255 31.0951C196.254 31.0951 190.016 27.0544 190.016 16.2187C190.016 10.8777 193.135 7.55007 198.255 7.55007C203.374 7.55007 206.494 10.8777 206.494 16.2187C206.494 27.0544 200.255 31.0951 198.255 31.0951ZM31.6133 33.7655L19.8912 27.5297C26.5216 25.1249 31.3895 20.3711 31.3895 13.646C31.3895 4.58596 24.5773 0 15.8067 0C7.74949 0 0 5.15928 0 15.1141C0 23.5031 6.40662 28.5364 13.4427 32.2276L36.0476 44C36.0476 38.7989 35.4321 35.8208 31.5993 33.7795M17.9469 26.5091L17.5832 26.3133C13.3168 24.0483 7.56762 20.5809 7.56762 14.2752C7.56762 8.50082 11.3165 5.78838 15.8067 5.78838C20.7865 5.78838 23.8219 9.29779 23.8219 15.4357C23.8219 19.6302 21.4859 23.3912 17.9608 26.5231M266.811 11.5768C266.811 5.49479 262.614 1.78968 255.019 1.78968C251.886 1.70866 248.772 2.31479 245.899 3.56536C244.779 5.40366 244.024 7.43999 243.674 9.56342C246.768 8.23599 250.1 7.55557 253.466 7.56407C256.809 7.56407 259.481 8.96222 259.481 12.891C259.481 17.0855 256.851 20.1754 242.569 28.4385C242.574 30.0797 242.723 31.7173 243.017 33.3321H266.601C267.28 31.4649 267.749 29.5283 268 27.5577H247.843C257.872 24.1322 266.811 20.5669 266.811 11.5628M34.7327 22.8879C34.7327 30.2701 37.4044 33.7795 40.9575 33.7795C45.3218 33.7795 48.8048 29.9206 52.148 21.6994V33.3321H59.268V8.89233C56.0647 8.62668 53.1272 8.44491 49.9239 8.44491C41.1113 8.44491 34.7887 12.0941 34.7887 22.8879M44.8042 27.5577C42.9298 27.5577 42.1325 25.069 42.1325 18.218C42.1325 14.6667 43.867 13.7719 48.8049 13.7719H52.1341C50.5534 18.6095 48.4412 27.5158 44.7902 27.5158M142.89 20.1335V17.7426C142.886 14.766 142.662 11.7937 142.218 8.85035H135.322C135.546 11.9543 135.769 14.6247 135.769 17.7426V33.2902H142.89C142.89 24.5797 145.687 14.6667 153.129 15.7432C153.096 13.2828 152.872 10.8286 152.457 8.40293C147.03 8.8783 144.372 13.646 142.89 20.1335ZM105.443 22.8879C105.423 24.4583 105.587 26.0256 105.933 27.5577H79.8167C76.3476 27.5577 74.1235 26.7607 74.1235 23.559V14.6667H82.3485C83.0221 12.7981 83.4911 10.862 83.7474 8.89233H74.1794C74.1794 6.09602 74.4172 3.70513 74.6131 0.89484C71.7329 1.75804 69.1256 3.35249 67.0454 5.52273V8.90633H62.849C62.5983 10.8219 62.449 12.7493 62.4014 14.6806H67.0734V24.0204C67.0734 30.5498 71.0321 33.3601 76.4595 33.3601H111.976C116.326 33.3601 119.669 29.7948 122.886 21.7414V33.3601H130.006V8.89233C126.803 8.62668 123.866 8.44491 120.662 8.44491C111.85 8.44491 105.527 12.0941 105.527 22.8879M115.543 27.5577C113.668 27.5577 112.871 25.069 112.871 18.218C112.871 14.6667 114.605 13.7719 119.543 13.7719H122.872C121.292 18.6095 119.179 27.5158 115.543 27.5158" fill="#F0E5E8"/>
</svg>
