<svg width="100" height="45" viewBox="0 0 100 45" fill="none" xmlns="http://www.w3.org/2000/svg">
<rect width="100" height="45" fill="#012169"/>
<path d="M2.80728 3L30 19.2684ZM30 3L2.80728 19.2684Z" fill="black"/>
<path d="M2.80728 3L30 19.2684M30 3L2.80728 19.2684" stroke="white" stroke-width="5"/>
<path d="M15.5964 3V19.2684ZM2 11.1342H29.1927Z" fill="black"/>
<path d="M15.5964 3V19.2684M2 11.1342H29.1927" stroke="#E4002B" stroke-width="5"/>
<path d="M40.3464 25.9055L41.6017 29.8085L45.4359 28.3564L43.1671 31.7713L46.6929 33.8637L42.6084 34.219L43.1709 38.2801L40.3464 35.3083L37.522 38.2801L38.0845 34.219L34 33.8637L37.5258 31.7713L35.257 28.3564L39.0911 29.8085L40.3464 25.9055Z" fill="white"/>
<path d="M83.7441 32.9318L84.3419 34.7903L86.1676 34.0989L85.0873 35.725L86.7662 36.7214L84.8212 36.8906L85.0891 38.8245L83.7441 37.4093L82.3991 38.8245L82.667 36.8906L80.722 36.7214L82.4009 35.725L81.3206 34.0989L83.1463 34.7903L83.7441 32.9318Z" fill="white"/>
<path d="M72.8947 15.7535L73.4924 17.6121L75.3182 16.9207L74.2378 18.5468L75.9168 19.5431L73.9718 19.7124L74.2396 21.6462L72.8947 20.2311L71.5497 21.6462L71.8175 19.7124L69.8726 19.5431L71.5515 18.5468L70.4711 16.9207L72.2969 17.6121L72.8947 15.7535Z" fill="white"/>
<path d="M83.7441 4L84.3419 5.85857L86.1676 5.16712L85.0873 6.79327L86.7662 7.78961L84.8212 7.95882L85.0891 9.89269L83.7441 8.47754L82.3991 9.89269L82.667 7.95882L80.722 7.78961L82.4009 6.79327L81.3206 5.16712L83.1463 5.85857L83.7441 4Z" fill="white"/>
<path d="M93.3881 12.8604L93.9858 14.7189L95.8116 14.0275L94.7312 15.6536L96.4102 16.65L94.4652 16.8192L94.733 18.753L93.3881 17.3379L92.0431 18.753L92.3109 16.8192L90.366 16.65L92.0449 15.6536L90.9645 14.0275L92.7903 14.7189L93.3881 12.8604Z" fill="white"/>
<path d="M88.0839 21.5657L88.5563 22.7238L89.8036 22.8152L88.8482 23.6223L89.1467 24.8369L88.0839 24.1776L87.021 24.8369L87.3195 23.6223L86.3641 22.8152L87.6115 22.7238L88.0839 21.5657Z" fill="white"/>
</svg>
