<svg width="100" height="45" viewBox="0 0 100 45" fill="none" xmlns="http://www.w3.org/2000/svg">
<rect width="100" height="45" fill="#FF1E35"/>
<path d="M34 0H0V23.8507H34V0Z" fill="#3C3B6E"/>
<path d="M2.82486 1.0293L3.63154 3.51202L1.51962 1.97762H4.1301L2.01818 3.51202L2.82486 1.0293Z" fill="white"/>
<path d="M2.82486 5.83274L3.63154 8.31545L1.51962 6.78105H4.1301L2.01818 8.31545L2.82486 5.83274Z" fill="white"/>
<path d="M2.82486 10.6362L3.63154 13.1189L1.51962 11.5845H4.1301L2.01818 13.1189L2.82486 10.6362Z" fill="white"/>
<path d="M2.82486 15.4396L3.63154 17.9223L1.51962 16.3879H4.1301L2.01818 17.9223L2.82486 15.4396Z" fill="white"/>
<path d="M2.82486 20.243L3.63154 22.7257L1.51962 21.1913H4.1301L2.01818 22.7257L2.82486 20.243Z" fill="white"/>
<path d="M5.64975 3.43102L6.45643 5.91373L4.34451 4.37933H6.95499L4.84307 5.91373L5.64975 3.43102Z" fill="white"/>
<path d="M5.64978 8.23445L6.45646 10.7172L4.34454 9.18276H6.95502L4.8431 10.7172L5.64978 8.23445Z" fill="white"/>
<path d="M5.64978 13.0379L6.45646 15.5206L4.34454 13.9862H6.95502L4.8431 15.5206L5.64978 13.0379Z" fill="white"/>
<path d="M5.64978 17.8413L6.45646 20.324L4.34454 18.7896H6.95502L4.8431 20.324L5.64978 17.8413Z" fill="white"/>
<path d="M8.47461 1.02931L9.28129 3.51202L7.16937 1.97762H9.77985L7.66793 3.51202L8.47461 1.02931Z" fill="white"/>
<path d="M8.47461 5.83274L9.28129 8.31545L7.16937 6.78105H9.77985L7.66793 8.31545L8.47461 5.83274Z" fill="white"/>
<path d="M8.47461 10.6362L9.28129 13.1189L7.16937 11.5845H9.77985L7.66793 13.1189L8.47461 10.6362Z" fill="white"/>
<path d="M8.47461 15.4396L9.28129 17.9223L7.16937 16.3879H9.77985L7.66793 17.9223L8.47461 15.4396Z" fill="white"/>
<path d="M8.47461 20.243L9.28129 22.7257L7.16937 21.1913H9.77985L7.66793 22.7257L8.47461 20.243Z" fill="white"/>
<path d="M11.2995 3.43102L12.1062 5.91373L9.99426 4.37933H12.6047L10.4928 5.91373L11.2995 3.43102Z" fill="white"/>
<path d="M11.2995 8.23445L12.1062 10.7172L9.99426 9.18276H12.6047L10.4928 10.7172L11.2995 8.23445Z" fill="white"/>
<path d="M11.2995 13.0379L12.1062 15.5206L9.99426 13.9862H12.6047L10.4928 15.5206L11.2995 13.0379Z" fill="white"/>
<path d="M11.2995 17.8413L12.1062 20.324L9.99426 18.7896H12.6047L10.4928 20.324L11.2995 17.8413Z" fill="white"/>
<path d="M14.1244 1.0293L14.931 3.51202L12.8191 1.97762H15.4296L13.3177 3.51202L14.1244 1.0293Z" fill="white"/>
<path d="M14.1244 5.83274L14.931 8.31545L12.8191 6.78105H15.4296L13.3177 8.31545L14.1244 5.83274Z" fill="white"/>
<path d="M14.1244 10.6362L14.931 13.1189L12.8191 11.5845H15.4296L13.3177 13.1189L14.1244 10.6362Z" fill="white"/>
<path d="M14.1244 15.4396L14.931 17.9223L12.8191 16.3879H15.4296L13.3177 17.9223L14.1244 15.4396Z" fill="white"/>
<path d="M14.1244 20.243L14.931 22.7257L12.8191 21.1913H15.4296L13.3177 22.7257L14.1244 20.243Z" fill="white"/>
<path d="M16.9493 3.43102L17.7559 5.91373L15.644 4.37933H18.2545L16.1426 5.91373L16.9493 3.43102Z" fill="white"/>
<path d="M16.9493 8.23445L17.756 10.7172L15.644 9.18276H18.2545L16.1426 10.7172L16.9493 8.23445Z" fill="white"/>
<path d="M16.9493 13.0379L17.756 15.5206L15.644 13.9862H18.2545L16.1426 15.5206L16.9493 13.0379Z" fill="white"/>
<path d="M16.9493 17.8413L17.756 20.324L15.644 18.7896H18.2545L16.1426 20.324L16.9493 17.8413Z" fill="white"/>
<path d="M19.7741 1.02931L20.5808 3.51202L18.4689 1.97762H21.0793L18.9674 3.51202L19.7741 1.02931Z" fill="white"/>
<path d="M19.7741 5.83274L20.5808 8.31545L18.4689 6.78105H21.0793L18.9674 8.31545L19.7741 5.83274Z" fill="white"/>
<path d="M19.7741 10.6362L20.5808 13.1189L18.4689 11.5845H21.0793L18.9674 13.1189L19.7741 10.6362Z" fill="white"/>
<path d="M19.7741 15.4396L20.5808 17.9223L18.4689 16.3879H21.0793L18.9674 17.9223L19.7741 15.4396Z" fill="white"/>
<path d="M19.7741 20.243L20.5808 22.7257L18.4689 21.1913H21.0793L18.9674 22.7257L19.7741 20.243Z" fill="white"/>
<path d="M22.599 3.43102L23.4057 5.91373L21.2938 4.37933H23.9042L21.7923 5.91373L22.599 3.43102Z" fill="white"/>
<path d="M22.599 8.23445L23.4057 10.7172L21.2938 9.18276H23.9042L21.7923 10.7172L22.599 8.23445Z" fill="white"/>
<path d="M22.599 13.0379L23.4057 15.5206L21.2938 13.9862H23.9042L21.7923 15.5206L22.599 13.0379Z" fill="white"/>
<path d="M22.599 17.8413L23.4057 20.324L21.2938 18.7896H23.9042L21.7923 20.324L22.599 17.8413Z" fill="white"/>
<path d="M25.4239 1.0293L26.2305 3.51202L24.1186 1.97762H26.7291L24.6172 3.51202L25.4239 1.0293Z" fill="white"/>
<path d="M25.4239 5.83274L26.2305 8.31545L24.1186 6.78105H26.7291L24.6172 8.31545L25.4239 5.83274Z" fill="white"/>
<path d="M25.4239 10.6362L26.2305 13.1189L24.1186 11.5845H26.7291L24.6172 13.1189L25.4239 10.6362Z" fill="white"/>
<path d="M25.4239 15.4396L26.2305 17.9223L24.1186 16.3879H26.7291L24.6172 17.9223L25.4239 15.4396Z" fill="white"/>
<path d="M25.4239 20.243L26.2305 22.7257L24.1186 21.1913H26.7291L24.6172 22.7257L25.4239 20.243Z" fill="white"/>
<path d="M28.2488 3.43102L29.0554 5.91373L26.9435 4.37933H29.554L27.4421 5.91373L28.2488 3.43102Z" fill="white"/>
<path d="M28.2488 8.23445L29.0554 10.7172L26.9435 9.18276H29.554L27.4421 10.7172L28.2488 8.23445Z" fill="white"/>
<path d="M28.2488 13.0379L29.0554 15.5206L26.9435 13.9862H29.554L27.4421 15.5206L28.2488 13.0379Z" fill="white"/>
<path d="M28.2488 17.8413L29.0554 20.324L26.9435 18.7896H29.554L27.4421 20.324L28.2488 17.8413Z" fill="white"/>
<path d="M31.0736 1.0293L31.8803 3.51202L29.7684 1.97762H32.3788L30.2669 3.51202L31.0736 1.0293Z" fill="white"/>
<path d="M31.0736 5.83274L31.8803 8.31545L29.7684 6.78105H32.3788L30.2669 8.31545L31.0736 5.83274Z" fill="white"/>
<path d="M31.0736 10.6362L31.8803 13.1189L29.7684 11.5845H32.3788L30.2669 13.1189L31.0736 10.6362Z" fill="white"/>
<path d="M31.0736 15.4396L31.8803 17.9223L29.7684 16.3879H32.3788L30.2669 17.9223L31.0736 15.4396Z" fill="white"/>
<path d="M31.0736 20.243L31.8803 22.7257L29.7684 21.1913H32.3788L30.2669 22.7257L31.0736 20.243Z" fill="white"/>
<rect x="34" y="3" width="66" height="3" fill="#FAF6F2"/>
<rect x="34" y="13" width="66" height="3" fill="#FAF6F2"/>
<rect x="34" y="8" width="66" height="3" fill="#FAF6F2"/>
<rect x="34" y="18" width="66" height="3" fill="#FAF6F2"/>
<rect y="24" width="100" height="3" fill="#FAF6F2"/>
<rect y="34" width="100" height="3" fill="#FAF6F2"/>
<rect y="29" width="100" height="3" fill="#FAF6F2"/>
<rect y="40" width="100" height="3" fill="#FAF6F2"/>
</svg>
