<svg width="100" height="45" viewBox="0 0 100 45" fill="none" xmlns="http://www.w3.org/2000/svg">
<rect width="100" height="45" fill="white"/>
<rect y="22" width="100" height="23" fill="#22C76D"/>
<path d="M37.694 11.6057C35.6944 11.9087 30.627 12.3848 28.6499 12.0602L29.0362 12.9909C32.3084 12.6879 35.4444 13.7484 38.3531 12.6446L37.694 11.6057Z" fill="#C8102E" stroke="black" stroke-width="0.1"/>
<path d="M29.9452 13.8783C28.6953 13.5104 26.6275 11.3677 26.2867 10.069C27.2638 10.7399 29.6043 11.6057 30.4451 11.5192C30.1724 11.714 29.4906 12.2333 28.968 12.2983C29.2181 12.7746 29.6952 13.3805 29.9452 13.8783Z" fill="#C8102E" stroke="black" stroke-width="0.1"/>
<path d="M33.9672 13.2289C34.331 13.7267 36.2397 13.5211 37.2054 12.9152L36.944 12.4931L36.7509 12.8502L36.4442 12.5148L36.3647 13.045L35.8307 12.6554L35.7397 13.1208L35.3989 12.7096L35.274 13.2183L34.774 12.8285L34.5809 13.3589C34.4301 13.18 34.3457 12.9544 34.3422 12.7204C34.1491 12.7961 33.99 13.045 33.9672 13.2289Z" fill="#C8102E" stroke="black" stroke-width="0.1"/>
<path d="M34.1263 11.6166C34.1263 11.7464 34.2853 12.1252 34.5809 12.2333C34.5923 12.0711 34.3876 11.6922 34.5127 11.53L34.774 11.7681L34.8536 11.3135L35.2058 11.5624L35.2398 11.0322L35.6034 11.2703V10.6859C35.0125 10.7399 34.2853 11.4218 34.1263 11.6166Z" fill="#C8102E" stroke="black" stroke-width="0.1"/>
<path d="M71.0017 17.5144C70.8483 17.1682 70.3711 16.7462 69.9507 16.4864C70.1148 16.1021 70.3707 15.494 70.6263 14.8644C69.9901 14.9943 68.6668 15.0904 67.8941 15.0038C69.3484 13.6187 72.3935 10.7616 73.3934 9.46294C73.0298 11.2377 73.3025 15.2202 74.0297 16.6053C73.2569 16.3023 72.3639 15.6749 71.8641 14.9823C71.5692 15.9766 71.2076 17.0601 71.0074 17.5036" fill="#C8102E"/>
<path d="M71.0017 17.5144C70.8483 17.1682 70.3711 16.7462 69.9507 16.4864C70.1148 16.1021 70.3707 15.494 70.6263 14.8644C69.9901 14.9943 68.6668 15.0904 67.8941 15.0038C69.3484 13.6187 72.3935 10.7616 73.3934 9.46294C73.0298 11.2377 73.3025 15.2202 74.0297 16.6053C73.2569 16.3023 72.3639 15.6749 71.8641 14.9823C71.5692 15.9766 71.2076 17.0601 71.0074 17.5036" stroke="black" stroke-width="0.1"/>
<path d="M42.6252 9.91748C42.7161 10.3721 42.7387 10.7183 43.0796 10.8481C43.4204 10.9781 44.1704 11.2377 44.6476 12.017C44.0795 11.8655 43.2841 11.649 43.2159 12.1685C43.1511 12.6629 43.3787 12.6483 43.7613 12.7311C44.2612 12.8394 44.7385 13.4237 44.7613 14.203C44.3521 13.965 43.784 13.7702 43.4204 13.7702C43.0568 13.7702 42.9546 13.835 42.8637 14.2678C42.7138 14.9818 42.9888 15.0254 43.3296 15.0687C43.6705 15.1119 44.3977 15.4366 44.4431 16.6271C44.0567 16.3023 43.2818 16.1214 42.8069 16.0427C42.5456 15.9995 42.5001 16.1293 42.4661 16.5838C42.4319 17.0383 42.4888 17.1899 42.9432 17.3197C43.3978 17.4496 43.9204 17.7742 44.0567 18.4668C43.6249 18.272 42.9432 18.337 42.7387 18.4235C42.5342 18.5101 42.4234 18.9938 42.8552 19.9244C43.7846 19.6247 44.7436 19.4262 45.7155 19.3324C47.8633 19.1171 47.3517 17.6877 47.3517 15.4366C47.3517 13.1857 52.0782 10.6751 59.2591 6.69259C57.532 10.8914 59.8954 10.5018 61.2133 10.0258C62.5313 9.54949 65.6218 8.33754 68.0306 7.3419C64.7128 9.46293 63.0312 11.714 65.9399 12.7096C62.2131 13.835 60.4861 16.9084 62.5313 18.8564C61.1366 18.3859 59.2039 19.2736 58.3944 20.5098C59.8487 20.3798 62.6676 20.7178 64.3946 21.1939C66.0392 21.6472 68.754 21.1164 69.0098 19.7194C69.0233 19.649 69.0302 19.5774 69.0304 19.5057C69.0304 19.0187 68.905 18.651 68.713 18.3831C68.2906 17.7936 67.5505 17.666 67.1443 17.666C66.5535 17.666 65.9399 17.904 65.9399 18.3153C65.9399 18.7265 66.3035 18.8996 67.0307 18.8996C67.4283 18.8996 68.0412 18.9654 68.713 18.3831C68.905 18.651 69.0304 19.0187 69.0304 19.5057C69.0298 19.5764 69.0226 19.647 69.0089 19.7164C68.3731 20.0596 67.6622 20.2401 66.9397 20.2415C65.4853 20.2415 64.122 19.6787 64.122 18.1638C64.122 16.6488 65.7581 15.7829 67.0761 15.7829C68.894 15.7829 71.439 16.4755 71.439 19.2459C71.439 22.7523 66.6122 24.3921 63.7489 24.3921C64.2289 24.7758 64.7696 25.1331 65.3491 25.3494C67.377 26.107 69.1667 27.0376 69.803 28.4662C69.0304 28.4662 67.7578 27.8602 67.1669 27.2541C68.8031 29.1588 66.8187 32.6625 67.0307 33.8339C67.2578 35.0891 68.8031 34.31 68.8031 35.2841C68.8031 36.1497 67.8941 35.9982 67.5533 35.6086C67.2124 35.2191 66.1197 34.8918 65.5535 35.2841C65.0537 35.6304 64.2811 35.8034 63.9402 35.4571C63.5994 35.1108 62.3496 35.2406 61.8269 35.7169C61.3043 36.193 60.5743 36.2301 60.3498 35.8684C60.1095 35.481 60.171 35.01 61.1431 34.847C60.7113 34.414 59.3954 35.1541 59.1682 34.3317C59.0049 33.7407 59.35 33.4659 60.4861 33.5524C60.3725 33.2711 59.5318 33.1413 59.6453 32.5568C59.7589 31.9724 60.4157 31.6107 61.1907 32.4703C63.2584 34.7645 64.2129 33.4876 64.9173 32.492C64.6901 31.9724 64.9401 31.6262 65.3719 31.3016C65.1446 30.9336 65.2808 30.4142 65.4399 30.0679C65.0991 29.8731 64.8946 29.0073 65.2582 28.7043C64.9627 28.7043 64.5083 28.3795 64.5083 27.8169C64.1029 28.0634 63.5831 28.0103 63.2358 27.6871C62.804 27.9252 61.6679 27.9684 61.1678 27.4489C60.4861 27.7087 59.2817 27.6437 58.9638 27.1459C58.3638 27.2976 57.2593 26.7996 57.0322 26.2585C56.6817 26.2331 56.3413 26.1296 56.0359 25.9556C55.127 26.605 53.8963 27.8602 55.1233 28.8125C56.3505 29.7649 58.8955 28.9856 58.941 31.3664C58.3501 30.8903 57.2593 31.0201 56.8958 30.544C55.6687 32.2755 53.8963 33.8555 51.283 34.5048C51.6692 34.7428 52.3738 34.7645 52.6463 34.7428C53.213 34.6979 53.6916 35.1541 53.26 35.6952C52.8282 36.2364 51.942 35.7817 51.4193 35.3273C50.6672 34.6731 50.1695 35.0459 49.965 35.1974C49.7605 35.3489 49.4877 35.4356 49.1242 35.0891C48.7606 34.7428 48.4197 34.9811 48.238 35.1974C47.9426 35.5491 47.2609 34.7428 46.1701 35.6952C45.6457 36.1531 44.3977 35.5654 44.8975 34.8943C44.3749 35.0243 43.4505 34.3012 44.2158 33.5959C44.9203 32.9466 46.261 34.44 47.3517 34.007C47.1066 33.7099 46.5957 33.1595 45.5338 33.0331C44.9884 32.9681 44.8918 32.3639 45.1475 31.9292C45.4656 31.3881 46.4428 31.7561 47.1018 32.6003C47.6209 33.2652 48.3062 33.2711 49.0105 33.1413C49.5054 32.8271 50.2718 32.8166 50.6127 32.9248C50.6127 32.6003 51.1466 32.3188 51.5556 32.3188C51.5329 31.8859 51.6692 31.4964 52.3283 31.3881C52.3832 31.3791 52.44 31.3703 52.4986 31.3651C52.0395 31.386 51.5945 31.2036 51.2823 30.8664C50.372 31.0885 49.3636 30.6604 49.2154 29.8418C47.7766 29.7415 47.6335 28.2896 47.988 27.8169C48.0169 27.7779 48.0493 27.7416 48.0849 27.7085C47.6567 28.0305 47.1095 28.1795 46.4327 27.945C45.7966 28.8098 44.6894 29.1872 43.6575 28.8911C43.3714 29.3235 42.9356 29.635 42.4339 29.7656C42.4763 30.2902 42.3632 30.8846 41.6708 31.5829C41.8524 30.6305 40.58 30.3275 40.8527 28.7693C40.7617 29.8947 37.3304 31.7561 36.785 34.2235C37.285 34.44 37.8305 34.5913 38.1713 34.5265C39.0284 34.3633 39.3074 35.2191 39.0575 35.5654C38.8075 35.9117 38.103 36.0847 37.8077 35.7817C37.5123 35.4789 36.8986 35.89 36.6033 35.3273C36.3079 34.7645 35.4898 34.9593 35.149 35.3273C34.8082 35.6952 33.6719 34.8511 32.8539 35.6952C32.5478 36.0109 31.5132 36.3445 30.8995 36.1714C30.286 35.9982 29.9224 35.3922 30.127 35.0676C29.7179 34.6996 29.7123 34.2489 30.1043 33.8555C29.9565 33.3035 30.4383 32.2129 31.2519 32.6435C31.7632 32.914 33.5753 34.1911 35.1547 32.73C36.524 31.4475 35.7263 30.4198 36.6033 30.2843C36.4966 29.7635 36.8306 29.1156 37.1942 28.9856C37.0885 28.7696 37.0693 28.5215 37.1406 28.2918C36.934 28.2759 36.7308 28.2313 36.5365 28.1595C35.8555 28.3523 35.1522 28.4555 34.4445 28.4662C34.4445 28.9856 33.8083 30.241 33.2629 30.8471C33.0812 26.0855 28.5364 25.6092 27.9227 21.8216C27.9001 22.3843 27.2864 22.9471 27.2183 23.4232C27.1501 23.8994 26.8547 24.2673 26.3093 24.051C25.764 23.8344 25.6276 22.9254 26.173 22.7956C26.7185 22.6656 26.6162 21.7999 26.957 21.6917C27.2978 21.5835 27.3546 21.2371 27.2183 20.8043C27.0819 20.3715 27.2864 19.852 27.4228 19.5274C27.5591 19.2026 27.3546 18.6616 26.8774 18.4668C26.4003 18.272 26.2412 17.7959 26.423 17.3846C25.9231 17.0383 26.0656 16.2899 26.7411 16.151C27.5819 15.9778 27.5591 17.2979 28.0363 17.4496C27.9683 17.1899 28.0591 16.692 28.2636 16.3673C27.9909 15.8045 28.3319 15.3501 28.8771 15.3501C29.8316 15.3501 29.5134 16.8651 29.2861 17.3414C29.6043 16.9084 30.1043 16.4106 30.4905 16.7571C30.8769 17.1031 30.8138 17.8265 30.3997 18.1421C30.0587 18.4018 29.3544 18.8131 29.5589 19.2676C29.9679 19.9602 30.2178 20.7826 30.2634 21.8432C30.8315 22.2545 31.195 22.7306 31.195 23.1202C31.5699 23.1419 32.2879 23.4381 32.388 23.8562C32.8424 23.8127 33.5212 23.8996 33.7173 24.2999C33.8652 24.224 34.2593 24.1987 34.498 24.2203C34.4988 23.8822 34.6164 23.5548 34.8308 23.2934C34.0583 22.4708 34.0809 21.1723 34.8763 20.6528C34.6498 20.1136 34.74 19.1161 35.4898 18.5966C35.4736 18.0554 35.6262 17.3414 36.376 16.8868C36.2623 16.3023 36.6487 15.5017 37.126 15.4584C37.0123 14.8956 37.0982 14.201 37.7571 13.8762C37.6019 13.7134 37.5212 13.4935 37.5342 13.269C36.3783 13.507 35.9266 14.1808 35.558 14.8091C35.5126 14.5493 35.4443 14.203 35.2852 13.9433C35.2852 14.6141 34.7626 14.8523 34.74 15.783C34.3536 15.3934 34.2173 14.7656 34.2399 14.3328C34.2581 13.9863 33.6492 13.6619 33.8309 13.0559C34.74 13.8567 36.5806 12.1035 38.1712 12.6663C36.6033 9.52796 35.4671 11.0429 34.6717 11.5842C33.8764 12.1253 33.3083 11.3244 33.3993 10.8049C32.3312 10.5668 31.0586 10.6101 29.6725 10.8699C30.695 9.59277 33.1038 9.03012 34.8763 9.15994C35.6488 7.79645 36.5807 7.99125 37.4895 8.12104C38.0838 8.20606 38.7778 8.20791 39.4665 8.17483C39.8983 7.02768 42.4205 6.90909 42.6706 6C42.8979 6.17308 42.7599 6.82444 42.5326 7.38704C43.1896 7.19975 43.7537 6.99971 43.9431 6.60608C44.0567 6.97393 43.875 7.96953 43.6249 8.27257C43.8841 8.20346 44.1523 8.17427 44.4203 8.18601C43.6249 8.61884 42.6252 9.26818 42.4661 9.37642C42.307 9.48466 42.216 9.701 42.6252 9.91749C42.1706 10.004 40.8982 10.437 40.3755 10.0907" fill="#C8102E"/>
<path d="M42.6252 9.91748C42.7161 10.3721 42.7387 10.7183 43.0796 10.8481C43.4204 10.9781 44.1704 11.2377 44.6476 12.017C44.0795 11.8655 43.2841 11.649 43.2159 12.1685C43.1511 12.6629 43.3787 12.6483 43.7613 12.7311C44.2612 12.8394 44.7385 13.4237 44.7613 14.203C44.3521 13.965 43.784 13.7702 43.4204 13.7702C43.0568 13.7702 42.9546 13.835 42.8637 14.2678C42.7138 14.9818 42.9888 15.0254 43.3296 15.0687C43.6705 15.1119 44.3977 15.4366 44.4431 16.6271C44.0567 16.3023 43.2818 16.1214 42.8069 16.0427C42.5456 15.9995 42.5001 16.1293 42.4661 16.5838C42.4319 17.0383 42.4888 17.1899 42.9432 17.3197C43.3978 17.4496 43.9204 17.7742 44.0567 18.4668C43.6249 18.272 42.9432 18.337 42.7387 18.4235C42.5342 18.5101 42.4234 18.9938 42.8552 19.9244C43.7846 19.6247 44.7436 19.4262 45.7155 19.3324C47.8633 19.1171 47.3517 17.6877 47.3517 15.4366C47.3517 13.1857 52.0782 10.6751 59.2591 6.69259C57.532 10.8914 59.8954 10.5018 61.2133 10.0258C62.5313 9.54949 65.6218 8.33754 68.0306 7.3419C64.7128 9.46293 63.0312 11.714 65.9399 12.7096C62.2131 13.835 60.4861 16.9084 62.5313 18.8564C61.1366 18.3859 59.2039 19.2736 58.3944 20.5098C59.8487 20.3798 62.6676 20.7178 64.3946 21.1939C66.0392 21.6472 68.754 21.1164 69.0098 19.7194C69.0233 19.649 69.0302 19.5774 69.0304 19.5057C69.0304 19.0187 68.905 18.651 68.713 18.3831C68.2906 17.7936 67.5505 17.666 67.1443 17.666C66.5535 17.666 65.9399 17.904 65.9399 18.3153C65.9399 18.7265 66.3035 18.8996 67.0307 18.8996C67.4283 18.8996 68.0412 18.9654 68.713 18.3831C68.905 18.651 69.0304 19.0187 69.0304 19.5057C69.0298 19.5764 69.0226 19.647 69.0089 19.7164C68.3731 20.0596 67.6622 20.2401 66.9397 20.2415C65.4853 20.2415 64.122 19.6787 64.122 18.1638C64.122 16.6488 65.7581 15.7829 67.0761 15.7829C68.894 15.7829 71.439 16.4755 71.439 19.2459C71.439 22.7523 66.6122 24.3921 63.7489 24.3921C64.2289 24.7758 64.7696 25.1331 65.3491 25.3494C67.377 26.107 69.1667 27.0376 69.803 28.4662C69.0304 28.4662 67.7578 27.8602 67.1669 27.2541C68.8031 29.1588 66.8187 32.6625 67.0307 33.8339C67.2578 35.0891 68.8031 34.31 68.8031 35.2841C68.8031 36.1497 67.8941 35.9982 67.5533 35.6086C67.2124 35.2191 66.1197 34.8918 65.5535 35.2841C65.0537 35.6304 64.2811 35.8034 63.9402 35.4571C63.5994 35.1108 62.3496 35.2406 61.8269 35.7169C61.3043 36.193 60.5743 36.2301 60.3498 35.8684C60.1095 35.481 60.171 35.01 61.1431 34.847C60.7113 34.414 59.3954 35.1541 59.1682 34.3317C59.0049 33.7407 59.35 33.4659 60.4861 33.5524C60.3725 33.2711 59.5318 33.1413 59.6453 32.5568C59.7589 31.9724 60.4157 31.6107 61.1907 32.4703C63.2584 34.7645 64.2129 33.4876 64.9173 32.492C64.6901 31.9724 64.9401 31.6262 65.3719 31.3016C65.1446 30.9336 65.2808 30.4142 65.4399 30.0679C65.0991 29.8731 64.8946 29.0073 65.2582 28.7043C64.9627 28.7043 64.5083 28.3795 64.5083 27.8169C64.1029 28.0634 63.5831 28.0103 63.2358 27.6871C62.804 27.9252 61.6679 27.9684 61.1678 27.4489C60.4861 27.7087 59.2817 27.6437 58.9638 27.1459C58.3638 27.2976 57.2593 26.7996 57.0322 26.2585C56.6817 26.2331 56.3413 26.1296 56.0359 25.9556C55.127 26.605 53.8963 27.8602 55.1233 28.8125C56.3505 29.7649 58.8955 28.9856 58.941 31.3664C58.3501 30.8903 57.2593 31.0201 56.8958 30.544C55.6687 32.2755 53.8963 33.8555 51.283 34.5048C51.6692 34.7428 52.3738 34.7645 52.6463 34.7428C53.213 34.6979 53.6916 35.1541 53.26 35.6952C52.8282 36.2364 51.942 35.7817 51.4193 35.3273C50.6672 34.6731 50.1695 35.0459 49.965 35.1974C49.7605 35.3489 49.4877 35.4356 49.1242 35.0891C48.7606 34.7428 48.4197 34.9811 48.238 35.1974C47.9426 35.5491 47.2609 34.7428 46.1701 35.6952C45.6457 36.1531 44.3977 35.5654 44.8975 34.8943C44.3749 35.0243 43.4505 34.3012 44.2158 33.5959C44.9203 32.9466 46.261 34.44 47.3517 34.007C47.1066 33.7099 46.5957 33.1595 45.5338 33.0331C44.9884 32.9681 44.8918 32.3639 45.1475 31.9292C45.4656 31.3881 46.4428 31.7561 47.1018 32.6003C47.6209 33.2652 48.3062 33.2711 49.0105 33.1413C49.5054 32.8271 50.2718 32.8166 50.6127 32.9248C50.6127 32.6003 51.1466 32.3188 51.5556 32.3188C51.5329 31.8859 51.6692 31.4964 52.3283 31.3881C52.3832 31.3791 52.44 31.3703 52.4986 31.3651C52.0395 31.386 51.5945 31.2036 51.2823 30.8664C50.372 31.0885 49.3636 30.6604 49.2154 29.8418C47.7766 29.7415 47.6335 28.2896 47.988 27.8169C48.0169 27.7779 48.0493 27.7416 48.0849 27.7085C47.6567 28.0305 47.1095 28.1795 46.4327 27.945C45.7966 28.8098 44.6894 29.1872 43.6575 28.8911C43.3714 29.3235 42.9356 29.635 42.4339 29.7656C42.4763 30.2902 42.3632 30.8846 41.6708 31.5829C41.8524 30.6305 40.58 30.3275 40.8527 28.7693C40.7617 29.8947 37.3304 31.7561 36.785 34.2235C37.285 34.44 37.8305 34.5913 38.1713 34.5265C39.0284 34.3633 39.3074 35.2191 39.0575 35.5654C38.8075 35.9117 38.103 36.0847 37.8077 35.7817C37.5123 35.4789 36.8986 35.89 36.6033 35.3273C36.3079 34.7645 35.4898 34.9593 35.149 35.3273C34.8082 35.6952 33.6719 34.8511 32.8539 35.6952C32.5478 36.0109 31.5132 36.3445 30.8995 36.1714C30.286 35.9982 29.9224 35.3922 30.127 35.0676C29.7179 34.6996 29.7123 34.2489 30.1043 33.8555C29.9565 33.3035 30.4383 32.2129 31.2519 32.6435C31.7632 32.914 33.5753 34.1911 35.1547 32.73C36.524 31.4475 35.7263 30.4198 36.6033 30.2843C36.4966 29.7635 36.8306 29.1156 37.1942 28.9856C37.0885 28.7696 37.0693 28.5215 37.1406 28.2918C36.934 28.2759 36.7308 28.2313 36.5365 28.1595C35.8555 28.3523 35.1522 28.4555 34.4445 28.4662C34.4445 28.9856 33.8083 30.241 33.2629 30.8471C33.0812 26.0855 28.5364 25.6092 27.9227 21.8216C27.9001 22.3843 27.2864 22.9471 27.2183 23.4232C27.1501 23.8994 26.8547 24.2673 26.3093 24.051C25.764 23.8344 25.6276 22.9254 26.173 22.7956C26.7185 22.6656 26.6162 21.7999 26.957 21.6917C27.2978 21.5835 27.3546 21.2371 27.2183 20.8043C27.0819 20.3715 27.2864 19.852 27.4228 19.5274C27.5591 19.2026 27.3546 18.6616 26.8774 18.4668C26.4003 18.272 26.2412 17.7959 26.423 17.3846C25.9231 17.0383 26.0656 16.2899 26.7411 16.151C27.5819 15.9778 27.5591 17.2979 28.0363 17.4496C27.9683 17.1899 28.0591 16.692 28.2636 16.3673C27.9909 15.8045 28.3319 15.3501 28.8771 15.3501C29.8316 15.3501 29.5134 16.8651 29.2861 17.3414C29.6043 16.9084 30.1043 16.4106 30.4905 16.7571C30.8769 17.1031 30.8138 17.8265 30.3997 18.1421C30.0587 18.4018 29.3544 18.8131 29.5589 19.2676C29.9679 19.9602 30.2178 20.7826 30.2634 21.8432C30.8315 22.2545 31.195 22.7306 31.195 23.1202C31.5699 23.1419 32.2879 23.4381 32.388 23.8562C32.8424 23.8127 33.5212 23.8996 33.7173 24.2999C33.8652 24.224 34.2593 24.1987 34.498 24.2203C34.4988 23.8822 34.6164 23.5548 34.8308 23.2934C34.0583 22.4708 34.0809 21.1723 34.8763 20.6528C34.6498 20.1136 34.74 19.1161 35.4898 18.5966C35.4736 18.0554 35.6262 17.3414 36.376 16.8868C36.2623 16.3023 36.6487 15.5017 37.126 15.4584C37.0123 14.8956 37.0982 14.201 37.7571 13.8762C37.6019 13.7134 37.5212 13.4935 37.5342 13.269C36.3783 13.507 35.9266 14.1808 35.558 14.8091C35.5126 14.5493 35.4443 14.203 35.2852 13.9433C35.2852 14.6141 34.7626 14.8523 34.74 15.783C34.3536 15.3934 34.2173 14.7656 34.2399 14.3328C34.2581 13.9863 33.6492 13.6619 33.8309 13.0559C34.74 13.8567 36.5806 12.1035 38.1712 12.6663C36.6033 9.52796 35.4671 11.0429 34.6717 11.5842C33.8764 12.1253 33.3083 11.3244 33.3993 10.8049C32.3312 10.5668 31.0586 10.6101 29.6725 10.8699C30.695 9.59277 33.1038 9.03012 34.8763 9.15994C35.6488 7.79645 36.5807 7.99125 37.4895 8.12104C38.0838 8.20606 38.7778 8.20791 39.4665 8.17483C39.8983 7.02768 42.4205 6.90909 42.6706 6C42.8979 6.17308 42.7599 6.82444 42.5326 7.38704C43.1896 7.19975 43.7537 6.99971 43.9431 6.60608C44.0567 6.97393 43.875 7.96953 43.6249 8.27257C43.8841 8.20346 44.1523 8.17427 44.4203 8.18601C43.6249 8.61884 42.6252 9.26818 42.4661 9.37642C42.307 9.48466 42.216 9.701 42.6252 9.91749C42.1706 10.004 40.8982 10.437 40.3755 10.0907" stroke="black" stroke-width="0.1"/>
<path d="M25.355 15.7721C25.9571 15.3608 26.7805 15.6649 26.957 16.2699C27.0706 16.6595 26.3804 16.9488 26.3207 16.5838C26.2412 16.0968 25.9117 15.7938 25.355 15.7721Z" fill="#C8102E" stroke="black" stroke-width="0.1"/>
<path d="M27.7164 14.5138C28.4172 14.2843 29.1144 14.8002 29.1014 15.4282C29.0931 15.8323 28.3447 15.9209 28.3975 15.5551C28.4678 15.0668 28.2433 14.6866 27.7164 14.5138Z" fill="#C8102E" stroke="black" stroke-width="0.1"/>
<path d="M30.3225 15.6218C30.9909 15.9263 31.1078 16.7599 30.6361 17.1988C30.3324 17.4813 29.7338 17.0445 30.0409 16.8188C30.4506 16.518 30.5707 16.0968 30.3225 15.6218Z" fill="#C8102E" stroke="black" stroke-width="0.1"/>
<path d="M25 24.3699C25.5832 24.8051 26.4194 24.5349 26.6228 23.9374C26.7537 23.5528 26.0768 23.2359 26.0011 23.5981C25.8999 24.0813 25.5572 24.3708 25 24.3699Z" fill="#C8102E" stroke="black" stroke-width="0.1"/>
<path d="M29.1043 33.1225C29.3485 32.4562 30.2057 32.2536 30.7155 32.6518C31.0436 32.9084 30.6537 33.5231 30.3845 33.2572C30.0252 32.9024 29.5727 32.8351 29.1043 33.1225Z" fill="#C8102E" stroke="black" stroke-width="0.1"/>
<path d="M28.3376 34.9145C28.3782 34.2099 29.3697 33.7671 29.9755 34.015C30.3657 34.1746 30.1701 34.8684 29.8339 34.684C29.3855 34.4381 28.704 34.5146 28.3376 34.9145Z" fill="#C8102E" stroke="black" stroke-width="0.1"/>
<path d="M29.4151 36.5773C29.1609 35.9144 29.6891 35.2405 30.3485 35.241C30.7731 35.2413 30.8803 35.9522 30.4952 35.909C29.9814 35.8513 29.5865 36.0724 29.4151 36.5773Z" fill="#C8102E" stroke="black" stroke-width="0.1"/>
<path d="M40.1028 35.9855C40.1906 35.2848 39.5139 34.7443 38.8722 34.8889C38.4592 34.9821 38.5261 35.6974 38.8904 35.5712C39.3767 35.4027 39.8144 35.5314 40.1028 35.9855Z" fill="#C8102E" stroke="black" stroke-width="0.1"/>
<path d="M44.2026 36.2093C44.0505 35.5185 44.6745 34.9235 45.327 35.0138C45.7472 35.0718 45.7467 35.79 45.3719 35.6949C44.872 35.5677 44.4481 35.7327 44.2026 36.2093Z" fill="#C8102E" stroke="black" stroke-width="0.1"/>
<path d="M54.4259 36.0405C54.4827 35.3367 53.7828 34.8238 53.1481 34.9939C52.7394 35.1035 52.8378 35.8156 53.1964 35.675C53.6749 35.4872 54.1177 35.5983 54.4259 36.0405Z" fill="#C8102E" stroke="black" stroke-width="0.1"/>
<path d="M42.9888 34.7437C42.8801 34.0457 43.6073 33.4449 44.253 33.5719C44.6688 33.6539 44.5564 34.4128 44.1882 34.2966C43.6971 34.1413 43.2635 34.282 42.9888 34.7437Z" fill="#C8102E" stroke="black" stroke-width="0.1"/>
<path d="M43.9406 32.7355C43.9812 32.0308 44.8204 31.5815 45.4262 31.8296C45.8162 31.9893 45.5458 32.7114 45.2098 32.527C44.7614 32.2809 44.307 32.3357 43.9406 32.7355Z" fill="#C8102E" stroke="black" stroke-width="0.1"/>
<path d="M59.5867 36.5771C59.4346 35.8864 60.0586 35.2914 60.7111 35.3816C61.1313 35.4398 61.1308 36.1581 60.756 36.0628C60.2561 35.9358 59.8321 36.1007 59.5867 36.5771Z" fill="#C8102E" stroke="black" stroke-width="0.1"/>
<path d="M69.7408 36.2466C69.8981 35.5569 69.2784 34.9576 68.6252 35.0436C68.2048 35.099 68.2 35.8172 68.5753 35.7244C69.0762 35.6007 69.4991 35.7683 69.7408 36.2466Z" fill="#C8102E" stroke="black" stroke-width="0.1"/>
<path d="M58.2788 34.9763C58.1718 34.2781 58.8333 33.7209 59.4787 33.8495C59.8943 33.9323 59.847 34.6492 59.4793 34.5319C58.9885 34.3757 58.5546 34.5153 58.2788 34.9763Z" fill="#C8102E" stroke="black" stroke-width="0.1"/>
<path d="M58.657 33.0706C58.6707 32.3649 59.4187 31.9178 60.0335 32.1448C60.4293 32.291 60.2602 32.9908 59.9173 32.8183C59.4599 32.5878 59.0079 32.6584 58.657 33.0706Z" fill="#C8102E" stroke="black" stroke-width="0.1"/>
<path d="M61.2133 10.0258C59.4862 10.5885 52.8054 13.0991 51.5784 13.4887C50.3513 13.8783 49.7151 13.965 48.9879 15.5665" stroke="black" stroke-width="0.1"/>
<path d="M57.9865 8.16429C53.6236 10.8481 50.0786 13.1857 49.0787 15.3934C48.0788 17.601 48.1471 18.9429 45.7155 19.3325" stroke="black" stroke-width="0.1"/>
<path d="M38.7167 23.4881C39.8075 22.2761 42.0798 20.8043 44.2612 20.7178C43.836 21.3762 43.4709 22.0716 43.1705 22.7956" stroke="black" stroke-width="0.1"/>
<path d="M43.1251 23.618C43.6705 22.9254 45.0338 21.4537 45.8974 20.8476C45.4884 22.0165 44.8067 24.7868 45.1703 26.6913C45.3974 24.8733 46.3972 22.0597 47.4426 20.458C48.2153 22.2328 49.2605 24.7435 49.2605 26.3452C49.4877 24.4405 49.0333 21.1506 48.3516 19.7222C50.2149 20.6311 52.5328 23.2284 53.5327 24.8301C52.851 22.5791 50.5331 19.852 49.3059 18.9862C52.351 19.5057 56.7595 21.3671 58.3955 22.7523C55.7142 20.3715 52.4418 18.5101 50.1241 17.6442C53.7598 17.3414 60.5771 18.1205 62.5313 18.8564C59.6681 17.2979 53.7598 16.4756 50.2149 16.692C53.9417 15.1769 60.5771 13.4454 65.9399 12.7096C61.8496 12.9259 56.5776 13.965 51.1694 15.1336C53.5781 13.5752 61.0316 10.6318 62.804 10.1123" stroke="black" stroke-width="0.1"/>
<path d="M39.8074 8.98685C40.132 7.96529 41.4563 7.69415 42.5326 7.38704" stroke="black" stroke-width="0.1"/>
<path d="M41.6026 9.74443C40.6937 9.67946 40.5321 9.37183 41.0344 9.03011C41.3526 8.81363 42.0116 8.46733 42.4662 8.42407C42.3525 8.40252 42.0344 8.31583 41.8753 8.29428C42.3525 8.09948 43.1479 7.81802 43.4204 7.55824" stroke="black" stroke-width="0.1"/>
<path d="M40.5458 8.09949C40.1981 8.12951 39.8331 8.15717 39.4665 8.17482" stroke="black" stroke-width="0.1"/>
<path d="M38.1941 13.1857C37.9723 13.1967 37.7518 13.2246 37.5342 13.269" stroke="black" stroke-width="0.1"/>
<path d="M34.4981 24.2203C34.4892 24.8428 34.7133 25.4462 35.1262 25.9122C35.4898 26.3018 37.7168 26.4317 37.8077 25.6957" stroke="black" stroke-width="0.1"/>
<path d="M34.8308 23.2934C35.6034 24.1158 38.103 23.618 38.103 23.0121" stroke="black" stroke-width="0.1"/>
<path d="M34.8763 20.6528C35.149 21.3021 38.0576 21.8865 38.103 21.1289" stroke="black" stroke-width="0.1"/>
<path d="M35.4897 18.5966C35.5125 19.3542 38.1614 19.8462 38.2395 19.2892" stroke="black" stroke-width="0.1"/>
<path d="M36.376 16.8868C36.4896 17.4712 38.2395 18.034 38.4894 17.7742" stroke="black" stroke-width="0.1"/>
<path d="M37.1259 15.4584C37.2088 15.8688 38.4666 16.2375 38.8984 16.086" stroke="black" stroke-width="0.1"/>
<path d="M37.7571 13.8762C38.0149 14.1743 38.5151 14.4517 39.3757 14.5925" stroke="black" stroke-width="0.1"/>
<path d="M33.3993 10.8049C33.4219 10.3503 33.8764 10.2855 33.8083 9.83096" stroke="black" stroke-width="0.1"/>
<path d="M38.1713 12.6663C38.3303 12.9043 38.7393 13.4022 38.7848 13.7702C39.0121 13.5969 39.1938 13.2289 39.262 13.0559C39.479 13.2364 39.6372 13.4775 39.7164 13.7484C39.8075 13.4887 39.9665 13.0342 39.9891 12.7528C40.3146 12.825 40.6183 12.9733 40.8754 13.1857C40.9208 12.9043 40.7845 12.5364 40.5572 12.3848C40.8084 12.3953 41.0583 12.3432 41.2844 12.2333C41.1253 12.017 40.8754 11.7355 40.6254 11.6057C40.8528 11.5407 41.1707 11.2811 41.3072 11.1729C41.1027 11.0863 40.7391 10.8914 40.5118 10.7833C40.6481 10.6533 40.7617 10.3938 40.83 10.1988" stroke="black" stroke-width="0.1"/>
<path d="M34.399 9.14923C34.2514 9.14923 34.1831 9.47382 34.4559 9.67946C34.652 9.82741 34.649 10.437 34.2968 10.5885" stroke="black" stroke-width="0.1"/>
<path d="M39.7164 13.7484C38.7167 15.956 37.7963 20.1441 38.1144 23.1743" stroke="black" stroke-width="0.1"/>
<path d="M39.1938 27.3191C39.1938 27.7737 39.9437 27.8602 39.9209 26.778" stroke="black" stroke-width="0.1"/>
<path d="M39.8529 27.3191C39.9437 27.7087 40.7163 27.7952 40.5572 26.6481" stroke="black" stroke-width="0.1"/>
<path d="M39.5347 27.6221C39.5801 28.4663 40.1482 28.423 40.1936 27.6221" stroke="black" stroke-width="0.1"/>
<path d="M40.58 27.0376C40.8072 27.5572 41.4434 27.2974 41.2618 26.1503" stroke="black" stroke-width="0.1"/>
<path d="M41.2844 26.6481C41.5345 27.0811 42.1252 26.7348 42.1934 25.9772" stroke="black" stroke-width="0.1"/>
<path d="M38.3303 24.2457C37.9404 24.6524 37.4931 25.5654 38.0348 26.4317C38.3531 26.9402 39.228 27.2217 39.3188 26.9187" stroke="black" stroke-width="0.1"/>
<path d="M38.0348 26.4317C37.6826 26.4859 37.1646 27.2049 37.4213 27.8926C37.6032 28.3796 38.6485 28.6719 38.8076 28.3147" stroke="black" stroke-width="0.1"/>
<path d="M48.7152 27.0376C49.8513 27.1676 51.3512 26.4317 51.4421 24.9599" stroke="black" stroke-width="0.1"/>
<path d="M51.3056 25.6525C51.942 26.042 53.26 26.172 53.8053 25.1763" stroke="black" stroke-width="0.1"/>
<path d="M51.8965 25.9555C51.3056 27.2541 50.7704 28.6339 51.9874 29.6349C52.9872 30.4575 53.7299 29.2313 54.9416 30.4575C55.3052 30.8253 54.8734 31.5179 51.2148 33.5309" stroke="black" stroke-width="0.1"/>
<path d="M33.7173 24.2999C33.956 24.7868 33.9332 25.7392 33.4788 25.6092" stroke="black" stroke-width="0.1"/>
<path d="M30.127 35.0676C30.8995 33.9422 31.8118 34.8516 32.4675 34.6563" stroke="black" stroke-width="0.1"/>
<path d="M36.1603 9.34386C36.0238 9.65774 36.3867 10.0969 36.7283 10.134C37.1259 10.1773 37.694 9.92836 37.5691 9.52796" fill="white"/>
<path d="M36.1603 9.34386C36.0238 9.65774 36.3867 10.0969 36.7283 10.134C37.1259 10.1773 37.694 9.92836 37.5691 9.52796" stroke="black" stroke-width="0.1"/>
<path d="M35.7625 9.37642C35.967 9.1058 38.3531 9.96078 39.3074 9.3547" stroke="black" stroke-width="0.1"/>
<path d="M28.0363 17.4496C27.9455 17.6442 27.9795 18.2179 28.3319 18.5318" stroke="black" stroke-width="0.1"/>
<path d="M44.8975 34.8943C45.0794 34.678 45.7522 34.4595 46.2496 34.5806C46.7382 34.6996 47.6131 34.5374 48.1811 34.3208" stroke="black" stroke-width="0.1"/>
<path d="M39.7164 13.7484C39.4893 15.8695 40.0006 19.127 41.3072 20.5771" stroke="black" stroke-width="0.1"/>
<path d="M39.0302 15.6316C39.0676 17.519 39.5529 19.7599 40.5122 20.9934" stroke="black" stroke-width="0.1"/>
<path d="M38.5051 17.6885C38.6939 19.1168 39.1191 20.5531 39.791 21.4859" stroke="black" stroke-width="0.1"/>
<path d="M38.1757 19.8564C38.4026 20.704 38.7222 21.482 39.1371 22.067" stroke="black" stroke-width="0.1"/>
<path d="M38.0587 21.9077C38.1864 22.1805 38.3378 22.4416 38.5113 22.6878" stroke="black" stroke-width="0.1"/>
<path d="M39.671 15.0687C39.6029 15.7397 39.1711 16.259 38.7847 16.5621" stroke="black" stroke-width="0.1"/>
<path d="M39.7164 15.9995C39.6484 16.6703 39.1711 17.2764 38.5462 17.5686" stroke="black" stroke-width="0.1"/>
<path d="M39.8529 16.9301C39.7847 17.601 39.1029 18.4235 38.3303 18.7914" stroke="black" stroke-width="0.1"/>
<path d="M40.0346 17.8607C39.9665 18.5318 39.0803 19.5489 38.178 19.8754" stroke="black" stroke-width="0.1"/>
<path d="M40.3187 18.7914C40.0574 19.7005 39.0121 20.7611 38.0918 20.9991" stroke="black" stroke-width="0.1"/>
<path d="M40.7277 19.7222C40.6595 20.393 39.262 21.7567 38.0576 22.1462" stroke="black" stroke-width="0.1"/>
<path d="M32.388 23.8562C32.5357 24.4729 32.0471 25.0357 31.7971 24.8842" stroke="black" stroke-width="0.1"/>
<path d="M34.9899 25.9989C32.6266 25.5227 30.8694 24.7293 29.8998 22.8821C29.6497 22.406 30.3088 22.2761 30.2634 21.8432" stroke="black" stroke-width="0.1"/>
<path d="M29.5589 19.2676C29.1499 18.575 29.0588 17.8175 29.2861 17.3414" stroke="black" stroke-width="0.1"/>
<path d="M31.195 23.1202C31.195 23.5099 30.7064 24.0075 30.5359 23.8236" stroke="black" stroke-width="0.1"/>
<path d="M35.1262 25.9122C34.8538 26.5424 35.3806 27.7457 36.5365 28.1595" stroke="black" stroke-width="0.1"/>
<path d="M37.4213 27.8926C37.2849 27.9897 37.1858 28.1306 37.1406 28.2918" stroke="black" stroke-width="0.1"/>
<path d="M38.3531 29.1804C38.1485 29.5052 37.3532 29.2671 37.1942 28.9856" stroke="black" stroke-width="0.1"/>
<path d="M35.1546 32.73C34.1911 33.6323 33.2096 33.6832 32.0358 33.8122C30.8541 33.9422 30.5247 33.4335 30.1043 33.8555" stroke="black" stroke-width="0.1"/>
<path d="M42.8523 25.9555C42.9888 26.5616 42.9432 27.1676 42.3979 28.0767C42.0968 28.5782 42.3821 29.1193 42.4339 29.7656" stroke="black" stroke-width="0.1"/>
<path d="M48.0849 27.7085C48.6058 27.3169 48.9496 26.671 49.1242 26.172" stroke="black" stroke-width="0.1"/>
<path d="M46.4327 27.945C47.0254 27.1727 47.1179 26.1273 46.67 25.2629" stroke="black" stroke-width="0.1"/>
<path d="M43.6575 28.8911C44.0069 28.3774 44.2158 27.6456 44.2158 26.6913" stroke="black" stroke-width="0.1"/>
<path d="M36.6033 30.2843C36.6941 30.7279 37.3987 30.9227 37.5123 30.7064" stroke="black" stroke-width="0.1"/>
<path d="M42.2388 25.0681C42.2388 25.5009 41.7844 25.8257 41.4434 25.5659C41.4889 26.1935 41.0118 26.3885 40.6709 26.0855C40.7391 26.9728 39.9665 27.0594 39.4665 26.3668C38.8984 29.0289 36.9897 31.0201 36.8532 32.3188C36.8078 32.6218 35.592 32.5353 35.9102 31.6479" stroke="black" stroke-width="0.1"/>
<path d="M50.4877 27.5139C49.8059 27.4328 48.6069 27.2333 48.0849 27.7085" stroke="black" stroke-width="0.1"/>
<path d="M50.7603 29.5484C50.1303 29.7864 49.6212 29.8701 49.2154 29.8418" stroke="black" stroke-width="0.1"/>
<path d="M52.4986 31.3651C53.1266 31.3416 53.7742 30.9439 54.0326 29.9597" stroke="black" stroke-width="0.1"/>
<path d="M51.2823 30.8664C51.8092 30.7412 52.2566 30.395 52.51 29.9164" stroke="black" stroke-width="0.1"/>
<path d="M54.3733 31.5829C53.9777 31.4638 53.1426 31.3067 52.4986 31.3651" stroke="black" stroke-width="0.1"/>
<path d="M52.1238 33.0331C52.3738 32.9031 51.9648 32.3188 51.5556 32.3188" stroke="black" stroke-width="0.1"/>
<path d="M47.3517 34.007C47.9304 33.7706 48.4857 33.4808 49.0105 33.1413" stroke="black" stroke-width="0.1"/>
<path d="M50.6127 32.9248C50.9212 33.0229 51.3739 33.4009 51.2148 33.5309" stroke="black" stroke-width="0.1"/>
<path d="M53.5327 24.8301C53.8963 25.4361 54.5778 25.8257 55.4869 25.4361C55.5508 25.6187 55.7669 25.806 56.0359 25.9556" stroke="black" stroke-width="0.1"/>
<path d="M58.5546 24.6785C59.0092 25.0248 58.2138 26.3018 57.0322 26.2585" stroke="black" stroke-width="0.1"/>
<path d="M64.9172 32.492C65.0749 32.8522 65.6672 32.8166 65.8945 32.492C66.154 32.1211 66.6217 30.9768 66.3489 28.6826C66.0762 26.3885 63.7585 26.0855 61.077 25.5659C58.3955 25.0466 57.7138 24.224 57.1685 22.709" stroke="black" stroke-width="0.1"/>
<path d="M65.3719 31.3016C65.599 31.6694 66.2353 31.5829 66.3261 31.2149" stroke="black" stroke-width="0.1"/>
<path d="M65.4399 30.0679C65.7809 30.2627 66.4398 30.1977 66.417 29.7649" stroke="black" stroke-width="0.1"/>
<path d="M65.2582 28.7043C65.5535 28.7043 66.3489 28.7476 66.3035 28.4013" stroke="black" stroke-width="0.1"/>
<path d="M64.5082 27.8169C64.7582 27.6437 65.4627 26.9079 65.0763 26.6913" stroke="black" stroke-width="0.1"/>
<path d="M63.2358 27.6871C63.6674 27.4489 64.1447 26.2153 63.622 26.107" stroke="black" stroke-width="0.1"/>
<path d="M61.1678 27.4489C61.8496 27.1891 62.4859 25.8472 62.0314 25.7607" stroke="black" stroke-width="0.1"/>
<path d="M58.9638 27.1459C60.0771 26.8646 60.4181 25.4361 59.9863 25.3062" stroke="black" stroke-width="0.1"/>
<path d="M60.4861 33.5524C61.6458 33.6408 62.2813 34.2235 62.7358 34.4615" stroke="black" stroke-width="0.1"/>
<path d="M60.2135 21.7999C61.2701 21.7026 62.3088 23.2416 63.7489 24.3921" stroke="black" stroke-width="0.1"/>
<path d="M71.8641 14.9823C72.0629 14.3117 72.2294 13.6818 72.3027 13.3156" stroke="black" stroke-width="0.1"/>
<path d="M61.1431 34.847C61.4143 34.8041 61.6886 34.7838 61.9632 34.7863" stroke="black" stroke-width="0.1"/>
<path d="M71.439 12.7961C71.2855 13.2104 70.9554 14.0537 70.6263 14.8644" stroke="black" stroke-width="0.1"/>
<path d="M42.8552 19.9244C40.851 20.5826 38.7755 21.8463 37.4441 24.1807C38.1713 24.3538 39.5801 24.1807 40.2164 23.9643C40.2619 24.527 40.2619 25.2629 40.2619 25.7392C40.8982 25.2629 41.6708 24.5703 42.2616 24.3973C42.216 24.9599 42.216 25.9555 42.216 26.3452C43.0796 25.4794 44.7157 25.3929 45.1703 26.6913C45.5338 24.7868 48.5333 24.7003 49.2605 26.3452C50.0787 24.8301 52.1692 24.2673 53.5327 24.8301C54.1234 23.2284 56.7139 22.3627 58.3955 22.7523C57.8381 22.0185 57.9377 21.2071 58.3944 20.5098" stroke="black" stroke-width="0.1"/>
</svg>
