<svg width="100" height="45" viewBox="0 0 100 45" fill="none" xmlns="http://www.w3.org/2000/svg">
<rect width="100" height="45" fill="white"/>
<rect width="100" height="15" fill="#FF1E35"/>
<rect y="15" width="100" height="18" fill="#091695"/>
<path d="M11.2832 7.00428V28.702C11.2827 30.3322 11.6034 31.9466 12.2269 33.4529C12.8504 34.9591 13.7645 36.3278 14.9171 37.4807C16.0696 38.6337 17.438 39.5482 18.9441 40.1722C20.4502 40.7962 22.0644 41.1173 23.6947 41.1173C25.3249 41.1173 26.9391 40.7962 28.4452 40.1722C29.9513 39.5482 31.3197 38.6337 32.4723 37.4807C33.6248 36.3278 34.539 34.9591 35.1625 33.4529C35.786 31.9466 36.1066 30.3322 36.1061 28.702V7.00428H11.2832Z" fill="#B59C56"/>
<path d="M13.1401 9.48011V27.7867C13.1397 29.1621 13.4116 30.5242 13.9402 31.795C14.4688 33.0659 15.2437 34.2206 16.2209 35.1934C17.198 36.1661 18.3581 36.9377 19.635 37.4642C20.9118 37.9907 22.2803 38.2616 23.6624 38.2616C25.0445 38.2616 26.413 37.9907 27.6899 37.4642C28.9667 36.9377 30.1268 36.1661 31.1039 35.1934C32.0811 34.2206 32.8561 33.0659 33.3847 31.795C33.9133 30.5242 34.1851 29.1621 34.1847 27.7867V9.48011H13.1401Z" fill="#FFFBF7"/>
<path d="M14.3781 10.4085V26.5498C14.3777 27.7626 14.6175 28.9635 15.0839 30.084C15.5504 31.2046 16.2342 32.2228 17.0964 33.0805C17.9585 33.9381 18.9822 34.6185 20.1088 35.0827C21.2354 35.5469 22.4429 35.7858 23.6624 35.7858C24.8819 35.7858 26.0894 35.5469 27.216 35.0827C28.3427 34.6185 29.3663 33.9381 30.2285 33.0805C31.0906 32.2228 31.7745 31.2046 32.2409 30.084C32.7073 28.9635 32.9471 27.7626 32.9468 26.5498V10.4085H14.3781Z" fill="#9A1032"/>
<rect x="21.1865" y="10.718" width="5.26114" height="26.6152" fill="white"/>
<rect x="13.1401" y="20.6213" width="20.7351" height="3.40426" fill="white"/>
<circle cx="24" cy="23" r="7" fill="#FFFBF7"/>
</svg>
