<svg width="100" height="45" viewBox="0 0 100 45" fill="none" xmlns="http://www.w3.org/2000/svg">
<rect width="100" height="45" fill="#E70013"/>
<path d="M49 38C57.8366 38 65 30.8366 65 22C65 13.1634 57.8366 6 49 6C40.1634 6 33 13.1634 33 22C33 30.8366 40.1634 38 49 38Z" fill="white"/>
<path d="M49 34C55.6274 34 61 28.6274 61 22C61 15.3726 55.6274 10 49 10C42.3726 10 37 15.3726 37 22C37 28.6274 42.3726 34 49 34Z" fill="#E70013"/>
<path d="M52.2 31.6C57.5019 31.6 61.8 27.3019 61.8 22C61.8 16.6981 57.5019 12.4 52.2 12.4C46.8981 12.4 42.6 16.6981 42.6 22C42.6 27.3019 46.8981 31.6 52.2 31.6Z" fill="white"/>
<path d="M45 22L58.0248 17.768L49.976 28.848V15.152L58.024 26.232L45 22Z" fill="#E70013"/>
</svg>
