<svg width="127" height="124" viewBox="0 0 127 124" fill="none" xmlns="http://www.w3.org/2000/svg">
<g id="arabia">
<g id="g830">
<ellipse id="Ellipse 4" cx="59.5" cy="63.5" rx="54.5" ry="57.5" fill="white"/>
<g id="g2682">
<path id="path870" d="M55.6519 -7.62939e-06C51.7495 0.0168152 48.7259 0.87886 47.8286 1.15205H47.9087L48.3093 1.79298C53.4367 1.79298 58.0032 4.99757 59.0447 5.7178C40.3779 -0.209915 23.6339 11.6463 17.546 19.3382L18.1068 19.899C28.5209 14.4503 38.6955 13.8903 38.8557 13.8903C27.3192 15.9733 19.7091 20.7001 12.2576 28.952C4.02495 38.0747 0.958146 50.2642 0.943726 61.7142V61.8864C0.956544 70.9859 2.89212 79.6055 5.68814 85.8336V85.7535V85.8336L6.64952 85.5933C2.00285 63.1611 12.0172 47.1381 20.0287 38.6459C28.2806 29.9133 44.3036 21.2609 59.6856 21.9018C85.3233 22.8632 90.5299 35.2802 90.6902 37.6044V37.6845V37.8447C90.6902 37.8447 97.9806 38.5658 101.345 44.1738C102.308 45.7761 103.028 47.2983 103.349 48.9006C103.749 52.666 102.147 57.6331 97.7403 60.9179C97.7403 58.1138 95.9778 54.2683 90.449 54.2683C76.2695 54.3484 63.6914 66.7662 63.3709 80.7856C62.9712 95.7679 74.2674 111.15 93.4942 110.83C100.384 106.103 104.63 94.0855 104.63 94.0855C104.63 94.0855 104.63 94.2465 104.55 94.5654C104.31 95.7679 103.349 100.414 101.185 105.462L101.265 105.782C116.647 90.3994 115.446 66.1253 112.962 58.1138C113.843 60.4372 114.564 62.7597 115.125 64.9228C115.766 67.8879 116.407 71.6533 116.567 76.2206C117.128 92.8036 109.758 102.978 109.758 102.978L110.158 103.459C119.282 92.7363 126.303 79.3579 126.341 64.241V63.9831C126.333 60.9972 126.051 57.9432 125.46 54.8291C122.816 41.0493 113.443 31.2753 105.832 26.3082C114.725 30.2338 120.334 36.2424 121.135 37.6845L121.855 37.2839C114.084 16.5333 96.6187 10.6056 87.4864 10.1241C94.8553 8.20216 99.5036 10.7659 99.5036 10.7659L99.8233 9.9655C96.9391 7.72147 87.3261 2.35378 77.3118 5.55838C77.1507 1.71285 75.0685 0.11055 75.0685 0.11055C75.0685 0.11055 71.4634 0.671356 69.4605 4.43597C64.9444 0.969391 59.962 0.0176163 55.8914 -7.62939e-06H55.6519Z" fill="url(#paint0_radial_145_1919)"/>
<path id="path912" d="M116.407 76.2206C116.969 92.8036 109.597 102.978 109.597 102.978L109.998 103.459C115.045 94.0855 119.051 81.0267 114.965 64.9228C115.606 67.8879 116.247 71.6533 116.407 76.2206Z" fill="url(#paint1_linear_145_1919)"/>
<path id="path954" d="M104.37 94.7769C104.378 94.7296 104.384 94.6855 104.39 94.6463C104.383 94.6871 104.377 94.7304 104.37 94.7769ZM101.025 105.542L101.106 105.863C102.979 102.193 104.092 96.5458 104.37 94.7769C104.155 96.0939 103.112 100.593 101.025 105.542Z" fill="url(#paint2_linear_145_1919)"/>
<path id="path996" d="M22.8326 35.6015C6.08776 50.1023 2.24304 72.3735 5.60787 85.7535V85.8336L6.56925 85.5933C1.92258 63.1611 11.937 47.1381 19.9485 38.6459C28.2003 29.9133 44.2233 21.2609 59.6054 21.9018C85.2422 22.8632 90.4489 35.2802 90.6099 37.6044C90.8503 34.8805 84.1206 22.3825 59.8457 21.7416C59.4083 21.7304 58.9709 21.7248 58.5367 21.7248C43.8796 21.724 31.3921 28.2101 22.8326 35.6015Z" fill="url(#paint3_linear_145_1919)"/>
<path id="path1038" d="M90.6902 37.8447C90.6902 37.8447 97.9806 38.5658 101.345 44.1738C102.308 45.7761 103.028 47.2983 103.349 48.9006C103.268 48.0193 103.028 47.2182 102.707 46.4972C100.384 41.2096 96.6187 38.5658 90.6902 37.6845V37.8447Z" fill="url(#paint4_linear_145_1919)"/>
<path id="path1080" d="M17.5459 19.3382L18.1067 19.899C28.5209 14.4503 38.6955 13.8903 38.8557 13.8903C38.7612 13.8895 38.6658 13.8896 38.5721 13.8896C27.9873 13.8888 20.563 18.3055 17.5459 19.3382Z" fill="url(#paint5_linear_145_1919)"/>
<path id="path1122" d="M48.3093 1.79298C53.4366 1.79298 58.0032 4.99757 59.0447 5.7178C59.2049 5.7178 59.2858 5.79873 59.4453 5.79873C55.9202 3.07482 51.1133 1.15206 47.9087 1.15206L48.3093 1.79298Z" fill="url(#paint6_linear_145_1919)"/>
<path id="path1164" d="M86.1235 10.0448H87.4863C94.8553 8.12205 99.5035 10.6857 99.5035 10.6857L99.8232 9.88458C98.0615 9.43273 95.7389 8.95524 93.0295 8.95524C90.9328 8.95524 88.6047 9.24125 86.1235 10.0448Z" fill="url(#paint7_linear_145_1919)"/>
<path id="path1206" d="M105.752 26.3082C114.725 30.2338 120.334 36.2424 121.135 37.6845L121.855 37.2839C117.609 32.5571 112.08 28.4713 102.948 24.6258C103.829 25.1064 104.79 25.6672 105.752 26.3082Z" fill="url(#paint8_linear_145_1919)"/>
</g>
<g id="g2583">
<path id="path1502" d="M72.9846 82.3879C73.3051 82.4688 73.6255 82.5489 73.946 82.6298C74.2673 82.7091 74.5869 82.7893 74.9074 82.9487C75.0564 82.9863 75.2062 83.0416 75.3552 83.1137C75.1173 82.9895 74.8521 82.8774 74.5869 82.7893C74.2672 82.6298 73.946 82.5489 73.6255 82.4688C73.3051 82.3879 72.9846 82.3086 72.6642 82.2285C72.3437 82.1483 72.1033 82.0682 71.9431 81.9881C72.1033 82.1483 72.423 82.2284 72.9846 82.3879ZM75.8511 83.4174C75.6861 83.294 75.5202 83.193 75.3552 83.1137C75.5411 83.2099 75.7109 83.3132 75.8511 83.4174ZM75.8696 83.431C75.8631 83.4262 75.8575 83.4214 75.8511 83.4174C75.8567 83.4214 75.8631 83.4262 75.8696 83.431Z" fill="url(#paint9_radial_145_1919)"/>
<path id="path1522" d="M70.0205 79.2642C69.3002 79.8258 68.8989 80.546 68.979 81.4273C68.979 82.0682 69.1392 82.6298 69.5398 83.1097C69.6199 83.431 69.7801 83.5103 69.9403 83.6705C69.861 83.5896 69.7801 83.5103 69.7 83.3501C69.3795 82.8694 69.2193 82.3086 69.2193 81.6676C69.2193 80.7856 69.6191 79.9844 70.3409 79.4244C71.062 78.8636 72.0233 78.5432 73.2243 78.5432C73.7859 78.5432 74.3467 78.6233 74.9075 78.7034C75.1478 78.7827 75.3882 78.8636 75.6285 78.8636C75.3081 78.7034 74.9075 78.6233 74.5077 78.5432C73.9461 78.463 73.3853 78.3829 72.8245 78.3829C71.7029 78.3829 70.7415 78.7034 70.0205 79.2642Z" fill="url(#paint10_radial_145_1919)"/>
<path id="path1542" d="M69.1392 87.8373V87.9959L70.6621 86.4745L70.5812 86.235L69.1392 87.8373Z" fill="url(#paint11_radial_145_1919)"/>
<path id="path1562" d="M74.2673 85.7535C74.2673 85.993 74.1864 86.1541 74.1062 86.3143C74.0253 86.4745 73.8659 86.5539 73.7065 86.6348C73.5454 86.7149 73.3852 86.7149 73.1449 86.7942C72.9053 86.8751 72.7443 86.8751 72.5841 86.8751C71.3823 86.8751 70.7414 86.3944 70.5812 86.3944L70.6621 86.6348C70.7414 86.7149 70.9016 86.7149 70.9818 86.7942C71.5426 87.0361 72.1034 87.1155 72.6642 87.1155C72.8244 87.1155 72.9846 87.1155 73.2242 87.0361C73.4661 87.0361 73.6255 86.9552 73.7858 86.8751C73.946 86.7942 74.1062 86.7149 74.1864 86.5538C74.2673 86.3944 74.3466 86.235 74.3466 85.993C74.3466 85.6734 74.2673 85.5132 74.1062 85.3529C74.1864 85.433 74.1864 85.5933 74.2673 85.7535Z" fill="url(#paint12_radial_145_1919)"/>
<path id="path1594" d="M78.3523 88.157L78.5926 88.4774L81.7972 78.7034L81.5569 78.5432L78.3523 88.157Z" fill="url(#paint13_radial_145_1919)"/>
<path id="path1614" d="M82.1979 84.5518L82.1178 84.712H84.1207L83.8811 84.5518H82.1979Z" fill="url(#paint14_radial_145_1919)"/>
<path id="path1634" d="M84.4412 86.3944L85.002 88.2371L85.2423 88.3172L84.6014 86.3944H84.4412Z" fill="url(#paint15_radial_145_1919)"/>
<path id="path1654" d="M81.557 78.5431L81.7973 78.7034H84.4411L84.2008 78.5431H81.557Z" fill="url(#paint16_radial_145_1919)"/>
<path id="path1674" d="M82.999 81.8279L83.8811 84.5518L84.1206 84.712L83.0799 81.5074L82.999 81.8279Z" fill="url(#paint17_radial_145_1919)"/>
<path id="path1694" d="M92.3726 82.0682V82.1483H96.0578L95.8175 82.0682H92.3726Z" fill="url(#paint18_radial_145_1919)"/>
<path id="path1714" d="M91.4111 78.3028L91.6515 78.4631H96.3783L96.1387 78.3028H91.4111Z" fill="url(#paint19_radial_145_1919)"/>
<path id="path1734" d="M89.7288 87.9959L89.9691 88.0768V80.2256L89.7288 79.9844V87.9959Z" fill="url(#paint20_radial_145_1919)"/>
<path id="path1754" d="M89.7288 79.9844L89.9691 80.2256L91.6515 78.463L91.4112 78.3028L89.7288 79.9844Z" fill="url(#paint21_radial_145_1919)"/>
<path id="path1774" d="M101.345 81.6676V81.8279L104.711 81.6676L104.31 81.5867L101.345 81.6676Z" fill="url(#paint22_radial_145_1919)"/>
<path id="path1802" d="M98.5414 87.6763L98.9428 87.7564V79.8258L98.5414 79.7449V87.6763Z" fill="url(#paint23_radial_145_1919)"/>
<path id="path1822" d="M100.224 78.0625L100.624 78.1426L105.031 78.0625L104.63 77.9815L100.224 78.0625Z" fill="url(#paint24_radial_145_1919)"/>
<path id="path1842" d="M98.5414 79.7449L98.9428 79.8258L100.624 78.1426L100.224 78.0625L98.5414 79.7449Z" fill="url(#paint25_radial_145_1919)"/>
<path id="path1872" d="M98.5414 79.7449L98.9428 79.8258L100.624 78.1426L100.224 78.0625L98.5414 79.7449Z" fill="url(#paint26_radial_145_1919)"/>
<path id="path1900" d="M81.7974 78.7034L78.5928 88.4774H79.6335L81.6371 86.3944H84.6815L85.3232 88.2371L87.806 88.157L84.4412 78.7034H81.7974ZM83.08 81.5074L84.0406 84.712H82.1178L83.08 81.5074Z" fill="url(#paint27_radial_145_1919)"/>
<path id="path1928" d="M70.341 79.4244C69.6199 79.9844 69.2202 80.7063 69.2202 81.6676C69.2202 82.3086 69.3796 82.9487 69.7 83.3501C70.0213 83.8307 70.5813 84.1512 71.3023 84.3907C71.6236 84.4717 71.9433 84.6319 72.3438 84.712C72.7444 84.7921 73.0657 84.8722 73.3853 84.9524C73.6257 85.0325 73.866 85.1126 74.0255 85.2728C74.1865 85.433 74.3467 85.5933 74.3467 85.8336C74.3467 86.074 74.2674 86.235 74.1865 86.3944C74.1064 86.5539 73.9461 86.6348 73.7859 86.7149C73.6257 86.7942 73.4663 86.7942 73.2243 86.8751C72.9848 86.8751 72.8245 86.9552 72.6643 86.9552C72.1035 86.9552 71.5427 86.8751 70.9819 86.6348C70.9018 86.5539 70.7415 86.5539 70.6622 86.4745L69.2194 87.9959C69.7001 88.2371 70.1807 88.3973 70.7415 88.5575C71.3024 88.7178 71.9433 88.7971 72.6643 88.7971C73.9461 88.7971 75.0686 88.4774 75.7888 87.9166C76.5106 87.355 76.9104 86.5539 76.9104 85.5933C76.9104 84.9524 76.7502 84.3907 76.4297 83.991C76.1093 83.5103 75.5484 83.1097 74.8274 82.8694C74.5078 82.7091 74.1865 82.6298 73.866 82.5489C73.5456 82.4688 73.2243 82.3879 72.9055 82.3086C72.4232 82.2284 72.1035 82.0682 71.8632 81.908C71.7029 81.7478 71.6228 81.5867 71.6228 81.3472C71.6228 81.1869 71.7029 81.0267 71.783 80.8665C71.8632 80.7063 72.0234 80.6269 72.1836 80.546C72.3438 80.4659 72.5041 80.3858 72.7444 80.3858C72.9055 80.3858 73.0657 80.3057 73.3052 80.3057C73.866 80.3057 74.3467 80.3858 74.9075 80.6269H74.9876L76.4305 79.1841C75.949 78.9437 75.4683 78.8636 74.9075 78.7034C74.3467 78.5432 73.7859 78.5432 73.2251 78.5432C72.1035 78.5432 71.1421 78.8636 70.341 79.4244Z" fill="url(#paint28_radial_145_1919)"/>
<path id="path1956" d="M91.6515 78.463L89.9691 80.2256V88.0768H92.3726V83.991H96.0579V82.1483H92.3726V80.3057H96.3783V78.463H91.6515Z" fill="url(#paint29_radial_145_1919)"/>
<path id="path1984" d="M100.624 78.1426L98.9427 79.8258V87.7564H101.345V83.6705L104.711 83.5103V81.6676L101.345 81.8279V79.9844L105.031 79.8258V78.0625L100.624 78.1426Z" fill="url(#paint30_radial_145_1919)"/>
</g>
<g id="g2671">
<path id="path1290" d="M14.9014 63.1611C14.7412 63.802 14.5817 64.4429 14.4207 65.0838C14.4207 65.1631 14.4207 65.2441 14.3406 65.3242C14.1804 65.9651 14.1002 66.5259 13.9408 67.166C13.9408 67.2469 13.9408 67.3271 13.8599 67.4072C13.7806 67.9672 13.6195 68.6089 13.5394 69.1689V69.41C13.4593 69.97 13.3792 70.6118 13.2991 71.1726V71.2527C13.0595 73.1755 12.8985 74.9372 12.8985 76.7005C12.6582 93.5247 21.2305 103.779 22.7527 105.782C27.5604 112.03 33.7284 116.518 40.2177 119.402C40.378 119.483 40.539 119.562 40.6984 119.641C41.1791 119.802 41.5797 120.043 42.0604 120.203C42.2206 120.284 42.461 120.363 42.622 120.443C43.1027 120.604 43.5024 120.764 43.9831 120.924C44.1442 121.004 44.3036 121.084 44.4638 121.084C45.1047 121.325 45.7457 121.485 46.3073 121.726C46.3874 121.726 46.4667 121.726 46.5468 121.805C47.0283 121.965 47.509 122.126 47.9889 122.206C48.23 122.287 48.3895 122.287 48.6298 122.366C48.9503 122.446 49.3508 122.526 49.6713 122.606C49.9116 122.687 50.152 122.687 50.3923 122.767C50.7128 122.846 51.0333 122.927 51.3545 123.007C51.5941 123.088 51.8352 123.088 52.0756 123.167C52.3952 123.247 52.7157 123.247 53.0361 123.327C53.2765 123.327 53.5168 123.407 53.6771 123.407C53.9975 123.488 54.3981 123.488 54.7186 123.568C54.8796 123.568 55.1191 123.648 55.2794 123.648C55.7608 123.728 56.3209 123.728 56.8015 123.808H57.2822C57.6828 123.808 58.0033 123.889 58.4038 123.889H59.0456H59.926H60.5677H61.449H62.0899H62.9712C63.0505 123.968 63.2909 123.968 63.4519 123.889H63.4511C63.7716 123.889 64.092 123.889 64.4125 123.808H64.8932C65.3739 123.808 65.7744 123.728 66.2559 123.648C66.4161 123.648 66.5756 123.568 66.8167 123.568C67.1364 123.568 67.3767 123.488 67.6179 123.488C67.7773 123.488 68.0184 123.407 68.1779 123.407C68.419 123.407 68.6594 123.327 68.8989 123.327C69.1393 123.327 69.3003 123.247 69.4605 123.247C69.7001 123.167 69.9404 123.167 70.1808 123.088C70.341 123.088 70.5813 123.007 70.7416 123.007C70.9819 122.927 71.2231 122.927 71.4634 122.846C71.6236 122.767 71.8632 122.767 72.0242 122.687C72.2645 122.606 72.5842 122.526 72.8254 122.526C73.0657 122.446 73.3052 122.366 73.5456 122.366C73.7859 122.287 74.1064 122.206 74.3467 122.126C74.5078 122.045 74.7473 122.045 74.9075 121.965C75.0686 121.885 75.3081 121.885 75.4683 121.805C75.6294 121.726 75.8697 121.726 76.0292 121.645C76.1894 121.565 76.4305 121.565 76.59 121.485C76.7502 121.405 76.9905 121.325 77.1508 121.325C77.3118 121.244 77.4712 121.164 77.6322 121.164C77.7917 121.084 78.0328 121.004 78.1923 120.924C78.3525 120.844 78.5127 120.764 78.6738 120.764C78.834 120.684 79.0735 120.604 79.2346 120.523C79.394 120.443 79.4749 120.443 79.6343 120.363C80.0357 120.203 80.3554 120.043 80.6766 119.883C80.8369 119.802 80.917 119.802 81.0764 119.722C81.2374 119.641 81.4778 119.562 81.638 119.483C81.7181 119.402 81.8775 119.402 81.9577 119.322C82.1179 119.241 82.2789 119.161 82.5185 119.081C82.5986 119 82.7588 119 82.8397 118.921C82.9992 118.841 83.1594 118.761 83.3196 118.682C83.3997 118.601 83.4798 118.601 83.6409 118.521C83.8003 118.44 83.9605 118.36 84.1208 118.28C85.4827 117.559 86.6043 116.837 87.5657 116.196C87.4055 116.117 87.2461 115.957 87.085 115.957C84.3611 116.277 81.1565 116.518 77.5513 116.438C76.8303 116.438 75.7087 116.837 75.1479 117.399C73.2251 119.241 71.223 120.924 69.7802 122.045C68.1779 122.206 63.8517 122.446 62.3295 122.446C62.3295 122.446 62.4096 122.446 62.4096 122.366C62.5698 122.287 62.6507 122.206 62.8102 122.126C62.8911 122.045 62.9712 122.045 63.0505 121.965C63.1306 121.965 63.1306 121.885 63.2107 121.885C64.8932 120.764 67.537 118.841 68.979 117.239C69.2202 116.998 69.4605 116.758 69.6199 116.518C70.2609 115.717 70.5813 114.516 70.0213 113.074C69.6199 111.951 68.3381 109.067 68.0184 108.266C67.6972 107.465 66.5756 106.744 64.5727 106.583C53.9975 105.782 48.5505 103.218 44.7843 101.937C43.903 101.615 42.461 101.696 41.7399 102.258L41.4996 102.417L41.4195 102.498L37.735 105.381L37.3336 105.702L37.0139 105.942C36.2128 106.503 35.7313 107.624 35.9716 108.506C36.5324 110.99 38.7757 114.915 39.818 116.679C37.5739 115.316 32.8472 112.191 32.3665 111.711C31.5653 109.868 30.2042 106.823 30.0431 106.103C29.8829 105.462 29.0817 104.42 28.4408 104.1C26.5181 103.218 24.9959 102.337 22.9938 101.215C22.433 100.495 20.1089 96.2486 19.3077 94.0046C22.1919 96.3287 26.2777 98.5719 26.9988 98.8924C28.5209 99.5333 29.963 98.9725 30.8443 98.3316C31.0053 98.2514 31.1655 98.1705 31.2449 98.0912L35.1705 95.127C35.9716 94.5654 36.4523 93.1241 36.2921 92.1627C35.1705 86.074 34.1298 78.3829 34.7707 72.1332C34.85 71.1726 34.1298 69.4902 33.2485 68.9294C33.2485 68.9294 26.5181 64.1217 26.1984 64.0423C25.9573 63.9622 25.6368 63.9622 25.3171 63.8821C24.6762 63.802 23.9552 63.802 23.4737 64.2026C20.8299 66.2856 18.0259 68.689 16.1832 70.7712C16.5037 68.528 16.9043 66.2856 17.546 63.8821C19.4687 62.0395 21.3907 60.5165 23.5538 58.9951C24.2748 58.5136 24.7563 57.7934 24.8357 56.9914C24.9959 54.028 25.4766 50.583 26.2777 47.6981C30.2042 42.9721 35.0904 39.1266 39.5768 36.4828C39.4975 36.4027 39.4166 36.2424 39.4166 36.1623C22.0316 43.5329 16.1832 58.7547 14.9014 63.1611Z" fill="url(#paint31_linear_145_1919)"/>
<path id="path1332" d="M44.064 33.839C50.3121 32.2367 56.7213 32.2367 62.9711 33.5185C64.8931 34.6401 66.5755 36.0021 68.1778 37.364C68.4982 37.6044 68.9789 37.8447 69.3795 37.9249C69.7801 38.005 70.3409 38.0851 70.6621 38.005C74.1864 37.1237 77.8725 36.643 81.557 36.5629C78.1128 34.7203 74.5077 33.3583 70.6621 32.4762C69.2193 32.1566 67.7772 31.9162 66.2558 31.6751C66.0948 31.6751 66.0139 31.6751 65.8552 31.5958C65.3738 31.5157 64.813 31.4355 64.3323 31.4355C62.6186 31.2585 60.9242 31.176 59.269 31.1752C53.419 31.1752 48.0609 32.2151 44.064 33.839Z" fill="url(#paint32_radial_145_1919)"/>
<path id="path1374" d="M14.9014 63.1611C7.93137 87.9959 20.7498 103.299 22.7526 105.863C29.0817 114.114 37.735 119.161 46.3874 121.805C65.6951 127.653 81.3167 120.443 87.645 116.117C84.9219 116.438 81.1565 116.758 77.3118 116.679C76.5899 116.679 75.4683 117.078 74.9075 117.638C72.9848 119.562 70.9819 121.244 69.5398 122.366C67.8582 122.606 62.9704 122.846 61.7687 122.767C62.6499 122.287 67.4568 119.081 69.4605 116.837C70.1014 116.036 70.4203 114.834 69.8611 113.393C69.4605 112.272 68.1779 109.307 67.8582 108.506C67.5369 107.705 66.4153 106.904 64.4125 106.744C53.8373 105.863 48.3895 103.299 44.624 102.097C43.7428 101.776 42.3007 101.857 41.5797 102.417L37.1733 105.863C36.3722 106.423 35.8915 107.545 36.1319 108.425C36.8537 111.711 40.4589 117.319 40.5382 117.399C39.0961 116.679 32.6869 112.431 32.2062 111.951C31.4051 110.108 30.0431 106.984 29.8829 106.263C29.7227 105.542 28.9215 104.58 28.2806 104.261C26.3578 103.379 24.8356 102.498 22.8328 101.376C22.1918 100.575 19.3878 95.4474 18.9079 93.4454C21.7913 95.848 26.4379 98.4117 27.159 98.7321C28.6812 99.3731 30.2835 98.7321 31.0846 98.1705L35.0102 95.2063C35.8114 94.6463 36.2921 93.2034 36.1319 92.2428C35.0102 86.074 33.9687 78.3028 34.6097 72.1332C34.6898 71.1726 33.9687 69.4902 33.0875 68.9294C33.0875 68.9294 26.3578 64.1217 26.0382 64.0423C25.3171 63.8821 24.2748 63.802 23.714 64.2827C20.8299 66.5259 17.8656 69.1689 16.0238 71.4129C16.2633 69.0103 16.8241 66.5259 17.3849 64.0423C19.3077 62.1997 21.2305 60.5966 23.3936 59.1553C24.1146 58.6746 24.5953 57.9536 24.6754 57.1525C24.8356 54.1882 25.3171 50.7433 26.1183 47.779C30.0431 42.9721 35.0904 39.0465 39.6569 36.3225C22.0316 43.5329 16.1832 58.7548 14.9014 63.1611Z" fill="url(#paint33_radial_145_1919)"/>
<path id="path1400" d="M14.9015 63.1611C13.2992 68.7683 12.7384 73.8965 12.8986 78.5432C16.7449 90.7206 28.6011 97.2901 28.6011 97.2901V98.0103L31.9668 97.3694L34.9302 95.127C35.8115 94.486 36.2922 93.044 36.1328 92.0826H36.132C35.0103 85.9137 33.9688 78.1426 34.6098 71.9737C34.6899 71.0123 33.9688 69.3291 33.0876 68.7683C33.0876 68.7683 26.3579 63.9622 26.0383 63.8821C25.3172 63.7219 24.2749 63.6418 23.7141 64.1217C20.83 66.3649 17.8657 69.0103 16.0239 71.2527C16.2634 68.8492 16.8242 66.3649 17.385 63.8821C19.3078 62.0395 21.2306 60.4372 23.3937 58.9951C24.1147 58.5136 24.5954 57.7934 24.6755 56.9914C24.8357 54.028 25.3172 50.583 26.1184 47.6188C30.0432 42.8119 35.0905 38.8854 39.657 36.1623C22.0317 43.5329 16.1833 58.7547 14.9015 63.1611Z" fill="url(#paint34_radial_145_1919)"/>
<path id="path1432" d="M41.9001 117.96C41.7399 118.04 38.3759 118.521 38.3759 118.521C41.0188 119.802 43.6626 120.924 46.3874 121.726C62.8101 126.693 76.5899 122.287 84.2008 118.121C79.6335 119.722 75.1478 120.684 70.9017 121.084C70.4203 121.485 69.9404 121.885 69.5398 122.206C67.8582 122.446 62.9704 122.687 61.7686 122.606C62.0899 122.446 62.73 122.045 63.5312 121.485C52.3952 121.405 45.3451 118.682 44.3036 118.28C43.5425 117.96 42.9817 117.88 42.5915 117.88C42.2005 117.88 41.9802 117.96 41.9001 117.96Z" fill="url(#paint35_radial_145_1919)"/>
<path id="path1248" d="M44.064 33.7589C44.2234 33.839 44.2234 33.9191 44.3035 33.9191C50.5525 32.3168 56.8816 32.3168 63.0504 33.5986C64.813 34.8004 66.5755 36.0814 68.1778 37.4441C68.4982 37.6845 68.9789 37.9248 69.3795 38.005C69.7801 38.0851 70.3409 38.1644 70.6621 38.0851C74.1864 37.2038 77.8725 36.7231 81.557 36.643V36.4828C78.1128 34.6401 74.5077 33.2774 70.6621 32.3969C69.2193 32.0764 67.7772 31.8361 66.2558 31.5958C66.0948 31.5958 66.0139 31.5958 65.8552 31.5156C65.3738 31.4355 64.813 31.3554 64.3323 31.3554C62.6186 31.1784 60.9242 31.0958 59.269 31.0958C53.419 31.095 48.0609 32.1349 44.064 33.7589Z" fill="url(#paint36_linear_145_1919)"/>
</g>
</g>
</g>
<defs>
<radialGradient id="paint0_radial_145_1919" cx="0" cy="0" r="1" gradientUnits="userSpaceOnUse" gradientTransform="translate(65.4547 46.2938) scale(120.168 120.168)">
<stop stop-color="#338461"/>
<stop offset="0.0558972" stop-color="#2A7B54"/>
<stop offset="0.1675" stop-color="#176E42"/>
<stop offset="0.2328" stop-color="#0E6A3B"/>
<stop offset="0.2397" stop-color="#0E693B"/>
<stop offset="0.5428" stop-color="#024122"/>
<stop offset="0.6942" stop-color="#034323"/>
<stop offset="0.7861" stop-color="#054726"/>
<stop offset="0.8621" stop-color="#084E2B"/>
<stop offset="0.9295" stop-color="#0B5932"/>
<stop offset="0.9906" stop-color="#0E673A"/>
<stop offset="1" stop-color="#0E6A3B"/>
</radialGradient>
<linearGradient id="paint1_linear_145_1919" x1="109.625" y1="84.1912" x2="117.852" y2="84.1912" gradientUnits="userSpaceOnUse">
<stop stop-color="#9CD5BE"/>
<stop offset="0.00058866" stop-color="#9CD4BE"/>
<stop offset="0.1024" stop-color="#86B7A5"/>
<stop offset="0.2117" stop-color="#78A495"/>
<stop offset="0.3326" stop-color="#6E988A"/>
<stop offset="0.4727" stop-color="#699184"/>
<stop offset="0.6769" stop-color="#678F83"/>
<stop offset="0.7349" stop-color="#648C80"/>
<stop offset="0.7979" stop-color="#5D8276"/>
<stop offset="0.8632" stop-color="#517268"/>
<stop offset="0.9302" stop-color="#405D55"/>
<stop offset="0.9979" stop-color="#2B453E"/>
<stop offset="1" stop-color="#2A453E"/>
</linearGradient>
<linearGradient id="paint2_linear_145_1919" x1="101.057" y1="100.254" x2="105.071" y2="100.254" gradientUnits="userSpaceOnUse">
<stop stop-color="#9CD5BE"/>
<stop offset="0.00058866" stop-color="#9CD4BE"/>
<stop offset="0.1024" stop-color="#86B7A5"/>
<stop offset="0.2117" stop-color="#78A495"/>
<stop offset="0.3326" stop-color="#6E988A"/>
<stop offset="0.4727" stop-color="#699184"/>
<stop offset="0.6769" stop-color="#678F83"/>
<stop offset="0.7349" stop-color="#648C80"/>
<stop offset="0.7979" stop-color="#5D8276"/>
<stop offset="0.8632" stop-color="#517268"/>
<stop offset="0.9302" stop-color="#405D55"/>
<stop offset="0.9979" stop-color="#2B453E"/>
<stop offset="1" stop-color="#2A453E"/>
</linearGradient>
<linearGradient id="paint3_linear_145_1919" x1="3.03916" y1="53.7789" x2="92.0897" y2="53.7789" gradientUnits="userSpaceOnUse">
<stop stop-color="#9CD5BE"/>
<stop offset="0.00058866" stop-color="#9CD4BE"/>
<stop offset="0.1024" stop-color="#86B7A5"/>
<stop offset="0.2117" stop-color="#78A495"/>
<stop offset="0.3326" stop-color="#6E988A"/>
<stop offset="0.4727" stop-color="#699184"/>
<stop offset="0.6769" stop-color="#678F83"/>
<stop offset="0.7349" stop-color="#648C80"/>
<stop offset="0.7979" stop-color="#5D8276"/>
<stop offset="0.8632" stop-color="#517268"/>
<stop offset="0.9302" stop-color="#405D55"/>
<stop offset="0.9979" stop-color="#2B453E"/>
<stop offset="1" stop-color="#2A453E"/>
</linearGradient>
<linearGradient id="paint4_linear_145_1919" x1="90.6903" y1="43.2925" x2="104.671" y2="43.2925" gradientUnits="userSpaceOnUse">
<stop stop-color="#9CD5BE"/>
<stop offset="0.00058866" stop-color="#9CD4BE"/>
<stop offset="0.1024" stop-color="#86B7A5"/>
<stop offset="0.2117" stop-color="#78A495"/>
<stop offset="0.3326" stop-color="#6E988A"/>
<stop offset="0.4727" stop-color="#699184"/>
<stop offset="0.6769" stop-color="#678F83"/>
<stop offset="0.7349" stop-color="#648C80"/>
<stop offset="0.7979" stop-color="#5D8276"/>
<stop offset="0.8632" stop-color="#517268"/>
<stop offset="0.9302" stop-color="#405D55"/>
<stop offset="0.9979" stop-color="#2B453E"/>
<stop offset="1" stop-color="#2A453E"/>
</linearGradient>
<linearGradient id="paint5_linear_145_1919" x1="14.9122" y1="20.5516" x2="41.4408" y2="12.0322" gradientUnits="userSpaceOnUse">
<stop stop-color="#9CD5BE"/>
<stop offset="0.00058866" stop-color="#9CD4BE"/>
<stop offset="0.1024" stop-color="#86B7A5"/>
<stop offset="0.2117" stop-color="#78A495"/>
<stop offset="0.3326" stop-color="#6E988A"/>
<stop offset="0.4727" stop-color="#699184"/>
<stop offset="0.6769" stop-color="#678F83"/>
<stop offset="0.7349" stop-color="#648C80"/>
<stop offset="0.7979" stop-color="#5D8276"/>
<stop offset="0.8632" stop-color="#517268"/>
<stop offset="0.9302" stop-color="#405D55"/>
<stop offset="0.9979" stop-color="#2B453E"/>
<stop offset="1" stop-color="#2A453E"/>
</linearGradient>
<linearGradient id="paint6_linear_145_1919" x1="45.004" y1="0.849405" x2="59.0895" y2="4.79891" gradientUnits="userSpaceOnUse">
<stop stop-color="#9CD5BE"/>
<stop offset="0.00058866" stop-color="#9CD4BE"/>
<stop offset="0.1024" stop-color="#86B7A5"/>
<stop offset="0.2117" stop-color="#78A495"/>
<stop offset="0.3326" stop-color="#6E988A"/>
<stop offset="0.4727" stop-color="#699184"/>
<stop offset="0.6769" stop-color="#678F83"/>
<stop offset="0.7349" stop-color="#648C80"/>
<stop offset="0.7979" stop-color="#5D8276"/>
<stop offset="0.8632" stop-color="#517268"/>
<stop offset="0.9302" stop-color="#405D55"/>
<stop offset="0.9979" stop-color="#2B453E"/>
<stop offset="1" stop-color="#2A453E"/>
</linearGradient>
<linearGradient id="paint7_linear_145_1919" x1="102.55" y1="9.85896" x2="86.0915" y2="9.75802" gradientUnits="userSpaceOnUse">
<stop stop-color="#9CD5BE"/>
<stop offset="0.00058866" stop-color="#9CD4BE"/>
<stop offset="0.1024" stop-color="#86B7A5"/>
<stop offset="0.2117" stop-color="#78A495"/>
<stop offset="0.3326" stop-color="#6E988A"/>
<stop offset="0.4727" stop-color="#699184"/>
<stop offset="0.6769" stop-color="#678F83"/>
<stop offset="0.7349" stop-color="#648C80"/>
<stop offset="0.7979" stop-color="#5D8276"/>
<stop offset="0.8632" stop-color="#517268"/>
<stop offset="0.9302" stop-color="#405D55"/>
<stop offset="0.9979" stop-color="#2B453E"/>
<stop offset="1" stop-color="#2A453E"/>
</linearGradient>
<linearGradient id="paint8_linear_145_1919" x1="123.908" y1="39.3001" x2="103.445" y2="23.6499" gradientUnits="userSpaceOnUse">
<stop stop-color="#9CD5BE"/>
<stop offset="0.00058866" stop-color="#9CD4BE"/>
<stop offset="0.1024" stop-color="#86B7A5"/>
<stop offset="0.2117" stop-color="#78A495"/>
<stop offset="0.3326" stop-color="#6E988A"/>
<stop offset="0.4727" stop-color="#699184"/>
<stop offset="0.6769" stop-color="#678F83"/>
<stop offset="0.7349" stop-color="#648C80"/>
<stop offset="0.7979" stop-color="#5D8276"/>
<stop offset="0.8632" stop-color="#517268"/>
<stop offset="0.9302" stop-color="#405D55"/>
<stop offset="0.9979" stop-color="#2B453E"/>
<stop offset="1" stop-color="#2A453E"/>
</linearGradient>
<radialGradient id="paint9_radial_145_1919" cx="0" cy="0" r="1" gradientUnits="userSpaceOnUse" gradientTransform="translate(73.7047 83.2227) rotate(14.3948) scale(3.41384 1.16346)">
<stop stop-color="#14686A"/>
<stop offset="1" stop-color="#033235"/>
</radialGradient>
<radialGradient id="paint10_radial_145_1919" cx="0" cy="0" r="1" gradientUnits="userSpaceOnUse" gradientTransform="translate(71.7464 81.0056) scale(3.60654 3.60654)">
<stop stop-color="#14686A"/>
<stop offset="1" stop-color="#033235"/>
</radialGradient>
<radialGradient id="paint11_radial_145_1919" cx="0" cy="0" r="1" gradientUnits="userSpaceOnUse" gradientTransform="translate(71.2031 85.2949) scale(4.3722 4.37219)">
<stop stop-color="#14686A"/>
<stop offset="1" stop-color="#033235"/>
</radialGradient>
<radialGradient id="paint12_radial_145_1919" cx="0" cy="0" r="1" gradientUnits="userSpaceOnUse" gradientTransform="translate(72.4707 86.1597) scale(1.45577)">
<stop stop-color="#14686A"/>
<stop offset="1" stop-color="#033235"/>
</radialGradient>
<radialGradient id="paint13_radial_145_1919" cx="0" cy="0" r="1" gradientUnits="userSpaceOnUse" gradientTransform="translate(81.6893 79.0622) scale(14.2818 14.2818)">
<stop stop-color="#14686A"/>
<stop offset="0.4051" stop-color="#146769"/>
<stop offset="0.5753" stop-color="#146365"/>
<stop offset="0.7014" stop-color="#135C5E"/>
<stop offset="0.8058" stop-color="#115254"/>
<stop offset="0.8968" stop-color="#0D4648"/>
<stop offset="0.9771" stop-color="#063739"/>
<stop offset="1" stop-color="#033235"/>
</radialGradient>
<radialGradient id="paint14_radial_145_1919" cx="0" cy="0" r="1" gradientUnits="userSpaceOnUse" gradientTransform="translate(80.9304 85.8373) scale(3.06953 3.06954)">
<stop stop-color="#14686A"/>
<stop offset="1" stop-color="#033235"/>
</radialGradient>
<radialGradient id="paint15_radial_145_1919" cx="0" cy="0" r="1" gradientUnits="userSpaceOnUse" gradientTransform="translate(86.138 91.1761) scale(4.73584 4.73584)">
<stop stop-color="#14686A"/>
<stop offset="1" stop-color="#033235"/>
</radialGradient>
<radialGradient id="paint16_radial_145_1919" cx="0" cy="0" r="1" gradientUnits="userSpaceOnUse" gradientTransform="translate(84.418 78.5959) rotate(180) scale(3.90088 1.22098)">
<stop stop-color="#14686A"/>
<stop offset="1" stop-color="#033235"/>
</radialGradient>
<radialGradient id="paint17_radial_145_1919" cx="0" cy="0" r="1" gradientUnits="userSpaceOnUse" gradientTransform="translate(83.8583 84.552) scale(2.05439 2.05439)">
<stop stop-color="#14686A"/>
<stop offset="1" stop-color="#033235"/>
</radialGradient>
<radialGradient id="paint18_radial_145_1919" cx="0" cy="0" r="1" gradientUnits="userSpaceOnUse" gradientTransform="translate(97.4762 83.5662) scale(4.97642 4.97635)">
<stop stop-color="#14686A"/>
<stop offset="1" stop-color="#033235"/>
</radialGradient>
<radialGradient id="paint19_radial_145_1919" cx="0" cy="0" r="1" gradientUnits="userSpaceOnUse" gradientTransform="translate(90.0197 78.8344) rotate(0.728313) scale(6.58261 1.42397)">
<stop stop-color="#14686A"/>
<stop offset="1" stop-color="#033235"/>
</radialGradient>
<radialGradient id="paint20_radial_145_1919" cx="0" cy="0" r="1" gradientUnits="userSpaceOnUse" gradientTransform="translate(89.5511 83.4728) scale(12.7948 12.7947)">
<stop stop-color="#14686A"/>
<stop offset="1" stop-color="#033235"/>
</radialGradient>
<radialGradient id="paint21_radial_145_1919" cx="0" cy="0" r="1" gradientUnits="userSpaceOnUse" gradientTransform="translate(89.8969 79.86) scale(5.04236)">
<stop stop-color="#14686A"/>
<stop offset="1" stop-color="#033235"/>
</radialGradient>
<radialGradient id="paint22_radial_145_1919" cx="0" cy="0" r="1" gradientUnits="userSpaceOnUse" gradientTransform="translate(105.092 81.21) scale(4.23664 4.23668)">
<stop stop-color="#14686A"/>
<stop offset="1" stop-color="#033235"/>
</radialGradient>
<radialGradient id="paint23_radial_145_1919" cx="0" cy="0" r="1" gradientUnits="userSpaceOnUse" gradientTransform="translate(98.5779 80.7305) scale(9.4276 9.42761)">
<stop stop-color="#14686A"/>
<stop offset="0.1988" stop-color="#146668"/>
<stop offset="0.4002" stop-color="#145F61"/>
<stop offset="0.6029" stop-color="#115455"/>
<stop offset="0.8051" stop-color="#0C4446"/>
<stop offset="1" stop-color="#033235"/>
</radialGradient>
<radialGradient id="paint24_radial_145_1919" cx="0" cy="0" r="1" gradientUnits="userSpaceOnUse" gradientTransform="translate(101.301 79.418) rotate(-5.52727) scale(4.10978 1.90585)">
<stop stop-color="#14686A"/>
<stop offset="1" stop-color="#033235"/>
</radialGradient>
<radialGradient id="paint25_radial_145_1919" cx="0" cy="0" r="1" gradientUnits="userSpaceOnUse" gradientTransform="translate(99.5591 78.9437) scale(0.980741)">
<stop stop-color="#14686A"/>
<stop offset="1" stop-color="#033235"/>
</radialGradient>
<radialGradient id="paint26_radial_145_1919" cx="0" cy="0" r="1" gradientUnits="userSpaceOnUse" gradientTransform="translate(99.9312 78.5033) scale(8.4063 8.40631)">
<stop stop-color="#14686A"/>
<stop offset="0.289" stop-color="#146769"/>
<stop offset="0.4755" stop-color="#146264"/>
<stop offset="0.633" stop-color="#13595B"/>
<stop offset="0.7744" stop-color="#104E50"/>
<stop offset="0.9037" stop-color="#0A3F42"/>
<stop offset="1" stop-color="#033235"/>
</radialGradient>
<radialGradient id="paint27_radial_145_1919" cx="0" cy="0" r="1" gradientUnits="userSpaceOnUse" gradientTransform="translate(98.8589 75.9563) rotate(-0.0748368) scale(21.4774)">
<stop stop-color="#CEEBF0"/>
<stop offset="0.0645408" stop-color="#C7E8E9"/>
<stop offset="0.1646" stop-color="#B3DFD9"/>
<stop offset="0.2871" stop-color="#93D2BF"/>
<stop offset="0.3435" stop-color="#82CCB1"/>
<stop offset="1" stop-color="#68BEA2"/>
</radialGradient>
<radialGradient id="paint28_radial_145_1919" cx="0" cy="0" r="1" gradientUnits="userSpaceOnUse" gradientTransform="translate(98.8589 75.9562) rotate(-0.0748368) scale(21.4774 21.4774)">
<stop stop-color="#CEEBF0"/>
<stop offset="0.0645408" stop-color="#C7E8E9"/>
<stop offset="0.1646" stop-color="#B3DFD9"/>
<stop offset="0.2871" stop-color="#93D2BF"/>
<stop offset="0.3435" stop-color="#82CCB1"/>
<stop offset="1" stop-color="#68BEA2"/>
</radialGradient>
<radialGradient id="paint29_radial_145_1919" cx="0" cy="0" r="1" gradientUnits="userSpaceOnUse" gradientTransform="translate(98.8589 75.9563) rotate(-0.0748368) scale(21.4774 21.4774)">
<stop stop-color="#CEEBF0"/>
<stop offset="0.0645408" stop-color="#C7E8E9"/>
<stop offset="0.1646" stop-color="#B3DFD9"/>
<stop offset="0.2871" stop-color="#93D2BF"/>
<stop offset="0.3435" stop-color="#82CCB1"/>
<stop offset="1" stop-color="#68BEA2"/>
</radialGradient>
<radialGradient id="paint30_radial_145_1919" cx="0" cy="0" r="1" gradientUnits="userSpaceOnUse" gradientTransform="translate(98.8588 75.9563) rotate(-0.0748368) scale(21.4774)">
<stop stop-color="#CEEBF0"/>
<stop offset="0.0645408" stop-color="#C7E8E9"/>
<stop offset="0.1646" stop-color="#B3DFD9"/>
<stop offset="0.2871" stop-color="#93D2BF"/>
<stop offset="0.3435" stop-color="#82CCB1"/>
<stop offset="1" stop-color="#68BEA2"/>
</radialGradient>
<linearGradient id="paint31_linear_145_1919" x1="12.8938" y1="80.0553" x2="87.7334" y2="80.0553" gradientUnits="userSpaceOnUse">
<stop stop-color="#9CD5BE"/>
<stop offset="0.00058866" stop-color="#9CD4BE"/>
<stop offset="0.1024" stop-color="#86B7A5"/>
<stop offset="0.2117" stop-color="#78A495"/>
<stop offset="0.3326" stop-color="#6E988A"/>
<stop offset="0.4727" stop-color="#699184"/>
<stop offset="0.6769" stop-color="#678F83"/>
<stop offset="0.7349" stop-color="#648C80"/>
<stop offset="0.7979" stop-color="#5D8276"/>
<stop offset="0.8632" stop-color="#517268"/>
<stop offset="0.9302" stop-color="#405D55"/>
<stop offset="0.9979" stop-color="#2B453E"/>
<stop offset="1" stop-color="#2A453E"/>
</linearGradient>
<radialGradient id="paint32_radial_145_1919" cx="0" cy="0" r="1" gradientUnits="userSpaceOnUse" gradientTransform="translate(56.645 55.3541) scale(65.059 65.059)">
<stop stop-color="#57746E"/>
<stop offset="0.1196" stop-color="#4C6963"/>
<stop offset="0.3097" stop-color="#3F5C57"/>
<stop offset="0.5034" stop-color="#375551"/>
<stop offset="0.7047" stop-color="#35534E"/>
<stop offset="0.8312" stop-color="#34534F"/>
<stop offset="0.8768" stop-color="#335652"/>
<stop offset="0.9092" stop-color="#315B56"/>
<stop offset="0.9355" stop-color="#2D615D"/>
<stop offset="0.958" stop-color="#266A67"/>
<stop offset="0.9779" stop-color="#187574"/>
<stop offset="0.9954" stop-color="#008184"/>
<stop offset="1" stop-color="#00868A"/>
</radialGradient>
<radialGradient id="paint33_radial_145_1919" cx="0" cy="0" r="1" gradientUnits="userSpaceOnUse" gradientTransform="translate(56.6841 48.5385) rotate(87.8172) scale(77.5109 60.3147)">
<stop stop-color="#57746E"/>
<stop offset="0.1196" stop-color="#4C6963"/>
<stop offset="0.3097" stop-color="#3F5C57"/>
<stop offset="0.5034" stop-color="#375551"/>
<stop offset="0.7047" stop-color="#35534E"/>
<stop offset="0.8312" stop-color="#34534F"/>
<stop offset="0.8768" stop-color="#335652"/>
<stop offset="0.9092" stop-color="#315B56"/>
<stop offset="0.9355" stop-color="#2D615D"/>
<stop offset="0.958" stop-color="#266A67"/>
<stop offset="0.9779" stop-color="#187574"/>
<stop offset="0.9954" stop-color="#008184"/>
<stop offset="1" stop-color="#00868A"/>
</radialGradient>
<radialGradient id="paint34_radial_145_1919" cx="0" cy="0" r="1" gradientUnits="userSpaceOnUse" gradientTransform="translate(37.3015 59.7158) scale(35.7947 35.7947)">
<stop stop-color="#CBE8DB"/>
<stop offset="0.1623" stop-color="#CBE8DB"/>
<stop offset="0.3413" stop-color="#B9D5CA"/>
<stop offset="0.6947" stop-color="#90AFA8"/>
<stop offset="1" stop-color="#6C928C"/>
</radialGradient>
<radialGradient id="paint35_radial_145_1919" cx="0" cy="0" r="1" gradientUnits="userSpaceOnUse" gradientTransform="translate(59.7025 119.458) rotate(-1.9372) scale(26.8332 7.36476)">
<stop stop-color="#7CCCC1"/>
<stop offset="0.272" stop-color="#52C3C3"/>
<stop offset="0.4354" stop-color="#39C0C3"/>
<stop offset="0.5142" stop-color="#34ABAF"/>
<stop offset="0.6275" stop-color="#2B989C"/>
<stop offset="0.7444" stop-color="#258C8F"/>
<stop offset="0.866" stop-color="#218488"/>
<stop offset="1" stop-color="#208286"/>
</radialGradient>
<linearGradient id="paint36_linear_145_1919" x1="44.202" y1="34.6069" x2="81.6401" y2="34.6069" gradientUnits="userSpaceOnUse">
<stop stop-color="#9CD5BE"/>
<stop offset="0.00058866" stop-color="#9CD4BE"/>
<stop offset="0.1024" stop-color="#86B7A5"/>
<stop offset="0.2117" stop-color="#78A495"/>
<stop offset="0.3326" stop-color="#6E988A"/>
<stop offset="0.4727" stop-color="#699184"/>
<stop offset="0.6769" stop-color="#678F83"/>
<stop offset="0.7349" stop-color="#648C80"/>
<stop offset="0.7979" stop-color="#5D8276"/>
<stop offset="0.8632" stop-color="#517268"/>
<stop offset="0.9302" stop-color="#405D55"/>
<stop offset="0.9979" stop-color="#2B453E"/>
<stop offset="1" stop-color="#2A453E"/>
</linearGradient>
</defs>
</svg>
