<svg width="107" height="145" viewBox="0 0 107 145" fill="none" xmlns="http://www.w3.org/2000/svg">
<g id="corea">
<path id="Vector" fill-rule="evenodd" clip-rule="evenodd" d="M24.906 9.1428C37.0774 3.68622 51.493 0.418754 53.3961 0C55.3011 0.418754 69.7226 3.68622 81.893 9.1428C93.5719 14.3821 104.594 22.2077 106.794 23.8041V71.8075C106.794 104.688 82.3501 138.186 53.4 145C24.4057 138.125 0 104.661 0 71.8075V23.8041C2.20092 22.2067 13.2271 14.3821 24.906 9.1428V9.1428Z" fill="#8D784C"/>
<path id="Vector_2" fill-rule="evenodd" clip-rule="evenodd" d="M53.2143 1.9247C53.055 1.96402 37.1276 5.88222 25.2983 11.1058C13.4503 16.3373 2.10169 24.8215 1.98766 24.907L1.67212 25.1449V72.0336C1.67212 87.6317 7.30368 103.777 17.5327 117.505C27.336 130.656 40.286 139.931 53.0639 142.949L53.1494 142.976L53.3558 143.041L53.7402 142.945C66.5082 139.931 79.4601 130.655 89.2615 117.504C99.4925 103.776 105.128 87.6297 105.128 72.0326V25.1439L104.809 24.906C104.698 24.8205 93.3439 16.3363 81.4978 11.1039C69.6676 5.88222 53.7372 1.96402 53.578 1.9247L53.3961 1.88046L53.2143 1.9247V1.9247Z" fill="white"/>
<path id="Vector_3" fill-rule="evenodd" clip-rule="evenodd" d="M25.9186 12.5597C36.9822 7.6752 51.6868 3.93885 53.3962 3.51321C55.1026 3.93983 69.8131 7.6752 80.8757 12.5597C91.5136 17.2584 101.74 24.6082 103.569 25.95V72.0336C103.569 102.667 80.1266 135.072 53.4001 141.398C26.6411 135.03 3.23022 102.647 3.23022 72.0336V25.95C5.05859 24.6082 15.2797 17.2584 25.9186 12.5597Z" fill="#355198"/>
<path id="Vector_4" fill-rule="evenodd" clip-rule="evenodd" d="M80.2249 72.931C83.2564 60.5955 76.4237 44.9345 76.4237 44.9345C77.9562 41.7309 76.927 38.3484 76.927 38.3484C75.9233 34.3968 72.7011 35.9666 72.7011 35.9666C67.0754 27.3035 60.0067 30.0933 60.0067 30.0933C57.5512 30.8266 55.9657 29.5054 55.9657 29.5054C53.3666 26.8632 49.6136 28.6237 49.6136 28.6237C49.183 28.9186 39.6677 35.714 39.6677 35.714C36.8583 35.3169 35.5224 35.9047 34.8982 37.1423C31.5128 43.8689 37.973 48.5096 37.973 48.5096L36.6302 49.3304L34.8992 46.5023C30.983 39.2685 34.7115 34.0832 34.7115 34.0832C38.3495 28.1243 52.1812 25.0781 52.1812 25.0781C53.1524 24.8618 55.0977 24.3615 55.0977 24.3615C61.4468 22.7405 64.4263 19.7817 64.4263 19.7817C68.8655 14.6397 62.5271 9.29122 62.5271 9.29122C58.9844 5.98247 54.3428 5.91956 54.3428 5.91956C47.3193 5.54307 48.8655 9.88691 49.6391 10.6871C50.5592 12.0819 53.0796 13.6478 53.0796 13.6478C54.3546 15.0987 51.3643 16.0503 51.3643 16.0503L44.9542 18.0782C34.0283 21.4095 29.1379 26.1112 29.1379 26.1112C15.1401 38.2226 29.881 59.4876 29.881 59.4876C24.6093 74.8017 26.6273 77.8263 26.6273 77.8263C22.1085 90.6317 32.1508 100.671 32.1508 100.671C33.3579 102.462 34.7232 104.215 35.778 105.513C31.0911 112.292 30.4413 121.507 34.8579 129.101C40.8591 139.434 53.9633 142.849 64.1137 136.737C67.2375 134.855 69.8303 132.208 71.6473 129.046C72.532 128.8 73.2752 128.19 73.2752 128.19C79.6204 128.047 79.4955 125.195 79.4955 125.195C79.7088 119.024 74.8843 117.103 74.8843 117.103C75.9676 114.682 75.5852 109.69 75.5852 109.69C80.3507 96.1542 77.9237 92.2222 77.9237 92.2222C78.3553 91.5597 77.5875 89.3755 77.5875 89.3755C80.0165 81.9706 78.718 79.3352 78.718 79.3352C80.9798 76.8217 80.2249 72.931 80.2249 72.931V72.931Z" fill="white"/>
<path id="Vector_5" fill-rule="evenodd" clip-rule="evenodd" d="M73.9849 117.595L73.8374 117.814C76.3234 120.437 77.3388 122.657 76.8532 124.409C76.3008 126.406 73.9219 127.092 73.8984 127.097L73.9347 127.362C77.732 127.362 78.6826 125.513 78.7209 125.437C79.1269 119.678 74.035 117.617 73.9849 117.595V117.595Z" fill="#8D784C"/>
<path id="Vector_6" fill-rule="evenodd" clip-rule="evenodd" d="M78.4663 125.367C78.4643 125.347 77.6524 126.811 74.7152 127.045C75.5124 126.672 76.7136 125.923 77.1117 124.482C77.1982 124.176 77.2405 123.856 77.2405 123.526C77.2405 121.988 76.286 120.177 74.4744 118.144C75.7031 118.823 78.4889 120.799 78.4889 124.769C78.4876 124.968 78.48 125.168 78.4663 125.367Z" fill="#355198"/>
<path id="Vector_7" fill-rule="evenodd" clip-rule="evenodd" d="M74.4016 126.204C75.6343 123.699 72.1653 119.65 72.0169 119.481L71.7957 119.63C73.0323 121.903 73.2859 123.777 72.5536 125.2C71.4497 127.351 68.424 127.748 68.3936 127.751L68.4014 128.022C71.6944 128.214 73.7125 127.602 74.4016 126.204Z" fill="#8D784C"/>
<path id="Vector_8" fill-rule="evenodd" clip-rule="evenodd" d="M69.4698 127.784C70.5049 127.477 72.0384 126.793 72.7933 125.324C73.0902 124.739 73.241 124.09 73.2327 123.433C73.2327 122.557 72.9241 121.556 72.4591 120.494C73.2249 121.548 74.3966 123.411 74.3966 124.994C74.3966 125.38 74.3258 125.751 74.1607 126.084C73.5974 127.228 72.0187 127.796 69.4698 127.784Z" fill="#355198"/>
<path id="Vector_9" fill-rule="evenodd" clip-rule="evenodd" d="M71.1282 107.314C68.2981 102.447 63.7734 99.0068 58.3837 97.6248C55.8882 96.9856 53.2939 96.8265 50.739 97.1559C50.4785 99.9613 49.9693 101.289 48.6344 102.14C49.0109 106.749 42.9733 106.335 42.9733 106.335C41.1027 110.972 38.2776 109.305 35.9833 106.611C31.8714 113.101 31.4094 121.66 35.5321 128.746C38.3582 133.609 42.8819 137.05 48.2687 138.434C53.5955 139.801 59.1347 138.986 63.8619 136.141C73.6721 130.229 76.9317 117.295 71.1282 107.314V107.314Z" fill="#8D784C"/>
<path id="Vector_10" fill-rule="evenodd" clip-rule="evenodd" d="M73.2328 113.458L72.5073 114.794C72.4346 114.903 72.2577 115.732 72.1289 116.474L71.8674 116.491C71.7101 115.977 71.4202 115.107 71.3179 114.956C71.0476 114.529 69.7068 113.034 68.4476 112.197C67.5029 111.572 66.6871 111.377 66.1975 111.26C66.1975 111.26 65.8348 111.155 65.8535 111.162C65.763 111.154 65.2774 111.305 64.4252 111.655L63.9317 111.857L64.2502 111.453C64.7191 110.864 65.2253 110.182 65.2598 110.077L65.2774 109.89C65.3217 109.427 65.4269 108.348 65.3335 107.029C65.2185 105.512 64.8823 103.931 64.6247 103.28C64.5599 103.117 63.914 102.395 63.5228 101.978L63.686 101.769C64.2807 102.109 65.0052 102.476 65.1379 102.476C65.1379 102.476 66.1671 102.455 66.8276 102.453C64.4018 100.265 61.4814 98.6984 58.3169 97.8872C57.4208 97.6649 56.5108 97.5034 55.593 97.4036L56.8847 98.826C56.9653 98.9312 57.6907 99.3558 58.3454 99.7058L58.2687 99.9594C57.4528 99.8729 56.5308 99.8159 56.3932 99.865C55.2756 100.277 54.2257 100.854 53.2781 101.575C52.3521 102.29 51.7721 103.03 51.4586 103.43L51.2511 103.682C51.2256 103.732 51.1715 103.976 51.1125 105.034L51.0801 105.565L50.856 105.212C50.7321 105.017 50.0499 104.018 49.929 103.934L48.5401 103.44C48.6305 103.056 48.6757 102.634 48.6354 102.143C50.0155 101.263 50.5178 99.8827 50.7685 96.8748L36.1652 106.828C35.5901 107.747 35.086 108.708 34.6573 109.704L36.5948 108.886C36.7019 108.85 37.0794 108.415 37.3684 108.024C37.4421 108.087 37.5148 108.151 37.5876 108.209C37.4323 108.627 37.2131 109.274 37.2131 109.453V109.459C37.2308 109.904 37.33 111.483 37.9139 113.137C38.2255 114.018 38.6232 114.867 39.1014 115.67L39.2036 115.85C39.2823 115.937 39.9084 116.248 40.7263 116.605L41.144 116.788L40.7037 116.865C40.4078 116.917 39.2478 117.161 39.123 117.243L38.9284 117.445C38.5814 117.791 37.9346 118.436 37.276 119.469C36.755 120.287 36.405 121.229 36.1495 121.916L35.7602 122.845C35.6992 123.011 35.9273 124.189 36.1721 125.182L35.9204 125.272C35.5233 124.435 35.0416 123.508 34.9286 123.416C34.9286 123.416 33.925 122.688 33.3607 122.26C33.8097 124.495 34.6212 126.643 35.7631 128.617C36.8611 130.503 38.2505 132.204 39.8799 133.656L39.6892 131.391C39.6863 131.268 39.411 130.742 39.1584 130.321L39.3638 130.154C39.7059 130.465 40.2593 130.922 40.4156 130.968C41.1372 131.175 43.1955 131.615 44.613 131.558C45.7376 131.515 46.4109 131.249 46.8129 131.086C46.8129 131.086 47.1491 130.971 47.1344 130.975C47.2818 130.908 48.1075 130.02 48.1921 129.917L48.5106 129.558L48.425 130.058C48.2108 131.298 48.2452 131.484 48.2422 131.486L48.3789 131.849C48.5896 132.587 48.9514 133.274 49.4415 133.865C50.337 134.969 51.8635 136.076 52.6214 136.558C52.7728 136.651 53.6211 136.852 54.1195 136.959L54.0969 137.226C53.5454 137.246 52.8898 137.318 52.7954 137.389C52.7954 137.389 51.6217 138.289 51.1027 138.666C55.4976 139.172 59.9362 138.204 63.7214 135.914C63.917 135.797 64.1038 135.667 64.2935 135.544L62.5772 135.145L62.3177 135.06C62.1771 135.032 61.2678 135.237 60.4687 135.453L60.3477 135.217C60.8913 134.772 61.7878 134.009 61.8851 133.86C62.1555 133.437 62.8396 132.27 63.3213 130.512C63.5412 129.736 63.6592 128.935 63.6722 128.129L63.686 127.857C63.6821 127.828 63.6231 127.619 62.9006 126.445L63.0755 126.222C63.9563 126.744 64.3063 126.894 64.3711 126.899L64.4616 126.877C64.9708 126.76 66.518 126.397 67.7998 125.871C68.8437 125.446 69.756 124.872 70.5089 124.167C70.6259 124.055 71.1115 123.069 71.4172 122.402L71.6728 122.477C71.5578 123.302 71.4654 124.237 71.5096 124.374L71.6826 124.746C71.6826 124.746 71.9785 125.524 72.1535 126.021C73.1941 123.474 73.7305 120.75 73.7331 117.998C73.7319 116.471 73.5642 114.949 73.2328 113.458V113.458ZM61.0643 113.972C60.9375 114.504 60.9621 115.259 60.9936 116.132L60.9631 118.94L60.6171 121.196C60.446 122.092 60.3114 122.801 60.4175 123.341C60.4519 123.552 60.9336 124.362 61.2315 124.825L61.0398 125.006C60.6269 124.704 59.9644 124.277 59.7845 124.265C59.2851 124.223 58.4948 124.514 57.5787 124.851L55.0632 125.653L53.0372 126.05C51.9913 126.233 51.1646 126.378 50.6584 126.668C50.3645 126.826 49.643 127.814 49.3903 128.185L49.1485 128.076C49.3294 127.318 49.5054 126.459 49.4896 126.338C49.3284 125.822 48.8291 125.148 48.2501 124.368L46.751 122.176L45.652 119.903C45.2726 119.029 44.9443 118.277 44.558 117.891C44.3899 117.703 43.3626 117.432 42.7561 117.303L42.7532 117.042C43.5976 116.844 44.5354 116.598 44.6474 116.53C45.1851 116.197 45.7326 115.539 46.4905 114.627L47.679 113.227L48.9549 111.837C49.7393 111.005 50.4156 110.29 50.6761 109.694C50.742 109.585 50.9238 108.715 51.0624 107.941L51.1381 107.517L51.318 107.906C51.6355 108.599 52.0159 109.369 52.0926 109.445L53.8256 110.114L56.3824 111.056L58.4024 112.064C59.2488 112.515 59.9152 112.872 60.4411 112.928L60.4549 112.93C60.6525 112.974 61.7416 112.757 62.3806 112.613L62.4789 112.861C61.9225 113.189 61.1155 113.752 61.0643 113.972V113.972Z" fill="white"/>
<path id="Vector_11" fill-rule="evenodd" clip-rule="evenodd" d="M60.1001 123.399C60.0703 123.239 60.0555 123.077 60.0558 122.915C60.0558 122.416 60.1669 121.83 60.3016 121.137L60.6417 118.911L60.6702 116.141C60.6584 115.771 60.6456 115.422 60.6456 115.097C60.6456 114.638 60.6702 114.233 60.7489 113.897C60.8029 113.676 61.1293 113.386 61.4802 113.131C61.031 113.212 60.5759 113.281 60.395 113.248C59.8091 113.184 59.12 112.818 58.2462 112.352L56.2497 111.353L53.7215 110.422L51.9265 109.725C51.8803 109.699 51.7545 109.582 51.2699 108.569C51.1686 109.095 51.0389 109.714 50.9602 109.842C50.686 110.47 50.0244 111.169 49.1859 112.058L47.9179 113.44L46.7353 114.834C45.9578 115.769 45.3965 116.445 44.8165 116.802C44.6888 116.885 44.1019 117.04 43.576 117.171C44.0714 117.303 44.6199 117.479 44.788 117.664C45.2127 118.091 45.5518 118.87 45.945 119.775L47.0273 122.014L48.5067 124.175C49.1034 124.979 49.6184 125.674 49.7944 126.242C49.8027 126.272 49.8064 126.304 49.8052 126.336C49.8052 126.491 49.7433 126.841 49.6519 127.279C49.9438 126.9 50.283 126.503 50.5002 126.386C51.0526 126.07 51.9029 125.921 52.9803 125.731L54.9885 125.338L57.4657 124.545C58.4585 124.182 59.24 123.896 59.8062 123.94C59.9634 123.954 60.2377 124.096 60.509 124.261C60.3134 123.924 60.1276 123.568 60.1001 123.399V123.399ZM67.1983 102.752L65.1694 102.796C65.0504 102.808 64.785 102.704 64.4764 102.554C64.6897 102.804 64.8814 103.046 64.9276 103.161C65.189 103.825 65.5341 105.397 65.6569 107.003C65.6835 107.394 65.6953 107.764 65.6953 108.104C65.6953 108.936 65.6324 109.585 65.6009 109.919C65.6009 109.919 65.5832 110.1 65.5812 110.104C65.5773 110.152 65.5291 110.313 64.9207 111.113C65.7906 110.785 65.8997 110.829 65.9666 110.86L66.2733 110.944C66.7471 111.059 67.6327 111.273 68.6256 111.927C69.9428 112.803 71.3003 114.325 71.5863 114.778C71.6728 114.907 71.8183 115.31 71.9471 115.692C72.0415 115.225 72.1525 114.742 72.239 114.613L73.1916 112.856C72.7069 110.983 71.9687 109.184 70.9975 107.511C69.9727 105.746 68.6924 104.142 67.1983 102.752V102.752ZM71.1823 124.198C71.1823 124.027 71.2049 123.783 71.2285 123.545C71.0329 123.936 70.8334 124.302 70.7331 124.396C69.9516 125.131 69.007 125.727 67.9247 126.168C66.6193 126.7 65.0524 127.068 64.4282 127.212C64.3574 127.23 64.2454 127.244 63.5219 126.843C63.9406 127.56 64.0134 127.759 64.0134 127.838L63.9976 128.132C63.9858 128.571 63.9652 129.391 63.6349 130.589C63.1415 132.394 62.4386 133.598 62.1585 134.03C62.0661 134.172 61.5982 134.582 61.1833 134.938C61.7456 134.8 62.2627 134.698 62.414 134.746L62.6795 134.833C62.6795 134.833 64.1746 135.182 64.2975 135.209C67.6553 133.063 70.3151 129.984 71.952 126.351L71.3956 124.882L71.2148 124.496C71.1873 124.399 71.1764 124.298 71.1823 124.198V124.198ZM49.1928 134.062C48.677 133.439 48.2958 132.716 48.0732 131.939L47.9651 131.641C47.9464 131.609 47.9248 131.57 47.9248 131.424C47.9248 131.283 47.9601 130.985 48.0201 130.576C47.6898 130.912 47.2976 131.263 47.2121 131.282L46.9359 131.383C46.5132 131.55 45.8084 131.832 44.6278 131.876C43.0118 131.941 40.8256 131.417 40.3272 131.275C40.222 131.241 40.0343 131.099 39.8583 130.967C39.9271 131.122 40.0117 131.295 40.0136 131.384L40.2122 133.745C43.2113 136.331 46.9024 137.983 50.8295 138.495L52.5891 137.139C52.6559 137.083 52.8525 137.055 53.0245 137.02C52.7768 136.953 52.5478 136.883 52.4544 136.826C51.6759 136.334 50.1149 135.197 49.1928 134.062ZM38.9265 116.012L38.8232 115.827C38.3344 115.006 37.9277 114.139 37.6093 113.239C37.1924 112.022 36.9508 110.752 36.8917 109.468L36.8907 109.454C36.8907 109.341 36.9448 109.136 37.0086 108.916C36.8976 109.025 36.7757 109.16 36.697 109.187L34.5571 110.091C33.507 112.634 32.965 115.357 32.9617 118.108C32.9617 119.349 33.0777 120.59 33.2988 121.823C33.8995 122.262 34.5011 122.7 35.1036 123.136C35.195 123.196 35.3572 123.455 35.541 123.791C35.4838 123.51 35.4493 123.225 35.4378 122.939C35.4378 122.812 35.4526 122.723 35.483 122.677L35.8477 121.797C36.1092 121.096 36.466 120.137 37.0057 119.289C37.4895 118.533 38.0592 117.835 38.7033 117.21L38.8773 117.031C38.9815 116.9 39.589 116.757 40.0756 116.654C39.069 116.195 38.955 116.067 38.9265 116.012V116.012ZM56.6232 99.0147C56.6232 99.0147 55.3041 97.5648 55.2195 97.4695C53.7129 97.3346 52.1958 97.3689 50.6968 97.5717C50.4245 100.092 49.9006 101.335 48.6345 102.141C48.664 102.499 48.6433 102.818 48.6011 103.12L50.0539 103.634C50.1483 103.674 50.5287 104.166 50.8187 104.58C50.8796 103.724 50.9376 103.543 51.0074 103.469L51.204 103.229C51.5245 102.82 52.1221 102.058 53.0805 101.319C54.0536 100.577 55.1321 99.9851 56.2802 99.5622C56.4335 99.5042 56.9349 99.5259 57.4224 99.5603C57.0577 99.347 56.7058 99.1258 56.6232 99.0147V99.0147Z" fill="#355198"/>
<path id="Vector_12" fill-rule="evenodd" clip-rule="evenodd" d="M60.8108 66.981L59.7334 63.7823L59.472 63.8453L59.9369 66.8748C59.9507 67.2346 59.8504 67.499 59.6283 67.6681C59.01 68.139 57.6662 67.7123 57.6525 67.7094C55.4122 65.9705 52.9489 67.8785 52.9243 67.8981C52.0917 68.1881 51.3554 68.0387 51.3476 68.0377C50.4756 67.961 50.5268 66.8316 50.5287 66.7834L51.3997 63.7745L51.149 63.6791L49.6666 66.7982C49.2489 68.8143 50.8089 69.2763 50.8246 69.2792L53.5131 69.7707C54.3486 69.9949 54.7192 71.143 54.7231 71.1548L55.1802 73.2741L55.4456 73.2682L55.7514 71.4654C55.8241 70.1747 57.0528 69.8671 57.1069 69.8543L59.3324 69.3648C59.9222 69.3176 60.3655 69.0954 60.6299 68.7062C61.1087 68.0023 60.8246 67.0223 60.8108 66.981V66.981Z" fill="#8D784C"/>
<path id="Vector_13" fill-rule="evenodd" clip-rule="evenodd" d="M54.9816 71.086C54.962 71.0211 54.5609 69.7727 53.5828 69.5102L50.8786 69.0158C50.8462 69.006 49.8563 68.7052 49.8563 67.4578C49.8563 67.2848 49.875 67.0931 49.9182 66.8817L50.6889 65.2657L50.2643 66.7382C50.2623 66.7775 50.2613 66.8168 50.2613 66.8562C50.2613 67.3968 50.4776 68.2323 51.3082 68.3031C51.3249 68.3071 52.1064 68.4683 53.052 68.1301C53.1837 68.0358 55.4142 66.3126 57.5286 67.9443C57.6288 67.9856 59.0591 68.4388 59.7904 67.8834C60.0647 67.674 60.2033 67.3545 60.2033 66.9348V66.8503L59.9713 65.3355L60.5552 67.0646C60.5552 67.0665 60.6358 67.3457 60.6358 67.6956C60.6358 67.9728 60.5837 68.2933 60.4058 68.5558C60.1885 68.8742 59.8121 69.0571 59.2921 69.1003L57.0459 69.5918C57.0302 69.5948 55.5655 69.9565 55.483 71.4349L55.2972 72.5388C55.1586 71.9068 54.9816 71.086 54.9816 71.086V71.086Z" fill="#355198"/>
<path id="Vector_14" fill-rule="evenodd" clip-rule="evenodd" d="M71.6984 66.9318C71.8498 66.3971 72.8967 62.6637 72.8967 62.6637L72.7679 62.6273L72.6372 62.5909C72.0975 64.5353 70.8 65.8908 70.2721 66.3853L70.3891 65.4328L70.1316 65.364C69.6283 66.5494 67.3094 66.8945 66.4571 66.9279C65.9371 66.9476 65.9371 66.9476 65.2746 66.3814L64.5678 65.7866C63.1395 64.61 61.3023 64.1342 61.2237 64.1146L61.1185 64.3584C61.9541 64.897 64.3516 68.0053 64.3761 68.0367C64.3801 68.0495 64.5049 68.3021 64.847 68.6186C65.25 71.8035 64.8696 73.9661 63.7166 74.8744C62.538 75.8004 60.9249 75.1428 60.9101 75.1369C55.8949 71.2128 49.7129 75.4416 49.65 75.4848C49.1506 75.7001 48.6886 75.6863 48.261 75.4298C46.4238 74.3298 46.0001 69.2006 45.9962 69.1495L45.7347 69.117C45.3523 70.2386 45.1616 71.2511 45.1616 72.1515C45.1616 73.2053 45.4231 74.1047 45.9431 74.841C47.278 76.7303 49.7679 76.8797 50.1473 76.8925L50.4884 79.3893L51.7732 77.3053L51.9875 75.8014L53.0983 76.9288L53.1858 76.8846C55.2737 75.8367 58.082 76.7195 58.1106 76.7293L58.1833 76.7519L59.4966 75.5664L60.2319 77.1461C60.2899 77.207 61.495 78.075 61.495 78.075L61.6808 78.2087L61.7093 77.9836C61.7093 77.9836 61.8764 76.4786 61.901 76.2466C63.2369 76.5268 64.2661 76.3263 64.9404 75.6166C66.4375 74.0398 65.8064 70.506 65.4722 69.0728C66.0217 69.3991 66.8159 69.7157 68.0044 69.8729C71.0221 70.271 72.8122 66.6271 72.8289 66.5897L73.0117 66.2133C73.0137 66.2152 72.0327 66.75 71.6984 66.9318V66.9318ZM77.2278 99.982C77.6082 98.185 77.852 96.3242 77.8559 94.4261L77.5984 94.3701C77.5777 94.4163 75.7395 98.363 71.3859 100.066C73.3314 99.9638 75.2801 99.9356 77.2278 99.982V99.982Z" fill="#8D784C"/>
<path id="Vector_15" fill-rule="evenodd" clip-rule="evenodd" d="M76.9514 99.976C77.2935 98.3629 77.5177 96.6968 77.5599 95.0001C76.9593 96.0559 75.2637 98.5772 72.1672 100.024C73.8196 99.9573 75.4111 99.9436 76.9514 99.976Z" fill="#355198"/>
<path id="Vector_16" fill-rule="evenodd" clip-rule="evenodd" d="M68.1753 99.4118C77.1411 96.6682 76.5749 90.7801 76.569 90.7202L76.5366 90.44L76.339 90.6415C72.1819 94.9057 68.8191 95.8219 68.7857 95.8288C65.1555 96.2013 63.1433 97.6542 62.0453 98.9508C62.6499 99.2348 63.2397 99.5474 63.8118 99.8915C66.1464 99.1542 68.1487 99.4078 68.1753 99.4118ZM77.9265 79.3873L77.6611 79.4079C77.1539 86.2348 67.5933 89.8148 67.497 89.8522C63.5709 91.999 61.2481 96.1532 60.2858 98.2155C60.4312 98.2676 60.5718 98.3325 60.7163 98.3885C64.8213 92.1396 70.9571 91.7209 71.022 91.7189C73.4392 91.7189 75.0208 91.2579 75.7177 90.3476C76.2132 89.7008 76.052 89.0766 76.0441 89.052C78.883 83.7576 77.9364 79.4305 77.9265 79.3873Z" fill="#8D784C"/>
<path id="Vector_17" fill-rule="evenodd" clip-rule="evenodd" d="M68.1547 99.1504C75.7345 96.8197 76.2909 92.2213 76.3066 91.0446C72.1977 95.1643 68.886 96.0805 68.8319 96.0923C65.3187 96.453 63.3626 97.8302 62.2931 99.0619C62.7158 99.2654 63.1188 99.4993 63.5238 99.7343C66.0058 98.884 68.1694 99.1415 68.1547 99.1504V99.1504ZM75.4996 90.1904C75.0562 90.7664 73.9179 91.4496 71.0152 91.4496C70.9444 91.4555 64.7948 91.9372 60.6132 98.1654C61.5962 96.0923 63.8482 92.1544 67.6071 90.096C67.6858 90.0715 76.6192 86.6615 77.7536 80.1619C77.784 80.4667 77.8165 80.8166 77.8165 81.3022C77.8165 83.0391 77.4783 85.8377 75.7964 89.0226V89.0305C75.7964 89.0786 75.8102 89.171 75.8102 89.2959C75.8112 89.52 75.765 89.8503 75.4996 90.1904V90.1904Z" fill="#355198"/>
<path id="Vector_18" fill-rule="evenodd" clip-rule="evenodd" d="M80.4607 65.5753C80.4607 60.5493 79.3853 53.2575 75.1123 44.1422V44.1412C75.1123 44.1402 75.1123 44.1383 75.1103 44.1363L74.8645 44.2464C74.9393 44.4214 79.4109 55.1065 79.4109 65.1025C79.4109 71.4536 77.6061 77.5275 71.72 80.4499C71.6698 80.4902 70.3683 81.7642 64.5815 83.0352C59.5279 84.1411 56.9771 89.6193 56.0167 91.6826L55.652 92.408C55.65 92.4139 55.6323 92.4424 55.6313 92.4464L55.8564 92.5899C55.8564 92.5899 55.8643 92.5741 55.8663 92.5741H55.8682C55.9027 92.5112 59.4159 86.1542 62.3943 86.0294C62.4268 86.0255 67.5796 84.609 67.5796 84.609C67.6907 84.5913 79.3834 82.7364 79.3834 74.149C79.3834 73.9111 79.3755 73.6693 79.3568 73.4225C79.3725 73.3989 80.4607 70.6328 80.4607 65.5753V65.5753Z" fill="#8D784C"/>
<path id="Vector_19" fill-rule="evenodd" clip-rule="evenodd" d="M57.0704 90.1579C58.3621 87.7044 60.734 84.1529 64.6405 83.2977C70.5404 82.0031 71.8251 80.7173 71.8743 80.6642C77.8509 77.7005 79.6802 71.548 79.6802 65.1231C79.6802 59.0699 78.0602 52.8171 76.7489 48.7209C79.4256 55.7189 80.1933 61.432 80.1933 65.5753C80.1933 70.5827 79.1179 73.3282 79.0973 73.3822C79.113 73.6191 79.1219 73.8521 79.1219 74.0792C79.1219 82.5034 67.6464 84.3268 67.5275 84.3445L62.3491 85.7669C60.4441 85.8456 58.4014 88.2509 57.0704 90.1579V90.1579Z" fill="#355198"/>
<path id="Vector_20" fill-rule="evenodd" clip-rule="evenodd" d="M55.7483 92.5112L55.8849 92.2714C55.8309 92.3795 55.7847 92.466 55.7483 92.5112Z" fill="#8D784C"/>
<path id="Vector_21" fill-rule="evenodd" clip-rule="evenodd" d="M55.884 92.2713L55.7473 92.5112C55.8006 92.4359 55.8463 92.3556 55.884 92.2713V92.2713ZM66.1513 78.3945H66.1572V78.3984H66.1513V78.3945Z" fill="#8D784C"/>
<path id="Vector_22" fill-rule="evenodd" clip-rule="evenodd" d="M74.1754 67.2267C70.4292 76.7087 66.1158 78.1271 66.0736 78.1419L66.0657 78.1438C58.8338 80.8834 56.4413 84.6345 55.6843 86.3725C54.9225 84.6326 52.5201 80.8785 45.299 78.1438C45.2479 78.1271 40.9375 76.7097 37.1972 67.2267L36.9397 67.2995C36.9623 67.4233 39.2537 79.7097 46.2643 81.8094C46.3381 81.8261 52.9005 83.451 55.5457 90.2769C55.5457 90.2769 55.6087 90.2651 55.6726 90.2562L55.8161 90.2769C58.4652 83.451 65.0296 81.8261 65.0945 81.8114C72.1101 79.7088 74.4103 67.4233 74.431 67.2995L74.1754 67.2267V67.2267Z" fill="#8D784C"/>
<path id="Vector_23" fill-rule="evenodd" clip-rule="evenodd" d="M60.4185 79.0177L60.1787 79.1504C59.7196 79.4021 59.0925 79.7481 58.7602 80.1078C58.4162 80.4774 58.021 80.56 58.0171 80.56C56.5849 80.0823 54.6474 80.4155 53.7175 80.5748L53.3095 80.6377L52.6902 80.4951C52.1476 79.9053 50.7282 79.8208 50.6682 79.8179L50.6102 80.0764C51.1922 80.3153 52.1457 81.2894 52.5045 81.831C52.8544 82.3609 53.3695 82.3078 53.5926 82.2065C54.9963 81.8173 56.3656 81.9382 57.272 82.0178L58.1704 82.0522C58.8271 81.9637 59.1249 81.4339 59.1357 81.4123C59.3028 80.5197 60.566 79.2408 60.5797 79.2281L60.4185 79.0177V79.0177Z" fill="#8D784C"/>
<path id="Vector_24" fill-rule="evenodd" clip-rule="evenodd" d="M52.5173 80.6996C52.5556 80.7291 52.88 80.9424 53.3302 80.907L53.7637 80.8402C54.673 80.6849 56.5643 80.3585 58.0024 80.8205C58.0908 80.8205 58.5538 80.7262 58.9588 80.2907C59.1643 80.0656 59.5083 79.8503 59.8514 79.6508C59.4582 80.1246 58.9854 80.7733 58.888 81.3238C58.8939 81.3012 58.6541 81.717 58.1351 81.7868L57.2956 81.7514C56.3706 81.6698 54.9728 81.5469 53.5022 81.9559C53.4383 81.9814 53.0334 82.1426 52.7286 81.6826C52.4524 81.2678 51.838 80.6013 51.2738 80.1727C51.7044 80.2523 52.2401 80.4008 52.5173 80.6996V80.6996ZM68.0426 69.6085C65.2126 69.235 64.61 67.9168 64.6041 67.904C64.5058 67.7703 62.8377 65.6107 61.7879 64.5864C62.4465 64.8184 63.4963 65.2549 64.3967 65.997L65.0976 66.5878C65.8004 67.1864 65.8407 67.2228 66.4689 67.1992C66.4954 67.1982 69.0148 67.0793 70.0548 65.9479L69.9182 67.0419L70.1777 66.8345C70.2377 66.7864 71.2718 65.9213 72.1053 64.494L71.2678 67.4754C71.2678 67.4754 71.9972 67.0763 72.3619 66.8788C71.8213 67.7762 70.2947 69.9054 68.0426 69.6085V69.6085Z" fill="#355198"/>
<path id="Vector_25" fill-rule="evenodd" clip-rule="evenodd" d="M65.0828 68.6324C65.0926 68.7041 65.0985 68.7729 65.1073 68.8427C65.1172 68.8506 65.1319 68.8595 65.1437 68.8673C65.1172 68.7572 65.0936 68.6756 65.0828 68.6324V68.6324Z" fill="#8D784C"/>
<path id="Vector_26" fill-rule="evenodd" clip-rule="evenodd" d="M73.8678 68.5793C73.4622 69.5174 73.0171 70.438 72.5339 71.3386L65.4613 70.448C65.3809 69.9164 65.2753 69.3889 65.1448 68.8674C65.133 68.8595 65.1182 68.8506 65.1084 68.8428C65.1733 69.3903 65.2293 69.926 65.2558 70.4225L60.7439 69.8543C60.681 69.6577 60.5139 69.5132 60.3104 69.5132C60.0529 69.5132 59.8435 69.7403 59.8435 70.0145C59.8435 70.2868 60.0529 70.5168 60.3104 70.5168C60.4058 70.5139 60.4981 70.4818 60.5747 70.4249C60.6513 70.3679 60.7087 70.2889 60.739 70.1983L65.2696 70.6417C65.2735 70.7242 65.2853 70.8196 65.2853 70.8982C65.2853 71.6109 65.2254 72.24 65.1123 72.7944L61.1862 71.2452C61.1862 71.2383 61.1902 71.2324 61.1902 71.2256C61.1902 70.9493 60.9808 70.7252 60.7292 70.7252C60.4696 70.7252 60.2622 70.9493 60.2622 71.2256C60.2622 71.5018 60.4696 71.7259 60.7292 71.7259C60.8438 71.7239 60.9531 71.6765 61.0329 71.5942L65.0632 73.0264C64.8371 73.9524 64.4449 74.6444 63.8826 75.0867C63.8138 75.1408 63.7401 75.1723 63.6693 75.2175L60.3556 72.8033C60.3517 72.531 60.1462 72.3068 59.8907 72.3068C59.6351 72.3068 59.4257 72.5339 59.4257 72.8101C59.4257 73.0864 59.6351 73.3124 59.8907 73.3124C59.9674 73.3101 60.0423 73.2882 60.1082 73.2488C60.1741 73.2094 60.2288 73.1539 60.2671 73.0873L63.5002 75.3197C62.2675 75.9714 60.8658 75.4111 60.7744 75.3669C55.8879 71.548 49.8651 75.6628 49.7816 75.7178C49.182 75.9803 48.6236 75.9616 48.1233 75.6598C48.0663 75.6264 48.0201 75.5664 47.965 75.5261L52.0739 72.9143C52.1484 72.9756 52.241 73.0105 52.3374 73.0136C52.59 73.0136 52.7994 72.7885 52.7994 72.5133C52.7994 72.2341 52.59 72.009 52.3374 72.009C52.0818 72.009 51.8695 72.2341 51.8695 72.5133C51.8695 72.528 51.8763 72.5398 51.8773 72.5546L47.7832 75.3738C47.4077 75.0287 47.0951 74.5481 46.8415 73.9868L50.7253 71.7357C50.7664 71.7824 50.8168 71.82 50.8734 71.8459C50.93 71.8718 50.9914 71.8855 51.0536 71.8861C51.3121 71.8861 51.5225 71.661 51.5225 71.3819C51.5225 71.1056 51.3121 70.8815 51.0536 70.8815C50.8324 70.8815 50.6525 71.0565 50.6093 71.2865L46.7343 73.7568C46.4943 73.1531 46.3029 72.5312 46.1622 71.8969L50.3989 70.0587C50.4333 70.0676 50.4677 70.0823 50.5041 70.0823C50.7587 70.0823 50.97 69.8582 50.97 69.581C50.9681 69.4754 50.9334 69.3731 50.8707 69.2881L50.8226 69.2792C50.6914 69.2307 50.5658 69.168 50.4481 69.0925C50.3322 69.1109 50.2269 69.1706 50.1516 69.2606C50.0763 69.3506 50.036 69.4647 50.0381 69.582C50.0381 69.6361 50.0529 69.6842 50.0667 69.7334L46.1062 71.6463C45.9812 71.0635 45.8802 70.4758 45.8034 69.8848C45.596 70.6308 45.4702 71.3298 45.4476 71.9648L40.6614 74.2777C39.6528 72.8809 38.5696 71.0398 37.504 68.5813C38.3081 71.7996 40.8462 79.9063 46.3333 81.5499C46.3991 81.5656 52.9203 83.2023 55.6815 89.9476C58.4447 83.2013 64.9678 81.5656 65.0258 81.5519C66.5101 81.1076 67.7713 80.1826 68.8487 79.0187L69.5191 79.4817L68.8624 79.003C69.868 77.9138 70.7055 76.6173 71.3946 75.2794L71.4369 75.2942L71.3966 75.2774C72.0348 74.027 72.5808 72.7315 73.0303 71.4015L73.0627 71.4045L73.0303 71.4005C73.4068 70.2986 73.686 69.3097 73.8678 68.5793ZM40.6663 74.2807L45.4358 72.2125C45.4436 72.9949 45.6088 73.6821 45.9224 74.2738L42.4976 76.457C41.8291 75.7825 41.2166 75.0547 40.6663 74.2807V74.2807ZM42.5271 76.4875L46.0295 74.4576C46.0747 74.5333 46.1111 74.6139 46.1622 74.6857C46.4719 75.1261 46.8601 75.4632 47.272 75.7267L44.1805 77.8548C43.5854 77.455 43.0315 76.997 42.5271 76.4875V76.4875ZM66.1592 78.3955L66.1513 78.3984C58.656 81.2393 56.4237 85.1811 55.8103 86.746L55.6854 87.0645L55.5606 86.746C54.9403 85.1791 52.6932 81.2304 45.2107 78.3984C45.1615 78.3837 44.8027 78.2549 44.2395 77.8932L47.4647 75.8436C48.775 76.5976 50.2465 76.634 50.2672 76.634L50.3832 76.6359L50.6535 78.6137L51.5254 77.2179L51.7967 75.2244C51.7967 75.2244 53.0589 76.5072 53.1641 76.6123C55.2274 75.6382 57.7635 76.344 58.1173 76.4521L59.5879 75.1241L59.6646 75.2892L60.4175 76.9711L61.4713 77.7271L61.6689 75.9311L61.8163 75.9655C62.8131 76.2005 63.6192 76.1503 64.2276 75.824L67.1746 77.8598C66.5907 78.2402 66.2142 78.3778 66.1553 78.3955H66.1592V78.3955ZM67.2385 77.8195L64.3623 75.7237C64.497 75.6362 64.6346 75.5517 64.7486 75.4328C65.2578 74.8941 65.4976 74.0861 65.5802 73.2122L70.2573 74.8734C69.0492 76.4246 67.9817 77.324 67.2385 77.8195V77.8195ZM70.2858 74.838L65.592 72.9851C65.6058 72.7944 65.6205 72.6037 65.6205 72.4101C65.6205 71.8026 65.5645 71.2049 65.4898 70.6643L72.526 71.3533C71.7544 72.7836 70.9975 73.9199 70.2858 74.838Z" fill="#355198"/>
<path id="Vector_27" fill-rule="evenodd" clip-rule="evenodd" d="M73.739 56.7127C73.3203 56.6734 72.5624 57.1482 72.18 57.4077C72.1938 57.2052 72.2046 56.9987 72.2046 56.8159C72.2046 55.1134 71.7819 54.2483 71.7475 54.1795L71.7416 54.1677L71.4959 54.2808C72.066 55.6855 70.5089 60.0647 70.4922 60.1089C70.2268 61.2148 68.5842 62.6077 68.5685 62.6214C67.4911 63.5317 63.6555 62.5615 63.6172 62.5517C63.0146 62.2017 62.413 62.1083 61.8684 62.2872C60.972 62.5831 60.5552 63.5052 60.5375 63.5445L60.4451 63.7509L60.6702 63.7322C62.2135 63.6035 62.7472 64.1441 62.7531 64.15C64.5255 65.42 66.4698 65.4348 66.5524 65.4348C70.9562 65.7592 71.8841 60.1384 71.894 60.0814C72.4661 58.4093 73.8118 56.9525 73.8255 56.9378L74.0113 56.7382L73.739 56.7127V56.7127Z" fill="#8D784C"/>
<path id="Vector_28" fill-rule="evenodd" clip-rule="evenodd" d="M66.5622 65.1665C66.5337 65.1665 64.608 65.1497 62.93 63.9495C62.9261 63.9417 62.3904 63.3922 60.8972 63.4541C61.0604 63.1877 61.4025 62.7227 61.9549 62.5419C62.4258 62.3885 62.9517 62.475 63.5179 62.7974C63.7135 62.8535 67.5589 63.8257 68.7415 62.8269C68.8103 62.768 70.4696 61.3633 70.7517 60.1847C70.7979 60.0559 71.6924 57.5227 71.8536 55.6541C71.9018 55.9893 71.9342 56.3726 71.9342 56.8307C71.9342 57.0892 71.9264 57.3664 71.9018 57.6633L71.8792 57.9572L72.1171 57.7822C72.4912 57.5113 72.8969 57.2868 73.3252 57.1138C72.8818 57.6525 72.0679 58.7475 71.6354 60.0176C71.6197 60.0942 70.7291 65.4731 66.5622 65.1665Z" fill="#355198"/>
<path id="Vector_29" fill-rule="evenodd" clip-rule="evenodd" d="M69.5731 55.2077C69.5731 55.2077 69.5446 55.246 69.5289 55.2627C69.4688 54.9724 69.4392 54.6765 69.4404 54.38C69.4404 53.9829 69.4965 53.574 69.6744 53.3459C69.7127 53.2909 70.4785 52.1467 70.5247 51.1106L70.5453 50.6456L70.2799 51.027C70.1433 51.2226 69.7304 51.7613 69.4581 51.9039L69.1259 52.1358C69.1416 52.1073 69.1662 52.0552 69.1662 52.0552C69.3579 51.7043 69.6036 51.258 69.6036 50.8874C69.6075 50.7561 69.5685 50.627 69.4925 50.5198C69.5102 50.5464 69.005 48.4123 70.5316 46.8346L70.7999 46.5554L70.4156 46.6075C70.3654 46.6144 69.3559 46.7933 68.7759 47.4234L68.7415 46.461L68.484 46.408L68.0711 47.2769C67.7772 46.9339 66.9407 46.0315 66.0727 45.8742L65.7749 45.8201L65.9341 46.0767C65.938 46.0836 66.3715 46.7913 66.4158 47.3467C66.3873 47.5168 65.6382 52.2106 60.7479 52.2548L60.7036 52.5163C60.7439 52.53 64.5432 53.7656 66.6625 50.738C66.7372 50.8501 66.8316 50.971 66.8316 51.0536C66.8313 51.0616 66.83 51.0695 66.8276 51.0772L66.7244 51.5991L68.0259 50.0293C68.1006 50.4323 68.2274 51.2207 68.2274 51.9599C68.2274 52.4239 68.1773 52.8613 68.0298 53.1582C67.9938 53.3268 67.977 53.4989 67.9797 53.6713C67.9797 54.093 68.0721 54.6975 68.5037 55.191C68.4958 55.1812 69.2291 56.5131 68.7297 57.5472C68.4339 58.1645 67.7526 58.5636 66.7077 58.7347C66.6871 58.7386 64.7211 59.0925 63.8934 58.83C63.8993 58.831 62.1978 57.9276 61.2266 59.3903C61.1922 59.4827 60.7469 60.8835 60.8402 61.4615L60.9209 61.9481L61.0998 61.488C61.1263 61.4192 61.7702 59.8169 63.7263 60.331C63.8335 60.3822 66.8689 61.7574 68.7061 60.8009C69.3834 60.448 69.81 59.8209 69.9693 58.9372C70.0342 57.9984 70.2691 55.4829 70.5935 54.9384L70.8432 54.5196L69.5731 55.2077V55.2077Z" fill="#8D784C"/>
<path id="Vector_30" fill-rule="evenodd" clip-rule="evenodd" d="M68.5862 60.5621C66.866 61.4576 63.8521 60.0922 63.8206 60.0784C62.3285 59.6862 61.5381 60.393 61.1558 60.914C61.2226 60.4117 61.3818 59.7875 61.4723 59.5063C62.2901 58.2835 63.7302 59.0443 63.7912 59.0777C64.7053 59.3697 66.6772 59.0168 66.7598 59.0011C67.8922 58.8163 68.6393 58.3661 68.9774 57.6642C69.5358 56.5023 68.7582 55.0956 68.7258 55.0377C68.079 54.2945 68.2824 53.2565 68.2844 53.2466C68.7916 52.2381 68.2598 49.8013 68.2382 49.698L68.1782 49.4307L67.0222 50.8245C66.9622 50.6811 66.8849 50.5454 66.7922 50.4205L66.6733 50.2849L66.577 50.4353C65.1162 52.7207 62.6912 52.6303 61.5028 52.4239C65.9144 51.8921 66.6792 47.4067 66.6841 47.3575C66.6576 46.9643 66.4846 46.5574 66.344 46.2753C67.1835 46.6223 67.9915 47.5944 68.0013 47.6062L68.134 47.7753L68.4928 47.0204L68.537 48.2442L68.771 47.8166C69.0531 47.3045 69.6979 47.0676 70.102 46.9594C69.4893 47.7341 69.1557 48.6927 69.1553 49.6803C69.1553 50.223 69.2458 50.5965 69.2556 50.6339C69.3038 50.7046 69.3244 50.7911 69.3244 50.8865C69.3244 51.2109 69.0885 51.6434 68.9312 51.9275C68.8024 52.1604 68.7258 52.302 68.7258 52.4062C68.7258 52.4465 68.7376 52.4809 68.7621 52.5133L68.8388 52.6136L68.9735 52.5664L69.3824 52.2872L69.5918 52.1408C69.7727 52.0464 69.9811 51.8311 70.1541 51.6286C69.9486 52.4278 69.463 53.1818 69.4571 53.1916C69.2359 53.4727 69.1652 53.9455 69.1652 54.3987C69.1652 54.9561 69.2703 55.4839 69.3362 55.594L69.4227 55.7385L69.6085 55.5459L69.7333 55.4279L70.2209 55.1645C69.8926 56.2556 69.7156 58.7858 69.7068 58.9077C69.5652 59.6852 69.1868 60.2495 68.5862 60.5621V60.5621Z" fill="#355198"/>
<path id="Vector_31" fill-rule="evenodd" clip-rule="evenodd" d="M76.3047 63.3715L76.8227 63.285L76.7205 63.1159C76.2791 62.3747 74.7604 62.2744 74.6945 62.2705C74.2374 62.3256 73.9779 62.4769 73.8993 62.7246C73.744 63.2201 74.4252 63.8551 74.5038 63.9268L74.5264 63.9436C74.6572 64.0183 74.7299 64.1087 74.7496 64.2217C74.7879 64.4439 74.609 64.7123 74.5382 64.7968C74.5137 64.7811 74.3446 64.8292 74.3652 64.9728C74.3849 65.1114 74.5441 65.1114 74.6395 65.1114C74.9413 65.1114 75.1811 64.9138 75.2863 64.8184C76.2673 65.1723 77.3633 67.8834 77.7074 68.9224L77.8607 69.3834L77.9659 68.9096C78.0446 68.5626 78.079 68.2176 78.079 67.8794C78.0819 65.6746 76.6802 63.8315 76.3047 63.3715V63.3715Z" fill="#8D784C"/>
<path id="Vector_32" fill-rule="evenodd" clip-rule="evenodd" d="M77.7674 68.2894C77.3624 67.2022 76.3656 64.8263 75.3178 64.5245L75.243 64.5029L75.185 64.5599C75.0926 64.6404 74.9898 64.7082 74.8793 64.7614C74.9683 64.6189 75.0184 64.4555 75.0248 64.2876C75.0255 64.251 75.0222 64.2144 75.015 64.1785C74.9826 63.9849 74.8636 63.8286 74.6621 63.7116L74.6847 63.7283C74.439 63.5052 74.0762 63.0579 74.1568 62.8072C74.2109 62.6352 74.4832 62.5664 74.7044 62.5399C74.7044 62.5418 75.8063 62.6411 76.3076 63.0992L75.7965 63.1837L75.9557 63.3656C75.9764 63.3892 77.8106 65.5095 77.8106 67.8991C77.8116 68.0279 77.7792 68.1596 77.7674 68.2894Z" fill="#355198"/>
<path id="Vector_33" fill-rule="evenodd" clip-rule="evenodd" d="M79.5397 62.8613L79.4915 62.5349C79.3588 61.6296 77.2591 59.9231 76.5809 59.3943L77.2473 59.2104L77.0193 59.0463C75.7542 58.137 74.2512 58.7219 74.1853 58.7465C73.7587 58.9008 73.5287 59.1131 73.511 59.3766C73.4746 59.9064 74.3446 60.3743 74.4439 60.4254L74.4616 60.4352L74.4822 60.4382C75.4367 60.6073 75.4495 61.4202 75.4495 61.4546L75.4514 61.7505L75.6746 61.5559C75.9105 61.3484 75.9527 60.9956 75.9527 60.7685C75.9527 60.7586 75.9527 60.7606 75.9508 60.7508C77.1274 61.0398 79.2546 62.644 79.2762 62.6617L79.5397 62.8613V62.8613Z" fill="#8D784C"/>
<path id="Vector_34" fill-rule="evenodd" clip-rule="evenodd" d="M74.5687 60.1886L74.5284 60.1748C74.5441 60.1768 74.551 60.1836 74.5648 60.1856C74.2502 60.0215 73.7607 59.6617 73.7774 59.3943C73.7912 59.2115 74.0575 59.0788 74.2807 58.9982C74.2984 58.9913 75.4809 58.5706 76.5593 59.121L75.9872 59.2783L76.2044 59.4425C76.8768 59.9497 78.4024 61.2276 78.9637 62.1005C78.2058 61.5618 76.7156 60.5719 75.8269 60.4392L75.648 60.4127L75.6726 60.5916C75.6785 60.6329 75.6844 60.6948 75.6844 60.7666C75.6844 60.8452 75.6244 60.9199 75.6077 61.0094C75.4848 60.6928 75.2145 60.3154 74.5648 60.1866L74.5687 60.1886V60.1886Z" fill="#355198"/>
<path id="Vector_35" fill-rule="evenodd" clip-rule="evenodd" d="M74.5687 60.1885L74.5647 60.1866C74.551 60.1846 74.5441 60.1777 74.5284 60.1757L74.5687 60.1885V60.1885ZM73.7705 55.8899C73.7587 55.8879 73.7508 55.8811 73.74 55.8791L73.7705 55.8899Z" fill="#8D784C"/>
<path id="Vector_36" fill-rule="evenodd" clip-rule="evenodd" d="M78.603 57.4056L78.4703 57.0508C77.8844 55.4819 75.8997 54.8096 75.4505 54.6739C76.0128 53.9347 76.172 53.2928 76.172 52.9045C76.1757 52.7616 76.1568 52.6189 76.116 52.4819L76.0393 52.2518L75.886 52.4396C74.6091 53.9996 73.4845 54.0782 73.4727 54.0782C72.9046 54.3436 72.6411 54.6425 72.6411 54.9796C72.6372 55.6205 73.6104 56.1101 73.6507 56.1307L73.6664 56.1386L73.6841 56.1425C74.437 56.2998 74.5324 57.0085 74.5363 57.039L74.5825 57.4145L74.784 57.094C74.9295 56.863 74.9698 56.5632 74.9698 56.3017C74.9698 56.1376 74.9541 55.996 74.9394 55.8899C76.059 55.9272 78.253 57.2002 78.2766 57.2149L78.603 57.4056V57.4056Z" fill="#8D784C"/>
<path id="Vector_37" fill-rule="evenodd" clip-rule="evenodd" d="M73.7704 55.8899C73.5306 55.77 72.9083 55.3749 72.9083 54.9807C72.9103 54.7546 73.1216 54.5364 73.5384 54.3329C73.5365 54.3427 74.6236 54.2365 75.8927 52.8122C75.8986 52.8554 75.9045 52.8495 75.9045 52.9056C75.9045 53.2713 75.7855 53.9033 75.1496 54.6622L75.0129 54.8234L75.2164 54.8784C75.237 54.8843 77.0821 55.4555 77.9137 56.7068C77.1303 56.289 75.6155 55.5479 74.7672 55.6137L74.6118 55.6255L74.6463 55.7769C74.6482 55.7818 74.7023 56.0226 74.7023 56.3077C74.7023 56.3932 74.6581 56.4699 74.6463 56.5574C74.5587 56.3883 74.4347 56.2407 74.2833 56.1253C74.1318 56.0099 73.9567 55.9295 73.7704 55.8899V55.8899Z" fill="#355198"/>
<path id="Vector_38" fill-rule="evenodd" clip-rule="evenodd" d="M76.3695 41.5176C76.3695 39.5811 75.6548 38.1331 75.6401 38.1027C75.3501 37.4971 74.8527 37.0823 74.1636 36.8739C70.906 35.8909 64.3514 39.7659 64.0742 39.931C61.889 39.2272 59.9024 39.6656 59.8179 39.6853L59.8385 39.9507C66.977 40.4441 69.2959 45.7877 69.3195 45.8418L69.4001 46.0315L69.5406 45.8821C70.4676 44.901 71.0997 42.2568 71.1262 42.1457L70.8883 42.0317C70.6347 42.3551 70.3182 42.5369 69.9417 42.5723C69.1101 42.6519 68.2372 42.0376 67.9295 41.7997L72.4434 38.6404C72.8749 38.2727 73.2514 38.1548 73.5719 38.2816C74.5853 38.6836 74.8793 41.2758 74.8832 41.3023C75.8504 44.67 70.214 47.6593 70.1579 47.6898L69.9505 47.7969L70.1737 47.9336C70.4499 48.1105 71.5872 50.8884 72.5142 53.4127L72.6793 53.861L72.7737 53.3931C72.8366 53.0756 72.8622 52.7394 72.8622 52.3963C72.8622 50.5955 72.1446 48.6698 72.0247 48.3621C75.5094 46.2939 76.3695 43.6202 76.3695 41.5176V41.5176Z" fill="#8D784C"/>
<path id="Vector_39" fill-rule="evenodd" clip-rule="evenodd" d="M71.7986 48.199L71.6964 48.257L71.7406 48.3651C71.7504 48.3897 72.5929 50.5355 72.5929 52.4091C72.5929 52.533 72.5683 52.645 72.5604 52.765C71.8831 50.9445 70.9208 48.4919 70.4293 47.8461C71.1626 47.446 75.2695 45.0721 75.2695 42.1221C75.2695 41.8361 75.2312 41.5451 75.1447 41.2492C75.1388 41.1588 74.836 38.4929 73.6702 38.0309C73.2495 37.8648 72.7816 37.9985 72.2803 38.4271L67.4882 41.782L67.617 41.8951C67.6671 41.9373 68.8378 42.9469 69.9653 42.8397C70.2651 42.8112 70.5197 42.6795 70.7547 42.5016C70.5551 43.2359 70.0734 44.7398 69.461 45.5164C68.9892 44.5835 66.6084 40.6624 60.8579 39.8416C61.9515 39.7504 63.0525 39.8634 64.1047 40.1748C64.2797 40.1217 70.9434 36.1819 74.088 37.1305C74.7004 37.3163 75.1417 37.6829 75.4013 38.2206C75.4612 38.3396 76.1365 39.7138 76.1365 41.5363C76.1356 43.575 75.2902 46.1721 71.7986 48.199V48.199Z" fill="#355198"/>
<path id="Vector_40" fill-rule="evenodd" clip-rule="evenodd" d="M72.1534 36.4011C66.9849 28.1538 59.6852 30.9613 59.6144 30.9907C57.1363 31.5157 54.724 30.052 54.7014 30.0372C52.358 27.6614 50.0853 29.1978 50.0627 29.2135C48.4643 29.7482 40.4628 35.9794 40.1227 36.2448L40.28 36.4631C46.7205 32.1408 50.0863 31.6808 51.776 32.0573C52.4936 32.2165 52.8613 32.5203 53.0274 32.6962C49.7894 33.5652 45.0907 35.9283 45.0425 35.9519L45.0484 35.9598C45.0406 35.9666 45.014 35.9706 45.0072 35.9775L45.1635 36.1917L45.4151 36.0669C46.3195 35.7003 49.8445 35.544 52.5605 35.5223C51.3937 36.0718 49.3608 37.2711 49.2537 37.335L49.2596 37.3428C49.2527 37.3487 49.2321 37.3497 49.2262 37.3566L49.3903 37.566L49.4444 37.5355C49.8317 37.216 52.2489 37.5031 53.9465 37.794C52.7679 38.4084 51.3465 39.4936 51.2806 39.5447L51.4015 39.7797C56.8493 38.1666 59.4394 39.4808 59.465 39.4936L59.6341 39.2901C59.6262 39.2793 59.6016 39.2675 59.5898 39.2567L59.5918 39.2557L59.5879 39.2538C59.177 38.7839 58.0505 38.2393 57.2916 37.9061L58.8428 37.9965L58.9175 37.7468C58.9175 37.7468 57.9148 37.157 57.5452 36.9378C59.5191 36.2625 65.0405 36.6134 65.0985 36.6174L65.5703 36.6498L65.184 36.3746C63.2426 34.9905 59.4473 34.6602 58.1173 34.5855C60.8068 32.8132 67.845 35.0751 67.9207 35.0996L68.0553 34.8745C66.2909 33.1838 62.3432 32.4977 60.1413 32.2342C68.3296 31.6847 71.8988 36.5073 71.9352 36.5594L72.1603 36.411L72.1534 36.4011V36.4011Z" fill="#8D784C"/>
<path id="Vector_41" fill-rule="evenodd" clip-rule="evenodd" d="M58.5547 32.0819L58.5665 32.3492C58.6294 32.3532 64.4507 32.7424 67.2217 34.6023C65.1467 34.0046 59.5751 32.6412 57.5304 34.5954L57.2965 34.8185L57.6189 34.8264C57.6671 34.8274 62.1151 34.9787 64.5382 36.3146C62.989 36.235 58.6461 36.0807 57.1579 36.7747L56.9279 36.8828L58.306 37.6938L56.5435 37.5915L56.4855 37.851C56.5052 37.8579 57.9118 38.4202 58.8044 38.9756C57.7251 38.6886 55.4603 38.4526 51.9588 39.3786C52.5663 38.9343 53.6004 38.2128 54.4114 37.8491L54.8046 37.6721L54.38 37.5945C53.797 37.4873 51.4506 37.0814 50.1128 37.1462C51.2216 36.5083 52.8593 35.6 53.2918 35.5135L53.2652 35.2471C52.6823 35.2471 48.6835 35.2599 46.4502 35.5695C48.1203 34.7812 51.086 33.4571 53.2977 32.8948L53.4707 32.8506L53.3803 32.6972C53.3645 32.6707 52.9939 32.0583 51.8576 31.7978C50.3507 31.4528 47.5433 31.7653 42.5723 34.7025C45.1516 32.7464 49.121 29.8082 50.1806 29.4494C50.2996 29.3737 52.3275 28.0133 54.5323 30.2447C54.6611 30.3272 57.0822 31.8007 59.6891 31.2453C59.7756 31.2129 65.9901 28.8488 70.9247 35.138C69.1022 33.5475 65.1594 31.1284 58.5547 32.0819V32.0819Z" fill="#355198"/>
<path id="Vector_42" fill-rule="evenodd" clip-rule="evenodd" d="M45.1045 36.0718C45.1605 36.0148 45.2765 35.9647 45.4171 35.9165C45.2225 36.0119 45.1045 36.0718 45.1045 36.0718ZM49.4759 37.3595C49.4195 37.3787 49.3676 37.4091 49.3235 37.449L49.4759 37.3595Z" fill="#8D784C"/>
<path id="Vector_43" fill-rule="evenodd" clip-rule="evenodd" d="M45.4171 35.9165C45.2766 35.9647 45.1606 36.0158 45.1045 36.0718C45.1045 36.0718 45.2225 36.0119 45.4171 35.9165ZM46.6793 39.9192C46.5102 39.7669 39.9566 35.8929 36.699 36.8749C36.0089 37.0833 35.5115 37.4972 35.2206 38.1056C35.2048 38.1341 34.4941 39.5801 34.4941 41.5156C34.4941 43.6182 35.3533 46.2939 38.839 48.3621C38.719 48.6708 37.9985 50.5985 37.9985 52.3993C37.9985 52.7414 38.025 53.0776 38.088 53.3931L38.1813 53.862L38.3455 53.4128C39.2744 50.8884 40.4117 48.1095 40.688 47.9336L40.8836 47.8087L40.7047 47.6888C40.6467 47.6583 35.0102 44.6691 35.9726 41.3239C35.9794 41.2758 36.2763 38.6826 37.2907 38.2806C37.6102 38.1538 37.9867 38.2717 38.4064 38.6315L42.9282 41.7997C42.6235 42.0366 41.7516 42.65 40.9209 42.5713C40.5444 42.5369 40.224 42.3541 39.9694 42.0307L39.7335 42.1447C39.759 42.2568 40.3921 44.9001 41.321 45.8811L41.4635 46.0305L41.5432 45.8408C41.5658 45.7867 43.8856 40.4432 51.0221 39.9497L51.0428 39.6843C50.9592 39.6666 48.9726 39.2272 46.6793 39.9192V39.9192Z" fill="#8D784C"/>
<path id="Vector_44" fill-rule="evenodd" clip-rule="evenodd" d="M40.104 42.5016C40.339 42.6805 40.5955 42.8122 40.8963 42.8397C42.0238 42.9449 43.1916 41.9383 43.2407 41.8951L43.3695 41.782L38.5706 38.4192C38.0791 37.9975 37.6102 37.8648 37.1914 38.0309C36.0266 38.492 35.7218 41.1588 35.7091 41.2718C35.6255 41.5638 35.5862 41.8518 35.5862 42.1349C35.5862 45.0711 39.698 47.445 40.4304 47.8461C39.9399 48.4919 38.9775 50.9445 38.2983 52.765C38.2904 52.646 38.2668 52.535 38.2668 52.4131C38.2668 50.5395 39.1112 48.3907 39.122 48.3651L39.1643 48.257L39.064 48.199C35.5695 46.1721 34.7251 43.573 34.7251 41.5353C34.7251 39.7138 35.3994 38.3406 35.4594 38.2236C35.7189 37.683 36.1603 37.3163 36.7746 37.1305C39.9192 36.1829 46.58 40.1217 46.6468 40.1621C47.7383 39.857 48.8753 39.7485 50.0047 39.8416C44.2522 40.6624 41.8724 44.5845 41.3996 45.5164C40.7872 44.7408 40.3055 43.2349 40.104 42.5016V42.5016Z" fill="#355198"/>
<path id="Vector_45" fill-rule="evenodd" clip-rule="evenodd" d="M66.9298 44.8745L67.1146 44.6828C62.2665 38.4969 56.1612 42.475 55.8446 42.6903C48.7877 39.8642 43.7008 46.0885 43.6497 46.1514L43.8168 46.3539C51.4005 42.3178 54.61 44.441 54.6424 44.4626C54.9806 44.6769 55.0759 44.9541 55.0759 45.1969C55.0759 45.4161 55.0091 45.5724 54.9649 45.6639C51.5529 44.5924 49.0836 44.6121 47.6377 45.7415C46.2654 46.814 46.3568 48.4703 46.3617 48.5401L46.3824 48.8497L46.5947 48.6236C50.0755 44.9011 53.0097 46.9427 53.1326 47.0322C54.2119 47.7291 54.4311 48.4084 54.4311 48.8478C54.4311 49.0493 54.3928 49.1741 54.3603 49.2518C52.5782 48.6905 51.2079 48.7288 50.3173 49.41C49.1642 50.2908 49.234 51.8695 49.238 51.9373L49.2557 52.2597L49.4719 52.0199C51.6571 49.6056 53.5749 50.3743 54.2158 50.742C53.1444 51.0172 52.3246 51.9373 52.2872 51.9815L51.9677 52.3639L52.4366 52.1939C53.2938 51.8832 53.973 52.3433 54.0782 52.418C54.0264 52.6256 54.001 52.839 54.0025 53.053C54.0025 53.5936 54.0802 54.1648 54.0841 54.2001L54.3525 54.1815C54.3525 53.7234 54.9668 52.9046 55.2647 52.5517C55.8614 52.7168 57.1727 53.8089 57.6475 54.2355L57.9335 54.4931L57.8706 54.1136C57.6366 52.7109 56.9741 52.2302 56.5711 52.0513C57.0203 51.9058 57.9129 51.9638 58.4909 52.0621L58.8457 52.1231L58.6177 51.8449C58.0279 51.1273 56.6802 50.9376 56.3027 50.8953L56.405 50.4451C58.1861 49.0758 60.218 49.9762 60.2386 49.9851C60.6171 50.7194 61.0447 51.1126 61.4536 51.0978C61.8841 51.0811 62.0984 50.627 62.1083 50.6083C61.5686 49.2911 60.7852 48.5342 59.7855 48.2491C58.2707 47.8176 56.7215 48.5725 56.1336 48.9097C56.1966 48.5126 56.3617 47.4961 56.3617 47.4961C59.3755 44.3231 64.8439 46.7913 64.898 46.8169L65.3315 47.0174L65.0661 46.6203C62.3471 42.5635 57.4499 44.8018 56.3538 45.3729C56.5386 44.7939 56.9741 44.1117 56.98 44.1029C61.026 40.6604 66.8718 44.8322 66.9298 44.8745V44.8745Z" fill="#8D784C"/>
<path id="Vector_46" fill-rule="evenodd" clip-rule="evenodd" d="M56.0029 45.6206L55.9646 45.8978L56.2044 45.7543C56.2605 45.7219 61.5087 42.7119 64.495 46.3736C63.0588 45.8408 58.7661 44.5786 56.1297 47.3831L55.8191 49.1545L55.7709 49.4602L56.0285 49.2872C56.0481 49.2744 57.9601 48.0073 59.7108 48.5086C60.6249 48.7711 61.3425 49.473 61.8498 50.5887C61.8094 50.5936 61.665 50.8226 61.4428 50.8305C61.1509 50.8393 60.7842 50.4736 60.4116 49.7993C60.3271 49.7325 58.1517 48.7613 56.1897 50.3115L56.0049 50.9828L55.9705 51.1342L56.1258 51.147C56.1396 51.148 57.2877 51.2709 58.019 51.7329C57.4047 51.668 56.4423 51.6277 56.1258 51.9786L55.9567 52.1683L56.2103 52.2017C56.2506 52.2067 57.0763 52.3993 57.4656 53.7234C56.8994 53.2418 55.8063 52.3639 55.246 52.2578L55.1713 52.243L55.1192 52.301C55.0907 52.3354 54.5835 52.9292 54.2915 53.5131C54.2817 53.3577 54.2709 53.1995 54.2709 53.0422C54.2709 52.7807 54.2886 52.5379 54.3417 52.3895L54.3761 52.2981L54.2994 52.2381C53.8541 51.9401 53.3186 51.807 52.7856 51.8616C53.1414 51.5245 53.7892 51.0035 54.5501 50.916L54.8764 50.8786L54.6169 50.6761C54.5923 50.6565 52.2105 48.8989 49.5191 51.608C49.5545 51.1342 49.7157 50.2043 50.4795 49.6214C51.319 48.9805 52.6381 48.95 54.3997 49.529L54.5048 49.5634L54.5589 49.4661C54.5687 49.4523 55.2824 48.1017 53.282 46.8071C53.2564 46.7874 50.1856 44.676 46.6429 48.2147C46.6773 47.7213 46.8572 46.6872 47.8038 45.9489C49.1928 44.8657 51.6129 44.8657 54.9963 45.948L55.0986 45.9804L55.1546 45.888C55.3659 45.5322 55.5635 44.7281 54.7879 44.2366C54.6651 44.1491 51.5883 42.1595 44.3191 45.8153C45.6746 44.4214 50.0666 40.6103 55.8093 42.9567L55.8781 42.9842L55.938 42.942C56.174 42.7758 61.5293 39.1958 66.1769 44.0911C64.3397 43.0481 60.0411 41.1401 56.7775 43.923C56.7274 43.9957 56.0973 44.9542 56.0029 45.6206V45.6206Z" fill="#355198"/>
<path id="Vector_47" fill-rule="evenodd" clip-rule="evenodd" d="M46.9319 58.8408C46.1307 59.0925 44.1628 58.7396 44.1421 58.7357C43.0972 58.5646 42.417 58.1655 42.1191 57.5492C42.0008 57.293 41.9416 57.0135 41.9461 56.7313C41.9461 55.9233 42.357 55.1772 42.3619 55.1684C42.7876 54.6857 42.8751 54.0832 42.8751 53.6703C42.8751 53.399 42.8367 53.2103 42.8338 53.1916C42.6804 52.88 42.6273 52.4249 42.6273 51.9481C42.6273 51.2079 42.7532 50.4294 42.8259 50.0313L44.1323 51.606L44.0222 51.0792C44.021 51.0713 44.0204 51.0635 44.0202 51.0556C44.0202 50.972 44.1126 50.8511 44.1883 50.739C46.3057 53.7657 50.1079 52.531 50.1472 52.5173L50.1049 52.2558C45.2116 52.2116 44.4645 47.5178 44.4351 47.3182C44.4783 46.7913 44.9128 46.0846 44.9177 46.0777L45.0769 45.8211L44.7791 45.8752C43.9121 46.0325 43.0746 46.9349 42.7807 47.2779L42.3668 46.409L42.1113 46.462L42.0778 47.4244C41.4969 46.7953 40.4854 46.6154 40.4362 46.6085L40.0499 46.5544L40.3212 46.8346C41.2384 47.7822 41.4232 48.9303 41.4232 49.701C41.4232 50.2141 41.3416 50.5592 41.3386 50.568C41.2705 50.6602 41.2358 50.7729 41.2403 50.8875C41.2403 51.2423 41.492 51.7004 41.6905 52.0582L41.7289 52.1359L41.4015 51.9068C41.1243 51.7613 40.7105 51.2227 40.5739 51.0271L40.3075 50.6466L40.3281 51.1106C40.3753 52.1467 41.142 53.2909 41.1735 53.3381C41.3553 53.57 41.4114 53.9859 41.4114 54.3889C41.4114 54.7634 41.3652 55.0681 41.3239 55.2628L41.2787 55.2077L39.9939 54.5127L40.2554 54.9374C40.5807 55.482 40.8147 57.9974 40.8776 58.9214C41.0398 59.8199 41.4664 60.448 42.1447 60.8009C43.9819 61.7564 47.0154 60.3822 47.1432 60.3222C49.0777 59.817 49.7235 61.4192 49.7491 61.488L49.927 61.9471L50.0076 61.4615C50.103 60.8835 49.6557 59.4827 49.6361 59.4238C48.6501 57.9276 46.9495 58.831 46.9319 58.8408V58.8408Z" fill="#8D784C"/>
<path id="Vector_48" fill-rule="evenodd" clip-rule="evenodd" d="M47.0547 60.0706C47.0026 60.0922 43.9897 61.4586 42.2695 60.5621C41.6689 60.2495 41.2895 59.6862 41.145 58.888C41.1381 58.7799 40.9631 56.2526 40.6318 55.1615L41.1204 55.425L41.3691 55.6619L41.5165 55.5911C41.5794 55.4859 41.6817 54.96 41.6817 54.4036C41.6817 53.9436 41.6119 53.4619 41.3917 53.1808C41.3897 53.1779 40.9041 52.4239 40.6997 51.6247C40.8737 51.8282 41.086 52.0454 41.2708 52.1428C41.2619 52.1378 41.4202 52.2499 41.4202 52.2499L41.9943 52.6382L42.0935 52.5124C42.1174 52.4822 42.1302 52.4447 42.1299 52.4062C42.1299 52.303 42.0523 52.1614 41.9245 51.9294C41.7633 51.6385 41.5175 51.1922 41.5175 50.8885C41.5139 50.815 41.5347 50.7425 41.5765 50.682C41.5952 50.625 41.6925 50.2279 41.6925 49.6637C41.6925 48.9195 41.492 47.8903 40.7508 46.9604C41.1548 47.0686 41.7986 47.3064 42.0817 47.8186L42.3167 48.2442L42.359 47.0214L42.7187 47.7763L42.8524 47.6072C42.8613 47.5954 43.6673 46.6252 44.5058 46.2773C44.3662 46.5564 44.1962 46.9545 44.1677 47.33C44.1755 47.4067 44.9383 51.8931 49.351 52.4259C48.1635 52.6313 45.7365 52.7227 44.2758 50.4373L44.1785 50.2869L44.0605 50.4225C44.0212 50.4677 43.9081 50.6398 43.8295 50.8275L42.6804 49.4415L42.6145 49.701C42.5919 49.8042 42.0621 52.2411 42.5791 53.282C42.5703 53.2594 42.7738 54.2975 42.1417 55.018C42.0916 55.0996 41.315 56.5063 41.8743 57.6681C42.2115 58.369 42.9586 58.8192 44.0939 59.004C44.1745 59.0198 46.1464 59.3727 47.0341 59.0905C47.1186 59.0473 48.5606 58.2865 49.3942 59.5437C49.4729 59.8003 49.6282 60.4166 49.696 60.916C49.3185 60.392 48.5321 59.6833 47.0547 60.0706Z" fill="#355198"/>
<path id="Vector_49" fill-rule="evenodd" clip-rule="evenodd" d="M58.2323 9.34236C56.6635 9.13298 55.5773 10.1641 54.9285 10.7805C54.7388 10.9594 54.5058 11.1786 54.4272 11.1835L54.4291 11.1825C54.4264 11.1682 54.4218 11.1543 54.4154 11.1412C54.2325 10.5632 54.1411 10.0678 54.1411 9.6579C54.1411 9.12807 54.2925 8.73979 54.5962 8.49699C56.3008 7.12179 62.1918 10.4581 62.2508 10.4915L62.4159 10.2841C59.2232 6.84262 55.5733 6.80133 55.537 6.80133C52.8465 6.8436 51.1922 7.43831 50.6171 8.57071C49.9477 9.89087 51.0083 11.4145 51.0536 11.4784C51.0791 11.5049 54.7702 14.6289 54.7702 14.6289L54.8371 14.6869L54.9197 14.6485C58.6 12.7858 61.9756 15.0761 62.01 15.0997L62.3845 15.3602L62.2095 14.9385C61.14 12.3503 57.1717 12.6334 56.169 12.7474C56.5298 12.0849 57.0085 11.6494 57.6376 11.5393C60.0931 11.1108 63.7872 14.9297 63.8236 14.968L64.0369 14.8048C61.9795 11.4194 60.0273 9.58221 58.2323 9.34236V9.34236Z" fill="#8D784C"/>
<path id="Vector_50" fill-rule="evenodd" clip-rule="evenodd" d="M57.5924 11.272C56.7883 11.4125 56.1759 11.9453 55.7689 12.8575L55.6706 13.0816L55.9124 13.0443C55.9586 13.0374 60.1078 12.4928 61.6049 14.5689C60.5069 13.9958 57.8224 12.9381 54.8872 14.3743C54.7702 14.274 51.2471 11.2946 51.2471 11.2946C51.2629 11.3073 50.2592 9.86431 50.8569 8.69062C51.3828 7.65455 52.9585 7.10997 55.5379 7.06967C55.5684 7.06967 58.5832 7.14241 61.4899 9.78273C59.7313 8.88329 55.8682 7.12767 54.4261 8.28858C53.7951 8.79679 53.7046 9.78371 54.1578 11.2238C54.1961 11.3476 54.2649 11.4243 54.3593 11.4489C54.5588 11.501 54.7662 11.3034 55.1123 10.9771C55.7266 10.3941 56.7539 9.41804 58.1979 9.6107C59.7107 9.81418 61.3729 11.3152 63.1286 13.9398C61.8526 12.7995 59.4551 10.9456 57.5924 11.272V11.272Z" fill="#355198"/>
<path id="Vector_51" fill-rule="evenodd" clip-rule="evenodd" d="M58.0957 18.5854C58.0977 18.6267 58.1075 18.6582 58.1095 18.7004C58.1095 18.7004 58.1075 18.6552 58.0957 18.5854Z" fill="#8D784C"/>
<path id="Vector_52" fill-rule="evenodd" clip-rule="evenodd" d="M58.2441 18.6935C58.1773 17.4107 57.7467 16.4906 56.9633 15.9579C55.5271 14.9818 53.4521 15.66 53.3636 15.6895C51.7987 16.7413 49.1505 17.1551 49.1239 17.1601L49.1161 17.161L49.1652 17.4255L49.1741 17.4245C54.2935 16.3186 56.4413 16.9418 57.3437 17.6594C57.9178 18.1175 57.9581 18.5667 57.964 18.6532C57.964 18.6749 57.9758 18.6876 57.9758 18.7083L58.2441 18.7014V18.6935V18.6935Z" fill="#8D784C"/>
<path id="Vector_53" fill-rule="evenodd" clip-rule="evenodd" d="M51.9205 16.6882C52.473 16.4818 53.0185 16.241 53.4815 15.9284C53.4687 15.9382 55.4888 15.2796 56.8129 16.181C57.3083 16.5191 57.5904 17.0991 57.7713 17.7872C57.6809 17.6732 57.6641 17.5729 57.5216 17.4589C56.7696 16.8514 55.187 16.3098 51.9205 16.6882V16.6882Z" fill="#355198"/>
<path id="Vector_54" fill-rule="evenodd" clip-rule="evenodd" d="M58.0957 18.5854C58.1075 18.6552 58.1095 18.7004 58.1095 18.7004C58.1075 18.6582 58.0977 18.6257 58.0957 18.5854Z" fill="#8D784C"/>
<path id="Vector_55" fill-rule="evenodd" clip-rule="evenodd" d="M56.406 15.3248L56.4306 15.5903C56.4729 15.5912 60.4756 15.7682 60.914 17.3616C60.9386 17.453 60.9523 17.5474 60.9523 17.6457C60.9523 18.6238 59.701 19.9518 57.333 21.5108C57.156 20.8984 56.7107 19.9361 55.5105 19.2126C53.4561 17.975 50.1178 17.9484 45.5892 19.1339L45.6393 19.3984C45.7042 19.3905 52.19 18.6562 53.4728 20.6143C53.6143 20.8306 53.6851 21.0763 53.6851 21.3496C53.6851 21.6976 53.5249 22.1065 53.2958 22.54C52.2607 21.733 45.9234 17.4402 34.7114 23.2163L34.7026 23.2192L34.6967 23.2222L34.8136 23.465C34.9001 23.4247 43.4128 19.6362 48.3681 23.6508C47.5915 23.9427 44.9955 25.0112 42.9449 26.933L43.1002 27.1492C43.1474 27.1247 47.8481 24.623 53.7126 24.2828C54.0911 24.1619 62.2007 21.442 63.6949 17.5071C63.691 17.3881 62.6785 13.8543 56.406 15.3248V15.3248Z" fill="#8D784C"/>
<path id="Vector_56" fill-rule="evenodd" clip-rule="evenodd" d="M43.9121 26.4651C46.1475 24.6888 48.6728 23.8228 48.7023 23.8139L48.9254 23.7402L48.7475 23.5859C45.4397 20.7136 40.5022 21.4292 37.448 22.2756C47.7979 18.0802 53.2152 22.8113 53.2722 22.8644L53.3951 22.9764L53.4786 22.8329C54.0301 21.8824 54.1067 21.0871 53.6998 20.4659C52.7846 19.069 49.6273 18.9295 47.5355 18.9983C51.0172 18.3092 53.6831 18.4232 55.3748 19.4426C56.6055 20.1847 57.0046 21.211 57.1334 21.7565L57.1776 21.9423L57.3369 21.8381C59.9192 20.1631 61.2226 18.7545 61.2226 17.6447C61.2226 17.5218 61.2049 17.4039 61.1744 17.2888C60.8265 16.0267 58.7012 15.5745 57.4194 15.4123C62.5497 14.5551 63.4078 17.3645 63.4422 17.4933C61.9982 21.2267 53.7489 23.9928 53.6654 24.0204C49.3019 24.27 45.5763 25.718 43.9121 26.4651Z" fill="#355198"/>
<path id="Vector_57" fill-rule="evenodd" clip-rule="evenodd" d="M39.8523 25.0014C38.3955 23.0403 33.3429 23.7107 33.1296 23.7402L33.1444 24.0076C39.2468 24.1668 39.5692 27.6142 39.58 27.7597L39.6184 28.2826L39.8366 27.8068C40.3674 26.6469 40.3733 25.7023 39.8523 25.0014Z" fill="#8D784C"/>
<path id="Vector_58" fill-rule="evenodd" clip-rule="evenodd" d="M39.9694 26.2203C39.9694 26.5083 39.8298 26.8622 39.7177 27.2033C39.412 26.2694 38.3042 24.4126 34.6661 23.8945C36.2841 23.8375 38.7455 23.9614 39.6371 25.1616C39.8583 25.4604 39.9694 25.8143 39.9694 26.2203Z" fill="#355198"/>
<path id="Vector_59" fill-rule="evenodd" clip-rule="evenodd" d="M40.1187 28.199C40.104 28.2 38.6069 28.3023 36.8759 28.6453C36.7491 28.3612 36.0501 26.9428 34.3643 26.3107C32.9547 25.7828 31.2846 25.9952 29.3982 26.9438L29.4906 27.1944C29.5172 27.1875 32.1909 26.5496 33.6163 27.7773C34.212 28.2905 34.5127 29.066 34.5127 30.0864C34.5127 30.2191 34.5029 30.3597 34.4921 30.5002C33.9436 30.4737 30.0018 30.3911 27.8029 33.578L28.0063 33.751C28.0201 33.7382 29.3403 32.4918 30.6889 32.822C31.6149 33.0481 32.3541 33.9584 32.8859 35.5253L33.0501 36.0089L33.1454 35.5076C33.1533 35.4653 34.0163 31.2709 40.1817 28.4536L40.1187 28.199V28.199Z" fill="#8D784C"/>
<path id="Vector_60" fill-rule="evenodd" clip-rule="evenodd" d="M30.752 32.5616C29.9666 32.3699 29.2254 32.6461 28.6788 32.9538C31.0213 30.5219 34.5709 30.7706 34.6102 30.7735L34.7429 30.7843L34.7557 30.6526C34.8835 29.2705 34.5591 28.2354 33.7923 27.5749C32.8369 26.7531 31.4774 26.7128 30.518 26.7924C31.9178 26.2724 33.1878 26.1574 34.2681 26.5624C35.9864 27.2053 36.6705 28.8301 36.6774 28.8469L36.7197 28.9491L36.8288 28.9275C37.7058 28.7517 38.5909 28.6188 39.4809 28.5293C34.7301 30.9121 33.3274 34.0518 32.9942 35.0869C32.4398 33.6586 31.6937 32.7906 30.752 32.5616V32.5616Z" fill="#355198"/>
<path id="Vector_61" fill-rule="evenodd" clip-rule="evenodd" d="M32.9331 36.7255L32.7021 36.6695C32.6078 36.6469 30.3538 36.1298 28.0015 38.3239L28.1627 38.5372C28.1745 38.5303 29.302 37.8628 30.4363 38.1961C31.1205 38.3966 31.6749 38.9205 32.0838 39.7521L32.3394 39.6892C32.3207 39.0523 32.36 37.3065 32.766 36.8956L32.9331 36.7255V36.7255Z" fill="#8D784C"/>
<path id="Vector_62" fill-rule="evenodd" clip-rule="evenodd" d="M32.0681 39.2744C31.6513 38.6099 31.1461 38.1243 30.5101 37.9376C29.9311 37.7675 29.3796 37.8344 28.9343 37.9513C30.5396 36.8248 31.9934 36.8435 32.4711 36.9044C32.1408 37.4628 32.073 38.6257 32.0681 39.2744V39.2744Z" fill="#355198"/>
<path id="Vector_63" fill-rule="evenodd" clip-rule="evenodd" d="M32.6323 42.8338L32.6048 42.7119L32.4809 42.7306C28.8291 43.286 28.9726 46.9958 28.9736 47.0332L28.9933 47.4195L29.2174 47.1059C29.9075 46.1396 30.6595 45.6383 31.4527 45.6137C32.6952 45.5774 33.6448 46.7373 33.6536 46.7481L33.8788 46.6046C33.1779 45.1881 32.6382 42.8574 32.6323 42.8338V42.8338Z" fill="#8D784C"/>
<path id="Vector_64" fill-rule="evenodd" clip-rule="evenodd" d="M29.2499 46.696C29.2941 45.8428 29.6755 43.516 32.4033 43.0294C32.4829 43.3627 32.8604 44.845 33.3902 46.1278C32.9646 45.7631 32.2932 45.3218 31.4459 45.3464C30.6585 45.368 29.9262 45.8634 29.2499 46.696V46.696Z" fill="#355198"/>
<path id="Vector_65" fill-rule="evenodd" clip-rule="evenodd" d="M34.8137 47.6868C30.7579 46.8985 28.9029 50.5169 28.4301 51.6394C27.8983 50.3075 27.6005 49.0502 27.6005 47.9001C27.6005 46.9014 27.801 45.9755 28.2021 45.1261C29.5881 42.1929 32.943 41.1893 32.9765 41.1785L33.3146 41.0802L32.9971 40.9278C31.0793 40.0077 29.4259 39.9183 28.0822 40.6585C26.2744 41.6542 25.4841 43.865 25.1538 45.2176C25.1499 45.0514 25.1332 44.8686 25.1332 44.7074C25.1332 35.8801 31.3821 34.9709 31.4489 34.963L31.9679 34.8962L31.4813 34.7045C28.1303 33.3843 25.9117 35.9725 25.1106 37.1521C25.5844 32.4918 29.4829 27.6446 29.5242 27.5935L29.3364 27.4038C16.4858 37.8206 29.6923 58.023 29.827 58.2265L30.1091 58.6501L30.0727 58.1419C29.5812 51.1755 34.8038 47.966 34.8569 47.9346L35.1587 47.7537L34.8137 47.6868V47.6868Z" fill="#8D784C"/>
<path id="Vector_66" fill-rule="evenodd" clip-rule="evenodd" d="M29.7718 57.2248C29.7718 57.3664 29.7826 57.5138 29.7876 57.6573C28.6473 55.8093 23.9879 47.7576 23.9879 39.7207C23.9879 35.7219 25.1705 31.7427 28.4959 28.5372C27.22 30.3597 24.8864 34.156 24.7625 37.7518L25.0171 37.8176C25.1066 37.6446 27.1718 33.8611 30.8325 34.8451C29.2646 35.2913 24.8647 37.1964 24.8647 44.7035C24.8647 45.2294 24.8864 45.7838 24.9326 46.3657L25.1999 46.3706C25.2049 46.3293 25.7082 42.2745 28.2128 40.8944C29.3973 40.2417 30.862 40.3154 32.5498 41.0467C31.6503 41.3849 29.1388 42.5173 27.9602 45.0092C27.5365 45.9136 27.3212 46.9015 27.3301 47.9002C27.3301 49.1859 27.6515 50.5827 28.2934 52.0808L28.434 52.4081L28.5441 52.07C28.6099 51.8705 30.165 47.3546 34.4125 47.9169C32.9593 48.992 31.7811 50.3958 30.9746 52.0136C30.168 53.6314 29.7558 55.4172 29.7718 57.2248V57.2248Z" fill="#355198"/>
<path id="Vector_67" fill-rule="evenodd" clip-rule="evenodd" d="M52.5939 58.429C52.5782 58.4201 51.0113 57.4607 52.0139 54.0822L51.7711 53.9731L51.1155 55.2942C50.854 54.7536 50.0519 53.4885 48.1429 53.4511C48.1134 53.4501 44.7841 53.2506 44.5727 51.5461L44.3063 51.5431C44.2811 51.719 44.2683 51.8963 44.268 52.074C44.268 52.2017 44.2955 52.3364 44.3161 52.4691C43.9446 52.0975 43.4432 51.4537 43.1051 50.3311L42.9527 49.8278L42.8446 50.3419C42.8308 50.4048 42.5222 51.9078 42.9409 53.168C43.0412 53.4256 43.2565 54.1992 42.9793 54.4479C42.9409 54.501 41.8606 56.4512 44.0979 57.7429L44.2699 57.5413C44.1476 57.3476 44.0395 57.1452 43.9465 56.9358C44.0969 57.0263 44.2572 57.1226 44.5098 57.1619L44.8991 57.2209L44.6278 56.9358C44.6179 56.925 43.6674 55.9175 43.6674 54.9413C43.6674 54.8774 43.6713 54.8136 43.6811 54.7497C43.7332 54.3683 43.9751 54.0547 44.3525 53.7952L44.6848 54.4292C44.6848 54.4901 45.02 56.8513 46.7825 57.849C47.8412 58.4467 49.1829 58.4034 50.7655 57.7468C50.8609 57.9876 51.03 58.2579 51.2384 58.4044C50.9867 58.6393 50.2672 59.4759 50.2672 61.5441C50.2672 62.2361 50.3517 63.0618 50.567 64.0419L50.8324 64.0134C50.8324 63.974 50.854 60.0617 52.6116 58.6502L52.764 58.5273L52.5939 58.429V58.429ZM46.9486 56.9722C45.6972 56.235 45.4328 54.4901 45.3758 53.923C45.652 54.0911 46.0462 54.2729 46.6075 54.4754C46.3991 54.732 46.2241 55.0131 46.2241 55.3296C46.2241 56.1632 46.9909 56.8415 47.9336 56.8415C48.8517 56.8415 49.5899 56.1947 49.6292 55.3916L50.1286 55.5193C50.1109 55.5862 50.0765 55.6471 50.0765 55.7199C50.0765 56.1062 50.2741 56.4964 50.3763 56.6832C48.9588 57.3674 47.8018 57.4745 46.9486 56.9722V56.9722ZM48.372 55.6412C48.1203 55.6412 47.9149 55.4348 47.9149 55.1802C47.9149 54.9256 48.1203 54.7182 48.372 54.7182C48.4907 54.7237 48.6027 54.7747 48.6848 54.8606C48.7669 54.9466 48.8127 55.0609 48.8127 55.1797C48.8127 55.2986 48.7669 55.4128 48.6848 55.4988C48.6027 55.5847 48.4907 55.6357 48.372 55.6412V55.6412Z" fill="#8D784C"/>
<path id="Vector_68" fill-rule="evenodd" clip-rule="evenodd" d="M50.6387 62.8623C50.5768 62.3914 50.5404 61.953 50.5404 61.5716C50.5404 59.2773 51.4969 58.5243 51.5087 58.5155L51.8026 58.2953L51.4074 58.2746C51.3248 58.2697 51.1125 57.9463 50.9602 57.5354L50.911 57.4017L50.7803 57.4588C49.2242 58.1341 47.9237 58.1862 46.9151 57.617C45.2667 56.6851 44.9393 54.3731 44.9354 54.3496L44.4449 53.398L44.322 53.4708C43.7883 53.7873 43.4825 54.206 43.4128 54.7152C43.4021 54.7911 43.3969 54.8677 43.397 54.9443C43.397 55.654 43.8118 56.3214 44.1176 56.7294C43.9934 56.6632 43.8767 56.5838 43.7696 56.4925L43.5287 56.5947C43.5641 56.8051 43.6585 56.9791 43.743 57.1521C43.1316 56.636 42.9419 56.0688 42.9419 55.5999C42.9419 55.0573 43.166 54.6504 43.1847 54.616C43.341 54.4793 43.3931 54.2611 43.3931 54.0291C43.3931 53.6104 43.2221 53.1533 43.1935 53.0776C43.0392 52.6126 42.992 52.1034 42.992 51.6542C42.992 51.3475 43.0176 51.0909 43.0422 50.8757C43.6693 52.476 44.6031 53.0825 44.6474 53.1071L44.6484 53.1051C44.6513 53.1061 44.6503 53.109 44.6523 53.11L44.7791 52.8731L44.7732 52.8682C44.6267 52.7925 44.5737 52.532 44.554 52.2499C45.3945 53.5553 48.0053 53.7136 48.1321 53.7204C50.3399 53.7637 50.9562 55.5724 50.9808 55.6481L51.083 55.9597L51.4988 55.1202C51.4391 55.4634 51.4072 55.8109 51.4035 56.1592C51.4035 57.7065 52.0582 58.3572 52.3275 58.5646C51.1705 59.6095 50.7724 61.5913 50.6387 62.8623V62.8623ZM50.3989 55.4957L50.5031 55.3385L49.3638 55.0475L49.3746 55.3306C49.3746 56.0157 48.7278 56.5741 47.9335 56.5741C47.1393 56.5741 46.4934 56.0167 46.4934 55.3306C46.4934 55.0239 46.6281 54.728 46.8709 54.497L47.0311 54.3456L46.8237 54.2729C46.0658 54.0075 45.539 53.7647 45.3011 53.573L45.0711 53.3872L45.0829 53.6831C45.0868 53.7883 45.2038 56.2566 46.8119 57.2042C47.7753 57.7714 49.0571 57.6613 50.621 56.8749L50.7498 56.81L50.6761 56.6861C50.4814 56.3578 50.2337 55.7454 50.3989 55.4957V55.4957ZM48.3719 54.4488C48.1789 54.4496 47.9941 54.527 47.8581 54.6639C47.7221 54.8009 47.646 54.9862 47.6465 55.1792C47.6465 55.5812 47.9719 55.9096 48.3719 55.9096C48.5656 55.9096 48.7514 55.8326 48.8884 55.6957C49.0254 55.5587 49.1023 55.3729 49.1023 55.1792C49.1023 54.9855 49.0254 54.7997 48.8884 54.6628C48.7514 54.5258 48.5656 54.4488 48.3719 54.4488V54.4488Z" fill="#355198"/>
<path id="Vector_69" fill-rule="evenodd" clip-rule="evenodd" d="M67.905 54.4813L67.8932 54.4626L67.8774 54.4479C67.5993 54.2002 67.8165 53.4256 67.9118 53.1749C68.3306 51.9078 68.0229 50.4058 68.0082 50.3419L67.901 49.8278L67.7497 50.3311C67.4115 51.4517 66.9102 52.0956 66.5406 52.4672C66.5612 52.3354 66.5887 52.2027 66.5887 52.0759C66.5887 51.8154 66.5583 51.5962 66.5504 51.5431L66.284 51.5461C66.0727 53.2506 62.7433 53.4492 62.7108 53.4511C60.8029 53.4885 60.0017 54.7536 59.7412 55.2942L59.0846 53.9721L58.8408 54.0812C59.8444 57.4598 58.2805 58.4192 58.2648 58.428L58.0957 58.5273L58.2471 58.6502C60.0017 60.0627 60.0234 63.974 60.0234 64.0134L60.2888 64.0419C60.506 63.0618 60.5905 62.2361 60.5905 61.5441C60.5905 59.4759 59.871 58.6393 59.6193 58.4054C59.8307 58.2589 59.9978 57.9876 60.0912 57.7478C61.6748 58.4054 63.0175 58.4477 64.0772 57.849C65.8417 56.8503 66.1739 54.4852 66.1867 54.385L66.5052 53.7952C66.8817 54.0547 67.1235 54.3683 67.1756 54.7497C67.1854 54.8126 67.1894 54.8765 67.1894 54.9413C67.1894 55.9165 66.2408 56.926 66.229 56.9358L65.9586 57.2209L66.3479 57.1619C66.6015 57.1226 66.7608 57.0263 66.9102 56.9358C66.8182 57.1455 66.7104 57.348 66.5878 57.5413L66.7608 57.7429C68.9951 56.4512 67.9158 54.501 67.905 54.4813V54.4813ZM63.9052 56.9722C63.0529 57.4745 61.895 57.3674 60.4804 56.6842C60.5827 56.4974 60.7803 56.1072 60.7803 55.7209C60.7803 55.6471 60.7458 55.5872 60.7262 55.5203L61.2236 55.3925C61.2639 56.1956 62.0011 56.8424 62.9212 56.8424C63.8639 56.8424 64.6316 56.1642 64.6316 55.3306C64.6316 55.0151 64.4566 54.7329 64.2473 54.4764C64.8076 54.2739 65.2017 54.0911 65.478 53.9239C65.4219 54.4892 65.1575 56.2359 63.9052 56.9722ZM63.5257 55.5272C63.4044 55.5264 63.2884 55.4776 63.2031 55.3913C63.1177 55.3051 63.0701 55.1885 63.0706 55.0672C63.0706 54.8126 63.2741 54.6052 63.5257 54.6052C63.648 54.6052 63.7653 54.6537 63.8517 54.7402C63.9382 54.8266 63.9868 54.9439 63.9868 55.0662C63.9868 55.1885 63.9382 55.3057 63.8517 55.3922C63.7653 55.4786 63.648 55.5272 63.5257 55.5272V55.5272Z" fill="#8D784C"/>
<path id="Vector_70" fill-rule="evenodd" clip-rule="evenodd" d="M67.325 56.5937L67.0851 56.4915C66.9778 56.5829 66.8608 56.6624 66.7362 56.7284C67.0419 56.3195 67.4557 55.653 67.4557 54.9423C67.4557 54.8656 67.4498 54.7899 67.44 54.7142C67.3692 54.2051 67.0655 53.7873 66.5317 53.4708L66.4108 53.398L65.9331 54.3043C65.9134 54.3732 65.5871 56.6842 63.9406 57.616C62.931 58.1862 61.6305 58.1331 60.0735 57.4588L59.9427 57.4017L59.8946 57.5354C59.7432 57.9463 59.5299 58.2707 59.4473 58.2746L59.0767 58.2943L59.3451 58.5155C59.3588 58.5243 60.3123 59.2773 60.3123 61.5706C60.3123 61.953 60.276 62.3914 60.214 62.8623C60.0813 61.5922 59.6822 59.6095 58.5262 58.5636C58.7946 58.3562 59.4483 57.7055 59.4483 56.1602C59.4483 55.8506 59.4158 55.4997 59.352 55.1163L59.7628 55.943L59.872 55.6481C59.8965 55.5714 60.5129 53.7637 62.7177 53.7204C62.8485 53.7136 65.4612 53.5553 66.3007 52.2489C66.2811 52.531 66.228 52.7925 66.0795 52.8682L66.0737 52.8731L66.2005 53.111C66.2024 53.11 66.2024 53.1061 66.2044 53.1051L66.2063 53.1071C66.2506 53.0835 67.1834 52.476 67.8116 50.8757C67.8342 51.0919 67.8597 51.3485 67.8597 51.6552C67.8597 52.1054 67.8135 52.6175 67.6582 53.0845C67.6337 53.1533 67.4685 53.5917 67.4685 54.0104C67.4685 54.2562 67.5245 54.495 67.6985 54.6484L67.67 54.615C67.6897 54.6484 67.9138 55.0563 67.9138 55.5989C67.9138 56.0688 67.7221 56.635 67.1117 57.1521C67.1943 56.9791 67.2906 56.8041 67.325 56.5937V56.5937ZM65.5546 53.572C65.3148 53.7657 64.7889 54.0075 64.0339 54.2729L63.8246 54.3456L63.9858 54.497C63.9956 54.5068 63.9995 54.5196 64.0084 54.5295C64.0903 54.6018 64.1545 54.6919 64.1961 54.7929C64.2925 54.962 64.3613 55.1409 64.3613 55.3306C64.3613 56.0157 63.7145 56.5741 62.9192 56.5741C62.122 56.5741 61.4772 56.0167 61.4772 55.3306V55.1576L61.3238 55.0907L60.3526 55.3375L60.4559 55.4957C60.621 55.7454 60.3733 56.3568 60.1777 56.6842L60.1049 56.808L60.2337 56.8729C61.7967 57.6593 63.0795 57.7694 64.0428 57.2022C65.65 56.2546 65.7689 53.7863 65.7729 53.6811L65.7847 53.3872L65.5546 53.572V53.572ZM64.1971 54.7929C64.1469 54.6969 64.0837 54.6083 64.0094 54.5295C63.8778 54.4072 63.7053 54.3385 63.5257 54.3368C63.333 54.3378 63.1485 54.4153 63.0129 54.5523C62.8772 54.6892 62.8015 54.8744 62.8023 55.0671C62.8023 55.4692 63.1266 55.7965 63.5257 55.7965C63.6449 55.7958 63.762 55.7659 63.8669 55.7095C63.9718 55.653 64.0613 55.5717 64.1275 55.4727C64.1937 55.3737 64.2347 55.26 64.2469 55.1415C64.259 55.0229 64.2419 54.9033 64.1971 54.7929V54.7929Z" fill="#355198"/>
<path id="Vector_71" fill-rule="evenodd" clip-rule="evenodd" d="M64.0095 54.5294C64.0882 54.609 64.1462 54.6995 64.1973 54.7929C64.1554 54.692 64.0912 54.6019 64.0095 54.5294ZM43.0354 81.1439C39.8024 79.7746 34.4883 76.3616 33.2655 68.5783C33.699 67.384 34.6781 65.1398 35.5667 64.8194C35.6719 64.9137 35.9127 65.1123 36.2145 65.1123C36.3098 65.1123 36.4691 65.1123 36.4887 64.9737C36.5094 64.8302 36.3423 64.782 36.2518 64.7555C36.244 64.7122 36.0641 64.4439 36.1034 64.2227C36.1231 64.1096 36.1958 64.0182 36.3275 63.9435L36.3511 63.9268C36.4297 63.856 37.111 63.22 36.9537 62.7246C36.876 62.4779 36.6175 62.3255 36.186 62.2715C36.0975 62.2744 34.5778 62.3747 34.1345 63.1158L34.0332 63.2849L34.5532 63.3714C34.2544 63.7361 33.3225 64.9737 32.9431 66.5661L32.773 66.5652C32.7642 66.6802 31.9493 78.1448 38.0153 80.9296C38.0271 80.9355 39.8211 81.8566 43.1062 82.8612C46.2931 83.8383 48.9226 85.3285 51.8981 87.843L52.076 87.6415C52.0219 87.5933 46.7423 82.7137 43.0354 81.1439V81.1439Z" fill="#8D784C"/>
<path id="Vector_72" fill-rule="evenodd" clip-rule="evenodd" d="M35.6697 64.5589L35.6137 64.5019L35.537 64.5235C34.4901 64.8253 33.4924 67.2022 33.0854 68.2894C33.0746 68.1596 33.0432 68.0289 33.0432 67.9001C33.0432 65.5095 34.8784 63.3882 34.8991 63.3646L35.0593 63.1827L34.5472 63.0982C35.0534 62.6372 36.1642 62.5399 36.177 62.5389C36.3706 62.5654 36.6429 62.6342 36.696 62.8053C36.7756 63.0569 36.4148 63.5042 36.1691 63.7273L36.1927 63.7106C35.9902 63.8266 35.8703 63.9839 35.8368 64.1775C35.831 64.2136 35.828 64.2501 35.828 64.2866C35.828 64.4636 35.8958 64.6317 35.9656 64.7575C35.8588 64.7044 35.7594 64.6376 35.6697 64.5589V64.5589ZM42.9301 81.3907C39.702 80.0233 34.4872 76.5888 33.1287 68.9647L33.0294 69.2635C33.169 72.7944 34.0232 78.8025 38.1311 80.6878C38.1488 80.6977 39.9241 81.6079 43.1827 82.6057C45.2657 83.2436 47.1127 84.1372 48.9706 85.3482C47.1619 83.8934 44.8381 82.1987 42.9301 81.3907Z" fill="#355198"/>
<path id="Vector_73" fill-rule="evenodd" clip-rule="evenodd" d="M36.9181 58.8998C36.8611 58.8733 35.4004 58.1891 34.0744 59.0148L33.8365 59.1623L34.4882 59.3903C33.7785 59.873 31.5697 61.4369 31.379 62.3334L31.3102 62.6558L31.5854 62.473C31.608 62.4573 33.8424 60.9877 35.0347 60.7803C35.0298 60.8324 35.0229 60.8383 35.0229 60.9081C35.0229 61.0929 35.0957 61.3101 35.2166 61.493L35.2146 61.5018L35.2186 61.4998C35.2402 61.5323 35.2245 61.5755 35.253 61.604L35.4623 61.8164L35.483 61.5175C35.4849 61.4831 35.5508 60.6751 36.5122 60.5689L36.5328 60.567L36.5515 60.5591C36.6537 60.5139 37.5532 60.106 37.5532 59.5751C37.5532 59.3107 37.3389 59.0846 36.9181 58.8998V58.8998Z" fill="#8D784C"/>
<path id="Vector_74" fill-rule="evenodd" clip-rule="evenodd" d="M36.4463 60.3114C35.7739 60.3999 35.4829 60.7744 35.3463 61.086C35.3355 61.0202 35.2922 60.969 35.2922 60.9051C35.2922 60.7951 35.305 60.6967 35.3168 60.6397L35.3532 60.4638L35.1733 60.4785C34.2768 60.5522 32.7256 61.4438 31.9343 61.9324C32.5507 61.0988 34.1549 59.9241 34.8597 59.4621L35.0878 59.3137L34.5157 59.1141C35.6333 58.6266 36.7933 59.1367 36.806 59.1436C37.0262 59.24 37.2838 59.3904 37.2838 59.5742C37.2847 59.8445 36.7706 60.1699 36.4463 60.3114Z" fill="#355198"/>
<path id="Vector_75" fill-rule="evenodd" clip-rule="evenodd" d="M37.848 53.9849C37.7851 53.9672 36.6645 53.8276 35.4751 52.1998L35.3316 52.0032L35.2411 52.2293C35.1831 52.3994 35.1558 52.5784 35.1605 52.7581C35.1605 53.1484 35.3109 53.747 35.7798 54.442C35.2942 54.5275 33.3115 54.9551 32.646 56.4787L32.5084 56.7953L32.824 56.6547C32.8476 56.6439 35.1124 55.6511 36.2379 55.6864C36.1979 55.8659 36.1778 56.0491 36.1779 56.233C36.1779 56.4601 36.2133 56.7048 36.3234 56.9073L36.5072 57.2386L36.5741 56.865C36.579 56.8356 36.7146 56.1317 37.4735 56.0167L37.4912 56.0148L37.5069 56.0079C37.5492 55.9892 38.5469 55.5528 38.5784 54.9128C38.5951 54.5757 38.3494 54.2641 37.848 53.9849Z" fill="#8D784C"/>
<path id="Vector_76" fill-rule="evenodd" clip-rule="evenodd" d="M37.4008 55.7612C36.8995 55.8487 36.6301 56.1445 36.4807 56.405C36.4739 56.347 36.4453 56.2969 36.4453 56.2399C36.4453 55.9096 36.5299 55.6058 36.5318 55.6019L36.5741 55.4515L36.4188 55.4309C35.5685 55.3198 33.9849 55.8958 33.1926 56.2133C34.0763 55.0151 35.9784 54.6769 36.001 54.674L36.2261 54.6415L36.0895 54.4587C35.542 53.7313 35.426 53.1346 35.426 52.7601C35.426 52.65 35.4407 52.649 35.4515 52.5792C36.6419 54.0616 37.7183 54.2326 37.7655 54.2365C38.1086 54.44 38.3071 54.6622 38.3071 54.8824V54.9001C38.2904 55.2923 37.6485 55.654 37.4008 55.7612V55.7612Z" fill="#355198"/>
<path id="Vector_77" fill-rule="evenodd" clip-rule="evenodd" d="M50.3193 63.5435C50.3016 63.5052 49.8848 62.5821 48.9864 62.2872C48.4408 62.1073 47.8402 62.2017 47.2052 62.5644C47.2003 62.5615 43.3646 63.5307 42.2873 62.6224C42.2706 62.6077 40.627 61.2148 40.3656 60.1227C40.3449 60.0647 38.7878 55.6855 39.356 54.2808L39.1122 54.1677L39.1063 54.1795C39.0709 54.2483 38.6492 55.1134 38.6492 56.8149C38.6492 56.9987 38.662 57.2052 38.6728 57.4077C38.2914 57.1472 37.5326 56.6724 37.1168 56.7117L36.8455 56.7373L37.0312 56.9368C37.044 56.9516 38.3888 58.4083 38.9658 60.103C38.9687 60.1374 39.8986 65.7582 44.3123 65.4328C44.384 65.4338 46.3294 65.419 48.081 64.1667C48.1056 64.1441 48.6404 63.6025 50.1846 63.7312L50.4097 63.7499L50.3193 63.5435Z" fill="#8D784C"/>
<path id="Vector_78" fill-rule="evenodd" clip-rule="evenodd" d="M44.3023 65.1665C40.1256 65.4732 39.234 60.0952 39.2252 60.0402C38.7897 58.7534 37.9738 57.6544 37.5315 57.1138C37.9208 57.2632 38.4113 57.5414 38.7386 57.7822L38.9755 57.9562L38.9529 57.6633C38.9308 57.3856 38.9196 57.1072 38.9195 56.8287C38.9195 56.3726 38.9539 55.9893 39.0001 55.6541C39.1633 57.5227 40.0588 60.0588 40.1089 60.1994C40.3861 61.3642 42.0444 62.7689 42.1152 62.8279C43.2967 63.8266 47.1432 62.8545 47.3054 62.8122C47.905 62.475 48.4309 62.3895 48.9018 62.5429C49.4542 62.7237 49.7982 63.1877 49.9604 63.4551C48.4663 63.3931 47.9286 63.9436 47.906 63.9682C46.2457 65.1497 44.322 65.1665 44.3023 65.1665V65.1665Z" fill="#355198"/>
<path id="Vector_79" fill-rule="evenodd" clip-rule="evenodd" d="M39.3186 62.8583L39.238 62.5723C39.239 62.5723 39.2636 62.6794 39.3186 62.8583Z" fill="#8D784C"/>
<path id="Vector_80" fill-rule="evenodd" clip-rule="evenodd" d="M50.684 64.1686C49.0719 64.3947 47.4185 65.8682 47.3497 65.9321C46.7078 66.8089 45.8998 66.9013 45.8919 66.9013C43.1149 67.1147 41.9845 65.417 41.9737 65.4003L41.728 65.4967L41.8842 66.399C40.0126 65.0032 39.3825 62.5978 39.3717 62.5506L39.3688 62.5369L39.1073 62.6027L39.1093 62.6086L40.2859 66.8188L39.4071 66.4108L39.2498 66.6222C39.3491 66.7333 41.7004 69.3382 43.5917 69.7048C45.5056 70.0764 47.6632 68.0829 47.7537 67.9974C49.414 65.5399 50.7734 64.4163 50.7872 64.4045L51.1588 64.1008L50.684 64.1686V64.1686Z" fill="#8D784C"/>
<path id="Vector_81" fill-rule="evenodd" clip-rule="evenodd" d="M43.6438 69.4424C42.3354 69.1878 40.741 67.7458 39.9497 66.9594L40.7017 67.3083L40.6231 67.0272L39.932 64.5579C40.3822 65.363 41.0221 66.2447 42.011 66.8699L42.2676 67.0321L42.0739 65.9164C42.5871 66.4453 43.7647 67.3339 45.9145 67.1687C45.9548 67.1648 46.8503 67.0685 47.5472 66.1101C47.5492 66.112 48.835 65.015 50.1856 64.6002C49.6587 65.1084 48.6964 66.1238 47.5502 67.8244C47.5453 67.8254 45.421 69.7865 43.6438 69.4424V69.4424Z" fill="#355198"/>
<path id="Vector_82" fill-rule="evenodd" clip-rule="evenodd" d="M39.239 62.5723L39.3196 62.8583C39.2636 62.6794 39.239 62.5723 39.239 62.5723ZM43.343 89.7932C42.1821 89.0786 40.9701 83.7233 40.9573 83.6692L40.6919 83.7066C40.7056 83.9159 41.0369 88.8309 42.1477 89.8218C42.5261 90.1579 43.2604 90.0469 43.2919 90.041L43.6517 89.9849L43.343 89.7932Z" fill="#8D784C"/>
<path id="Vector_83" fill-rule="evenodd" clip-rule="evenodd" d="M42.3266 89.6183C41.6995 89.0599 41.3328 87.0055 41.1392 85.4691C41.5658 86.9996 42.249 89.0442 42.9793 89.7903C42.7581 89.7913 42.4829 89.7588 42.3266 89.6183Z" fill="#355198"/>
<path id="Vector_84" fill-rule="evenodd" clip-rule="evenodd" d="M27.4853 84.9088C28.1449 78.8299 32.6352 75.356 32.6814 75.3216L33.0893 75.012L32.5811 75.0818C30.9818 75.302 30.0794 75.9449 29.7806 76.1906C29.1623 75.3374 28.89 74.0526 28.89 72.4837C28.89 65.6805 33.6172 54.0261 33.6762 53.8806L33.4294 53.7745C28.2029 65.3433 26.9987 71.3946 26.9987 74.5156C26.9987 76.7735 27.6032 77.4636 27.7959 77.6317C26.7913 80.4656 26.3774 83.0656 26.3774 85.4101C26.3774 95.0847 33.2633 100.473 33.3508 100.539L33.5346 100.346C28.9883 94.9982 26.9535 89.805 27.4853 84.9088V84.9088Z" fill="#8D784C"/>
<path id="Vector_85" fill-rule="evenodd" clip-rule="evenodd" d="M28.0712 77.6346L28.1056 77.5393L28.0211 77.4793C28.0044 77.4665 27.2897 76.8984 27.2897 74.5028C27.2897 71.9048 28.1557 67.1245 31.6414 58.6157C30.2702 62.644 28.6177 68.3434 28.6177 72.4385C28.6177 74.1519 28.9077 75.5821 29.6283 76.4875L29.7207 76.6035L29.8268 76.5003C29.8357 76.4924 30.6299 75.8023 32.1005 75.4701C30.9779 76.4757 27.7763 79.7471 27.218 84.8744C27.1613 85.3947 27.1331 85.9178 27.1334 86.4412C27.1334 90.5904 28.9765 94.9274 32.4642 99.3627C30.5454 97.4409 26.6478 92.6508 26.6478 85.4071C26.6468 83.0666 27.0558 80.4706 28.0712 77.6346V77.6346Z" fill="#355198"/>
<path id="Vector_86" fill-rule="evenodd" clip-rule="evenodd" d="M39.1781 82.6321C38.029 83.0824 35.7328 81.9883 35.7102 81.9775C33.4886 80.1815 30.9643 81.0967 30.9387 81.1065C26.5536 82.7992 28.7122 89.5721 28.7358 89.6428L28.9983 89.6006C28.9983 86.4481 29.7286 84.4015 31.1697 83.5188C33.0187 82.3854 35.4447 83.5974 35.4693 83.6092C38.4448 84.7181 39.3413 82.8307 39.3502 82.812L39.4868 82.5103L39.1781 82.6321V82.6321Z" fill="#8D784C"/>
<path id="Vector_87" fill-rule="evenodd" clip-rule="evenodd" d="M35.5764 83.3645C35.486 83.3173 33.0088 82.0778 31.0301 83.2898C29.649 84.1361 28.9176 86.0048 28.7839 88.7523C28.5704 87.8531 28.4583 86.9329 28.4497 86.0087C28.4497 84.1735 28.9707 82.1544 31.035 81.3572C31.0576 81.3484 33.4423 80.4912 35.5675 82.2036C35.6826 82.2626 37.6476 83.1738 38.9431 82.9359C38.6129 83.3625 37.6879 84.1509 35.5764 83.3645V83.3645Z" fill="#355198"/>
<path id="Vector_88" fill-rule="evenodd" clip-rule="evenodd" d="M31.1932 85.6765C29.5801 86.8787 29.8612 89.1691 29.873 89.2664L29.9094 89.5406L30.1021 89.3411C32.5674 86.8168 33.3076 86.747 33.5121 86.8355C33.6408 86.8915 33.6359 87.0714 33.635 87.0792C29.1486 91.9382 31.5618 95.7767 31.5874 95.8151L31.8017 96.1414L31.8341 95.7522C32.1438 91.9991 33.2516 89.3568 35.1261 87.902C37.0361 86.4157 39.0896 86.744 39.1102 86.748L39.1879 86.4924C35.424 84.8036 32.7345 84.5303 31.1932 85.6765V85.6765Z" fill="#8D784C"/>
<path id="Vector_89" fill-rule="evenodd" clip-rule="evenodd" d="M34.966 87.6847C33.1072 89.1248 32.0003 91.7012 31.6317 95.2872C31.4469 94.8704 31.1904 94.1253 31.1904 93.0794C31.1904 91.5705 31.7399 89.5042 33.869 87.1755C33.8777 87.1299 33.8819 87.0834 33.8818 87.0369C33.8818 86.8541 33.81 86.6742 33.6213 86.5897C33.0748 86.3498 31.9197 87.1392 30.1248 88.9439C30.1228 88.881 30.1179 88.8879 30.1179 88.8034C30.1179 88.0986 30.2664 86.7008 31.3545 85.8908C32.7012 84.8901 35.0781 85.129 38.3151 86.455C37.0971 86.5022 35.9251 86.9325 34.966 87.6847V87.6847Z" fill="#355198"/>
<path id="Vector_90" fill-rule="evenodd" clip-rule="evenodd" d="M31.3329 89.3323L31.1943 89.1003L31.1893 89.1062C31.0891 89.1622 29.1192 90.2985 29.1192 91.3218L29.129 91.2697C29.1064 91.3258 28.5913 92.6695 30.4747 94.6119L30.6939 94.4645C30.6772 94.4261 29.0759 90.7566 31.3329 89.3323V89.3323Z" fill="#8D784C"/>
<path id="Vector_91" fill-rule="evenodd" clip-rule="evenodd" d="M29.8612 91.8242C29.8612 92.6076 30.0352 93.335 30.1954 93.855C29.4926 92.9448 29.3206 92.2174 29.3206 91.7927C29.3206 91.5243 29.3766 91.372 29.3786 91.368L29.3874 91.3454L29.3884 91.3209C29.3884 90.9139 29.8278 90.4489 30.3085 90.0518C29.9959 90.5954 29.8612 91.2137 29.8612 91.8242V91.8242Z" fill="#355198"/>
<path id="Vector_92" fill-rule="evenodd" clip-rule="evenodd" d="M41.0674 91.0368C39.3924 91.4014 36.467 90.5413 36.4375 90.5315C34.7635 90.9306 33.6557 91.7258 33.0737 92.8926C31.9925 95.0601 33.0944 97.7093 33.1406 97.8214L33.3991 97.7604C33.2232 95.2872 33.6606 93.6092 34.6976 92.7766C35.7966 91.8939 37.2161 92.2989 37.2308 92.3048C39.8259 92.4198 40.8551 91.6256 41.1785 91.2795L41.4724 90.965L41.0674 91.0368V91.0368Z" fill="#8D784C"/>
<path id="Vector_93" fill-rule="evenodd" clip-rule="evenodd" d="M37.2741 92.0414C37.2437 92.0256 35.7416 91.5941 34.5316 92.5633C33.5761 93.3291 33.0945 94.7328 33.0935 96.7411C32.9541 96.1891 32.8808 95.6225 32.8752 95.0533C32.8752 94.3848 32.9873 93.6692 33.3146 93.0126C33.8612 91.9185 34.9091 91.1714 36.4317 90.791C36.4789 90.8235 38.9373 91.5283 40.6881 91.3425C40.2054 91.6885 39.2136 92.1259 37.2741 92.0414V92.0414Z" fill="#355198"/>
<path id="Vector_94" fill-rule="evenodd" clip-rule="evenodd" d="M48.9599 90.7949L44.9778 90.3939L44.9336 90.6593C47.8295 91.3424 48.9668 92.3815 49.4111 93.1344C49.8564 93.8894 49.6952 94.4939 49.6932 94.5018C49.2706 96.3006 48.205 96.2082 48.1598 96.2043L45.6993 96.0067L45.6443 96.2682L48.4881 97.2453C50.5809 96.8098 50.9003 94.7554 50.9023 94.7338C52.018 92.233 48.9904 90.8106 48.9599 90.7949V90.7949Z" fill="#8D784C"/>
<path id="Vector_95" fill-rule="evenodd" clip-rule="evenodd" d="M46.7108 96.3577L48.1332 96.4727C48.1833 96.4766 49.475 96.6074 49.9527 94.5677C49.9557 94.5559 49.994 94.4222 49.994 94.201C49.994 93.9189 49.9311 93.4903 49.649 93.0086C49.1113 92.0866 47.9985 91.3533 46.3766 90.8008L48.8901 91.0505C48.951 91.0869 50.8757 91.9952 50.8757 93.6505C50.8757 93.9612 50.8079 94.2993 50.6467 94.6601C50.6251 94.7731 50.339 96.5857 48.5028 96.9868L46.7108 96.3577V96.3577Z" fill="#355198"/>
<path id="Vector_96" fill-rule="evenodd" clip-rule="evenodd" d="M49.4935 97.0251L49.3913 96.5494L49.2527 97.0143C48.6737 98.9606 47.7988 100.054 46.6537 100.261C44.0428 100.739 40.8029 96.5268 40.7705 96.4845L40.5621 96.6192C43.63 102.392 46.6114 101.806 46.7372 101.78C46.7697 101.778 46.7972 101.768 46.8296 101.766H46.8277C46.6261 102.731 46.2064 103.377 45.5635 103.674C43.0657 104.832 38.026 100.675 37.9758 100.633L37.7881 100.82C40.1394 103.56 42.0995 104.593 43.4481 104.958C43.4295 104.982 42.6018 106.083 40.9494 106.148C39.4729 106.204 36.9899 105.425 33.5445 101.389L33.3292 101.548C33.515 101.832 37.9218 108.457 41.1794 107.989C42.301 107.828 43.1444 106.847 43.687 105.073L43.4629 104.966C44.6484 105.282 45.3571 105.089 45.418 105.069C46.4698 104.886 47.1933 104.428 47.5482 103.704C47.8863 103.018 47.8293 102.219 47.677 101.567L47.675 101.569C48.1832 101.383 48.6079 101.095 48.9214 100.672C49.9614 99.2772 49.5132 97.1156 49.4935 97.0251V97.0251Z" fill="#8D784C"/>
<path id="Vector_97" fill-rule="evenodd" clip-rule="evenodd" d="M41.1421 107.723C39.0582 108.023 36.3795 105.094 34.8254 103.123C37.0667 105.346 39.1329 106.49 40.9672 106.414C42.073 106.369 42.7877 105.918 43.2123 105.557C42.71 106.845 42.0239 107.596 41.1421 107.723V107.723ZM41.496 97.7033C42.6746 98.9685 44.789 100.856 46.699 100.507C47.8363 100.299 48.7053 99.284 49.3128 97.5579C49.3334 97.7476 49.354 97.957 49.354 98.2224C49.354 98.935 49.2322 99.8443 48.723 100.526C48.2767 101.125 47.5974 101.463 46.7019 101.534C46.6606 101.541 44.2002 101.972 41.496 97.7033V97.7033Z" fill="#355198"/>
<path id="Vector_98" fill-rule="evenodd" clip-rule="evenodd" d="M47.0735 101.724C46.8641 102.818 46.4139 103.575 45.6776 103.918C43.7883 104.794 40.7243 102.957 39.0297 101.76C42.7719 105.513 45.3139 104.82 45.3562 104.811C46.3362 104.638 46.9929 104.229 47.3074 103.589C47.4686 103.264 47.5286 102.901 47.5286 102.543C47.5263 102.247 47.4907 101.953 47.4224 101.665C47.3123 101.692 47.1895 101.704 47.0735 101.724V101.724Z" fill="#355198"/>
<path id="Vector_99" fill-rule="evenodd" clip-rule="evenodd" d="M3.35389 107.967C3.35389 107.967 5.46339 108.652 8.6355 107.618C13.7598 105.898 19.3422 104.01 20.9288 104.633C21.6405 104.955 22.3178 105.337 21.9747 107.457C21.7044 109.024 21.0055 111.465 21.0055 111.465C21.0064 111.465 24.9561 111.769 45.3364 105.078C65.7424 98.4544 82.4591 99.057 92.5121 102.321C102.53 105.727 103.206 108.217 102.156 109.908C101.05 111.558 96.3674 116.084 96.3674 116.084C96.3674 116.084 102.096 117.639 103.252 118.02C103.832 118.212 104.37 118.453 104.469 118.692C104.542 118.942 103.834 119.665 103.283 120.028C102.532 120.504 99.6162 122.063 98.3983 123.436C97.2059 124.844 97.1578 126.653 97.1578 126.653C97.1578 126.653 86.4048 123.61 82.8061 122.236C79.2182 120.834 78.1467 120.391 80.3948 118.35C82.6567 116.334 84.7662 115.087 84.7662 115.087C84.7642 115.087 70.6376 113.048 55.7473 116.668C40.8855 120.412 26.6508 125.211 19.7816 125.9C12.9036 126.485 10.3833 125.537 9.4504 124.621C9.06015 124.097 10.6143 119.333 10.6143 119.331C10.6143 119.333 7.20721 120.7 5.11049 121.593C3.02164 122.501 1.49702 123.744 1.43018 122.814C1.43018 122.814 3.86701 114.994 3.97907 112.481C4.03019 109.965 3.35389 107.967 3.35389 107.967V107.967Z" fill="#355198"/>
<path id="Vector_100" fill-rule="evenodd" clip-rule="evenodd" d="M5.56865 110.235C5.56865 110.237 6.65584 112.491 3.93787 120.157C3.93787 120.157 5.62763 119.293 6.65092 118.886C9.08186 117.921 11.2906 116.938 11.2906 116.938C11.2906 116.938 11.7153 115.67 12.0692 114.123C12.4692 112.332 12.5056 111.38 12.5056 111.38C12.5056 111.38 12.656 109.807 14.8432 109.024C17.0333 108.267 18.5628 107.548 19.8515 107.006C21.1323 106.448 19.9056 106.179 18.5372 106.417C16.647 106.779 13.3864 108.012 11.1255 108.723C8.84594 109.439 6.87209 110.573 5.56865 110.235Z" fill="white"/>
<path id="Vector_101" fill-rule="evenodd" clip-rule="evenodd" d="M18.662 109.459C19.9704 108.887 20.109 108.865 20.109 108.865C20.109 108.867 19.3472 111.284 19.2813 111.576C19.2813 111.576 16.9428 111.88 15.3611 111.538C14.0262 111.208 15.5813 110.674 15.8025 110.541C16.0207 110.406 16.8622 110.236 18.662 109.459ZM13.9604 113.176C13.9604 113.176 14.5973 113.683 16.6253 113.587C16.6253 113.587 19.8544 113.776 24.1314 112.997C28.1951 112.231 32.8967 110.852 39.3156 108.907C45.7346 106.964 52.4169 104.891 56.0471 104.053C59.6793 103.236 67.6012 101.87 73.3586 101.805C79.4865 101.769 85.064 101.999 91.6019 103.952C94.0879 104.71 97.7879 106.35 98.2214 106.597C99.1395 107.158 100.862 108.143 99.9151 109.274C98.1968 111.212 93.3339 116.423 93.2572 116.004C93.2995 115.303 92.9063 114.679 92.0914 114.276C90.7359 113.639 87.6218 113.281 84.9726 113.02C82.3234 112.754 75.3767 111.928 65.6254 112.964C55.8839 114.062 48.89 116.53 44.0792 117.816C39.2704 119.099 30.8678 121.783 25.1675 122.892C19.4612 123.978 17.0244 124.097 14.3123 123.743C12.6088 123.518 11.2994 123.426 11.4115 122.892C11.6218 122.121 12.1497 120.209 12.4289 119.216C12.8791 117.639 13.288 116.426 13.4935 115.651C13.8788 114.165 13.9604 113.176 13.9604 113.176V113.176ZM94.6049 117.678C96.5404 118.211 98.3855 118.726 100.324 119.273C100.219 119.406 97.9992 120.546 97.0565 121.729C96.3212 122.685 95.7167 123.866 95.7167 123.868C95.7147 123.866 89.9357 122.222 87.7545 121.541C85.5368 120.838 82.4326 120.082 82.6075 119.688C82.7245 119.54 83.9935 119.722 85.3432 119.623C86.7253 119.514 88.7375 119.496 91.0878 119.247C92.7844 119.045 93.618 118.344 94.6049 117.678V117.678Z" fill="white"/>
<path id="Vector_102" fill-rule="evenodd" clip-rule="evenodd" d="M90.4637 117.071C89.7186 117.166 88.3129 117.246 87.4823 117.301C86.5151 117.37 84.7329 117.57 84.4547 117.557C84.4547 117.557 84.8499 117.166 85.827 116.612C86.5681 116.193 87.6298 115.468 87.6298 115.468C87.6298 115.468 89.2252 115.547 90.6367 115.875C91.4182 116.084 91.1607 116.963 90.4637 117.071V117.071Z" fill="white"/>
<path id="Vector_103" fill-rule="evenodd" clip-rule="evenodd" d="M19.9763 118.238L20.2663 118.208L21.1303 115.992L21.8951 115.913L20.8384 118.564L22.5507 121.049L21.7663 121.13L20.3518 119.05L20.0618 119.083L20.284 121.283L19.6637 121.35L19.1417 116.201L19.763 116.138L19.9763 118.238V118.238ZM23.5308 116.453C24.0803 116.359 24.3073 116.39 24.4528 117.349L24.6769 118.728C24.8372 119.715 24.6642 119.868 24.1019 119.962C23.4875 120.067 23.347 119.991 23.1818 118.977L22.9567 117.605C22.8397 116.793 22.8673 116.564 23.5308 116.453ZM23.3922 115.615C22.3758 115.785 22.0828 116.125 22.3414 117.706L22.5655 119.082C22.8397 120.758 23.2457 120.968 24.2395 120.801C25.2097 120.636 25.5567 120.257 25.2923 118.619L25.0672 117.247C24.8018 115.607 24.3172 115.458 23.3922 115.615V115.615ZM26.2959 117.77L25.9342 116.044L26.7835 115.859C27.218 115.763 27.3271 115.871 27.4765 116.587C27.6299 117.332 27.5532 117.497 27.103 117.592L26.2959 117.77V117.77ZM27.4087 118.397C27.7006 118.341 27.8766 118.613 27.9641 119.038L28.1617 119.981L28.7741 119.848L28.5755 118.904C28.4251 118.187 28.2432 117.84 27.795 117.872L27.7901 117.848C28.3022 117.602 28.2118 117.051 28.0565 116.301C27.8166 115.154 27.4745 114.864 26.7746 114.991L25.1488 115.344L26.2124 120.405L26.8228 120.272L26.4729 118.6L27.4087 118.397ZM29.3491 116.58L30.8265 116.199L31.0212 116.989L29.5428 117.369L29.8711 118.701L31.4409 118.298L31.6454 119.122L29.469 119.678L28.2295 114.66L30.3921 114.107L30.5936 114.93L29.0395 115.327L29.3491 116.58V116.58ZM33.575 116.775L32.4937 117.088L32.3109 114.35L32.3168 114.348L33.575 116.775V116.775ZM33.9112 117.459L34.3781 118.343L34.9875 118.166L32.5409 113.493L31.6552 113.751L32.0051 119.028L32.6254 118.846L32.5596 117.849L33.9112 117.459V117.459ZM37.3801 114.257L38.7593 113.802L39.005 114.575L37.6278 115.031L38.2756 117.067L37.6829 117.261L36.1121 112.34L38.1606 111.663L38.4162 112.471L36.9643 112.949L37.3801 114.257V114.257ZM40.0037 111.88C40.5296 111.705 40.7626 111.697 41.0506 112.625L41.4802 113.946C41.7898 114.899 41.6444 115.079 41.1037 115.26C40.51 115.459 40.3625 115.407 40.044 114.432L39.6145 113.111C39.3746 112.325 39.3658 112.094 40.0037 111.88ZM39.7413 111.073C38.7622 111.401 38.5243 111.782 39.0198 113.307L39.4523 114.632C39.9762 116.244 40.4117 116.385 41.3671 116.067C42.302 115.75 42.587 115.318 42.0739 113.748L41.6453 112.423C41.1293 110.845 40.6319 110.774 39.7413 111.073V111.073ZM42.9616 110.908C43.4934 110.741 43.7234 110.741 43.9967 111.674L44.4046 113.003C44.6975 113.957 44.5471 114.137 44.0035 114.306C43.4098 114.498 43.2604 114.443 42.9606 113.464L42.5497 112.133C42.3226 111.342 42.3187 111.115 42.9616 110.908V110.908ZM42.7119 110.1C41.7269 110.412 41.4831 110.787 41.954 112.321L42.3629 113.653C42.8583 115.27 43.2909 115.424 44.2512 115.118C45.1929 114.818 45.4849 114.393 45.0003 112.81L44.5923 111.483C44.1038 109.894 43.6074 109.814 42.7119 110.1V110.1ZM47.1992 114.17L46.5967 114.35L45.4023 110.196L44.4862 110.47L44.2493 109.657L46.6822 108.931L46.9161 109.745L46.001 110.019L47.1992 114.17V114.17ZM47.8136 109.493L48.6629 109.259C48.9607 109.177 49.1062 109.181 49.2468 109.711C49.3903 110.246 49.3598 110.432 49.0207 110.525L48.1557 110.766L47.8136 109.493ZM48.3474 111.49L49.2714 111.234C49.6282 111.136 49.7462 111.275 49.8926 111.82C50.0558 112.433 49.8966 112.521 49.5338 112.62L48.7121 112.848L48.3474 111.49V111.49ZM49.9418 113.387C50.6053 113.204 50.8127 112.839 50.5168 111.736C50.3478 111.101 50.1413 110.666 49.6793 110.708L49.6715 110.68C50.0165 110.428 49.9772 110.025 49.8268 109.453C49.5309 108.353 49.1691 108.238 48.5528 108.412L46.9918 108.843L48.3277 113.834L49.9418 113.387V113.387ZM51.5617 111.943L51.5942 112.942L50.968 113.101L50.7989 107.813L51.6915 107.588L53.9779 112.344L53.3636 112.497L52.9252 111.597L51.5617 111.943V111.943ZM51.4399 108.434L51.433 108.436L51.5224 111.175L52.6155 110.905L51.4399 108.434V108.434ZM53.6948 107.113L53.0834 107.249L54.1873 112.302L56.2781 111.828L56.0973 111.002L54.6149 111.333L53.6948 107.113V107.113ZM56.9859 110.819L58.4761 110.521L58.6393 111.351L56.5367 111.778L55.5478 106.7L56.1602 106.577L56.9859 110.819V110.819ZM62.6695 108.734L61.5578 108.908L61.7072 106.172L61.717 106.168L62.6695 108.734ZM62.9153 109.461L63.2721 110.394L63.9003 110.295L62.0394 105.352L61.1312 105.493L60.8314 110.774L61.4703 110.674L61.5283 109.673L62.9153 109.461V109.461ZM63.7656 108.656L63.7921 108.896C63.9691 110.366 64.6021 110.253 65.3148 110.165C66.1483 110.064 66.5642 109.887 66.3941 108.443C66.2368 107.135 65.9567 107.083 64.9501 107.112C64.3131 107.127 64.2286 107.117 64.1548 106.485C64.088 105.938 64.1755 105.829 64.7938 105.754C65.2293 105.698 65.3718 105.704 65.4386 106.257L65.4593 106.423L66.0776 106.35L66.0579 106.183C65.8987 104.833 65.3551 104.863 64.6945 104.946C63.9209 105.04 63.3655 105.153 63.5306 106.561C63.7095 108.056 64.2541 107.949 64.9609 107.93C65.4485 107.911 65.6844 107.787 65.7689 108.518C65.8397 109.115 65.7846 109.29 65.2194 109.359C64.6454 109.429 64.4841 109.407 64.4134 108.817L64.3809 108.577L63.7656 108.656V108.656ZM67.2808 108.243L67.3034 108.485C67.3574 109.08 67.5206 109.103 68.0966 109.049C68.6609 108.997 68.7248 108.824 68.6707 108.229C68.6058 107.492 68.367 107.611 67.8794 107.615C67.1746 107.611 66.6261 107.705 66.4875 106.205C66.3626 104.789 66.919 104.698 67.6985 104.624C68.3591 104.566 68.9027 104.549 69.0216 105.902L69.0413 106.066L68.4171 106.124L68.3994 105.961C68.3512 105.402 68.2057 105.396 67.7713 105.439C67.153 105.493 67.0625 105.6 67.1127 106.153C67.1667 106.783 67.2532 106.794 67.8882 106.798C68.8938 106.8 69.175 106.858 69.2919 108.17C69.4227 109.62 69.002 109.783 68.1664 109.864C67.4498 109.929 66.8148 110.023 66.6782 108.547L66.6585 108.305L67.2808 108.243ZM72.3766 106.143L72.4415 107.535C72.5142 109.187 72.1249 109.524 71.1419 109.57C70.1363 109.618 69.7559 109.361 69.6793 107.665L69.6163 106.273C69.5416 104.666 69.8719 104.367 70.9031 104.319C71.8389 104.277 72.2989 104.48 72.3766 106.143V106.143ZM70.2376 106.243L70.3025 107.636C70.3487 108.664 70.4794 108.75 71.1046 108.725C71.6688 108.694 71.8595 108.563 71.8153 107.563L71.7524 106.171C71.7199 105.198 71.4968 105.138 70.9404 105.163C70.27 105.199 70.214 105.421 70.2376 106.243V106.243ZM74.9068 106.022V105.736C74.9127 105.136 74.7633 105.095 74.2177 105.095C73.5857 105.093 73.4805 105.259 73.4765 106.274L73.4726 107.418C73.4746 108.453 73.5513 108.653 74.2079 108.653C74.7112 108.659 74.9373 108.628 74.9392 107.891V107.609L75.5634 107.611V107.949C75.5733 109.504 75.012 109.45 74.2059 109.502C73.0617 109.571 72.8563 108.97 72.8484 107.458L72.8504 106.271C72.8543 104.614 73.2593 104.245 74.2177 104.245C75.0297 104.251 75.4946 104.257 75.533 105.739L75.531 106.023H74.9068V106.022V106.022ZM76.6152 109.514L75.9891 109.493L76.1739 104.319L76.7981 104.344L76.6152 109.514ZM79.1209 107.928L77.9993 107.852L78.7385 105.213L78.7464 105.215L79.1209 107.928V107.928ZM79.2093 108.688L79.3519 109.683L79.9859 109.729L79.2388 104.486L78.3247 104.421L76.8905 109.509L77.5333 109.555L77.8037 108.593L79.2093 108.688V108.688ZM81.2726 109.885L80.6514 109.812L81.1154 105.513L80.1687 105.408L80.2592 104.565L82.7786 104.847L82.6862 105.692L81.7376 105.584L81.2726 109.885ZM83.1256 110.13L82.5093 110.042L83.216 104.917L83.8363 105.006L83.1256 110.13V110.13ZM85.6755 106.124C86.2191 106.226 86.4245 106.333 86.2476 107.288L86.0077 108.662C85.8347 109.647 85.6214 109.731 85.0631 109.631C84.4467 109.52 84.3415 109.405 84.5175 108.39L84.7554 107.016C84.9097 106.21 85.011 106.005 85.6755 106.124V106.124ZM85.819 105.29C84.7996 105.107 84.4133 105.325 84.139 106.907L83.9012 108.279C83.6092 109.951 83.9277 110.29 84.9166 110.467C85.8878 110.643 86.339 110.402 86.6231 108.771L86.861 107.397C87.146 105.759 86.739 105.457 85.819 105.29V105.29ZM90.1697 106.27L90.7762 106.414L89.6133 111.453L88.6048 111.214L88.2283 106.677L88.2076 106.671L87.2866 110.897L86.6791 110.751L87.841 105.711L88.8446 105.953L89.2309 110.49L89.2486 110.493L90.1697 106.27V106.27Z" fill="#355198"/>
</g>
</svg>
