<svg width="115" height="115" viewBox="0 0 115 115" fill="none" xmlns="http://www.w3.org/2000/svg">
<g id="dinamarca">
<g id="Modules-/-00_Top-navigation_default">
<g id="Logo-/-Logo-White">
<g id="Logo">
<g id="Group-118">
<path id="Fill-29" fill-rule="evenodd" clip-rule="evenodd" d="M57.4999 0.470795C26.0036 0.470795 0.470947 26.0035 0.470947 57.4997C0.470947 88.9956 26.0036 114.528 57.4999 114.528C88.9957 114.528 114.53 88.9956 114.53 57.4997C114.53 26.0035 88.9957 0.470795 57.4999 0.470795" fill="white"/>
<g id="Group-33">
<mask id="mask0_145_187" style="mask-type:alpha" maskUnits="userSpaceOnUse" x="0" y="0" width="115" height="115">
<g id="mask-2">
<path id="use30" d="M0 115V0H115V115H0Z" fill="white"/>
</g>
</mask>
<g mask="url(#mask0_145_187)">
<path id="Fill-31" fill-rule="evenodd" clip-rule="evenodd" d="M114.187 57.4996C114.187 72.6415 108.291 86.877 97.5831 97.5836C86.8769 108.291 72.6414 114.188 57.4995 114.188C42.3584 114.188 28.1221 108.291 17.4155 97.5836C6.70892 86.877 0.812394 72.6415 0.812394 57.4996C0.812394 42.3585 6.70892 28.1222 17.4155 17.4156C28.1221 6.70905 42.3584 0.812516 57.4995 0.812516C72.6414 0.812516 86.8769 6.70905 97.5831 17.4156C108.291 28.1222 114.187 42.3585 114.187 57.4996M57.4995 0C42.1418 0 27.7014 5.98148 16.8416 16.8421C5.98136 27.7011 -0.00012207 42.1419 -0.00012207 57.4996C-0.00012207 72.8582 5.98136 87.2977 16.8416 98.1579C27.7014 109.019 42.1418 115 57.4995 115C72.858 115 87.2976 109.019 98.1578 98.1579C109.018 87.2977 115 72.8582 115 57.4996C115 42.1419 109.018 27.7011 98.1578 16.8421C87.2976 5.98148 72.858 0 57.4995 0Z" fill="#C81517"/>
</g>
</g>
<path id="Fill-34" fill-rule="evenodd" clip-rule="evenodd" d="M57.4999 112.559C87.9084 112.559 112.559 87.9083 112.559 57.4994C112.559 27.0916 87.9084 2.44055 57.4999 2.44055C27.0921 2.44055 2.44104 27.0916 2.44104 57.4994C2.44104 87.9083 27.0921 112.559 57.4999 112.559Z" fill="#C81517"/>
<path id="Fill-36" fill-rule="evenodd" clip-rule="evenodd" d="M32.4547 98.6999C32.9814 98.6999 33.4082 98.2731 33.4082 97.7463C33.4082 97.2195 32.9814 96.7932 32.4547 96.7932C31.9279 96.7932 31.5011 97.2195 31.5011 97.7463C31.5011 98.2731 31.9279 98.6999 32.4547 98.6999Z" fill="white"/>
<path id="Fill-38" fill-rule="evenodd" clip-rule="evenodd" d="M83.9898 97.7958C84.5162 97.7958 84.9434 97.3691 84.9434 96.8423C84.9434 96.3155 84.5162 95.8891 83.9898 95.8891C83.463 95.8891 83.0363 96.3155 83.0363 96.8423C83.0363 97.3691 83.463 97.7958 83.9898 97.7958Z" fill="white"/>
<path id="Fill-40" fill-rule="evenodd" clip-rule="evenodd" d="M18.2322 31.8086C18.759 31.8086 19.1858 31.3818 19.1858 30.8551C19.1858 30.3287 18.759 29.9019 18.2322 29.9019C17.7059 29.9019 17.2787 30.3287 17.2787 30.8551C17.2787 31.3818 17.7059 31.8086 18.2322 31.8086Z" fill="white"/>
<path id="Fill-42" fill-rule="evenodd" clip-rule="evenodd" d="M19.2813 57.4996C19.2813 36.4263 36.4258 19.2805 57.5004 19.2805C78.5734 19.2805 95.7183 36.4263 95.7183 57.4996C95.7183 78.5738 78.5734 95.7188 57.5004 95.7188C36.4258 95.7188 19.2813 78.5738 19.2813 57.4996M57.5004 96.7621C79.1494 96.7621 96.7625 79.1486 96.7625 57.4996C96.7625 35.8507 79.1494 18.2371 57.5004 18.2371C35.8503 18.2371 18.2379 35.8507 18.2379 57.4996C18.2379 79.1486 35.8503 96.7621 57.5004 96.7621" fill="white"/>
<path id="Fill-44" fill-rule="evenodd" clip-rule="evenodd" d="M41.3089 58.7329C40.6232 64.0047 36.5586 63.5983 36.5586 63.5983H33.6825V47.3049C33.6825 47.8434 42.0617 52.9404 41.3089 58.7329ZM41.7146 48.4812C39.5132 45.4112 39.0071 41.5294 39.0071 41.5294H26.365L25.4387 43.9629C26.191 44.0597 28.5074 45.8928 28.5074 47.8954V63.308C28.5074 64.1706 27.3645 65.9009 24.7428 67.015L25.7854 69.6415H38.4706C39.3969 69.6415 46.9913 68.8359 46.8116 59.4276C46.7437 55.9007 44.1631 51.8962 41.7146 48.4812Z" fill="white"/>
<path id="Fill-46" fill-rule="evenodd" clip-rule="evenodd" d="M60.803 47.4054C60.6871 50.0697 59.0332 51.2029 59.0332 51.2029C59.0332 51.2029 54.9723 47.3485 54.5736 46.9745C54.174 46.601 52.9827 45.0568 54.5146 43.5578C56.008 42.0958 57.7366 43.1148 58.5483 43.5785C58.9828 43.8273 60.8798 45.6454 60.803 47.4054M66.3304 57.9799C65.7521 56.8796 63.0129 53.7933 63.0129 53.7933C64.4067 51.9106 66.0158 49.7218 65.4269 46.099C65.0334 43.6675 63.4356 41.2402 60.0754 39.8501C54.7825 37.6601 48.955 39.0392 45.653 42.3405C45.653 42.3405 48.2596 44.252 48.2596 47.4964V61.9815C48.2596 63.8126 46.6447 68.193 43.6251 69.6408H51.3609C51.3609 69.6408 49.3688 67.7532 49.8074 65.1616C50.2244 62.709 51.9864 60.7592 53.82 60.7003V53.056L60.0754 59.6589C60.0754 59.6589 61.6395 61.4169 60.8379 63.6553C60.2311 65.3514 58.704 65.9339 57.6427 65.7412C56.3014 65.4974 55.2991 64.8068 55.2414 63.5907C55.1832 62.3745 54.5329 62.2172 54.1269 62.1014C53.7212 61.9855 52.875 62.2664 52.4299 62.6712C51.8482 63.2029 50.8081 64.6409 51.0979 66.3778C51.3877 68.1158 53.0664 71.4179 57.7009 71.4179C61.2338 71.4179 64.5359 70.2595 66.5044 66.8415C68.8261 62.8139 66.9101 59.0802 66.3304 57.9799" fill="white"/>
<path id="Fill-48" fill-rule="evenodd" clip-rule="evenodd" d="M77.3341 41.5297H71.6575L70.4413 43.9055C70.4413 43.9055 71.9205 44.7729 71.9473 46.6267C72.0054 50.6235 68.5871 56.1261 67.603 57.4581C67.603 57.4581 70.7312 62.6523 67.7766 66.9575C67.7766 66.9575 69.4569 69.641 72.9317 69.641H89.0951L90.1384 67.0047C88.6004 66.4116 86.3697 64.622 86.3697 63.2616V48.1648C86.3697 46.6019 87.7107 44.5522 89.443 43.9514L88.5163 41.5187L80.9248 41.5297V63.6554C80.9248 63.6554 74.436 65.1764 73.4105 59.3701C73.0638 57.4004 73.4284 54.7506 75.5384 49.9869C77.5308 45.4854 77.3341 45.0126 77.3341 44.0591V41.5297Z" fill="white"/>
<path id="Fill-50" fill-rule="evenodd" clip-rule="evenodd" d="M31.8067 91.2756L28.4635 87.9268C24.7899 84.2471 21.8967 85.2921 20.5554 86.6314C18.7406 88.4422 18.5755 92.1032 21.9077 95.4402L24.7659 98.3046L25.1305 97.9408C24.631 97.2819 24.9269 96.9864 25.3504 96.5625L30.0638 91.8573C30.4885 91.4346 30.784 91.1387 31.4421 91.6394L31.8067 91.2756ZM23.4287 95.2683L22.9917 94.8305C20.983 92.8186 20.5404 90.0477 22.3154 88.2768C24.0701 86.5237 26.1508 87.3061 28.077 89.2348L28.7737 89.9335L23.4287 95.2683Z" fill="white"/>
<path id="Fill-52" fill-rule="evenodd" clip-rule="evenodd" d="M10.9114 80.6326L12.0369 82.7795L21.2843 82.2946C21.7147 82.2755 22.3463 82.1897 22.6581 82.7254L23.115 82.4864L21.594 79.5831L21.1371 79.8233C21.346 80.5818 21.094 80.7326 20.4644 80.7606L18.1911 80.8947L16.2889 77.2667L17.6542 75.399C18.0281 74.8824 18.298 74.6462 18.7927 75.3498L19.2495 75.1112L17.4322 71.6449L16.9766 71.8851C17.1676 72.3696 16.9587 72.6306 16.7148 72.9464L10.9114 80.6326ZM16.9046 81.0215L13.281 81.2223L15.4755 78.297L16.9046 81.0215Z" fill="white"/>
<path id="Fill-54" fill-rule="evenodd" clip-rule="evenodd" d="M8.79266 69.509L15.0599 68.3787C15.6497 68.2726 16.0602 68.1986 16.0395 67.4552L16.5471 67.3633L17.1048 70.4565L16.5979 70.5484C16.3573 69.844 15.9464 69.9188 15.3558 70.0248L8.80161 71.2068C8.21183 71.3129 7.80049 71.3869 7.82122 72.1315L7.31477 72.2222L6.70914 68.8656L10.1409 62.9288L7.3985 63.4235C6.80913 63.5296 6.39698 63.6036 6.41812 64.347L5.91045 64.4388L5.35278 61.3461L5.86045 61.2538C6.10027 61.9586 6.51201 61.8846 7.10179 61.7777L13.6556 60.5962C14.2453 60.4897 14.6571 60.4153 14.6359 59.6719L15.144 59.58L15.7017 62.6732L15.194 62.7651C14.9542 62.0603 14.5425 62.1354 13.9527 62.2415L12.6642 62.474L8.79266 69.509Z" fill="white"/>
<path id="Fill-56" fill-rule="evenodd" clip-rule="evenodd" d="M11.6972 55.0494L12.1711 54.5819C12.3406 54.8205 12.5707 55.0144 12.8475 55.0465C13.9266 55.1705 14.5465 53.5585 14.6644 52.5281C14.7993 51.3489 14.5034 49.6487 13.3263 49.5138C10.7099 49.215 11.6952 56.9004 7.95735 56.4724C5.83969 56.2297 5.39502 53.6211 5.64093 51.4786C5.86083 49.552 6.63229 47.8387 8.07035 46.7913L9.23771 48.8439L8.85482 49.3719C8.728 49.2569 8.62314 49.1939 8.45608 49.1748C7.47367 49.063 7.01884 50.7112 6.91397 51.6245C6.80626 52.5708 6.80504 54.0519 7.8155 54.1682C9.91934 54.4088 9.29461 46.6295 13.2962 47.0872C15.5939 47.3502 16.2215 50.1982 15.9476 52.5911C15.646 55.2323 14.7026 56.4878 12.7886 57.6479L11.6972 55.0494Z" fill="white"/>
<path id="Fill-58" fill-rule="evenodd" clip-rule="evenodd" d="M19.806 35.877C20.1478 35.7871 20.4836 35.6412 20.7193 35.2693L21.1932 35.4734L19.6141 39.1441L19.1402 38.9401C19.406 38.1804 19.1293 38.1893 18.7683 38.2885L13.7615 39.6648L14.3623 41.6536L16.3718 42.5181C16.9217 42.7547 17.3063 42.9197 17.6989 42.2881L18.1728 42.4921L16.6917 45.932L16.219 45.728C16.4068 45.0085 16.0231 44.8435 15.4723 44.607L9.35506 41.9735C8.80472 41.7373 8.42061 41.5715 8.02675 42.2031L7.55322 41.9995L9.03437 38.5596L9.5083 38.7633C9.3193 39.4827 9.703 39.6477 10.2537 39.8847L12.762 40.9651L11.328 36.4704C11.1053 35.7912 10.8273 35.9449 10.4793 36.5054L10.0058 36.3017L11.7308 32.2932L12.2044 32.4973C11.8938 33.2545 12.1186 33.8613 12.3096 34.545L13.1799 37.6678L19.806 35.877Z" fill="white"/>
<path id="Fill-60" fill-rule="evenodd" clip-rule="evenodd" d="M23.6446 23.3091L21.8147 21.2824L23.5637 19.7021C24.3201 19.0189 25.2586 18.66 25.9212 19.3944C26.6589 20.211 26.139 21.0564 25.2826 21.8299L23.6446 23.3091ZM25.4456 29.7933L30.0618 25.6247C31.6246 24.2126 32.5445 22.2368 31.247 20.7996C30.2935 19.7452 28.6876 19.8623 27.3653 20.7939L27.347 20.7728C28.0226 19.7505 28.2067 18.532 27.4783 17.7255C26.461 16.598 24.7339 17.0309 23.5796 18.0735L18.7772 22.4108L19.1231 22.7925C19.7438 22.3828 20.0238 22.6925 20.4254 23.1372L24.8896 28.0801C25.2904 28.5252 25.5712 28.8349 25.0997 29.4117L25.4456 29.7933ZM26.8756 26.8871L24.4482 24.1984L26.0732 22.7307C27.1771 21.7332 28.5404 21.1963 29.4749 22.2307C30.3244 23.1713 29.6562 24.3764 28.6624 25.2739L26.8756 26.8871Z" fill="white"/>
<path id="Fill-62" fill-rule="evenodd" clip-rule="evenodd" d="M40.2621 19.3681C43.6902 17.8191 45.1782 14.7767 43.9048 11.9575C42.6716 9.22809 39.2699 8.44078 36.0544 9.89265C32.7934 11.3669 31.1175 14.4779 32.3678 17.2463C33.636 20.0526 36.895 20.8891 40.2621 19.3681ZM39.7496 18.1926C37.312 19.2941 35.4232 18.1609 34.5798 16.294C33.7132 14.3759 34.0839 12.1904 36.5983 11.0539C38.9448 9.99468 40.862 11.0698 41.6993 12.924C42.5537 14.8157 42.294 17.0435 39.7496 18.1926Z" fill="white"/>
<path id="Fill-64" fill-rule="evenodd" clip-rule="evenodd" d="M47.3901 15.9348C48.1026 15.7222 48.0445 15.308 47.9616 14.7146L47.0361 8.11935C46.9523 7.52591 46.8942 7.11214 46.1496 7.10401L46.0789 6.59349L49.7874 6.07281L49.8598 6.58333C49.146 6.79632 49.2037 7.21009 49.2879 7.80393L50.2756 14.8406L53.4545 14.3939C54.3491 14.2687 55.1076 14.0212 55.0836 13.1245L55.9107 13.0075L56.2209 15.2153L47.462 16.4457L47.3901 15.9348Z" fill="white"/>
<path id="Fill-66" fill-rule="evenodd" clip-rule="evenodd" d="M63.4974 12.0208L63.927 12.5305C63.6762 12.6805 63.4644 12.8943 63.4112 13.1683C63.2043 14.2356 64.7627 14.9782 65.7808 15.1762C66.9462 15.4018 68.6643 15.2388 68.8903 14.0759C69.3914 11.4904 61.6524 11.8761 62.369 8.18222C62.7747 6.08935 65.411 5.84954 67.5278 6.26047C69.4329 6.63035 71.0799 7.53188 72.0123 9.04676L69.8755 10.0511L69.3788 9.62841C69.5036 9.51053 69.5735 9.41176 69.6056 9.24674C69.7946 8.2753 68.1867 7.69365 67.2839 7.51847C66.3487 7.33678 64.8724 7.22094 64.6785 8.21921C64.2749 10.2978 72.079 10.2812 71.3116 14.2336C70.871 16.5041 67.9826 16.9089 65.6179 16.45C63.0084 15.9436 61.83 14.9063 60.822 12.9073L63.4974 12.0208Z" fill="white"/>
<path id="Fill-68" fill-rule="evenodd" clip-rule="evenodd" d="M77.6819 17.0199C80.0645 17.5308 82.9049 18.0214 84.0109 15.8175C84.7185 14.4108 84.1279 12.6797 81.5286 11.3745L76.6275 8.91177L76.3954 9.3727C77.0035 9.80355 76.8165 10.1763 76.5466 10.7116L73.5575 16.6634C73.2884 17.1987 73.1006 17.5726 72.3938 17.3418L72.1621 17.8023L75.5089 19.4834L75.7398 19.0229C75.1333 18.5933 75.3211 18.2193 75.5902 17.6844L76.0958 16.6752L77.6819 17.0199ZM78.7793 11.3343L80.3182 12.107C81.5136 12.7077 82.3228 13.8157 81.7721 14.9111C81.0026 16.4435 78.2814 15.9017 76.6275 15.6168L78.7793 11.3343Z" fill="white"/>
<path id="Fill-70" fill-rule="evenodd" clip-rule="evenodd" d="M85.1366 23.6407C84.7699 24.1146 84.5126 24.4451 85.0264 24.984L84.711 25.3905L81.7495 23.0968L82.0661 22.6892C82.7157 23.0521 82.9717 22.7213 83.3388 22.2486L87.418 16.9837C87.7851 16.5101 88.0407 16.1793 87.5282 15.6403L87.844 15.2326L90.8038 17.5271L90.4884 17.934C89.8385 17.5722 89.5828 17.9023 89.2162 18.3758L85.1366 23.6407Z" fill="white"/>
<path id="Fill-72" fill-rule="evenodd" clip-rule="evenodd" d="M86.4795 26.0507C87.0522 26.5254 87.3639 26.2466 87.8119 25.8478L92.7796 21.4125C93.2276 21.0138 93.5393 20.7358 93.1324 20.1123L93.5161 19.7696L96.011 22.5636L95.6261 22.9067C95.0534 22.4319 94.7416 22.7108 94.2937 23.1095L88.993 27.8415L91.1306 30.236C91.7322 30.9099 92.3589 31.4034 93.0906 30.8847L93.6474 31.5086L91.9842 32.9926L86.095 26.3945L86.4795 26.0507Z" fill="white"/>
<path id="Fill-74" fill-rule="evenodd" clip-rule="evenodd" d="M99.2562 33.7125L98.075 34.4523L96.0082 31.149L97.1894 30.4096L99.2562 33.7125Z" fill="white"/>
<path id="Fill-76" fill-rule="evenodd" clip-rule="evenodd" d="M105.818 43.1334C106.385 42.9387 106.779 42.8017 106.646 42.0701L107.132 41.9022L108.354 45.4429L107.866 45.6108C107.521 44.9515 107.125 45.0884 106.559 45.2831L100.263 47.4549C99.6967 47.6496 99.302 47.7865 99.4358 48.5182L98.948 48.686L97.236 43.7231C95.9499 39.9922 97.9867 38.0343 99.5939 37.4807C101.742 36.7393 104.47 38.0274 104.851 37.8953C105.088 37.8136 105.055 37.4185 104.966 37.2011L105.453 37.0332L106.637 40.4629L106.149 40.632C105.032 39.2305 102.047 39.0387 100.611 39.5346C98.6883 40.1979 97.9798 41.9453 98.7704 44.2377L99.1789 45.423L105.818 43.1334Z" fill="white"/>
<path id="Fill-78" fill-rule="evenodd" clip-rule="evenodd" d="M107.411 52.5344L101.048 52.7652C100.449 52.7864 100.031 52.8022 99.9465 53.5408L99.4311 53.5599L99.3169 50.4187L99.8327 50.3996C99.9705 51.1313 100.388 51.1162 100.987 51.0943L107.643 50.8532C108.242 50.8317 108.659 50.8163 108.744 50.0769L109.259 50.0578L109.383 53.4668L105.144 58.8577L107.93 58.7569C108.529 58.7345 108.946 58.7195 109.031 57.9809L109.546 57.9623L109.66 61.1034L109.145 61.1221C109.007 60.3909 108.589 60.4059 107.991 60.4274L101.335 60.6685C100.735 60.6904 100.317 60.7055 100.233 61.4452L99.7177 61.4631L99.6039 58.322L100.12 58.3041C100.257 59.0345 100.675 59.0195 101.274 58.9975L102.582 58.9508L107.411 52.5344Z" fill="white"/>
<path id="Fill-80" fill-rule="evenodd" clip-rule="evenodd" d="M100.292 66.4253C99.7024 66.3196 99.2911 66.2444 99.0509 66.9492L98.5432 66.857L99.209 63.1716L99.7159 63.2634C99.6955 64.0068 100.106 64.0808 100.696 64.1877L107.251 65.3701C107.841 65.477 108.252 65.551 108.492 64.8462L108.999 64.9372L108.334 68.6242L107.827 68.532C107.848 67.7886 107.437 67.7146 106.846 67.6077L100.292 66.4253Z" fill="white"/>
<path id="Fill-82" fill-rule="evenodd" clip-rule="evenodd" d="M95.845 74.259C94.3338 77.7041 95.2634 80.9599 98.0968 82.202C100.84 83.4064 103.894 81.7155 105.312 78.4845C106.75 75.2072 105.912 71.7735 103.131 70.5533C100.31 69.316 97.329 70.8748 95.845 74.259M97.0124 74.7886C98.0867 72.3388 100.249 71.9186 102.125 72.7408C104.052 73.5863 105.24 75.4584 104.131 77.985C103.097 80.3433 100.952 80.8262 99.089 80.0096C97.1884 79.1751 95.891 77.346 97.0124 74.7886Z" fill="white"/>
<path id="Fill-84" fill-rule="evenodd" clip-rule="evenodd" d="M96.8966 88.5409L92.1515 84.2946C91.7048 83.8958 91.3939 83.617 90.8204 84.0905L90.4354 83.7471L92.5324 81.4042L92.9161 81.7481C92.5084 82.3708 92.8202 82.6496 93.2669 83.0492L98.2298 87.4906C98.6756 87.8901 98.9874 88.1682 99.5609 87.6954L99.9458 88.0385L97.6713 90.5797L90.8781 91.5251L92.9551 93.3843C93.4018 93.7838 93.7136 94.0627 94.2871 93.5879L94.672 93.9326L92.5751 96.2742L92.1906 95.9307C92.5982 95.3076 92.2873 95.0288 91.8406 94.6293L86.8777 90.1879C86.4306 89.7891 86.1188 89.5095 85.5453 89.9842L85.1616 89.6404L87.2573 87.2975L87.6422 87.6414C87.2346 88.2641 87.5463 88.5429 87.9918 88.9429L88.9685 89.8151L96.8966 88.5409Z" fill="white"/>
<path id="Fill-86" fill-rule="evenodd" clip-rule="evenodd" d="M43.4682 97.4058L40.2872 105.475C39.9803 106.25 40.1742 106.512 41.1648 106.965L40.9697 107.46L35.9755 105.491L36.1706 104.995C37.6375 105.512 37.8545 105.242 38.2086 104.346L40.7197 97.9765C39.988 97.9976 39.2345 97.8854 38.4963 97.6875L38.7918 96.938C39.9141 97.1018 41.0428 97.2071 41.9752 96.8173L43.4682 97.4058Z" fill="white"/>
<path id="Fill-88" fill-rule="evenodd" clip-rule="evenodd" d="M51.6624 100.389C52.7745 100.537 53.5183 101.1 53.3895 102.069C53.2684 102.981 52.3099 103.377 51.3007 103.243C50.2053 103.097 49.4907 102.451 49.6135 101.524C49.7374 100.598 50.619 100.25 51.6624 100.389V100.389ZM49.1379 103.536C47.5828 103.706 46.4764 104.56 46.2967 105.915C45.9976 108.168 48.0039 109.45 50.4504 109.775C52.9135 110.103 55.2633 109.197 55.5551 107C55.723 105.732 54.8027 104.536 53.3635 104.098L53.3676 104.069L53.3652 104.082C54.6236 103.917 55.46 103.259 55.6039 102.175C55.847 100.35 53.6732 99.4086 51.8421 99.1655C50.0464 98.9269 47.6678 99.3944 47.4389 101.119C47.3142 102.06 48.0385 103.157 49.1408 103.507L49.1379 103.536ZM48.7579 106.257C48.9119 105.102 49.6496 104.271 51.1548 104.471C52.5408 104.656 53.2232 105.676 53.0773 106.773C52.9298 107.885 52.016 108.735 50.5959 108.547C49.2098 108.362 48.6132 107.355 48.7579 106.257V106.257Z" fill="white"/>
<path id="Fill-90" fill-rule="evenodd" clip-rule="evenodd" d="M62.9124 100.444C64.0257 100.305 64.8882 100.659 65.0102 101.63C65.1252 102.543 64.2997 103.169 63.2892 103.297C62.1938 103.434 61.3374 102.992 61.2203 102.063C61.1033 101.136 61.8682 100.576 62.9124 100.444ZM61.2724 104.13C59.8124 104.692 58.9596 105.799 59.1307 107.154C59.4152 109.41 61.6821 110.138 64.1306 109.83C66.5962 109.519 68.637 108.044 68.3602 105.846C68.2001 104.576 67.0051 103.654 65.502 103.597L65.4988 103.568L65.5 103.583C66.675 103.101 67.3156 102.252 67.179 101.168C66.949 99.3413 64.6061 98.9844 62.7754 99.2153C60.9765 99.4421 58.7958 100.499 59.0136 102.226C59.1327 103.168 60.1131 104.044 61.2683 104.102L61.2724 104.13ZM61.5992 106.858C61.4532 105.702 61.954 104.711 63.4612 104.521C64.8484 104.346 65.7686 105.159 65.9064 106.257C66.0475 107.37 65.3801 108.426 63.9587 108.605C62.5718 108.779 61.737 107.957 61.5992 106.858Z" fill="white"/>
<path id="Fill-92" fill-rule="evenodd" clip-rule="evenodd" d="M77.6045 100.993C78.404 102.949 78.0012 104.839 75.7177 105.773C75.0463 106.046 74.0976 106.325 73.6549 105.746L72.8562 106.072L73.4818 107.603C74.3996 107.43 75.3328 107.204 76.2274 106.838C79.8543 105.356 80.7595 102.143 79.5564 99.2009C78.5609 96.7641 76.3323 95.235 73.1213 96.5471C70.8845 97.4616 69.5582 99.4175 70.3476 101.348C71.0544 103.079 73.1111 103.73 75.1881 102.881C76.1783 102.477 77.2668 101.581 77.4257 100.646L77.4578 100.633L77.6045 100.993ZM73.7976 97.7006C75.0759 97.1779 76.1913 97.7165 76.6099 98.742C77.0127 99.7272 76.4762 100.925 75.295 101.408C74.0809 101.905 73.0282 101.34 72.6315 100.368C72.2128 99.3435 72.5034 98.2294 73.7976 97.7006Z" fill="white"/>
<path id="Fill-94" fill-rule="evenodd" clip-rule="evenodd" d="M55.603 10.095L55.3522 6.05847L55.5412 6.04669C57.1609 5.94629 58.3954 6.81409 58.4754 8.11029C58.5494 9.30447 57.7186 9.96416 56.0046 10.0698L55.603 10.095ZM60.2074 7.95421C60.1114 6.39218 58.4884 4.82527 55.6709 5.00005L53.3264 5.14597L53.1565 5.15613L53.1662 5.32603L53.1853 5.62478L53.1942 5.77354L53.3422 5.78452C53.673 5.8085 53.6791 5.90158 53.6999 6.25032L53.9401 10.1101C53.9608 10.458 53.9669 10.5507 53.6422 10.6157L53.4962 10.6446L53.506 10.7937L53.5243 11.0925L53.5345 11.2624L53.7044 11.2514L56.4464 11.0815C59.351 10.9015 60.2944 9.34756 60.2074 7.95421Z" fill="white"/>
<path id="Fill-96" fill-rule="evenodd" clip-rule="evenodd" d="M57.2274 22.0523C57.2274 22.0523 54.4151 22.1283 53.5567 23.0478C53.5567 23.0478 57.4652 29.1349 52.821 29.302C51.8999 29.3361 50.7736 29.1483 50.3204 28.2785C49.699 27.0864 50.077 25.2532 51.4049 25.0837C51.4049 25.0837 49.1852 22.2714 45.3437 24.0314C43.137 25.0427 43.0151 28.1379 43.2598 28.9963C43.2598 28.9963 38.4949 27.8468 36.4719 31.7086C35.8903 32.8191 35.5025 35.3664 36.5638 36.9943C36.5638 36.9943 37.9648 35.4826 40.8824 34.9575C42.4213 34.6819 47.0728 35.9858 48.5158 35.8452C50.1709 35.6842 53.7335 35.6151 55.5114 31.6314C55.8276 30.9242 56.0613 30.1056 56.2739 30.6811C56.6356 31.6615 56.9019 31.8745 57.0506 31.8964C57.1055 31.9204 57.1644 31.9354 57.2274 31.9354C57.2904 31.9354 57.3494 31.9204 57.4034 31.8964C57.5522 31.8745 57.818 31.6615 58.181 30.6811C58.394 30.1056 58.6277 30.9242 58.9435 31.6314C60.7206 35.6151 64.2844 35.6842 65.9395 35.8452C67.3825 35.9858 72.0336 34.6819 73.5716 34.9575C76.49 35.4826 77.8911 36.9943 77.8911 36.9943C78.9524 35.3664 78.5646 32.8191 77.983 31.7086C75.96 27.8468 71.1951 28.9963 71.1951 28.9963C71.4398 28.1379 71.317 25.0427 69.1115 24.0314C65.2697 22.2714 63.05 25.0837 63.05 25.0837C64.3783 25.2532 64.7551 27.0864 64.1344 28.2785C63.6816 29.1483 62.5553 29.3361 61.6339 29.302C56.9896 29.1349 60.8974 23.0478 60.8974 23.0478C60.0397 22.1283 57.2274 22.0523 57.2274 22.0523" fill="white"/>
<path id="Fill-98" fill-rule="evenodd" clip-rule="evenodd" d="M77.42 33.6639C77.1412 31.899 75.9555 30.5317 73.1806 30.0801C72.3299 29.9411 71.0308 30.0232 69.8854 30.1939C70.0492 29.7314 70.1582 29.1737 70.1582 28.49C70.1582 27.3076 69.7753 26.1663 69.0428 25.492C67.7999 24.3466 65.9948 24.6823 65.918 24.6884L64.7522 25.0489C64.7522 25.0489 65.0185 25.1571 65.3652 25.9346C65.7277 26.7459 65.768 27.8625 64.8754 29.0327C63.6292 30.6679 61.8952 30.5618 60.8031 30.3748C59.7097 30.187 59.1 29.4074 59.1 29.4074C59.0979 29.4066 59.6125 30.7626 59.9174 31.3824C60.2673 32.0937 62.2139 36.1213 69.5188 34.2065C73.5371 33.1534 76.1376 34.4585 76.1628 34.4695C76.1628 34.4695 77.1481 34.9934 77.3859 35.23C77.3859 35.23 77.6236 34.9581 77.42 33.6639" fill="#C81517"/>
<path id="Fill-100" fill-rule="evenodd" clip-rule="evenodd" d="M37.0351 33.6639C37.3139 31.899 38.4992 30.5317 41.2733 30.0801C42.124 29.9411 43.4243 30.0232 44.5697 30.1939C44.4046 29.7314 44.2965 29.1737 44.2965 28.49C44.2965 27.3076 44.6794 26.1663 45.411 25.492C46.6544 24.3466 48.4599 24.6823 48.5359 24.6884L49.7025 25.0489C49.7025 25.0489 49.4366 25.1571 49.0887 25.9346C48.7269 26.7459 48.6871 27.8625 49.5793 29.0327C50.8259 30.6679 52.5595 30.5618 53.652 30.3748C54.7442 30.187 55.3539 29.4074 55.3539 29.4074C55.3571 29.4066 54.8426 30.7626 54.5377 31.3824C54.1877 32.0937 52.24 36.1213 44.9363 34.2065C40.9168 33.1534 38.3171 34.4585 38.2923 34.4695C38.2923 34.4695 37.3058 34.9934 37.0688 35.23C37.0688 35.23 36.831 34.9581 37.0351 33.6639" fill="#C81517"/>
<path id="Fill-102" fill-rule="evenodd" clip-rule="evenodd" d="M57.1608 29.9184C57.0051 29.9184 56.8811 29.8066 56.849 29.6595C56.849 29.6595 56.2052 26.9903 55.8995 26.003C55.5927 25.0153 55.0822 23.8231 55.0822 23.8231C55.5419 23.4654 56.3674 23.2955 57.1616 23.2984H57.2929C58.0871 23.2955 58.9126 23.4654 59.3723 23.8231C59.3723 23.8231 58.8618 25.0153 58.555 26.003C58.2493 26.9903 57.6055 29.6595 57.6055 29.6595C57.5738 29.8066 57.4494 29.9184 57.2937 29.9184H57.1608Z" fill="#C81517"/>
<path id="Fill-104" fill-rule="evenodd" clip-rule="evenodd" d="M57.5591 93.0933C57.5591 93.0933 55.8011 93.0995 54.7346 92.5995C51.8816 91.2602 53.0725 88.4861 53.0725 88.4861C51.5747 89.5762 49.2038 88.5442 48.4755 85.8807C47.5869 82.6347 49.1742 80.6186 49.1742 80.6186C47.9987 80.0411 45.8961 80.9873 45.5932 82.9985C45.2295 85.4149 46.1168 87.1419 46.1168 87.1419C46.1168 87.1419 45.2876 87.7094 43.3805 86.9379C40.7222 85.8624 41.0949 82.6054 41.0949 82.6054C41.0949 82.6054 38.9253 83.57 36.9023 81.9278C33.2844 78.9908 33.5063 75.9687 33.5063 75.9687C33.5063 75.9687 37.9888 77.7576 40.2015 77.4877C41.8193 77.2909 43.8101 76.693 45.4453 76.4321C49.4969 75.7846 53.1628 79.5346 53.1628 79.5346C51.9983 75.0501 56.7144 74.803 57.5591 74.8253C58.4037 74.8461 63.1198 75.0501 61.9553 79.5346C61.9553 79.5346 65.6212 75.7846 69.6736 76.4321C71.3068 76.693 73.2984 77.2909 74.9166 77.4877C77.1293 77.7576 81.6114 75.9687 81.6114 75.9687C81.6114 75.9687 81.8333 78.9908 78.2146 81.9278C76.1929 83.57 74.0219 82.6054 74.0219 82.6054C74.0219 82.6054 74.3947 85.8624 71.7376 86.9379C69.8305 87.7094 69.0001 87.1419 69.0001 87.1419C69.0001 87.1419 69.8886 85.4149 69.5249 82.9985C69.222 80.9873 67.1194 80.0411 65.9439 80.6186C65.9439 80.6186 67.5299 82.6347 66.6426 85.8807C65.9139 88.5442 63.5434 89.5762 62.0452 88.4861C62.0452 88.4861 63.2365 91.2602 60.3831 92.5995C59.317 93.0994 57.5591 93.0933 57.5591 93.0933" fill="white"/>
<path id="Fill-106" fill-rule="evenodd" clip-rule="evenodd" d="M44.1171 77.6577C48.3646 76.2046 51.8463 79.5986 51.8463 79.5986C51.8463 79.5986 50.4843 79.2929 49.6677 80.0083C49.6677 80.0083 47.461 78.917 45.6153 80.9607C43.9159 82.8418 45.0906 86.5454 45.0906 86.5454C45.0914 86.5466 41.0178 86.4097 42.1482 81.4195C41.5145 81.5553 40.428 81.9573 39.4997 81.9703C36.5626 82.013 34.434 77.2029 34.434 77.2029C34.434 77.2029 38.6051 79.5449 44.1171 77.6577" fill="#C81517"/>
<path id="Fill-108" fill-rule="evenodd" clip-rule="evenodd" d="M64.4137 80.5615C63.5983 80.2697 62.5569 80.3818 62.079 80.5526C61.5615 80.7375 59.9454 82.1906 59.9454 82.1906C59.9454 82.1906 60.5141 82.9023 60.5141 83.8555C60.5141 84.9111 59.9682 85.4899 59.9682 85.4899C59.9682 85.4899 61.9111 87.2925 62.2261 87.4633C63.2122 87.9961 64.1409 88.0059 64.7965 87.2994C66.4724 85.4899 66.1245 82.9633 65.531 81.6309C65.2981 81.1103 64.9116 80.7396 64.4137 80.5615" fill="#C81517"/>
<path id="Fill-110" fill-rule="evenodd" clip-rule="evenodd" d="M71.0012 77.6577C66.7537 76.2046 63.272 79.5986 63.272 79.5986C63.272 79.5986 64.634 79.2929 65.4506 80.0083C65.4506 80.0083 67.6573 78.917 69.503 80.9607C71.202 82.8418 70.0278 86.5454 70.0278 86.5454C70.0278 86.5454 74.1005 86.4097 72.9701 81.4195C73.6038 81.5553 74.6891 81.9573 75.6186 81.9703C78.5557 82.013 80.6835 77.2029 80.6835 77.2029C80.6835 77.2029 76.512 79.5449 71.0012 77.6577" fill="#C81517"/>
<path id="Fill-112" fill-rule="evenodd" clip-rule="evenodd" d="M50.704 80.5615C51.5206 80.2697 52.5619 80.3818 53.0387 80.5526C53.5561 80.7375 55.1722 82.1906 55.1722 82.1906C55.1722 82.1906 54.6048 82.9023 54.6048 83.8555C54.6048 84.9111 55.1494 85.4899 55.1494 85.4899C55.1494 85.4899 53.2074 87.2925 52.8915 87.4633C51.9063 87.9961 50.9767 88.0059 50.3223 87.2994C48.6452 85.4899 48.9932 82.9633 49.5874 81.6309C49.8195 81.1103 50.2061 80.7396 50.704 80.5615" fill="#C81517"/>
<path id="Fill-114" fill-rule="evenodd" clip-rule="evenodd" d="M60.82 77.0113C59.9404 76.0249 58.7353 75.7249 57.6008 75.7481V75.7472C57.587 75.7472 57.5728 75.7481 57.559 75.7481C57.5448 75.7481 57.5309 75.7472 57.5171 75.7472V75.7481C56.3827 75.7249 55.1775 76.0249 54.2979 77.0113C53.6561 77.7308 53.7053 79.292 54.128 80.0756C54.5727 80.8999 55.6263 81.5946 55.6263 81.5946C55.6263 81.5946 56.2286 81.0097 57.559 80.9971C58.8893 81.0097 59.4917 81.5946 59.4917 81.5946C59.4917 81.5946 60.5461 80.8999 60.9899 80.0756C61.4126 79.292 61.4618 77.7308 60.82 77.0113" fill="#C81517"/>
<path id="Fill-116" fill-rule="evenodd" clip-rule="evenodd" d="M61.1264 88.35C60.8797 87.8582 59.4916 86.0693 59.4916 86.0693C59.4916 86.0693 58.6941 86.5648 57.5585 86.577C56.4244 86.5648 55.6257 86.0693 55.6257 86.0693C55.6257 86.0693 54.2377 87.8582 53.9918 88.35C53.8649 88.6028 53.7007 89.5921 53.9926 90.4075C54.1718 90.9054 54.5405 91.292 55.062 91.5253C55.6729 91.7968 56.5683 92.0496 57.5166 92.0695V92.0728C57.5304 92.0728 57.5446 92.0716 57.5585 92.0716C57.5735 92.0716 57.5865 92.0728 57.6007 92.0728V92.0695C58.5502 92.0496 59.4457 91.7968 60.0549 91.5253C60.5768 91.292 60.9467 90.9054 61.1256 90.4075C61.4174 89.5921 61.2524 88.6028 61.1264 88.35" fill="#C81517"/>
</g>
</g>
</g>
</g>
</g>
</svg>
