<svg width="99" height="125" viewBox="0 0 99 125" fill="none" xmlns="http://www.w3.org/2000/svg">
<g id="ecuador">
<g id="g14376">
<g id="g14378">
<g id="g14384">
<path id="path14386" d="M87.9368 9.65065V-1.39667e-06H69.9099H68.6281H51.8726H50.5908H11.0627V9.65065H0V72.2862C0 88.7644 8.18835 104.118 21.9057 113.361C29.9941 119.067 39.4282 122.765 49.1892 124.057L49.5011 124.099L49.8123 124.057C59.577 122.765 69.0137 119.064 77.1037 113.355C90.8148 104.112 99 88.7602 99 72.2862V9.65065H87.9368Z" fill="#CAA977"/>
</g>
<g id="g14388">
<path id="path14390" d="M23.2529 111.408C30.8731 116.788 39.8138 120.423 49.5005 121.705C59.1914 120.422 68.1342 116.785 75.756 111.402C88.3354 102.931 96.6268 88.5593 96.6268 72.2862V12.0238H2.37262V72.2862C2.37262 88.563 10.6687 102.937 23.2529 111.408Z" fill="#001F5B"/>
</g>
</g>
</g>
<g id="g14392">
<path id="path14394" d="M56.5122 93.2016H43.5414V31.0515H56.5122V37.3617H49.8516V86.8915H56.5122V93.2016Z" fill="#CAA977"/>
</g>
<g id="g14396">
<path id="path14398" d="M63.0952 31.0434V89.7791H69.4053V35.0028L85.5654 27.2168V20.214L63.0952 31.0434Z" fill="#CAA977"/>
</g>
<g id="g14400">
<g id="g14402">
<g id="g14408">
<path id="path14410" d="M85.5682 72.0916L85.5655 53.4699L79.2465 56.5232L79.2492 72.0916C79.2492 88.4949 65.9038 101.839 49.5009 101.839C33.0981 101.839 19.7532 88.4949 19.7532 72.0916L19.7506 56.5232L13.4316 53.4699L13.4342 72.0916C13.4342 89.8254 26.303 104.6 43.1898 107.595C45.5812 108.075 47.6996 109.146 49.5035 110.652C51.3049 109.148 53.4143 108.078 55.8016 107.596C72.6942 104.606 85.5682 89.8285 85.5682 72.0916Z" fill="#CAA977"/>
</g>
</g>
</g>
<g id="g14412">
<path id="path14414" d="M85.5656 38.4377L72.8695 44.6081V51.6099L85.5656 45.4405V38.4377Z" fill="#CAA977"/>
</g>
<g id="g14416">
<path id="path14418" d="M35.9081 31.0434V89.7791H29.598V35.0028L13.4379 27.2168V20.214L35.9081 31.0434Z" fill="#CAA977"/>
</g>
<g id="g14420">
<path id="path14422" d="M13.4377 38.4377L26.1338 44.6081V51.6099L13.4377 45.4405V38.4377Z" fill="#CAA977"/>
</g>
<g id="g14424">
<path id="path14426" d="M51.5243 54.9969L33.9181 46.5119V53.5147L51.5243 61.9976L59.6493 58.034V51.0327L51.5243 54.9969Z" fill="#CAA977"/>
</g>
<path id="path14428" d="M52.9634 8.85361H67.5367V2.37293H52.9634V8.85361Z" fill="#001F5B"/>
<path id="path14430" d="M71.0007 8.85361H85.5636V2.37293H71.0007V8.85361Z" fill="#C6093B"/>
<path id="path14432" d="M49.4999 2.37293H13.4358V8.85361H49.4999V2.37293Z" fill="#FFCE00"/>
</g>
</svg>
