<svg width="97" height="163" viewBox="0 0 97 163" fill="none" xmlns="http://www.w3.org/2000/svg">
<g id="espania">
<g id="g7225">
<g id="g5704">
<path id="path3491" d="M48.2362 163L47.9098 162.919C47.424 162.798 35.8763 159.894 24.1317 153.352C8.34372 144.56 0 133.381 0 121.023V37.7675C0 34.2853 2.88804 31.4515 6.43942 31.4515H90.0511C93.601 31.4515 96.4905 34.2853 96.4905 37.7705V121.053C96.4905 133.65 88.1438 144.902 72.3528 153.588C60.6021 160.053 49.0485 162.809 48.5626 162.923L48.2362 163Z" fill="#FFC845"/>
<path id="path1456" d="M4.15161 35.8692V120.415C4.15161 131.606 11.5507 141.433 26.1428 149.62C36.1727 155.247 46.3455 158.114 48.2528 158.624C52.2419 157.601 92.339 146.642 92.339 120.444V35.8692H4.15161Z" fill="#E4002B"/>
</g>
<g id="g4840">
<g id="g4664">
<path id="path1460" d="M27.8689 138.629L26.6384 139.706L25.5359 138.826C25.7585 138.6 25.8713 138.382 25.8713 138.17V134.748C25.8713 134.539 25.8307 134.375 25.7374 134.271C25.6968 134.225 25.584 134.14 25.4005 134.028L25.0139 134.337L24.8364 134.158L26.0052 133.161C26.13 133.241 26.2609 133.319 26.3887 133.396C26.5497 133.491 26.652 133.588 26.7031 133.676C26.7543 133.767 26.7919 133.901 26.8219 134.079C26.849 134.25 26.8641 134.429 26.8641 134.61V138.409C26.9257 138.501 26.9724 138.56 27.004 138.597C27.1183 138.73 27.2055 138.793 27.2687 138.793C27.3003 138.793 27.374 138.739 27.4928 138.626C27.5304 138.588 27.5906 138.53 27.6718 138.445L27.8689 138.629Z" fill="#FFC845"/>
<path id="path1464" d="M31.6141 135.942C31.4878 135.423 31.2832 135.021 31.0079 134.744C30.7282 134.463 30.3055 134.237 29.7414 134.061C29.3248 134.329 29.1202 134.72 29.1202 135.235C29.1202 135.624 29.2465 135.97 29.4992 136.27C29.7519 136.569 30.0317 136.722 30.3326 136.722C30.3702 136.722 30.4108 136.718 30.4589 136.707C30.507 136.7 30.5627 136.67 30.6244 136.626L31.6141 135.942ZM32.5753 135.937C32.5753 136.662 32.3963 137.338 32.0398 137.96C31.6833 138.585 31.1328 139.162 30.3927 139.711L28.6012 138.819L29.3624 138.061L30.856 138.864C31.399 138.305 31.6713 137.511 31.6713 136.5V136.139L29.5985 137.596C28.7547 137.232 28.338 136.65 28.338 135.85C28.338 135.39 28.4914 134.944 28.8028 134.526C29.1127 134.107 29.6226 133.658 30.328 133.191C31.032 133.407 31.581 133.756 31.9781 134.237C32.3737 134.714 32.5753 135.28 32.5753 135.937" fill="#FFC845"/>
<path id="path1468" d="M67.2158 136.687C67.2158 136.039 67.0143 135.49 66.6156 135.033C66.2125 134.572 65.677 134.255 65.0047 134.074C64.7745 134.35 64.6136 134.626 64.5143 134.902C64.4165 135.184 64.3684 135.473 64.3684 135.779C64.3684 136.55 64.5714 137.208 64.9731 137.76C65.3762 138.316 65.9162 138.664 66.581 138.807C67.0022 138.313 67.2158 137.603 67.2158 136.687M67.9529 136.251C67.9529 136.919 67.7859 137.526 67.455 138.079C67.1271 138.631 66.6036 139.171 65.8891 139.715C65.1987 139.506 64.6527 139.125 64.2556 138.567C63.8615 138.015 63.6599 137.363 63.6599 136.621C63.6599 135.935 63.8329 135.302 64.1909 134.724C64.5414 134.147 65.0648 133.626 65.7598 133.157C66.5164 133.518 67.0714 133.941 67.4234 134.426C67.7754 134.915 67.9529 135.524 67.9529 136.251" fill="#FFC845"/>
<path id="path1472" d="M71.8401 135.925C71.7138 135.401 71.5107 135 71.2279 134.724C70.9482 134.439 70.521 134.213 69.9569 134.037C69.5402 134.308 69.3327 134.702 69.3327 135.216C69.3327 135.607 69.462 135.955 69.7177 136.256C69.9704 136.556 70.2517 136.708 70.5571 136.708C70.5947 136.708 70.6368 136.704 70.6849 136.696C70.7346 136.684 70.7887 136.657 70.8519 136.612L71.8401 135.925ZM72.8118 135.922C72.8118 136.654 72.6329 137.33 72.2734 137.957C71.9154 138.58 71.3603 139.166 70.6203 139.715L68.8122 138.82L69.5854 138.056L71.0835 138.862C71.6311 138.295 71.9048 137.504 71.9048 136.483V136.122L69.8155 137.591C68.9687 137.223 68.5475 136.638 68.5475 135.831C68.5475 135.37 68.7009 134.924 69.0138 134.502C69.3282 134.079 69.8381 133.635 70.5511 133.157C71.258 133.38 71.8146 133.732 72.2117 134.213C72.6118 134.69 72.8118 135.263 72.8118 135.922Z" fill="#FFC845"/>
</g>
<g id="g4658">
<path id="path1476" d="M48.2456 125.828C42.4094 125.828 37.6381 130.599 37.6381 136.436C37.6381 142.272 42.4094 147.043 48.2456 147.043C54.0819 147.043 58.8531 142.272 58.8531 136.436C58.8531 130.599 54.0819 125.828 48.2456 125.828M60.1753 136.436C60.1753 143.013 54.8234 148.365 48.2456 148.365C41.6678 148.365 36.3159 143.013 36.3159 136.436C36.3159 129.859 41.6678 124.506 48.2456 124.506C54.8234 124.506 60.1753 129.859 60.1753 136.436Z" fill="#FFC845"/>
<path id="path1480" d="M45.2414 131.762H43.5537V132.887H45.1798C45.4881 132.887 45.7153 132.843 45.8597 132.756C46.0041 132.67 46.0762 132.532 46.0762 132.342V132.305C46.0762 132.111 46.0116 131.972 45.8807 131.888C45.7513 131.804 45.5378 131.762 45.2414 131.762M43.5537 133.838V135.259H42.4421V130.81H45.273C45.8988 130.81 46.3741 130.942 46.7005 131.205C47.0254 131.469 47.1878 131.84 47.1878 132.318V132.355C47.1878 132.693 47.1081 132.982 46.9502 133.224C46.8253 133.413 46.6313 133.565 46.3696 133.68L47.3924 135.259H46.0507L45.2234 133.838H43.5537Z" fill="#FFC845"/>
<path id="path1484" d="M49.7932 135.259V130.81H54.3915V131.762H50.968V132.601H54.0576V133.516H50.968V135.259H49.7932Z" fill="#FFC845"/>
<path id="path1488" d="M49.7932 142.063V137.613H54.3915V138.564H50.968V139.405H54.0576V140.319H50.968V142.063H49.7932Z" fill="#FFC845"/>
<path id="path1492" d="M42.4418 137.613H47.2251V138.564H43.6165V139.331H46.7678V140.246H43.6165V141.111H47.2627V142.063H42.4418V137.613Z" fill="#FFC845"/>
</g>
<g id="g4746">
<g id="g4585">
<path id="path1618" d="M47.9826 43.4121H48.5046V42.5773H49.1243V42.0524H48.5046V41.3288H47.9826V42.0524H47.3629V42.5773H47.9826V43.4121Z" fill="#FFC845"/>
<path id="path1622" d="M29.6857 58.0016C29.7955 57.7684 29.9174 57.5413 30.0497 57.3217C30.0798 57.2705 30.0633 57.2314 30.0542 57.1983C29.5594 55.464 29.5548 53.9267 30.1219 52.6933C31.1688 50.4144 33.9937 49.545 37.8579 49.9421C36.9765 51.8118 37.5797 54.0771 38.4446 55.8355C38.5183 56.004 38.3483 56.2041 38.1317 56.2672C37.9783 56.3199 37.8429 56.4041 37.7301 56.5109C37.6444 56.6117 37.7346 56.6854 37.7933 56.6854C38.1437 56.711 38.419 56.9742 38.4822 57.3172C38.5529 57.7323 38.2761 58.1234 37.861 58.1941C37.518 58.2498 37.1796 58.0783 37.0382 57.7534C37.0201 57.6992 36.9193 57.6376 36.8547 57.7519C36.7689 57.9489 36.7373 58.1715 36.7764 58.3987C36.7855 58.4573 36.8171 58.5175 36.7779 58.5701C36.7479 58.6138 36.7057 58.6093 36.6591 58.6183C36.2785 58.6845 35.9762 58.9357 35.8273 59.2651C35.8047 59.3268 35.8093 59.3508 35.8498 59.402C36.0995 59.6622 36.4696 59.7976 36.8501 59.7314C36.8968 59.7239 36.9344 59.7058 36.978 59.7359C37.0321 59.772 37.0231 59.8412 37.0321 59.8983C37.0712 60.1255 37.175 60.324 37.3209 60.4805C37.4202 60.5677 37.4954 60.4759 37.4939 60.4173C37.5556 59.5719 38.8296 59.414 38.9906 60.3511C39.2403 61.8072 37.1991 62.0869 36.2093 61.2747C36.2424 61.201 36.262 61.1182 36.262 61.031C36.262 60.7016 35.9958 60.4338 35.6678 60.4338C35.3399 60.4338 35.0752 60.7016 35.0752 61.031C35.0752 61.2641 35.2091 61.4672 35.4031 61.565C35.2993 62.8691 33.401 62.9669 33.1769 61.6658C33.1483 61.4943 33.1589 61.3243 33.2025 61.1679C33.4552 61.0821 33.7229 61.1182 33.941 61.2461C34.0554 61.2927 34.1471 61.198 34.1185 61.1122C34.0869 60.9919 34.0313 60.8776 33.9546 60.7798C33.8929 60.6865 33.9771 60.6023 34.0268 60.6023C34.3442 60.5301 34.6269 60.3 34.7683 59.9826C34.7909 59.9269 34.7698 59.8968 34.7548 59.8713C34.457 59.4606 33.9591 59.4335 33.571 59.6547C33.4717 59.7163 33.3695 59.611 33.4025 59.5328C33.4432 59.3568 33.4507 59.1718 33.4191 58.9883C33.4101 58.9372 33.3679 58.9071 33.3439 58.8981C32.8761 58.7191 32.3977 58.8996 32.1014 59.2651C32.0036 59.3583 31.8878 59.2846 31.8938 59.1869C31.8577 58.6454 31.6426 58.1129 31.2455 57.6857C31.1703 57.6045 31.0515 57.4586 30.9372 57.5774C30.7221 57.809 30.5596 58.0723 30.4513 58.352C30.4152 58.4212 30.3235 58.4227 30.2753 58.3881C30.1159 58.2828 29.9384 58.2106 29.7564 58.176C29.6691 58.1475 29.6541 58.0677 29.6857 58.0016M38.6266 58.3701C38.7379 58.1625 38.9379 58.0166 39.1696 57.9775C39.4027 57.9369 39.6374 58.0076 39.8104 58.164C40.2767 58.5837 40.0601 59.3809 39.4283 59.4907C38.783 59.602 38.3348 58.9116 38.6266 58.3701M39.7487 49.1524C41.0152 47.5023 43.801 47.1203 47.4576 47.8197C47.4366 48.2845 47.405 49.3555 47.3719 50.1587C47.3313 51.138 47.1989 52.0781 46.8815 52.946C46.8635 52.9926 46.8484 53.0498 46.8484 53.0994C46.8484 53.2709 46.9883 53.4258 47.1598 53.4108C47.4697 53.3852 47.8412 53.5356 47.8412 53.9658C47.8412 54.2501 47.6712 54.4758 47.3839 54.5209C47.1974 54.5525 47.0229 54.6217 46.8725 54.7224C46.7522 54.8217 46.8424 54.927 46.9101 54.936C47.4922 55.0834 47.7555 55.7603 47.4531 56.2672C47.0395 56.9336 46.0166 56.7877 45.8256 56.0206C45.8151 55.9529 45.7113 55.8611 45.6135 55.9829C45.4751 56.192 45.3954 56.4417 45.3954 56.7125C45.3954 56.89 45.4255 56.9426 45.2179 56.9426C44.7651 56.9426 44.365 57.1728 44.1274 57.5232C44.0898 57.5909 44.0898 57.6195 44.1274 57.6857C44.3635 58.0362 44.7636 58.2663 45.2179 58.2663C45.424 58.2663 45.3954 58.3189 45.3954 58.4979C45.3954 58.7672 45.4751 59.0184 45.6135 59.2275C45.7113 59.3478 45.8151 59.2561 45.8256 59.1899C46.0512 58.2783 47.3734 58.3054 47.5674 59.229C47.8924 60.9483 44.9366 61.2521 43.9033 59.9374C44.0116 59.8291 44.0792 59.6802 44.0792 59.5148C44.0792 59.1854 43.813 58.9176 43.4851 58.9176C43.1587 58.9176 42.8924 59.1854 42.8924 59.5148C42.8924 59.7479 43.0263 59.951 43.2219 60.0488C42.5269 61.2762 40.3413 61.5725 40.1247 60.1541C40.0631 59.7569 40.2481 59.3568 40.7369 59.2726C41.0799 59.2169 41.4183 59.3899 41.5597 59.7133C41.5778 59.7675 41.6801 59.8291 41.7432 59.7148C41.8305 59.5178 41.8606 59.2952 41.823 59.068C41.8124 59.0094 41.7809 58.9492 41.82 58.8966C41.85 58.8529 41.8922 58.8574 41.9388 58.8484C42.3193 58.7837 42.6217 58.531 42.7706 58.2016C42.7932 58.1399 42.7886 58.1159 42.7465 58.0647C42.4968 57.806 42.1283 57.6706 41.7462 57.7368C41.7011 57.7443 41.6635 57.7609 41.6199 57.7323C41.5642 57.6947 41.5748 57.627 41.5642 57.5684C41.5251 57.3427 41.4213 57.1427 41.2754 56.9862C41.1762 56.899 41.1024 56.9907 41.1024 57.0494C41.0543 57.7203 40.215 57.9955 39.7712 57.4947C39.4433 57.1111 39.5667 56.5034 40.036 56.2958C40.0901 56.2778 40.1518 56.177 40.036 56.1123C39.8946 56.0491 39.7382 56.0145 39.5772 56.016C39.2989 56.001 38.9244 55.6009 39.1034 55.4114C39.3155 55.2369 39.5351 55.0759 39.7652 54.9255C39.8449 54.8729 39.8224 54.8037 39.8073 54.7661C39.0868 53.0648 38.5198 50.7529 39.7487 49.1524M49.1303 57.4721C49.1769 57.806 49.034 58.155 48.7573 58.3475C48.4594 58.5581 48.0307 58.5581 47.7329 58.3475C47.4561 58.155 47.3132 57.806 47.3599 57.4721C47.4215 57.0329 47.8006 56.705 48.2443 56.705C48.6881 56.705 49.0686 57.0314 49.1303 57.4721ZM49.3303 53.4108C49.5018 53.4258 49.6417 53.2709 49.6417 53.0994C49.6417 53.0498 49.6267 52.9926 49.6086 52.946C49.2912 52.0781 49.1363 51.138 49.1183 50.1587C49.1032 49.3796 49.0686 48.626 49.0325 47.8197C52.6892 47.1203 55.4749 47.5024 56.7415 49.1524C57.9704 50.7529 57.4033 53.0648 56.6828 54.7661C56.6678 54.8037 56.6452 54.8729 56.7249 54.9255C56.9551 55.0759 57.1747 55.2369 57.3868 55.4114C57.5658 55.6009 57.1912 56.001 56.9129 56.016C56.752 56.0145 56.5956 56.0491 56.4542 56.1123C56.3383 56.177 56.4 56.2778 56.4542 56.2958C56.9235 56.5034 57.0468 57.1111 56.7189 57.4947C56.2752 57.9955 55.4358 57.7203 55.3877 57.0494C55.3877 56.9908 55.314 56.899 55.2147 56.9862C55.0688 57.1427 54.965 57.3427 54.9259 57.5684C54.9154 57.627 54.9259 57.6947 54.8703 57.7323C54.8266 57.7609 54.789 57.7443 54.7439 57.7368C54.3618 57.6706 53.9933 57.806 53.7436 58.0647C53.7015 58.1159 53.697 58.1399 53.7196 58.2016C53.8685 58.531 54.1708 58.7837 54.5514 58.8484C54.598 58.8574 54.6401 58.8529 54.6702 58.8966C54.7093 58.9492 54.6777 59.0094 54.6672 59.068C54.6296 59.2952 54.6612 59.5178 54.7469 59.7148C54.8101 59.8291 54.9124 59.7675 54.9304 59.7133C55.2644 58.9507 56.5128 59.1944 56.3654 60.1541C56.1473 61.5725 53.9632 61.2762 53.2683 60.0488C53.4639 59.951 53.5977 59.7479 53.5977 59.5148C53.5977 59.1854 53.3315 58.9176 53.0051 58.9176C52.6772 58.9176 52.4109 59.1854 52.4109 59.5148C52.4109 59.6802 52.4786 59.8291 52.5869 59.9374C51.5535 61.2521 48.5978 60.9483 48.9227 59.229C49.1168 58.3054 50.4389 58.2783 50.6646 59.1899C50.6751 59.2561 50.7789 59.3478 50.8767 59.2275C51.015 59.0184 51.0948 58.7672 51.0948 58.4979C51.0948 58.3189 51.0662 58.2663 51.2723 58.2663C51.7265 58.2663 52.1266 58.0362 52.3628 57.6857C52.4004 57.6195 52.4004 57.5909 52.3628 57.5232C52.1251 57.1728 51.725 56.9426 51.2723 56.9426C51.0647 56.9426 51.0948 56.89 51.0948 56.7125C51.0948 56.4417 51.015 56.192 50.8767 55.9829C50.7789 55.8611 50.6751 55.9529 50.6646 56.0206C50.4735 56.7877 49.4507 56.9336 49.037 56.2672C48.7347 55.7603 48.9979 55.0834 49.5816 54.936C49.6477 54.927 49.738 54.8217 49.6177 54.7224C49.4672 54.6217 49.2927 54.5525 49.1062 54.5209C48.8189 54.4758 48.649 54.2501 48.649 53.9658C48.649 53.5356 49.0205 53.3852 49.3304 53.4108M57.8636 58.3701C58.1554 58.9116 57.7072 59.602 57.0619 59.4907C56.4301 59.3809 56.2135 58.5837 56.6798 58.164C56.8528 58.0076 57.0874 57.9369 57.3206 57.9775C57.5522 58.0166 57.7523 58.1625 57.8636 58.3701M58.008 57.3172C58.0712 56.9742 58.3464 56.711 58.6969 56.6854C58.7556 56.6854 58.8458 56.6117 58.7601 56.5109C58.6473 56.4041 58.5119 56.3199 58.3585 56.2672C58.1419 56.2041 57.9719 56.004 58.0456 55.8355C58.9105 54.0771 59.5137 51.8118 58.6322 49.9421C62.4965 49.545 65.3214 50.4144 66.3683 52.6933C66.9353 53.9267 66.9308 55.464 66.436 57.1983C66.4269 57.2314 66.4104 57.2705 66.4405 57.3217C66.5728 57.5413 66.6947 57.7684 66.8045 58.0016C66.8361 58.0677 66.821 58.1475 66.7338 58.176C66.5518 58.2106 66.3743 58.2828 66.2148 58.3881C66.1667 58.4227 66.0749 58.4212 66.0388 58.352C65.9305 58.0723 65.7681 57.809 65.553 57.5774C65.4387 57.4586 65.3198 57.6045 65.2446 57.6857C64.8475 58.1129 64.6324 58.6454 64.5963 59.1869C64.6023 59.2846 64.4865 59.3583 64.3888 59.2651C64.0924 58.8996 63.6141 58.7191 63.1463 58.8981C63.1222 58.9071 63.0801 58.9372 63.0711 58.9883C63.0395 59.1718 63.047 59.3568 63.0876 59.5328C63.1207 59.611 63.0184 59.7163 62.9192 59.6547C62.5311 59.4335 62.0332 59.4606 61.7354 59.8713C61.7203 59.8968 61.6993 59.9269 61.7218 59.9826C61.8632 60.3 62.146 60.5301 62.4634 60.6023C62.513 60.6023 62.5973 60.6865 62.5356 60.7798C62.4589 60.8776 62.4032 60.9919 62.3716 61.1122C62.3431 61.198 62.4348 61.2927 62.5491 61.2461C62.7657 61.1182 63.035 61.0821 63.2877 61.1679C63.3313 61.3243 63.3418 61.4943 63.3133 61.6658C63.0891 62.9669 61.1909 62.8691 61.0871 61.565C61.2811 61.4672 61.415 61.2641 61.415 61.031C61.415 60.7016 61.1502 60.4338 60.8223 60.4338C60.4944 60.4338 60.2282 60.7016 60.2282 61.031C60.2282 61.1182 60.2477 61.201 60.2808 61.2747C59.2911 62.0869 57.2499 61.8072 57.4996 60.3511C57.5733 59.9284 57.9147 59.6471 58.3675 59.7254C58.709 59.7885 58.9707 60.0653 58.9962 60.4173C58.9947 60.4759 59.07 60.5677 59.1692 60.4805C59.3151 60.324 59.4189 60.1255 59.458 59.8983C59.4671 59.8412 59.458 59.772 59.5122 59.7359C59.5558 59.7058 59.5934 59.7239 59.64 59.7314C60.0206 59.7976 60.3906 59.6622 60.6403 59.402C60.6809 59.3508 60.6854 59.3268 60.6629 59.2651C60.514 58.9357 60.2116 58.6845 59.8296 58.6183C59.7844 58.6093 59.7423 58.6138 59.7122 58.5701C59.6731 58.5175 59.7047 58.4573 59.7137 58.3987C59.7528 58.1715 59.7213 57.9489 59.6355 57.7519C59.5708 57.6376 59.4701 57.6992 59.452 57.7534C59.3106 58.0783 58.9722 58.2498 58.6292 58.1941C58.2141 58.1234 57.9373 57.7323 58.008 57.3172M59.8626 65.3811C59.5182 65.3811 59.2384 65.0998 59.2384 64.7539C59.2384 64.4064 59.5182 64.1266 59.8626 64.1266C60.2071 64.1266 60.4854 64.4064 60.4854 64.7539C60.4854 65.0998 60.2071 65.3811 59.8626 65.3811ZM58.0305 64.3613L56.2661 65.0427C56.212 65.0682 56.1774 65.0577 56.1383 65.0321C55.6088 64.6877 55.0793 64.3432 54.5499 63.9988C54.4927 63.9702 54.4611 63.8498 54.5709 63.8017L56.3428 63.1173C56.394 63.1008 56.4 63.0963 56.4617 63.1368C56.9881 63.4783 57.5131 63.8213 58.0396 64.1627C58.1027 64.2033 58.1403 64.2815 58.0305 64.3613M52.3282 64.5959C51.9266 64.5959 51.6002 64.2695 51.6002 63.8649C51.6002 63.4617 51.9266 63.1338 52.3282 63.1338C52.7298 63.1338 53.0547 63.4617 53.0547 63.8649C53.0547 64.2695 52.7298 64.5959 52.3282 64.5959ZM50.0764 63.7701C49.4883 64.0709 48.9001 64.3718 48.312 64.6741C48.2624 64.7027 48.2278 64.7027 48.1781 64.6741C47.59 64.3718 47.0019 64.0709 46.4137 63.7701C46.3265 63.719 46.3325 63.5986 46.4242 63.5625C47.0109 63.2632 47.596 62.9639 48.1811 62.6645C48.2428 62.6329 48.2473 62.6329 48.309 62.6645C48.8941 62.9639 49.4792 63.2632 50.0659 63.5625C50.1682 63.6062 50.1561 63.731 50.0764 63.7701M44.1619 64.5959C43.7603 64.5959 43.4354 64.2695 43.4354 63.8649C43.4354 63.4617 43.7603 63.1338 44.1619 63.1338C44.5636 63.1338 44.89 63.4617 44.89 63.8649C44.89 64.2695 44.5636 64.5959 44.1619 64.5959M41.9403 63.9987C41.4108 64.3432 40.8813 64.6877 40.3518 65.0321C40.3127 65.0577 40.2781 65.0682 40.224 65.0426L38.4596 64.3612C38.3558 64.3221 38.3528 64.2138 38.4506 64.1627C38.977 63.8212 39.502 63.4783 40.0284 63.1368C40.0901 63.0962 40.0961 63.1007 40.1473 63.1173L41.9192 63.8017C42.02 63.8363 42.0215 63.9566 41.9403 63.9988M36.6275 65.3811C36.283 65.3811 36.0047 65.0998 36.0047 64.7539C36.0047 64.4064 36.283 64.1266 36.6275 64.1266C36.9719 64.1266 37.2517 64.4064 37.2517 64.7539C37.2517 65.0998 36.9719 65.3811 36.6275 65.3811ZM28.8404 58.1881C28.8479 58.2362 28.8584 58.2798 28.7907 58.331C28.4703 58.51 28.2282 58.8093 28.1199 59.1628C28.0913 59.223 28.1289 59.3538 28.2748 59.3177C29.1382 58.9311 30.1279 59.4862 30.2678 60.4143C30.2859 60.497 30.3641 60.5436 30.4543 60.4895C31.2034 59.9359 32.1827 60.7617 31.7991 61.5951C31.781 61.6327 31.781 61.6973 31.8427 61.7455C33.7305 62.9639 34.9774 64.9765 35.2121 67.2267C35.2196 67.2944 35.2978 67.3441 35.3625 67.326C42.8895 65.1194 53.6008 65.1194 61.1277 67.326C61.1924 67.3441 61.2706 67.2944 61.2781 67.2267C61.5143 64.9765 62.7597 62.9639 64.6475 61.7455C64.7092 61.6973 64.7092 61.6327 64.6911 61.5951C64.3075 60.7617 65.2868 59.9359 66.0359 60.4895C66.1261 60.5436 66.2043 60.497 66.2224 60.4143C66.3623 59.4862 67.352 58.9311 68.2154 59.3177C68.3613 59.3538 68.3989 59.223 68.3704 59.1628C68.2621 58.8093 68.0199 58.51 67.6995 58.331C67.6318 58.2798 67.6423 58.2362 67.6498 58.1881C68.062 57.3036 68.3327 56.4252 68.4365 55.5693C68.9871 51.0372 64.7031 48.6711 58.4548 49.6037C57.0844 47.2857 53.524 46.4975 48.9769 47.4903C48.9197 47.0737 48.9468 46.3155 48.2443 46.3155C47.5449 46.3155 47.5344 47.0496 47.5133 47.4903C42.9662 46.4975 39.4058 47.2857 38.0354 49.6037C31.7871 48.6711 27.5031 51.0372 28.0537 55.5693C28.1575 56.4252 28.4282 57.3036 28.8404 58.1881Z" fill="#FFC845"/>
<path id="path1626" d="M47.9932 43.6457C47.5374 43.745 47.1824 44.112 47.0967 44.5738H47.9932V43.6457Z" fill="#FFC845"/>
<path id="path1630" d="M48.4979 43.6457V44.5738H49.3944C49.3087 44.112 48.9537 43.745 48.4979 43.6457Z" fill="#FFC845"/>
<path id="path1634" d="M48.2455 45.9571C48.8081 45.9571 49.2789 45.5585 49.3902 45.029H47.1008C47.2121 45.5585 47.683 45.9571 48.2455 45.9571Z" fill="#FFC845"/>
</g>
<g id="g4578">
<path id="path1638" d="M81.3727 71.7134C81.3727 71.4802 81.1847 71.2922 80.9531 71.2922H75.371C75.1394 71.2922 74.9529 71.4802 74.9529 71.7134C74.9529 71.8939 75.0642 72.0458 75.2236 72.106H75.2206C75.4673 72.2158 75.6012 72.5663 75.6012 72.9348C75.6012 73.2913 75.4463 73.6463 75.2011 73.7621H75.2026C75.0552 73.8403 74.9529 74.0133 74.9529 74.2179C74.9529 74.4916 75.1394 74.7142 75.371 74.7142H80.9486C81.1802 74.7142 81.3682 74.4916 81.3682 74.2179C81.3682 74.0178 81.269 73.8478 81.1276 73.7681C81.1306 73.7711 81.1336 73.7711 81.1366 73.7726C80.9019 73.6493 80.7335 73.3229 80.7335 72.9348C80.7335 72.5467 80.9155 72.2053 81.1531 72.0849C81.1486 72.0864 81.1441 72.0864 81.1411 72.0879C81.278 72.0187 81.3727 71.8773 81.3727 71.7134" fill="#FFC845"/>
<path id="path1640" d="M74.1278 113.759H82.2444V111.453H74.1278V113.759Z" fill="#FFC845"/>
<path id="path1644" d="M78.8605 81.7498C79.4998 81.8415 80.1285 81.9634 80.7377 82.1108V75.4487H75.5874V81.5287C76.8058 81.5437 77.955 81.6219 78.8605 81.7498" fill="#FFC845"/>
<path id="path1648" d="M75.7988 96.9297C75.7312 96.8936 75.659 96.853 75.5868 96.8139V107.9C75.5868 109.055 75.3972 109.78 75.0874 110.263C74.9761 110.437 75.0483 110.657 75.2258 110.657H81.0755C81.256 110.657 81.3598 110.43 81.256 110.264C80.9507 109.778 80.7386 109.002 80.7386 107.9V99.3409C79.2314 98.7046 77.5211 97.8713 75.7988 96.9297" fill="#FFC845"/>
<path id="path1652" d="M74.9315 89.1988C74.0094 89.259 73.0407 89.5748 72.5985 89.9328L72.9294 90.2623C73.3792 90.706 74.0576 91.3122 74.9315 91.8793V89.1988Z" fill="#FFC845"/>
<path id="path1656" d="M82.0186 115.825C81.4515 115.719 80.9912 115.545 80.546 115.378C79.842 115.112 79.1125 114.836 78.0009 114.836C76.9269 114.836 76.2079 115.109 75.5115 115.373C75.0677 115.542 74.609 115.716 74.0449 115.822C73.3695 115.948 72.6806 115.805 72.2248 115.71C72.0142 115.667 71.8608 115.637 71.7375 115.637L71.736 116.449C71.7826 116.449 71.936 116.481 72.0594 116.506C72.5467 116.608 73.362 116.775 74.1953 116.62C74.8301 116.502 75.3234 116.314 75.8003 116.133C76.4847 115.873 77.0758 115.649 78.0009 115.649C78.9636 115.649 79.5938 115.886 80.2602 116.138C80.737 116.318 81.2319 116.505 81.8697 116.623C82.1133 116.669 82.351 116.687 82.5781 116.687C83.1151 116.687 83.5935 116.587 83.9469 116.514C84.0959 116.482 84.2658 116.449 84.3275 116.449V115.637C84.1831 115.637 84.0056 115.671 83.7815 115.718C83.3167 115.814 82.6774 115.947 82.0186 115.825" fill="#FFC845"/>
<path id="path1660" d="M82.0186 117.669C81.4515 117.564 80.9912 117.389 80.5475 117.222C79.842 116.956 79.1125 116.681 78.0009 116.681C76.9269 116.681 76.2079 116.953 75.5115 117.218C75.0677 117.386 74.609 117.561 74.0449 117.666C73.3695 117.794 72.6806 117.649 72.2248 117.554C72.0142 117.512 71.8608 117.481 71.7375 117.481L71.736 118.293C71.7826 118.293 71.936 118.325 72.0594 118.35C72.5467 118.452 73.362 118.621 74.1953 118.465C74.8301 118.346 75.3234 118.158 75.8003 117.977C76.4847 117.717 77.0758 117.493 78.0009 117.493C78.9636 117.493 79.5938 117.73 80.2602 117.982C80.7385 118.162 81.2319 118.349 81.8697 118.468C82.1133 118.513 82.351 118.531 82.5781 118.531C83.1151 118.531 83.595 118.431 83.9469 118.358C84.0959 118.328 84.2658 118.293 84.3275 118.293V117.481C84.1831 117.481 84.0056 117.515 83.783 117.564C83.3167 117.66 82.6774 117.792 82.0186 117.669" fill="#FFC845"/>
<path id="path1664" d="M82.0186 119.387C81.4515 119.281 80.9912 119.107 80.546 118.94C79.842 118.674 79.1125 118.397 78.0009 118.397C76.9269 118.397 76.2079 118.671 75.5115 118.935C75.0692 119.104 74.609 119.278 74.0449 119.384C73.3695 119.512 72.6806 119.367 72.2248 119.272C72.0142 119.229 71.8608 119.197 71.7375 119.197L71.736 120.009C71.7826 120.011 71.936 120.043 72.0594 120.068C72.5467 120.169 73.362 120.339 74.1953 120.182C74.8301 120.064 75.3234 119.876 75.8003 119.695C76.4847 119.435 77.0758 119.209 78.0009 119.209C78.9636 119.209 79.5938 119.448 80.2602 119.7C80.737 119.88 81.2319 120.067 81.8697 120.185C82.1133 120.231 82.351 120.249 82.5781 120.249C83.1151 120.249 83.5935 120.149 83.9469 120.076C84.0959 120.044 84.2658 120.009 84.3275 120.009V119.197C84.1831 119.197 84.0056 119.233 83.783 119.28C83.3152 119.378 82.6774 119.51 82.0186 119.387" fill="#FFC845"/>
<path id="path1668" d="M80.7379 94.8482V87.5183C79.8609 87.225 78.8682 86.9888 77.7987 86.8565C77.1113 86.7707 76.3562 86.7181 75.5875 86.6985V92.1828C75.8628 92.3543 76.1366 92.5182 76.3938 92.6686C77.91 93.5561 79.4172 94.3082 80.7379 94.8482" fill="#FFC845"/>
<path id="path1672" d="M72.0645 93.6334C72.457 94.3554 78.8905 98.0723 83.057 99.4531C83.0134 99.2696 82.9653 99.0651 82.9126 98.8469C82.6855 97.8993 82.4072 96.7411 82.2839 96.159C80.5962 95.6746 78.3279 94.6367 76.0295 93.292C74.7133 92.5233 73.1505 91.4975 72.4209 90.774L72.0645 93.6334Z" fill="#FFC845"/>
<path id="path1676" d="M80.6772 84.2404C80.6907 84.1878 80.6967 84.1351 80.6967 84.0689C80.6997 83.8222 80.4515 83.7666 80.2124 83.7109L80.1928 83.7079L79.9852 84.5668C80.1883 84.6255 80.3507 84.6225 80.4681 84.5578C80.5704 84.5006 80.6396 84.3938 80.6772 84.2404V84.2404Z" fill="#FFC845"/>
<path id="path1680" d="M83.375 86.1273L83.4156 85.3992L82.814 85.8385L83.375 86.1273Z" fill="#FFC845"/>
<path id="path1684" d="M84.0231 87.7092L83.9584 87.6701C83.8471 87.6054 83.4079 87.3783 83.2966 87.3302L83.265 87.3166L83.2725 87.2655C83.3071 87.0022 83.3402 86.7541 83.3508 86.5014L82.5009 86.0621C82.4377 86.1148 82.376 86.1644 82.3174 86.211C82.17 86.3299 82.0316 86.4412 81.9007 86.566L81.8767 86.5886L81.8466 86.5721C81.7864 86.5375 81.5427 86.4126 81.4826 86.384L81.4119 86.3524L83.7945 84.6347L83.8201 84.6527C83.8667 84.6843 83.9103 84.7114 83.957 84.7354C84.0021 84.7595 84.0472 84.7791 84.1044 84.8001L84.1345 84.8122L84.0231 87.7092ZM81.1908 86.2983C81.0659 86.2622 80.5515 86.1403 80.4251 86.1163L80.3996 86.1118L80.0641 85.2303C80.0401 85.1656 80.0039 85.0769 79.9663 84.9836C79.9498 84.9415 79.9317 84.8979 79.9152 84.8558L79.652 85.9388L79.6068 85.9237C79.5 85.8922 79.0789 85.7929 78.9751 85.7748L78.9269 85.7658L79.5346 83.2583L80.5409 83.4945C80.744 83.5426 81.0208 83.6073 81.1727 83.7231C81.4119 83.9021 81.4991 84.1112 81.4374 84.3609C81.3592 84.6873 81.0689 84.8753 80.6538 84.8753H80.6432C80.7575 85.1641 80.8899 85.4514 81.0178 85.7297C81.0554 85.8124 81.093 85.8952 81.1306 85.9779L81.2825 86.3254L81.1908 86.2983ZM78.8277 83.4554C78.599 83.4118 78.3629 83.3651 78.1222 83.3411L77.9086 85.5627L77.8605 85.5552C77.7537 85.5372 77.319 85.4966 77.2137 85.4951L77.1655 85.4936L77.3791 83.2704C77.0888 83.2463 76.8316 83.2463 76.6135 83.2493L76.5533 83.2508L76.5699 83.1921C76.5819 83.1485 76.6015 82.947 76.5985 82.9018L76.5939 82.8477L78.9435 83.0688L78.93 83.1215C78.9164 83.1651 78.8984 83.3666 78.9014 83.4118L78.9059 83.4704L78.8277 83.4554ZM76.4646 85.3522L76.4721 85.4048L74.7152 85.3612L74.7799 82.7996L74.828 82.8041C74.9378 82.8131 75.3756 82.8236 75.4779 82.8206L75.526 82.8176L75.4703 85.0288C75.8208 85.0348 76.1216 85.0197 76.424 85.0017L76.4826 84.9972L76.4706 85.0543C76.4616 85.101 76.4571 85.3055 76.4646 85.3522M73.9526 83.1109C73.6939 83.8765 73.4277 84.6662 73.2186 85.465L73.2096 85.4966L73.1765 85.4981C73.1178 85.4996 72.8741 85.5372 72.8185 85.5507L72.7869 85.5597L72.7688 85.5312C72.3341 84.8407 71.8603 84.1353 71.2346 83.2463L71.1894 83.1816L71.2677 83.1741C71.3865 83.1651 71.8949 83.0899 72.0228 83.0628L72.0559 83.0568L72.0724 83.0869C72.28 83.4734 72.5312 83.857 72.7748 84.2285C72.8696 84.3729 72.9629 84.5173 73.0561 84.6632C73.2186 84.1548 73.4171 83.5095 73.563 82.8642L73.5706 82.8311L73.6051 82.8296C73.6698 82.8266 73.9346 82.7875 73.9932 82.7725L74.0745 82.7499L73.9526 83.1109ZM86.0658 85.6064C85.2235 84.4421 82.4422 82.9876 78.7585 82.4656C77.7161 82.3167 76.4165 82.2475 75.1244 82.2475C73.0937 82.2475 71.2571 82.3528 70.2944 82.6597V86.4668C71.4 86.1027 73.0441 85.9674 74.9409 85.9674C75.9321 85.9674 76.9459 86.0215 77.8876 86.1388C80.8854 86.5119 83.793 87.7724 84.8008 89.1397C84.8745 89.242 84.9392 89.3413 84.9903 89.4405C85.5724 88.1334 86.2599 86.5811 86.326 86.3885C86.3621 86.1584 86.2749 85.8952 86.0658 85.6064" fill="#FFC845"/>
<path id="path1688" d="M84.2194 89.5682C83.9201 89.1621 83.3455 88.7139 82.5633 88.2957C82.1948 88.3393 81.8263 88.3784 81.3931 88.3784V91.7027C83.2417 91.5643 84.421 91.0499 84.5654 90.2481C84.5684 90.2316 84.5669 90.2165 84.5684 90.2L84.3488 89.7728C84.3142 89.7081 84.2706 89.6389 84.2194 89.5682" fill="#FFC845"/>
<path id="path1692" d="M77.6181 67.0877V63.5032C77.5294 63.4491 77.4361 63.41 77.3413 63.3859C77.2601 63.3664 77.1774 63.3558 77.0932 63.3558C76.6961 63.3558 76.3335 63.5875 76.1636 63.95C76.1801 63.9981 76.1952 64.0448 76.2132 64.0899C76.5366 64.9443 77.0465 66.1972 77.4241 67.1178C77.4888 67.1058 77.5534 67.0967 77.6181 67.0877" fill="#FFC845"/>
<path id="path1696" d="M73.8732 64.91C73.8942 64.9476 73.9183 64.9867 73.9439 65.0243C74.3304 65.6079 74.9141 66.5179 75.6767 67.7273C75.8331 67.6416 75.9971 67.5619 76.164 67.4896C75.803 66.6127 75.3172 65.4154 74.9908 64.5565C74.9833 64.5384 74.9772 64.5204 74.9712 64.5023C74.9682 64.5023 74.9637 64.5008 74.9607 64.5008C74.881 64.4798 74.7983 64.4707 74.7125 64.4707C74.3831 64.4707 74.0657 64.6377 73.8732 64.91" fill="#FFC845"/>
<path id="path1700" d="M80.9665 67.6928C81.7201 66.5 82.2962 65.602 82.6783 65.0244C82.6978 64.9943 82.7159 64.9643 82.7309 64.9387C82.5414 64.6484 82.215 64.4694 81.8705 64.4694C81.7968 64.4694 81.7246 64.4784 81.6539 64.4934C81.6464 64.5145 81.6389 64.534 81.6314 64.5566C81.314 65.3899 80.8296 66.5842 80.4686 67.4627C80.6401 67.5319 80.8071 67.6101 80.9665 67.6928" fill="#FFC845"/>
<path id="path1704" d="M78.0789 61.1973C78.1526 61.1672 78.2308 61.1537 78.3105 61.1537C78.3917 61.1537 78.4699 61.1672 78.5421 61.1973V60.361H79.1784V59.8932H78.5421V59.1727H78.0789V59.8932H77.4441V60.361H78.0789V61.1973Z" fill="#FFC845"/>
<path id="path1708" d="M74.984 68.287C75.0697 68.2223 75.1599 68.1576 75.2577 68.09C75.2953 68.0644 75.3344 68.0403 75.3735 68.0163C74.835 67.1619 74.095 65.9961 73.6016 65.2501C73.5851 65.2245 73.57 65.1989 73.555 65.1718L73.5354 65.1357C73.1714 64.516 73.1654 63.8767 73.5189 63.4691C73.731 63.2239 74.0469 63.0946 74.4289 63.0946C74.5432 63.0946 74.6666 63.1081 74.7975 63.1337C74.796 62.9607 74.811 62.7952 74.8396 62.6403C74.6997 62.6147 74.5643 62.6027 74.4365 62.6027C73.9205 62.6027 73.4527 62.8012 73.1519 63.1472C72.6254 63.7534 72.6435 64.686 73.1955 65.5208C73.6889 66.2684 74.438 67.4341 74.984 68.287" fill="#FFC845"/>
<path id="path1712" d="M75.1198 63.3066C75.1198 63.3247 75.1213 63.3427 75.1228 63.3623C75.1243 63.3833 75.1273 63.4044 75.1303 63.427L75.1348 63.4586C75.1694 63.7639 75.2507 64.0843 75.374 64.4107L75.3935 64.4603C75.7215 65.3238 76.2178 66.5452 76.5804 67.4251C76.7248 67.3755 76.8797 67.3303 77.0512 67.2882C76.6856 66.4008 76.1847 65.1688 75.8508 64.2919L75.8298 64.2362C75.7064 63.9143 75.6327 63.603 75.6087 63.3142C75.6026 63.239 75.6026 63.1698 75.6026 63.1111C75.6026 63.0208 75.6102 62.9336 75.6222 62.8509L75.6282 62.8118C75.6327 62.7862 75.6357 62.7651 75.6402 62.7456C75.6462 62.717 75.6538 62.6914 75.6613 62.6659L75.6658 62.6523C75.735 62.4237 75.8523 62.2447 76.0148 62.1213C76.1832 61.9935 76.3968 61.9258 76.636 61.9258C76.9714 61.9258 77.352 62.0597 77.7115 62.3034V61.7333C77.352 61.5392 76.9789 61.4369 76.633 61.4369C76.2885 61.4369 75.9726 61.5392 75.7199 61.7303C75.4793 61.9153 75.3078 62.165 75.2085 62.4748C75.201 62.4944 75.1965 62.5154 75.1905 62.5365L75.1754 62.5922C75.1709 62.6087 75.1664 62.6253 75.1619 62.6433C75.1213 62.8313 75.1063 63.0404 75.1183 63.2675L75.1198 63.3066Z" fill="#FFC845"/>
<path id="path1716" d="M82.1928 63.0944C82.5749 63.0944 82.8893 63.2238 83.1029 63.4704C83.4684 63.8901 83.4518 64.5474 83.0593 65.1822C83.0547 65.1912 83.0502 65.2002 83.0442 65.2093C83.0367 65.2228 83.0292 65.2364 83.0202 65.2499C82.6321 65.838 82.0439 66.7541 81.2738 67.974C81.3054 67.992 81.3385 68.0116 81.3701 68.0311C81.4724 68.0973 81.5777 68.1695 81.6799 68.2447C82.2094 67.4054 82.9374 66.2592 83.4263 65.5206C83.9783 64.6858 83.9964 63.7532 83.4699 63.147C83.1706 62.8011 82.7013 62.6025 82.1853 62.6025C82.0575 62.6025 81.9221 62.6161 81.7822 62.6401C81.8108 62.7951 81.8258 62.962 81.8243 63.1335C81.9552 63.1079 82.0785 63.0944 82.1929 63.0944" fill="#FFC845"/>
<path id="path1720" d="M80.4406 63.9971C80.2826 63.612 79.9021 63.3563 79.4899 63.3563C79.4072 63.3563 79.323 63.3668 79.2417 63.3864C79.1605 63.4059 79.0808 63.4375 79.0026 63.4811V67.0761C79.0687 67.0851 79.1349 67.0942 79.2026 67.1047C79.7321 65.8171 80.1488 64.7762 80.409 64.0903C80.421 64.0587 80.43 64.0286 80.4406 63.9971" fill="#FFC845"/>
<path id="path1724" d="M78.9104 62.3041C79.2684 62.0589 79.649 61.9266 79.9859 61.9266C80.2236 61.9266 80.4387 61.9928 80.6071 62.1206C80.7696 62.2455 80.8869 62.4245 80.9561 62.6516L80.9591 62.6651C80.9681 62.6922 80.9756 62.7178 80.9817 62.7448C80.9862 62.7674 80.9907 62.79 80.9937 62.8125L80.9982 62.8426C81.0117 62.9314 81.0178 63.0186 81.0193 63.1104C81.0193 63.16 81.0193 63.2352 81.0132 63.3134C80.9892 63.6037 80.9155 63.9136 80.7921 64.237L80.7395 64.3739C80.4056 65.2448 79.9242 66.4271 79.5768 67.2754C79.7482 67.3146 79.9047 67.3567 80.0506 67.4048C80.4131 66.5218 80.911 65.2959 81.2404 64.431L81.2479 64.4115C81.3712 64.0866 81.4525 63.7662 81.4871 63.4593L81.4916 63.4232C81.4946 63.4022 81.4976 63.3826 81.4991 63.3631C81.5006 63.3435 81.5006 63.3255 81.5021 63.3074L81.5036 63.2683C81.5156 63.0412 81.5006 62.8306 81.46 62.6441C81.4555 62.623 81.4495 62.605 81.4449 62.5869L81.4314 62.5373C81.4254 62.5147 81.4194 62.4937 81.4134 62.4741C81.3141 62.1642 81.1426 61.9145 80.9005 61.731C80.6493 61.5385 80.3334 61.4377 79.9889 61.4377C79.643 61.4377 79.2699 61.54 78.9104 61.7325L78.9104 62.3041Z" fill="#FFC845"/>
<path id="path1728" d="M78.5912 61.6996C78.5897 61.6755 78.5837 61.6515 78.5747 61.6304C78.5341 61.5356 78.4273 61.471 78.3115 61.471C78.1941 61.471 78.0873 61.5356 78.0467 61.6304C78.0377 61.6514 78.0317 61.6755 78.0302 61.7011L78.0287 67.1402C78.2092 67.1282 78.4168 67.1267 78.5928 67.1372L78.5912 61.6996Z" fill="#FFC845"/>
<path id="path1732" d="M81.1511 68.3532C81.1195 68.3321 81.0939 68.3186 81.0669 68.3021L80.9977 68.2614C80.9766 68.2494 80.9556 68.2374 80.9345 68.2253L80.8999 68.2028C80.8834 68.1938 80.8713 68.1863 80.8593 68.1802C80.6337 68.0554 80.393 67.9441 80.1403 67.8493L80.1057 67.8358C80.0846 67.8268 80.0726 67.8208 80.0591 67.8177L79.9763 67.7892C79.7913 67.7275 79.5928 67.6733 79.3837 67.6297L79.2558 67.6011C79.2363 67.5966 79.2227 67.5936 79.2092 67.5906C79.0934 67.5696 78.97 67.5545 78.8286 67.5395L78.7655 67.535C78.7309 67.532 78.7173 67.532 78.7038 67.5305C78.6827 67.5305 78.6677 67.5305 78.6526 67.529L78.612 67.5259C78.4045 67.5139 78.2405 67.5109 77.9713 67.532L77.8825 67.538C77.869 67.5395 77.8569 67.541 77.8449 67.5425C77.8239 67.547 77.8088 67.5485 77.7938 67.55C77.6524 67.5665 77.529 67.5831 77.4207 67.6042C77.4072 67.6072 77.3936 67.6102 77.3816 67.6132L77.2462 67.6433C77.0236 67.6929 76.8311 67.747 76.6581 67.8087L76.4941 67.8734C76.246 67.9727 76.0083 68.087 75.7887 68.2148L75.5811 68.3427C75.542 68.3668 75.5134 68.3848 75.4848 68.4044C75.4036 68.4585 75.2532 68.5307 75.178 68.5864L76.0895 69.8935C76.103 69.9131 76.1226 69.9236 76.1467 69.9236C76.1482 69.9236 76.1557 69.9221 76.1707 69.9176C76.3242 69.8349 76.4776 69.7597 76.6385 69.692L76.7258 69.6559C77.2492 69.4483 77.7983 69.343 78.3548 69.343C78.8843 69.343 79.3897 69.4438 79.8996 69.6529L79.9312 69.6664C79.9492 69.6724 79.9673 69.6799 79.9869 69.6874C80.1478 69.7581 80.3072 69.8379 80.4622 69.9251C80.4862 69.9341 80.4968 69.9356 80.4998 69.9356C80.5223 69.9356 80.5419 69.9236 80.5554 69.9055L81.4775 68.5503C81.3948 68.4901 81.2459 68.4134 81.1511 68.3532" fill="#FFC845"/>
</g>
<g id="g4651">
<path id="path1496" d="M47.7664 115.118C47.7664 114.581 47.9875 114.095 48.3395 113.755C48.693 114.095 48.9111 114.581 48.9111 115.118C48.9111 115.657 48.6915 116.141 48.338 116.481C47.986 116.141 47.7664 115.657 47.7664 115.118M50.2739 116.63C49.4977 116.741 48.7501 117.46 48.5817 117.632C48.5847 117.565 48.5862 117.501 48.5862 117.439C48.5862 117.092 48.4628 116.694 48.4478 116.646C49.4406 116.595 50.1912 115.956 50.1912 115.118C50.1912 114.449 49.8166 113.877 49.0796 113.647C49.0796 113.647 49.0961 113.466 49.1292 113.382C49.1608 113.298 49.2089 113.127 49.2089 113.127C49.2089 113.127 49.042 113.17 48.9126 113.223C48.7817 113.275 48.6313 113.403 48.6313 113.403C48.6313 113.403 48.5997 113.286 48.5456 113.191C48.4914 113.095 48.329 112.952 48.329 112.952C48.329 112.952 48.1891 113.026 48.0808 113.148C47.9725 113.269 47.8973 113.424 47.8973 113.424C47.8973 113.424 47.789 113.319 47.628 113.254C47.4656 113.191 47.1843 113.244 47.1843 113.244C47.1843 113.244 47.3362 113.403 47.4114 113.489C47.4746 113.6 47.4987 113.67 47.4987 113.67C46.7646 113.722 46.4111 114.459 46.4111 115.118C46.4111 115.947 47.1843 116.585 48.1665 116.645C48.1725 116.684 48.2372 117.057 48.2192 117.439C48.2177 117.477 48.2147 117.513 48.2117 117.55C47.9559 117.374 46.8774 116.649 46.3765 116.54C45.6455 116.38 44.8242 116.509 44.4692 116.49C44.4798 116.499 44.8949 116.809 45.0784 116.998C45.2604 117.189 45.8696 117.568 46.2141 117.659C47.1256 117.898 47.974 117.678 48.2056 117.609C48.1515 118.041 47.983 118.477 47.983 118.477C47.983 118.477 48.1981 118.402 48.2628 118.37C48.3275 118.339 48.523 118.307 48.523 118.307C48.523 118.307 48.5636 117.984 48.5802 117.663C48.6418 117.654 48.7727 117.633 48.8705 117.62C49.0028 117.598 49.7971 117.689 50.5176 117.678C51.2381 117.669 51.7074 117.259 51.8909 117.129C52.0729 116.998 52.4174 116.83 52.4083 116.83C52.0022 116.719 51.3178 116.479 50.2739 116.63" fill="#FFC845"/>
<g id="g4594">
<path id="path1536" d="M58.3114 73.0296C59.0725 73.2853 59.981 73.9817 60.4278 74.6496C60.8053 74.3743 61.5078 74.1652 61.95 74.4014C61.9575 74.4074 61.9665 74.4089 61.9771 74.3999C62.0463 74.3247 61.8282 74.0043 61.6883 73.9953C61.6838 73.9953 61.6717 74.0028 61.6657 74.0088C61.6281 74.0359 61.5379 74.1021 61.4867 74.1397C61.4762 74.1472 61.4656 74.1367 61.4672 74.1246C61.4762 74.075 61.4882 74.0268 61.5003 73.9787C61.5033 73.9697 61.5048 73.9592 61.4988 73.9516C61.3784 73.8223 61.1663 73.8885 61.1438 74.063C61.1423 74.072 61.1513 74.081 61.1573 74.087C61.2009 74.1246 61.2235 74.1457 61.2686 74.1863C61.2852 74.2028 61.2596 74.2239 61.2355 74.2239C61.1468 74.2269 60.9768 74.245 60.9076 74.1667C60.8685 74.1216 60.858 74.0614 60.876 74.0073C60.879 73.9968 60.873 73.9892 60.8625 73.9907C60.8204 73.9923 60.7768 73.9757 60.7452 73.9411C60.6534 73.8388 60.7391 73.7561 60.8068 73.6869C60.8204 73.6749 60.8505 73.6538 60.8565 73.6764C60.867 73.7215 60.879 73.7696 60.8941 73.8193C60.8971 73.8283 60.8986 73.8388 60.9091 73.8433C61.0731 73.9065 61.2355 73.7426 61.1708 73.5786C61.1678 73.5711 61.1558 73.5651 61.1468 73.5636C61.1122 73.556 61.055 73.541 61.0024 73.5275C60.9918 73.5245 60.9858 73.5079 60.9978 73.5034C61.0625 73.4703 61.1498 73.4282 61.1964 73.4056C61.2039 73.4011 61.2159 73.3951 61.219 73.3906C61.2491 73.3184 61.231 73.2311 61.1723 73.1725C61.1122 73.1153 61.0249 73.0958 60.9542 73.1289C60.9482 73.1304 60.9437 73.1439 60.9407 73.1514C60.9106 73.2176 60.8685 73.3018 60.8429 73.3515C60.8384 73.362 60.8219 73.356 60.8189 73.3455C60.8084 73.3124 60.7918 73.2522 60.7813 73.2011C60.7798 73.192 60.7753 73.183 60.7662 73.1785C60.6038 73.1123 60.4398 73.2793 60.5045 73.4432C60.5075 73.4507 60.5195 73.4553 60.5271 73.4568C60.5782 73.4703 60.6249 73.4823 60.6715 73.4944C60.6955 73.4989 60.6745 73.5305 60.661 73.5425C60.5722 73.6313 60.4745 73.735 60.3391 73.6313C60.2774 73.5846 60.2518 73.5034 60.2714 73.4312C60.2729 73.4267 60.2684 73.4222 60.2624 73.4237C60.2037 73.4462 60.133 73.4387 60.0789 73.3966C59.9224 73.2778 60.0367 73.1424 60.1165 73.0326C60.127 73.0175 60.1541 72.9935 60.1631 73.0145C60.1826 73.0612 60.2052 73.1168 60.2187 73.1529C60.2218 73.1604 60.2263 73.171 60.2368 73.174C60.4053 73.2236 60.5527 73.0296 60.4624 72.8777C60.4564 72.8701 60.4474 72.8686 60.4384 72.8671C60.3962 72.8626 60.3391 72.8551 60.2909 72.8491C60.2789 72.8476 60.2684 72.834 60.2819 72.825C60.2939 72.8175 60.4113 72.7393 60.4654 72.7032C60.473 72.6971 60.485 72.6911 60.4865 72.6851C60.5391 72.5166 60.3421 72.3677 60.1917 72.4595C60.1872 72.4625 60.1826 72.476 60.1796 72.4835C60.1586 72.5482 60.1195 72.6716 60.1104 72.6941C60.1059 72.7062 60.0894 72.7032 60.0849 72.6911C60.0819 72.6851 60.0503 72.6084 60.0307 72.5527C60.0277 72.5452 60.0217 72.5347 60.0112 72.5332C59.8412 72.4896 59.6938 72.6791 59.7855 72.828C59.7916 72.837 59.8036 72.8385 59.8096 72.84C59.8668 72.8461 59.9465 72.8566 59.9585 72.8581C59.9796 72.8596 59.9645 72.8927 59.9525 72.9077C59.8683 73.013 59.7675 73.1574 59.6111 73.0386C59.5569 72.998 59.5313 72.9318 59.5374 72.8686C59.5374 72.8626 59.5313 72.8596 59.5268 72.8611C59.4621 72.9002 59.3794 72.8972 59.3162 72.8476C59.1824 72.7468 59.2546 72.6234 59.3177 72.5151C59.3268 72.4986 59.3478 72.473 59.3629 72.4911C59.393 72.5302 59.42 72.5904 59.4351 72.6219C59.4396 72.6295 59.4441 72.6385 59.4561 72.64C59.6306 72.6596 59.7419 72.464 59.6426 72.3181C59.6366 72.3106 59.6246 72.3091 59.6171 72.3091C59.5599 72.3106 59.5133 72.3106 59.4681 72.3106C59.4531 72.3106 59.4471 72.2971 59.4561 72.288C59.5043 72.2444 59.602 72.1617 59.6231 72.1436C59.6291 72.1376 59.6411 72.1301 59.6411 72.1241C59.6517 72.0458 59.6141 71.9661 59.5419 71.9255C59.4697 71.8834 59.3794 71.8864 59.3207 71.9375C59.3147 71.942 59.3132 71.9541 59.3117 71.9631C59.3027 72.0263 59.2816 72.1241 59.2696 72.1797C59.2666 72.1917 59.2486 72.1902 59.244 72.1812C59.2305 72.1572 59.1944 72.0955 59.1703 72.0519C59.1673 72.0428 59.1613 72.0338 59.1508 72.0323C58.9763 72.0127 58.8605 72.2128 58.9643 72.3542C58.9718 72.3632 58.9808 72.3632 58.9898 72.3632C59.0334 72.3617 59.0861 72.3617 59.1387 72.3617C59.1628 72.3617 59.1493 72.3963 59.1402 72.4114C59.0906 72.4971 59.035 72.5994 58.9101 72.5377C58.8695 72.5167 58.8424 72.4791 58.8334 72.4369C58.8319 72.4264 58.8229 72.4234 58.8139 72.4294C58.7672 72.4595 58.7055 72.4655 58.6514 72.4384C58.5581 72.3933 58.5356 72.2248 58.51 72.1391C58.504 72.115 58.5175 72.085 58.5386 72.097C58.5626 72.112 58.6349 72.1602 58.6634 72.1782C58.671 72.1827 58.68 72.1872 58.689 72.1842C58.8545 72.1241 58.865 71.8864 58.704 71.8127C58.6935 71.8082 58.686 71.8142 58.6785 71.8172C58.6379 71.8398 58.5852 71.8683 58.5461 71.8879C58.5401 71.8909 58.522 71.8864 58.5266 71.8744C58.5341 71.8518 58.5777 71.7405 58.6063 71.6668C58.6093 71.6578 58.6153 71.6472 58.6138 71.6412C58.5672 71.5104 58.2016 71.381 58.1475 71.4682C58.1415 71.4803 58.146 71.4893 58.152 71.4938C58.4965 71.8593 58.4784 72.5919 58.3114 73.0296" fill="#FFC845"/>
<path id="path1540" d="M57.1079 83.0226C56.258 82.7459 55.3449 83.2106 55.0682 84.062C54.9433 84.4441 54.9689 84.8397 55.1118 85.1826C55.1133 85.0548 55.1554 84.9074 55.2261 84.7795C55.2953 84.6517 55.3931 84.5434 55.4803 84.4907C55.4201 84.6216 55.3856 84.763 55.4066 84.9675C55.4262 85.1526 55.4999 85.3406 55.6503 85.4985C55.6593 85.3616 55.6909 85.2578 55.7165 85.1947C55.7375 85.1465 55.7736 85.1345 55.8037 85.133C55.8398 85.1315 55.8744 85.1586 55.8865 85.1962C55.918 85.2879 55.9346 85.3827 55.9361 85.4805C55.9376 85.5782 55.9241 85.6775 55.891 85.7753C55.736 86.2551 55.2201 86.5184 54.7403 86.3619C54.6545 86.3348 54.5748 86.2942 54.5041 86.2461C54.3597 86.1468 54.0589 86.019 53.8979 85.9618C53.6046 85.8565 53.2331 85.9543 53.1142 86.0145C52.9262 86.1092 52.7984 86.2882 52.7698 86.4988C52.9036 86.3484 53.1112 86.2762 53.3188 86.3243C53.3865 86.3394 53.4256 86.398 53.4316 86.4507C53.4617 86.6146 53.6497 86.7906 53.8769 86.7575C53.9115 86.7545 53.9506 86.7455 53.9972 86.7289C54.0453 86.7199 54.1491 86.6522 54.2454 86.6447C54.28 86.6402 54.3281 86.6643 54.3477 86.7154C54.3642 86.7575 54.3612 86.8192 54.283 86.8553C54.2003 86.8794 54.113 86.8824 53.931 86.9621C53.6452 87.0869 53.4406 87.4118 53.3955 87.5367C53.3233 87.7352 53.3534 87.9533 53.4752 88.1248C53.4707 87.9248 53.5715 87.7292 53.7565 87.6224C53.8167 87.5878 53.8844 87.6044 53.925 87.6375C54.0589 87.7367 54.3176 87.7367 54.4605 87.5577C54.4695 87.5412 54.5026 87.487 54.5282 87.454C54.5613 87.4103 54.6274 87.2358 54.7042 87.1366C54.7327 87.0749 54.8049 87.0584 54.8501 87.0824C54.8922 87.105 54.9193 87.1441 54.9102 87.2013C54.8922 87.2689 54.8771 87.2644 54.8531 87.4961C54.829 87.7277 55.0035 88.1444 55.0892 88.2452C55.2261 88.4061 55.4307 88.4873 55.6398 88.4648C55.4638 88.3715 55.3434 88.1865 55.3419 87.9729C55.3404 87.9037 55.3886 87.8526 55.4382 87.8345C55.5901 87.7668 55.718 87.5412 55.6322 87.3276C55.6232 87.3126 55.5916 87.2569 55.5751 87.2193C55.5631 87.1907 55.542 87.1381 55.5254 87.0764C55.4894 86.9952 55.5811 86.8839 55.6849 86.9455C55.7977 87.0162 55.9195 87.0734 56.0504 87.117C56.7062 87.3291 57.3967 87.1125 57.8193 86.6221C57.687 86.6131 57.5531 86.5875 57.4192 86.5439C57.3019 86.5063 57.1906 86.4552 57.0868 86.395C57.4523 86.3634 57.7877 86.1604 57.9848 85.846C57.8915 85.8776 57.7892 85.8806 57.6885 85.8475C57.4433 85.7678 57.3079 85.5045 57.3891 85.2578C57.4689 85.0127 57.7321 84.8773 57.9788 84.9585C58.066 84.9901 58.1818 84.969 58.2014 84.8442C58.2721 84.4531 58.1924 84.0605 57.9983 83.7356C57.8058 83.4092 57.4974 83.149 57.1079 83.0226" fill="#FFC845"/>
<path id="path1544" d="M54.143 75.0596C54.2453 75.1905 54.3897 75.3003 54.5642 75.3575C54.6574 75.3875 54.7552 75.4011 54.8499 75.3996L56.6595 75.4026C56.1225 75.2823 55.4952 75.183 54.9808 75.016C54.8484 74.9739 54.7176 74.8897 54.6213 74.7889C54.5235 74.6836 54.3987 74.5994 54.2528 74.5512C53.97 74.4595 53.6737 74.5211 53.4556 74.6896C53.5368 74.6926 53.6195 74.7061 53.7008 74.7317C53.8873 74.7934 54.0392 74.9107 54.143 75.0596" fill="#FFC845"/>
<path id="path1548" d="M56.9172 74.0908V74.0878V74.0863V74.0833V74.0787V74.0772V74.0742V74.0727H56.9187V74.0697V74.0682V74.0652V74.0637L56.9202 74.0607V74.0592V74.0562L56.9217 74.0517V74.0502V74.0471V74.0456L56.9232 74.0426V74.0411L56.9247 74.0396V74.0381V74.0366L56.9262 74.0321L56.9277 74.0276L56.9292 74.0246V74.0231L56.9307 74.0201L56.9322 74.0156L56.9337 74.0126L56.9352 74.011L56.9367 74.0065L56.9382 74.0035L56.9397 74.002L56.9412 73.999L56.9427 73.996L56.9442 73.9945V73.993L56.9458 73.9915V73.99L56.9488 73.9885V73.987L56.9503 73.984L56.9533 73.981L56.9548 73.9795L56.9563 73.9765V73.9749L56.9578 73.9734L56.9593 73.9719L56.9623 73.9689L56.9638 73.9674L56.9653 73.9659L56.9683 73.9629L56.9698 73.9614L56.9713 73.9599L56.9728 73.9584L56.9743 73.9569L56.9773 73.9539L56.9803 73.9509L56.9833 73.9494V73.9479H56.9848L56.9878 73.9449L56.9909 73.9434V73.9419L56.9939 73.9404L56.9969 73.9389L56.9984 73.9374L57.0014 73.9358L57.0029 73.9343L57.0059 73.9328L57.0089 73.9313L57.0119 73.9298L57.0149 73.9283L57.0164 73.9268H57.0179L57.0194 73.9253H57.0209L57.0239 73.9238L57.0254 73.9223L57.0284 73.9208L57.0329 73.9193H57.0345L57.036 73.9178H57.0375L57.039 73.9163H57.0405H57.042L57.0435 73.9148H57.0465H57.048L57.051 73.9133H57.054V73.9118H57.057C57.0615 73.9103 57.0645 73.9103 57.0675 73.9088H57.069C57.0795 73.9073 57.0886 73.9058 57.0991 73.9058C57.1021 73.9058 57.1036 73.9058 57.1066 73.9073H57.1111H57.1141H57.1156H57.1172H57.1187H57.1202H57.1217L57.1232 73.9088H57.1247H57.1262H57.1277H57.1292H57.1307L57.1337 73.9103H57.1367H57.1382L57.1412 73.9118H57.1427L57.1457 73.9133H57.1472H57.1487H57.1502L57.1517 73.9148H57.1532L57.1562 73.9163H57.1592L57.1608 73.9178H57.1623H57.1638V73.9193H57.1653H57.1668L57.1683 73.9208H57.1698H57.1713V73.9223H57.1728H57.1743V73.9238H57.1758H57.1773L57.1788 73.9253L57.8918 74.1179C57.7353 74.3314 57.4541 74.4307 57.1878 74.3435C57.1081 74.3179 57.0359 74.2773 56.9757 74.2247V74.2231C56.9742 74.2216 56.9712 74.2186 56.9697 74.2171L56.9682 74.2156H56.9667L56.9652 74.2126C56.9622 74.2096 56.9607 74.2081 56.9577 74.2051L56.9562 74.2021C56.9547 74.2006 56.9532 74.1991 56.9532 74.1976L56.9502 74.1946L56.9487 74.1916L56.9472 74.1901V74.1885C56.9457 74.1855 56.9442 74.184 56.9427 74.181H56.9411V74.1795L56.9396 74.178L56.9381 74.1765L56.9366 74.1735C56.9366 74.1705 56.9351 74.169 56.9351 74.1675L56.9336 74.166C56.9336 74.1645 56.9321 74.1615 56.9306 74.1585L56.9291 74.1555V74.154L56.9276 74.1494L56.9261 74.1464L56.9246 74.1434V74.1404L56.9231 74.1374V74.1344L56.9216 74.1314V74.1299V74.1269L56.9201 74.1239V74.1224V74.1209V74.1178H56.9186V74.1148V74.1133V74.1103V74.1088L56.9171 74.1058V74.1043V74.1013V74.0983V74.0953V74.0923L56.9172 74.0908ZM55.6747 74.7571C55.6642 74.9045 55.7138 75.0474 55.8101 75.1557C55.9019 74.8745 56.2027 74.7225 56.484 74.8128C56.7653 74.9045 56.9187 75.2069 56.8269 75.4882C56.7472 75.7333 56.508 75.8808 56.2614 75.8552C56.2448 75.8507 56.2313 75.8462 56.2162 75.8416C56.0463 75.786 55.9605 75.6296 55.9846 75.4686C55.9229 75.5258 55.8733 75.5965 55.8417 75.6822C55.759 75.9334 55.7725 76.1906 55.6883 76.3922C55.6236 76.5426 55.4957 76.523 55.4431 76.6795C56.1952 76.4569 56.3215 76.6434 56.502 76.6013C56.5171 76.5982 56.9774 76.3907 57.4722 76.2448C57.5068 76.2372 57.6136 76.1711 57.5625 76.0312C57.5279 75.9259 57.5249 75.8116 57.561 75.6972C57.5835 75.6296 57.6181 75.5679 57.6618 75.5167C57.6903 75.4867 57.749 75.5107 57.7324 75.5664C57.7174 75.595 57.7054 75.6235 57.6948 75.6536C57.6542 75.7815 57.6633 75.9138 57.7114 76.0297C57.7279 76.0658 57.7475 76.1004 57.7715 76.1335C57.8152 76.2026 57.8558 76.2538 57.9024 76.335C57.9114 76.347 57.9174 76.3847 57.8799 76.3982C57.8122 76.4177 57.4136 76.5366 57.3293 76.5772C57.2436 76.6058 57.212 76.693 57.227 76.7592C57.2361 76.8434 57.2105 76.9307 57.1624 76.9954C57.1052 77.0721 57.021 77.1112 56.9112 77.1172C56.7848 77.1172 56.0312 77.1518 55.5273 77.2796C55.0776 77.4797 54.9678 77.8212 54.9542 78.122C55.4942 78.0152 55.947 78.2574 55.968 78.2679L56.2102 78.4003L55.9921 78.5702C55.9726 78.5853 55.5589 78.9207 55.6131 79.4622C56.1215 79.2351 56.6013 79.4803 56.6239 79.4938L56.8345 79.6051L56.6705 79.7781C56.6284 79.8232 56.2944 80.2053 56.5291 80.6701C56.8194 80.4234 57.2075 80.3346 57.6242 80.4234L57.752 80.452L57.77 80.5828C57.77 80.5934 57.7715 80.6084 57.7731 80.631C57.7776 80.7543 57.7926 81.0958 58.0273 81.2958C58.3085 80.9333 58.7162 80.813 59.0366 80.7814C59.3118 80.6445 59.6052 80.4204 59.6939 79.9736C59.008 80.285 59.0892 79.8488 59.2366 79.7059C59.6127 79.2937 59.7165 78.7974 59.903 78.2333C59.915 78.2002 59.9256 78.1671 59.9346 78.134C59.9616 78.0438 59.9105 77.9821 59.8609 77.9505C59.8353 77.9295 59.7902 77.8618 59.727 77.6783C60.1361 77.9731 60.5197 77.4737 60.4731 77.1969C60.2249 77.5323 60.1045 77.3488 60.1045 77.23C60.1045 77.1127 60.2219 75.8537 59.9421 75.24C60.2189 75.3197 60.5122 75.1663 60.6009 74.891C60.6115 74.8609 60.6175 74.8323 60.622 74.8023C60.5046 74.8549 60.3678 74.8669 60.2369 74.8233C60.1421 74.7932 60.0609 74.7391 60.0007 74.6684C59.8774 74.5165 59.7826 74.3946 59.7195 74.342C59.2141 73.811 58.6425 73.4966 58.1431 73.3131C58.0017 73.447 57.8092 73.5207 57.6106 73.5132L56.7698 73.4816C56.6088 73.4304 56.4358 73.5041 56.3606 73.6515C56.3501 73.7027 55.8793 73.9103 55.6145 74.0321C55.5634 74.0441 55.5198 74.0817 55.5032 74.1359C55.4822 74.2006 55.5062 74.2698 55.5589 74.3089C55.6281 74.3796 55.6807 74.5766 55.6747 74.7571" fill="#FFC845"/>
<path id="path1552" d="M50.5409 76.4036C50.6387 76.539 50.8854 76.6172 51.0764 76.4894C51.0899 76.4758 51.1366 76.4352 51.1712 76.4111C51.2238 76.3735 51.281 76.3405 51.3396 76.3134L51.3411 76.3149C51.3667 76.2998 51.3998 76.2953 51.4299 76.3059C51.481 76.3224 51.5111 76.372 51.5051 76.4247H51.5066C51.5036 76.4307 51.5021 76.4367 51.5006 76.4427C51.3953 76.7676 51.5728 77.1166 51.8962 77.2204C51.9488 77.2385 52.003 77.249 52.0571 77.252C52.1805 77.4325 52.3234 77.601 52.4828 77.7544C52.4558 77.78 52.4182 77.798 52.3745 77.795C52.1624 77.786 51.9819 77.6581 51.8947 77.4791C51.8646 77.6882 51.9383 77.8958 52.0932 78.0372C52.191 78.1274 52.5159 78.3185 52.8243 78.3019C52.6047 78.4147 52.3505 78.4253 52.1278 78.338C52.2542 78.523 52.4392 78.6554 52.6498 78.7156H52.6528C52.6558 78.7171 52.6603 78.7171 52.6633 78.7186C53.3357 78.9036 53.6395 78.8524 54.0321 78.9171C54.36 78.9728 54.3646 79.2766 54.6714 79.2255C54.8038 79.1924 55.1091 79.0284 55.3348 78.8885C55.3979 78.7306 55.4807 78.5982 55.5589 78.5005C55.3784 78.4523 55.1136 78.4222 54.8444 78.529L54.5977 78.6283V78.3606C54.5977 78.3531 54.5962 78.341 54.5947 78.3245C54.5797 78.0612 54.6157 77.8431 54.6849 77.6611C54.4473 77.6506 54.1389 77.604 53.9404 77.5378C53.8456 77.5062 53.7524 77.4686 53.6651 77.425C53.4259 77.3061 53.2184 77.1482 53.0454 76.9587L53.0439 76.9572C53.0364 76.9481 53.0289 76.9406 53.0213 76.9331V76.9316C53.0138 76.9241 53.0078 76.9151 53.0003 76.9075L52.9943 76.9015C52.9898 76.8955 52.9853 76.8895 52.9807 76.8835L52.9732 76.8759C52.9672 76.8684 52.9612 76.8609 52.9552 76.8534L52.9507 76.8474C52.9462 76.8413 52.9402 76.8353 52.9356 76.8293L52.9281 76.8188L52.9176 76.8052C52.9146 76.8022 52.9116 76.7977 52.9086 76.7932C52.9041 76.7872 52.8996 76.7812 52.8966 76.7767C52.892 76.7707 52.8875 76.7646 52.883 76.7586L52.877 76.7481C52.8725 76.7436 52.8695 76.7391 52.865 76.733L52.8605 76.727C52.8484 76.709 52.8364 76.6894 52.8244 76.6714L52.8214 76.6669C52.7853 76.6112 52.7522 76.554 52.7221 76.4954C52.5867 76.2306 52.5055 75.9388 52.4889 75.638C52.4393 75.5147 52.4152 75.3793 52.4182 75.2394C52.4243 75.0363 52.4874 75.0213 52.5311 74.7114C52.5762 74.4031 52.4077 74.0586 52.325 73.9548C52.2137 73.8119 52.0407 73.7172 51.8451 73.7111C51.8241 73.7111 51.803 73.7111 51.7835 73.7126C51.955 73.8134 52.0678 74.0029 52.0617 74.2165C52.0602 74.2857 52.0106 74.3354 51.961 74.3519C51.806 74.4136 51.6692 74.6332 51.7459 74.8498C51.7549 74.8664 51.785 74.922 51.7985 74.9611C51.8226 75.0243 51.8406 75.0875 51.8527 75.1552C51.8542 75.1627 51.8557 75.1687 51.8557 75.1762C51.8572 75.1822 51.8572 75.1882 51.8587 75.1943H51.8557C51.8542 75.2018 51.8527 75.2093 51.8512 75.2168C51.8316 75.274 51.7699 75.3056 51.7128 75.286C51.6917 75.28 51.6752 75.2665 51.6616 75.2514C51.6255 75.2213 51.5924 75.1867 51.5609 75.1506C51.43 74.9972 51.4646 74.9446 51.2901 74.6858C51.1156 74.4271 50.7576 74.2872 50.6268 74.2647C50.4478 74.2346 50.2567 74.2812 50.1078 74.4091C50.0928 74.4226 50.0777 74.4362 50.0642 74.4512C50.2582 74.4106 50.4703 74.4738 50.6087 74.6362C50.6538 74.6874 50.6508 74.7581 50.6252 74.8047C50.5515 74.9536 50.5997 75.2093 50.8027 75.3161C50.8193 75.3221 50.8795 75.3432 50.9156 75.3642C51.0103 75.4094 51.0976 75.4725 51.1758 75.5493L51.1743 75.5523C51.2164 75.5778 51.2359 75.6305 51.2209 75.6786C51.2059 75.7252 51.1622 75.7538 51.1156 75.7538V75.7583C51.0314 75.7553 50.9471 75.7418 50.7501 75.7613C50.4402 75.7929 50.1484 76.0411 50.0672 76.1464C49.9559 76.2908 49.9062 76.4803 49.9484 76.6714C49.9529 76.6924 49.9589 76.712 49.9649 76.7315C50.0205 76.539 50.177 76.3841 50.3846 76.3374C50.4523 76.3224 50.5124 76.3585 50.541 76.4036" fill="#FFC845"/>
<path id="path1556" d="M61.2781 76.9972C60.5937 78.4592 61.7549 80.0236 62.322 81.3367C62.6198 82.0272 62.7582 83.044 62.6951 83.7013C62.689 83.7901 62.6605 83.8818 62.6319 83.9706C62.4724 84.4609 62.0001 84.7648 61.5068 84.7332C61.4601 84.7287 61.418 84.6986 61.4075 84.6354C61.3699 84.2052 61.1653 83.8066 60.8404 83.5238C60.0537 82.8575 59.7875 82.7687 59.3723 82.2663C59.1151 81.9474 58.9963 81.6165 59.1587 81.1337C58.8714 81.1472 58.4578 81.242 58.2366 81.6316L58.1539 81.776L58.0035 81.7053C57.659 81.5428 57.4635 81.2254 57.4184 80.7576C57.1927 80.7366 56.8784 80.7727 56.6422 81.069L56.5023 81.245L56.3594 81.0705C56.3038 80.9998 56.2571 80.9276 56.2195 80.8569L55.8766 80.8178C55.7893 81.0088 55.6374 81.3067 55.3727 81.5609C56.2105 82.0211 56.9716 82.3084 57.7628 82.7642C58.0802 82.9673 58.3765 83.2832 58.539 83.6502C58.7135 83.9676 58.8173 84.5662 58.6759 85.0852C58.6428 85.213 58.3058 86.3803 58.4472 87.0256C58.4954 87.4242 58.6849 87.7716 58.9602 88.0228C58.906 87.9055 58.8834 87.7551 58.8925 87.6092C58.903 87.4648 58.9451 87.3249 59.0023 87.2407C59.0023 87.3836 59.0309 87.5265 59.1362 87.704C59.2309 87.8634 59.3768 88.0018 59.5799 88.0815C59.5182 87.9251 59.5032 87.7686 59.5558 87.6077C59.6235 87.4001 59.7859 87.2497 59.9785 87.191C60.2146 87.1188 60.6117 86.8947 60.7261 86.3863C60.7998 86.6044 60.8073 86.8481 60.7306 87.0842C60.7005 87.176 60.6599 87.2602 60.6102 87.3384C60.7862 87.5024 60.8599 87.7611 60.7817 88.0048C60.7697 88.0379 60.72 88.4576 60.3831 88.6411C60.3636 88.6516 60.0973 88.7644 59.3903 88.5117C59.0955 88.4064 58.7255 88.5042 58.6067 88.5644C58.4171 88.6591 58.2908 88.8396 58.2622 89.0487C58.3946 88.8998 58.6037 88.8261 58.8112 88.8742C58.8789 88.8893 58.9165 88.9479 58.9241 89.0006C58.9526 89.1645 59.1422 89.342 59.3693 89.3089C59.4024 89.3059 59.443 89.2954 59.4896 89.2803C59.5363 89.2713 59.6415 89.2021 59.7378 89.1946C59.7724 89.1901 59.8205 89.2142 59.8401 89.2653C59.8566 89.3074 59.8536 89.3706 59.7754 89.4067C59.6927 89.4293 59.6039 89.4338 59.4219 89.512C59.1361 89.6368 58.9331 89.9617 58.8879 90.0881C58.8142 90.2851 58.8443 90.5032 58.9677 90.6747C58.9632 90.4762 59.0639 90.2806 59.2489 90.1723C59.3091 90.1377 59.3768 90.1543 59.4174 90.1889C59.5513 90.2866 59.81 90.2881 59.9529 90.1076C59.9619 90.0926 59.995 90.0369 60.0206 90.0039C60.0537 89.9602 60.1199 89.7858 60.1951 89.688C60.2252 89.6248 60.2974 89.6083 60.3425 89.6323C60.3846 89.6549 60.4102 89.694 60.4027 89.7512C60.362 89.8745 60.3921 89.9166 60.2222 90.1934C60.0537 90.4702 60.0672 90.8402 60.0988 90.9695C60.1485 91.1741 60.2959 91.3396 60.4929 91.4118C60.3771 91.2493 60.353 91.0312 60.4463 90.8387C60.4764 90.777 60.5425 90.7529 60.5952 90.7575C60.7607 90.765 60.9758 90.6221 60.9938 90.3919C60.9833 90.2415 60.8675 90.1152 60.8825 90.046C60.884 90.0249 60.9081 89.9527 60.9953 89.9512C61.2946 90.0069 61.5955 89.8324 61.6933 89.5346C61.7429 89.3826 61.7294 89.2247 61.6677 89.0893C61.3353 88.3583 62.5762 87.8002 62.5913 87.4046C62.6935 87.0918 62.5221 86.7548 62.2077 86.6525C62.1129 86.6224 62.0167 86.6164 61.9249 86.6315C61.7083 86.6616 61.609 86.5036 61.591 86.4058C61.5188 86.0223 61.3202 85.6914 61.2149 85.5665C61.2465 85.5063 61.2751 85.4447 61.2992 85.3815C62.1144 85.4717 62.9086 84.9829 63.1719 84.1736C63.2365 83.9721 63.2817 83.76 63.2757 83.5599C63.2922 82.8469 63.208 81.9941 62.8349 81.1036C62.2679 79.7468 60.8915 78.1178 62.0482 76.7099C62.5356 76.1187 63.1794 76.206 63.4411 76.4466C63.6758 76.6211 63.9014 76.8949 64.124 77.671C64.2444 78.1464 64.6189 78.5946 65.213 78.6593C64.9634 78.4261 64.8927 78.2471 64.828 77.9794C64.7919 77.8455 64.9603 77.7147 65.0747 77.8425C65.1544 77.9267 65.3544 78.2863 66.0027 78.3148C66.5698 78.3088 66.9083 77.9644 67.0497 77.6349C66.9459 77.7086 66.6195 77.8861 66.2329 77.7162C65.8057 77.5793 65.7395 76.9566 65.4627 76.6031C65.0641 76.0736 64.8114 75.9322 64.3241 75.7261C63.0816 75.2734 61.8121 75.8555 61.2781 76.9972" fill="#FFC845"/>
<path id="path1560" d="M52.6384 83.1622C52.7633 83.2946 52.9438 83.3728 53.1393 83.3593C53.1604 83.3578 53.18 83.3563 53.201 83.3533C53.019 83.269 52.8896 83.09 52.8761 82.8779C52.8716 82.8087 52.9182 82.7546 52.9664 82.7335C53.1138 82.6583 53.2296 82.4267 53.1333 82.2191C53.1228 82.2026 53.0882 82.1499 53.0717 82.1108C53.0431 82.0536 53.019 81.9935 53.001 81.9303H53.004C52.9919 81.9017 52.9919 81.8686 53.007 81.8401C53.031 81.7919 53.0867 81.7694 53.1363 81.7844V81.7829C53.1423 81.7859 53.1484 81.7889 53.1529 81.7919H53.1544C53.4582 81.9469 53.8298 81.825 53.9847 81.5212C54.0088 81.473 54.0268 81.4204 54.0388 81.3662C54.2374 81.273 54.4254 81.1587 54.6014 81.0248C54.6224 81.0549 54.6345 81.094 54.6255 81.1376C54.5833 81.3467 54.4299 81.5046 54.2389 81.5648C54.4404 81.6265 54.657 81.5843 54.821 81.4535C54.9248 81.3707 55.164 81.0804 55.1955 80.7736C55.2738 81.0067 55.2437 81.2594 55.1233 81.467C55.4076 81.3316 55.6047 81.0654 55.6528 80.754C55.6543 80.7435 55.6573 80.7315 55.6573 80.7179C55.6498 80.6608 55.7325 80.5615 55.8363 80.6322C55.8634 80.6548 56.0168 80.6638 56.1402 80.6728C56.0228 80.3133 56.1161 79.9794 56.25 79.7462C56.0815 79.7116 55.8333 79.7101 55.5987 79.8891L55.3956 80.0441L55.3174 79.8019C55.2407 79.5687 55.2316 79.3581 55.2587 79.1731C54.3216 79.8861 54.2825 80.2983 53.395 80.5931C53.1122 80.6863 52.8114 80.7209 52.5121 80.6909C52.3827 80.7194 52.2458 80.7239 52.1059 80.6969C51.9074 80.6608 51.9029 80.5961 51.6035 80.5043C51.3057 80.4111 50.9402 80.5254 50.8229 80.5901C50.6649 80.6788 50.5461 80.8353 50.51 81.0278C50.5055 81.0473 50.5025 81.0684 50.501 81.088C50.6273 80.9345 50.8319 80.8518 51.041 80.8909C51.1102 80.9045 51.1508 80.9616 51.1598 81.0128C51.1959 81.1752 51.3915 81.3452 51.6171 81.3016C51.6351 81.2955 51.6953 81.2745 51.7359 81.267C51.8021 81.2519 51.8683 81.2459 51.936 81.2444C51.9435 81.2429 51.9495 81.2429 51.957 81.2444C51.963 81.2444 51.969 81.2444 51.9751 81.2444V81.2474C51.9826 81.2489 51.9901 81.2519 51.9961 81.2549C52.0503 81.282 52.0713 81.3482 52.0443 81.4023C52.0337 81.4219 52.0187 81.4369 52.0006 81.4475H52.0021C51.966 81.4775 51.9269 81.5061 51.8863 81.5317C51.7148 81.637 51.6682 81.5949 51.3854 81.7272C51.1026 81.8596 50.9086 82.1905 50.8665 82.3169C50.8093 82.4884 50.8259 82.6854 50.9282 82.8509C50.9387 82.8689 50.9507 82.8855 50.9627 82.902C50.9522 82.702 51.0485 82.5049 51.2305 82.3921C51.2892 82.3545 51.3584 82.3695 51.399 82.4026C51.5358 82.4974 51.7946 82.4899 51.9314 82.3064C51.9405 82.2898 51.9721 82.2342 51.9961 82.2011C52.0578 82.1153 52.133 82.0386 52.2202 81.9724L52.2233 81.9754C52.2549 81.9378 52.309 81.9258 52.3556 81.9499C52.3992 81.9709 52.4218 82.0191 52.4128 82.0657H52.4188C52.4023 82.1484 52.3737 82.2296 52.3631 82.4267C52.3466 82.7381 52.5467 83.066 52.6384 83.1622" fill="#FFC845"/>
</g>
<path id="path1564" d="M28.4187 93.2082H30.7832V112.796C29.2114 110.842 28.4187 108.485 28.4187 105.747V93.2082ZM36.9023 81.5478V83.2325H35.5696V81.5478C35.5696 81.1793 35.8689 80.8799 36.2359 80.8799C36.6044 80.8799 36.9023 81.1793 36.9023 81.5478ZM40.6763 81.5478V83.2325H39.3436V81.5478C39.3436 81.1793 39.6414 80.8799 40.0099 80.8799C40.3769 80.8799 40.6763 81.1793 40.6763 81.5478ZM28.4187 69.8783H47.9114V85.2135C46.4809 85.2872 45.1663 85.8828 44.1088 86.838H42.4437V80.7731H43.1567V78.1498H42.4437V76.4215H42.9762V75.5085V74.9008H42.5204V75.5085H42.0646V74.9008H41.1516V75.5085H40.6943V74.9008H40.2386V75.5085V76.4215H40.771V78.1498H39.1886V74.3638H39.7933V73.1469V72.5377H39.3376V73.1469H38.5764V72.5377H37.6634V73.1469H36.9023V72.5377H36.4465V73.1469V74.3638H37.0572V78.1498H35.4688V76.4215H36.0013V75.5085V74.9008H35.5455V75.5085H35.0882V74.9008H34.1752V75.5085H33.7194V74.9008H33.2621V75.5085V76.4215H33.7946V78.1498H33.0816V80.7731H33.7946V86.838H32.4905V89.881H36.9068V87.7315C36.9068 87.0591 37.4513 86.5146 38.1237 86.5146C38.7945 86.5146 39.3391 87.0591 39.3391 87.7315V89.881H42.0767C41.7713 90.7038 41.5878 91.6003 41.5517 92.5404H28.4187V69.8783ZM53.7115 92.8743C53.7115 96.4633 51.2492 99.3709 48.2153 99.3709C45.1783 99.3709 42.7175 96.4633 42.7175 92.8743C42.7175 89.2868 45.1783 86.3762 48.2153 86.3762C51.2492 86.3762 53.7115 89.2868 53.7115 92.8743ZM48.5432 69.8783H68.072V92.5404H54.8773C54.7299 88.5904 51.9727 85.406 48.5432 85.2135V69.8783ZM52.451 103.721C52.451 104.21 52.0569 104.607 51.5681 104.607C51.0807 104.607 50.6851 104.21 50.6851 103.721C50.6851 103.231 51.0807 102.834 51.5681 102.834C52.0569 102.834 52.451 103.231 52.451 103.721ZM56.753 102.712C56.6462 102.879 56.5665 103.064 56.5154 103.261H53.1054C52.9489 102.74 52.5398 102.331 52.0193 102.178V99.1708C52.3307 98.9211 52.6225 98.6413 52.8918 98.336L56.753 102.712ZM57.8586 97.6967V101.907C57.6991 101.949 57.5472 102.009 57.4073 102.089L53.4558 97.6095C53.6694 97.2966 53.865 96.9642 54.0365 96.6137H56.7726C56.9275 97.1342 57.3381 97.5433 57.8586 97.6967M58.3098 97.0394C57.821 97.0394 57.4269 96.6438 57.4269 96.1534C57.4269 95.6631 57.821 95.2675 58.3098 95.2675C58.7972 95.2675 59.1928 95.6631 59.1928 96.1534C59.1928 96.6438 58.7972 97.0394 58.3098 97.0394ZM59.2304 102.08C59.0845 101.999 58.9266 101.936 58.7611 101.896V97.6967C59.28 97.5433 59.6922 97.1342 59.8471 96.6137H63.5128C63.5549 96.7551 63.6181 96.8875 63.6948 97.0108L59.2304 102.08ZM64.3702 97.6095C64.4439 97.6441 64.5206 97.6726 64.5988 97.6967V102.178C64.0799 102.33 63.6693 102.74 63.5128 103.261H60.1435C60.0923 103.056 60.0066 102.864 59.8938 102.694L64.3702 97.6095ZM64.1671 96.1534C64.1671 95.6631 64.5627 95.2675 65.0501 95.2675C65.539 95.2675 65.9346 95.6631 65.9346 96.1534C65.9346 96.6438 65.539 97.0394 65.0501 97.0394C64.5627 97.0394 64.1671 96.6438 64.1671 96.1534ZM64.1671 103.721C64.1671 103.231 64.5627 102.834 65.0501 102.834C65.539 102.834 65.9346 103.231 65.9346 103.721C65.9346 104.21 65.539 104.607 65.0501 104.607C64.5627 104.607 64.1671 104.21 64.1671 103.721ZM64.107 109.476C64.5943 109.476 64.9899 109.873 64.9899 110.363C64.9899 110.852 64.5943 111.249 64.107 111.249C63.6181 111.249 63.224 110.852 63.224 110.363C63.224 109.873 63.6181 109.476 64.107 109.476ZM59.8306 104.836C59.975 104.643 60.0818 104.42 60.1435 104.181H63.5143C63.6693 104.7 64.0799 105.111 64.5988 105.264V106.881C64.5988 107.539 64.4966 108.172 64.31 108.769C64.2439 108.76 64.1762 108.754 64.107 108.754C63.8633 108.754 63.6332 108.811 63.4256 108.909L59.8306 104.836ZM58.7611 112.12V105.544C58.892 105.514 59.0168 105.469 59.1356 105.412L62.7502 109.508C62.5938 109.756 62.502 110.049 62.502 110.363C62.502 110.714 62.6148 111.039 62.8059 111.302C61.9936 112.14 60.9527 112.751 59.787 113.033C59.5989 112.594 59.2229 112.256 58.7611 112.12M58.3098 112.776C58.7972 112.776 59.1928 113.173 59.1928 113.664C59.1928 114.153 58.7972 114.55 58.3098 114.55C57.821 114.55 57.4269 114.153 57.4269 113.664C57.4269 113.173 57.821 112.776 58.3098 112.776ZM57.2689 103.721C57.2689 103.133 57.7443 102.656 58.3294 102.656C58.9145 102.656 59.3898 103.133 59.3898 103.721C59.3898 104.308 58.9145 104.784 58.3294 104.784C57.7443 104.784 57.2689 104.308 57.2689 103.721M53.8936 109.506L57.5066 105.403C57.6179 105.458 57.7352 105.502 57.8586 105.534V112.12C57.3983 112.256 57.0223 112.591 56.8357 113.027C55.676 112.745 54.6411 112.14 53.8304 111.313C54.0259 111.046 54.1432 110.718 54.1432 110.363C54.1432 110.048 54.05 109.754 53.8936 109.506M53.4212 110.363C53.4212 110.852 53.0256 111.249 52.5368 111.249C52.0494 111.249 51.6538 110.852 51.6538 110.363C51.6538 109.873 52.0494 109.476 52.5368 109.476C53.0256 109.476 53.4212 109.873 53.4212 110.363ZM53.2182 108.909C53.0106 108.811 52.7805 108.754 52.5368 108.754C52.4601 108.754 52.3849 108.762 52.3112 108.772C52.1231 108.175 52.0193 107.54 52.0193 106.881V105.263C52.5398 105.111 52.9489 104.7 53.1054 104.181H56.5154C56.5755 104.414 56.6778 104.631 56.8162 104.822L53.2182 108.909ZM68.072 105.747C68.072 110.209 66.0293 113.65 61.9996 115.974C61.5077 116.258 60.9828 116.522 60.4353 116.768C59.8667 116.893 59.2876 116.959 58.7009 116.959C55.7979 116.959 53.167 115.744 51.2913 113.539C49.545 111.483 48.5432 108.659 48.5432 105.789V100.535C49.4622 100.484 50.3316 100.216 51.1168 99.777V102.178C50.4505 102.373 49.9631 102.99 49.9631 103.721C49.9631 104.451 50.4505 105.067 51.1168 105.263V106.881C51.1168 107.675 51.2477 108.438 51.4839 109.153C51.1469 109.447 50.9318 109.881 50.9318 110.363C50.9318 111.251 51.6523 111.973 52.5368 111.973C52.7383 111.973 52.9309 111.932 53.1099 111.865C54.071 112.878 55.3225 113.611 56.7289 113.931C56.8568 114.691 57.5156 115.272 58.3098 115.272C59.101 115.272 59.7584 114.694 59.8892 113.937C61.3017 113.62 62.5577 112.881 63.5218 111.86C63.7039 111.931 63.9009 111.973 64.107 111.973C64.9914 111.973 65.7119 111.251 65.7119 110.363C65.7119 109.872 65.4908 109.431 65.1419 109.136C65.3735 108.426 65.5029 107.668 65.5029 106.881V105.263C66.1677 105.067 66.6566 104.451 66.6566 103.721C66.6566 102.99 66.1677 102.373 65.5029 102.178V97.6967C66.1677 97.5012 66.6566 96.883 66.6566 96.1534C66.6566 95.266 65.9361 94.5454 65.0501 94.5454C64.3251 94.5454 63.7114 95.0298 63.5128 95.6931H59.8471C59.6486 95.0298 59.0349 94.5454 58.3098 94.5454C57.5833 94.5454 56.9696 95.0298 56.7726 95.6931H54.417C54.6832 94.9185 54.8442 94.0822 54.8773 93.2082H68.072V105.747ZM45.5604 112.881V99.9094C46.2869 100.273 47.0796 100.493 47.9114 100.537V105.789C47.9114 108.578 46.9818 111.006 45.5604 112.881ZM41.2855 116.275V93.2082H41.5517C41.6284 95.2524 42.4046 97.0905 43.6109 98.4157V114.884C42.8799 115.463 42.0947 115.93 41.2855 116.275ZM48.2875 119.044C44.6398 119.044 41.2268 118.536 38.3222 117.585C41.0358 117.519 43.6004 116.203 45.5649 113.858C46.8449 112.328 47.755 110.487 48.2092 108.569C48.6439 110.579 49.5404 112.454 50.81 113.948C52.7263 116.203 55.3857 117.483 58.3294 117.582C55.4248 118.534 51.9817 119.044 48.2875 119.044ZM37.0091 116.901V93.2082H39.3345V116.854C38.9239 116.923 38.5133 116.959 38.1056 116.959C37.7266 116.959 37.3611 116.937 37.0091 116.901ZM35.0596 116.215C34.8791 116.118 34.7001 116.022 34.5272 115.923C33.8789 115.547 33.2802 115.144 32.7342 114.712V93.2082H35.0596V116.215ZM26.8844 105.747C26.8844 110.67 29.261 114.649 33.7585 117.25C37.4678 119.396 42.6272 120.578 48.2875 120.578C58.5941 120.578 69.6078 116.683 69.6078 105.747V68.344H26.8844V105.747Z" fill="#FFC845"/>
<g id="g4625">
<g id="g4604">
<path id="path1500" d="M50.7315 92.9725H49.9162H49.7598L49.5687 93.2343C49.862 93.2689 50.1298 93.4223 50.3058 93.6599L50.3328 93.6976L50.3735 93.6449C50.5495 93.4163 50.8112 93.2689 51.097 93.2358L51.1105 93.2343L50.9029 92.9725L50.7315 92.9725Z" fill="#FFC845"/>
<path id="path1508" d="M49.0422 91.9772C49.1129 91.8148 49.2738 91.7245 49.4648 91.7245C49.6844 91.7245 49.898 91.8749 49.9552 92.075H50.7073C50.7614 91.8749 50.9645 91.7245 51.1826 91.7245C51.3736 91.7245 51.5361 91.8148 51.6068 91.9772L51.8159 91.538C51.861 91.4507 51.9197 91.2928 51.9197 91.189C51.9197 90.8385 51.6324 90.5542 51.2759 90.5542C51.0081 90.5542 50.7795 90.7167 50.6832 90.9453C50.6817 90.9498 50.6802 90.9514 50.6787 90.9544C50.6757 90.9604 50.6727 90.9679 50.6697 90.9739C50.6697 90.9754 50.6682 90.9769 50.6682 90.9769C50.6727 90.9664 50.6787 90.9574 50.6832 90.9453C50.7344 90.828 50.9149 90.3737 50.9149 89.8428C50.9149 89.223 50.3177 88.5567 50.3177 88.5567C50.3177 88.5567 49.7326 89.223 49.7326 89.8428C49.7326 90.3737 49.9146 90.828 49.9657 90.9453C49.9657 90.9468 49.9657 90.9468 49.9657 90.9468C49.9747 90.9649 49.9793 90.9754 49.9793 90.9754C49.9793 90.9769 49.9793 90.9769 49.9793 90.9769C49.9793 90.9769 49.9747 90.9664 49.9657 90.9453C49.8695 90.7167 49.6408 90.5542 49.3731 90.5542C49.0166 90.5542 48.7278 90.8385 48.7278 91.189C48.7278 91.2928 48.7879 91.4507 48.8331 91.538L49.0422 91.9772Z" fill="#FFC845"/>
<path id="path1512" d="M51.2536 92.2916H49.3945H49.387V92.7564H49.9164H50.7317H51.2612V92.2916H51.2536Z" fill="#FFC845"/>
</g>
<g id="g4599">
<path id="path1504" d="M45.1523 90.554C44.7958 90.554 44.5085 90.8383 44.5085 91.1887C44.5085 91.2925 44.5672 91.4505 44.6123 91.5377L44.8214 91.9769C44.8921 91.8145 45.0546 91.7242 45.2456 91.7242C45.4637 91.7242 45.6788 91.8746 45.7345 92.0747H46.4865C46.5407 91.8746 46.7438 91.7242 46.9619 91.7242C47.1544 91.7242 47.3154 91.8145 47.3861 91.9769L47.5951 91.5377C47.6403 91.4505 47.6989 91.2925 47.6989 91.1887C47.6989 90.8383 47.4116 90.554 47.0551 90.554C46.7874 90.554 46.5588 90.7164 46.4625 90.9466C46.461 90.9481 46.461 90.9481 46.461 90.9496C46.4565 90.9586 46.452 90.9676 46.4489 90.9766V90.9781C46.452 90.9661 46.458 90.9571 46.4625 90.9466C46.5136 90.8277 46.6956 90.3735 46.6956 89.8425C46.6956 89.2228 46.097 88.5564 46.097 88.5564C46.097 88.5564 45.5118 89.2228 45.5118 89.8425C45.5118 90.3735 45.6938 90.8277 45.745 90.9466C45.7495 90.9571 45.7555 90.9661 45.76 90.9781L45.7585 90.9766C45.7555 90.9676 45.751 90.9601 45.748 90.9511C45.7465 90.9496 45.7465 90.9481 45.745 90.9466C45.6487 90.7164 45.4201 90.554 45.1523 90.554" fill="#FFC845"/>
<path id="path1524" d="M45.6965 92.7558H46.5117H47.0397V92.291H47.0337H45.1745H45.167V92.7558H45.6965Z" fill="#FFC845"/>
<path id="path1532" d="M46.8896 93.234L46.682 92.9723H46.5105H45.6968H45.5388L45.3478 93.234C45.6426 93.2686 45.9088 93.422 46.0848 93.6597L46.1119 93.6973L46.154 93.6446C46.33 93.4175 46.5902 93.2686 46.8775 93.2355L46.8896 93.234Z" fill="#FFC845"/>
</g>
<g id="g4610">
<path id="path1516" d="M47.8557 95.1223C47.8572 95.1269 47.8587 95.1299 47.8618 95.1344C47.8648 95.1419 47.8663 95.1464 47.8678 95.1494C47.8678 95.1509 47.8693 95.1524 47.8693 95.1539C47.8693 95.1539 47.8648 95.1419 47.8557 95.1223C47.7595 94.8922 47.5308 94.7298 47.2631 94.7298C46.9066 94.7298 46.6178 95.014 46.6178 95.3645C46.6178 95.4698 46.678 95.6262 46.7216 95.7135L46.9322 96.1542C47.0029 95.9918 47.1638 95.9 47.3548 95.9C47.5745 95.9 47.7881 96.0504 47.8452 96.252H48.5973C48.6515 96.0504 48.8545 95.9 49.0726 95.9C49.2637 95.9 49.4261 95.9918 49.4968 96.1542L49.7059 95.7135C49.751 95.6262 49.8097 95.4698 49.8097 95.3645C49.8097 95.014 49.5224 94.7298 49.1659 94.7298C48.8981 94.7298 48.6695 94.8922 48.5717 95.1223C48.5687 95.1299 48.5672 95.1344 48.5642 95.1404C48.5642 95.1419 48.5627 95.1449 48.5612 95.1479C48.5597 95.1509 48.5582 95.1539 48.5582 95.1539C48.5627 95.1434 48.5687 95.1329 48.5717 95.1223C48.6244 95.0035 48.8049 94.5492 48.8049 94.0183C48.8049 93.3985 48.2077 92.7337 48.2077 92.7337C48.2077 92.7337 47.6226 93.3985 47.6226 94.0183C47.6226 94.5492 47.8046 95.0035 47.8557 95.1223" fill="#FFC845"/>
<path id="path1520" d="M48.6214 97.1486H47.8061H47.6496L47.4586 97.4104C47.7519 97.445 48.0197 97.5984 48.1957 97.8376L48.2228 97.8737L48.2634 97.821C48.4394 97.5924 48.7011 97.445 48.9869 97.4119L49.0004 97.4104L48.7928 97.1486L48.6214 97.1486Z" fill="#FFC845"/>
<path id="path1528" d="M47.2849 96.4686H47.2773V96.9334H47.8068H48.6221H49.1516V96.4686H49.144H47.2849Z" fill="#FFC845"/>
</g>
</g>
</g>
<g id="g4551">
<path id="path1568" d="M21.5388 71.706C21.5388 71.4744 21.3507 71.2849 21.1191 71.2849H15.5371C15.3054 71.2849 15.1189 71.4744 15.1189 71.706C15.1189 71.8715 15.2137 72.0129 15.3505 72.0821C15.346 72.0806 15.3415 72.0791 15.3385 72.0776C15.5747 72.1994 15.7582 72.5394 15.7582 72.9274C15.7582 73.3155 15.5882 73.6419 15.3551 73.7653C15.3581 73.7638 15.3611 73.7638 15.3641 73.7623C15.2212 73.8405 15.1219 74.0119 15.1219 74.2105C15.1219 74.4858 15.3099 74.7084 15.5416 74.7084H21.1191C21.3507 74.7084 21.5388 74.4858 21.5388 74.2105C21.5388 74.0074 21.4365 73.833 21.2891 73.7562C21.2891 73.7547 21.2891 73.7547 21.2891 73.7547C21.0454 73.6389 20.8905 73.2839 20.8905 72.9274C20.8905 72.5589 21.0243 72.2099 21.2695 72.1001L21.268 72.0986C21.426 72.0385 21.5388 71.8865 21.5388 71.706" fill="#FFC845"/>
<path id="path1570" d="M14.2462 113.752H22.3628V111.446H14.2462V113.752Z" fill="#FFC845"/>
<path id="path1574" d="M17.6305 81.7432C18.536 81.6138 19.6852 81.5371 20.9036 81.522V75.4421H15.7533V82.1027C16.3625 81.9552 16.9912 81.8334 17.6305 81.7432Z" fill="#FFC845"/>
<path id="path1578" d="M20.692 96.9231C18.9698 97.8647 17.2595 98.698 15.7523 99.3328V107.893C15.7523 108.996 15.5402 109.77 15.2349 110.256C15.1311 110.423 15.2349 110.65 15.4154 110.65H21.2651C21.4426 110.65 21.5148 110.429 21.4035 110.256C21.0937 109.772 20.9041 109.048 20.9041 107.893V96.8058C20.8319 96.8464 20.7597 96.8855 20.692 96.9231" fill="#FFC845"/>
<path id="path1582" d="M21.5593 89.1914V91.8719C22.4333 91.3063 23.1116 90.7001 23.5614 90.2549L23.8923 89.927C23.4501 89.5675 22.4814 89.2516 21.5593 89.1914Z" fill="#FFC845"/>
<path id="path1586" d="M24.2665 115.703C23.8107 115.798 23.1218 115.941 22.4449 115.815C21.8824 115.709 21.4236 115.535 20.9798 115.367C20.2834 115.102 19.5644 114.828 18.4904 114.828C17.3788 114.828 16.6493 115.105 15.9438 115.371C15.5001 115.538 15.0398 115.712 14.4727 115.818C13.8139 115.94 13.1746 115.807 12.7083 115.711C12.4857 115.666 12.3082 115.628 12.1638 115.628V116.441C12.2255 116.441 12.3955 116.477 12.5444 116.507C12.8964 116.58 13.3762 116.678 13.9132 116.678C14.1403 116.678 14.378 116.662 14.6202 116.617C15.2594 116.498 15.7528 116.311 16.2311 116.131C16.8975 115.879 17.5277 115.64 18.4904 115.64C19.4155 115.64 20.0066 115.866 20.691 116.126C21.1679 116.307 21.6612 116.495 22.296 116.614C23.1293 116.768 23.9446 116.6 24.432 116.499C24.5553 116.474 24.7087 116.442 24.7554 116.441L24.7539 115.628C24.6305 115.628 24.4771 115.66 24.2665 115.703" fill="#FFC845"/>
<path id="path1590" d="M24.2667 117.548C23.811 117.642 23.1221 117.786 22.4452 117.658C21.8811 117.553 21.4223 117.378 20.9786 117.21C20.2837 116.947 19.5647 116.673 18.4907 116.673C17.3791 116.673 16.6495 116.948 15.9441 117.214C15.5003 117.383 15.0401 117.556 14.473 117.661C13.8142 117.784 13.1749 117.652 12.7086 117.556C12.486 117.509 12.3085 117.473 12.1641 117.473V118.285C12.2257 118.285 12.3957 118.32 12.5446 118.352C12.8966 118.424 13.3764 118.523 13.9134 118.523C14.1406 118.523 14.3782 118.505 14.6204 118.46C15.2597 118.341 15.753 118.155 16.2314 117.976C16.8977 117.723 17.528 117.485 18.4907 117.485C19.4157 117.485 20.0069 117.709 20.6913 117.97C21.1681 118.152 21.6615 118.338 22.2963 118.457C23.1296 118.613 23.9448 118.445 24.4322 118.344C24.5555 118.318 24.709 118.285 24.7556 118.285L24.7541 117.473C24.6308 117.473 24.4773 117.505 24.2667 117.548Z" fill="#FFC845"/>
<path id="path1594" d="M24.2665 119.266C23.8107 119.36 23.1218 119.503 22.4449 119.377C21.8809 119.272 21.4221 119.097 20.9798 118.929C20.2834 118.664 19.5644 118.39 18.4904 118.39C17.3788 118.39 16.6493 118.667 15.9438 118.933C15.5001 119.1 15.0398 119.275 14.4727 119.38C13.8139 119.502 13.1746 119.369 12.7083 119.273C12.4857 119.226 12.3082 119.19 12.1638 119.19V120.003C12.2255 120.003 12.3955 120.039 12.5444 120.069C12.8964 120.142 13.3762 120.24 13.9132 120.24C14.1403 120.24 14.378 120.224 14.6217 120.177C15.2594 120.06 15.7528 119.873 16.2311 119.693C16.8975 119.442 17.5277 119.202 18.4904 119.202C19.4155 119.202 20.0066 119.428 20.691 119.688C21.1679 119.869 21.6612 120.057 22.296 120.176C23.1293 120.33 23.9446 120.162 24.432 120.061C24.5553 120.036 24.7087 120.004 24.7554 120.003L24.7539 119.19C24.6305 119.19 24.4771 119.222 24.2665 119.266" fill="#FFC845"/>
<path id="path1598" d="M20.9039 86.6913C20.1352 86.7109 19.3801 86.7635 18.6912 86.8493C17.6232 86.9816 16.6305 87.2178 15.7535 87.5126V94.841C17.0742 94.3025 18.5814 93.5489 20.0976 92.663C20.3548 92.5125 20.6271 92.3471 20.9039 92.1756V86.6913Z" fill="#FFC845"/>
<path id="path1602" d="M13.5782 98.84C13.5256 99.0581 13.4775 99.2627 13.4338 99.4462C17.6019 98.0654 24.0338 94.3485 24.4264 93.6265L24.0699 90.7671C23.3404 91.4906 21.7776 92.5164 20.4614 93.2866C18.163 94.6298 15.8962 95.6677 14.207 96.152C14.0836 96.7342 13.8054 97.8924 13.5782 98.84Z" fill="#FFC845"/>
<path id="path1606" d="M14.2667 84.3204L14.0576 84.4016L14.3976 85.247C14.4728 85.2139 14.545 85.1793 14.6081 85.1402C14.8654 84.9642 14.8187 84.7235 14.7676 84.5957C14.6728 84.3595 14.4622 84.2437 14.2667 84.3204" fill="#FFC845"/>
<path id="path1610" d="M21.6127 85.2011C21.6713 85.0703 21.739 84.9183 21.7811 84.7619L21.7902 84.7258L21.9466 84.7378L21.9511 84.7724C21.9887 85.0026 22.1888 85.162 22.4746 85.1891C22.7047 85.2117 22.9484 85.1304 22.9709 84.9018C22.992 84.6717 22.7604 84.5573 22.4896 84.4235C22.1391 84.2505 21.742 84.0519 21.7917 83.542C21.8293 83.1419 22.1918 82.7719 22.9183 82.8381C23.2206 82.8651 23.5109 82.9855 23.6177 83.0862L23.6433 83.1103L23.6253 83.1419C23.5606 83.2532 23.5049 83.3705 23.4538 83.4818L23.4403 83.5104L23.3139 83.4999L23.3049 83.4728C23.2372 83.2773 23.0883 83.163 22.8732 83.1419C22.5859 83.1148 22.428 83.2051 22.4084 83.4112C22.3919 83.5917 22.616 83.709 22.8762 83.8459C23.2267 84.0309 23.6629 84.2595 23.6148 84.7574C23.5726 85.2011 23.1214 85.4929 22.5167 85.4929C22.458 85.4929 22.3979 85.4914 22.3362 85.4854C22.0654 85.4599 21.8142 85.3786 21.6292 85.2583L21.5961 85.2357L21.6127 85.2011ZM20.9899 83.1254C20.6756 83.8744 20.3522 84.6506 20.0859 85.4373L20.0754 85.4659L19.6467 85.5005L19.6317 85.4749C19.2451 84.7499 18.8104 83.9933 18.2629 83.0893L18.2222 83.0231L18.3005 83.0216C18.4268 83.0186 18.9397 82.9764 19.0631 82.9599L19.0962 82.9554L19.1097 82.987C19.2902 83.3871 19.5143 83.7887 19.7309 84.1753C19.8152 84.3257 19.8979 84.4761 19.9806 84.6265C20.1792 84.1302 20.4214 83.4984 20.6124 82.8651L20.6229 82.832L20.6575 82.8335C20.7222 82.8366 20.9854 82.8155 21.0486 82.802L21.1313 82.7869L20.9899 83.1254ZM16.6458 85.9803L16.6353 85.9367L16.0788 83.4788L16.2021 83.4608C16.2833 83.4488 16.3676 83.4367 16.4473 83.4187C16.527 83.4021 16.6067 83.3781 16.6835 83.354L16.8068 83.3194L16.8173 83.366L17.2972 85.4764C17.6476 85.3967 17.9425 85.3064 18.2147 85.2222L18.2613 85.2071L18.3516 85.6028L16.6458 85.9803ZM15.4726 84.8161C15.3583 85.0793 15.0589 85.2959 14.5054 85.517L14.913 86.5323L14.2196 86.8031L13.2554 84.4084L14.2993 84.0008C15.0529 83.7045 15.3447 83.9767 15.456 84.255C15.5388 84.4596 15.5448 84.6491 15.4726 84.8161M17.7319 82.4575C14.0481 82.981 11.2684 84.434 10.4245 85.5997C10.2154 85.8885 10.1282 86.1503 10.1643 86.3819C10.2305 86.5745 10.9179 88.1268 11.5015 89.4339C11.5527 89.3346 11.6158 89.2339 11.6911 89.1331C12.6973 87.7673 15.6049 86.5053 18.6028 86.1322C19.5459 86.0164 20.5582 85.9592 21.551 85.9592C23.4463 85.9592 25.0918 86.0961 26.1959 86.4601V82.6515C25.2332 82.3462 23.3981 82.2409 21.366 82.2409C20.0754 82.2409 18.7758 82.3101 17.7319 82.4575" fill="#FFC845"/>
<path id="path1614" d="M15.0977 91.6951V88.3724C14.6645 88.3709 14.296 88.3318 13.9289 88.2882C13.1468 88.7078 12.5707 89.1561 12.2713 89.5607C12.2202 89.6314 12.1766 89.7006 12.1435 89.7653L11.9224 90.1925C11.9239 90.209 11.9239 90.224 11.9269 90.2406C12.0698 91.0438 13.2491 91.5568 15.0977 91.6951" fill="#FFC845"/>
<path id="path1740" d="M19.0206 67.0142C19.0763 67.0217 19.1319 67.0292 19.1861 67.0382C19.3636 66.5208 19.5441 65.9958 19.6404 65.7145C19.8885 64.985 20.4662 63.8539 21.2739 63.0627C21.2965 63.0431 21.313 63.0296 21.3265 63.019V63.0145C21.3265 62.2308 20.6918 61.5916 19.9096 61.5916C19.5862 61.5916 19.2718 61.7044 19.0206 61.9074V67.0142Z" fill="#FFC845"/>
<path id="path1744" d="M19.6764 67.1377C19.8795 67.1873 20.0795 67.249 20.2735 67.3197C20.4841 66.706 20.6255 66.2953 20.7037 66.0622C20.9745 65.2574 21.4754 64.1534 22.3313 63.3998C22.2501 63.3802 22.1372 63.3637 21.9943 63.3637C21.9402 63.3637 21.8875 63.3652 21.8394 63.3697C21.7657 63.3802 21.6905 63.3967 21.6168 63.4193C20.8752 64.1473 20.3412 65.1973 20.1096 65.8756C20.0163 66.1464 19.8464 66.6413 19.6764 67.1377" fill="#FFC845"/>
<path id="path1748" d="M20.7328 67.5078C21.0788 67.6658 21.4112 67.8613 21.7256 68.0854C22.3137 67.1814 23.0598 65.9886 23.335 65.3463L23.3486 65.3147C23.4178 65.1357 23.4524 64.9613 23.4524 64.7808C23.4524 64.3145 23.2267 63.8812 22.8492 63.615L22.771 63.6782C21.9316 64.3551 21.4383 65.4351 21.1735 66.2218C21.0637 66.5422 20.8561 67.1483 20.7328 67.5078" fill="#FFC845"/>
<path id="path1752" d="M16.8007 65.7076C16.8925 65.9769 17.0624 66.4703 17.2324 66.9666L17.2474 67.0133C17.2911 67.0058 17.3332 66.9997 17.3768 66.9937V61.9186C17.1301 61.7231 16.8233 61.6148 16.5089 61.6148C15.7433 61.6148 15.119 62.2375 15.1145 63.0076C15.1235 63.0137 15.1325 63.0212 15.1416 63.0287C15.9689 63.8379 16.551 64.9751 16.8007 65.7076" fill="#FFC845"/>
<path id="path1756" d="M13.0829 65.3426C13.3596 65.9879 14.1057 67.1822 14.6938 68.0847C15.0082 67.8606 15.3406 67.6665 15.6866 67.5071C15.5633 67.1476 15.3542 66.5414 15.2459 66.221C14.9811 65.4343 14.4878 64.3543 13.6484 63.6789L13.5702 63.6158C13.1867 63.891 12.967 64.3197 12.967 64.78C12.967 64.959 13.0016 65.135 13.0678 65.305L13.0829 65.3426Z" fill="#FFC845"/>
<path id="path1760" d="M17.9307 61.0261L17.9608 61.0156C18.1203 60.9585 18.2948 60.9585 18.4542 61.0156L18.4843 61.0261V60.4109H19.1175V59.8544H18.4843V59.1354H17.9307V59.8544H17.2975V60.4109H17.9307V61.0261Z" fill="#FFC845"/>
<path id="path1764" d="M18.5249 61.7179C18.5249 61.5419 18.382 61.3991 18.2075 61.3991C18.033 61.3991 17.8901 61.5419 17.8901 61.7179V66.9751C18.1022 66.9615 18.3113 66.96 18.5249 66.9706V61.7179Z" fill="#FFC845"/>
<path id="path1768" d="M14.8895 68.5316L15.8191 69.9455C15.8537 69.9982 15.9124 70.0267 15.9725 70.0267C16.0026 70.0267 16.0342 70.0192 16.0613 70.0042C16.7337 69.6372 17.4918 69.4431 18.2529 69.4431C19.017 69.4431 19.748 69.6281 20.4249 69.9937C20.5122 70.0403 20.6235 70.0102 20.6716 69.9275L21.5155 68.4835L21.526 68.4654L21.5095 68.4534C20.5498 67.757 19.4246 67.3899 18.2529 67.3899C17.0405 67.3899 15.8838 67.7795 14.9061 68.5196L14.8895 68.5316Z" fill="#FFC845"/>
<path id="path1772" d="M15.7376 66.0549C15.8278 66.3227 15.9918 66.804 16.1603 67.2899C16.3408 67.2252 16.5258 67.168 16.7138 67.1214C16.5453 66.6295 16.3799 66.1482 16.2881 65.882C16.0595 65.2096 15.53 64.1687 14.7914 63.4422C14.7207 63.4181 14.6455 63.4016 14.5718 63.391C14.5342 63.388 14.4831 63.3865 14.4244 63.3865C14.3071 63.3865 14.2108 63.397 14.1356 63.4121C14.975 64.1687 15.4683 65.2592 15.7376 66.0549" fill="#FFC845"/>
</g>
</g>
</g>
<path id="path3714" d="M48.2458 0.529672C48.4186 0.870857 48.5131 1.24356 48.6305 1.60539C49.428 4.0665 50.2201 6.52978 51.0188 8.99088C54.0091 8.98863 56.9993 8.98655 59.9907 8.98219C57.6013 10.7761 55.1521 12.4897 52.7443 14.2586C53.6309 17.1066 54.6099 19.9252 55.4988 22.772C53.0648 21.0476 50.683 19.2493 48.2534 17.5184C45.8716 19.246 43.4975 20.9857 41.1178 22.7177C41.069 22.7622 41.007 22.7796 40.944 22.7894L41.0451 22.6557C41.9306 19.9664 42.8053 17.2739 43.6898 14.5835C43.7191 14.4553 43.8278 14.2619 43.6605 14.1771C41.283 12.431 38.8741 10.7251 36.4999 8.9735C39.501 8.9985 42.5032 8.98111 45.5055 8.99306C46.4204 6.1723 47.3179 3.3461 48.2458 0.52968V0.529672Z" fill="#FFC845"/>
</g>
</g>
</svg>
