<svg width="98" height="145" viewBox="0 0 98 145" fill="none" xmlns="http://www.w3.org/2000/svg">
<g id="francia">
<path id="path38" d="M48.5885 18.8965L0 40.6755V123.574L48.5885 145L97.1769 123.574L97.177 40.6755L48.5885 18.8965Z" fill="url(#paint0_linear_145_261)"/>
<path id="path42" d="M2.84216 42.2232V122.026L48.5983 142.185L94.3301 122.026V42.2232L48.5983 21.7065L2.84216 42.2232Z" fill="url(#paint1_linear_145_261)"/>
<path id="path44" d="M33.8411 0L31.8463 6.29961H25.3857L30.6108 10.1906L28.616 15.6269L33.8411 12.5992L39.0662 15.6269L37.0709 10.1906L42.296 6.29961H35.8354L33.8821 0H33.8411ZM63.6046 0L61.6093 6.29961H55.1512L60.3763 10.1906L58.381 15.6269L63.6061 12.5992L68.8312 15.6269L66.8359 10.1906L72.0609 6.29961H65.6028L63.6007 0H63.6046Z" fill="#C4AE75"/>
<path id="path46" d="M66.4123 107.178C63.8999 107.178 61.2434 108.725 61.2434 111.978C61.2434 114.946 63.8999 116.653 66.4123 116.653C68.1034 116.653 69.2788 116.158 69.7305 115.935L69.4404 114.276C69.0217 114.563 68.1842 114.946 66.7497 114.946C64.8978 114.946 63.351 113.989 63.351 111.853C63.351 110.019 64.8968 108.806 66.7497 108.806C68.1024 108.806 68.9401 109.269 69.3598 109.476L69.6499 107.849C69.2795 107.594 67.9749 107.179 66.4123 107.179V107.178ZM18.0192 107.307V116.526H20.129V113.225H24.5752V111.486H20.129V109.061H25.7496V107.306H18.0194L18.0192 107.307ZM28.3204 107.307V116.526H30.3013V113.861H32.6523L34.6332 116.526H37.0168L34.7302 113.447C35.9381 112.825 36.3888 111.741 36.3888 110.56C36.3888 108.678 35.1323 107.305 32.99 107.305H28.3192L28.3204 107.307ZM42.3598 107.307L38.2847 116.526H40.5552L41.2318 114.946H45.6609L46.3533 116.526H48.6238L44.5487 107.307H42.3583H42.3598ZM50.2267 107.307V116.526H52.3365V110.511L57.2955 116.526H59.3089V107.307H57.199V113.464L52.2401 107.307H50.2267ZM71.6252 107.308V116.527H79.4042V114.82H73.6859V112.858H77.6316V111.103H73.6859V109.062H79.1942V107.307H71.6252V107.308ZM30.2884 109.062H32.8496C33.8641 109.062 34.3151 109.684 34.3151 110.561C34.3151 111.518 33.8641 112.236 32.8496 112.236H30.2884V109.063V109.062ZM43.4585 109.732L44.9079 113.226H41.9437L43.4578 109.732H43.4585Z" fill="white"/>
<path id="path48" fill-rule="evenodd" clip-rule="evenodd" d="M35.1107 120.962V127.574H36.8333V125.299H41.2893V123.924H36.8333V122.44H41.9802V120.963H35.1119L35.1107 120.962ZM45.2777 120.962V127.574H47.0002V125.299H51.4562V123.924H47.0002V122.44H52.1472V120.963H45.2789L45.2777 120.962ZM55.4446 120.962V127.574H57.1672V125.299H61.6232V123.924H57.1672V122.44H62.3142V120.963H55.4458L55.4446 120.962Z" fill="#CEAC76"/>
<path id="path50" d="M70.7829 44.0128C69.8006 45.1133 68.141 46.9002 68.8024 48.4309C69.511 49.9462 72.587 49.627 73.0851 49.5791C69.6228 48.8135 68.9611 47.2344 70.7816 44.0123L70.7829 44.0128ZM66.7737 46.7406C66.3388 46.7406 65.9521 47.1231 65.9521 47.5538C65.9521 48.0484 66.3388 48.4314 66.7737 48.4314C67.273 48.4314 67.6593 48.0484 67.6593 47.5538C67.6593 47.1231 67.273 46.7406 66.7737 46.7406ZM40.3064 47.6975C36.2802 47.6975 32.0781 48.6704 28.5817 51.0952C37.1811 48.5753 44.0592 51.7491 46.7645 57.9703C50.5808 58.5127 53.8501 59.9006 56.7166 61.6074C55.686 53.9197 49.7262 47.6975 40.3064 47.6975V47.6975ZM34.7077 52.1084C29.6218 52.1606 24.3162 54.5775 21.6108 58.0187C15.685 65.4839 18.6003 75.1183 21.8845 78.5474C19.5816 65.1018 28.0375 53.9778 43.0144 54.8604C40.7315 52.8985 37.76 52.0794 34.7104 52.1084H34.7077ZM63.8608 54.9064C64.972 57.3464 65.8901 61.0633 65.8901 63.7428C65.8901 74.7 56.7755 78.3854 51.5723 86.5689C57.5641 82.0225 66.3735 78.0348 69.6087 70.5236C71.7505 65.5637 70.108 58.3379 63.8586 54.9088L63.8608 54.9064ZM43.3926 58.8288C31.9267 58.8288 25.388 66.9953 25.388 76.4701C25.388 81.9741 28.0934 86.2956 29.3508 87.5241C26.162 77.747 32.813 67.0123 43.0874 67.0123C49.6749 67.0123 54.861 72.0205 60.0128 75.307C61.8487 73.2173 63.3456 71.0314 64.1514 68.3375C59.1436 64.461 52.8149 58.8312 43.3926 58.8312V58.8288ZM73.913 58.9885C75.2818 63.0246 74.5249 67.9216 71.9963 70.809C74.7188 70.3783 76.7966 68.0981 76.7966 65.4501C76.7966 63.7276 76.0075 60.6813 73.913 58.9909V58.9885ZM76.8283 68.8454C75.3468 70.8073 73.4467 71.9238 71.2077 71.9238C70.8856 71.9238 70.5477 71.8918 70.2096 71.8279C69.0661 74.1089 67.4237 76.0865 65.5387 77.8422C66.2473 78.0017 66.9561 78.0812 67.6808 78.0812C73.1085 78.0812 76.539 73.5518 76.8271 68.8458L76.8283 68.8454ZM47.5776 68.9413C45.9187 79.1657 40.3308 90.1229 48.7374 101.54C44.7111 90.5026 51.4427 82.191 54.9538 73.1491C52.6025 71.4901 50.1706 69.8795 47.5776 68.9533V68.9413ZM31.602 75.9277C28.2032 82.3071 31.119 87.9707 37.1591 87.1581C33.3111 85.8501 30.6693 80.4595 31.602 75.9277Z" fill="white"/>
<path id="path52" d="M61.5047 38.8618C60.5705 39.8985 60.1357 41.1584 60.7962 42.2425C60.0231 42.6254 59.0409 42.785 58.2202 42.4022C57.3989 43.4868 57.4472 44.8592 57.9465 45.6717C57.2863 46.1662 56.2877 46.485 55.417 46.2777C55.6907 47.2506 56.6246 47.9526 57.5586 47.9526C57.3975 48.6704 57.1237 48.9896 56.5118 49.2128C57.2848 50.6802 59.8129 51.063 61.505 50.457C61.3439 50.2975 61.0218 49.7552 61.0218 48.8781C61.0218 46.5333 63.0185 44.9871 65.7732 44.9871C66.9166 44.9871 67.6415 45.1462 68.0441 45.21C68.2213 45.226 68.3501 45.2583 68.4629 44.9871C68.7527 44.2694 69.0266 42.9453 67.7704 41.9086C65.6767 40.1701 62.5038 40.9358 61.5052 38.8616L61.5047 38.8618ZM69.6866 50.1382C68.7525 52.9144 70.4596 55.7994 72.9877 55.7994C74.4048 55.7994 75.1297 54.8744 75.1297 53.7896C75.1297 52.8643 74.4048 52.099 73.1969 51.8758C72.1019 51.6524 70.0253 51.5568 69.6859 50.1373L69.6866 50.1382Z" fill="#D91C1F"/>
</g>
<defs>
<linearGradient id="paint0_linear_145_261" x1="95.8549" y1="40.4504" x2="2.02437" y2="123.404" gradientUnits="userSpaceOnUse">
<stop stop-color="#CCAA72"/>
<stop offset="0.1372" stop-color="#D1BF89"/>
<stop offset="0.2643" stop-color="#D8B98A"/>
<stop offset="0.3757" stop-color="#DEC78A"/>
<stop offset="0.4993" stop-color="#D5CB99"/>
<stop offset="0.5982" stop-color="#D5BD93"/>
<stop offset="0.7145" stop-color="#C5A66D"/>
<stop offset="0.8479" stop-color="#C69467"/>
<stop offset="1" stop-color="#C3976A"/>
</linearGradient>
<linearGradient id="paint1_linear_145_261" x1="89.9112" y1="44.9266" x2="7.34336" y2="119.679" gradientUnits="userSpaceOnUse">
<stop stop-color="#0276B7"/>
<stop offset="0.158" stop-color="#005DA9"/>
<stop offset="0.333" stop-color="#1A4C87"/>
<stop offset="0.5037" stop-color="#242866"/>
<stop offset="0.6804" stop-color="#20255D"/>
<stop offset="0.8725" stop-color="#1B1F4E"/>
<stop offset="1" stop-color="#181947"/>
</linearGradient>
</defs>
</svg>
