<svg width="110" height="125" viewBox="0 0 110 125" fill="none" xmlns="http://www.w3.org/2000/svg">
<g id="gales">
<g id="g10">
<path id="path4" d="M52.0127 119.975C29.8434 103.334 16.8602 87.7374 9.9383 69.3731C3.57794 52.5379 2.37744 34.4437 2.37744 6.94919V2.37967H107.136V6.94919C107.136 34.4437 105.936 52.5379 99.5751 69.3731C92.6532 87.728 79.6809 103.333 57.5007 119.975L54.7513 122.028L52.0127 119.975Z" fill="white"/>
<path id="path6" d="M68.6745 22.7598C67.0868 24.0474 63.3791 24.1248 61.6267 23.6699C61.6366 23.6699 66.5833 22.6921 67.7645 21.4916C67.3772 21.056 65.7992 20.4848 65.7605 20.4558C65.7704 20.4558 73.7377 18.8875 74.4056 18.4421C74.3766 18.7422 74.1539 20.2331 68.7714 24.1636C68.6455 23.4182 68.8004 22.9825 68.6745 22.7599M28.0821 66.2667L28.092 66.2568C28.0722 66.2568 28.0722 66.2568 28.0821 66.2667ZM58.0648 51.6776C64.706 54.9304 65.7516 56.7698 65.7322 56.9344C64.0478 70.4975 79.5955 70.3133 81.8027 63.4883C81.6768 63.7884 80.2247 65.5794 76.4782 66.0439C67.4847 67.1476 65.2485 57.3795 75.5489 54.9398C77.9981 54.3687 81.3186 54.9978 83.2259 56.2661C83.2259 56.2661 85.4041 52.6939 88.2019 50.8158C87.4371 50.6899 86.1496 50.6996 84.7556 50.1672C86.2755 49.6832 91.5226 47.0113 93.6911 42.5193C93.7588 42.8872 94.4269 48.7248 91.5614 55.7823C91.4355 53.8171 90.6126 52.791 89.8672 51.7647C88.3279 53.1975 85.656 55.8403 85.1817 58.251C87.4664 61.8329 86.779 66.083 85.3463 68.5709C80.0218 77.826 65.6359 77.274 62.0151 72.0949C61.5698 76.4706 63.4769 79.5685 69.5856 82.5598C66.8362 83.7893 64.5807 83.9055 62.6733 84.07C62.1603 84.8348 59.6238 88.3199 59.5465 88.4264C61.3858 88.107 65.5487 87.3131 67.2525 86.5483C67.4947 87.0808 67.4558 88.2618 67.4558 88.2618C67.4558 88.2618 69.9631 90.4594 67.4268 95.1062C67.4268 95.1062 66.1586 91.9114 65.6745 91.7275C59.014 90.0624 56.1194 97.2361 58.3655 100.624C58.3456 100.614 56.0808 100.353 54.8609 105.194C53.9993 104.526 53.2151 102.783 53.37 101.418C53.3799 101.283 52.0728 99.9564 51.9953 99.8693C55.2191 95.2418 54.89 93.8477 54.9673 93.8381C52.431 94.0703 50.1172 98.33 50.1172 98.33L48.7522 97.3813C48.7522 97.3813 47.242 98.4171 47.9294 100.063C45.2865 98.5139 46.1674 96.7424 46.4482 95.6192C46.4192 95.5902 45.7705 94.8835 45.7899 94.8738C46.0416 94.6609 50.3398 92.986 51.9084 91.8631C50.7369 91.3403 47.7552 91.6792 46.7678 93.596L45.2479 92.5795C45.2479 92.5795 44.1249 93.3056 43.699 95.0094C42.8955 94.2349 42.6825 90.5851 44.9478 90.256C45.0447 90.2461 45.2092 89.3073 45.1995 89.2492L54.2511 88.6683C54.2511 88.6683 56.5648 85.0864 56.6616 84.2634C56.6036 84.2832 54.6093 84.1761 51.7437 85.0959C51.7437 85.0959 48.4329 80.9138 48.4232 80.4104C49.4978 71.659 51.3469 67.1668 51.3469 67.1668C49.2268 67.767 47.9392 70.4293 46.6807 75.8989C45.1802 74.7662 44.6284 72.8397 44.6284 72.8397L40.5528 74.1563C40.5627 74.1853 43.2925 77.4284 43.5344 77.6512C43.6797 77.671 44.58 77.7674 44.58 77.7578C44.8025 80.149 44.5602 82.3853 42.6922 83.7793C43.5538 81.1945 42.3243 79.7424 42.3243 79.7424L40.4559 80.5072C40.4559 80.5072 39.9525 76.3154 36.5449 76.3154C34.8507 76.3154 34.2021 80.9236 34.2021 80.9236C34.2021 80.9236 32.082 80.6138 32.0626 80.6428C31.0558 82.337 32.9436 83.1695 32.9436 83.1695C32.837 83.1985 31.656 83.2178 30.5137 82.2692C29.4197 81.1752 29.3229 79.6263 30.0296 78.2515C30.0296 78.3095 33.7954 74.7276 34.0569 74.2049C31.2011 72.3269 29.8071 75.4635 29.6425 75.6184C29.6326 75.6184 28.4421 75.3958 28.0742 75.3279C28.0742 75.3279 27.3868 75.8797 27.842 77.448C27.7451 77.506 25.7218 75.7055 26.2059 73.3142C26.2059 73.3241 26.6996 72.0073 28.7715 71.7362C29.0329 71.6976 33.0409 71.2522 33.0409 71.2522C30.398 68.5414 28.0262 70.7585 28.0163 70.7197C28.0064 70.7098 27.2999 69.7516 26.9901 69.771C26.3706 69.713 25.0346 70.1679 24.7539 71.4458C24.4634 70.923 23.718 68.9675 25.8478 67.6411C26.0413 67.5249 28.0357 67.0118 28.4133 66.9538C28.4423 66.9637 31.6951 67.4765 33.0312 67.7379C33.0602 67.7379 36.71 70.7971 37.1358 71.0876C37.1457 71.1074 40.8919 69.345 41.5018 69.1127C41.6471 69.0547 35.0349 66.615 35.0349 66.615C35.0349 66.0826 36.0998 62.9072 38.0555 61.4066C38.7719 60.8451 43.4382 60.4191 46.3132 58.9379C44.8901 58.4442 40.4466 57.0211 38.0458 53.5649C37.9685 53.4487 37.7554 57.7278 37.7554 57.7278C37.7554 57.7278 31.7435 51.1739 29.0136 50.8447C29.3621 51.0673 31.066 54.6299 31.7727 55.6561C31.6954 55.7045 31.5695 55.8304 31.0079 55.9562C31.2402 57.8343 29.1492 59.2574 26.6612 58.5022C27.6099 57.9988 28.0262 57.0114 28.1811 56.0723C28.1811 56.0723 26.7774 55.3366 26.7677 55.3269C26.7677 55.3269 27.6487 53.7973 27.4841 53.352C25.7803 48.6568 21.6271 52.6743 21.4915 54.1845C21.4915 54.1845 20.0878 53.2939 20.0781 53.2939C19.3714 54.1555 19.7006 55.6076 20.0105 56.5467C17.6386 55.3559 17.0481 51.0867 18.5196 49.7023C18.6068 49.6151 23.6988 48.0566 23.7183 48.0469C22.3146 46.5173 19.9622 47.2433 19.9622 47.2433C19.9622 47.2433 19.0716 46.0139 19.0038 45.9945C18.4713 46.1591 17.571 47.3402 17.4355 48.1824C15.8769 46.8368 16.8643 43.3613 18.8973 43.0709C19.0329 43.051 22.702 43.826 23.2827 43.8841C23.031 42.3254 21.5498 40.0987 19.9137 40.9991C19.9137 40.9792 20.8527 39.3824 20.8527 39.3921L17.7935 39.5373C19.691 37.059 22.2565 37.0106 24.8413 38.3853C24.8027 38.8596 26.8163 44.3778 27.2325 45.0554C27.6004 45.6459 33.6122 45.7718 34.1738 45.8492C34.1352 45.6267 33.9706 45.2103 34.0189 44.9973C33.5833 44.552 31.0179 41.2605 30.9114 41.3378C30.8145 41.4347 28.8106 43.7097 28.7428 43.7871C27.6392 39.508 31.2405 37.8914 27.4843 31.4827C27.4843 31.4927 23.7958 34.5903 23.7765 34.6C21.424 35.4616 19.4878 35.0647 19.0523 32.5186C19.7784 33.7771 21.9373 33.0607 21.9373 33.0607L21.8987 31.4924C27.1748 30.8631 24.7448 26.0808 23.0894 25.9259C21.8116 25.8 19.6914 26.7584 19.6914 26.8068C19.6431 26.8745 18.4039 26.3421 17.852 26.3228C16.6226 27.3587 16.4773 27.9589 16.5742 29.0722C14.7638 26.5939 15.2382 24.561 17.5035 22.7892C17.5712 22.7892 23.0798 23.0893 23.5058 22.5956C23.5638 22.3535 24.1738 19.188 20.2047 18.5491C20.2047 17.823 20.1467 17.6197 20.1467 16.8936C19.043 17.1258 17.8426 18.0844 17.5231 19.1686C16.7583 17.4841 17.7457 15.5481 19.469 14.9089C21.1922 14.2603 23.6415 14.8891 24.5225 16.5159C25.1228 17.6292 26.449 19.8267 27.0881 21.6758C27.6206 21.2402 29.76 19.4008 28.3272 17.1452C29.4502 16.3901 27.3592 15.1606 26.2749 14.9476C27.0203 14.5894 29.3051 14.5894 30.2828 14.8314C31.3284 15.0928 32.19 16.4578 32.6547 17.5226C31.735 21.2401 30.2344 25.8772 30.7766 27.4069C30.8152 27.5038 35.9751 35.7519 36.3914 35.8971C36.4301 35.8198 37.8145 30.0594 42.045 29.0914L34.9005 29.8852C35.7911 27.6102 37.6207 25.5385 39.8185 24.2897L37.5434 24.3573C35.9655 23.3118 33.1871 19.6621 32.7707 15.2378C35.762 17.1063 38.2696 17.3677 41.7933 17.3967C40.4767 16.8642 39.0535 14.9281 39.0535 14.9281C39.0535 14.9281 45.5301 15.7025 45.6267 15.7025C45.9946 15.7025 52.5194 14.8506 52.9551 14.7538C53.168 14.6958 55.4528 16.1866 55.6077 16.1285C55.9562 16.0123 61.6292 14.6667 62.0163 14.5505C62.4617 15.596 64.6302 15.0055 65.7628 14.9765C67.5732 14.9185 68.6962 16.5157 69.2867 18.2389C67.1666 17.4547 64.9883 19.0424 63.1586 21.7338C59.6736 19.7589 55.4912 20.272 54.8523 24.7544C58.5987 23.6314 61.7063 26.7487 63.6523 24.5995C64.8624 28.3267 60.0994 29.8176 57.7373 30.863C57.7373 30.8531 57.1371 28.8009 57.1274 28.8009C56.9628 28.8396 51.1155 31.1147 52.4226 35.1613C52.4325 35.1903 71.7554 30.3112 79.5378 14.9476C81.3772 17.1743 80.2639 21.7147 80.0025 22.7407C80.0025 22.7605 91.1646 16.845 94.6885 14.7345C94.6013 15.3347 89.7512 32.3732 93.856 39.053C86.2468 39.9824 81.9677 46.914 81.5903 52.9549C75.7139 51.0865 69.5568 54.0198 68.2113 56.7014C66.372 54.1068 61.367 51.9576 58.0656 51.6771M59.7985 17.5506L62.2477 17.6862C62.2477 17.6862 63.574 16.5148 63.5644 16.5148C63.2352 15.7984 60.6989 16.6794 60.6989 16.6794L59.7985 17.5506ZM53.593 18.9737C53.6029 18.9737 54.2803 17.1827 54.2803 17.1827C54.2803 17.1827 53.0121 16.8923 52.9928 16.8923C52.9928 16.8923 50.9598 17.386 48.288 17.5506C48.2493 17.5704 51.5311 18.1218 51.5311 18.1218C51.3858 19.0415 53.051 19.2157 53.5931 18.9737M81.1347 60.5053C80.7184 57.4171 72.8283 59.0242 72.8866 61.4057C72.9639 64.3583 81.2606 62.4512 81.1347 60.5053Z" fill="#CF1E26"/>
<path id="path8" d="M94.677 14.744L72.3915 30.0303L68.1223 30.4659L94.677 14.744ZM27.5022 53.4182C27.5698 53.7957 27.0956 54.7251 26.7664 55.3253C27.1343 55.1801 28.6058 53.8538 28.6445 53.544C28.6644 53.2923 28.1314 51.4529 27.3182 50.8528C23.8233 48.1809 21.4322 53.912 21.4322 53.912L18.5279 49.7105L19.2249 52.0533C17.918 53.9314 19.98 56.5259 20.0091 56.5549C19.1572 54.125 20.0767 53.3021 20.0767 53.3021C20.2606 53.4184 21.4417 54.1444 21.4901 54.1734C21.5578 52.7891 25.7982 48.5585 27.502 53.4183M31.7618 55.6546C31.7618 55.6546 27.4827 55.4224 26.7665 55.3254C26.7665 55.3354 28.1799 56.0709 28.1799 56.0709C28.1799 56.0709 27.9477 57.8812 26.6503 58.4911C26.6793 58.4911 29.6805 58.3362 30.058 56.0612C31.4327 56.0032 31.7618 55.6546 31.7618 55.6546M20.3576 46.3126L18.9055 43.0791C18.9055 43.0791 18.7506 45.0153 18.7409 45.0153C16.6595 45.4703 17.0467 47.6002 17.4243 48.1809C17.4243 47.9387 18.0439 46.4189 19.0023 45.993C19.0506 45.9732 19.9607 47.2515 19.9607 47.2418C19.9993 47.2418 22.3131 46.5158 23.7071 48.0453L24.1718 48.0163C21.6162 44.8604 20.3574 46.3125 20.3574 46.3125M23.2811 43.8729C23.2712 43.8828 23.6974 43.9309 23.6974 43.9309C23.6875 43.921 24.1234 40.3973 20.919 40.7943C22.8067 41.2494 23.2811 43.8729 23.2811 43.8729ZM35.0725 66.5941C35.0725 66.5941 35.0923 66.5941 35.1111 66.6041C35.0913 66.5941 35.0821 66.5842 35.0725 66.5751V66.5949M65.6747 91.2232C65.6747 91.2232 65.365 89.9162 65.365 89.8388C54.048 89.6356 57.504 99.9456 57.504 99.9456L54.4544 99.297L52.5182 100.004C52.5182 100.004 53.3701 100.981 53.3798 100.952C53.8832 99.3744 56.3228 100.943 56.1583 101.185C56.1293 101.223 54.8901 100.981 54.7836 101.146C53.6896 102.734 54.8319 105.173 54.8609 105.193C56.0129 100.507 58.2686 100.594 58.3752 100.623C55.8872 96.4699 59.7983 90.0709 65.6746 91.7264C65.9456 91.6684 67.0396 94.0982 67.4268 95.1051C67.9109 93.4012 68.1238 90.4679 67.0008 88.8124C66.1586 89.3739 65.6939 91.2133 65.6746 91.223M48.0166 96.0054C45.7415 97.9415 47.91 100.052 47.9392 100.071C47.2422 98.4836 48.6943 97.4091 48.7524 97.3801C48.8397 96.2958 48.0167 96.0054 48.0167 96.0054M31.9948 49.4873L32.4208 48.3837C32.4208 48.3837 31.0655 47.648 29.1874 48.7129L29.0035 50.8427C31.3947 51.0944 36.7385 56.6125 37.7549 57.7354C36.5157 56.0993 31.9948 49.4873 31.9948 49.4873M46.5549 91.0487L46.0999 91.9781L45.5287 90.4291C45.5287 90.4291 45.0253 91.4553 45.006 91.4553C43.641 91.7361 43.399 93.6238 43.699 95.0082C44.1153 93.3141 45.248 92.5783 45.248 92.5783L46.7679 93.5948C47.8715 91.5231 50.9694 91.4069 51.9181 91.8716C51.9082 91.8617 52.5377 91.2133 52.5377 91.2036C52.5377 91.2036 49.5463 89.4514 46.5548 91.0487M35.0925 66.4301L35.0826 66.44C35.0925 66.4301 35.1116 66.4301 35.1213 66.4202L35.0925 66.4301ZM54.1156 35.3346C64.0968 36.9707 65.8296 30.7361 65.8296 30.7361L80.0026 22.7396C80.2349 21.878 81.3967 17.173 79.538 14.9465C79.2572 15.6048 76.0624 27.2219 54.1154 35.3346M54.8511 24.7728C56.6518 26.8929 58.433 27.1736 58.8107 27.2124C58.7235 27.3673 58.2783 29.0324 57.7265 30.8622C57.7265 30.8622 57.1359 28.8098 57.1166 28.8195C56.9617 28.8678 51.2499 31.0655 52.3924 35.1315C52.0148 35.2864 49.9431 35.2574 49.9431 35.2574C49.9431 35.2574 45.5867 36.5643 44.9478 38.278C44.5993 39.2267 43.9313 42.4892 43.9313 42.4892L42.1113 42.5472C42.1113 42.5472 43.4182 40.4561 43.4085 40.4561C40.1171 39.943 35.4606 41.3661 35.4606 41.3661C35.4606 41.3661 35.3637 43.98 35.5575 44.7931C35.5575 44.7832 38.5101 43.6798 39.5074 43.5443C38.2586 44.2026 35.2866 45.8968 35.2866 45.8968L34.1636 45.8484C34.1636 45.8484 33.999 45.3063 34.0087 44.9965C34.0087 44.9866 34.0474 44.4931 34.0474 44.4931L31.3366 39.4591L30.9106 41.3469L28.7421 43.7865C27.6191 39.5464 31.2494 37.9585 27.4836 31.4822C27.4836 31.5208 24.6568 33.8443 23.7757 34.5994C21.4717 35.4513 19.5259 35.1125 19.0516 32.518C19.1775 32.8181 20.1165 34.5607 22.4689 34.0089C22.4788 33.9989 22.4303 31.9081 22.4303 31.9081L21.8978 31.4918C21.8978 31.4918 22.5368 31.4242 23.1176 31.2304C23.1374 31.2304 24.4923 31.2503 24.4923 31.2503C24.4923 31.2503 25.8186 30.2725 25.4507 28.0847C24.7827 24.1447 19.7099 26.8068 19.6809 26.8068C19.6133 26.787 18.9646 25.4031 17.8512 26.3228C16.6314 27.3296 16.4862 27.9492 16.5734 29.0625C14.8695 25.8484 17.9674 24.3285 17.9674 24.3285L17.6867 23.1571C17.6867 23.1571 22.7789 24.8028 24.686 23.8831C24.686 23.8732 22.6239 22.8183 22.6239 22.8183C22.6239 22.8183 23.379 22.7603 23.4952 22.6054C24.1245 18.9459 20.2038 18.5394 20.2038 18.5394L20.1361 16.9034C20.1361 16.9034 18.1805 17.2809 17.5126 19.1687C17.4739 18.704 18.3354 15.5578 20.3103 15.4029C22.1788 15.2867 23.4372 16.2742 23.4662 16.3032C22.4013 16.3131 20.8137 16.3322 20.8137 16.3322L25.1024 19.7979L26.5933 23.1377L27.087 21.6662C27.087 21.6662 29.8944 19.6235 28.3359 17.1452C29.4782 16.3224 27.1838 15.1122 26.2738 14.9477C31.1142 15.0832 30.969 16.8451 30.9497 16.8645C30.9397 16.8645 32.3147 17.3873 32.3147 17.3873L31.0368 18.4038C31.0368 18.4038 28.6262 26.923 29.4685 28.0652C29.4784 28.0553 36.0224 36.0908 36.3518 36.0132C36.3518 36.0132 36.1969 36.5747 36.1679 36.7974C36.4001 36.7394 37.5329 36.2649 41.4633 36.1584L42.17 36.6715L45.1323 33.8931C45.1323 33.8931 43.293 33.0024 37.0488 34.048C37.0778 33.9707 37.223 33.6317 37.281 33.5349C40.3499 32.8669 42.8475 33.0315 42.8475 33.0315L43.5349 33.4962L46.5262 30.8629C43.4477 29.6625 39.4494 30.7564 39.1299 30.805C39.7882 30.1273 40.6305 29.4496 41.9567 29.1011C45.0546 28.7913 47.7654 28.6364 47.9007 28.6655C49.9143 23.7088 53.5835 21.1919 54.4546 20.7078C53.8931 21.3565 51.5503 23.467 52.1312 28.6558C52.3344 29.1011 52.6927 22.2375 56.9426 20.2335C59.4209 19.217 62.3736 20.5529 63.1384 21.7147C59.208 19.6042 55.442 20.6401 54.8514 24.7739M44.2702 36.9429C40.0977 36.275 36.0318 37.4173 36.0318 37.4173C36.0028 37.5529 35.5768 39.5277 35.4993 40.796C37.0192 40.0312 40.8431 39.7989 40.8431 39.7989C40.8431 39.7989 41.6079 40.2829 41.6079 40.2732C41.6079 40.2732 44.2411 36.9528 44.2701 36.9429M61.5603 35.9651C61.115 36.3136 59.9146 36.6137 59.9146 36.6137L60.66 38.9468L81.5805 52.955L61.5603 35.9651ZM68.1918 56.6727L58.511 37.059C56.9911 37.3688 55.9747 37.4559 54.5903 37.1753C54.5903 37.3688 54.7838 40.1086 54.3677 41.9383C54.1935 42.6741 53.9224 43.3033 53.4868 43.5938L47.6588 44.7264L41.8114 47.6404V51.1354L33.5147 47.5438L38.0454 53.5557L41.5596 52.4521C40.3979 54.0978 39.9429 55.3758 39.8848 55.5693C39.9721 55.6565 40.3011 55.9081 40.3398 55.9469C40.3596 55.6468 41.2982 53.6622 42.489 51.9099L45.1415 49.8769L47.0003 52.9168C47.6489 52.1617 48.1136 51.7164 48.1233 51.7067V51.7166C48.1233 51.7265 48.1332 51.7456 48.1523 51.7843L49.0913 53.4494L50.2337 55.4824C50.6596 54.8241 51.3857 54.3304 51.4147 54.3207L53.6995 57.3313L60.3793 55.5113L65.723 56.8957C64.6097 54.7756 58.2107 51.7455 58.0752 51.6872C57.6299 51.455 54.3094 51.7452 53.5446 51.8421C53.9512 51.0193 58.3366 39.3633 58.3366 39.3633C58.3366 39.3633 68.2789 56.8858 68.1919 56.6729M62.5091 35.5006L62.9835 35.7717C65.0262 36.0331 67.1367 33.8161 67.1367 33.8161L93.8554 39.0632L66.6807 31.4154C66.4289 32.6352 64.6477 34.5713 62.5082 35.5007M37.5416 24.3675C37.8417 24.2127 49.0811 19.4592 53.6893 19.9532C48.3746 18.7624 44.2214 19.0528 42.8563 19.5369C36.3894 25.8296 33.4078 17.1263 32.7688 15.2385C33.1174 19.5949 35.9441 23.3124 37.5416 24.3676M55.5577 16.1582H55.5676H55.5776H55.5577ZM24.5292 38.2306L21.6734 38.8211C21.6734 38.8211 21.0635 37.2044 17.7914 39.5472L20.8409 39.3923C20.8509 39.3725 19.9116 40.9897 19.9213 40.9897C20.173 40.6605 24.8392 38.3854 24.8392 38.3854L24.5292 38.2306ZM43.436 57.815L43.9104 58.0279C44.6558 55.9465 46.0402 54.049 46.9986 52.9164L46.3113 53.1196C43.9782 55.7528 43.4845 57.6891 43.4359 57.8148M34.8974 29.8841L54.5691 20.1547C54.5691 20.1547 46.1467 22.5653 45.6724 22.5653C37.1338 23.2042 34.8976 29.884 34.8976 29.884M63.0117 15.14C63.0117 15.14 62.2372 15.1013 62.0145 14.5494C62.0046 14.5594 58.3261 16.6405 56.9999 17.4828C57.0098 17.4828 57.2807 17.5311 57.3 17.5408C58.9555 16.9115 63.0118 15.1399 63.0118 15.1399M61.6371 23.6784C63.4184 24.1431 66.9422 24.085 68.675 22.7975C68.8106 23.02 68.6267 23.388 68.7719 24.1625C69.953 23.359 74.2802 20.0287 74.4061 18.441C73.7672 19.3123 67.0971 24.2301 61.6371 23.6785M54.8507 92.6154C53.3695 92.8476 49.6519 93.7674 49.0616 95.2776L49.9619 96.6039C49.9619 96.6039 50.0975 98.269 50.1168 98.3271C50.1168 98.3271 52.3434 94.1739 54.9669 93.8351C54.9379 93.6222 54.87 92.625 54.8507 92.6153M62.6727 84.0671C63.4472 83.9702 66.4774 83.9799 69.585 82.5569C69.585 82.5569 57.358 81.3661 53.0306 77.9487C51.7624 75.1413 53.6308 57.6768 53.6308 57.6768C53.6308 57.7155 51.3461 60.4359 51.3558 60.4359C49.7584 60.0971 48.5967 59.7679 47.8512 59.5259C48.1513 58.9547 49.284 56.8151 50.2327 55.4793L49.6615 55.547C49.468 55.8277 47.9964 57.9963 47.3768 59.371C47.009 59.2355 46.8541 59.1678 46.8541 59.1678L48.2384 61.8203L37.0087 66.2057L42.8464 67.745L43.495 69.2843L36.8538 71.9368L37.1346 71.0849C37.1346 71.0849 33.0397 67.7352 33.03 67.7352L30.0677 68.1031L27.8991 69.9715C27.8315 69.7779 26.5438 68.6355 26.5244 68.5968C24.7044 69.1486 24.5689 70.4265 24.7528 71.4429C25.0142 70.2328 26.2824 69.71 27.0182 69.7681C27.3473 69.7971 27.9669 70.6587 28.0153 70.7168C31.0259 68.4902 33.33 71.4913 33.2527 71.6075L29.0319 72.8176C29.0319 72.8176 28.0057 74.26 28.0057 74.4537C28.0057 74.6472 26.7375 73.6017 26.7182 73.5824C26.1857 74.202 26.873 76.6223 27.8411 77.4741C27.4248 75.8767 28.0733 75.3346 28.0733 75.3346C28.1606 75.3346 29.6513 75.625 29.6513 75.625C31.8102 71.8689 34.4338 74.5311 34.4338 74.5311L31.5487 79.7103L30.6 79.0616C29.9514 80.1072 30.8517 82.8468 32.9331 83.1662C31.9747 82.6628 31.3745 81.8206 32.0618 80.6396C32.0817 80.6106 34.2013 80.9106 34.2013 80.9106C34.2013 80.9106 34.8499 76.3218 36.5441 76.3121C39.9325 76.2923 40.4551 80.5039 40.4551 80.5039L42.3235 79.7391C42.3235 79.7391 43.5336 81.2784 42.6914 83.7471C44.5502 82.353 44.8018 80.1458 44.5792 77.7545C44.5594 77.7644 43.5336 77.6479 43.5336 77.6479C43.1755 77.2897 40.552 74.1629 40.552 74.153L44.6276 72.8364C44.8115 73.3495 45.2181 74.7145 46.6799 75.8956C46.8445 75.489 48.103 67.9184 51.3268 67.2022C49.3809 72.1878 48.4224 80.4069 48.4224 80.4069C48.4708 80.9491 51.7429 85.0924 51.7429 85.0924C52.0817 84.9472 54.2405 84.3276 56.6609 84.2599C56.6898 84.831 54.2503 88.6648 54.2503 88.6648L57.0094 90.601C57.0094 90.601 63.9507 88.6067 67.2615 86.5448C65.4608 87.3579 59.5457 88.4228 59.5457 88.4228C59.5457 88.4228 62.3821 84.5601 62.6726 84.0665M36.8535 71.9363L36.8436 71.9264V71.9363H36.8535ZM69.5846 82.5564C69.5846 82.5564 69.5946 82.5564 69.5846 82.5564V82.5564ZM55.1601 16.5811L53.6886 16.0777L45.2759 16.5811C44.9661 16.5328 39.0511 14.9256 39.0511 14.9256C39.0511 14.9256 40.5226 16.9102 41.7909 17.3943C42.1782 17.4141 48.2093 17.5685 48.2868 17.5492C50.7748 17.4136 52.982 16.9102 52.982 16.9102C53.0018 16.9102 54.2793 17.1813 54.2793 17.1813L53.5919 18.9723L55.1601 16.5811ZM93.6905 42.5167C93.6905 42.5167 94.1746 48.4317 91.735 54.3856C91.6963 54.4629 91.8705 53.4562 90.3796 51.1618C91.3574 50.0872 92.19 49.0223 92.674 47.5509C93.0903 46.3214 93.4388 44.8111 93.5453 43.2138C92.4901 51.307 87.9111 50.2518 84.2613 56.9898C84.6195 57.3867 84.9776 57.8902 85.1809 58.2483C85.8199 55.5765 88.1046 53.4853 89.8665 51.7621C90.1956 52.2655 91.4057 53.495 91.5606 55.7604C94.5713 48.2578 93.6904 42.5167 93.6904 42.5167M88.2014 50.8134L88.9565 50.3778C88.9565 50.3778 88.0175 50.5906 84.755 50.1745C86.1104 50.7167 88.1434 50.7651 88.2014 50.8135M85.8102 59.4296C87.6109 65.0155 84.784 69.2556 78.2687 71.1726C74.0382 72.4118 67.2035 72.0149 64.512 67.7649C64.522 67.7359 64.2992 65.8191 65.0832 61.0368C64.3862 62.518 62.5177 67.068 62.0143 72.0923C65.5479 76.7488 74.0285 76.1292 77.4748 74.8514C87.4268 71.1629 87.5623 62.8569 85.8101 59.4296M75.8389 57.4256C73.196 57.9581 70.4852 60.6688 73.3799 62.3919C70.8243 59.8071 78.9755 57.4643 80.7762 59.7007C80.8245 59.7587 81.7733 60.7753 80.2534 61.6756C80.8633 62.847 80.0889 64.0378 79.992 64.0572C79.992 64.0572 74.5321 67.0971 69.7786 63.9992C72.4119 67.2616 79.4984 66.5161 81.7925 63.5248C81.8025 63.5149 83.1576 60.8723 81.6376 58.6455C80.8535 57.4741 78.9269 56.7964 75.8389 57.4257M60.5139 16.3872L59.7879 17.5489C59.7879 17.5489 60.7172 16.7164 60.7269 16.697C63.0891 16.1549 63.6216 16.5904 63.5633 16.5131C63.5633 16.5131 64.4443 15.1868 60.5138 16.3872" fill="#AE2630"/>
</g>
<path id="path12" d="M104.756 4.76308V6.95096C104.756 34.1629 103.575 52.0341 97.36 68.5322C90.593 86.442 77.8626 101.719 56.0712 118.069L54.7643 119.056L53.4477 118.069C31.6558 101.718 18.9247 86.4406 12.1688 68.5322C5.944 52.036 4.76283 34.1654 4.76283 6.95096V4.76308H104.756ZM109.519 0H0V6.95094C0 34.7255 1.22947 53.0328 7.70608 70.215C14.8023 89.0249 28.0263 104.951 50.5934 121.873L51.9003 122.861L54.7657 125L57.6218 122.861L58.9287 121.873C81.495 104.951 94.7181 89.0254 101.816 70.215C108.293 53.0313 109.522 34.7255 109.522 6.95094L109.519 0Z" fill="#00953D"/>
</g>
</svg>
