<svg width="108" height="121" viewBox="0 0 108 121" fill="none" xmlns="http://www.w3.org/2000/svg">
<g id="ghana">
<path id="path12" d="M54.3338 113.091L53.0616 114.047L54.8637 116.446L56.1359 115.49L54.3338 113.091ZM50.8036 116.774L50.7993 116.771C28.9719 100.494 16.3308 85.2893 9.55792 67.4364C3.35925 51.0832 2.15405 33.606 2.15405 6.72851V1.5H105.763L105.765 6.72851C105.765 6.7287 105.765 6.7289 105.765 6.72909C105.765 33.6063 104.56 51.0819 98.361 67.4365C91.5864 85.2899 78.9462 100.494 57.1196 116.771L57.1153 116.774L55.848 117.726L55.8431 117.73L53.9626 119.131L52.0758 117.73L52.069 117.725L50.8036 116.774Z" fill="url(#paint0_linear_145_4703)" stroke="#F2EFEA" stroke-width="3"/>
<path id="path12_2" opacity="0.2" d="M53.6797 113.091L52.4075 114.047L54.2096 116.446L55.4818 115.49L53.6797 113.091ZM50.1496 116.774L50.1452 116.771C28.3179 100.494 15.6768 85.2893 8.90386 67.4364C2.7052 51.0832 1.5 33.606 1.5 6.72851V1.5H105.109L105.111 6.72851C105.111 6.7287 105.111 6.7289 105.111 6.72909C105.111 33.6063 103.906 51.0819 97.7069 67.4365C90.9323 85.2899 78.2921 100.494 56.4656 116.771L56.4612 116.774L55.194 117.726L55.189 117.73L53.3085 119.131L51.4218 117.73L51.4149 117.725L50.1496 116.774Z" fill="url(#paint1_linear_145_4703)" stroke="#F2EFEA" stroke-width="3"/>
<path id="path12_3" d="M103.472 4.61066V3.11066H101.972H4.63623H3.13623V4.61066V6.72853C3.13623 33.0758 4.27689 50.6218 10.4429 66.8712C17.155 84.5645 29.7816 99.5637 51.1299 115.493L51.1302 115.493L52.4118 116.449L53.3119 117.12L54.2096 116.446L55.4778 115.493C55.4787 115.492 55.4795 115.492 55.4804 115.491C76.8268 99.564 89.4516 84.5653 96.1742 66.872L96.1748 66.8706C102.331 50.6197 103.472 33.0736 103.472 6.72853V4.61066ZM50.1496 116.774L50.1452 116.771C28.3179 100.494 15.6768 85.2893 8.90386 67.4364C2.7052 51.0832 1.5 33.606 1.5 6.72851V1.5H105.109L105.111 6.72851C105.111 6.7287 105.111 6.7289 105.111 6.72909C105.111 33.606 103.906 51.0815 97.7071 67.436C90.9326 85.2896 78.2924 100.494 56.4656 116.771L56.4612 116.774L55.194 117.726L55.189 117.73L53.3085 119.131L51.4218 117.73L51.4149 117.725L50.1496 116.774Z" fill="#141414" stroke="#171716" stroke-width="3"/>
<circle id="Ellipse 3" cx="52.6513" cy="75.5433" r="35.6459" fill="#FFFBF7"/>
<path id="path1458" d="M49.8185 111.06C34.7986 110.031 21.6091 98.1964 17.8866 83.8681C14.4522 69.0111 21.2725 52.2809 34.5798 44.5245C43.1394 39.4149 53.8799 38.7761 63.3528 41.4376C75.0541 45.0315 83.9611 55.4381 87.0878 67.0489C89.8967 77.7484 87.8708 89.8972 80.405 98.3284C73.6433 106.746 62.835 111.596 52.0265 111.162C51.2898 111.147 50.5535 111.113 49.8185 111.06ZM58.7711 109.376C61.4663 109.141 60.9925 108.315 58.5411 108.105C54.1614 107.263 49.4325 107.241 45.2056 108.718C48.9264 110.511 53.8694 110.049 58.0347 109.514L58.7711 109.376L58.7711 109.376ZM45.5012 107.009C47.4246 105.047 45.418 100.36 43.7371 98.5034C39.9802 96.5876 37.0671 93.4561 33.6308 91.0947C31.0429 90.1533 28.5187 91.9428 26.0171 92.5491C26.0059 95.0197 25.8447 97.8093 28.0202 99.5271C31.6015 103.06 35.9241 106.157 40.8027 107.564C42.3697 107.637 44.0153 107.542 45.5012 107.009ZM66.0972 107.108C72.3308 104.423 78.1781 100.109 81.6933 94.2377C82.9589 92.5482 83.8883 89.5902 80.5824 90.5684C76.4298 93.1767 72.6799 96.4049 68.4257 98.8759C65.8464 100.914 63.9883 103.719 62.1547 106.402C62.794 107.888 64.8718 107.534 66.0972 107.108ZM70.3229 96.3199C73.4564 93.752 77.9903 92.0977 79.6353 88.2025C80.3785 85.1394 80.4369 81.9694 80.7468 78.8448C77.6245 76.0769 73.7899 74.2 70.0409 72.4265C66.3357 72.7229 63.3413 76.0088 60.4112 78.1383C58.8499 78.9993 59.2507 80.934 58.8265 82.4173C58.2588 85.8855 57.6014 89.3432 57.2229 92.8386C60.1381 94.9931 63.3925 96.9705 66.9372 97.8017C68.2181 97.8175 69.2823 96.9507 70.3229 96.3199ZM47.9736 96.8605C50.8113 95.7793 54.5663 94.9628 55.8985 91.9603C56.8864 87.7532 57.4358 83.4478 57.9579 79.1621C55.1386 76.4849 52.1285 73.6622 48.4319 72.2651C45.243 72.214 42.5402 74.4663 39.7025 75.6966C35.8848 76.7311 34.5588 80.1986 34.3918 83.7799C33.2717 87.3226 34.5572 90.9617 37.7764 92.9144C40.5882 94.984 44.2019 98.2842 47.9736 96.8605ZM24.2225 91.8955C21.9204 87.6453 20.3326 82.9907 19.6988 78.202C17.422 78.6596 19.4913 84.2378 20.1187 86.5138C21.1922 89.5882 22.8345 92.4144 24.5372 95.178C24.8486 94.041 25.0333 92.9116 24.2225 91.8955ZM23.231 72.975C24.2364 71.5418 25.8365 70.4104 26.4395 68.773C27.5039 63.8158 29.24 59.0303 31.7231 54.5984C31.6182 51.735 28.4145 49.9955 26.8193 53.1507C22.2741 58.9914 18.7085 66.1086 18.5516 73.6206C17.954 76.197 20.2003 78.0713 21.4944 75.0206C22.0742 74.3395 22.6529 73.6575 23.231 72.975ZM81.7593 76.5264C83.6859 74.0031 86.3486 71.0081 85.6562 67.5902C84.4506 61.1095 81.1161 54.9562 75.9942 50.7327C74.4735 50.0891 71.6944 47.7208 70.6336 49.9578C69.0657 52.9633 65.1661 55.8046 66.5712 59.5474C67.7756 63.2422 68.6543 67.104 70.4101 70.5832C73.6399 73.099 77.3811 75.0542 81.1427 76.7045L81.7593 76.5264H81.7593ZM38.786 74.8461C41.7685 73.3434 44.6653 71.6818 47.5736 70.0435C48.5543 66.6245 49.7852 63.2843 50.9319 59.9225C51.0922 56.2874 47.8424 53.6757 45.6683 51.1262C43.5334 47.716 39.9204 50.3317 37.2848 51.5789C31.4843 54.67 30.1525 61.4748 28.1818 67.155C28.4552 69.282 30.4071 71.0574 31.8317 72.6475C33.8007 74.6195 36.0143 77.2547 38.786 74.8461ZM60.1777 56.4717C61.7206 56.2605 63.4438 56.4151 64.876 55.9794C67.0186 53.6777 68.9044 50.9811 69.797 47.9559C68.7196 44.9063 65.1503 43.5165 62.2848 42.4784C58.6341 41.3946 54.7253 40.8638 50.9361 41.2921C48.2011 42.6857 43.2952 46.73 46.0652 49.8646C48.0941 52.2751 50.2537 54.5721 52.4527 56.8287C55.0325 56.8537 57.6063 56.6529 60.1777 56.4717Z" fill="black"/>
<path id="Star 4" d="M52.9961 5.6279L56.8921 17.6183H69.4996L59.2999 25.0288L63.1958 37.0193L52.9961 29.6088L42.7965 37.0193L46.6924 25.0288L36.4927 17.6183H49.1002L52.9961 5.6279Z" fill="#131111"/>
</g>
<defs>
<linearGradient id="paint0_linear_145_4703" x1="107.265" y1="35.973" x2="0.654052" y2="35.973" gradientUnits="userSpaceOnUse">
<stop stop-color="#C8102E"/>
<stop offset="0.257669" stop-color="#C8102E"/>
<stop offset="0.355828" stop-color="#E4C649"/>
<stop offset="0.631902" stop-color="#F2C94C"/>
<stop offset="0.699386" stop-color="#2C9F1D"/>
<stop offset="0.958333" stop-color="#2C9F1D"/>
</linearGradient>
<linearGradient id="paint1_linear_145_4703" x1="173.324" y1="35.973" x2="-24.2" y2="37.9351" gradientUnits="userSpaceOnUse">
<stop offset="0.328125" stop-color="#FAF6F2" stop-opacity="0"/>
<stop offset="0.567708" stop-color="#FAF6F2"/>
<stop offset="0.630208" stop-color="#FAF6F2" stop-opacity="0.3"/>
</linearGradient>
</defs>
</svg>
