<svg width="109" height="143" viewBox="0 0 109 143" fill="none" xmlns="http://www.w3.org/2000/svg">
<g id="japon">
<g id="g24">
<g id="g10">
<path id="path2" fill-rule="evenodd" clip-rule="evenodd" d="M54.0746 128.313C56.148 126.877 58.7285 125.196 61.735 123.44C65.5395 121.218 70.1432 118.806 75.4875 116.488C78.9849 114.971 81.897 113.531 84.3234 112.132C86.6693 110.778 88.551 109.463 90.065 108.151C91.3064 107.075 92.2796 105.989 93.0603 104.867C93.8428 103.742 94.424 102.602 94.8814 101.411C96.9882 95.9345 96.7256 86.7308 96.6939 85.812L96.6566 22.1734H11.4927L11.4555 85.812C11.4238 86.7308 11.1611 95.9345 13.2679 101.411C13.7258 102.602 14.307 103.743 15.089 104.867C15.8698 105.989 16.8433 107.075 18.0843 108.151C19.5984 109.463 21.4797 110.778 23.8263 112.132C26.2523 113.531 29.164 114.971 32.6618 116.488C38.0064 118.806 42.6098 121.218 46.4144 123.44C49.4208 125.195 52.0018 126.878 54.0746 128.313V128.313ZM47.6474 31.8707C46.701 31.8707 45.9342 32.6375 45.9342 33.5838C45.9342 34.5303 46.701 35.2971 47.6474 35.2971C48.5938 35.2971 49.3606 34.5303 49.3606 33.5838C49.3606 32.6375 48.5938 31.8707 47.6474 31.8707ZM50.4195 32.4536C50.448 32.5111 50.4916 33.9725 50.4916 33.9725L54.4716 32.3602C54.4716 32.3602 54.5942 32.166 54.5148 32.0653C54.4354 31.9647 54.3132 32.0079 54.3132 32.0079L50.4195 32.4536ZM47.6474 32.7774C47.2021 32.7774 46.8409 33.1385 46.8409 33.5838C46.8409 34.0293 47.2021 34.3903 47.6474 34.3903C48.0928 34.3903 48.4538 34.0293 48.4538 33.5838C48.4538 33.1385 48.0928 32.7774 47.6474 32.7774Z" fill="white"/>
<path id="path4" fill-rule="evenodd" clip-rule="evenodd" d="M79.8015 126.711C65.7088 132.825 57.4502 139.895 57.2956 140.028C56.2893 141.006 54.8856 142.068 53.7839 143L50.6203 139.836C49.7095 139.085 46.1807 136.271 40.4407 132.88C37.0819 130.896 33.0111 128.736 28.3443 126.711C24.3607 124.984 21.0247 123.323 18.2195 121.688C15.3342 120.006 12.9569 118.325 10.9735 116.606C8.86301 114.776 7.19682 112.907 5.8479 110.954C4.50267 109.007 3.47926 106.977 2.64983 104.819C1.59549 102.078 0.954035 98.9099 0.568683 95.902C-0.02685 91.2541 -0.0198708 86.9478 0.0110852 85.2952V0H108.135V85.2952C108.166 86.9478 108.173 91.2541 107.577 95.902C107.192 98.9099 106.55 102.078 105.496 104.819C104.667 106.977 103.643 109.006 102.298 110.954C100.949 112.907 99.2832 114.776 97.1723 116.606C95.1889 118.325 92.8116 120.006 89.9264 121.688C87.1215 123.323 83.7851 124.984 79.8015 126.711V126.711ZM54.0729 139.374C54.0729 139.374 63.3266 131.399 78.9891 124.604C94.6516 117.809 100.255 112.053 103.135 104.567C106.014 97.0818 105.534 85.3893 105.534 85.3893V2.26128H2.61152V85.3893C2.61152 85.3893 2.1317 97.0818 5.0111 104.567C7.89049 112.053 13.4943 117.809 29.1567 124.604C44.8175 131.398 54.0708 139.372 54.0729 139.374Z" fill="white"/>
<path id="path6" fill-rule="evenodd" clip-rule="evenodd" d="M39.5432 15.2134H36.8818L37.9709 12.6035L37.9855 12.5691L39.0368 10.0505L39.0747 9.95918L40.0042 7.73306H40.0038L40.3667 6.8636L40.367 6.86323L40.4185 6.74004C40.5056 6.57322 40.7208 6.29704 41.1881 6.29704H44.1224L43.7094 7.28632L43.8962 7.73306H43.8958L44.8251 9.95918L44.863 10.0505L45.9143 12.5691L45.9289 12.6035L47.0181 15.2134H44.3568L43.831 13.9531H40.0689L39.5432 15.2134ZM71.7787 6.29704H72.7074H74.18L77.6412 11.0836V8.44271V6.5962C77.6449 6.43356 77.7776 6.30122 77.9399 6.29704H78.8686H80.3412V13.0677V14.9142C80.3375 15.0769 80.2047 15.2092 80.0425 15.2134H79.1138H77.6412L74.18 10.4268V13.0677V14.9142C74.1763 15.0769 74.0435 15.2092 73.8813 15.2134H72.9526H71.48V8.44271V6.5962C71.4837 6.43356 71.6164 6.30122 71.7787 6.29704ZM49.9699 6.29704H50.1141H52.3632H54.2887H54.3602V6.29779C56.2032 6.33575 57.6855 7.84143 57.6855 9.69387C57.6855 11.5463 56.2032 13.052 54.3602 13.0899H54.3473L54.2887 13.0907L54.2303 13.0899H52.3632V15.2134H49.6631V6.60415C49.6631 6.43487 49.8011 6.29704 49.9699 6.29704V6.29704ZM52.3632 8.31176V11.0759H53.4904H53.5143H53.5381H53.543C54.2929 11.0602 54.8961 10.4477 54.8961 9.69387C54.8961 8.94 54.2929 8.32749 53.543 8.31176H53.514H52.3632ZM61.5396 15.2134H58.8782L59.9674 12.6035L59.982 12.5691L61.0333 10.0505L61.0713 9.95918L62.0006 7.73306H62.0003L62.3631 6.8636L62.3634 6.86323L62.415 6.74004C62.502 6.57322 62.7172 6.29704 63.1845 6.29704H66.1189L65.7059 7.28632L65.8925 7.73306H65.8922L66.8216 9.95918L66.8595 10.0505L67.9108 12.5691L67.9254 12.6035L69.0147 15.2134H66.3532L65.8274 13.9531H62.0654L61.5396 15.2134ZM63.9464 9.44694L63.7326 9.95918L63.6947 10.0505L62.8398 12.0982H65.053L64.1982 10.0505L64.1602 9.95918L63.9464 9.44694ZM33.9233 14.0287C33.2656 14.7318 31.9205 15.2134 30.3674 15.2134C29.2841 15.2134 28.3022 14.979 27.5839 14.5988L28.4174 12.5568C28.9745 12.8219 29.662 13.0527 30.3674 13.0527C32.0249 13.0527 31.9211 11.7883 31.9211 11.7883V11.0627V8.3512H30.029L30.8863 6.29704H31.9211H32.954H34.0474C34.3628 6.29704 34.6208 6.51082 34.6208 6.77198V11.7883C34.6208 13.6221 33.9233 14.0287 33.9233 14.0287V14.0287ZM41.95 9.44694L41.7361 9.95918L41.6982 10.0505L40.8433 12.0982H43.0565L42.2017 10.0505L42.1637 9.95918L41.95 9.44694Z" fill="white"/>
<path id="path8" fill-rule="evenodd" clip-rule="evenodd" d="M47.6473 31.8707C46.701 31.8707 45.9342 32.6374 45.9342 33.5838C45.9342 34.5303 46.701 35.2971 47.6473 35.2971C48.5938 35.2971 49.3606 34.5303 49.3606 33.5838C49.3606 32.6374 48.5938 31.8707 47.6473 31.8707ZM50.4195 32.4536C50.448 32.5111 50.4916 33.9725 50.4916 33.9725L54.4716 32.3602C54.4716 32.3602 54.5941 32.166 54.5148 32.0653C54.4354 31.9647 54.3132 32.0079 54.3132 32.0079L50.4195 32.4536ZM47.6473 32.7774C47.202 32.7774 46.8409 33.1385 46.8409 33.5838C46.8409 34.0292 47.202 34.3903 47.6473 34.3903C48.0928 34.3903 48.4538 34.0292 48.4538 33.5838C48.4538 33.1385 48.0928 32.7774 47.6473 32.7774Z" fill="white"/>
</g>
<path id="path12" fill-rule="evenodd" clip-rule="evenodd" d="M27.9853 73.7844C30.3906 73.7844 32.6974 74.7399 34.3983 76.4408C36.0991 78.1416 37.0546 80.4484 37.0546 82.8537C37.0546 84.6475 36.5227 86.4009 35.5261 87.8924C34.5296 89.3838 33.1132 90.5463 31.4559 91.2327C29.7987 91.9192 27.9752 92.0988 26.2159 91.7488C24.4567 91.3989 22.8406 90.5351 21.5722 89.2667C20.3039 87.9984 19.4401 86.3824 19.0902 84.6231C18.7402 82.8638 18.9198 81.0403 19.6063 79.3831C20.2927 77.7258 21.4552 76.3094 22.9466 75.3129C24.438 74.3163 26.1915 73.7844 27.9853 73.7844Z" fill="#E30016"/>
<path id="path14" fill-rule="evenodd" clip-rule="evenodd" d="M41.1327 24.785V30.5207C42.6247 29.6937 44.23 28.7985 44.7874 28.4669C45.9251 27.7903 46.7748 28.2577 46.7748 28.2577C46.7748 28.2577 49.028 29.7762 49.323 29.8772C49.6179 29.9783 50.0945 29.6188 50.2221 29.1428C50.3494 28.6668 50.8408 28.927 50.8408 28.927C50.8408 28.927 51.971 29.8124 52.2229 30.0642C52.4746 30.3159 52.797 30.3277 52.797 30.3277H60.4267C60.6708 30.3277 60.9316 30.5458 60.9316 30.5458C60.9316 30.5458 62.2273 31.2366 62.8464 31.7405C63.4655 32.2443 62.5744 32.6041 62.5744 32.6041L50.5555 38.4905C48.2664 39.523 49.706 41.4809 49.706 41.4809L55.3884 47.552L63.1744 35.2222L65.5321 31.4887C65.7762 31.1398 66.1948 30.6151 66.8139 30.0781V24.785H41.1327ZM51.991 93.9699H51.0987H48.2045C47.6425 93.9699 47.1829 94.4298 47.1829 94.9912V113.137H51.991V106.413H56.418L57.797 102.426H51.991V98.3855H55.666H56.2958H59.3479L60.8752 93.9699H58.6692H57.1928H51.991ZM41.1327 69.7789V70.2157H41.3538L41.1327 69.7789ZM41.1327 75.8894V87.9309C41.6539 88.0824 42.1299 88.0573 42.1299 88.0573H44.4382C45.0698 86.8521 46.0278 85.0432 46.6247 84.009C47.5767 82.3598 46.8259 81.0436 46.8259 81.0436C46.8259 81.0436 44.9393 77.3028 42.7108 72.8969V72.8973L41.2006 75.9621L41.1327 75.8894ZM41.1327 90.8075V93.9699H41.353C41.915 93.9699 42.3747 94.4296 42.3747 94.9912V105.774C42.3747 109.716 41.1327 110.591 41.1327 110.591V117.591L41.2953 117.674C43.6481 118.874 45.7937 120.057 47.7268 121.185C49.1986 122.045 50.6347 122.93 51.9989 123.803C52.7107 124.259 53.4032 124.714 54.0704 125.162C54.8393 124.645 55.6315 124.125 56.4341 123.614C57.6772 122.823 59.0098 122.006 60.4155 121.185C62.3049 120.082 64.4346 118.91 66.8139 117.696V110.428H64.8211L63.8844 113.137H59.1442L61.0844 107.526L61.1102 107.453L62.9825 102.038L63.0504 101.842L64.7055 97.0568H64.7051L65.3514 95.1879L65.3518 95.1869L65.4434 94.9223C65.5986 94.5639 65.9821 93.9699 66.8139 93.9699V90.8075H63.399V90.3467H56.619C56.619 90.3467 55.611 90.4181 55.0353 91.2389C54.4597 92.0596 55.4532 88.0573 57.3533 88.0573H60.5238L54.0233 75.5157H51.0581L53.6494 77.3007L50.7412 78.7691L54.3114 80.727L49.8201 83.5193L47.6344 88.0573H50.8255C52.7257 88.0573 53.7191 92.0596 53.1435 91.2389C52.5679 90.4181 51.5598 90.3467 51.5598 90.3467H44.7798V90.8075H41.1327ZM66.8139 87.9883V78.4965L64.1177 75.5157H61.2791L63.8704 77.3007L60.9622 78.7691L64.5324 80.727L60.9995 82.9235L63.625 88.0573H66.0489C66.0489 88.0573 66.3915 88.0754 66.8139 87.9883V87.9883Z" fill="#E30016"/>
<path id="path16" fill-rule="evenodd" clip-rule="evenodd" d="M54.0729 131.496C58.4332 128.365 66.1677 123.364 76.5161 118.875C83.7081 115.755 88.5099 112.944 91.767 110.12C94.6157 107.65 96.228 105.148 97.3078 102.339C99.7191 96.0706 99.2919 85.6636 99.2908 85.634L99.2665 85.3893V19.5618H8.87934V85.3893L8.85505 85.634C8.85395 85.6636 8.42669 96.0706 10.8381 102.339C11.9182 105.147 13.5301 107.65 16.3788 110.12C19.6359 112.944 24.4378 115.755 31.6297 118.875C41.9781 123.364 49.7127 128.365 54.0729 131.496V131.496ZM39.5432 15.2134H36.8818L37.9709 12.6035L37.9855 12.5691L39.0368 10.0505L39.0748 9.95919L40.0042 7.73307H40.0038L40.3667 6.86361L40.367 6.86324L40.4185 6.74005C40.5056 6.57323 40.7208 6.29706 41.1881 6.29706H44.1224L43.7094 7.28633L43.8962 7.73307H43.8958L44.8251 9.95919L44.863 10.0505L45.9143 12.5691L45.9289 12.6035L47.0181 15.2134H44.3568L43.8311 13.9531H40.0689L39.5432 15.2134ZM71.7787 6.29706H72.7074H74.18L77.6412 11.0836V8.44272V6.59621C77.6449 6.43357 77.7776 6.30123 77.9399 6.29706H78.8686H80.3412V13.0677V14.9143C80.3375 15.0769 80.2048 15.2092 80.0425 15.2134H79.1138H77.6412L74.18 10.4269V13.0677V14.9143C74.1763 15.0769 74.0435 15.2092 73.8813 15.2134H72.9526H71.48V8.44272V6.59621C71.4837 6.43357 71.6164 6.30123 71.7787 6.29706ZM49.9699 6.29706H50.1141H52.3632H54.2887H54.3602V6.2978C56.2032 6.33576 57.6855 7.84145 57.6855 9.69389C57.6855 11.5463 56.2032 13.052 54.3602 13.0899H54.3473L54.2887 13.0907L54.2303 13.0899H52.3632V15.2134H49.6632V6.60416C49.6632 6.43488 49.8011 6.29706 49.9699 6.29706V6.29706ZM52.3632 8.31178V11.076H53.4904H53.5143H53.5381H53.543C54.2929 11.0602 54.8961 10.4478 54.8961 9.69389C54.8961 8.94001 54.2929 8.3275 53.543 8.31178H53.514H52.3632ZM61.5396 15.2134H58.8782L59.9674 12.6035L59.982 12.5691L61.0333 10.0505L61.0713 9.95919L62.0006 7.73307H62.0003L62.3631 6.86361L62.3634 6.86324L62.415 6.74005C62.502 6.57323 62.7172 6.29706 63.1845 6.29706H66.119L65.7059 7.28633L65.8925 7.73307H65.8922L66.8216 9.95919L66.8595 10.0505L67.9108 12.5691L67.9254 12.6035L69.0147 15.2134H66.3532L65.8274 13.9531H62.0654L61.5396 15.2134ZM63.9464 9.44695L63.7326 9.95919L63.6947 10.0505L62.8398 12.0982H65.0531L64.1982 10.0505L64.1602 9.95919L63.9464 9.44695ZM33.9233 14.0287C33.2656 14.7318 31.9205 15.2134 30.3674 15.2134C29.2841 15.2134 28.3022 14.979 27.5839 14.5988L28.4175 12.5568C28.9745 12.8219 29.662 13.0527 30.3674 13.0527C32.0249 13.0527 31.9211 11.7883 31.9211 11.7883V11.0627V8.35121H30.029L30.8863 6.29706H31.9211H32.954H34.0474C34.3628 6.29706 34.6208 6.51083 34.6208 6.77199V11.7883C34.6208 13.6221 33.9233 14.0287 33.9233 14.0287V14.0287ZM41.95 9.44695L41.7361 9.95919L41.6982 10.0505L40.8433 12.0982H43.0566L42.2017 10.0505L42.1637 9.95919L41.95 9.44695ZM54.0729 139.374C54.0729 139.374 63.3266 131.399 78.9891 124.604C94.6516 117.809 100.255 112.053 103.135 104.567C106.014 97.0818 105.534 85.3893 105.534 85.3893V2.26128H2.61152V85.3893C2.61152 85.3893 2.13171 97.0818 5.0111 104.567C7.89049 112.053 13.4943 117.809 29.1567 124.604C44.8175 131.398 54.0708 139.372 54.0729 139.374Z" fill="#0F0D04"/>
<path id="path18" fill-rule="evenodd" clip-rule="evenodd" d="M95.3864 27.9899H76.951H72.7032C68.4147 27.9899 66.2397 30.4765 65.5321 31.4887L63.1744 35.2222L55.3884 47.552L49.706 41.4809C49.706 41.4809 48.2664 39.523 50.5556 38.4905L62.5745 32.6041C62.5745 32.6041 63.4656 32.2443 62.8464 31.7405C62.2273 31.2366 60.9316 30.5458 60.9316 30.5458C60.9316 30.5458 60.6708 30.3277 60.4267 30.3277C60.1826 30.3277 52.7971 30.3277 52.7971 30.3277C52.7971 30.3277 52.4746 30.3154 52.2229 30.0642C51.9711 29.8124 50.8408 28.927 50.8408 28.927C50.8408 28.927 50.3495 28.6668 50.2221 29.1428C50.0946 29.6188 49.6179 29.9782 49.323 29.8771C49.0281 29.7761 46.7748 28.2577 46.7748 28.2577C46.7748 28.2577 45.9251 27.7903 44.7875 28.4669C43.65 29.1435 38.1502 32.167 38.1502 32.167C38.1502 32.167 37.0409 32.8144 37.0409 34.5707V50.954L35.4276 56.4825C35.4276 56.4825 34.9077 57.7591 35.6003 58.9587C35.9416 59.5496 38.6716 64.9197 41.3538 70.2156H29.0436L27.3878 68.891H26.7975V70.5611H23.9263L22.2739 73.8952C23.9231 72.8419 25.8828 72.2307 27.9849 72.2307C33.3651 72.2307 37.8107 76.2309 38.511 81.4193L38.5118 81.4197L39.9341 78.5327V78.5323L39.9345 78.5316C39.9431 78.501 40.2253 77.5179 39.846 77.1387C39.4609 76.7536 35.8514 72.791 35.8514 72.791H38.2482L41.2006 75.9621L42.7109 72.8972V72.8969C44.9393 77.3028 46.8259 81.0436 46.8259 81.0436C46.8259 81.0436 47.5767 82.3598 46.6247 84.0089C46.0278 85.0431 45.0699 86.8521 44.4382 88.0573H42.1299C42.1299 88.0573 40.5996 88.1384 40.0205 87.1355V88.7481H37.177C37.177 88.7481 35.1615 88.7482 35.265 91.9161C35.265 91.9161 36.3155 90.8074 37.3522 90.8074H44.7799V90.3467H51.5598C51.5598 90.3467 52.568 90.4181 53.1435 91.2389C53.7191 92.0596 52.7257 88.0573 50.8255 88.0573H47.6344L49.8201 83.5193L54.3115 80.727L50.7412 78.769L53.6495 77.3007L51.0581 75.5157H54.0234L60.5239 88.0573H57.3534C55.4533 88.0573 54.4597 92.0596 55.0354 91.2389C55.611 90.4181 56.619 90.3467 56.619 90.3467H63.399V90.8074H70.8267C71.8633 90.8074 72.9139 91.9161 72.9139 91.9161C73.0173 88.7482 71.0018 88.7481 71.0018 88.7481H68.1583V87.1355C67.5792 88.1384 66.0489 88.0573 66.0489 88.0573H63.625L60.9995 82.9235L64.5324 80.727L60.9622 78.769L63.8704 77.3007L61.2791 75.5157H64.1177L72.1297 84.3728H75.4446L64.1243 71.8585H66.6868L78.0071 84.3728H81.4377L66.888 68.2886H69.4506L84.0001 84.3728H88.3487L71.1944 65.4092H79.7151L74.1545 59.8487H66.1645L64.3677 57.8625H73.1549L77.293 52.302H61.5984L62.8527 50.3158H78.7712L82.9093 44.7551H66.364L67.6183 42.769H84.3874L88.5256 37.2087H71.1292L72.3839 35.2222H90.004L95.3864 27.9899ZM47.6473 31.8707C46.701 31.8707 45.9342 32.6375 45.9342 33.5838C45.9342 34.5303 46.701 35.2971 47.6473 35.2971C48.5938 35.2971 49.3606 34.5303 49.3606 33.5838C49.3606 32.6375 48.5938 31.8707 47.6473 31.8707ZM50.4195 32.4536C50.448 32.5111 50.4916 33.9725 50.4916 33.9725L54.4716 32.3602C54.4716 32.3602 54.5941 32.166 54.5148 32.0653C54.4354 31.9647 54.3131 32.0079 54.3131 32.0079L50.4195 32.4536ZM47.6473 32.7774C47.202 32.7774 46.8409 33.1385 46.8409 33.5838C46.8409 34.0293 47.202 34.3903 47.6473 34.3903C48.0927 34.3903 48.4538 34.0293 48.4538 33.5838C48.4538 33.1385 48.0927 32.7774 47.6473 32.7774Z" fill="#0F0D04"/>
<path id="path20" fill-rule="evenodd" clip-rule="evenodd" d="M41.1323 110.591C39.9612 112.102 37.5652 113.137 34.7993 113.137C32.87 113.137 31.1208 112.633 29.8416 111.815L31.326 107.426V107.426C32.3186 107.996 33.543 108.492 34.7993 108.492C37.7514 108.492 37.5665 105.774 37.5665 105.774V104.214V98.3855H34.1967L35.7235 93.9699H37.5665H39.4058H41.353C41.915 93.9699 42.3746 94.4296 42.3746 94.9912V105.774C42.3746 109.716 41.1326 110.591 41.1326 110.591H41.1323ZM63.8844 113.137H59.1441L61.0843 107.526L61.1101 107.453L62.9824 102.038L63.0504 101.842L64.7054 97.0568H64.7051L65.3513 95.1879L65.3517 95.1869L65.4433 94.9223C65.5986 94.5639 65.982 93.9699 66.8139 93.9699H72.0405L71.3047 96.0968L71.6368 97.0568H71.6366L73.2916 101.842L73.3594 102.038L75.2318 107.453L75.2576 107.526L77.1978 113.137H72.4577L71.5209 110.428H64.821L63.8844 113.137ZM68.1711 100.741L67.7902 101.842L67.7226 102.038H67.7223L66.1999 106.44H70.142L68.6196 102.038H68.6193L68.5517 101.842L68.1711 100.741ZM51.9909 93.9699H51.0987H48.2045C47.6425 93.9699 47.1828 94.4298 47.1828 94.9912V113.137H51.9909V106.413H56.4179L57.797 102.426H51.9909V98.3855H55.6659H56.2957H59.3478L60.8751 93.9699H58.6691H57.1927H51.9909Z" fill="#0F0D04"/>
<path id="path22" fill-rule="evenodd" clip-rule="evenodd" d="M54.0746 128.313C56.1479 126.877 58.7285 125.196 61.735 123.44C65.5395 121.218 70.1432 118.806 75.4875 116.488C78.9849 114.971 81.897 113.531 84.3234 112.132C86.6693 110.778 88.5509 109.463 90.065 108.151C91.3064 107.075 92.2796 105.989 93.0603 104.867C93.8428 103.742 94.424 102.602 94.8814 101.411C96.9881 95.9345 96.7256 86.7309 96.6939 85.812L96.6566 22.1734H11.4927L11.4555 85.812C11.4238 86.7309 11.1611 95.9345 13.2679 101.411C13.7258 102.602 14.307 103.743 15.089 104.867C15.8698 105.989 16.8433 107.075 18.0843 108.151C19.5983 109.463 21.4797 110.778 23.8263 112.132C26.2523 113.531 29.164 114.971 32.6617 116.488C38.0064 118.806 42.6098 121.218 46.4144 123.44C49.4208 125.195 52.0018 126.878 54.0746 128.313V128.313ZM99.2923 85.6693L99.2926 86.3708C99.2929 86.3769 99.3135 86.8768 99.3204 87.7188C99.3118 91.0846 99.0548 97.7977 97.3078 102.339C96.228 105.148 94.6157 107.65 91.767 110.12C88.5099 112.944 83.7081 115.755 76.5161 118.875C66.1677 123.364 58.4332 128.365 54.0729 131.496C49.7127 128.365 41.9781 123.364 31.6297 118.875C24.4378 115.755 19.6359 112.944 16.3788 110.12C13.5301 107.65 11.9182 105.147 10.8381 102.339C9.09102 97.7977 8.83416 91.0846 8.82544 87.7188C8.83281 86.8768 8.85293 86.3774 8.85318 86.3708L8.85356 85.6693L8.85479 85.634L8.87912 85.3893V19.5618H54.0729H99.2665V85.3893L99.2908 85.634L99.2923 85.6693Z" fill="#B09438"/>
</g>
</g>
</svg>
