<svg width="108" height="127" viewBox="0 0 108 127" fill="none" xmlns="http://www.w3.org/2000/svg">
<g id="polonia">
<g id="g2379">
<path id="path2161" fill-rule="evenodd" clip-rule="evenodd" d="M0 0L1.41592 101.211C1.41592 101.211 1.54313 110.321 10.7851 116.372C13.3669 118.062 17.4746 119.399 23.7823 119.313C25.7049 119.286 36.7066 119.23 42.2479 119.382C46.2937 119.494 53.0285 122.297 53.501 127H54.4507C54.8576 121.554 61.5961 119.5 65.7038 119.382C71.2185 119.224 82.2451 119.286 84.1678 119.313C90.4754 119.4 94.5831 118.062 97.1649 116.372C106.407 110.321 106.534 101.211 106.534 101.211L107.95 0H0Z" fill="#DC143C"/>
</g>
<path id="path3360" fill-rule="evenodd" clip-rule="evenodd" d="M45.11 6.71666C46.8691 9.78736 47.5746 12.6932 48.5469 15.4686C50.1573 15.2498 51.9998 15.6877 53.8243 15.8159C55.9073 16.2244 57.5548 16.4012 59.1017 16.1635C60.0513 11.7902 60.8734 9.60549 62.764 6.52889C61.9251 7.09938 60.1398 7.33254 59.4398 8.36935C58.3906 7.43603 57.5585 8.02026 57.0358 9.00794C57.2136 8.21959 56.9786 7.55131 55.9466 7.48669C56.5584 6.3396 55.6163 5.77067 54.6319 6.2846C54.6046 5.28556 53.8061 5.27725 53.7492 4.74454C53.6167 5.36153 52.9168 5.05631 53.0167 6.54768C52.2199 5.90733 51.4412 6.32454 51.7396 7.44912C50.7727 7.44476 50.5028 8.241 50.594 9.23325C49.9309 7.69474 48.6852 8.16456 48.2464 8.70732C47.4688 7.17536 46.8813 8.14274 45.11 6.71666Z" fill="#F6D155"/>
<path id="path3358" fill-rule="evenodd" clip-rule="evenodd" d="M60.6257 14.5433C59.5051 16.4691 59.0251 16.6029 54.1114 15.8473C50.225 15.4596 46.7239 14.3621 46.5632 17.8843C47.8487 18.0369 49.7186 18.1764 50.5329 20.924L48.1546 22.9533C46.4747 23.2177 43.8253 25.4653 42.0751 23.3753C41.5947 25.3406 43.399 25.8937 45.2815 25.8148C46.6006 25.6795 47.0218 25.3254 49.4844 24.8385L50.137 25.5404C53.8565 25.8482 55.7827 31.1679 49.7504 34.289C49.5167 35.0114 49.9022 35.8782 50.4756 35.9808C48.7219 38.4614 45.8441 41.5561 44.8115 39.5141C44.571 39.7401 43.8935 41.428 45.2067 42.3606C44.2091 43.5891 43.8235 45.0427 43.8769 46.7216C39.9009 46.1005 37.282 45.4265 38.1733 41.7081C42.4038 41.9035 43.5501 36.7945 42.9285 34.2048C40.4701 23.8602 27.1256 15.5635 17.4128 15.293C17.9531 18.1076 19.6897 20.1384 21.6671 22.0114C19.0914 20.7576 16.1024 19.542 12.9717 20.1795C13.3335 22.4029 14.5391 24.9819 19.6121 29.189C15.9556 27.0178 12.5831 24.8981 11.3952 23.1714C10.8675 23.8834 10.5701 26.7831 13.6916 28.8995C12.7003 28.5041 7.80106 28.5393 6.31966 29.6248C7.21464 31.6613 11.3032 35.2208 14.6582 36.3183C11.477 35.8557 8.49495 34.5737 5.76425 32.2586C5.36086 32.6206 5.77975 36.3893 9.17147 37.8896C8.07293 37.9627 4.32556 39.0139 3.35785 40.2213C5.313 42.8313 10.3123 45.1305 12.7966 45.1399C9.40786 45.5818 5.70717 44.9004 4.16853 44.4157C4.20271 45.2818 3.47405 48.7601 12.7485 48.1859C9.43966 49.7493 4.4456 53.0038 3.64836 55.873C6.86298 57.2963 12.6276 56.1235 15.6089 55.1884C6.79287 60.5617 5.41714 61.1139 3.78188 60.7532C5.91643 65.2661 11.06 62.217 15.5042 59.6893C10.0406 66.9996 9.15219 70.7264 9.26866 75.9061C13.6685 75.3766 20.0375 69.0741 23.4315 63.701C19.4986 71.7909 17.1576 78.2945 12.8692 80.2083C17.755 82.144 21.9455 76.0126 24.8895 69.5094C23.7619 73.6259 23.2955 82.3518 24.7357 84.4861C29.1529 81.4934 32.4989 74.8485 34.7416 67.2301C33.9766 70.9842 33.4105 74.7378 32.035 78.4919C34.8744 79.032 36.3258 73.937 37.2836 70.9523C37.372 71.1087 37.4774 71.2403 37.7514 71.4949C41.3386 68.8925 42.48 62.8515 42.7319 60.4862C46.0026 61.4156 47.4417 60.2294 48.2796 59.621C48.9959 60.613 49.0414 62.1605 49.243 62.3723C45.6857 59.4828 41.8702 62.3788 41.7141 67.1915C41.3286 69.1999 40.2555 71.5228 37.5699 73.3203C37.7377 73.5388 38.113 73.6274 38.5995 73.6183C38.1316 74.4232 37.7072 75.119 36.9141 75.8484C37.119 75.9672 37.3753 75.9834 37.6179 76.0268C37.021 77.0239 36.0245 77.9653 35.0289 78.4449C35.2678 78.674 35.4037 78.7508 36.1279 78.9471C35.4644 79.8282 34.3817 80.6232 33.3605 81.0522C35.309 82.2095 36.7976 82.3579 38.0056 82.2475C38.0079 82.2469 38.0099 82.2475 38.012 82.2475C37.2411 83.7724 35.9978 84.5447 34.7832 85.2295C35.161 85.5843 35.6155 85.6612 35.9934 85.5553C34.8954 86.696 33.7356 87.5946 32.6887 87.9191C32.8793 88.0618 33.013 88.2581 33.6874 88.2074C32.9381 89.1321 32.0292 90.035 30.4211 90.4546C30.7393 91.0666 31.3934 90.9727 31.9581 90.993C31.5189 91.9386 30.1433 92.256 28.7506 92.5492C29.8001 92.8459 30.5137 93.4096 29.8892 93.2627C29.4656 93.7734 29.0499 94.0378 28.1418 94.1738C27.2088 94.3135 23.8688 93.1105 22.5226 93.5745C22.1415 92.8156 21.2192 92.2927 20.2465 92.2927C19.0037 92.2927 17.7821 93.085 17.7247 94.1919C17.5322 94.0585 16.7212 93.9517 16.8446 94.9139C17.1373 95.4804 17.1515 95.9352 18.9402 96.624C19.2316 96.7537 19.5862 96.8216 20.0158 96.8035C20.6529 96.7766 21.3657 96.4566 21.8988 95.9937L21.8882 96.0129C22.7787 96.1777 23.7593 96.3271 24.301 96.5534C22.8919 96.6659 22.4073 97.4435 21.604 98.0029C21.2659 97.9859 20.9862 97.9022 20.6801 97.8533L20.6898 97.864C20.5061 97.8178 20.3207 97.7975 20.1397 97.8073C19.1338 97.8617 18.1197 98.9954 18.011 100.28C17.989 100.54 18.0534 100.789 18.1798 101.017L18.1648 101.236C17.8714 101.598 17.9876 101.886 18.2738 102.095C19.5018 102.582 20.2342 102.282 20.6759 102.193C21.7901 102.058 22.7223 101.139 22.7223 100.118C22.7223 100.115 22.7224 100.113 22.7223 100.11L22.7458 100.136C24.064 99.862 25.3636 99.4958 26.0857 98.9642C26.1229 99.0443 26.1446 99.1317 26.1285 99.2387C25.6698 99.5105 24.9155 99.9421 24.5167 101.272C24.3977 101.261 24.2843 101.255 24.1771 101.255C22.6694 101.253 22.2973 102.294 22.3239 103.145C22.3499 103.974 22.6513 104.508 23.0812 104.83C22.99 105.346 23.0533 105.778 23.5875 105.951C25.3874 106.233 25.8203 105.302 26.1819 105.325C26.1618 105.088 26.2102 104.92 26.2769 104.77C26.829 104.514 27.2034 104.304 27.2553 103.267C27.3026 102.623 27.193 102.229 26.9819 101.977L27.0299 101.991C27.0301 101.993 27.031 101.995 27.031 101.996C27.0327 101.995 27.0346 101.993 27.0364 101.992L27.0514 101.996L27.0492 101.981C28.6976 100.574 29.7531 99.463 30.4649 98.5239C31.0992 98.6698 32.5218 98.6364 33.2217 98.4021L33.1939 98.6543C32.5335 99.2826 32.9824 100.783 33.854 100.75C33.8164 100.891 33.8233 101.018 33.854 101.159C34.4196 101.508 35.4649 101.263 36.2625 101.441C36.6715 101.393 36.8658 101.118 36.7624 100.558L36.7485 100.549C37.3883 100.17 37.8176 99.4866 37.7354 98.6222C37.7354 97.4278 36.8027 96.4737 35.6526 96.3984L35.659 96.393C34.428 96.2601 33.2468 97.148 33.5047 95.2309C36.8744 91.2404 41.4746 85.2121 42.7319 84.4796C42.6315 84.3491 42.5639 84.1775 42.5065 84.0107C43.0057 85.3324 44.8942 86.7259 46.8804 86.6061C46.5228 85.9256 46.1259 85.321 45.9842 83.5022C46.2811 83.9314 46.7876 84.1327 47.4069 84.2596C46.4784 80.0106 47.8638 76.515 50.717 73.3201C50.4904 77.4313 49.9711 81.5683 47.4753 85.759C48.7595 86.1611 50.4378 84.8521 50.6689 84.0746C50.942 87.7765 47.4344 92.5414 44.6908 90.2569C42.9684 94.0437 47.0533 95.8813 49.6296 93.6832C49.1941 95.9741 47.4039 97.3207 45.4523 97.8466C43.5007 98.3726 41.4674 97.5434 42.765 94.4192C42.49 94.2565 38.5753 94.1574 38.4649 98.4256C38.5816 100.892 40.2469 101.82 40.3971 101.863C34.8152 106.097 40.4388 110.817 45.0443 109.9C48.6964 109.337 50.7718 106.377 52.0948 104.232C51.6948 105.775 50.0433 110.732 54.2513 116.1C58.4204 109.589 56.657 105.203 56.5562 104.506C59.8335 109.558 63.0649 109.922 64.9749 109.797C68.2396 109.849 72.8618 104.719 66.985 101.436C69.9924 100.005 70.1908 94.0568 65.9543 93.7515C66.8269 96.1084 64.9854 97.5327 62.9541 97.3488C60.9227 97.1652 59.0505 95.9939 58.3303 93.3553C62.3298 95.2787 64.186 91.4947 62.8248 89.4408C59.4116 92.263 57.7974 87.7357 57.3391 85.0414C58.211 85.7051 58.9656 85.9356 60.4323 85.7186C57.6558 82.1482 57.0075 77.3588 56.7591 72.8609C58.6488 75.8655 60.5144 79.5429 60.4537 83.1454C60.891 82.9308 61.2885 82.8725 62.0761 81.2956C62.1471 83.9901 61.8396 84.355 60.9279 85.4824C62.4208 86.1098 64.3815 84.9029 65.3145 83.3013C65.3175 83.2971 65.3199 83.2928 65.3231 83.2886C68.2238 87.2047 71.3549 91.2244 74.4008 94.3327C75.0614 95.0222 75.29 95.7116 74.0665 95.954C70.152 94.5091 69.7414 98.6024 71.3653 99.1561C71.2372 99.5261 71.2013 99.9097 71.313 100.314C72.0833 100.551 73.6576 99.913 74.0793 99.8899C74.2754 99.713 74.2772 99.3425 74.2716 98.9639C74.6646 98.9445 74.9334 98.7384 75.1207 98.4105C75.8841 98.557 76.6246 98.6548 77.5902 97.8573L80.4847 100.765C80.6349 100.851 80.3314 101.162 80.741 101.202C80.4193 103.132 81.1535 103.352 81.7835 103.839C81.6543 105.686 84.4188 104.621 84.6898 104.726C84.9826 104.553 85.0075 104.354 84.96 104.147C85.2813 103.81 85.131 103.639 85.0251 103.401C86.4102 101.29 84.4458 99.6798 83.3653 99.8643C82.2159 98.6028 81.3873 98.0725 80.4591 97.3169C82.3585 98.0337 85.2891 98.8441 86.1306 99.4648C86.451 101.619 88.3402 100.729 89.7322 100.803C90.1648 100.196 89.9325 100.007 89.7322 99.799C91.5644 97.4357 87.699 95.4965 86.0537 96.8927C85.0777 95.9922 84.2327 95.8347 83.3525 95.4776C83.7199 95.1082 84.4979 94.8198 86.247 94.7064C87.0316 95.2261 87.8155 95.4088 88.6001 94.8346C88.9375 95.5736 89.6091 95.3819 89.8476 95.2459C90.4215 94.5842 90.4376 93.5795 90.5942 92.661C90.4377 92.3283 90.1881 92.1113 89.7579 92.1206C88.5698 90.0883 86.2749 91.324 86.1434 92.2359C84.1654 92.3979 82.4063 92.6503 80.317 93.4845C79.6279 93.6921 78.9722 92.9466 78.388 92.5191C78.9168 92.3077 79.3779 92.0667 79.3653 91.6185C78.5192 91.5355 77.6931 91.5947 76.7154 90.59L76.9728 89.8957C76.2182 89.6645 75.4069 89.1148 74.4137 87.5544C74.622 87.4304 74.8185 87.2239 74.9926 86.8601C73.8636 86.5993 72.9395 86.0017 72.1878 85.1236C72.4568 84.9918 72.7124 84.7625 72.9472 84.3907C71.8942 83.7552 70.8807 83.2022 68.8628 80.5725C68.8552 80.5596 68.8477 80.5454 68.8404 80.5341C70.9654 80.8888 73.1848 80.6795 74.498 79.7243C73.4538 79.4333 71.6109 78.8257 70.7886 77.2357C71.1964 77.2025 71.4205 77.1228 71.674 77.051C70.0803 75.9989 69.6583 75.4299 69.2537 74.5771C69.5891 74.6108 70.0687 74.4584 70.2289 74.2248C69.2013 73.7626 68.7507 73.1229 68.3843 72.426C68.8066 72.4348 69.2508 72.517 69.5923 72.2562C65.5327 70.4251 66.0972 60.9333 61.7397 60.9045C59.8003 61.0632 59.448 61.4835 58.4479 61.9941C58.7412 61.1822 59.2381 60.4211 59.7563 59.6655C62.1363 60.7772 64.0226 60.1506 64.662 59.593C64.987 63.4078 66.2104 67.5011 68.8585 69.5496C69.3124 69.294 69.8577 68.9654 70.1904 68.5982C70.6627 72.142 71.9861 76.7999 74.9573 76.4132C73.5881 73.0011 73.6099 69.5723 73.4588 66.1628C74.7044 76.1687 77.7754 82.0045 80.3138 83.7543C81.4833 82.2092 82.355 74.9057 81.7878 70.5196C84.2835 75.0372 87.0534 79.2204 89.3755 79.1977C90.4275 79.1873 91.5956 78.3262 92.301 78.1083C88.6613 76.6396 86.1904 69.9382 83.9549 65.7654C88.1494 72.3337 93.1282 75.2921 95.4764 75.7371C95.5605 73.7058 96.0102 68.0227 90.7875 60.1484C100.121 65.0895 102.104 61.8985 102.651 60.1965C98.4389 61.6643 92.7583 56.2503 88.9536 54.5292L88.9023 54.3786C94.4693 56.9192 99.9317 57.7949 103.331 55.6528C100.425 51.1688 97.6112 49.5353 94.5525 48.3833C100.596 49.0542 102.577 46.9982 102.702 44.7475C100.497 45.4929 98.4562 45.6092 95.8268 45.1888C101.61 44.0234 102.653 41.5696 102.596 41.3243C101.115 40.1733 98.3174 38.8771 95.7905 38.6391C102.764 36.1334 100.547 33.7712 100.288 33.0295C98.1197 35.0621 94.3403 36.5122 93.6724 36.4517C96.9276 34.7543 99.7502 30.3134 99.5672 29.8115C97.9411 28.9746 94.5731 29.0157 93.2196 29.4248C94.5739 27.9389 96.3521 25.3957 94.7117 23.2801C93.134 25.5101 91.6336 26.696 90.1349 27.8601C91.495 26.1397 93.0748 24.1661 93.6158 20.126C91.5791 20.3928 89.7331 20.193 87.0898 21.9385C88.6066 20.0437 89.54 18.179 89.7248 15.9209C80.6155 16.5602 69.9678 21.3357 64.8297 33.2422C63.3384 36.7399 64.502 42.6931 69.1897 42.0144C69.9291 45.0183 67.9416 46.8539 63.6228 46.7214C63.5314 45.7158 63.8465 43.7234 62.6081 42.6743C63.6572 42.6064 63.8626 42.0668 64.082 41.6085C61.2631 40.9579 61.7196 40.0224 62.2449 35.0141C62.6156 35.168 63.0383 35.0789 63.3589 34.7822C62.1941 33.7083 62.5792 31.7218 63.1667 25.4631C63.2847 22.7354 62.7229 21.37 62.1242 20.8993C62.4851 20.7161 62.7216 20.4196 62.5354 19.7394C63.8393 19.5104 63.2871 17.9192 62.7501 17.4033C62.4884 18.1126 61.3709 18.3744 60.3117 17.5882C61.5924 17.0044 61.604 15.5519 60.6257 14.5431L60.6257 14.5433ZM65.8946 81.8032C65.9378 81.8553 65.9827 81.9045 66.0281 81.9525C65.9825 81.9071 65.9376 81.8604 65.8924 81.8117C65.8933 81.8087 65.8935 81.8057 65.8949 81.8032L65.8946 81.8032ZM39.2372 81.9964C39.111 82.4686 39.3352 83.7596 39.3621 84.6184C39.7938 84.8309 40.5559 84.611 41.43 84.2779C41.3825 84.2984 41.3361 84.3185 41.289 84.3388C40.6314 84.5824 39.848 84.8317 39.3557 84.6335L39.2019 82.7121C39.1694 82.495 39.1725 82.2608 39.2329 81.9975C39.2343 81.9969 39.2357 81.9967 39.2372 81.9964V81.9964ZM38.9157 82.0861C38.8434 82.1075 38.7696 82.1259 38.6935 82.1416C38.7669 82.1244 38.8402 82.1065 38.9157 82.0861ZM66.4457 82.321C67.4087 83.0251 68.5974 83.0448 69.0358 82.9396C69.0606 82.8847 69.0824 82.8293 69.102 82.7741C69.0866 82.8363 69.0689 82.8992 69.0497 82.9631C68.1426 83.1013 67.2674 82.9518 66.4457 82.321H66.4457ZM33.2633 98.3874C33.2633 98.3882 33.2634 98.3885 33.2633 98.3899L33.2611 98.3888C33.2619 98.3882 33.2622 98.3879 33.2633 98.3877V98.3874ZM57.9608 99.4565C58.866 100.407 62.3573 102.99 66.4073 101.741C66.7437 104.03 64.7992 104.892 63.2639 104.579C61.7631 104.273 59.5062 103.076 57.9608 99.4565ZM49.9138 100.042C48.5997 102.542 46.4216 104.656 44.4825 105.165C42.5435 105.674 40.7368 104.71 41.4406 102.193C45.6279 103.595 49.0302 101.115 49.9138 100.042V100.042Z" fill="white"/>
<path id="path3362" fill-rule="evenodd" clip-rule="evenodd" d="M30.5974 53.7016C29.1837 52.0314 29.3909 50.9756 29.4353 50.3862C27.8755 49.2087 28.2855 48.7437 28.0169 48.2671C28.5581 49.221 29.0993 49.8528 29.6404 49.9419C30.6715 50.8868 31.7025 51.2044 32.7336 51.8218C26.4283 48.3752 28.166 44.1471 28.2391 42.9352C27.2538 42.968 26.5302 42.7654 26.0004 42.3884C26.1819 40.6793 27.0789 39.2901 28.991 38.3553C28.7518 38.4382 28.5125 38.552 28.2733 38.5946C28.049 38.5478 27.5048 37.139 28.1878 36.219C28.5802 35.9705 29.6413 35.883 30.717 36.3046C31.3532 35.0243 32.177 33.8847 33.8957 33.4164C34.3202 33.855 35.0374 35.1621 34.528 37.4324C35.2332 37.6938 35.9228 38.0226 36.4933 38.8679C36.3167 39.5895 36.1401 39.7927 35.9635 39.9787C38.7208 40.0076 38.9892 36.1378 35.9152 35.7306C36.4127 32.0873 31.7414 29.9132 29.7088 34.4076C25.9682 33.4044 24.9643 36.3183 26.3763 38.5946C25.92 38.9284 22.2194 41.6576 25.744 45.5669C25.737 47.4925 26.2262 49.3633 28.8372 51.0014C29.5874 53.2091 30.0623 53.2141 30.5974 53.7016V53.7016Z" fill="#DFDDE2"/>
<path id="path3364" fill-rule="evenodd" clip-rule="evenodd" d="M76.9596 33.3618L77.4573 32.4173C80.8241 31.8921 82.8591 34.1447 81.5414 36.8078C84.2594 39.1325 82.7643 42.1523 81.1202 42.7551C83.083 41.3133 82.003 40.8679 81.669 40.8917C81.7739 40.8437 81.9386 40.7525 82.0774 40.6365C81.9691 39.3661 81.4699 38.1636 79.5121 36.7185C80.4793 35.6474 80.382 34.63 80.2524 33.9107C79.1747 33.6301 78.2202 33.719 77.3808 34.1532L76.9596 33.3618Z" fill="#DFDDE2"/>
<path id="path3366" fill-rule="evenodd" clip-rule="evenodd" d="M72.3013 39.9091C72.4568 39.3834 72.5997 38.5389 73.552 37.7394C73.2538 37.9571 72.9228 38.2239 72.5565 38.5435C71.3323 38.047 70.5471 36.9257 70.3614 36.2463C71.1101 35.2785 72.8926 35.4188 73.1436 35.4804C72.6256 33.5284 73.297 32.0787 73.7817 31.524C75.3956 31.6729 76.2314 32.5038 76.8831 33.247L77.368 32.3791C76.9273 31.0094 75.5762 29.9778 73.9864 30.3046C72.6577 30.4459 71.1494 31.5999 71.7525 34.3063C67.7462 35.9208 69.4519 39.7619 72.3013 39.9091V39.9091Z" fill="#DFDDE2"/>
<path id="path3368" fill-rule="evenodd" clip-rule="evenodd" d="M63.5844 46.7627C63.4371 48.2398 63.1469 49.317 62.8314 50.3235C68.2762 49.5063 76.341 48.1038 75.2495 42.117C74.2582 42.8385 73.267 42.9704 72.2758 42.9848C72.1064 42.1322 72.0122 41.226 72.3141 40.0368C71.4147 41.2553 70.3528 41.7155 69.251 41.9895C74.1785 44.1886 67.1663 48.077 64.2353 46.7627H63.5844Z" fill="#F1EEF0"/>
<path id="path3370" fill-rule="evenodd" clip-rule="evenodd" d="M43.9205 49.0063C44.0766 50.7014 44.6025 52.7639 45.1207 54.6738C44.7757 54.1284 43.7284 50.8075 43.9205 49.0063Z" fill="#E8E6EB"/>
<path id="path3372" fill-rule="evenodd" clip-rule="evenodd" d="M60.1196 47.7971C58.8031 53.0124 64.6071 52.5063 60.5347 47.1565C64.4937 49.5801 61.8981 53.2043 61.6989 54.0151C61.0778 51.2178 58.6281 50.5117 60.1196 47.7971Z" fill="#C3BDC9"/>
<path id="path3374" fill-rule="evenodd" clip-rule="evenodd" d="M33.8928 33.5103L31.9263 39.2871C31.4399 39.0806 30.9871 38.8856 30.3547 38.1518C30.3697 36.1507 32.1408 33.6559 33.8928 33.5103V33.5103Z" fill="white"/>
<path id="path3376" fill-rule="evenodd" clip-rule="evenodd" d="M35.4556 44.7659L31.9135 39.293C32.4669 39.2805 33.1127 39.2954 33.8823 39.1111C34.9247 40.0881 36.0845 42.6278 35.4556 44.7659V44.7659Z" fill="#C3BDC9"/>
<path id="path3378" fill-rule="evenodd" clip-rule="evenodd" d="M34.4535 37.4767C35.5207 37.7735 36.2608 38.467 36.3832 38.9002L33.8841 39.1323C34.1231 38.6155 34.3024 38.0426 34.4535 37.4767V37.4767Z" fill="white"/>
<path id="path3380" fill-rule="evenodd" clip-rule="evenodd" d="M28.2598 38.5719C27.7934 37.8983 27.7957 36.5179 28.2787 36.2345L30.3628 38.1575C29.8082 38.2859 28.7994 38.3437 28.2599 38.5719H28.2598Z" fill="white"/>
<path id="path3382" fill-rule="evenodd" clip-rule="evenodd" d="M26.0579 42.3318L31.8967 39.3183C32.0193 39.2432 31.0669 38.34 30.3444 38.1597C28.7855 37.9616 26.1909 39.913 26.0579 42.3318Z" fill="white"/>
<path id="path3384" fill-rule="evenodd" clip-rule="evenodd" d="M30.9126 42.3388C27.8991 50.9671 40.881 52.3039 44.3416 52.5615L43.924 50.399C37.6461 50.1198 31.7907 48.7348 32.6574 44.0164C31.5233 43.3066 31.2802 42.987 30.9126 42.3388V42.3388Z" fill="url(#paint0_linear_145_4105)"/>
<path id="path3386" fill-rule="evenodd" clip-rule="evenodd" d="M30.9201 42.3163C30.2256 42.6575 29.2302 42.8093 28.2656 42.9577C25.767 53.4232 41.9824 54.2491 45.0872 54.6343C44.5995 53.6678 44.4771 53.1562 44.3372 52.5255C36.1082 51.9926 28.4982 48.9103 30.9201 42.3163Z" fill="url(#paint1_linear_145_4105)"/>
<path id="path3388" fill-rule="evenodd" clip-rule="evenodd" d="M73.8109 31.5742C74.7207 33.45 75.6936 35.6579 76.38 37.7571C76.7726 37.1831 77.1562 36.6076 77.9416 35.9463C77.5112 33.9762 76.5283 31.8914 73.8109 31.5742Z" fill="#C3BDC9"/>
<path id="path3390" fill-rule="evenodd" clip-rule="evenodd" d="M73.8126 31.5607C74.7292 33.483 75.7814 35.7845 76.3871 37.7512L74.1755 37.4324C72.8651 36.0083 72.5517 33.1714 73.8126 31.5607V31.5607Z" fill="white"/>
<path id="path3392" fill-rule="evenodd" clip-rule="evenodd" d="M70.4162 36.238C70.9896 35.5815 72.2119 35.3737 73.1978 35.5433C73.4214 36.0882 73.781 36.8591 74.1837 37.449L70.4162 36.238Z" fill="#C3BDC9"/>
<path id="path3395" fill-rule="evenodd" clip-rule="evenodd" d="M80.1903 33.96L77.9346 35.9719L79.3992 36.7384C80.5794 35.726 80.254 33.9456 80.1903 33.96V33.96Z" fill="#C3BDC9"/>
<path id="path3397" fill-rule="evenodd" clip-rule="evenodd" d="M77.9361 35.9389C77.5743 36.0138 76.3155 37.7509 76.3977 37.7355L82.0292 40.6073C82.0506 39.6327 81.1543 37.2407 77.9361 35.9389Z" fill="#C3BDC9"/>
<path id="path3399" fill-rule="evenodd" clip-rule="evenodd" d="M76.3785 37.7198L72.3198 42.9615C74.9166 42.849 75.9583 41.695 76.8671 40.2608L76.3785 37.7198Z" fill="#C3BDC9"/>
<path id="path3401" fill-rule="evenodd" clip-rule="evenodd" d="M80.1928 33.96C79.3226 33.6701 78.1736 33.7622 77.3731 34.2063C77.6395 34.7693 77.8198 35.4638 77.9481 35.966L80.1928 33.96Z" fill="white"/>
<path id="path3403" fill-rule="evenodd" clip-rule="evenodd" d="M76.3777 37.7259L82.0375 40.6071C81.0023 41.4607 77.7302 40.6645 76.8528 40.2811L76.3777 37.7259Z" fill="white"/>
<path id="path3405" fill-rule="evenodd" clip-rule="evenodd" d="M76.3864 37.7379L74.1692 37.4224C71.7082 38.4535 72.1432 42.6551 72.3295 42.9619L76.3864 37.7379Z" fill="white"/>
<path id="path3407" fill-rule="evenodd" clip-rule="evenodd" d="M74.1489 37.4355L70.4178 36.233C70.6011 37.1327 71.7 38.1488 72.5346 38.4898C72.7123 38.3282 73.5351 37.5737 74.1489 37.4355V37.4355Z" fill="white"/>
<path id="path3409" fill-rule="evenodd" clip-rule="evenodd" d="M76.9299 40.2754C76.2389 41.293 76.0249 41.5626 75.2606 42.0807C76.5804 48.1392 67.8771 49.6537 62.8451 50.3606C62.7962 51.1946 62.5319 51.8987 62.2897 52.5395C63.1969 52.4759 81.061 52.1329 76.9299 40.2754V40.2754Z" fill="white"/>
<path id="path3411" fill-rule="evenodd" clip-rule="evenodd" d="M77.0295 40.3549C79.4359 49.1681 71.5663 51.6806 62.2965 52.5207C62.0709 53.0691 61.8544 53.6634 61.6288 54.2758C74.211 53.3968 80.795 49.3297 79.0782 40.8505C78.2704 40.7269 77.6346 40.5461 77.0295 40.3549V40.3549Z" fill="url(#paint2_linear_145_4105)"/>
<path id="path3413" fill-rule="evenodd" clip-rule="evenodd" d="M18.2951 102.101C19.3058 102.567 20.5555 102.25 21.2302 102.056C21.5926 102.401 21.1188 103.76 22.1915 104.75C21.5787 105.018 18.2241 103.986 18.2951 102.101V102.101Z" fill="#F6D155"/>
<path id="path3415" fill-rule="evenodd" clip-rule="evenodd" d="M16.8539 94.8586C17.2735 96.1987 18.4605 96.3421 18.9448 96.6203C18.9318 97.1266 17.6335 97.1019 17.5865 98.9347C16.6791 98.8528 15.4164 96.7325 16.8539 94.8586Z" fill="#F6D155"/>
<path id="path3417" fill-rule="evenodd" clip-rule="evenodd" d="M23.5988 105.933C25.2347 106.209 25.8272 105.331 26.1939 105.282C26.3842 105.817 27.1153 106.515 27.8256 106.879C27.4937 108.08 23.5279 107.818 23.5988 105.933V105.933Z" fill="#F6D155"/>
<path id="path3419" fill-rule="evenodd" clip-rule="evenodd" d="M36.214 101.453C36.1183 101.249 34.2393 101.476 33.8998 101.174C33.6642 101.465 33.5945 102.425 32.8842 102.789C33.3377 103.61 36.4785 103.338 36.214 101.453V101.453Z" fill="#F6D155"/>
<path id="path3422" fill-rule="evenodd" clip-rule="evenodd" d="M39.7928 84.7248C40.0734 84.6916 40.3444 84.6521 40.574 84.5848C39.4694 85.9133 37.6293 88.2304 35.7807 90.1824C33.927 92.1397 32.2401 94.0701 32.8807 95.8208C31.5957 94.5434 32.7367 93.2963 34.4759 91.2397C36.3631 89.0081 38.492 86.4358 39.7928 84.7248V84.7248ZM37.4673 98.8948C37.4673 99.8049 36.7106 100.646 34.8868 100.561C36.9423 98.3051 32.7869 98.166 33.776 97.2456C36.533 95.5173 37.6724 98.1894 37.4673 98.8948V98.8948ZM35.504 100.879C36.0996 101.004 36.4743 100.263 36.6055 100.64C36.8621 101.386 35.5161 101.523 35.504 100.879ZM21.5923 93.0693C21.1735 93.0527 21.2927 94.7482 18.8067 94.68C18.7622 94.6685 18.5289 94.6817 18.3976 94.915C18.0955 95.4822 19.1103 96.6386 20.035 96.5705C20.8418 96.5111 21.5159 96.0487 21.9341 95.4737C22.1236 95.3671 23.4432 94.6353 23.3343 94.9512C21.7857 95.7073 22.1721 96.1856 24.6278 96.3644C26.1764 96.1347 27.4906 94.794 28.0467 94.5154C26.4643 94.7897 23.0941 93.7362 22.3122 93.7304C22.2013 93.4426 21.9746 93.2066 21.6126 93.0715C21.6056 93.0704 21.5989 93.0698 21.5923 93.069L21.5923 93.0693ZM18.8136 101.73C18.7731 101.872 18.6895 101.971 18.5824 102.047C19.021 102.326 20.2 102.251 20.3307 102.155C20.2007 102.152 19.2316 102.094 18.8136 101.73ZM30.3923 94.6993C28.2858 95.7276 26.8371 99.4426 21.6083 98.9544C21.4779 99.4111 21.1876 99.503 20.9183 99.6423C19.8279 99.6277 18.5708 99.8881 18.5835 100.57C18.5988 101.395 19.8689 101.911 20.7196 101.808C21.5809 101.705 22.4791 100.883 22.4799 100.058C22.4799 100.057 22.4799 100.057 22.4799 100.057C22.5081 99.9897 22.5521 99.9362 22.6422 99.937C28.4294 98.6867 29.3178 95.7149 30.3923 94.6993V94.6993ZM31.3151 94.8017C31.0856 96.2068 26.5262 100.399 26.3143 101.771C26.0722 101.584 25.723 101.449 24.9941 101.487C25.418 103.586 23.6651 104.229 23.1976 103.869C23.1947 104.817 24.5756 105.211 25.4705 105.039C26.5225 104.837 27.403 103.227 26.7928 102.247C26.9318 100.511 29.2146 100.006 30.1701 97.7752C31.0123 97.7667 31.1402 96.4627 32.1867 96.2201C31.9668 95.5438 31.11 96.424 31.3151 94.8017ZM17.8477 94.7992C17.9818 95.6299 18.3538 95.9796 18.9711 96.4934C18.4742 96.3154 17.9834 96.1764 17.44 95.696C17.9388 95.8473 17.5599 94.6688 17.8477 94.7992V94.7992ZM28.7694 92.5681C29.735 92.7917 31.0029 92.8801 32.727 92.7795C30.2191 93.6606 29.0945 93.3613 28.7694 92.5681ZM31.9302 90.9908C31.9344 91.125 31.7275 91.384 31.5359 91.5499C32.7458 91.5269 33.9255 91.277 34.7827 90.3203C33.9863 90.6831 33.0836 90.9849 31.9302 90.9908ZM33.6396 88.2264C33.5517 88.3879 33.2366 88.7296 32.9996 88.9776C33.9981 89.089 35.9908 88.6257 36.848 87.6692C36.0515 88.0318 34.7929 88.2205 33.6396 88.2264V88.2264ZM35.9733 85.5694C35.7945 85.7632 35.2053 86.3346 34.9865 86.5189C35.9851 86.6302 38.2386 85.8322 39.0958 84.8758C38.2993 85.2384 37.1267 85.5635 35.9733 85.5694ZM39.1823 82.6163C39.1208 83.7628 38.7347 84.4931 38.3177 84.9795C38.6635 84.8666 39.0094 84.7919 39.3552 84.6336C39.3219 83.9996 39.2636 83.2504 39.1823 82.6163V82.6163Z" fill="#DFDDE2"/>
<path id="path3424" fill-rule="evenodd" clip-rule="evenodd" d="M71.3072 100.309C72.3022 100.553 73.5137 99.9021 74.0937 99.8903C74.3642 100.423 74.4691 101.003 75.5812 101.378C74.8473 102.193 72.0884 102.463 71.3072 100.309V100.309Z" fill="#F6D155"/>
<path id="path3426" fill-rule="evenodd" clip-rule="evenodd" d="M82.4218 104.824C82.0557 105.186 81.6502 105.571 80.9552 105.987C82.1994 107.119 84.7308 105.848 84.6321 104.751C84.406 104.317 83.6763 105.254 82.4218 104.824Z" fill="#F6D155"/>
<path id="path3428" fill-rule="evenodd" clip-rule="evenodd" d="M87.272 100.854C87.2935 102.329 87.1036 102.716 86.9368 103.221C87.646 103.704 89.4784 102.557 89.6709 100.823C89.4788 100.411 88.7001 101.129 87.272 100.854Z" fill="#F6D155"/>
<path id="path3430" fill-rule="evenodd" clip-rule="evenodd" d="M90.6346 92.7042C90.1077 92.837 90.4219 94.6288 89.8175 95.1973C90.3133 95.4726 90.6491 96.1319 91.0117 96.7268C92.1746 95.8461 92.1315 93.338 90.6346 92.7042Z" fill="#F6D155"/>
<path id="path3432" fill-rule="evenodd" clip-rule="evenodd" d="M72.5747 100.142C73.1326 99.9735 73.737 99.6892 73.9575 99.7645C74.2946 98.5753 73.5039 99.2666 72.5747 100.142ZM71.7891 99.1884C72.8813 99.1775 74.4101 99.3635 74.7851 97.9106C76.4758 98.7229 78.2479 97.1599 77.8544 95.721C77.8544 95.721 77.3086 98.2066 73.8109 96.6325C73.1116 96.5303 72.1442 96.9724 72.2081 97.4495C72.2549 98.0586 73.4539 98.5769 71.7891 99.1884ZM81.039 97.9732C81.9268 98.8727 82.4934 99.706 82.296 100.383C82.8453 99.589 82.8982 100.067 83.0189 100.372C83.674 100.877 84.1652 102.408 82.5265 103.4C83.2959 103.608 83.3596 104.295 82.5161 104.541C82.5525 105.267 84.4876 104.363 84.6635 104.657C84.8139 104.591 84.864 104.374 84.9045 104.143C85.0678 103.921 85.0867 103.664 84.9149 103.358C86.1651 101.279 84.6133 100.142 83.2912 99.9113C82.4802 99.0644 81.771 98.557 81.039 97.9732L81.039 97.9732ZM81.1018 95.7315C82.4341 96.5742 84.2475 97.232 85.9625 98.3505C87.6773 96.6415 88.9427 99.4633 86.4863 99.6495C87.1064 100.792 89.7246 100.717 89.6499 99.8065C91.28 96.7174 86.8603 95.9605 85.9834 97.0724C84.6455 96.3175 83.4217 95.4704 81.4999 95.1134C85.3049 96.7484 85.9583 97.261 85.2933 97.3497C84.6876 97.4302 82.5572 96.2225 81.1018 95.7315V95.7315ZM82.2722 93.3557C83.3175 92.8996 85.5855 92.9623 86.1952 92.4167C87.1957 90.5948 89.0518 91.0766 89.6423 92.2623C90.0644 92.2582 90.3804 92.3499 90.4269 92.6867C90.0378 93.5498 90.2872 95.6618 89.1921 95.1435C89.392 94.9892 89.2939 94.8348 89.1921 94.6805C88.7266 95.1488 88.7237 94.6148 88.7162 94.3975C88.0153 95.2195 87.6605 95.0839 87.147 94.9634C87.2716 94.9124 87.3269 94.7746 87.3142 94.5519C89.3625 93.7587 87.5853 91.3552 85.9251 93.6C85.3617 93.7686 83.1304 93.2673 82.2722 93.3557ZM65.8727 81.8182L65.7955 82.0625C66.6391 82.8275 73.9405 90.8675 76.1111 94.3076C75.7862 93.5773 75.9228 93.2753 74.6319 91.7351C77.9353 93.5867 79.5594 91.9434 79.3653 91.5807C79.0963 91.6124 78.9222 91.6495 78.777 91.5735C75.725 93.1311 73.4606 90.5492 72.1109 88.841C73.8178 90.2027 74.9406 90.4468 76.7156 90.5518C76.8918 90.2426 76.9154 90.0861 76.96 89.9086C76.8052 89.8796 76.6565 89.8383 76.5356 89.7414C74.4589 90.5258 71.9653 88.9502 70.0144 86.3072C71.8708 87.6407 73.1999 87.5116 74.4647 87.5291C74.6604 87.3047 74.9285 87.1091 74.9664 86.8215C74.7881 86.8353 74.6489 86.7707 74.5033 86.7187C73.199 87.1726 70.004 87.0189 68.4709 84.3392C69.5353 85.0538 70.7187 85.4756 72.2267 85.0981C72.5266 84.8678 72.8528 84.6412 72.9213 84.3779C71.0526 84.8512 69.2346 84.8444 67.5705 83.3745C68.0439 83.3792 68.5422 83.21 69.0497 82.9758C68.0687 83.0579 67.0571 82.9566 65.8727 81.8182V81.8182Z" fill="#DFDDE2"/>
<path id="path3434" fill-rule="evenodd" clip-rule="evenodd" d="M43.2192 24.5433C46.8484 26.484 51.0302 22.0501 53.9636 24.4591C54.2809 24.4774 54.3232 24.241 54.2722 24.0384C50.8608 20.9801 47.2274 25.4834 43.2192 24.5433Z" fill="#C3BDC9"/>
<path id="path3436" fill-rule="evenodd" clip-rule="evenodd" d="M41.8973 80.2747L41.6105 80.5775C41.2579 82.1706 40.4232 83.443 39.4564 84.6608C40.3405 84.8042 41.4259 84.3047 42.4761 83.8504C41.8236 82.6317 41.6837 81.82 41.8973 80.2747Z" fill="#C3BDC9"/>
<path id="path3438" fill-rule="evenodd" clip-rule="evenodd" d="M42.9134 78.1524C43.4177 79.1532 44.379 77.514 44.8428 77.0719C44.2357 79.2385 43.0276 81.4292 45.666 83.4646C44.3151 83.6015 43.938 84.1868 45.1901 85.5225C42.7455 84.3193 41.3655 82.3243 42.9134 78.1524V78.1524Z" fill="#DFDDE2"/>
<path id="path3440" fill-rule="evenodd" clip-rule="evenodd" d="M44.9457 76.9691C44.1034 81.2482 45.4919 82.9195 46.8879 83.3231C46.3535 78.6989 48.2004 75.3945 50.7594 72.8659C50.5882 68.5562 49.9838 66.6221 49.5118 63.5152C49.5458 64.9544 50.5656 68.8953 49.8732 71.6507C49.1534 74.5151 47.1022 77.2963 44.9457 76.9691V76.9691Z" fill="#CECAD5"/>
<path id="path3442" fill-rule="evenodd" clip-rule="evenodd" d="M36.4437 81.381C38.871 81.5429 40.8457 80.776 42.4504 79.13C41.5703 81.2785 39.5703 82.2848 36.598 81.9855C37.6731 81.7918 37.7004 81.6087 36.4437 81.381V81.381Z" fill="#C3BDC9"/>
<path id="path3444" fill-rule="evenodd" clip-rule="evenodd" d="M36.1454 78.9224C35.9138 79.2848 35.7293 79.4588 35.5451 79.6318C39.3749 80.1302 41.5103 78.3004 42.9485 76.7032C45.0705 76.8241 46.5345 75.4472 47.8052 74.0475C46.3751 75.1799 44.9093 76.1126 43.2395 75.9028C41.5993 78.2882 39.2889 79.3981 36.1454 78.9224Z" fill="#C3BDC9"/>
<path id="path3446" fill-rule="evenodd" clip-rule="evenodd" d="M37.637 76.0119C37.3512 76.6091 37.2603 76.5992 37.1095 76.7942C38.4073 77.0638 40.1855 76.5597 43.2214 74.0291C46.2222 73.9591 47.4784 71.9911 48.3328 71.137C46.7377 72.5148 45.1196 73.2456 43.476 73.2652C41.8841 74.8898 40.1407 76.2111 37.637 76.0119Z" fill="#C3BDC9"/>
<path id="path3448" fill-rule="evenodd" clip-rule="evenodd" d="M38.6375 73.6108L38.0917 74.4658C39.1363 74.4075 40.5115 74.4503 43.4396 71.7556C45.6935 71.2798 47.71 69.5935 49.4787 66.644C48.0089 68.4567 46.6658 70.4 43.6943 70.6642C42.9367 72.4005 40.933 73.1242 38.6375 73.6108V73.6108Z" fill="#C3BDC9"/>
<path id="path3450" fill-rule="evenodd" clip-rule="evenodd" d="M63.3214 77.1761C63.1184 78.7314 62.7707 80.1422 62.0845 81.2144C62.1578 81.7237 62.1428 82.2331 62.1209 82.7424C63.171 81.6724 63.9438 78.6272 63.3214 77.1761H63.3214Z" fill="#C3BDC9"/>
<path id="path3452" fill-rule="evenodd" clip-rule="evenodd" d="M64.8494 77.9218C65.9793 80.8563 64.9664 84.7597 61.3569 85.4343C62.4729 85.8976 65.8186 84.3709 66.2864 79.8319L69.0331 82.9243C69.1813 82.2132 69.2794 81.4951 68.7602 80.4502C66.5872 79.9931 65.8921 79.1388 64.8494 77.9218Z" fill="#C3BDC9"/>
<path id="path3454" fill-rule="evenodd" clip-rule="evenodd" d="M66.632 78.8678C68.1087 79.5132 70.6849 80.4642 73.2714 79.3407C73.6595 79.5005 74.0475 79.6235 74.4356 79.6863C73.5567 80.6068 71.0847 80.8281 68.8148 80.5231C71.9402 80.1138 67.1988 79.7555 66.632 78.8678V78.8678Z" fill="#C5BDCB"/>
<path id="path3456" fill-rule="evenodd" clip-rule="evenodd" d="M61.4842 73.629C62.5565 74.3874 63.7592 74.8463 65.1222 74.8295C66.1397 76.7626 69.1073 77.2998 70.7793 77.2125C70.8547 77.4765 71.0319 77.7064 71.2523 77.9219C69.8554 77.9278 68.0668 77.4736 65.3223 75.739C64.5833 75.4834 61.9687 74.2678 61.4842 73.629Z" fill="#C3BDCA"/>
<path id="path3458" fill-rule="evenodd" clip-rule="evenodd" d="M60.9203 70.7368C61.989 71.6208 63.1683 72.0898 64.431 72.2466C65.7275 73.6255 67.2516 74.3359 69.2513 74.5931L69.6697 75.3208C69.0418 75.3839 65.9998 74.0224 64.8857 72.9923C63.0187 72.5284 61.6177 71.6021 60.9203 70.7368V70.7368Z" fill="#C3BDC9"/>
<path id="path3460" fill-rule="evenodd" clip-rule="evenodd" d="M61.1568 68.4084C62.3922 69.6201 63.8019 70.1131 64.9403 70.1183C65.7943 71.0137 66.5841 71.9381 68.3783 72.4103C68.4651 72.655 68.5704 72.8627 68.7057 73.0107C67.3546 72.9873 65.4987 71.113 65.2678 70.8096C63.4551 70.5497 61.3959 69.6354 61.1568 68.4084Z" fill="#C3BDC9"/>
<path id="path3462" fill-rule="evenodd" clip-rule="evenodd" d="M50.3751 62.92C50.7666 62.7698 50.9473 62.5493 51.1408 62.333C51.4671 62.7807 51.9332 62.8792 52.3916 62.9967C51.5197 62.9661 51.4095 63.3766 51.83 64.0942C52.0087 64.3808 52.3147 68.675 52.3916 71.2669C52.4012 73.6679 52.7233 75.2271 53.2084 76.2698C51.3108 74.6715 52.3632 65.0031 50.3751 62.92V62.92Z" fill="#DFDDE2"/>
<path id="path3464" fill-rule="evenodd" clip-rule="evenodd" d="M53.5402 63.0989C54.6013 62.9993 55.6504 62.9395 56.9096 62.1799L57.369 62.7159C56.4659 64.6867 55.9573 69.3398 55.378 73.5131C55.5441 70.8569 55.5984 68.4857 55.4546 67.8209C55.1639 66.3215 55.2222 65.4091 55.2504 65.1664C55.8233 63.0831 54.2512 63.5925 53.5402 63.0989Z" fill="#CECAD5"/>
<path id="path3466" fill-rule="evenodd" clip-rule="evenodd" d="M57.7774 62.9456L57.905 63.0733C56.1157 66.9749 57.9135 75.9209 54.0507 80.4304L53.9741 78.6947C56.901 76.7634 56.168 66.9029 57.7774 62.9456Z" fill="#C3BDC9"/>
<path id="path3468" fill-rule="evenodd" clip-rule="evenodd" d="M51.3195 72.5686C51.2995 78.9582 52.3519 80.1671 48.0012 85.4845C50.028 83.7952 52.2948 78.6233 52.0087 81.5792C52.522 80.6308 53.0187 79.6883 53.1318 78.8735C51.4538 76.0048 51.5274 74.3435 51.3195 72.5686Z" fill="#C3BDC9"/>
<path id="path3470" fill-rule="evenodd" clip-rule="evenodd" d="M54.842 79.6136L54.0252 80.5836L54.2549 89.0325C54.359 85.5264 54.5341 82.3044 54.842 79.6136V79.6136Z" fill="#C3BDC9"/>
<path id="path3472" fill-rule="evenodd" clip-rule="evenodd" d="M56.7819 73.4875C56.5595 74.7937 56.4122 76.3626 56.0672 77.2398C56.6573 83.9999 58.4961 84.6492 60.0236 85.2546C57.4753 81.6412 56.9718 76.7907 56.7819 73.4875Z" fill="#DFDDE2"/>
<path id="path3474" fill-rule="evenodd" clip-rule="evenodd" d="M51.881 82.3448C51.0911 84.1309 51.352 87.5612 49.1243 89.7982C50.9719 88.8515 51.6737 86.5561 51.7279 84.7697L51.9065 86.6587C51.2934 90.5304 49.5355 91.5847 48.3075 91.8148C48.5023 91.7609 50.4296 92.1678 52.2001 88.2413C52.2583 89.6676 51.2564 91.2557 49.9539 91.7893C51.0926 91.8273 52.2216 90.781 52.7999 89.977C51.8651 87.216 51.8479 84.7717 51.881 82.3448Z" fill="#E0DEE2"/>
<path id="path3476" fill-rule="evenodd" clip-rule="evenodd" d="M52.7361 88.1518C52.927 89.079 53.1983 90.4309 54.2421 91.7382L54.3187 93.3717C54.7975 92.7438 56.646 87.5088 56.6798 85.7909C56.7488 85.2463 56.7791 84.6141 57.1775 85.025C57.2286 85.063 57.2797 85.0636 57.3307 84.9994C56.7706 84.6167 56.1804 82.7264 55.7354 82.1023C56.0675 84.1466 56.3269 87.0416 54.2421 91.3552C53.6131 90.605 53.164 89.4049 52.7361 88.1517V88.1518Z" fill="#C3BDC9"/>
<path id="path3478" fill-rule="evenodd" clip-rule="evenodd" d="M61.6537 91.4759C59.4073 92.6298 57.4738 89.847 56.5458 88.1188L56.9626 85.7592C56.9717 85.6812 57.1377 85.623 57.2121 85.7277C57.5821 88.3253 59.2255 91.357 61.6537 91.4759V91.4759Z" fill="#DFDDE2"/>
<path id="path3480" fill-rule="evenodd" clip-rule="evenodd" d="M56.1438 89.0196L55.9013 89.7344C56.7679 91.6559 57.7884 92.3239 59.1175 92.8101C56.5072 91.5244 56.33 90.2721 56.1438 89.0196Z" fill="#DFDDE1"/>
<path id="path3482" fill-rule="evenodd" clip-rule="evenodd" d="M53.6423 92.3126L54.3315 93.4994L54.8548 92.3379C54.7568 95.4699 54.553 99.2528 54.4591 102.739C54.1716 99.2426 53.7781 95.597 53.6423 92.3126V92.3126Z" fill="#DFDDE2"/>
<path id="path3484" fill-rule="evenodd" clip-rule="evenodd" d="M55.6588 90.3599C55.595 90.5387 55.5312 90.7077 55.4674 90.8192C57.784 99.4115 55.0574 103.993 54.4464 104.667C52.841 101.818 52.8595 99.0124 52.5065 96.6135C52.7133 98.7649 52.4779 101.562 54.3443 105.049L54.3698 106.466C56.6444 103.631 58.0262 99.6962 56.2587 91.1637C56.0034 90.9511 55.8536 90.633 55.6588 90.3599V90.3599Z" fill="#C3BDC9"/>
<path id="path3486" fill-rule="evenodd" clip-rule="evenodd" d="M53.604 105.688C53.7981 105.999 53.9664 106.315 54.357 106.594C54.8599 106.069 54.9684 105.806 55.1866 105.471C54.7625 107.751 54.57 109.973 54.2677 112.222C54.059 109.998 53.9048 107.574 53.604 105.688Z" fill="#DFDDE2"/>
<path id="path3488" fill-rule="evenodd" clip-rule="evenodd" d="M57.6753 106.058C57.1841 104.961 56.6032 104.017 56.9734 102.803C56.9024 102.429 56.7471 102.372 56.5777 102.293C56.4742 102.941 56.2448 103.401 56.0417 103.85C56.9116 109.071 55.6764 111.88 54.2422 114.239C51.8911 111.073 52.3281 107.662 52.2895 104.743C51.6044 110.669 53.0358 113.275 54.2166 114.622L54.2294 116.064C57.5781 111.143 57.2481 106.574 56.5012 104.399C56.8714 104.966 57.2095 105.554 57.6753 106.058H57.6753Z" fill="#C3BDC9"/>
<path id="path3490" fill-rule="evenodd" clip-rule="evenodd" d="M44.9893 91.0745C45.4382 95.3791 50.9029 94.0749 53.1191 90.8192L52.9149 90.2322C50.8485 92.9101 46.4428 95.2907 44.9893 91.0745V91.0745Z" fill="#C4BEC9"/>
<path id="path3492" fill-rule="evenodd" clip-rule="evenodd" d="M52.6085 92.6571C50.6038 96.817 48.1892 99.779 44.8616 100.072C47.1288 100.253 49.5563 98.4116 50.3113 97.6088C50.8565 96.6626 51.5627 96.326 50.8728 97.5962C50.6054 98.042 50.339 98.3677 49.9156 98.7703C50.4517 98.5531 51.5619 96.8392 51.7917 96.6901C51.8862 94.8885 52.2937 93.8919 52.6085 92.657V92.6571Z" fill="#DFDDE2"/>
<path id="path3494" fill-rule="evenodd" clip-rule="evenodd" d="M51.7809 96.8364C51.7422 97.3108 51.7006 97.7911 51.7087 98.1721C48.5491 101.418 45.8193 102.446 42.9188 101.764C45.3136 101.829 48.0893 102.083 51.7809 96.8364V96.8364Z" fill="#C3BECA"/>
<path id="path3496" fill-rule="evenodd" clip-rule="evenodd" d="M41.547 98.7135C40.8511 96.9877 41.1118 95.5963 42.3412 94.5442C39.8616 94.4921 37.173 99.1043 41.7636 101.439C39.4663 100.097 39.3502 97.2971 40.0997 96.3775C40.6004 95.5784 41.3368 95.3551 40.825 96.25C40.4699 97.6903 41.1157 98.4252 41.547 98.7135Z" fill="#DFDDE2"/>
<path id="path3498" fill-rule="evenodd" clip-rule="evenodd" d="M56.4014 91.4218C56.8708 92.1737 57.4486 92.8173 58.2063 93.2808C58.0002 97.4909 62.6314 100.282 65.7689 99.0926C63.9665 100.412 58.0262 100.09 56.4014 91.4218V91.4218Z" fill="#DFDDE2"/>
<path id="path3500" fill-rule="evenodd" clip-rule="evenodd" d="M57.0873 96.7102V97.2156C59.2613 100.835 62.9182 100.967 64.0362 100.825C60.6219 100.761 58.4834 99.1775 57.0873 96.7102Z" fill="#C4C0CD"/>
<path id="path3502" fill-rule="evenodd" clip-rule="evenodd" d="M66.5631 94.0751C69.4463 96.0749 68.6502 99.1854 65.5523 100.482C67.9358 98.9137 69.1068 96.882 66.5631 94.0751Z" fill="#E1DFE3"/>
<path id="path3504" fill-rule="evenodd" clip-rule="evenodd" d="M63.1879 101.367C65.9271 101.867 70.5618 99.7172 68.0792 94.9232C70.5906 97.8394 67.782 103.077 63.1879 101.367Z" fill="#C3BDC9"/>
<path id="path3506" fill-rule="evenodd" clip-rule="evenodd" d="M57.1054 99.598C57.0814 99.8694 57.067 100.037 56.9971 100.482C59.3421 105.163 60.6516 105.471 62.1772 106.691C59.3356 104.568 57.8831 102.153 57.1054 99.598Z" fill="#E0DEE3"/>
<path id="path3508" fill-rule="evenodd" clip-rule="evenodd" d="M60.9498 108.388C61.446 108.608 61.8298 108.447 62.2313 108.587C65.8168 109.836 70.2547 107.706 68.9275 103.37C71.2739 105.657 66.9572 112.224 60.9498 108.388Z" fill="#C4BECB"/>
<path id="path3510" fill-rule="evenodd" clip-rule="evenodd" d="M67.2489 102.107C69.9651 104.8 67.1752 108.525 63.5488 107.251C67.3916 107.769 68.8129 104.584 67.2489 102.107Z" fill="#C3BECA"/>
<path id="path3512" fill-rule="evenodd" clip-rule="evenodd" d="M40.8792 102.089C37.1643 104.534 39.2161 107.563 40.9334 108.262C40.2801 107.78 39.5834 106.092 41.6192 107.034C42.2892 107.322 42.8858 107.352 43.4602 107.305C39.6588 106.056 40.5032 104.034 40.8792 102.089V102.089Z" fill="#DFDDE2"/>
<path id="path3514" fill-rule="evenodd" clip-rule="evenodd" d="M51.7447 98.6775C51.8344 99.9499 51.9739 100.973 52.1599 101.764C50.9667 104.148 49.5264 105.738 48.0447 106.872C49.783 105.19 51.1245 103.505 51.7086 101.728C48.6824 106.45 46.5849 107.176 44.4168 107.287C47.1136 106.693 51.052 104.364 51.7447 98.6775V98.6775Z" fill="#DFDDE2"/>
<path id="path3516" fill-rule="evenodd" clip-rule="evenodd" d="M52.196 101.945C52.2789 102.326 52.3685 102.704 52.5931 102.991C48.7805 110.343 43.6866 110.132 41.9441 109.525C45.2449 109.867 44.0963 109.27 43.027 109.074C46.939 109.199 50.3937 106.544 52.196 101.945V101.945Z" fill="#C3BEC9"/>
<path id="path3518" fill-rule="evenodd" clip-rule="evenodd" d="M49.0568 61.4726C49.5489 61.1403 49.783 60.7431 50.0688 60.3421C50.1743 60.543 50.3719 60.7178 50.6213 60.8947C49.8996 61.1307 49.6472 62.1937 49.2414 62.1991C49.1768 61.9631 49.1748 61.7088 49.0568 61.4726V61.4726Z" fill="#C4BECA"/>
<path id="path3520" fill-rule="evenodd" clip-rule="evenodd" d="M50.6618 60.9097C51.7416 61.3156 52.8447 61.2632 54.2085 60.3052C54.3293 60.4303 54.5015 60.5809 54.6687 60.7294C53.3664 61.6577 51.2341 61.4191 50.6618 60.9097Z" fill="#C3BDC9"/>
<path id="path3522" fill-rule="evenodd" clip-rule="evenodd" d="M55.2734 60.9008C56.04 61.0302 56.7913 61.2042 57.7912 60.6571C57.9356 60.849 58.08 61.0001 58.2244 61.1444C57.8978 61.4719 56.2588 61.4245 55.2734 60.9008Z" fill="#C3BDC9"/>
<path id="path3524" fill-rule="evenodd" clip-rule="evenodd" d="M58.441 58.8523C58.6876 59.0036 59.1305 59.4467 59.56 59.7004C59.2412 60.1484 58.9223 60.6573 58.6034 61.2256C57.1809 59.9915 58.1789 58.6914 58.441 58.8523Z" fill="#C3BDC9"/>
<path id="path3526" fill-rule="evenodd" clip-rule="evenodd" d="M48.0627 59.2042C48.2662 59.4885 48.4089 59.6919 48.541 59.881C49.4106 59.2774 49.7038 58.6276 49.985 57.9768C49.8576 57.9039 49.7365 57.7995 49.633 57.6067C48.9474 58.8204 48.5157 58.9678 48.0627 59.2042V59.2042Z" fill="#C3BDC9"/>
<path id="path3528" fill-rule="evenodd" clip-rule="evenodd" d="M50.0482 58.013L49.9489 58.2025C51.666 59.1874 54.454 59.926 57.9988 58.1303L57.6468 57.4083C55.3504 59.206 52.7537 59.509 50.0482 58.013V58.013Z" fill="#C3BDC9"/>
<path id="path3530" fill-rule="evenodd" clip-rule="evenodd" d="M58.2875 58.0038C59.2991 57.813 58.948 56.5542 59.8849 56.1719C61.4195 58.4802 64.0423 57.8809 65.1101 56.1267L65.2815 57.4264C64.2695 58.0696 62.9261 59.1867 60.6881 58.1484C60.5118 58.5219 60.4719 59.1099 60.4624 59.7456C59.4816 59.421 58.6923 58.9046 58.2875 58.0039V58.0038Z" fill="#C3BDC9"/>
<path id="path3532" fill-rule="evenodd" clip-rule="evenodd" d="M61.392 53.7173C61.7814 54.4688 61.4172 56.1806 61.4371 56.7404C60.6902 56.638 60.2764 56.0289 59.8759 55.5222C59.9546 55.5076 60.0074 55.4853 60.0383 55.4228C60.1305 54.9532 61.0033 54.7366 61.392 53.7173H61.392Z" fill="#C3BDC9"/>
<path id="path3534" fill-rule="evenodd" clip-rule="evenodd" d="M54.6597 55.8289L54.5784 55.9372C55.7552 56.3649 58.1949 56.5797 59.93 55.4047L59.6232 54.8543C58.4108 55.8909 56.8565 56.3771 54.6597 55.8289Z" fill="#C3BECA"/>
<path id="path3536" fill-rule="evenodd" clip-rule="evenodd" d="M53.9738 55.4318C54.189 55.6008 54.3963 55.7381 54.5875 55.811C52.9725 57.2886 50.64 56.8863 48.2884 55.6486C48.3124 55.5763 48.2936 55.5041 48.2703 55.4318C50.9869 56.9033 52.8842 56.487 53.9738 55.4318H53.9738Z" fill="#C3BDC9"/>
<path id="path3538" fill-rule="evenodd" clip-rule="evenodd" d="M48.153 55.4228C48.7245 56.3271 47.2739 56.6206 47.2686 57.9678L46.7001 57.2458C46.6763 56.3634 47.8563 56.5049 48.153 55.4228Z" fill="#C3BEC9"/>
<path id="path3540" fill-rule="evenodd" clip-rule="evenodd" d="M46.5737 56.9751L45.4637 55.2875C44.2949 53.7653 48.1587 53.4625 47.7379 50.6128C47.9846 50.8077 48.2312 51.0599 48.4779 51.1904C48.3367 53.4852 46.3273 53.4248 46.294 54.9986C46.0374 54.9015 45.9072 54.6622 45.8427 54.3489C45.7434 54.424 45.721 54.4316 45.6171 54.5384C45.1301 55.1373 45.8476 55.4768 46.5737 56.9751Z" fill="#C3BEC9"/>
<path id="path3542" fill-rule="evenodd" clip-rule="evenodd" d="M47.6311 53.8841C48.7597 54.0455 49.8694 53.8833 50.9302 52.8759C51.1125 53.0521 51.255 53.2383 51.4982 53.3992C50.1456 54.2227 48.3334 54.3347 47.6311 53.8841V53.8841Z" fill="#C3BDC9"/>
<path id="path3545" fill-rule="evenodd" clip-rule="evenodd" d="M51.5493 53.4374L51.4216 53.5396C53.2942 54.6122 55.9091 54.6046 57.318 53.6418C57.1185 53.5263 56.9477 53.3822 56.7819 53.2333C55.1056 54.4653 52.5817 54.0681 51.5493 53.4374Z" fill="#C4BECA"/>
<path id="path3547" fill-rule="evenodd" clip-rule="evenodd" d="M57.3626 53.6418L57.2669 53.7629C58.5977 54.2797 60.2414 54.2286 61.3956 53.6162C61.3168 53.3973 61.229 53.1848 61.0829 53.0163C59.8323 54.0018 58.5964 53.9175 57.3626 53.6418Z" fill="#C4BEC9"/>
<path id="path3549" fill-rule="evenodd" clip-rule="evenodd" d="M48.6765 51.3258C50.6305 52.3194 52.762 51.6585 53.9287 50.6309C54.1273 50.8831 54.3258 51.0295 54.5244 51.1634C53.0673 52.4414 49.3193 52.2814 48.6765 51.3258Z" fill="#C4BEC9"/>
<path id="path3551" fill-rule="evenodd" clip-rule="evenodd" d="M54.5965 51.1905L54.4973 51.2806C56.2578 52.4836 58.9461 51.7572 59.6593 51.2896C59.569 51.0069 59.4788 50.7601 59.3886 50.5497C58.1519 51.6075 56.3112 51.9542 54.5965 51.1905V51.1905Z" fill="#C3BDC9"/>
<path id="path3553" fill-rule="evenodd" clip-rule="evenodd" d="M43.731 48.6996L43.9836 48.8439C44.2521 48.4595 44.4732 48.3669 44.584 48.5193C44.6948 48.6717 44.4911 48.9542 44.7778 49.205C45.6878 48.4813 47.7744 48.0019 48.0266 46.9308C48.4101 48.0034 49.7103 48.0342 50.7701 49.8908C50.5195 48.4809 49.0733 48.0953 48.4806 47.1473C47.8878 46.1994 48.2387 45.0137 48.7125 43.4835C47.7292 44.8157 48.5037 46.7074 46.8993 47.5541C45.8809 48.0914 43.9384 47.973 43.731 48.6996V48.6996Z" fill="#C3BDC9"/>
<path id="path3555" fill-rule="evenodd" clip-rule="evenodd" d="M52.1599 42.0034L52.214 43.2669C50.5456 43.9194 51.846 48.0944 51.1852 49.0063C50.9214 45.444 49.4546 44.1618 52.1599 42.0034H52.1599Z" fill="#C3BDC9"/>
<path id="path3557" fill-rule="evenodd" clip-rule="evenodd" d="M53.5136 45.0357H53.7121C53.9288 47.37 56.3771 47.5923 56.7985 49.8908C56.2779 48.2975 54.8876 47.8329 54.1453 46.9849C53.7181 48.7684 51.5647 49.2985 51.0228 50.306C50.8743 49.4762 53.9935 48.3143 53.5136 45.0357Z" fill="#C3BDC9"/>
<path id="path3559" fill-rule="evenodd" clip-rule="evenodd" d="M57.2136 42.7975C55.9307 44.8279 58.4846 46.1345 57.1053 49.5118C57.823 45.0949 54.7389 45.4553 56.6902 42.2561C57.3669 42.9134 59.6852 43.5802 59.9029 44.6927C59.1234 43.5933 57.923 43.5097 57.2136 42.7975Z" fill="#C3BDC9"/>
<path id="path3561" fill-rule="evenodd" clip-rule="evenodd" d="M59.8849 44.9816C60.1264 45.7623 60.3413 46.0728 60.5347 46.5878C59.8314 48.8835 57.0566 49.6829 56.9068 50.5226C56.427 49.4498 59.902 48.8518 59.8849 44.9816Z" fill="#C3BDC9"/>
<path id="path3563" fill-rule="evenodd" clip-rule="evenodd" d="M62.5201 42.6351C62.0833 42.5425 61.6657 42.6224 61.1844 42.1296C61.2664 42.8724 61.1441 43.3086 61.04 43.7723C61.9492 44.2958 62.5495 49.1681 62.9171 49.3854C62.7297 47.2899 62.8142 44.5316 61.5454 43.0322L61.5996 42.7796C61.984 42.9182 62.2798 42.8807 62.5201 42.6351V42.6351Z" fill="#C3BDC9"/>
<path id="path3565" fill-rule="evenodd" clip-rule="evenodd" d="M45.4998 46.4435C46.3696 45.1397 47.1244 43.6217 48.2409 42.8412C49.3574 42.0607 50.0596 42.3606 52.3043 40.5234L53.1526 38.3033C51.2583 41.0858 49.0228 42.9914 45.7885 42.3283C45.9812 42.437 46.0883 42.7036 47.413 42.7796C46.7272 43.4439 46.1381 44.8783 45.4998 46.4435V46.4435Z" fill="#C3BDC9"/>
<path id="path3567" fill-rule="evenodd" clip-rule="evenodd" d="M45.0305 40.2888C46.7268 41.1387 48.7999 41.5731 52.3584 36.4984C53.1146 36.2913 53.8523 35.8806 54.5604 35.1446C52.2719 40.6433 45.7645 44.0044 45.0305 40.2888Z" fill="#DFDDE2"/>
<path id="path3569" fill-rule="evenodd" clip-rule="evenodd" d="M52.6111 43.4653C55.3257 33.2293 63.5604 27.1143 56.4375 21.6621C61.6029 30.612 53.3841 34.3973 52.6111 43.4653Z" fill="#F1EEF0"/>
<path id="path3571" fill-rule="evenodd" clip-rule="evenodd" d="M50.6437 34.6032C50.7841 37.292 54.1838 35.2981 54.9936 33.5384C53.617 34.4674 52.2538 35.3057 50.6437 34.6032Z" fill="#DFDDE2"/>
<path id="path3573" fill-rule="evenodd" clip-rule="evenodd" d="M55.7517 30.4339C56.0639 29.9726 56.1222 30.3987 56.6541 30.5241C55.4102 33.1169 53.3055 33.8251 52.1599 33.8812C53.7127 33.0749 55.1396 32.1473 55.7517 30.4339Z" fill="#DFDDE2"/>
<path id="path3575" fill-rule="evenodd" clip-rule="evenodd" d="M54.9186 26.1L55.1866 26.3679C55.561 26.3523 55.9353 26.3563 56.3097 26.0107C56.3151 26.3366 56.1924 26.4827 56.0289 26.5722C56.2391 28.4578 56.0314 29.5575 55.7699 30.3987C56.0967 30.0671 56.3634 30.5431 56.658 30.521C57.1278 29.7811 57.9316 27.2086 56.6415 24.9767C56.6777 25.6179 55.9859 26.2779 54.9185 26.1H54.9186Z" fill="#C3BDC9"/>
<path id="path3577" fill-rule="evenodd" clip-rule="evenodd" d="M50.4904 25.2808C52.5497 24.4425 53.7265 25.9175 54.6507 26.057C56.12 28.2188 54.5975 30.1009 53.6128 31.2552C54.2673 30.135 55.2254 25.6371 50.4904 25.2808Z" fill="#C3BDC9"/>
<path id="path3579" fill-rule="evenodd" clip-rule="evenodd" d="M52.3404 44.6565C54.5828 45.7075 55.6266 43.1562 56.6902 42.1659C56.1602 40.9522 56.3131 39.956 56.2751 38.8989C54.3267 39.9582 54.3812 43.8015 52.3404 44.6565V44.6565Z" fill="#CECAD5"/>
<path id="path3581" fill-rule="evenodd" clip-rule="evenodd" d="M60.0022 26.6076C59.8183 26.6921 59.8021 27.4145 59.551 27.4016C59.3947 32.5623 54.6987 35.4311 53.5948 42.8879C54.28 42.0888 54.7729 38.9428 56.5359 36.0516C58.3761 33.0337 60.1836 31.3399 60.0022 26.6076V26.6076Z" fill="#CECAD5"/>
<path id="path3583" fill-rule="evenodd" clip-rule="evenodd" d="M57.5987 36.3611C55.7273 41.4035 59.4353 41.4443 59.7556 43.087C55.9126 41.796 55.6433 38.995 57.5987 36.3611V36.3611Z" fill="#DFDDE2"/>
<path id="path3585" fill-rule="evenodd" clip-rule="evenodd" d="M58.2879 21.901C64.5047 25.9432 59.1715 34.1019 56.8457 36.2972C57.766 34.2362 63.3704 28.5633 58.2879 21.901Z" fill="#DFDDE2"/>
<path id="path3587" fill-rule="evenodd" clip-rule="evenodd" d="M60.3809 19.6675C61.0182 20.8358 62.043 22.6762 60.5341 22.3095C63.1784 28.1793 60.2777 31.1963 58.8222 34.4602C55.7535 42.4556 60.8331 39.2849 60.2406 44.8611C61.968 42.8444 59.7198 39.918 59.817 38.9098C59.6926 37.4451 60.6164 34.2807 60.917 32.3665C61.2854 33.4221 61.8509 34.062 62.5251 34.4722C61.3381 30.3158 65.046 22.1232 60.3809 19.6675V19.6675Z" fill="#CECAD5"/>
<path id="path3589" fill-rule="evenodd" clip-rule="evenodd" d="M60.9936 33.4255C61.292 33.8393 61.5031 34.3113 61.9891 34.5999C62.2384 36.2266 59.9547 41.384 63.393 41.7724C60.5955 43.1678 59.0715 39.1639 60.9936 33.4255Z" fill="#CECAD5"/>
<path id="path3591" fill-rule="evenodd" clip-rule="evenodd" d="M59.4878 18.0522C60.0725 18.0939 61.4698 19.0746 62.7727 18.0343C63.668 19.2514 62.0003 20.2817 60.247 19.3708C59.7892 19.0774 61.2409 18.9414 59.4878 18.0522V18.0522Z" fill="#C3BDC9"/>
<path id="path3593" fill-rule="evenodd" clip-rule="evenodd" d="M49.1116 18.4934C49.6376 19.077 50.1744 19.3791 50.6686 20.7906C51.0345 20.7945 51.4003 20.838 51.7662 20.9439C51.1495 19.966 50.4028 19.0663 49.1116 18.4934Z" fill="#DFDDE2"/>
<path id="path3595" fill-rule="evenodd" clip-rule="evenodd" d="M54.7654 16.7959C60.1757 18.2378 59.6664 15.7275 60.6363 15.3666C61.5966 16.9023 58.959 18.8947 54.7654 16.7959Z" fill="#C3BDC9"/>
<path id="path3597" fill-rule="evenodd" clip-rule="evenodd" d="M48.1544 17.8679C47.8481 17.7629 47.5658 17.7821 47.3886 17.8042C47.8699 13.9278 52.1673 16.3894 54.4846 17.8426C51.5596 16.4414 47.8933 14.6603 48.1544 17.8679V17.8679Z" fill="#C3BEC9"/>
<path id="path3599" fill-rule="evenodd" clip-rule="evenodd" d="M48.1671 17.8679C47.9265 13.4609 54.2772 18.4949 57.2158 18.672C55.1708 18.9039 48.4348 14.4206 48.4734 17.9445L48.1671 17.8679Z" fill="#F1EEF0"/>
<path id="path3601" fill-rule="evenodd" clip-rule="evenodd" d="M48.5756 17.9956L49.1116 18.1998C49.1642 17.8144 49.3111 17.371 49.5072 17.3319C50.7541 17.0844 49.5851 17.7397 49.788 17.9445C50.0231 18.1105 50.2849 18.2764 50.5538 18.4423C50.5665 18.255 50.5793 18.0341 50.592 17.7786C50.6134 16.7748 53.495 18.3912 55.5184 19.0549C55.7417 19.6533 54.3957 20.4046 53.336 20.1909C54.299 20.9524 56.3299 20.5825 57.2031 19.3357C58.7587 19.4538 59.1017 19.1992 59.4493 18.8124C58.2603 18.5659 57.7114 19.1508 54.7318 18.3277C51.9947 17.5426 48.6519 15.2092 48.5756 17.9956V17.9956Z" fill="#C3BDC9"/>
<path id="path3603" fill-rule="evenodd" clip-rule="evenodd" d="M51.0515 17.4978C51.3872 17.4658 51.6938 17.5791 51.996 17.7149C51.3893 18.6541 52.2784 19.5501 52.7745 19.4123C52.9425 19.5654 53.1137 19.7186 53.6806 19.8717C52.8799 20.0389 50.201 19.2134 51.0515 17.4978V17.4978Z" fill="#B6B1BF"/>
<path id="path3665" fill-rule="evenodd" clip-rule="evenodd" d="M43.9682 22.9221C40.9661 17.1468 49.6512 16.1271 50.5311 20.9054C50.5311 20.9054 52.6852 20.9923 54.5867 22.0032C58.2924 24.692 56.0414 26.2305 55.2948 26.107C53.5679 26.1371 53.2435 24.4787 50.7231 25.1121C50.117 25.3382 50.0843 25.6496 49.8135 25.6404C48.3108 25.2586 51.0663 22.2409 54.0252 24.4152C54.289 24.609 54.8653 24.2303 54.357 23.6622C52.3729 21.6595 48.9341 22.7601 48.1799 22.9476C47.2192 21.3899 45.0946 21.7464 43.9682 22.9221V22.9221Z" fill="#F6D155"/>
<path id="path3605" fill-rule="evenodd" clip-rule="evenodd" d="M52.583 18.2126C52.9606 18.5139 54.8742 18.8246 54.9186 19.0038C54.3055 20.4498 52.3033 20.0035 52.583 18.2126Z" fill="#AAA3B5"/>
<path id="path3607" fill-rule="evenodd" clip-rule="evenodd" d="M65.4079 57.3452C65.3944 57.3716 65.3652 57.3869 65.4079 57.4535C65.8634 57.6783 66.4268 57.8137 67.0865 57.8685L68.6568 67.1278C68.5372 64.7184 68.3693 62.2286 68.3138 59.9262C68.1382 59.4839 68.0092 58.6689 67.8806 57.8504C68.0792 57.8292 68.2777 57.7974 68.4763 57.7421C69.4708 63.5944 71.9031 64.7723 72.3749 65.2325C71.0881 63.8791 69.3502 61.976 68.7831 57.6159C69.6451 57.1352 70.0379 56.5516 70.3173 56.4608C70.4038 56.2136 70.3487 55.6231 70.227 55.3416C69.361 56.1693 68.579 57.1432 66.8338 57.0022C66.7167 56.9928 66.8338 57.1646 66.8338 57.1646C67.509 58.0685 66.1439 57.5144 65.4079 57.3452V57.3452Z" fill="#C3BDC9"/>
<path id="path3609" fill-rule="evenodd" clip-rule="evenodd" d="M68.7651 68.1205L68.8373 69.5282C69.7082 68.9663 70.5253 68.7936 71.689 66.1169C72.1643 70.8615 72.2251 75.474 74.992 76.4231C73.5622 73.1628 73.5596 69.5828 73.4578 66.1351C73.2894 66.3521 73.1209 66.5084 72.9525 66.6584C71.8144 65.9997 71.4652 65.4727 70.8588 64.8716C70.4777 66.0541 70.2873 67.2965 68.7651 68.1205Z" fill="#CECAD5"/>
<path id="path3611" fill-rule="evenodd" clip-rule="evenodd" d="M70.8208 56.6537C71.2032 56.795 71.6342 56.8393 72.0843 56.8452L72.5693 63.737L70.8208 56.6537Z" fill="#DFDDE2"/>
<path id="path3613" fill-rule="evenodd" clip-rule="evenodd" d="M74.1008 56.156L74.3306 55.9901C74.8922 57.2557 75.6503 58.3739 76.7555 59.2317L79.7292 79.2436L75.4281 59.1806C75.4072 62.6362 74.4519 64.929 72.9011 66.4809L72.7352 65.1664C74.3643 62.9499 75.344 60.2984 74.1008 56.156Z" fill="#C3BDC9"/>
<path id="path3615" fill-rule="evenodd" clip-rule="evenodd" d="M78.6443 60.7506C79.0952 61.0228 79.6142 61.244 80.2013 61.414C82.0065 67.4509 82.688 79.3512 80.3162 83.6593L80.112 82.0259C75.9607 78.8528 74.9261 70.0118 74.088 65.0642L74.2156 64.8218C75.0163 69.3416 75.9607 78.0437 80.0226 81.5792C80.7544 79.2647 82.335 72.5909 79.4994 61.4651C79.2901 61.227 78.9482 60.9888 78.6443 60.7506Z" fill="#C4BEC9"/>
<path id="path3617" fill-rule="evenodd" clip-rule="evenodd" d="M76.1046 54.3182C76.4618 54.2745 76.6589 54.2994 77.2277 54.1649L81.1841 60.074L76.1046 54.3182Z" fill="#DFDDE2"/>
<path id="path3619" fill-rule="evenodd" clip-rule="evenodd" d="M80.3545 61.4651C80.9277 61.6612 81.6561 61.826 82.3965 61.9885C82.4186 62.1688 88.1846 76.9959 92.211 78.1332C87.0637 79.1556 84.4779 70.1271 81.1203 64.7963C80.8812 63.6696 80.6275 62.5579 80.3545 61.4651V61.4651Z" fill="#DFDDE2"/>
<path id="path3621" fill-rule="evenodd" clip-rule="evenodd" d="M79.6848 52.544C79.6356 52.6213 79.5866 52.6986 79.5043 52.7425C81.85 56.3758 81.9072 58.5896 81.598 60.5759L82.5546 61.8212C83.0311 59.0422 82.5163 56.9921 81.8506 55.0528L93.5284 72.0191L83.2043 55.5041L85.3883 55.811C83.5679 55.2002 81.7255 54.991 79.6848 52.544V52.544Z" fill="#C3BDC9"/>
<path id="path3623" fill-rule="evenodd" clip-rule="evenodd" d="M86.7231 55.8497C87.169 55.8532 87.5697 55.827 87.8717 55.7348C90.1853 59.5048 96.1497 66.3543 95.4527 75.6701L94.7253 74.2534C89.1914 72.9751 85.3423 66.022 83.3793 63.2008C86.6194 67.4725 90.2905 73.0447 94.5849 73.9215C94.94 66.9668 89.694 60.1445 86.7231 55.8497V55.8497Z" fill="#C3BDC9"/>
<path id="path3625" fill-rule="evenodd" clip-rule="evenodd" d="M87.9332 55.7206L88.1318 56.0636C93.2518 58.7887 98.9957 64.1874 102.553 60.215C98.8662 61.6963 92.8944 56.4944 88.962 54.5294L89.1425 55.3779C88.7075 55.5879 88.3215 55.6508 87.9332 55.7206V55.7206Z" fill="#DFDDE2"/>
<path id="path3627" fill-rule="evenodd" clip-rule="evenodd" d="M80.6774 49.3493C80.6911 49.4954 80.6758 49.6124 80.6414 49.7104L87.0127 53.6632L81.2009 49.0245C81.0609 49.1732 80.8652 49.2482 80.6775 49.3493H80.6774Z" fill="#DFDDE2"/>
<path id="path3629" fill-rule="evenodd" clip-rule="evenodd" d="M88.6119 53.0674C88.7232 53.4922 88.8517 53.8996 88.9182 54.3692C96.5394 57.8943 101.107 57.026 103.314 55.6453L102.14 55.2115C98.7856 57.4312 90.6676 54.4332 88.6119 53.0674V53.0674Z" fill="#C3BDC9"/>
<path id="path3631" fill-rule="evenodd" clip-rule="evenodd" d="M82.5625 47.0434C82.5619 47.1456 82.5226 47.2476 82.4859 47.3497C85.7212 49.0564 87.9861 52.2255 87.8973 54.4074L88.9948 55.3137C88.5722 51.6657 87.2639 50.3012 85.9446 48.945L101.426 55.0074L86.3913 47.9623C88.3963 47.5069 90.4869 47.3929 92.211 45.3078L95.759 45.18C98.7851 44.7157 102.225 42.9641 102.574 41.3258L101.438 41.4533C99.9857 44.6644 94.261 44.5541 91.2921 44.6696C89.9166 47.2497 85.54 47.4416 82.5625 47.0434V47.0434Z" fill="#C3BDC9"/>
<path id="path3633" fill-rule="evenodd" clip-rule="evenodd" d="M91.2155 46.3415C90.8293 46.6515 90.4232 46.8821 90.0031 47.0561C91.6213 47.3986 93.1282 47.8368 94.5083 48.3835C98.512 48.8031 102.478 48.1922 102.651 44.7844C100.968 47.4978 96.1676 46.9976 91.2155 46.3415V46.3415Z" fill="#DFDDE2"/>
<path id="path3635" fill-rule="evenodd" clip-rule="evenodd" d="M82.4987 43.9548C82.6078 44.2867 82.6505 44.579 82.7156 44.8993L90.922 44.6823C88.1138 44.4401 85.243 44.229 82.4987 43.9548Z" fill="#DFDDE2"/>
<path id="path3637" fill-rule="evenodd" clip-rule="evenodd" d="M86.455 40.6494C88.1239 41.4098 89.6443 42.2626 90.8709 43.2274L89.7861 42.2318C93.2961 41.9428 96.8661 41.6626 100.813 41.4406L88.3311 41.364L86.455 40.6494Z" fill="#C3BDC9"/>
<path id="path3639" fill-rule="evenodd" clip-rule="evenodd" d="M83.818 40.9385C83.7806 41.1129 83.687 41.2873 83.6194 41.462L86.3629 40.6677C90.4683 37.7243 90.663 36.2517 91.182 34.6573L97.445 30.7588L90.3337 34.2965C86.4714 34.3338 85.4841 34.8691 84.3053 35.1809C87.5788 34.4716 89.7316 34.3499 90.9293 34.7296L90.1713 35.1988C89.1836 38.4588 85.4998 40.3575 83.818 40.9385V40.9385Z" fill="#C3BDC9"/>
<path id="path3641" fill-rule="evenodd" clip-rule="evenodd" d="M83.7877 38.2627C83.9051 38.4699 83.9228 38.7269 83.9791 38.9646C85.9384 37.9163 87.7686 36.7386 89.5947 35.5571C87.659 36.507 85.7233 37.4768 83.7877 38.2627Z" fill="#DFDDE2"/>
<path id="path3643" fill-rule="evenodd" clip-rule="evenodd" d="M89.0714 38.6712C91.2757 38.4847 93.5166 38.4326 95.8228 38.6201C96.3614 38.3168 101.947 36.6862 100.596 33.7319C98.9898 36.9674 93.025 38.075 92.5556 38.3393C91.6177 38.4347 89.3006 38.5288 89.0714 38.6712V38.6712Z" fill="#DFDDE2"/>
<path id="path3645" fill-rule="evenodd" clip-rule="evenodd" d="M98.286 30.3498L99.524 29.8139C99.6561 30.0645 98.7606 31.7473 97.1742 33.5074C95.1028 35.8033 93.8849 36.798 89.9392 37.5097C90.0162 37.4045 90.0866 37.299 90.1466 37.1938C93.1974 36.3635 97.3951 33.3878 98.286 30.3498Z" fill="#DFDCE1"/>
<path id="path3647" fill-rule="evenodd" clip-rule="evenodd" d="M85.166 33.5915L84.8087 34.1532C88.3266 31.6178 91.1093 30.0688 93.232 29.4054C95.339 27.1787 95.8197 24.9791 94.9422 23.7006C95.0771 27.8164 88.5421 30.895 85.166 33.5915Z" fill="#DFDDE2"/>
<path id="path3649" fill-rule="evenodd" clip-rule="evenodd" d="M82.907 35.1614L82.7794 36.2079C85.3797 34.31 86.7797 30.8631 86.4168 27.9505L85.4851 28.9076L81.4266 32.2005C81.645 32.3962 81.8845 32.5918 82.0392 32.7876L85.4851 29.0098C85.7132 32.122 83.6166 34.5383 82.907 35.1614V35.1614Z" fill="#C3BEC9"/>
<path id="path3651" fill-rule="evenodd" clip-rule="evenodd" d="M86.4423 30.2861L86.1998 31.1539C87.8785 30.0964 89.0555 28.9862 90.0924 27.8612C92.9964 24.4848 93.3744 21.5506 93.6149 20.1398L92.3642 21.148C92.5663 25.4376 87.7573 29.5711 86.4423 30.2861V30.2861Z" fill="#DFDDE2"/>
<path id="path3653" fill-rule="evenodd" clip-rule="evenodd" d="M85.0129 27.8738C85.4979 27.8535 85.9828 27.84 86.4678 27.8867L92.1727 21.3395L85.0129 27.8738Z" fill="#C3BDC9"/>
<path id="path3655" fill-rule="evenodd" clip-rule="evenodd" d="M80.8139 24.16L80.112 24.9767C80.4122 26.5855 80.4008 28.7515 78.0189 31.3836L78.0955 31.524L78.2614 31.4729C80.148 29.1227 82.1331 28.5127 84.1195 27.925C82.963 28.2129 81.8094 28.402 80.5076 29.0735C81.3957 26.3788 81.0002 24.9986 80.8139 24.16V24.16Z" fill="#C3BDC9"/>
<path id="path3657" fill-rule="evenodd" clip-rule="evenodd" d="M81.082 26.3041L81.0692 26.8274C83.1101 25.5725 85.1771 24.0475 87.0421 21.9647C88.1315 20.5618 89.5305 18.5945 89.6968 15.9152L88.6247 16.7577C88.4127 21.2121 82.6717 25.0487 81.082 26.3041H81.082Z" fill="#DFDDE2"/>
<path id="path3659" fill-rule="evenodd" clip-rule="evenodd" d="M76.4492 25.7297C78.1043 25.014 79.7195 24.3357 80.8395 24.1217L88.0249 17.4468C86.1037 18.8375 82.0649 22.3333 80.1644 23.7517C79.5099 24.2401 78.8528 24.2244 76.4492 25.7297V25.7297Z" fill="#DFDDE2"/>
<path id="path3661" fill-rule="evenodd" clip-rule="evenodd" d="M88.4077 16.8088C70.241 19.9793 60.1498 41.8962 72.3013 39.9217L71.6249 39.756C69.1937 39.9702 68.5716 37.852 68.808 36.5109C69.0235 35.0472 70.4193 34.243 70.8208 34.1052C70.7127 32.8132 70.6707 31.5316 71.9312 30.452C72.437 29.2292 73.0141 28.5995 73.5903 27.9634C75.4996 21.0491 85.1355 17.6053 88.4077 16.8088V16.8088Z" fill="#F1EEF0"/>
<path id="path3663" fill-rule="evenodd" clip-rule="evenodd" d="M79.9461 24.9258C77.6754 25.2564 74.5626 27.7688 74.0911 28.8181C74.0437 28.9237 74.1172 29.0737 73.3095 29.5076L73.3478 29.6479C74.1274 29.3167 76.2372 29.6342 74.2539 30.1328C75.5547 30.0979 76.6865 30.612 77.4446 32.3409C81.6436 31.7012 82.6837 34.7704 81.6307 36.8078C84.3985 39.2074 82.648 42.2979 81.133 42.87C82.0561 44.9231 82.544 47.6512 79.7163 48.7024C79.7084 50.534 79.4556 53.3855 75.1218 53.3481C74.6032 54.5817 73.0639 56.6895 70.4507 55.5689C70.4507 55.5689 70.4477 55.6447 70.4252 55.7219C70.3827 55.8662 71.5056 56.1477 71.5227 56.0793C72.4134 56.1817 72.5173 56.764 71.4334 56.5134C71.0403 56.3968 70.6922 56.302 70.4124 56.1686C70.4185 56.2623 70.422 56.356 70.3613 56.4494C73.1834 57.4244 74.8105 55.7195 75.6961 54.2542C79.0606 54.078 80.453 52.2233 80.6225 49.3279C83.378 47.6012 82.9901 44.9982 82.1412 43.2018C84.5965 41.3657 84.4207 38.142 82.5624 36.6419C83.8244 32.4071 80.0483 31.2655 78.0572 31.5624C77.3874 30.4337 76.9493 30.2699 76.4746 29.9542L80.0354 25.1171L75.7089 29.5713C75.2776 29.4235 74.7149 29.3578 74.0114 29.3798C74.9282 27.075 78.5275 25.3289 79.9461 24.9258H79.9461Z" fill="#C3BDC9"/>
<path id="path3667" fill-rule="evenodd" clip-rule="evenodd" d="M46.8526 19.8717C47.3925 20.6775 48.298 19.6464 49.8135 21.2373L49.9922 21.1609C49.6515 19.792 48.7265 18.9589 47.3631 18.8124C47.9441 19.3228 47.521 19.3529 47.4983 19.6791C47.4783 19.9658 47.5069 20.3168 46.8526 19.8717Z" fill="#DFA12F"/>
<path id="path3669" fill-rule="evenodd" clip-rule="evenodd" d="M44.4532 22.3477C45.2756 21.9007 47.0679 21.2298 48.2054 22.8328C51.7896 21.7844 54.3246 22.7456 54.6761 24.1855C54.8983 23.7936 53.8869 21.6252 49.8007 21.9902C46.3105 19.5494 44.332 21.7564 44.4532 22.3477V22.3477Z" fill="#DFA12F"/>
<path id="path3671" fill-rule="evenodd" clip-rule="evenodd" d="M49.9156 25.4236C49.2934 25.3974 51.2316 23.107 54.4081 25.2959C55.5468 25.7411 56.0898 25.1608 55.8758 24.2237C55.8001 23.5336 55.4185 23.1496 55.1866 22.6158C56.7841 23.8155 56.9784 25.2948 55.8961 25.8908C54.2139 26.7292 53.0316 23.7449 49.9156 25.4236V25.4236Z" fill="#DEA12F"/>
<path id="path3673" fill-rule="evenodd" clip-rule="evenodd" d="M47.285 58.0944L47.9858 59.1094L47.7925 58.9887C45.7964 59.9428 44.766 59.569 43.7806 59.1337L43.6839 59.0612C41.6333 59.4668 40.3279 58.9284 39.237 58.1185C39.3143 58.7289 39.7421 59.1989 40.3004 59.617L38.1494 69.0427L39.1886 60.1971C37.9551 63.6518 36.3401 65.2672 34.1133 66.239L34.2825 65.2722C36.3172 64.2319 38.0566 62.2609 38.8744 57.9977C38.0635 58.1054 37.2518 58.2054 36.4093 57.9977L34.3792 64.9823L35.3459 57.7561C34.4639 57.1718 33.725 56.4446 33.0016 55.7016V55.5809C33.2194 55.8907 33.4441 54.9504 33.4125 54.6624C34.9297 57.1343 37.0921 57.5967 39.1886 56.886C39.1806 57.1196 39.1921 57.3273 39.092 57.6836L39.1886 57.6593C39.2764 57.654 39.3124 57.4353 39.3699 57.2484C39.3077 57.2059 39.2922 57.1046 39.2611 57.031L39.2853 56.9585C40.4451 59.0466 43.3259 58.0685 43.6839 58.2394C43.6396 58.3508 43.709 58.6518 43.7564 58.9162L43.8048 58.9887C43.8612 58.8677 43.8692 58.6985 43.829 58.4811L43.7323 58.2877L43.8169 58.3361C44.8012 59.0666 46.1476 59.0184 47.285 58.0944L47.285 58.0944Z" fill="#C3BDC9"/>
<path id="path3675" fill-rule="evenodd" clip-rule="evenodd" d="M40.6025 59.762C41.2631 60.0703 41.9537 60.3259 42.7051 60.475C42.3509 64.8965 40.111 69.9518 37.7507 71.4473L37.8111 70.2026C37.2332 69.2365 36.7755 67.6878 36.651 64.5232L36.8443 64.3298C36.8984 66.5339 37.1372 68.5593 37.8715 70.1059C38.9939 69.2625 41.4456 66.451 41.823 61.0429C41.8438 60.7124 41.7534 60.5052 41.5692 60.4026C41.129 60.1596 40.8645 59.9605 40.6025 59.762V59.762Z" fill="#C1C0C8"/>
<path id="path3677" fill-rule="evenodd" clip-rule="evenodd" d="M32.0591 78.4681C34.6097 79.1482 36.2982 74.227 37.2694 70.9135C36.8236 70.026 36.1871 69.1056 36.1435 65.079L35.926 65.2965C35.6561 70.4574 35.6082 76.155 32.0591 78.4681V78.4681Z" fill="#C3BDC9"/>
<path id="path3679" fill-rule="evenodd" clip-rule="evenodd" d="M33.2804 55.9916L33.4342 56.1455C33.2429 57.1203 31.9265 60.6593 33.5538 64.109C32.6435 62.7657 31.8834 60.6394 33.2804 55.9916V55.9916Z" fill="#DFDDE3"/>
<path id="path3681" fill-rule="evenodd" clip-rule="evenodd" d="M31.8962 58.1619L31.4006 58.9481L25.9832 80.9421L31.7253 62.6223C32.0103 63.6894 32.3688 64.7976 33.8615 66.5357C31.7538 74.0117 28.4108 80.6873 25.5389 82.4462L25.8123 81.5403C24.5889 77.8365 25.5686 70.0551 27.658 62.2293C26.324 66.5187 23.5732 75.9009 25.3167 82.7365L24.7699 84.4285C30.4545 80.5452 33.7984 70.8146 35.0577 65.8521C34.7493 66.1006 34.4029 66.2346 34.0495 66.3477C32.2649 64.75 31.404 62.1732 31.8962 58.1619V58.1619Z" fill="#C3BDC9"/>
<path id="path3683" fill-rule="evenodd" clip-rule="evenodd" d="M28.4822 52.0039C28.6244 52.6781 29.418 53.4719 29.8114 54.155C30.0225 54.5081 30.2589 54.6456 30.5606 54.2275L30.8023 53.8409C31.3956 54.5074 32.2036 54.8602 33.3883 54.6624L31.9624 57.9495C30.3085 61.1551 28.1063 61.8472 25.9203 62.6139L26.5971 61.3571C29.4428 61.0855 31.4768 58.2789 32.5424 55.6776C31.8319 55.5185 31.1472 55.2401 30.3461 54.7179L26.9837 60.5595L29.2072 54.6624C29.6551 53.7352 28.4785 53.0082 28.4822 52.0039Z" fill="#C3BDC9"/>
<path id="path3685" fill-rule="evenodd" clip-rule="evenodd" d="M27.1288 62.2271C26.7307 62.393 26.3156 62.5419 25.872 62.6622C22.2149 70.8602 20.1634 78.1769 13.6429 80.4642C19.5615 81.5868 23.5398 72.1046 24.9778 69.2601C26.0344 66.678 26.6648 64.2747 27.1288 62.2271Z" fill="#CECAD5"/>
<path id="path3687" fill-rule="evenodd" clip-rule="evenodd" d="M27.9485 52.2318C27.2831 53.0296 25.0208 56.1929 26.4447 61.4774L26.5643 61.3234C25.5453 57.8191 26.6061 53.9134 27.9485 52.2318Z" fill="#E0DEE4"/>
<path id="path3689" fill-rule="evenodd" clip-rule="evenodd" d="M25.5095 56.8981C25.3187 58.2702 25.3894 59.3483 25.4491 60.4388C21.0129 68.2958 13.6044 75.5482 9.32892 75.8458C14.7829 68.5401 20.2368 60.9905 25.6907 53.563C26.0412 53.4134 26.3916 53.1726 26.7421 52.9344C26.1697 53.7787 25.9054 54.4686 25.7874 55.0855L10.7911 74.3112C15.8028 73.896 24.0154 62.0216 25.2436 58.8195C25.2525 57.8602 25.3735 57.3491 25.5095 56.8981V56.8981Z" fill="#C3BDC9"/>
<path id="path3691" fill-rule="evenodd" clip-rule="evenodd" d="M10.2352 74.5892L10.5857 74.154C10.1538 66.7359 18.5575 57.9159 20.8209 55.1458C20.4453 55.9488 9.73357 65.3585 10.2352 74.5892Z" fill="#DFDCE1"/>
<path id="path3693" fill-rule="evenodd" clip-rule="evenodd" d="M4.14484 61.3088C5.403 63.2803 7.51957 64.514 15.4555 59.6895C17.0426 57.9401 18.6296 56.1418 20.2166 54.6384L19.83 54.6142C17.1574 55.7298 10.2587 62.9574 4.14484 61.3088V61.3088Z" fill="#DFDDE2"/>
<path id="path3695" fill-rule="evenodd" clip-rule="evenodd" d="M24.7845 47.3879C23.7682 47.8097 19.839 49.2321 19.4433 53.6474L18.5974 54.1188C23.9408 55.8979 28.0118 51.8616 28.8205 51.1099C27.9871 50.5759 27.1373 50.1401 26.4279 48.8623L25.727 49.2004C24.0019 50.6342 21.9214 52.0177 19.9146 53.3575L26.1379 50.1914C26.4987 50.5957 26.9126 51.0134 27.7813 51.5448C24.0104 54.1352 21.0628 54.0062 19.6246 53.6354C19.8328 51.0826 21.3565 48.9105 24.7845 47.3879V47.3879Z" fill="#C3BDC9"/>
<path id="path3697" fill-rule="evenodd" clip-rule="evenodd" d="M18.7715 52.6421C18.6546 53.1804 18.5179 53.7387 18.5322 54.1459C16.8307 54.8163 14.9529 55.3495 12.8414 55.701C12.7219 55.7348 12.165 55.9486 11.9528 55.5473C11.71 55.3905 11.4379 55.3512 11.1496 55.3763C11.1003 55.2447 10.8331 55.303 10.7993 55.1798C15.9698 54.2843 18.3294 53.0462 18.7715 52.6421Z" fill="#CECAD5"/>
<path id="path3699" fill-rule="evenodd" clip-rule="evenodd" d="M12.9782 48.831C11.6155 49.4947 5.94063 52.5109 4.9632 55.3934C7.72738 56.2309 9.80384 55.4991 11.0556 55.3807C10.9984 55.3014 10.7658 55.3169 10.7394 55.1883C8.67578 55.4863 6.21228 55.6252 5.52715 55.2226L6.03984 54.9661C6.19941 52.52 12.0496 49.4576 12.9782 48.831V48.831Z" fill="#DFDDE1"/>
<path id="path3701" fill-rule="evenodd" clip-rule="evenodd" d="M6.3645 54.8808C15.6099 51.4572 20.0923 48.6992 25.0262 47.0366V47.2076C24.6317 47.4578 21.3913 48.2175 20.1215 50.0615L6.3645 54.8808Z" fill="#C3BDC9"/>
<path id="path3703" fill-rule="evenodd" clip-rule="evenodd" d="M23.4198 47.5495C22.7797 47.8178 22.1578 48.0316 21.4887 48.3867C18.4693 47.9479 17.978 47.1943 16.6866 46.5753L16.9429 46.4727C17.4214 46.8203 18.0132 47.0923 18.5835 47.3785C19.4685 47.6772 19.6844 47.32 18.8057 47.0026C17.7455 46.6653 17.0822 46.2105 16.4986 45.7721C17.5392 43.7566 19.9895 42.7971 20.3095 42.6447C18.9515 43.5278 17.3847 44.3096 16.9771 45.6525C19.0859 45.3401 21.3216 44.9707 24.0692 44.3707C24.276 44.7358 24.4775 45.0964 24.8724 45.6182L24.8041 45.7038L24.3939 45.2082L17.0284 45.7721C19.0718 47.17 21.2519 47.3032 23.4198 47.5495V47.5495Z" fill="#C3BDC9"/>
<path id="path3705" fill-rule="evenodd" clip-rule="evenodd" d="M4.4953 44.7294C5.35269 47.5737 12.4834 46.8493 16.7002 46.5541L16.9177 46.4816C16.5759 46.2439 16.2775 46.0064 16.096 45.7686C14.3421 45.4008 6.37231 47.0755 4.4953 44.7294V44.7294Z" fill="#DFDDE2"/>
<path id="path3707" fill-rule="evenodd" clip-rule="evenodd" d="M17.9328 43.1706L18.0174 43.2431C17.5179 43.6642 17.0184 44.0299 16.519 44.6327C9.91305 44.6476 5.75499 42.0154 4.5799 40.4878C6.21356 39.1674 8.2756 38.7035 10.4528 38.4699C8.58129 39.0255 6.39 39.3497 5.38953 40.5363H4.91825C7.98544 43.9631 16.1664 45.4909 17.9328 43.1706V43.1706Z" fill="#DFDDE2"/>
<path id="path3709" fill-rule="evenodd" clip-rule="evenodd" d="M5.80035 40.645C10.1921 41.2631 14.4761 41.8006 18.9841 42.506C19.5936 41.9702 20.687 41.6199 22.3918 41.503C21.8133 41.4875 21.3342 41.4271 20.4221 41.5633C15.397 41.6351 10.6511 41.009 5.80035 40.645V40.645Z" fill="#C3BDC9"/>
<path id="path3711" fill-rule="evenodd" clip-rule="evenodd" d="M24.6274 39.9805C24.2158 40.4108 23.9972 41.0339 23.8419 41.7205C19.013 40.1453 18.2269 37.1204 18.0657 36.8143C20.9673 34.7995 22.716 35.5498 25.1228 35.4972C20.0076 35.2592 18.6624 36.5982 18.4403 36.8626C20.3607 37.3888 21.7186 37.8758 25.8358 38.5544C25.4423 38.8338 25.1945 39.0925 25.0262 39.3399C23.4356 38.6906 20.4973 37.7894 18.4041 36.9715C18.7344 38.3664 20.8935 40.4665 22.706 41.0075C23.2124 41.1417 23.7656 41.3928 23.9628 40.7537C24.0396 40.4905 24.4402 40.0781 24.6274 39.9805V39.9805Z" fill="#C3BDC9"/>
<path id="path3713" fill-rule="evenodd" clip-rule="evenodd" d="M6.25958 33.6362C7.17055 34.5615 10.7027 37.6147 17.1352 36.8506C17.3809 37.4787 17.6267 37.7093 17.8724 37.9623C16.165 37.7023 14.4517 37.5132 12.7125 37.6361C9.88577 36.7856 7.30438 35.7596 6.25958 33.6362V33.6362Z" fill="#DFDDE2"/>
<path id="path3715" fill-rule="evenodd" clip-rule="evenodd" d="M19.3829 34.9654C19.4832 35.0263 19.578 35.0927 19.7091 35.1226C18.656 35.54 17.8422 35.9941 17.2077 36.476C13.9637 35.471 9.36069 33.078 7.69757 30.0595C9.70613 29.1639 13.1145 29.5794 15.093 30.0595C12.8977 30.0392 10.2756 29.5923 8.9664 30.4581L7.9755 30.1077C8.37008 31.3969 15.2715 37.413 19.3829 34.9654V34.9654Z" fill="#DFDDE2"/>
<path id="path3717" fill-rule="evenodd" clip-rule="evenodd" d="M9.31683 30.6273C13.4386 32.0678 17.3508 33.4924 20.6396 34.8689C21.6655 34.6198 22.6668 34.6897 23.6606 34.8567C23.4321 34.6318 23.1942 34.4353 22.996 34.1196L22.9114 34.1559L23.3223 34.6997C17.7322 32.7938 13.603 31.7572 9.31683 30.6274V30.6273Z" fill="#C3BDC9"/>
<path id="path3719" fill-rule="evenodd" clip-rule="evenodd" d="M22.283 32.2586C21.9698 31.6657 21.6714 31.0576 21.6426 30.1802C20.0955 30.9074 13.0168 27.8433 11.3348 23.9931C11.4501 27.3833 17.4935 30.0389 22.283 32.2586Z" fill="#DFDDE2"/>
<path id="path3721" fill-rule="evenodd" clip-rule="evenodd" d="M26.3796 34.3733C26.1669 34.6082 25.9861 34.8909 25.7149 35.0381C25.5772 35.1267 25.4499 35.1101 25.3283 35.0381C22.834 33.4387 22.3331 30.6649 22.3918 30.0957C24.3106 29.7698 26.9931 29.8139 30.6815 32.1017C29.8735 31.9298 27.1451 29.9217 22.7785 30.2889C22.6977 31.796 23.8464 34.6796 26.3796 34.3733Z" fill="#C3BDC9"/>
<path id="path3723" fill-rule="evenodd" clip-rule="evenodd" d="M23.1169 30.5428L27.5396 33.7692C28.1116 33.7987 28.6836 33.7831 29.2556 34.0591C29.2871 33.9454 29.341 33.7982 29.4368 33.588C26.9976 32.5728 25.2111 31.5578 23.1169 30.5428V30.5428Z" fill="#C3BDC9"/>
<path id="path3725" fill-rule="evenodd" clip-rule="evenodd" d="M13.132 20.2404L14.3111 20.941C14.1581 23.6161 18.9019 28.8183 24.1888 29.2294C23.3244 29.3176 22.3653 29.2951 21.6767 29.5883C19.1793 28.0411 17.4958 26.3936 16.1055 24.9571C15.8126 25.0009 15.5848 24.2691 15.0972 24.4957C13.7536 22.7594 13.2214 21.3977 13.132 20.2404V20.2404Z" fill="#DFDDE2"/>
<path id="path3727" fill-rule="evenodd" clip-rule="evenodd" d="M20.8393 22.3084C19.072 21.6228 17.4672 20.8369 14.3966 20.9583C19.1613 24.4128 21.7633 26.5895 25.2655 29.2979C26.8648 29.5377 28.4088 30.2481 29.9651 30.8531C29.7646 30.4258 29.6075 29.9986 29.5208 29.5713C29.5458 29.9302 29.5385 30.2891 29.76 30.6478C27.6792 30.0492 19.1202 23.9624 14.9264 21.2486C16.5067 20.7515 18.7408 21.6774 20.8393 22.3084V22.3084Z" fill="#C4BECA"/>
<path id="path3729" fill-rule="evenodd" clip-rule="evenodd" d="M23.2831 22.4791C21.3606 20.8092 19.224 18.9097 18.7373 16.2416C20.9801 16.5078 25.359 18.0192 28.7517 20.4627C25.5914 18.6497 22.6085 17.2913 20.1728 17.3352C19.972 19.5448 22.0062 21.0006 23.2831 22.4791V22.4791Z" fill="#DFDDE2"/>
<path id="path3731" fill-rule="evenodd" clip-rule="evenodd" d="M20.3266 17.4035L20.2241 17.4891C23.4682 19.8848 25.8173 22.1686 28.3757 24.4787C29.0999 25.0861 28.9968 25.7408 29.0764 26.3927C29.3403 26.0847 28.9953 25.0352 29.5577 24.9256C30.0876 24.8241 32.1174 25.8753 32.238 25.7092C27.4517 23.5873 24.267 20.1978 20.3266 17.4035Z" fill="#C3BDC9"/>
<path id="path3733" fill-rule="evenodd" clip-rule="evenodd" d="M30.512 30.2206C30.0526 29.4822 29.3444 27.2047 29.8113 25.6749C35.9713 27.006 37.0054 31.8519 37.1085 32.8182C36.2005 29.3054 32.8498 26.117 30.5462 26.5294C31.956 27.8254 33.6759 30.4837 34.7501 31.622C34.241 31.6477 33.7313 31.6731 33.4001 31.81C32.5363 31.7137 32.1375 31.8868 31.6911 32.0322C31.2155 31.4816 31.0431 31.0657 30.7512 30.5967C31.374 31.4757 32.2748 31.3419 33.2121 31.0751C32.2665 29.351 31.3209 28.1103 30.3753 26.6491C29.9075 27.0012 30.3497 28.8397 30.512 30.2206V30.2206Z" fill="#E0DEE4"/>
<path id="path3735" fill-rule="evenodd" clip-rule="evenodd" d="M32.9899 23.6583C43.4686 30.6123 44.2599 42.0423 36.8521 40.1667C45.7386 39.0991 35.3223 25.8982 32.9899 23.6583Z" fill="#DFDDE2"/>
<path id="path3737" fill-rule="evenodd" clip-rule="evenodd" d="M33.4729 31.8478C34.3344 31.4869 36.6454 31.527 36.7477 35.0864L35.9864 35.6542C36.002 34.6796 36.1567 32.4805 33.4729 31.8478Z" fill="#C3BDC9"/>
<path id="path3739" fill-rule="evenodd" clip-rule="evenodd" d="M35.9864 35.7147L36.7839 35.1346C40.5977 36.5858 38.7271 40.7073 36.071 40.0529C39.2435 39.7285 38.5591 35.6848 35.9864 35.7147V35.7147Z" fill="#C3BDC9"/>
<path id="path3741" fill-rule="evenodd" clip-rule="evenodd" d="M48.284 8.98919C48.8026 9.89369 47.3628 12.6085 49.8428 12.2007C50.6832 12.7297 51.4374 12.4426 51.8148 12.4448C53.4581 11.8723 53.4103 10.7388 53.5144 10.4354C52.0883 8.42831 53.6868 8.04538 53.8619 7.91854C54.7441 8.02593 55.1974 9.65331 54.0121 10.1723C54.106 10.2474 54.25 10.2349 54.4441 10.1347C54.4267 12.7417 56.2786 12.9233 57.5617 12.5011C60.0899 13.1921 58.8642 10.2677 60.0596 8.08772C58.7024 10.4766 59.5771 12.6485 57.5993 12.3697C58.1081 11.1364 56.7639 10.1756 57.4303 8.83898C56.3994 9.72121 58.1122 11.3523 57.4303 12.2007C56.7326 12.8116 56.0559 12.3029 56.0405 12.0317C55.7552 11.1469 57.7769 10.0723 56.5663 8.44447C56.9811 9.32562 56.8378 9.72209 56.6155 10.2823C56.3932 10.8425 55.5379 11.3503 55.9278 12.4636C55.0419 12.2883 54.582 11.2372 54.8277 10.4081C55.0698 9.59065 55.4846 8.22047 53.937 7.77771C51.983 8.36501 52.9773 9.91159 53.2129 10.1871C53.6927 10.7067 52.8127 12.2747 51.7115 12.2664C52.2155 11.4966 51.6181 11.3412 50.8757 10.1159C50.8214 10.7672 52.3558 11.6468 51.4767 12.1632C51.026 12.5234 50.3874 12.3116 50.1245 12.0505C49.6269 11.4848 50.8236 10.8255 50.6034 9.74043C50.2824 11.3316 49.8199 11.2368 49.8803 11.9942C49.3045 12.1579 48.7036 12.3658 48.5163 11.2669C48.5285 9.75768 48.4985 8.83023 48.2839 8.98919H48.284Z" fill="#DFA12F"/>
<path id="path3743" fill-rule="evenodd" clip-rule="evenodd" d="M58.4444 15.14L58.4726 15.2996C55.4426 15.495 52.3563 14.9151 49.3826 14.8487V14.7079C52.3924 14.7819 54.7718 15.3107 58.4444 15.14H58.4444Z" fill="#DFA12F"/>
<path id="path3745" fill-rule="evenodd" clip-rule="evenodd" d="M53.7773 15.6563L53.7679 15.7783C55.5082 16.0504 57.2508 16.3255 58.6979 16.1822V16.0508C56.9531 16.268 55.3786 15.9176 53.7773 15.6563H53.7773Z" fill="#DFA12F"/>
<path id="path3747" fill-rule="evenodd" clip-rule="evenodd" d="M49.6174 13.1585C49.1368 13.3122 49.3629 14.0169 49.608 14.013C50.1621 14.0405 50.7161 14.1195 51.2701 14.0318C51.5846 13.8837 51.6879 13.3281 51.3359 13.1022C50.7534 13.0305 50.1751 13.0312 49.6174 13.1585L49.6174 13.1585ZM49.5141 13.0646C50.4705 12.8812 51.3421 12.9989 51.8336 13.0928C52.274 13.2098 52.2753 13.9772 51.8336 14.135C51.3334 14.1811 50.258 14.1698 49.5235 14.1069C49.0405 13.7067 49.2912 13.2227 49.5141 13.0646H49.5141Z" fill="#E1A02F"/>
<path id="path3749" fill-rule="evenodd" clip-rule="evenodd" d="M52.951 13.9191C54.199 14.0829 55.2542 14.1798 54.9887 13.2054C54.6331 13.2102 52.2304 12.6712 52.951 13.9191ZM52.9134 14.0505C52.7444 13.8733 52.5114 13.4901 52.9698 13.0177C53.6669 12.9683 54.3793 13.0109 55.1014 13.1115C55.7649 13.3858 55.7055 13.9767 55.1578 14.2289C53.9865 14.2278 53.3632 14.1512 52.9135 14.0505H52.9134Z" fill="#E1A02F"/>
<path id="path3751" fill-rule="evenodd" clip-rule="evenodd" d="M56.3208 14.0992C57.5514 14.3638 58.5858 14.5933 58.4004 13.6003C58.0455 13.5761 55.7039 12.7969 56.3208 14.0992ZM56.2727 14.2271C56.1186 14.0368 55.9175 13.6359 56.4128 13.2021C58.1793 13.2934 57.8827 13.315 58.5297 13.4689C59.1687 13.7962 59.0615 14.3804 58.4951 14.5874C56.9629 14.6199 56.6982 14.3691 56.2727 14.2271H56.2727Z" fill="#E1A02F"/>
<path id="path3753" fill-rule="evenodd" clip-rule="evenodd" d="M33.8841 33.5118L31.9227 39.2904C32.4687 39.2803 32.9356 39.318 33.8841 39.1216C34.7699 37.3021 34.9529 34.7252 33.8841 33.5118V33.5118Z" fill="#C3BDC9"/>
<path id="path3755" fill-rule="evenodd" clip-rule="evenodd" d="M35.4648 44.7807L31.9212 39.3039C31.8349 39.189 31.0275 41.5733 30.9159 42.3098C31.3523 43.5103 33.4443 44.751 35.4648 44.7807V44.7807Z" fill="white"/>
<path id="path3757" fill-rule="evenodd" clip-rule="evenodd" d="M34.8841 40.54C36.1253 40.0949 36.3646 39.3462 36.3814 38.8965L33.8875 39.1181C34.2416 39.5639 34.6038 40.0257 34.8841 40.54Z" fill="#C3BDC9"/>
<path id="path3759" fill-rule="evenodd" clip-rule="evenodd" d="M30.7475 36.3921C30.2463 36.0594 28.6195 35.9428 28.2792 36.2375L30.3618 38.1623C30.4458 37.5992 30.563 36.9482 30.7475 36.3921V36.3921Z" fill="#C3BDC9"/>
<path id="path3761" fill-rule="evenodd" clip-rule="evenodd" d="M26.0433 42.3266L31.8841 39.317C32.0163 39.2606 31.1843 41.6236 30.9124 42.3168C30.2183 42.6737 27.3223 43.3649 26.0433 42.3266V42.3266Z" fill="#C3BDC9"/>
</g>
<defs>
<linearGradient id="paint0_linear_145_4105" x1="30.8166" y1="42.7776" x2="42.3761" y2="51.9241" gradientUnits="userSpaceOnUse">
<stop stop-color="#C3BDC9"/>
<stop offset="1" stop-color="#C3BDC9" stop-opacity="0"/>
</linearGradient>
<linearGradient id="paint1_linear_145_4105" x1="64.3168" y1="65.471" x2="29.3105" y2="47.3569" gradientUnits="userSpaceOnUse">
<stop stop-color="#C3BDC9"/>
<stop offset="1" stop-color="#C3BDC9" stop-opacity="0"/>
</linearGradient>
<linearGradient id="paint2_linear_145_4105" x1="82.5403" y1="38.2874" x2="61.5946" y2="54.3101" gradientUnits="userSpaceOnUse">
<stop stop-color="#C3BDC9"/>
<stop offset="1" stop-color="#C3BDC9" stop-opacity="0"/>
</linearGradient>
</defs>
</svg>
