<svg width="117" height="117" viewBox="0 0 117 117" fill="none" xmlns="http://www.w3.org/2000/svg">
<g id="senegal">
<g id="layer1">
<path id="path12816" d="M112 58.4926C112 88.0395 88.0543 112 58.4926 112C28.9457 112 5 88.0395 5 58.4926C5 28.9457 28.9457 5 58.4926 5C88.0543 5 112 28.9457 112 58.4926" fill="white"/>
<path id="path12820" d="M35.9251 28.8865C50.7429 27.5381 49.8242 32.8873 50.1947 36.1027C55.6032 36.4436 56.8479 40.8 56.8627 41.5854C57.6481 41.0069 59.0706 39.1404 59.6485 36.9918C56.8924 37.0241 55.0994 35.1989 55.0994 33.0799C55.0994 30.9461 55.9292 27.9974 59.0558 27.9974C62.1824 27.9974 63.7975 30.4868 65.1311 33.6874L67.8132 32.1908L67.5612 28.3679L70.1543 30.057L71.3546 29.9237C71.3546 29.9237 71.3395 28.6938 71.2804 27.7602C70.258 26.2488 66.8498 25.0337 64.6568 24.5003C65.1161 24.2626 66.1238 24.1744 67.0573 24.1744C73.6809 24.1744 74.1699 30.7832 73.9624 31.8649C74.8663 32.0724 76.1851 32.0284 76.1851 32.0284C76.1851 32.0284 76.6593 30.917 76.6593 29.0352C76.6593 23.6117 71.1174 21.1964 65.6644 20.0851C60.1966 18.9887 52.4172 20.7959 49.3796 22.9154C52.8766 22.767 54.1806 24.3526 54.1954 25.2418C53.3952 24.8708 48.4016 24.56 47.1421 24.7235C45.8974 24.8869 39.3627 26.4127 35.9249 28.8872" fill="#E63F23"/>
<path id="path12822" d="M44.4157 30.2646C47.6311 30.2646 47.809 33.806 47.6904 35.5397C45.6159 37.1696 39.7184 38.4736 39.7184 41.0667C39.7184 41.585 39.9258 42.0441 40.3704 42.0441C40.8149 42.0441 43.3043 42.1087 43.3043 42.7699C43.3043 43.1108 43.0375 43.0958 42.5634 43.3334C30.7832 49.3643 26.3378 55.0247 25.1376 55.9434C25.1967 54.5505 25.3598 53.5133 25.7154 52.6094C26.9601 49.4828 31.0054 44.415 31.8352 43.2148C32.1167 42.8148 32.3094 42.1922 31.361 42.1922C30.3979 42.1922 29.3013 42.3556 27.375 44.5037C27.2717 43.2146 27.7898 41.1845 33.8801 38.2506C34.7099 37.8506 34.9766 37.4054 34.9766 36.9318C34.9766 36.4576 34.5765 35.9834 34.5765 35.9834C32.7983 36.0479 30.7683 35.4801 30.6497 34.798C30.6196 34.5313 30.7239 34.3087 30.7239 34.3087C30.961 34.3948 31.0944 34.7238 32.428 34.3625C33.7616 34.0066 37.9699 32.4509 39.3479 31.9028C40.6964 31.3393 42.9487 30.258 44.4157 30.258" fill="#E63F23"/>
<path id="path12824" d="M56.8625 31.1239C58.0924 30.3239 59.1445 30.2648 59.752 30.2648C60.3447 30.2648 62.5674 30.5906 62.9971 33.7173L61.9302 33.8034L59.8113 35.5816L59.7812 33.996L58.8624 32.7216C59.4995 32.5141 59.796 32.3065 59.796 31.8033C59.796 31.285 59.2922 30.5882 56.8621 31.1216" fill="#E63F23"/>
<path id="path12826" d="M78.0819 28.442C78.482 29.242 78.5561 29.5384 78.5561 30.0719C78.5561 30.6052 77.9188 31.6426 76.7927 31.9242C77.1187 31.1241 77.2521 30.0422 77.2224 29.5681C77.4595 29.4348 77.8003 29.0498 78.0819 28.442" fill="#E63F23"/>
<path id="path12828" d="M59.6484 41.0074C60.5967 41.615 62.3156 43.4524 62.3156 45.0231C62.3156 45.8081 62.1823 46.2679 61.9155 46.5791C61.6636 46.8748 57.5442 51.4838 57.2331 55.2327C58.4185 56.8033 65.5163 69.2059 65.5163 74.5552C65.5163 79.8897 63.2491 86.0984 60.2263 86.9134C60.8931 84.7944 61.0117 82.6606 61.0117 80.2304C61.0117 75.0294 56.8775 68.6428 48.7721 66.6276C50.8911 65.1903 53.2619 62.3748 53.2619 58.4778C53.2619 54.5807 50.5354 51.2911 50.5354 51.2911C54.7733 50.2986 58.7001 45.4676 59.6484 41.0074" fill="#FFDC00"/>
<path id="path12830" d="M49.2759 37.0511C50.6984 37.0511 53.9287 37.7027 55.2771 41.1704C54.7585 43.4376 50.1501 48.0015 48.9647 49.1869C47.7792 50.3723 40.311 58.6704 39.822 68.139C39.3627 76.9705 42.4892 87.2541 43.8229 91.6105C41.6298 88.884 35.999 80.6601 35.3322 79.8156C34.6803 78.9854 32.6502 75.8295 29.3013 73.918C29.1087 74.7772 29.7459 78.0818 33.154 79.9341C26.1155 78.1707 23.7298 72.2732 22.6777 69.6356C22.6777 63.2787 26.4563 56.3439 27.4935 54.8918C32.4279 48.0163 43.897 43.4228 46.6235 42.9634L46.4753 43.601C45.1565 44.1494 36.4436 50.0023 35.3174 51.0397C34.1912 52.0623 30.6053 57.026 30.6053 59.0857C30.6053 59.6632 30.6645 60.36 31.2573 60.36C31.8648 60.36 34.043 60.1676 35.9249 55.9444C37.051 53.6327 38.9774 51.6916 38.9774 51.6916C41.6742 50.1358 45.6602 47.6018 47.2606 46.3719C48.8757 45.1421 50.239 44.0307 50.239 42.5193C50.239 40.9931 48.7868 39.3928 42.0743 39.4964C43.5857 38.2666 46.7123 37.0515 49.2758 37.0515" fill="#FFDC00"/>
<path id="path12832" d="M51.143 58.3148C49.5575 59.5447 47.7645 61.5599 47.7645 64.1085C47.7645 66.6573 48.9796 72.2732 56.0922 72.4659C57.411 74.2737 60.093 78.2745 58.2704 84.5424C57.2035 83.1348 55.2031 79.3562 54.477 78.4967C53.5583 77.4003 51.306 74.9109 49.0981 75.9481C50.8318 78.0077 55.5884 84.1275 56.0625 84.9426C56.5515 85.7576 58.9076 90.0695 58.2408 92.8109L53.4249 87.2541C52.2543 85.2389 49.3945 82.6162 44.9343 81.3863C40.1333 76.5852 42.845 57.0553 51.143 58.3148" fill="#FFDC00"/>
<path id="path12834" d="M51.6171 86.4836L52.5654 87.1653L54.4769 91.1366L52.8469 93.2851L51.5133 91.0476L51.6171 86.4836Z" fill="#FFDC00"/>
<path id="path12836" d="M49.9428 84.6609L47.5867 84.0685C47.2904 88.825 50.4169 95.8191 54.477 99.6421C51.7802 94.0409 50.7281 91.3885 49.9428 84.6612" fill="#FFDC00"/>
<path id="path12838" d="M79.534 34.0875C80.1119 34.0875 81.1936 35.2581 81.3122 35.4359L81.4455 37.0215L83.8608 37.5989V37.9548L76.8816 37.9118L75.5035 37.7043C75.6221 37.2602 76.5259 36.0299 76.8964 35.689L78.6597 37.0227H79.8007V36.0302L78.719 34.9189C78.5857 34.6522 78.971 34.0888 79.534 34.0888" fill="#006330"/>
<path id="path12840" d="M75.8591 36.0286C75.5923 36.3845 74.9403 37.6438 74.9403 37.6438L73.5919 37.4513L74.1995 36.533L75.8591 36.0286Z" fill="#006330"/>
<path id="path12842" d="M73.4883 36.7399L73.0141 37.3625L71.1619 36.9475L72.2584 35.5101C72.3326 35.9994 72.3476 36.7993 73.4883 36.74" fill="#006330"/>
<path id="path12844" d="M66.6277 35.1099C63.6493 38.9774 64.568 41.3335 69.5172 44.1933C68.4651 44.7116 65.4571 46.3271 65.7682 50.9207C66.0646 55.5142 69.0134 56.0773 69.0134 56.0773C70.1247 55.7956 78.1115 54.9066 80.4528 56.8483C81.0011 58.33 83.0904 61.3085 87.3283 61.3085C89.5806 61.3085 91.2995 58.6561 91.2995 58.6561L91.4181 62.9087L90.7957 63.2044L89.3732 62.9969L87.269 64.2268L86.3948 63.9601C84.8982 62.9827 81.5938 61.9597 80.8677 61.9597C80.1269 61.9597 77.9486 62.5081 77.9486 62.5081C79.9787 63.5307 82.7496 67.7535 82.7496 71.058C82.7496 74.3624 81.7419 83.4753 77.0003 82.9864C77.4151 82.5273 78.1709 81.8603 78.1709 80.3488C78.1709 78.8374 77.2077 78.7633 77.2077 78.7633C76.541 78.9708 72.3623 82.8531 68.643 86.2315C65.5461 89.0321 62.7455 91.4326 62.7455 91.4326C62.7455 91.4326 67.9317 84.2756 67.9317 75.7552C67.9317 73.6215 67.4575 65.5458 61.3526 59.3815C66.2721 60.4041 74.4664 73.4141 77.1485 73.4141C77.4892 73.4141 78.0227 72.999 77.9931 72.3323C77.949 71.6807 77.4153 68.7761 77.4153 68.7761C76.2595 67.65 70.4508 62.9824 69.0283 62.36C63.9458 60.1077 59.5597 56.6255 59.5597 53.8249C59.5597 52.2691 60.0783 50.2093 60.4636 49.6314C60.8637 49.0389 64.3311 43.7635 64.3311 43.7635L64.1829 42.4447C63.2641 42.3264 62.4492 40.9926 61.4712 38.9181C61.975 37.8216 64.4644 35.7767 66.6278 35.1099" fill="#006330"/>
<path id="path12846" d="M92.6478 41.8669C92.9738 42.0745 93.6258 43.2894 93.5961 43.808C93.566 44.3263 93.2849 45.4528 92.0106 46.9791C91.9213 46.8457 91.8179 46.6683 91.8179 46.5049V45.3045C91.166 44.3411 89.8619 43.0967 89.8619 43.0967L90.0101 42.7559C90.6769 43.0817 91.1363 43.0075 91.9661 42.9634C92.781 42.9204 93.2997 42.8301 92.6477 41.8669" fill="#006330"/>
<path id="path12848" d="M82.7643 42.2225C81.4751 42.5935 79.4747 43.734 79.4747 46.4012C79.4747 47.8237 80.4379 49.6759 83.2088 49.6759C83.9349 49.6759 85.0018 49.3651 85.4019 49.1866C84.5277 49.1114 82.3346 48.5942 82.3346 47.7641C82.3346 46.92 82.9718 46.905 82.9718 46.905C83.4312 46.905 83.4312 47.1566 84.1572 47.1566C84.8833 47.1566 85.313 46.9792 85.639 46.519C84.3054 46.5942 82.0679 46.1039 82.0679 44.4297C82.0679 43.4071 82.4235 42.7848 82.7644 42.2218" fill="#006330"/>
<path id="path12850" d="M86.113 51.6763C85.7722 52.4473 85.1942 53.4397 84.0533 53.499C82.9271 53.5527 79.3708 53.5742 78.9707 53.5742C78.5706 53.5742 77.889 53.7226 77.889 53.7226L79.5635 51.9445C79.5635 51.9445 83.8458 51.9122 84.4385 51.8692C85.0312 51.837 85.7277 51.794 86.113 51.6768" fill="#006330"/>
<path id="path12852" d="M90.4548 49.098L87.5209 51.958C87.8616 52.2246 88.5878 53.1878 88.1877 54.1065H89.8621C90.3955 53.1581 91.0623 51.795 91.0623 51.0985C90.766 51.0233 90.1436 51.4695 90.1436 51.4695L90.1135 50.6393L90.3803 50.2985L90.4548 49.098Z" fill="#006330"/>
<path id="path12854" d="M98.6194 58.4926C98.6194 80.6601 80.6602 98.6195 58.4926 98.6195C36.3398 98.6195 18.3806 80.6601 18.3806 58.4926C18.3806 36.3398 36.3398 18.3806 58.4926 18.3806C80.6602 18.3806 98.6194 36.3398 98.6194 58.4926ZM112 58.4926C112 88.0395 88.0395 112 58.4926 112C28.9457 112 5 88.0395 5 58.4926C5 28.9457 28.9457 5 58.4926 5C88.0395 5 112 28.9457 112 58.4926V58.4926Z" stroke="#14A335" stroke-width="9.10727" stroke-miterlimit="10"/>
<path id="path12858" d="M31.5685 19.1955L33.6282 19.8031C33.8504 19.8676 34.0283 20.0407 34.1171 20.2472L34.8728 22.2624L36.0731 20.4843C36.2064 20.2918 36.4287 20.1735 36.6509 20.1735L38.7995 20.066L37.4955 18.3767C37.3474 18.1843 37.3029 17.9466 37.3622 17.7251L37.9401 15.6505L35.91 16.3764C35.7026 16.4516 35.4506 16.4193 35.2581 16.3011L33.4651 15.1009L33.5243 17.2643C33.5393 17.4868 33.435 17.7084 33.2575 17.8567L31.5685 19.1955Z" fill="#11A335"/>
<path id="path12860" d="M103.435 60.4782C103.613 60.4782 103.791 60.5535 103.924 60.6557L105.554 62.0782L105.762 59.9296C105.777 59.707 105.91 59.4855 106.102 59.3812L107.955 58.2698L105.984 57.3956C105.777 57.3096 105.613 57.1139 105.569 56.8913L105.08 54.7872L103.643 56.4022C103.494 56.5797 103.272 56.6689 103.035 56.6399L100.886 56.4625L101.968 58.3146C102.087 58.5222 102.102 58.7587 102.012 58.9813L101.182 60.967L103.287 60.4927C103.331 60.4927 103.39 60.4825 103.435 60.4825" fill="#11A335"/>
<path id="path12862" d="M31.7759 97.0487L33.391 98.4712C33.5688 98.6346 33.6578 98.8561 33.643 99.0938L33.4503 101.228L35.3173 100.146C35.51 100.028 35.747 100.013 35.9693 100.103L37.9549 100.933L37.4807 98.8289C37.4366 98.6063 37.4957 98.3697 37.6437 98.1912L39.0514 96.5613L36.9028 96.3538C36.6805 96.3215 36.4731 96.2054 36.3545 95.9979L35.2432 94.1604L34.3837 96.1312C34.2804 96.3538 34.1022 96.5011 33.8799 96.5613L31.7759 97.0487Z" fill="#11A335"/>
<path id="path12864" d="M38.7849 13.8018C39.0368 13.7157 39.3184 13.7588 39.5258 13.9502C39.7332 14.1276 39.8073 14.4244 39.7332 14.691L38.8737 17.773L40.8297 20.3069C40.933 20.4253 40.9779 20.5736 40.9779 20.7371C46.3123 18.2476 52.2395 16.8547 58.4926 16.8547C80.2453 16.8547 98.1453 33.6286 99.9679 54.9071L102.798 55.1587L104.917 52.7581C105.11 52.5506 105.391 52.4764 105.658 52.5355C105.91 52.6107 106.132 52.8172 106.191 53.0839L106.917 56.1956L109.837 57.4848C109.896 57.5171 109.94 57.5386 109.985 57.5709C109.511 29.5947 86.5873 6.98262 58.4925 6.98262C49.4536 6.98262 40.963 9.32374 33.5688 13.4283L35.7619 14.8805L38.7849 13.8018Z" fill="#FFDC00"/>
<path id="path12868" d="M32.1463 99.3307L29.7459 97.2117C29.5384 97.0343 29.4495 96.7375 29.5236 96.4859C29.5828 96.2192 29.8051 96.0117 30.0719 95.9526L33.1836 95.2117L34.3987 92.4111C23.8039 84.854 16.8691 72.4662 16.8691 58.4781C16.8691 44.49 23.8187 32.0874 34.4283 24.5451C34.2356 24.4699 34.0727 24.3075 33.9838 24.115L32.8725 21.107L29.7903 20.2177C29.5384 20.1317 29.331 19.9209 29.2866 19.6403C29.2274 19.3887 29.3307 19.1069 29.5385 18.9284L32.0575 16.9429L31.9833 14.3497C17.0173 23.3739 7.00037 39.7773 7.00037 58.4774C7.00037 77.148 16.9728 93.5218 31.8796 102.561C31.8796 102.55 31.8796 102.528 31.8796 102.518L32.1463 99.3307Z" fill="#11A335"/>
<path id="path12870" d="M107.184 60.4337L106.858 63.6196C106.843 63.9013 106.665 64.1379 106.414 64.2271C106.324 64.2701 106.221 64.2917 106.132 64.2917C105.954 64.2917 105.791 64.2271 105.658 64.1142L103.243 62.0101L100.101 62.7069C100.042 62.7172 99.9679 62.7172 99.9085 62.7172C97.7896 83.6845 80.0229 100.103 58.4925 100.103C52.3135 100.103 46.4456 98.7542 41.1704 96.3242C41.1403 96.3671 41.1263 96.4102 41.0962 96.4425L38.9921 98.8725L39.6885 101.999C39.7477 102.266 39.6584 102.548 39.4366 102.725C39.2292 102.888 38.9476 102.932 38.6957 102.832L35.7322 101.603L32.9908 103.218C40.5035 107.53 49.2164 109.99 58.4924 109.99C86.8094 109.99 109.866 87.0219 109.999 58.7345C109.97 58.7447 109.955 58.7774 109.925 58.799L107.184 60.4337Z" fill="#E63F23"/>
<path id="path12872" d="M41.6151 25.6858C41.2446 26.56 40.7409 27.7752 40.8742 28.2789H35.5842M76.3482 32.4131C76.6002 31.6131 76.9558 30.9758 76.9558 28.8865C76.9558 26.7824 76.8076 25.3894 76.8076 25.3894C74.5701 23.2705 73.5625 23.1371 72.377 22.6778C68.3021 21.0922 61.5155 20.2032 52.9656 20.5736C52.4618 20.6059 43.2599 25.0931 43.1858 25.3302C41.8225 29.2718 44.1194 34.295 47.8979 39.185H72.1103M40.163 30.8276C41.1261 32.6798 44.149 38.6959 45.9419 40.4296L48.6684 40.8146L73.9626 40.6371M23.6558 72.9104C24.2041 71.5028 24.5597 69.4579 24.5597 69.4579C23.804 68.3912 23.2113 67.5463 22.3815 66.8203M25.0635 75.2962C25.7896 73.1772 26.8861 70.3025 26.8861 70.3025C28.0271 69.4434 31.5241 67.2204 34.873 67.2204C38.2218 67.2204 41.0965 67.7688 47.8979 73.029C54.6993 78.2893 56.4478 78.8228 56.4478 78.8228V91.9219L52.5655 94.2779L49.9872 96.0857M53.6472 96.0857L52.4322 97.5378L54.1362 97.2711M58.3148 85.3872C58.0777 83.1349 58.4779 80.7196 58.7742 79.7119L66.6573 74.9999C66.6573 74.9999 70.021 72.8364 71.1175 72.1845C72.2289 71.5468 76.778 69.043 80.4083 69.043C84.0387 69.043 85.0315 69.5473 85.0315 69.5473L82.631 66.3318L82.0086 66.2243L78.9265 64.8166L78.0375 59.9712L76.3779 53.718L74.3775 54.0137C74.3775 54.0137 74.5108 54.8439 74.6886 55.5697C74.8664 56.2955 76.3779 62.2673 77.4003 64.816C76.6446 65.631 74.1848 67.8537 73.3699 68.3279C72.5549 68.8171 66.3313 72.2545 66.3313 72.2545C66.3313 72.2545 63.6641 73.4844 62.538 74.166C61.4118 74.8478 59.0558 76.2998 59.0558 76.2998L58.3149 76.2569C55.6477 75.1751 52.5655 73.2192 50.0465 71.367C47.5126 69.5296 44.0601 66.7735 42.845 66.0473C41.6299 65.3215 39.4072 64.0173 39.4072 64.0173C39.4072 64.0173 39.7184 63.2022 40.3111 61.8391C40.9038 60.4758 42.0893 57.1863 42.7561 55.171C43.408 53.1707 45.5122 46.6656 45.5122 46.6656L48.1943 43.9687L48.0312 42.1757L44.5194 42.5908L43.0228 48.1178L42.1633 49.3477L37.8661 63.1876C37.2586 63.8242 34.3247 64.6398 33.6579 64.8175C33.0059 64.995 29.0643 66.1067 28.442 66.4476C27.8344 66.7734 26.9454 67.0992 26.9454 67.0992L22.5 63.454" stroke="white" stroke-miterlimit="10"/>
<path id="path12874" d="M23.0927 91.8922L19.4772 87.595L20.4551 86.7509L23.0186 89.8033L23.7892 89.1517L21.3442 86.2473L22.3074 85.4473L24.7523 88.3517L26.16 87.1661L27.2269 88.4257L23.0927 91.8922Z" fill="#FFDC00"/>
<path id="path12876" d="M18.5141 86.2761L15.4467 81.2381L16.5137 80.5865L18.7215 84.2021L19.4624 83.757L17.3731 80.3193L18.3214 79.7408L20.4107 83.1786L21.1516 82.7345L18.8992 79.0151L19.9958 78.3485L23.1224 83.4606L18.5141 86.2761ZM15.3578 84.7202L14.4095 83.1644L16.4989 83.7568L17.1064 84.7644L15.3578 84.7202Z" fill="#FFDC00"/>
<path id="path12878" d="M17.6842 76.5556L16.6173 73.8291C16.3653 73.1624 16.069 72.984 15.3578 73.2657L14.6761 73.5324C13.9648 73.8141 13.876 74.1399 14.1427 74.8067L15.2096 77.5332L17.6842 76.5556ZM14.5724 79.5636L12.735 74.9256C12.1423 73.3846 12.4238 72.6436 13.6686 72.1547L15.1948 71.5622C16.4395 71.073 17.1508 71.4138 17.7583 72.955L19.5809 77.5931L14.5724 79.5636Z" fill="#FFDC00"/>
<path id="path12880" d="M11.5051 71.1767L10.3196 65.3977L11.5347 65.1461L12.3942 69.3099L13.2388 69.1325L12.4386 65.1909L13.5351 64.9683L14.3352 68.9099L15.1799 68.7325L14.3057 64.4797L15.58 64.2281L16.7802 70.0959L11.5051 71.1767ZM9.04529 68.6428L8.6897 66.8647L10.453 68.1242L10.6901 69.28L9.04529 68.6428Z" fill="#FFDC00"/>
<path id="path12882" d="M12.6609 61.8711L12.5577 59.1446C12.5426 58.7005 12.3651 58.537 11.9798 58.5521H11.8021C11.3279 58.5844 11.239 58.8187 11.2686 59.337L11.3579 61.9301L12.6609 61.8711ZM10.0826 63.6196L9.89002 58.6408C9.84593 57.3665 10.4679 56.996 11.4311 56.9664L11.7718 56.9561C12.4979 56.9238 12.9276 57.0744 13.1351 57.8303H13.1502C13.2244 57.326 13.4168 56.912 14.306 56.8819L15.2247 56.8496L15.2838 58.4943L14.6319 58.5266C14.0688 58.5369 13.891 58.7191 13.9059 59.2234L14.0091 61.8314L15.402 61.7669L15.4611 63.4264L10.0826 63.6196Z" fill="#FFDC00"/>
<path id="path12884" d="M13.4906 53.2322L13.7869 51.1282L11.6235 51.9131L13.4906 53.2322ZM10.2455 52.8021L10.5418 50.6683L16.2912 48.4753L16.0392 50.2978L15.0168 50.6828L14.5575 54.002L15.4317 54.6095L15.1798 56.4321L10.2455 52.8021Z" fill="#FFDC00"/>
<path id="path12886" d="M11.0754 47.4681L12.898 41.4373L14.1724 41.8222L13.5056 44.0448L17.3879 45.2155L16.9137 46.801L13.0314 45.6303L12.3498 47.8531L11.0754 47.4681Z" fill="#FFDC00"/>
<path id="path12888" d="M13.4314 40.2962L14.0833 38.77L19.0473 40.8741L18.3954 42.4004L13.4314 40.2962Z" fill="#FFDC00"/>
<path id="path12890" d="M18.0694 37.2734C18.751 37.6734 19.0919 37.6884 19.4771 37.0067L20.544 35.1841C20.9441 34.5024 20.7663 34.2067 20.0847 33.8209L19.5956 33.5251C19.0029 33.1843 18.5731 33.1251 18.1435 33.8811L17.1655 35.5555C16.721 36.3114 16.9876 36.6521 17.5803 36.9928L18.0694 37.2734ZM16.2764 38.1917C14.9132 37.4067 15.0317 36.4432 15.7875 35.1687L17.1211 32.872C17.862 31.5828 18.6325 31.005 19.9958 31.7903L21.3887 32.6053C22.7519 33.4054 22.6334 34.3539 21.8776 35.643L20.544 37.925C19.8031 39.2142 19.0326 39.792 17.6693 39.0067L16.2764 38.1917Z" fill="#FFDC00"/>
<path id="path12892" d="M19.403 29.4051L21.0774 27.4639L26.0858 27.6864V27.6762L23.1223 25.1127L24.2188 23.8679L28.2789 27.3945L26.6045 29.3209L21.6108 29.1134L24.5596 31.6917L23.4779 32.9365L19.403 29.4051Z" fill="#FFDC00"/>
<path id="path12894" d="M101.939 69.3097L101.109 72.125C100.916 72.8067 101.035 73.1175 101.776 73.3401L102.472 73.5476C103.198 73.7552 103.48 73.5476 103.672 72.8659L104.502 70.0505L101.939 69.3097ZM106.251 68.8505L104.843 73.6367C104.384 75.2222 103.702 75.6223 102.413 75.2518L100.842 74.7927C99.5678 74.4077 99.2122 73.6961 99.6715 72.1107L101.079 67.3245L106.251 68.8505Z" fill="#FFDC00"/>
<path id="path12896" d="M103.613 77.1632L101.02 82.4679L99.8939 81.9195L101.761 78.1113L100.99 77.7263L99.227 81.3418L98.2194 80.8526L99.9827 77.237L99.1973 76.8521L97.3006 80.764L96.13 80.1866L98.7676 74.8076L103.613 77.1632Z" fill="#FFDC00"/>
<path id="path12898" d="M98.1305 86.9726L94.5742 91.3439L93.5814 90.5288L96.0856 87.4319L95.3002 86.8093L92.9145 89.7432L91.9365 88.9582L94.3222 86.0096L92.8997 84.8538L93.9369 83.5794L98.1305 86.9726Z" fill="#FFDC00"/>
<path id="path12900" d="M90.4251 91.2846C89.9065 90.6921 89.5805 90.5878 89.0026 91.1072L87.4171 92.5149C86.8392 93.0332 86.9133 93.36 87.4321 93.9523L87.8174 94.3824C88.2619 94.8867 88.6621 95.0792 89.314 94.5007L90.7662 93.2116C91.4033 92.6331 91.2551 92.2191 90.8103 91.7149L90.4251 91.2846ZM92.4255 90.9739C93.4776 92.1445 93.0628 93.0187 91.9513 94.0116L89.9657 95.7748C88.8544 96.7673 87.9505 97.0788 86.8984 95.8931L85.8315 94.6929C84.7795 93.5075 85.1943 92.648 86.3057 91.6552L88.2765 89.8919C89.3879 88.8995 90.3066 88.588 91.3586 89.7736L92.4255 90.9739Z" fill="#FFDC00"/>
<path id="path12902" d="M83.9794 96.5005C83.5645 95.8339 83.2681 95.6704 82.6013 96.0704L80.7935 97.167C80.1267 97.5821 80.1416 97.9229 80.5564 98.5895L80.8528 99.0788C81.2084 99.6562 81.5492 99.9229 82.3049 99.4637L83.9497 98.4562C84.7054 98.0121 84.6313 97.582 84.2757 97.004L83.9794 96.5005ZM85.9946 96.5651C86.8095 97.9135 86.2465 98.6989 84.9869 99.4693L82.7198 100.847C81.4455 101.618 80.4971 101.752 79.6673 100.403L78.8375 99.0401C78.0226 97.6917 78.5707 96.9063 79.8452 96.1358L82.1123 94.7578C83.3866 93.9868 84.335 93.8395 85.1648 95.1879L85.9946 96.5651Z" fill="#FFDC00"/>
<path id="path12904" d="M79.6525 102.472L73.7994 104.828L73.2957 103.583L75.4591 102.709L73.9477 98.9603L75.4739 98.3378L76.9853 102.102L79.1487 101.227L79.6525 102.472Z" fill="#FFDC00"/>
<path id="path12906" d="M70.5692 103.48L67.7093 104.131C67.413 104.196 67.2648 104.339 67.324 104.636C67.3982 104.946 67.5908 105.021 67.8872 104.946L70.747 104.309L70.5692 103.48ZM70.1246 101.568L67.2352 102.22C66.8944 102.306 66.672 102.442 66.7462 102.738C66.8204 103.094 67.0723 103.123 67.4279 103.049L70.3173 102.397L70.1246 101.568ZM72.6437 105.213L68.0057 106.251C66.7165 106.548 66.0201 106.337 65.783 105.303C65.5756 104.398 65.8723 104.162 66.2868 103.925V103.892C65.5607 103.967 65.2051 103.655 65.0273 102.855C64.7753 101.699 65.3977 101.313 66.3164 101.106L71.4582 99.9354L72.6437 105.213Z" fill="#FFDC00"/>
<path id="path12908" d="M61.797 103.776L59.6929 103.862L60.8635 105.833L61.797 103.776ZM61.9897 107.036L59.8411 107.144L56.6256 101.898L58.463 101.812L59.0113 102.745L62.3602 102.597L62.8047 101.62L64.6421 101.533L61.9897 107.036Z" fill="#FFDC00"/>
<path id="path12910" d="M55.8402 107.14L54.1954 106.962L54.6251 102.976L50.9207 102.576L51.0688 101.213L56.4033 101.777L55.8402 107.14Z" fill="#FFDC00"/>
<path id="path12912" d="M49.439 106.354L47.8387 105.969L48.787 102.072L45.1714 101.198L45.4974 99.8497L50.7133 101.124L49.439 106.354Z" fill="#FFDC00"/>
<path id="path12914" d="M43.6301 15.8763L45.2305 15.4462C45.3786 15.9946 45.6157 15.9796 46.0751 15.8613L48.0311 15.343C48.3718 15.2355 48.7127 15.1204 48.5942 14.7204C48.4756 14.2613 48.283 14.2903 46.2233 14.8387C43.8228 15.4764 43.4672 15.2538 43.1264 13.9796C42.8745 13.0312 42.7708 12.2903 44.786 11.7568L47.0087 11.1493C48.8609 10.66 49.2017 11.2353 49.4388 12.1568L49.4829 12.3203L47.8826 12.7504C47.7783 12.3654 47.6899 12.2171 46.9639 12.4095L45.1857 12.8837C44.8301 12.9913 44.6226 13.1805 44.6967 13.4612C44.8151 13.9053 45.0227 13.8612 46.7267 13.3966C49.2013 12.7299 49.8237 12.7299 50.2237 14.2418C50.609 15.6495 50.1936 16.005 48.0751 16.5682L46.134 17.0865C44.6818 17.4714 44.0298 17.3682 43.7187 16.2273L43.6301 15.8763Z" fill="#14A335"/>
<path id="path12916" d="M53.4991 8.20072L55.2921 8.02222L53.8695 9.65225L52.6989 9.77057L53.4991 8.20072ZM50.7281 10.3789L56.596 9.8015L56.7294 11.0314L52.4914 11.4615L52.5807 12.3207L56.5815 11.9207L56.7001 13.032L52.6993 13.432L52.7885 14.2912L57.1005 13.861L57.2339 15.1502L51.2771 15.7427L50.7281 10.3789Z" fill="#14A335"/>
<path id="path12920" d="M58.1813 9.71213L60.73 9.87556L63.575 13.9949H63.5901L63.8567 10.083L65.5015 10.2013L65.1459 15.5802L62.5824 15.4028L59.7522 11.2982H59.7371L59.4703 15.1953L57.8256 15.0878L58.1813 9.71213Z" fill="#14A335"/>
<path id="path12922" d="M70.421 9.35643L72.1696 9.77149L70.3025 10.8382L69.1467 10.5564L70.421 9.35643ZM67.087 10.4974L72.8215 11.8755L72.5252 13.0906L68.4058 12.0981L68.1984 12.9433L72.1103 13.8766L71.8436 14.9584L67.9464 14.025L67.739 14.8691L71.9621 15.8766L71.6658 17.1361L65.8275 15.7433L67.087 10.4974Z" fill="#14A335"/>
<path id="path12924" d="M73.4883 14.0242C74.0958 12.572 75.059 12.572 76.437 13.1499L78.7338 14.1134C80.4527 14.8392 80.4379 15.5656 80.023 16.5436L79.9638 16.6919L78.4672 16.0694C78.6746 15.5661 78.4231 15.3876 77.9189 15.1801L76.2741 14.4833C75.5035 14.1725 75.222 14.2607 74.8664 15.1209L74.6144 15.7285C74.244 16.5876 74.3773 16.8547 75.1479 17.1807L76.763 17.8624C77.1631 18.0258 77.5928 18.1441 77.7855 17.6549L77.8447 17.5065L75.9628 16.7215L76.3925 15.6839L79.8006 17.1212L79.2079 18.5437C78.6152 19.9663 77.8447 19.7292 76.1258 19.0029L74.3032 18.2329C72.9252 17.6544 72.2584 16.9585 72.8659 15.5064L73.4883 14.0242Z" fill="#14A335"/>
<path id="path12926" d="M82.3049 19.8031L84.0682 20.9441L84.2756 18.6621L82.3049 19.8031ZM84.0534 17.0322L85.8612 18.2027L85.4166 24.3373L83.8756 23.3298L83.9648 22.2482L81.1494 20.4404L80.2307 20.9737L78.6748 19.9662L84.0534 17.0322Z" fill="#14A335"/>
<path id="path12928" d="M89.0916 20.5291L90.3214 21.6257L87.669 24.6189L90.4252 27.0787L89.5064 28.1164L85.5056 24.5452L89.0916 20.5291Z" fill="#14A335"/>
<path id="path12930" d="M92.9293 28.8421L94.2778 30.472L95.152 28.353L92.9293 28.8421ZM95.4336 26.723L96.8116 28.3974L94.5297 34.1024L93.3591 32.6798L93.7739 31.6873L91.6401 29.0941L90.6029 29.3317L89.4175 27.9092L95.4336 26.723Z" fill="#14A335"/>
<path id="path12932" d="M99.1084 31.5685L100.012 32.9614L95.4632 35.8805L94.5741 34.4877L99.1084 31.5685Z" fill="#14A335"/>
<path id="path12934" d="M97.5525 35.6879L98.2785 37.1696C97.7599 37.4212 97.834 37.6589 98.0414 38.0739L98.9304 39.8966C99.0786 40.2224 99.2712 40.5191 99.6418 40.3407C100.071 40.1331 100.012 39.9406 99.0639 38.0291C97.9822 35.7916 98.1156 35.4063 99.3158 34.8284C100.19 34.3983 100.901 34.1467 101.82 36.0286L102.828 38.1032C103.672 39.8072 103.168 40.2517 102.324 40.6667L102.161 40.7419L101.435 39.2602C101.79 39.0828 101.924 38.9784 101.583 38.2967L100.783 36.652C100.62 36.3111 100.398 36.1476 100.131 36.267C99.7161 36.4745 99.7902 36.667 100.576 38.2526C101.702 40.5493 101.835 41.1569 100.412 41.8533C99.1085 42.491 98.6788 42.1501 97.7156 40.1789L96.8414 38.3711C96.1746 37.0227 96.1598 36.3708 97.2119 35.852L97.5525 35.6879Z" fill="#14A335"/>
<path id="path12936" d="M104.31 41.6003L106.014 47.2458L104.813 47.6018L103.583 43.5417L102.754 43.7933L103.924 47.646L102.857 47.9567L101.687 44.1188L100.857 44.3564L102.116 48.5203L100.872 48.8902L99.1381 43.1557L104.31 41.6003Z" fill="#14A335"/>
</g>
</g>
</svg>
