<svg width="122" height="122" viewBox="0 0 122 122" fill="none" xmlns="http://www.w3.org/2000/svg">
<g id="tunez">
<path id="path3429" d="M61 117C91.9279 117 117 91.9279 117 61C117 30.0721 91.9279 5 61 5C30.0721 5 5 30.0721 5 61C5 91.9279 30.0721 117 61 117Z" fill="white" stroke="#E70013" stroke-width="8.2146"/>
<path id="path4313" d="M61 102.616C83.9841 102.616 102.616 83.9841 102.616 61.0001C102.616 38.016 83.9841 19.3838 61 19.3838C38.0159 19.3838 19.3837 38.016 19.3837 61.0001C19.3837 83.9841 38.0159 102.616 61 102.616Z" fill="#E70013"/>
<path id="path4315" d="M61.2447 94.7512C74.7803 94.7512 85.7531 83.7784 85.7531 70.2428C85.7531 56.7071 74.7803 45.7343 61.2447 45.7343C47.709 45.7343 36.7362 56.7071 36.7362 70.2428C36.7362 83.7784 47.709 94.7512 61.2447 94.7512Z" fill="white"/>
<path id="path3433" d="M61.2464 49.924C50.0238 49.924 40.9269 59.0209 40.9269 70.2435C40.9269 81.4662 50.0238 90.5631 61.2464 90.5631C69.0918 90.5631 75.8961 86.1194 79.2825 79.6094C76.2765 84.0465 71.1959 86.9594 65.4328 86.9594C56.1995 86.9594 48.711 79.4769 48.711 70.2435C48.711 61.0102 56.1995 53.5217 65.4328 53.5217C71.196 53.5217 76.2765 56.4404 79.2825 60.8776C75.8961 54.3676 69.0918 49.924 61.2464 49.924Z" fill="#E70013"/>
<path id="path3440" fill-rule="evenodd" clip-rule="evenodd" d="M76.0264 76.6987L67.7409 74.0114L63.0324 81.3395L63.0278 72.6291L54.6034 70.4155L62.886 67.7195L62.388 59.0233L67.5115 66.0675L75.6282 62.9066L70.512 69.9561L76.0264 76.6987Z" fill="#E70013"/>
<path id="path4299" d="M61.2446 96.0269C75.4848 96.0269 87.0287 84.483 87.0287 70.2428C87.0287 56.0026 75.4848 44.4586 61.2446 44.4586C47.0044 44.4586 35.4604 56.0026 35.4604 70.2428C35.4604 84.483 47.0044 96.0269 61.2446 96.0269Z" stroke="white" stroke-width="8.61658" stroke-linecap="round"/>
<path id="path4309" d="M42.8646 52.4786L42.6724 53.1033L37.7707 60.0954L35.8485 71.7009L34.7647 71.6632C34.7647 71.6632 33.2355 71.6292 31.6724 71.4593C30.1093 71.2894 29.2258 70.9496 28.8181 70.7797C28.4103 70.6098 28.1724 70.27 28.6821 70.4059C29.1918 70.5418 28.7161 69.8622 28.6142 69.5564C28.5122 69.2505 29.2938 69.3185 29.5656 69.0806C29.8375 68.8428 29.2646 68.909 28.9928 68.4673C28.7209 68.0255 30.0414 68.7069 30.3132 68.469C30.585 68.2311 29.7695 68.1632 29.7015 67.5515C29.6336 66.9399 30.687 67.6535 30.4151 67.3816C30.1433 67.1098 29.8715 66.8719 32.7768 66.9908C29.1239 66.9059 24.7404 64.8671 24.4006 64.5952C24.0608 64.3234 24.9443 64.3234 23.687 64.0855C22.4297 63.8476 24.7089 63.8224 25.3181 63.6438C25.9139 63.469 22.6162 62.6978 25.271 62.936C27.3355 63.1212 25.3181 62.6923 25.3181 62.3185C25.3181 61.9447 26.1676 62.2166 25.7938 61.7069C25.42 61.1971 26.8132 61.8428 26.2016 61.435C25.5899 61.0272 25.7938 61.0612 25.2161 60.4666C19.9151 58.7505 17.0948 56.5758 18.1821 56.5418C19.2695 56.5078 17.9554 55.2073 18.396 55.2399C19.7258 55.3384 19.5687 55.0822 18.6579 54.469C18.3138 54.2374 19.9151 54.469 19.0316 54.0952C18.1482 53.7214 19.5074 53.5515 20.4928 53.6535C17.1627 52.0224 15.4297 49.5418 14.886 49.0661C14.3423 48.5904 16.0074 48.9641 16.8229 48.5564C17.6384 48.1486 15.9394 48.2505 15.7016 47.7069C15.4637 47.1632 16.7889 48.2166 17.1287 47.8768C17.4685 47.537 15.9054 47.5709 15.9054 47.1632C15.9054 46.7554 16.8569 47.435 17.5365 47.1972C18.2161 46.9593 17.1967 46.8573 16.687 46.5175C16.1773 46.1777 16.1433 45.8719 17.6307 46.1333C15.4488 44.7656 12.0368 39.9601 12.0368 39.9601C12.0368 39.9601 11.8278 39.2117 12.3715 39.3476C12.9151 39.4836 14.1724 40.0612 13.7307 39.4836C13.2889 38.9059 11.7258 38.0224 12.1336 38.0224C12.5414 38.0224 13.153 38.702 13.4248 38.3622C13.6967 38.0224 12.0316 36.7311 12.8812 37.003C13.7307 37.2748 13.3229 36.8331 13.3229 36.2554C13.3229 35.6777 13.9346 36.1535 14.0705 35.8816C14.2064 35.6098 13.6287 34.7263 13.9006 34.7942C14.1724 34.8622 14.2064 35.4399 14.5462 35.3379C14.886 35.236 12.9831 32.4496 14.5357 34.3375H14.5357C29.7214 47.8893 49.6645 46.0631 49.6645 46.0631L47.2137 48.7543L42.8886 52.5026" fill="white"/>
<path id="path4307" d="M78.9292 52.8592L79.1214 53.4839L84.0231 60.476L85.9453 72.0815L87.0291 72.0437C87.0291 72.0437 88.5583 72.0098 90.1214 71.8399C91.6845 71.67 92.568 71.3301 92.9757 71.1602C93.3835 70.9903 93.6214 70.6505 93.1117 70.7865C92.602 70.9224 93.0777 70.2428 93.1796 69.9369C93.2816 69.6311 92.5 69.6991 92.2282 69.4612C91.9563 69.2234 92.5292 69.2896 92.801 68.8479C93.0728 68.4061 91.7524 69.0874 91.4806 68.8496C91.2087 68.6117 92.0243 68.5437 92.0922 67.9321C92.1602 67.3204 91.1068 68.034 91.3786 67.7622C91.6505 67.4903 91.9223 67.2525 89.017 67.3714C92.6699 67.2865 97.0534 65.2476 97.3932 64.9758C97.733 64.7039 96.8495 64.7039 98.1068 64.4661C99.3641 64.2282 97.0849 64.203 96.4757 64.0243C95.8799 63.8496 99.1776 63.0784 96.5228 63.3166C94.4583 63.5018 96.4757 63.0729 96.4757 62.6991C96.4757 62.3253 95.6262 62.5971 96 62.0874C96.3738 61.5777 94.9806 62.2234 95.5922 61.8156C96.2039 61.4078 96 61.4418 96.5777 60.8471C101.879 59.1311 104.699 56.9564 103.612 56.9224C102.524 56.8884 103.838 55.5878 103.398 55.6205C102.068 55.719 102.225 55.4628 103.136 54.8496C103.48 54.6179 101.879 54.8496 102.762 54.4758C103.646 54.102 102.286 53.9321 101.301 54.034C104.631 52.403 106.364 49.9224 106.908 49.4467C107.451 48.9709 105.786 49.3447 104.971 48.9369C104.155 48.5292 105.854 48.6311 106.092 48.0874C106.33 47.5437 105.005 48.5971 104.665 48.2573C104.325 47.9175 105.888 47.9515 105.888 47.5437C105.888 47.136 104.937 47.8156 104.257 47.5777C103.578 47.3399 104.597 47.2379 105.107 46.8981C105.616 46.5583 105.65 46.2525 104.163 46.5139C106.345 45.1462 109.757 40.3406 109.757 40.3406C109.757 40.3406 109.966 39.5923 109.422 39.7282C108.879 39.8641 107.621 40.4418 108.063 39.8641C108.505 39.2865 110.068 38.403 109.66 38.403C109.252 38.403 108.641 39.0826 108.369 38.7428C108.097 38.403 109.762 37.1117 108.913 37.3836C108.063 37.6554 108.471 37.2136 108.471 36.636C108.471 36.0583 107.859 36.534 107.723 36.2622C107.587 35.9903 108.165 35.1069 107.893 35.1748C107.621 35.2428 107.587 35.8204 107.248 35.7185C106.908 35.6166 108.811 32.8302 107.258 34.7181C92.0724 48.2698 72.1293 46.4437 72.1293 46.4437L74.5801 49.1348L78.9051 52.8832" fill="white"/>
<g id="path4295">
<path d="M94.0291 61.5437C96 61.4418 96.2039 61.4078 95.5922 61.8156C94.9806 62.2234 96.3738 61.5777 96 62.0874C95.6262 62.5971 96.4757 62.3253 96.4757 62.6991C96.4757 63.0729 94.4583 63.5018 96.5228 63.3166C99.1776 63.0784 95.8799 63.8496 96.4757 64.0243C97.0849 64.203 99.3641 64.2282 98.1068 64.4661C96.8495 64.7039 97.733 64.7039 97.3932 64.9758C97.0534 65.2476 92.6699 67.2865 87.9126 67.4224M101.165 54.17C102.286 53.9321 103.646 54.102 102.762 54.4758C101.879 54.8496 103.48 54.6179 103.136 54.8496C102.225 55.4628 102.068 55.719 103.398 55.6205C103.838 55.5878 102.524 56.8884 103.612 56.9224C104.699 56.9564 101.879 59.1311 99.1262 60.1505C96.3738 61.17 93.7233 61.6457 91.2427 61.7136C88.7621 61.7816 86.1456 61.068 86.1456 61.068M103.951 46.7282C105.65 46.2525 105.616 46.5583 105.107 46.8981C104.597 47.2379 103.578 47.3399 104.257 47.5777C104.937 47.8156 105.888 47.136 105.888 47.5437C105.888 47.9515 104.325 47.9175 104.665 48.2573C105.005 48.5971 106.33 47.5437 106.092 48.0874C105.854 48.6311 104.155 48.5292 104.971 48.9369C105.786 49.3447 107.451 48.9709 106.908 49.4467C106.364 49.9224 104.631 52.403 101.437 53.8981C98.2427 55.3933 94.0291 56.0389 90.5971 56.0049C87.1651 55.9709 82.8155 54.5777 82.8155 54.5777M107.258 34.7181C92.0724 48.2698 72.1293 46.4437 72.1293 46.4437L74.5801 49.1348L78.9051 52.8832C78.9051 52.8832 81.1157 52.691 82.5574 51.6818C83.9991 50.6726 86.4018 48.5101 86.4018 48.5101C86.4018 48.5101 87.7955 50.7687 92.3608 50.3843C96.9261 49.9998 102.404 47.4529 104.375 46.2995C106.345 45.1462 109.757 40.3406 109.757 40.3406C109.757 40.3406 109.966 39.5923 109.422 39.7282C108.879 39.8641 107.621 40.4418 108.063 39.8641C108.505 39.2865 110.068 38.403 109.66 38.403C109.252 38.403 108.641 39.0826 108.369 38.7428C108.097 38.403 109.762 37.1117 108.913 37.3836C108.063 37.6554 108.471 37.2136 108.471 36.636C108.471 36.0583 107.859 36.534 107.723 36.2622C107.587 35.9903 108.165 35.1069 107.893 35.1748C107.621 35.2428 107.587 35.8204 107.248 35.7185C106.908 35.6166 108.811 32.8302 107.258 34.7181H107.258ZM90.1214 67.3204C91.9223 67.2525 91.6505 67.4903 91.3786 67.7622C91.1068 68.034 92.1602 67.3204 92.0922 67.9321C92.0243 68.5437 91.2087 68.6117 91.4806 68.8496C91.7524 69.0874 93.0728 68.4061 92.801 68.8479C92.5292 69.2896 91.9563 69.2234 92.2282 69.4612C92.5 69.6991 93.2816 69.6311 93.1796 69.9369C93.0777 70.2428 92.602 70.9224 93.1117 70.7865C93.6214 70.6505 93.3835 70.9903 92.9757 71.1603C92.568 71.3302 91.6845 71.67 90.1214 71.8399C88.5583 72.0098 87.0291 72.0437 87.0291 72.0437L85.9453 72.0815L84.0231 60.476L79.1214 53.4839L78.9292 52.8592" fill="white"/>
<path d="M94.0291 61.5437C96 61.4418 96.2039 61.4078 95.5922 61.8156C94.9806 62.2234 96.3738 61.5777 96 62.0874C95.6262 62.5971 96.4757 62.3253 96.4757 62.6991C96.4757 63.0729 94.4583 63.5018 96.5228 63.3166C99.1776 63.0784 95.8799 63.8496 96.4757 64.0243C97.0849 64.203 99.3641 64.2282 98.1068 64.4661C96.8495 64.7039 97.733 64.7039 97.3932 64.9758C97.0534 65.2476 92.6699 67.2865 87.9126 67.4224M101.165 54.17C102.286 53.9321 103.646 54.102 102.762 54.4758C101.879 54.8496 103.48 54.6179 103.136 54.8496C102.225 55.4628 102.068 55.719 103.398 55.6205C103.838 55.5878 102.524 56.8884 103.612 56.9224C104.699 56.9564 101.879 59.1311 99.1262 60.1505C96.3738 61.17 93.7233 61.6457 91.2427 61.7136C88.7621 61.7816 86.1456 61.068 86.1456 61.068M103.951 46.7282C105.65 46.2525 105.616 46.5583 105.107 46.8981C104.597 47.2379 103.578 47.3399 104.257 47.5777C104.937 47.8156 105.888 47.136 105.888 47.5437C105.888 47.9515 104.325 47.9175 104.665 48.2573C105.005 48.5971 106.33 47.5437 106.092 48.0874C105.854 48.6311 104.155 48.5292 104.971 48.9369C105.786 49.3447 107.451 48.9709 106.908 49.4467C106.364 49.9224 104.631 52.403 101.437 53.8981C98.2427 55.3933 94.0291 56.0389 90.5971 56.0049C87.1651 55.9709 82.8155 54.5777 82.8155 54.5777M90.1214 67.3204C91.9223 67.2525 91.6505 67.4903 91.3786 67.7622C91.1068 68.034 92.1602 67.3204 92.0922 67.9321C92.0243 68.5437 91.2087 68.6117 91.4806 68.8496C91.7524 69.0874 93.0728 68.4061 92.801 68.8479C92.5292 69.2896 91.9563 69.2234 92.2282 69.4612C92.5 69.6991 93.2816 69.6311 93.1796 69.9369C93.0777 70.2428 92.602 70.9224 93.1117 70.7865C93.6214 70.6505 93.3835 70.9903 92.9757 71.1603C92.568 71.3302 91.6845 71.67 90.1214 71.8399C88.5583 72.0098 87.0291 72.0437 87.0291 72.0437L85.9453 72.0815L84.0231 60.476L79.1214 53.4839L78.9292 52.8592M107.258 34.7181C92.0724 48.2698 72.1293 46.4437 72.1293 46.4437L74.5801 49.1348L78.9051 52.8832C78.9051 52.8832 81.1157 52.691 82.5574 51.6818C83.9991 50.6726 86.4018 48.5101 86.4018 48.5101C86.4018 48.5101 87.7955 50.7687 92.3608 50.3843C96.9261 49.9998 102.404 47.4529 104.375 46.2995C106.345 45.1462 109.757 40.3406 109.757 40.3406C109.757 40.3406 109.966 39.5923 109.422 39.7282C108.879 39.8641 107.621 40.4418 108.063 39.8641C108.505 39.2865 110.068 38.403 109.66 38.403C109.252 38.403 108.641 39.0826 108.369 38.7428C108.097 38.403 109.762 37.1117 108.913 37.3836C108.063 37.6554 108.471 37.2136 108.471 36.636C108.471 36.0583 107.859 36.534 107.723 36.2622C107.587 35.9903 108.165 35.1069 107.893 35.1748C107.621 35.2428 107.587 35.8204 107.248 35.7185C106.908 35.6166 108.811 32.8302 107.258 34.7181H107.258Z" stroke="black"/>
</g>
<path id="path4301" d="M27.8201 61.2941C25.8492 61.1921 25.6453 61.1581 26.257 61.5659C26.8686 61.9737 25.4754 61.328 25.8492 61.8377C26.223 62.3474 25.3735 62.0756 25.3735 62.4494C25.3735 62.8232 27.3909 63.2521 25.3264 63.0669C22.6716 62.8287 25.9693 63.5999 25.3735 63.7746C24.7643 63.9533 22.4851 63.9785 23.7424 64.2164C24.9997 64.4542 24.1162 64.4542 24.456 64.7261C24.7958 64.9979 29.1793 67.0368 33.9366 67.1727M20.6842 53.9203C19.5628 53.6824 18.2036 53.8523 19.0871 54.2261C19.9706 54.5999 18.3692 54.3682 18.7133 54.5999C19.6241 55.2131 19.7812 55.4693 18.4514 55.3708C18.0108 55.3381 19.3249 56.6387 18.2376 56.6727C17.1502 56.7067 19.9706 58.8814 22.723 59.9008C25.4754 60.9203 28.1259 61.396 30.6065 61.464C33.0871 61.5319 35.7036 60.8183 35.7036 60.8183M17.8977 46.4785C16.1987 46.0028 16.2327 46.3086 16.7424 46.6484C17.2521 46.9882 18.2715 47.0902 17.5919 47.328C16.9123 47.5659 15.9608 46.8863 15.9608 47.2941C15.9608 47.7018 17.524 47.6678 17.1842 48.0076C16.8443 48.3475 15.5191 47.2941 15.757 47.8377C15.9948 48.3814 17.6939 48.2795 16.8783 48.6873C16.0628 49.095 14.3977 48.7212 14.9414 49.197C15.4851 49.6727 17.2181 52.1533 20.4123 53.6484C23.6065 55.1436 27.8201 55.7892 31.2521 55.7552C34.6841 55.7212 39.0337 54.328 39.0337 54.328M31.7278 67.0708C29.9269 67.0028 30.1987 67.2407 30.4706 67.5125C30.7424 67.7843 29.689 67.0708 29.757 67.6824C29.8249 68.2941 30.6405 68.362 30.3686 68.5999C30.0968 68.8377 28.7764 68.1564 29.0482 68.5982C29.32 69.0399 29.8929 68.9737 29.621 69.2115C29.3492 69.4494 28.5676 69.3814 28.6696 69.6873C28.7715 69.9931 29.2473 70.6727 28.7375 70.5368C28.2278 70.4008 28.4657 70.7407 28.8735 70.9106C29.2812 71.0805 30.1647 71.4203 31.7278 71.5902C33.2909 71.7601 34.8201 71.794 34.8201 71.794L35.9039 71.8318L37.8261 60.2263L42.7278 53.2342L42.92 52.6095M14.5911 34.4684C29.7768 48.0201 51.498 46.146 51.498 46.146L51.2745 47.289L47.6055 49.4138L42.9441 52.6335C42.9441 52.6335 40.7335 52.4413 39.2918 51.4321C37.8501 50.4229 35.4474 48.2604 35.4474 48.2604C35.4474 48.2604 34.0537 50.519 29.4884 50.1346C24.9231 49.7501 19.4448 47.2032 17.4745 46.0499C15.5042 44.8965 12.0922 40.0909 12.0922 40.0909C12.0922 40.0909 11.8832 39.3426 12.4269 39.4785C12.9706 39.6144 14.2278 40.1921 13.7861 39.6144C13.3443 39.0368 11.7812 38.1533 12.189 38.1533C12.5968 38.1533 13.2084 38.8329 13.4803 38.4931C13.7521 38.1533 12.0871 36.862 12.9366 37.1339C13.7861 37.4057 13.3783 36.964 13.3783 36.3863C13.3783 35.8086 13.99 36.2843 14.1259 36.0125C14.2618 35.7407 13.6842 34.8572 13.956 34.9251C14.2278 34.9931 14.2618 35.5707 14.6016 35.4688C14.9414 35.3669 13.0385 32.5805 14.5911 34.4684H14.5911Z" stroke="black"/>
<path id="path3431" d="M61.2446 94.824C74.8204 94.824 85.8258 83.8186 85.8258 70.2428C85.8258 56.6669 74.8204 45.6615 61.2446 45.6615C47.6687 45.6615 36.6633 56.6669 36.6633 70.2428C36.6633 83.8186 47.6687 94.824 61.2446 94.824Z" stroke="#E70013" stroke-width="8.2146" stroke-linecap="round"/>
<path id="path4280" d="M52.6409 34.4952C52.1393 35.9101 52.98 37.3802 54.17 38.1364C55.1381 38.6916 55.9548 40.0073 54.5867 40.6713C53.287 41.6091 52.8737 43.2071 52.2331 44.5874C51.8694 45.9688 52.9065 47.3151 53.9223 48.134C54.5052 47.3006 53.4507 45.5144 54.462 44.5301C54.771 43.6133 55.8039 43.3646 55.8172 44.5742C56.1969 45.3523 55.7169 47.1758 56.5971 47.3052C56.548 46.1598 56.1098 43.7496 58.0696 44.5419C58.6825 44.9199 58.8269 47.3993 59.2565 45.6822C59.4908 45.1611 59.6945 42.8895 60.3635 44.0491C60.3399 45.295 60.2265 46.5908 60.7171 47.7784C61.1703 49.4744 61.389 46.7722 61.3484 46.1293C61.403 45.6639 62.3672 43.8961 63.1972 43.6806C64.1404 43.4357 64.9944 44.7613 65.6506 44.4951C65.8397 44.4184 66.3655 42.7959 66.5512 42.8099C68.0707 42.4491 66.6272 43.8997 66.6171 45.2362C66.9037 46.5076 66.3163 48.6773 66.2326 49.9983C66.8643 51.535 67.2215 47.635 67.2982 47.1388C68.187 45.3883 68.0088 44.0694 69.6067 42.9877C70.8659 41.994 71.91 43.4623 72.5843 44.34C73.7261 44.4117 73.4481 42.3752 73.3803 41.5309C72.791 40.3165 71.2843 39.4104 71.6078 37.8405C71.6097 33.6587 70.2964 29.1388 66.8538 26.4976C64.7916 24.9175 62.3839 23.6065 59.7768 23.2816C57.4592 23.2444 54.9338 23.2302 52.9727 24.6568C52.2814 25.1194 51.3931 25.5028 51.3284 26.433C50.7238 28.5087 50.1192 30.5845 49.5146 32.6603C49.7078 33.0183 49.5565 33.7147 50.0679 33.7601C50.9256 34.0051 51.7832 34.2502 52.6409 34.4952V34.4952Z" fill="white" stroke="black"/>
<path id="path4283" d="M73.3787 42.1668C74.2437 45.3865 75.7815 48.2698 75.5412 48.6062C75.301 48.9426 72.8982 46.4918 71.9851 46.0593C71.0721 45.6268 70.5915 45.3384 69.7746 45.6268C68.9576 45.9151 68.1887 46.4918 67.8043 47.3087C67.4198 48.1257 66.9393 47.2607 67.3237 46.7321C67.7082 46.2034 67.6601 44.8098 68.2368 44.2332C68.8134 43.6565 68.6693 43.1279 69.8707 42.9837C71.0721 42.8395 71.2162 42.4551 71.7929 43.1279C72.3696 43.8007 72.5137 44.9059 72.8982 44.089C73.2826 43.272 73.3787 42.1187 73.3787 42.1668V42.1668Z" fill="black" stroke="black" stroke-width="0.82146"/>
<path id="path4285" d="M66.2245 48.3876C64.8667 46.0392 62.8301 43.7908 63.9615 44.0906C65.093 44.3904 65.621 44.3904 65.9982 43.6409C66.3753 42.8914 67.0542 41.7422 67.2805 42.4417C67.5068 43.1413 66.8279 43.1912 66.7525 44.3404C66.6771 45.4896 66.3753 48.4376 66.2245 48.3876V48.3876Z" fill="black" stroke="black" stroke-width="1.04942"/>
<path id="path4221" d="M56.5145 26.5607C55.3692 26.4895 53.7634 27.8307 54.7585 29.1237C55.9822 29.7033 58.9555 30.8966 60.2279 30.5395C61.1871 30.2703 61.2278 29.6621 61.1833 29.1532C61.1113 28.4598 61.0319 27.8071 60.373 27.5126C59.1309 26.8637 59.2142 27.912 57.2436 28.0582C56.8549 28.0663 56.2477 28.0092 55.8692 27.8647C55.5374 27.6228 55.9401 27.0772 56.339 26.9788C57.0453 26.8045 57.4818 27.2788 57.466 26.7986L56.5145 26.5607Z" fill="black" stroke="black" stroke-width="0.82146"/>
<path id="path4225" fill-rule="evenodd" clip-rule="evenodd" d="M60.8981 29.0073C60.8981 29.7674 60.282 30.3836 59.5219 30.3836C58.7618 30.3836 58.1919 29.8011 58.4175 29.0753C58.5978 28.4955 59.1752 28.2144 59.7088 27.9879C60.4085 27.691 60.8981 28.2473 60.8981 29.0073V29.0073Z" fill="white"/>
<path id="path3444" d="M51.2476 29.0923C51.8423 29.585 52.1991 30.1117 51.8423 30.1967C51.4855 30.2816 51.1457 30.5025 50.9588 30.1287C50.7719 29.7549 51.2476 29.1093 51.2476 29.0923V29.0923Z" stroke="black" stroke-width="0.82146"/>
<path id="path4223" d="M59.5218 29.602C59.8502 29.602 60.1164 29.3358 60.1164 29.0073C60.1164 28.6789 59.8502 28.4127 59.5218 28.4127C59.1934 28.4127 58.9271 28.6789 58.9271 29.0073C58.9271 29.3358 59.1934 29.602 59.5218 29.602Z" fill="black"/>
<path id="path4274" d="M58.5874 30.3836C58.6894 31.2501 58.5364 31.301 58.4345 31.301C58.3326 31.301 58.1966 31.352 58.1626 31.2331C58.1287 31.1141 58.2476 30.9442 58.1287 30.5365C58.0097 30.1287 58.5534 30.4006 58.5874 30.3836V30.3836Z" fill="#1A1A1A"/>
<path id="path4276" d="M57.6019 30.1627C57.7039 31.0292 57.551 31.0802 57.449 31.0802C57.3471 31.0802 57.2112 31.1311 57.1772 31.0122C57.1432 30.8933 57.2621 30.7234 57.1432 30.3156C57.0243 29.9078 57.568 30.1797 57.6019 30.1627V30.1627Z" fill="#1A1A1A"/>
<path id="path4278" d="M56.4806 29.7549C56.5825 30.6214 56.4296 30.6724 56.3277 30.6724C56.2257 30.6724 56.0898 30.7234 56.0558 30.6044C56.0219 30.4855 56.1408 30.3156 56.0219 29.9078C55.9029 29.5001 56.4466 29.7719 56.4806 29.7549Z" fill="#1A1A1A"/>
<g id="path3446">
<path fill-rule="evenodd" clip-rule="evenodd" d="M58.5364 33.5098C55.9199 33.068 50.8398 32.8302 49.4976 33.5268C49.2342 33.4418 49.7694 33.136 50.432 32.9661C51.0947 32.7962 57.4236 32.1506 57.9333 32.3375M51.5874 25.6942C53.8641 27.5632 53.3544 28.7185 53.8981 29.4321C54.4418 30.1457 55.801 31.369 56.6165 31.8787C57.432 32.3884 58.6214 32.3205 59.0291 32.7622C59.4369 33.204 59.6748 33.8836 59.6748 33.8836C59.6748 33.8836 58.1456 33.204 57.602 33.5438C57.0583 33.8836 57.1602 34.869 57.0243 35.0389C56.8884 35.2088 56.3107 35.5146 55.9709 35.4807C55.6311 35.4467 54.6456 34.7671 54.1699 34.7671C53.6942 34.7671 51.0437 34.1214 50.568 33.9515C50.0922 33.7816 49.2087 33.3399 48.8689 33.6797C48.5291 34.0195 48.0534 34.2574 47.9175 34.7331C47.7816 35.2088 48.0534 36.3981 47.8835 36.4661C47.7136 36.534 46.3544 35.1408 46.5583 33.2379C46.7621 31.335 49.5486 27.2574 51.5874 25.6942V25.6942Z" fill="black"/>
<path d="M58.5364 33.5098C55.9199 33.068 50.8398 32.8302 49.4976 33.5268C49.2342 33.4418 49.7694 33.136 50.432 32.9661C51.0947 32.7962 57.4236 32.1506 57.9333 32.3375M51.5874 25.6942C53.8641 27.5632 53.3544 28.7185 53.8981 29.4321C54.4418 30.1457 55.801 31.369 56.6165 31.8787C57.432 32.3884 58.6214 32.3205 59.0291 32.7622C59.4369 33.204 59.6748 33.8836 59.6748 33.8836C59.6748 33.8836 58.1456 33.204 57.602 33.5438C57.0583 33.8836 57.1602 34.869 57.0243 35.0389C56.8884 35.2088 56.3107 35.5146 55.9709 35.4807C55.6311 35.4467 54.6456 34.7671 54.1699 34.7671C53.6942 34.7671 51.0437 34.1214 50.568 33.9515C50.0922 33.7816 49.2087 33.3399 48.8689 33.6797C48.5291 34.0195 48.0534 34.2574 47.9175 34.7331C47.7816 35.2088 48.0534 36.3981 47.8835 36.4661C47.7136 36.534 46.3544 35.1408 46.5583 33.2379C46.7621 31.335 49.5486 27.2574 51.5874 25.6942V25.6942Z" stroke="black" stroke-width="0.82146"/>
</g>
<g id="text4321">
<path id="path4399" d="M12.964 64.178L10.1065 64.528L9.93933 63.1629L16.5735 62.3504L17.1442 67.0098L16.0066 67.1491L15.6032 63.8548L14.1016 64.0387L14.4571 66.9417L13.3196 67.081L12.964 64.178" fill="black"/>
<path id="path4401" d="M18.4672 69.5361L18.6423 70.4357L17.2332 69.4788L17.1402 69.0011L18.4672 69.5361M13.4627 68.9979L11.4724 69.3853L12.1386 72.8086L11.4858 72.9356L10.6755 68.7719L16.4792 67.6425L17.2616 71.6629L16.6088 71.7899L15.9705 68.5099L14.1156 68.8709L14.7306 72.0315L14.0778 72.1585L13.4627 68.9979" fill="black"/>
<path id="path4403" d="M11.7512 74.075L17.4443 72.479L18.0595 74.6734C18.2624 75.3971 18.169 76.0354 17.7793 76.5882C17.3896 77.1411 16.7522 77.5416 15.8671 77.7898C14.982 78.0379 14.226 78.0252 13.599 77.7517C12.9787 77.482 12.5678 76.9879 12.3664 76.2695L11.7512 74.075M12.5952 74.6217L12.9718 75.965C13.1294 76.5272 13.4365 76.9016 13.8931 77.0881C14.3497 77.2746 14.9372 77.2671 15.6557 77.0657C16.3794 76.8628 16.8878 76.563 17.1809 76.1664C17.474 75.7697 17.5417 75.2903 17.3841 74.728L17.0075 73.3848L12.5952 74.6217" fill="black"/>
<path id="path4405" d="M21.21 79.1264L21.5366 79.9827L19.9844 79.2813L19.811 78.8266L21.21 79.1264ZM16.1873 79.4535L14.2928 80.1761L15.5356 83.4347L14.9142 83.6717L13.4026 79.7083L18.927 77.6013L20.3866 81.4282L19.7652 81.6652L18.5744 78.5431L16.8087 79.2165L17.9561 82.225L17.3347 82.462L16.1873 79.4535" fill="black"/>
<path id="path4407" d="M19.6198 86.6742C19.6298 86.8628 19.6143 87.0309 19.5735 87.1785C19.535 87.3309 19.4687 87.458 19.3746 87.5597C19.2829 87.6662 19.1899 87.7522 19.0957 87.8177C19.0015 87.8831 18.8843 87.951 18.7442 88.0214C18.7007 88.0432 18.6367 88.0723 18.5521 88.1087C18.47 88.15 18.4096 88.1803 18.3709 88.1997C18.1728 88.2992 18.017 88.4046 17.9035 88.516C17.7901 88.6274 17.7214 88.7678 17.6975 88.9371L17.5308 89.0208L17.1195 88.2017C17.2933 87.9935 17.5566 87.8008 17.9093 87.6237L18.3805 87.3872C18.7042 87.2246 18.9058 87.0357 18.9853 86.8204C19.0695 86.6026 19.0365 86.3439 18.8861 86.0443L18.0127 84.3047L15.7367 85.4474L15.3983 84.7733L20.6824 82.1205L21.9051 84.5559C22.1646 85.0729 22.2403 85.5311 22.1322 85.9302C22.0313 86.3318 21.7537 86.6466 21.2995 86.8746C20.9999 87.025 20.7183 87.0847 20.4546 87.0537C20.191 87.0227 19.9127 86.8962 19.6198 86.6742M20.8523 86.2188C21.2002 86.0442 21.3933 85.8323 21.4316 85.5832C21.4699 85.334 21.4077 85.0476 21.2452 84.7238L20.4264 83.0929L18.6071 84.0063L19.4259 85.6372C19.6054 85.9948 19.8089 86.2193 20.0363 86.3109C20.2662 86.4072 20.5382 86.3765 20.8523 86.2188Z" fill="black"/>
<path id="path4409" d="M21.2434 91.5331L20.0082 89.6178L18.177 90.0556L17.7418 89.3808L23.8536 87.9486L24.3811 88.7665L20.5374 93.7158L20.0803 93.007L21.2434 91.5331M21.6607 91.013L23.4314 88.7903L20.6409 89.4317L21.6607 91.013Z" fill="black"/>
<path id="path4411" d="M26.3206 92.4915L22.2385 95.789L21.7645 95.2022L25.8466 91.9047L24.6234 90.3905L25.1408 89.9726L28.056 93.5815L27.5386 93.9994L26.3206 92.4915Z" fill="black"/>
<path id="path4413" d="M28.9635 94.4514L24.674 98.5207L24.1493 97.9675L28.4388 93.8983L28.9635 94.4514Z" fill="black"/>
<path id="path4415" d="M31.4945 100.868C30.9202 101.53 30.2474 101.909 29.4762 102.005C28.7049 102.102 27.9927 101.866 27.3394 101.299C26.6943 100.739 26.3599 100.073 26.3361 99.3003C26.3158 98.5237 26.6088 97.7863 27.2149 97.0881C27.8211 96.39 28.5083 95.9985 29.2766 95.9136C30.0484 95.8247 30.7548 96.0585 31.3958 96.6151C32.049 97.1823 32.3837 97.8524 32.3999 98.6255C32.4202 99.4022 32.1184 100.15 31.4945 100.868M30.9598 97.1173C30.4862 96.7061 29.9573 96.544 29.3732 96.6312C28.7926 96.7143 28.2631 97.0315 27.7845 97.5826C27.3059 98.1338 27.0645 98.7047 27.0601 99.2952C27.0634 99.8853 27.3018 100.386 27.7754 100.797C28.249 101.208 28.7761 101.372 29.3567 101.289C29.9413 101.21 30.4676 100.9 30.9356 100.362C31.4248 99.7981 31.6715 99.2211 31.6759 98.6306C31.6802 98.04 31.4415 97.5356 30.9598 97.1173" fill="black"/>
<path id="path4417" d="M37.4686 101.115L34.242 106.07L33.5283 105.605L33.5819 99.92L30.9661 103.937L30.368 103.547L33.5947 98.5926L34.2811 99.0396L34.2326 104.777L36.8705 100.726L37.4686 101.115" fill="black"/>
<path id="path4419" d="M42.1874 103.747L40.0141 108.841L38.7491 108.301L40.9225 103.207L39.0588 102.412L39.5086 101.358L44.4334 103.459L43.9836 104.514L42.1874 103.747Z" fill="black"/>
<path id="path4421" d="M47.8984 105.258L48.6217 105.472L47.444 109.454C47.2753 110.024 46.9415 110.419 46.4426 110.638C45.9488 110.858 45.3701 110.871 44.7065 110.674C44.0324 110.475 43.55 110.152 43.2593 109.705C42.9753 109.254 42.9184 108.741 43.0886 108.166L44.2663 104.184L44.9896 104.398L43.8119 108.38C43.6908 108.789 43.7291 109.136 43.9271 109.42C44.1317 109.701 44.4544 109.906 44.8951 110.037C45.3514 110.171 45.7413 110.168 46.065 110.027C46.3886 109.886 46.6072 109.624 46.7207 109.24L47.8984 105.258" fill="black"/>
<path id="path4423" d="M53.7647 106.429L52.7118 112.247L51.8738 112.096L49.7186 106.834L48.865 111.551L48.1627 111.424L49.2156 105.606L50.0217 105.752L52.2016 111.059L53.0624 106.302L53.7647 106.429Z" fill="black"/>
<path id="path4425" d="M55.5454 106.589L54.8986 112.466L54.1407 112.382L54.7876 106.505L55.5454 106.589Z" fill="black"/>
<path id="path4427" d="M58.362 112.244C58.6645 112.258 58.9227 112.236 59.1368 112.176C59.3509 112.116 59.5093 112.032 59.6121 111.923C59.7202 111.815 59.7959 111.708 59.839 111.602C59.8877 111.49 59.9152 111.372 59.9213 111.248C59.9433 110.8 59.5971 110.464 58.8827 110.239L57.4356 109.778C56.6731 109.541 56.3095 109.063 56.3448 108.344C56.371 107.81 56.578 107.398 56.9658 107.108C57.3592 106.813 57.8799 106.682 58.528 106.714C59.2084 106.747 59.7297 106.935 60.0919 107.278C60.4543 107.615 60.624 108.073 60.601 108.651L59.8881 108.616C59.9015 108.232 59.7864 107.931 59.5426 107.714C59.2992 107.491 58.9425 107.367 58.4727 107.344C58.073 107.325 57.7472 107.401 57.4951 107.572C57.2485 107.744 57.1179 107.979 57.1033 108.276C57.0922 108.503 57.1563 108.685 57.2958 108.821C57.4352 108.958 57.6808 109.084 58.0324 109.199L59.4954 109.668C59.8897 109.796 60.1885 109.995 60.3918 110.264C60.6005 110.535 60.696 110.851 60.6782 111.212C60.6705 111.369 60.6412 111.525 60.5904 111.679C60.5451 111.828 60.4644 111.984 60.3482 112.146C60.2322 112.303 60.0875 112.439 59.914 112.555C59.7404 112.671 59.5113 112.763 59.2265 112.83C58.9471 112.898 58.6319 112.923 58.2808 112.905C58.0594 112.895 57.847 112.865 57.6437 112.817C57.4454 112.775 57.2432 112.703 57.0371 112.601C56.8313 112.493 56.6563 112.363 56.5123 112.21C56.3685 112.051 56.2514 111.845 56.161 111.591C56.076 111.338 56.0387 111.05 56.0492 110.725L56.7621 110.76L56.7601 110.801C56.7519 110.968 56.7685 111.126 56.8099 111.274C56.8568 111.423 56.9335 111.57 57.04 111.716C57.1519 111.862 57.3191 111.984 57.5417 112.082C57.77 112.174 58.0434 112.228 58.362 112.244" fill="black"/>
<path id="path4429" d="M62.4943 106.878L62.5546 112.79L61.7922 112.798L61.7319 106.885L62.4943 106.878Z" fill="black"/>
<path id="path4431" d="M64.5011 110.037L64.6615 112.059L68.1381 111.783L68.1907 112.446L63.9622 112.781L63.4945 106.887L67.5775 106.563L67.6301 107.226L64.299 107.49L64.4485 109.374L67.6583 109.12L67.7109 109.783L64.5011 110.037" fill="black"/>
<path id="path4433" d="M72.7113 105.652L73.7931 111.465L72.9559 111.621L69.0728 107.468L69.9498 112.18L69.2481 112.311L68.1664 106.498L68.9717 106.348L72.8941 110.535L72.0097 105.783L72.7113 105.652" fill="black"/>
<path id="path4435" d="M77.6933 104.167L79.4216 109.821L78.6072 110.07L74.2819 106.38L75.683 110.964L75.0005 111.172L73.2722 105.518L74.0556 105.279L78.4237 108.998L77.0108 104.375L77.6933 104.167" fill="black"/>
<path id="path4437" d="M80.3113 106.567L81.1162 108.428L84.3172 107.043L84.5812 107.654L80.688 109.338L78.3407 103.911L82.0999 102.285L82.364 102.896L79.297 104.222L80.0473 105.957L83.0025 104.678L83.2666 105.289L80.3113 106.567" fill="black"/>
<path id="path4439" d="M87.6036 106.047L84.4186 101.065L86.3387 99.8377C86.9719 99.4328 87.6097 99.3363 88.2521 99.548C88.8945 99.7598 89.4633 100.253 89.9585 101.027C90.4536 101.802 90.6617 102.529 90.5827 103.208C90.5054 103.88 90.1524 104.417 89.5237 104.819L87.6036 106.047ZM87.8808 105.08L89.0561 104.329C89.5481 104.014 89.8168 103.611 89.8622 103.12C89.9076 102.629 89.7293 102.069 89.3274 101.441C88.9225 100.807 88.4877 100.408 88.0228 100.243C87.558 100.078 87.0796 100.153 86.5876 100.468L85.4123 101.219L87.8808 105.08" fill="black"/>
<path id="path4441" d="M91.3744 100.241L92.6587 101.81L95.3574 99.6009L95.7786 100.116L92.4964 102.802L88.7511 98.2274L91.9204 95.6329L92.3417 96.1475L89.756 98.2642L90.9531 99.7265L93.4446 97.6869L93.8659 98.2015L91.3744 100.241" fill="black"/>
<path id="path4443" d="M96.9531 94.8265L99.113 96.7299L98.2038 97.7617L93.1892 93.3427L96.2928 89.8208L97.1526 90.5785L94.9583 93.0686L96.0933 94.0688L98.0269 91.8745L98.8868 92.6322L96.9531 94.8265" fill="black"/>
<path id="path4445" d="M102.506 87.487C103.23 87.9804 103.685 88.6045 103.87 89.3593C104.056 90.1141 103.905 90.8489 103.418 91.5637C102.937 92.2696 102.314 92.6792 101.549 92.7927C100.78 92.9032 100.014 92.698 99.2497 92.1772C98.4858 91.6563 98.017 91.0193 97.8434 90.2661C97.6653 89.5099 97.8153 88.7811 98.2935 88.0797C98.7809 87.3649 99.4076 86.9545 100.174 86.8485C100.943 86.7381 101.72 86.9509 102.506 87.487M98.843 88.4544C98.4897 88.9726 98.3903 89.5167 98.5448 90.0867C98.6949 90.6537 99.0715 91.1427 99.6746 91.554C100.278 91.9652 100.873 92.1386 101.46 92.0742C102.045 92.0023 102.515 91.7073 102.868 91.189C103.222 90.6708 103.323 90.1282 103.173 89.5613C103.026 88.9899 102.658 88.5031 102.068 88.101C101.452 87.6807 100.85 87.5027 100.263 87.5671C99.6757 87.6315 99.2025 87.9272 98.843 88.4544" fill="black"/>
<path id="path4447" d="M105.22 82.1881C105.999 82.5872 106.529 83.1495 106.807 83.8751C107.086 84.6008 107.028 85.3487 106.634 86.1188C106.245 86.8793 105.678 87.3637 104.934 87.572C104.184 87.7778 103.398 87.6701 102.575 87.2489C101.752 86.8277 101.207 86.2543 100.941 85.5288C100.67 84.8008 100.727 84.059 101.114 83.3033C101.508 82.5331 102.078 82.0476 102.825 81.8466C103.574 81.6408 104.372 81.7546 105.22 82.1881M101.706 83.6062C101.42 84.1646 101.39 84.7169 101.614 85.2631C101.834 85.8068 102.269 86.2449 102.919 86.5774C103.569 86.91 104.181 87.0076 104.755 86.8703C105.327 86.7257 105.756 86.3742 106.042 85.8159C106.327 85.2575 106.36 84.7065 106.141 84.1627C105.923 83.6142 105.497 83.1774 104.862 82.8522C104.197 82.5123 103.578 82.411 103.004 82.5483C102.429 82.6856 101.997 83.0383 101.706 83.6062" fill="black"/>
<path id="path4449" d="M103.851 78.9476L108.753 80.8197L108.484 81.5244L103.582 79.6523L102.887 81.4707L102.266 81.2335L103.921 76.8995L104.542 77.1368L103.851 78.9476Z" fill="black"/>
<path id="path4451" d="M109.216 73.5477C109.706 73.6826 110.057 73.9447 110.27 74.3341C110.482 74.7235 110.519 75.171 110.38 75.6767L109.671 78.2493L103.971 76.68L104.608 74.3653C104.696 74.0474 104.819 73.784 104.977 73.5752C105.135 73.3665 105.309 73.2263 105.497 73.1546C105.681 73.0764 105.858 73.0327 106.029 73.0236C106.194 73.0131 106.358 73.0301 106.52 73.0746C107.104 73.2353 107.445 73.6127 107.546 74.2066C107.787 73.8805 108.039 73.6667 108.303 73.5654C108.567 73.4589 108.872 73.453 109.216 73.5477M107.014 75.2212C107.223 74.4601 107.026 73.9963 106.421 73.8298C105.816 73.6633 105.409 73.9606 105.2 74.7217L104.812 76.1292L106.626 76.6287L107.014 75.2212ZM109.719 75.5705C109.789 75.3151 109.792 75.0915 109.727 74.8997C109.657 74.7066 109.561 74.5653 109.44 74.4758C109.319 74.3864 109.18 74.3201 109.024 74.2771C108.726 74.1953 108.465 74.2186 108.239 74.347C108.008 74.474 107.847 74.7017 107.756 75.0302L107.268 76.8052L109.23 77.3456L109.719 75.5705" fill="black"/>
<path id="path4453" d="M109.792 69.7766L109.399 72.0216L111.041 72.9427L110.903 73.7336L105.442 70.6381L105.609 69.6794L111.791 68.6524L111.646 69.4833L109.792 69.7766M109.132 69.8754L106.323 70.3064L108.808 71.7289L109.132 69.8754Z" fill="black"/>
<path id="path4455" d="M106.025 66.6068L111.252 67.0705L111.51 64.1622L112.173 64.2209L111.848 67.8806L105.958 67.3581L106.025 66.6068" fill="black"/>
<path id="path4457" d="M106.298 62.5306L111.545 62.6144L111.592 59.695L112.257 59.7056L112.198 63.3792L106.286 63.2848L106.298 62.5306" fill="black"/>
</g>
<g id="text4459">
<path id="path4480" d="M87.1552 20.4161L88.5247 19.9956C88.625 19.9637 88.6789 20.0161 88.6864 20.1528C88.6974 20.2918 88.6721 20.4809 88.6106 20.7203C88.5547 20.9583 88.4672 21.2343 88.348 21.5482C88.2345 21.8608 88.0995 22.1772 87.943 22.4976C87.7886 22.8143 87.6212 23.1201 87.4409 23.415C87.2606 23.7099 87.0774 23.9599 86.8914 24.1649C86.7053 24.37 86.5222 24.516 86.3419 24.603C86.1616 24.69 85.9943 24.6838 85.84 24.5846L83.0094 22.7648L84.261 20.6022L86.8516 22.2753L87.1552 20.4161M89.9129 18.4077C89.9309 18.4598 89.9277 18.511 89.9034 18.5613C89.8791 18.6117 89.8411 18.6481 89.7896 18.6708L88.8485 19.0244C88.7969 19.0471 88.7455 19.0445 88.6943 19.0166C88.6465 18.991 88.6137 18.9521 88.5957 18.9L88.2581 17.8992L88.2478 17.8546L87.4806 18.145C87.4255 18.1654 87.3741 18.1627 87.3263 18.1371C87.2786 18.1115 87.244 18.0715 87.2225 18.0171L86.8902 17.0198C86.8722 16.9677 86.8736 16.9153 86.8944 16.8627C86.9187 16.8124 86.9585 16.7771 87.0136 16.7567L87.9546 16.403C88.0097 16.3827 88.0611 16.3853 88.1088 16.4109C88.1566 16.4365 88.1912 16.4765 88.2126 16.5309L88.545 17.5282C88.5499 17.5365 88.5515 17.5502 88.55 17.5695L89.3225 17.2825C89.3741 17.2599 89.4238 17.2613 89.4715 17.287C89.5228 17.3148 89.5574 17.3548 89.5753 17.407L89.9129 18.4077" fill="black"/>
<path id="path4482" d="M80.5374 21.4425L81.6606 19.2029L84.3983 20.7356L83.2725 22.9664L80.5374 21.4425Z" fill="black"/>
<path id="path4484" d="M78.0868 20.2489L79.1032 17.9533L81.9097 19.341L80.8903 21.6279L78.0868 20.2489" fill="black"/>
<path id="path4486" d="M75.5785 19.1914L76.48 16.8431L79.3513 18.0745L78.4464 20.4144L75.5785 19.1914" fill="black"/>
<path id="path4488" d="M73.0175 18.2796L73.796 15.8829L76.7268 16.9475L75.9444 19.3358L73.0175 18.2796" fill="black"/>
<path id="path4490" d="M71.2969 17.7836L70.5434 17.5859C70.1996 17.5359 69.9344 17.4038 69.7478 17.1898C69.5623 16.9715 69.4579 16.7054 69.4347 16.3914C69.4115 16.0774 69.4704 15.7292 69.6115 15.3467C69.7527 14.9643 69.978 14.5838 70.2875 14.2054C70.7891 13.5873 71.2317 13.1657 71.6151 12.9405C71.9995 12.7112 72.3134 12.6641 72.5566 12.7993C72.7999 12.9345 72.9706 13.2426 73.0687 13.7235C73.1708 14.2055 73.1884 14.8482 73.1214 15.6517L73.8271 15.8368L73.2465 18.2951L72.4452 18.0848C71.9575 18.7334 71.4742 19.2112 70.9952 19.5184C70.5192 19.8309 70.0545 19.97 69.601 19.9358C69.1516 19.9027 68.7189 19.691 68.303 19.3008C67.8901 18.9158 67.5029 18.3501 67.1415 17.6038L67.2339 17.3469C67.4932 17.6113 67.7889 17.8383 68.1209 18.0281C68.4569 18.2188 68.8058 18.3461 69.1676 18.4098C69.5324 18.4787 69.8971 18.4673 70.2617 18.3755C70.6303 18.2848 70.9754 18.0875 71.2969 17.7836M72.0778 15.311C72.0905 15.0778 72.0744 14.8862 72.0294 14.736C71.9854 14.5817 71.9235 14.4673 71.8437 14.3928C71.7649 14.3141 71.6717 14.2696 71.5641 14.2592C71.4614 14.2456 71.3558 14.2625 71.2472 14.3099C71.1396 14.3531 71.0341 14.4236 70.9306 14.5214C70.831 14.6202 70.7459 14.7385 70.6753 14.8761C70.7232 14.9601 70.7691 15.0257 70.813 15.0729C70.8619 15.1169 70.9087 15.1516 70.9536 15.1767C70.9985 15.2019 71.0428 15.2202 71.0867 15.2317C71.1315 15.239 71.1759 15.2484 71.2198 15.2599C71.3035 15.2819 71.3967 15.3086 71.4993 15.34C71.602 15.3714 71.6957 15.3959 71.7804 15.4137C71.8701 15.4283 71.9434 15.4319 72.0001 15.4245C72.0579 15.4129 72.0838 15.375 72.0778 15.311" fill="black"/>
<path id="path4492" d="M66.3984 12.3825L67.493 11.4185C67.5728 11.3469 67.6421 11.3721 67.7009 11.4942C67.7639 11.6168 67.8127 11.8008 67.8474 12.0461C67.8867 12.2878 67.9115 12.5776 67.9218 12.9156C67.9367 13.2498 67.9334 13.5968 67.9118 13.9564C67.8908 14.3118 67.8538 14.6626 67.8008 15.009C67.7478 15.3554 67.6751 15.6618 67.5827 15.9283C67.4902 16.1947 67.378 16.4059 67.2459 16.5617C67.1138 16.7176 66.9582 16.7827 66.7791 16.757L63.4938 16.286L63.8178 13.7759L66.8275 14.2139L66.3984 12.3825M67.4906 9.65474C67.5268 9.69491 67.5431 9.74532 67.5394 9.80597C67.5404 9.86293 67.5198 9.91022 67.4776 9.94787L66.7492 10.676C66.7111 10.7142 66.6633 10.7314 66.6057 10.7275C66.5523 10.7242 66.5074 10.7025 66.4711 10.6623L65.7864 9.8955C65.7466 9.85047 65.7283 9.79976 65.7314 9.74339C65.7345 9.68704 65.7551 9.63974 65.7933 9.60149L66.5277 8.87427C66.5658 8.83604 66.6116 8.81857 66.6651 8.82186C66.7186 8.82517 66.7655 8.84719 66.8059 8.88793L67.4906 9.65474" fill="black"/>
<path id="path4494" d="M60.7064 16.1881L60.8362 13.6585L63.9313 13.8414L63.7957 16.3641L60.7064 16.1881Z" fill="black"/>
<path id="path4496" d="M57.9974 16.2255L57.9778 13.6924L61.0776 13.6723L61.091 16.199L57.9974 16.2255" fill="black"/>
<path id="path4498" d="M55.296 16.4396L55.1278 13.9126L58.2205 13.6905L58.3821 16.2115L55.296 16.4396" fill="black"/>
<path id="path4500" d="M52.6126 16.827L52.2985 14.3155L55.3726 13.8949L55.6798 16.4008L52.6126 16.827Z" fill="black"/>
<path id="path4502" d="M49.9568 17.3822L49.501 14.895L52.5458 14.2816L52.9944 16.7638L49.9568 17.3822" fill="black"/>
<path id="path4504" d="M47.3375 18.0982L46.7456 15.643L49.7516 14.8447L50.336 17.2952L47.3375 18.0982" fill="black"/>
<path id="path4506" d="M44.1183 19.1464C44.0471 19.1692 43.9678 19.1885 43.8804 19.2044C43.7914 19.2164 43.6994 19.2155 43.6045 19.2019C43.5133 19.1866 43.4213 19.1528 43.3285 19.1004C43.2357 19.0481 43.1464 18.966 43.0607 18.854L43.1497 19.5841L41.0709 20.5233C41.1276 21.0254 41.1034 21.4933 40.9982 21.9272C40.8947 22.365 40.7332 22.7537 40.5136 23.0932C40.2941 23.4326 40.0298 23.717 39.7207 23.9461C39.4153 24.1736 39.0901 24.33 38.7448 24.4153C38.4033 24.499 38.0551 24.5055 37.7001 24.4351C37.3505 24.3669 37.0201 24.2029 36.7088 23.9431C36.3991 23.6872 36.1199 23.3304 35.8711 22.8728C35.6261 22.4134 35.4419 21.8394 35.3183 21.1508C35.3015 21.0547 35.2896 20.9376 35.2826 20.7994C35.2756 20.6612 35.2737 20.5302 35.2769 20.4062C35.2839 20.2806 35.2952 20.1765 35.3109 20.0941C35.3287 20.0059 35.3529 19.9667 35.3837 19.9764C35.4527 19.9923 35.5016 20.0079 35.5302 20.0233C35.5625 20.0369 35.5865 20.0849 35.6022 20.1674C35.681 20.6689 35.8124 21.0854 35.9964 21.4168C36.1842 21.7466 36.4019 22.0016 36.6495 22.1818C36.8955 22.3581 37.1602 22.4646 37.4434 22.5016C37.7266 22.5385 38.0031 22.5149 38.2728 22.4307C38.5463 22.3448 38.8042 22.2095 39.0464 22.0246C39.287 21.8358 39.4798 21.5956 39.6249 21.3039C39.7905 20.9746 39.9011 20.6915 39.9566 20.4544C40.0122 20.2173 40.0237 20.0094 39.9914 19.8309C39.9628 19.6506 39.895 19.4951 39.7882 19.3644C39.6835 19.2279 39.5527 19.0986 39.3957 18.9763C39.2409 18.8484 39.0677 18.7194 38.8761 18.5892C38.683 18.455 38.4844 18.3021 38.2805 18.1304C38.2724 18.0775 38.2641 17.9965 38.2554 17.8873C38.2489 17.7725 38.2457 17.6491 38.2457 17.5172C38.244 17.3813 38.2489 17.2448 38.2602 17.1078C38.2715 16.9707 38.2893 16.8496 38.3136 16.7444C38.3362 16.6353 38.3702 16.5539 38.4155 16.5005C38.4592 16.4431 38.5142 16.43 38.5806 16.4612C38.9183 16.6102 39.1883 16.785 39.3907 16.9857C39.5951 17.1807 39.7551 17.3652 39.8706 17.5392C39.9898 17.7114 40.0813 17.8539 40.1449 17.9664C40.2086 18.079 40.2696 18.1245 40.3278 18.1029L41.8596 17.4178L41.3125 16.3859L41.8934 15.028C41.8999 15.011 41.9136 15.0282 41.9347 15.08C41.9595 15.1301 41.9921 15.2048 42.0326 15.3043C42.0768 15.4021 42.1321 15.5161 42.1985 15.6463C42.2649 15.7765 42.3458 15.9096 42.4413 16.0455C42.5368 16.1814 42.6498 16.3164 42.7804 16.4506C42.9094 16.5808 43.0567 16.6956 43.2223 16.7951L43.953 16.4649L43.9554 16.4709L44.4935 16.2278L43.9464 15.1958L44.5273 13.838C44.5338 13.8209 44.5475 13.8382 44.5686 13.89C44.5896 13.9417 44.6222 14.0165 44.6665 14.1143C44.7107 14.2121 44.766 14.3261 44.8324 14.4563C44.8988 14.5865 44.9797 14.7195 45.0752 14.8554C45.1707 14.9913 45.2838 15.1263 45.4143 15.2605C45.5433 15.3907 45.6906 15.5055 45.8562 15.605L46.8031 15.6593L47.4258 18.0717L46.854 18.2421C46.6829 18.3747 46.6978 18.2868 46.6104 18.3027C46.5214 18.3147 46.4294 18.3138 46.3345 18.3002C46.2433 18.2848 46.0533 17.9635 45.9568 17.9129C45.864 17.8606 45.7747 17.7785 45.6889 17.6665L45.7836 18.394L44.1183 19.1464" fill="black"/>
</g>
</g>
</svg>
