<svg width="100" height="45" viewBox="0 0 100 45" fill="none" xmlns="http://www.w3.org/2000/svg">
<rect width="100" height="45" fill="#006C35"/>
<path d="M65.4427 38.0807H64.1302C63.9844 38.2721 63.7565 38.5 63.6289 38.5C63.474 38.5 63.0547 38.0716 63.0547 37.9167C63.0547 37.7982 63.2552 37.5703 63.4375 37.4245V37.069H39.6484C36.513 37.069 34.9544 37.0417 33.9062 35.9935H63.4375V35.638C63.2643 35.5013 63.0547 35.2643 63.0547 35.1458C63.0547 34.9909 63.474 34.5625 63.6289 34.5625C63.7839 34.5625 64.2031 34.9909 64.2031 35.1458C64.2031 35.2643 63.9935 35.5013 63.8203 35.638V35.9935H67.8307C68.9062 35.9935 69.3437 36.0846 69.3437 37.069C69.3437 38.1172 69.0612 38.3086 68.6146 38.3086C68.4596 38.3086 68.2044 38.2995 68.013 38.0807H66.4544C66.4132 38.1476 66.3431 38.2048 66.2531 38.245C66.163 38.2853 66.057 38.3068 65.9486 38.3068C65.8401 38.3068 65.7341 38.2853 65.6441 38.245C65.554 38.2048 65.4839 38.1476 65.4427 38.0807V38.0807ZM66.4544 37.7526H67.8307C67.7578 37.5521 67.7578 37.3424 67.8307 37.069H63.8203V37.4245C63.9206 37.4974 64.0573 37.6523 64.1302 37.7526H65.4427C65.4839 37.6857 65.554 37.6285 65.6441 37.5883C65.7341 37.548 65.8401 37.5266 65.9486 37.5266C66.057 37.5266 66.163 37.548 66.2531 37.5883C66.3431 37.6285 66.4132 37.6857 66.4544 37.7526Z" fill="white"/>
<path d="M68.724 21.3646C68.8151 21.474 68.8698 21.5742 68.7148 21.7565C68.569 21.8841 68.4687 21.957 68.3138 22.0846C68.25 22.194 68.2044 22.3672 68.4141 22.4219C68.8151 22.5312 69.5534 22.0573 69.5534 22.0482C69.7083 21.9388 69.6536 21.7383 69.6445 21.7383C69.5534 21.6471 69.362 21.7018 69.2344 21.6836C69.1706 21.6836 69.1341 21.5651 69.2253 21.3919C69.3073 21.2826 69.3437 21.2187 69.3984 21.0911C69.4531 20.9635 69.3984 20.8724 69.1797 20.7995C68.9518 20.763 68.8607 20.7812 68.6146 20.7995C68.4779 20.8268 68.4323 20.8906 68.4049 21.0456C68.4141 21.2826 68.569 21.2643 68.724 21.3646ZM66.9922 15.7318C66.8646 15.9049 66.7734 16.0417 67.0195 16.1784C67.2747 16.306 67.6575 16.6615 67.4935 17.0625C67.4023 17.3724 67.4935 17.6185 67.776 17.1719C68.0677 16.707 67.8398 16.151 67.5573 15.7956C67.3112 15.4857 67.1471 15.5495 66.9922 15.7318ZM74.6667 9.36979C75.013 9.67057 75.2044 9.57943 74.9857 9.06901C74.7305 8.55859 74.4844 8.02083 74.2565 7.53776C74.0104 7.02734 73.9466 7.14583 73.6641 7.51042C73.345 7.86589 73.3177 8.13932 73.4362 8.34896C74.0378 13.1159 74.3203 15.6042 74.3841 17.0443C74.5117 19.1406 73.974 20.3164 71.832 21.6654C71.1393 22.112 70.3555 22.6224 72.0234 22.2305C73.582 21.8568 75.25 20.8724 75.25 17.1081C75.25 14.2734 74.5937 11.2383 74.6667 9.36979ZM72.1146 8.40365C71.9232 8.70443 71.9596 8.76823 72.1784 9.09635C72.3971 9.46094 72.5885 10.1172 72.5885 10.6276C72.5885 11.138 72.7799 11.0742 72.8711 10.6003C72.9713 10.1445 72.9349 9.2513 72.6523 8.6224C72.3698 7.95703 72.2695 8.19401 72.1146 8.40365ZM73.9466 18.3294C73.8828 17.9102 73.7552 17.4909 73.1901 16.6888C72.625 15.9049 72.1146 15.1849 71.6133 14.4922C71.4583 12.6966 71.2305 10.7734 71.2305 9.76172C71.4857 9.9987 71.6771 9.76172 71.5495 9.36979C71.4219 8.97786 71.1667 7.92969 70.9844 7.48307C70.8203 7.05469 70.638 7.14583 70.3828 7.53776C70.1641 7.92969 70.0091 8.11198 70.1641 8.40365C70.2279 10.1445 70.474 11.8307 70.7656 13.3529C70.2552 12.6966 69.7812 12.0677 69.3437 11.4935C69.3164 10.8372 69.2526 10.181 69.2161 9.51562C69.4987 9.72526 69.6263 9.67057 69.4713 9.27865C69.3437 8.85937 68.9974 7.98437 68.8424 7.60156C68.6784 7.20964 68.5872 7.20964 68.3685 7.51042C68.0221 8.02083 67.9219 8.3763 68.2135 8.85937C68.2409 9.27865 68.3047 9.72526 68.332 10.1172C68.0495 9.76172 67.8034 9.39714 67.5755 9.06901C67.8581 9.21484 68.0859 8.97786 67.7669 8.70443C67.4844 8.4401 66.8828 7.98437 66.6367 7.65625C66.3542 7.32812 66.099 7.32812 66.099 7.62891C66.099 7.92969 66.1263 8.19401 66.099 8.46745C66.0352 8.70443 66.0352 8.95052 66.4088 9.36979C67.138 10.2083 67.8307 11.0742 68.4961 11.8854C68.7422 14.8841 68.9062 16.8073 68.8424 18.0013C68.806 18.7214 68.5599 19.1406 68.1497 19.2591C67.7396 19.4141 67.3294 19.1406 66.9466 18.6029C66.2539 17.6458 66.0078 17.8281 65.47 18.6667C64.9596 19.4414 64.6133 20.1068 64.3307 20.6719C64.0846 21.2096 63.638 21.6927 63.2279 20.9727C62.8542 20.2526 62.7904 19.4414 62.8177 18.8763C62.8177 18.3021 62.7266 17.8555 62.5078 18.7578C61.9427 20.9727 62.2891 21.4557 62.918 21.9297C63.7018 22.5951 63.957 22.6497 64.3672 22.0846C65.1875 21 65.4062 20.043 65.8802 19.5052C66.2539 19.0859 66.2539 19.4141 66.4453 19.6237C66.9193 20.1888 67.3294 20.3984 67.9857 20.4896C68.651 20.6081 69.845 20.0703 69.7539 17.974C69.6901 16.7161 69.599 15.0026 69.4713 13.1797C70.1003 14.0182 70.6654 14.7656 71.112 15.3672C71.3307 16.5612 71.4583 17.6458 71.3945 18.5117C71.3307 19.5052 71.5495 19.5052 71.7682 18.4844C71.832 18.0651 71.832 17.1901 71.7409 16.1419C72.5885 17.2266 73.0898 17.9466 73.4362 18.457C73.819 19.0859 74.0378 19.6237 73.9466 18.3294ZM65.306 15.9687C65.306 15.7591 65.4062 15.6953 65.7799 15.3945C66.099 15.1576 66.9831 14.556 67.2656 14.2826C67.5482 14.0182 67.7669 13.7721 67.8307 14.1094C67.8581 14.4375 67.9219 14.556 67.5755 14.7383C67.2292 14.8841 66.3177 15.4219 66.0352 15.6315C65.7161 15.8776 65.306 16.1784 65.306 15.9687ZM65.4062 12.2773C65.3424 12.5508 64.9596 12.5508 64.9961 12.25C65.0234 11.9492 64.9961 12.0039 64.9961 11.7669C64.9596 11.5299 65.2786 11.375 65.4336 11.5846C65.625 11.7943 65.944 12.4596 66.0352 12.6966C66.1628 12.9336 66.2266 12.8789 66.2266 12.5508C66.1901 12.1589 66.1263 11.7943 66.1628 11.5299C66.1901 11.375 66.2904 11.1927 66.4727 11.0469C66.7005 10.901 66.819 10.8646 66.9193 11.138C66.9831 11.375 67.1654 11.4023 67.0742 11.6211C66.9466 11.9128 66.6641 11.3203 66.4727 11.7396C66.3815 12.0404 66.4727 12.8789 66.4453 13.1797C66.4453 13.444 66.3177 13.8359 66.099 13.3893C65.944 13.0885 65.7161 12.5781 65.4062 12.2773ZM63.2279 9.84375C63.6745 10.0534 64.1484 10.181 63.8021 9.67057C63.4466 9.1875 63.1641 8.3763 62.9818 7.77474C62.7539 7.18229 62.6992 7.20964 62.3437 7.72005C61.8151 8.49479 62.2891 9.2513 62.4075 10.1445C62.8542 13.3529 63.2917 16.625 63.4193 17.4909C63.5469 18.457 63.7018 19.0859 63.4466 20.1341C63.3555 20.4622 63.4831 20.5534 63.7018 20.1615C64.5859 18.5755 63.9844 17.1901 63.8932 16.2969C63.7383 14.9115 63.2279 11.2565 63.1367 9.78906M61.0586 9.69792C61.3047 9.90755 61.5963 9.90755 61.4323 9.46094C61.2773 9.00521 61.1497 8.46745 60.9948 7.95703C60.8398 7.44661 60.7396 7.32812 60.5482 7.5651C60.3294 7.83854 60.1745 7.92969 60.0195 8.11198C59.8555 8.25781 59.8281 8.58594 60.0195 8.88672C60.7122 13.4167 60.7396 15.4219 60.8398 17.1081C60.931 18.7852 61.1862 19.5599 60.0833 20.6992C58.8802 21.9297 58.1602 22.2305 57.6224 22.349C57.0208 22.513 56.7747 22.75 57.4219 22.75C59.5365 22.75 59.7461 22.1849 60.612 21.2734C61.3138 20.5352 61.651 19.5964 61.5963 17.3724C61.5325 13.4714 60.9583 11.7943 61.0586 9.69792ZM53.1471 21.1549C53.4661 20.9727 53.6211 20.8268 53.8672 20.7357C54.1224 20.6081 54.3138 20.6445 54.1224 21.1549C53.931 21.7474 54.0312 21.9297 54.4414 21.7839C54.8151 21.6654 55.0339 21.5104 55.3529 21.3919C55.6354 21.2734 55.9544 21.2734 55.5078 21.6016C55.1615 21.875 54.6602 22.2305 54.3776 22.2943C53.7487 22.4401 53.4297 22.2031 53.5573 21.7201C53.6849 21.2734 53.776 21.0911 53.4023 21.2461C52.9557 21.4193 52.9922 21.2461 53.1471 21.1549ZM58.224 10.9557C58.3424 11.3203 58.5065 11.4935 58.5977 11.0469C58.6615 10.6549 58.7891 10.5365 58.8529 10.9557C58.944 11.375 59.1992 11.3203 59.263 10.9284C59.3542 10.5365 59.4818 10.3268 59.5456 10.7461C59.6094 11.1927 59.5729 11.3477 59.5091 11.4935C59.4818 11.6211 59.2266 11.7669 59.0352 11.5846C58.8164 11.4023 58.7526 11.4023 58.5977 11.5573C58.2513 11.8581 58.1237 11.6484 58.0599 11.2292C58.0325 10.8646 58.1602 10.7187 58.224 10.9557ZM60.3294 18.5117C60.0469 17.1628 58.7526 15.0026 56.8294 12.1862C56.7747 11.4388 56.7383 10.7461 56.7383 10.1172C57.0208 10.418 57.2122 10.2357 57.1211 9.84375C56.9297 9.16016 56.6471 8.58594 56.3008 7.8112C56.1732 7.48307 55.8268 7.39193 55.6719 7.86589C55.444 8.4401 55.4167 8.55859 55.6992 8.95052C55.6719 9.36979 55.8268 10.0898 55.8906 10.7461C55.5443 10.263 55.0977 9.67057 54.7513 9.16016C55.2891 9.36979 55.6081 9.21484 55.1341 8.74089C54.6602 8.23047 53.9948 7.72005 53.5846 7.35547C53.1745 7 52.9922 7.23698 53.056 7.5651C53.0833 7.90234 53.1198 8.13932 53.0833 8.40365C53.056 8.67708 53.1471 8.85937 53.5573 9.00521C54.3776 10.026 55.1979 11.0742 55.9544 12.1589C56.0456 13.0521 56.237 14.0456 56.3281 14.8568C56.5833 16.7708 56.957 19.2591 56.6471 20.3437C56.3919 21.1549 56.6471 21.5104 57.0573 20.2799C57.431 19.0495 57.3945 17.8828 57.1484 16.0508C57.0482 15.3398 57.0208 14.4375 56.9297 13.599C58.2513 15.5404 59.4453 17.3997 59.9831 18.694C60.2656 19.3867 60.5208 19.5326 60.3294 18.5117ZM57.9687 7.5651C57.8411 7.8112 57.75 7.98437 57.9961 8.16667C58.2513 8.34896 58.6341 8.83203 58.47 9.36979C58.3789 9.78906 58.47 10.1172 58.7526 9.51562C59.0352 8.88672 58.8164 8.13932 58.5339 7.65625C58.2786 7.23698 58.1237 7.32812 57.9687 7.5651ZM48.6445 14.1094C48.5807 14.5286 48.6719 14.793 48.8268 15.0026C48.9909 15.2122 49.3008 15.1849 49.401 14.9479C49.4922 14.6745 49.556 14.6471 49.7474 14.8568C49.9661 15.0664 50.6862 14.8841 50.3398 13.8359C50.1849 13.4167 50.1211 13.5078 50.1211 13.9818C50.1211 14.7383 49.8659 14.7383 49.5833 14.0182C49.4922 13.7448 49.3646 13.7448 49.3372 14.1094C49.3372 14.793 49.0182 14.8841 48.8268 14.1914C48.763 13.8997 48.7083 13.6536 48.6445 14.1094ZM52.9922 15.1849C53.6484 15.0391 53.2747 14.9753 52.8281 14.7018C52.3633 14.4375 52.1719 14.4375 52.1992 14.7383C52.2357 14.9115 52.2357 15.0937 52.2995 15.3307C52.5182 15.276 52.737 15.2487 52.9922 15.1849ZM51.6979 13.7174C52.1992 13.0247 53.0195 13.2344 53.9674 13.8633C54.9154 14.4922 54.5325 15.4857 53.6211 15.9961C53.4023 16.1146 53.1198 16.2331 52.7643 16.3516C52.8646 16.5612 52.737 16.625 52.4544 16.4427C51.6341 16.7161 50.5586 17.1081 49.8112 17.4909C50.7227 17.5547 54.5052 17.4909 55.2617 17.3997C56.0182 17.3451 55.8906 17.4635 55.6719 18.0924C55.444 18.694 55.1979 18.6302 54.569 18.7214C53.5573 18.9036 52.0716 19.3229 51.0052 19.7422C49.9297 20.1615 50.3125 20.9089 51.4154 21.3008C52.263 21.5104 52.1719 21.6016 52.0169 22.0846C51.8893 22.5312 51.8893 22.6497 50.8503 22.5039C48.2982 22.112 47.3776 20.763 46.9674 19.7148C45.3997 21.8385 43.8503 23.0143 42.401 22.6497C41.681 22.5039 41.3346 21.875 41.2708 21.0911C40.2591 21.5378 39.0924 21.9297 37.5794 22.349C37.2331 22.4674 36.9505 22.3216 37.4245 22.112C38.4271 21.6289 40.0039 20.8268 41.2982 19.9518C41.4258 19.4141 41.7083 18.6667 41.9909 18.1198C42.1458 17.7917 42.2461 17.9102 42.2461 18.1836C42.2461 18.3932 42.1823 18.931 42.2096 19.3229C42.4375 19.1406 42.7474 18.9674 42.9023 18.8125C43.7865 18.0651 44.7617 17.582 44.1055 16.388C43.8229 15.8411 43.595 15.4583 43.5039 15.2122C42.9388 15.0026 43.0937 14.7018 43.349 14.1914C43.595 13.6901 43.6953 13.5625 44.1966 14.1367C44.9258 14.9479 45.0169 15.3034 44.5156 15.2487C45.2995 17.1628 45.1081 18.1562 43.8867 19.2956C43.3125 19.8607 42.7201 20.3164 42.0273 20.6719C41.9635 21.1823 42.1823 21.6927 43.1849 21.5378C44.5156 21.3646 45.9922 19.7148 46.6211 18.457C46.3385 17.3997 45.7096 15.513 45.3359 14.556C45.1445 14.0729 45.3359 13.8633 45.4909 13.4714C45.6823 13.0885 45.7734 12.8424 45.9922 13.3893C46.2109 13.8997 46.9036 15.1849 47.2227 16.7161C47.569 18.2474 47.5052 19.5599 48.3255 20.2799C48.7083 20.6081 49.1732 20.8268 49.6836 20.9453C49.3008 19.9245 50.0937 19.1406 51.1328 18.7852C50.5039 18.2109 49.5195 18.3021 48.4167 18.2474C47.6055 18.2109 47.6966 18.1198 47.9154 17.4362C48.1341 16.7435 48.3893 16.6523 48.9909 16.4154C49.8112 16.1146 50.6224 15.8138 51.4792 15.5768C50.9414 14.8294 51.2878 14.2826 51.6979 13.7174ZM47.724 7.5651C47.5052 7.77474 47.5052 7.8112 47.6966 8.07552C47.888 8.28516 48.1706 8.95052 48.0703 9.63411C48.043 9.9349 48.1068 10.2357 48.2617 9.69792C48.3893 9.16016 48.3529 8.40365 48.1979 7.95703C48.043 7.51042 47.8516 7.39193 47.724 7.5651ZM43.4401 8.74089C42.9388 10.0898 42.9661 11.375 44.0052 12.487C44.6068 13.1159 45.0443 12.8151 45.2995 12.1224C45.582 11.4661 45.7734 10.8099 45.9648 10.3542C46.1471 9.90755 46.3112 9.9987 46.2747 10.418C46.1836 11.2565 46.1198 12.6055 47.0039 13.1159C47.888 13.6263 49.237 12.7604 49.7109 11.8581C51.1328 13.6536 52.3906 12.8151 52.5456 11.0742C52.582 10.5365 52.3268 9.36979 52.1719 9.04167C52.0169 8.67708 52.1081 8.67708 52.3268 8.85937C52.5456 9.06901 52.9284 9.1875 52.737 8.58594C52.5182 8.02083 52.263 7.69271 51.9167 7.41927C51.6068 7.14583 51.543 7.30078 51.4154 7.51042C51.2878 7.72005 51.3151 7.77474 51.1328 7.92969C50.9414 8.11198 50.9687 8.19401 51.1328 8.53125C51.6615 9.84375 52.1719 11.7669 51.3151 11.9492C50.5312 12.0951 50.0299 10.4727 49.9935 9.76172C49.9661 8.79557 49.8385 7.98437 49.6471 7.48307C49.5104 7.15495 49.4284 7 49.3555 7C49.2279 7 49.0456 7.51953 48.9271 7.72005C48.7995 7.92969 48.9271 7.98437 49.0182 8.40365C49.4922 10.5091 49.4284 11.4661 48.4167 12.0039C47.4141 12.5781 46.8763 12.0404 46.8763 11.375C46.849 10.7187 46.849 9.90755 46.9401 9.30599C47.0039 8.70443 47.1589 8.6224 46.9401 8.32161C46.7214 7.98437 46.5299 8.11198 46.2474 8.49479C45.6185 9.33333 44.9896 10.7461 44.7617 11.4023C44.543 12.0951 44.1055 11.8581 43.7865 11.2839C43.4401 10.6003 43.4766 9.36979 43.595 8.88672C43.7227 8.40365 43.6589 8.19401 43.4401 8.74089ZM42.1458 8.23047C42.2096 8.04818 42.0547 7.86589 41.9271 8.13932C41.8359 8.34896 41.7995 8.49479 41.9909 8.6224C42.0547 8.49479 42.1185 8.34896 42.1458 8.23047ZM41.3893 7.95703C41.7721 7.02734 43.0299 7.14583 42.6836 8.34896C42.6562 8.53125 42.556 8.76823 42.4375 9.00521C42.6198 9.2513 42.5286 9.55208 42.1458 9.48828C41.7357 10.1172 40.9518 10.8099 39.5937 11.375C38.9648 11.6484 38.8737 11.4388 39.3477 11.1654C40.2591 10.6003 41.1068 9.90755 41.6445 9.1875C41.2344 8.85937 41.2344 8.3763 41.3893 7.95703ZM41.1706 11.2839C40.7969 11.7396 40.5143 12.3958 41.043 12.7878C41.3346 13.0247 41.9271 12.7604 42.1458 12.3047C42.3737 11.8307 42.2734 11.7669 41.8997 12.1589C41.362 12.724 40.8242 12.2135 41.3893 11.4388C41.7721 10.901 41.5534 10.7734 41.1706 11.2839ZM40.3229 17.8828C40.3867 18.0924 40.3503 18.5755 40.2591 18.7852C40.1315 19.0495 40.2591 19.1771 40.4505 18.8398C40.6328 18.4844 40.7604 18.0651 40.6693 17.6458C40.6328 17.3451 40.6328 17.2539 40.3503 17.1354C40.0404 17.0169 39.9401 17.1901 39.849 17.4362C39.7214 17.737 39.8763 18.0651 40.3229 17.8828ZM35.4648 15.9049C34.8997 16.0508 34.8086 15.8411 34.8359 15.513C34.8724 15.1849 34.8997 15.0937 35.2826 15.2487C35.4375 15.3034 35.6289 15.513 35.8203 15.7865C35.6927 15.8138 35.5651 15.8776 35.4648 15.9049ZM35.9388 14.556C35.3737 14.0182 34.8997 13.9818 34.4258 14.6471C33.9883 15.276 34.0156 15.4219 34.0521 15.9961C34.0794 16.5612 33.9609 16.7708 34.4258 16.9258C34.8724 17.0716 35.0638 17.0169 35.3464 16.9258C35.5651 16.862 35.875 16.7708 36.194 16.6523C36.2578 16.9531 36.2214 17.2812 36.0391 17.5273C34.8724 18.8398 33.0768 19.806 32.2839 18.931C31.8464 18.457 31.6549 17.7005 31.7826 16.8073C31.9102 16.0508 31.6549 16.388 31.5638 16.6523C31.2812 17.5273 31.181 18.7852 31.5638 19.4141C32.1016 20.2799 32.9492 20.6719 34.3073 20.1068C35.6562 19.5326 36.9779 18.5117 36.9232 17.1081C36.9232 16.8346 36.8867 16.5977 36.8867 16.4154C37.0143 16.3516 37.2331 16.2057 37.388 16.1419C37.4245 16.625 37.3607 17.2266 37.388 17.7005C37.4518 19.2318 36.8229 19.6784 36.2578 20.1068C35.4648 20.6992 34.3984 21.0911 33.487 21.2461C31.3086 21.5378 30.8073 20.2253 30.8346 18.457C30.8346 18.1836 30.9622 18.0013 30.9622 17.6094C30.9349 16.862 30.8346 16.9805 30.5885 17.737C30.3607 18.457 30.0781 20.1341 30.8073 21.5104C31.5638 22.8958 34.1159 22.5039 36.1029 21.6016C38.0534 20.6992 38.2721 18.9948 38.181 17.2812C38.181 16.8346 38.1445 16.3516 38.1172 15.8411C38.181 15.8138 38.2083 15.7591 38.2448 15.7227C38.5273 16.5977 39.849 16.3516 40.2591 15.8411C40.4779 15.6042 40.4779 15.5768 40.6693 15.8411C40.9518 16.2331 41.9271 16.3516 42.1823 15.8138C42.401 15.2487 42.3737 14.7018 42.3099 14.2826C42.2461 13.8633 42.1458 13.8997 41.8633 14.1094C41.5534 14.3464 41.7995 14.3737 41.8359 14.6745C41.9635 15.8138 40.9245 15.7227 40.7969 14.556C40.7331 13.8359 40.6055 14.1094 40.5143 14.4375C40.0677 15.8411 38.7734 16.1146 38.901 14.4922C38.9375 14.0182 38.6185 14.1641 38.4635 14.3464C38.3086 14.4648 38.181 14.6198 38.026 14.7018C37.9258 13.3893 37.8346 11.8854 37.6706 10.0898C38.0534 10.5365 38.3997 10.026 38.1445 9.51562C37.9622 9.1237 37.6706 8.25781 37.4883 7.77474C37.3242 7.30078 37.2331 7.44661 36.8229 7.83854C36.4492 8.25781 36.513 8.34896 36.6953 8.76823C36.6315 9.27865 36.7318 9.78906 36.8594 10.8372C36.9505 11.5846 37.2057 13.1432 37.3242 15.1211C37.1419 15.2122 36.8594 15.3945 36.668 15.4857C36.513 15.1576 36.2852 14.8841 35.9388 14.556ZM29.1667 18.3659C29.194 18.6667 29.194 18.8763 29.194 18.9948C29.194 19.2044 29.0755 19.4141 29.0117 19.6784C28.6289 20.9727 29.194 21.6016 29.513 21.1185C29.7956 20.6445 29.9505 20.6992 29.9232 21.0911C29.8958 22.3854 28.6016 22.4674 28.5013 21.3919C28.3464 19.6784 28.7565 19.4141 28.8841 18.8398C28.9753 18.457 29.1029 18.1562 29.1667 18.3659ZM28.5013 16.4701C29.4219 15.4219 30.5885 14.8841 31.181 14.7018C31.5638 14.5833 31.7552 14.4375 31.7552 14.793C31.7826 15.1211 31.7552 15.1576 31.4362 15.2487C30.707 15.4219 29.194 16.1419 28.6927 16.5065C28.4466 16.6888 28.1276 16.8984 28.5013 16.4701ZM33.6419 7.44661C33.5508 7.69271 33.6146 7.98437 33.7695 8.16667C33.9245 8.3763 34.207 8.3763 34.3984 8.23047C34.5534 8.04818 34.5534 8.02083 34.7174 8.25781C34.8086 8.4401 35.1185 8.3763 35.2187 8.19401C35.2826 8.04818 35.3737 7.90234 35.2826 7.69271C35.1823 7.48307 35.1823 7.53776 35.1185 7.77474C35.0638 8.16667 34.681 8.07552 34.6536 7.60156C34.6536 7.14583 34.5534 7.39193 34.4258 7.69271C34.207 8.13932 33.8971 8.04818 33.8971 7.65625C33.8971 7.32812 33.7969 7.05469 33.6419 7.44661ZM32.2839 13.7448C32.3841 14.8294 32.694 16.8346 32.694 17.5273C32.7305 18.2474 32.8216 18.0378 33.013 17.6458C33.2044 17.2539 33.168 16.8346 33.1406 16.2604C33.0768 15.668 33.0404 14.6745 32.9128 13.3255C33.168 13.1432 33.3867 12.8424 33.487 12.6693C33.7331 12.2135 33.7969 12.25 33.8971 12.6055C34.0794 13.3255 34.8359 13.8086 35.8477 13.1159C36.7956 12.487 36.3854 11.1654 35.9753 9.72526C36.3216 9.78906 36.4492 9.51562 36.2214 9.16016C36.1302 8.95052 35.9388 8.76823 35.7839 8.58594C35.6289 8.40365 35.4648 8.25781 35.3099 8.4401C35.1823 8.6224 35.0273 8.76823 34.9362 8.88672C34.8359 9.00521 34.8359 9.1237 34.9635 9.42448C35.3464 10.263 35.5924 11.1654 35.6562 11.6758C35.7565 12.1589 35.5651 12.2773 35.2187 12.2773C34.8724 12.2773 34.3984 12.1862 34.207 11.4661C34.0156 10.7461 33.9245 10.418 33.9609 9.9349C33.9883 9.46094 34.0521 9.1237 33.7057 8.64974C33.3229 8.16667 33.2956 8.25781 33.2044 8.49479C33.1406 8.76823 33.013 9.16016 33.1406 9.60677C33.2956 10.263 33.3867 10.8372 33.487 11.2292C33.5508 11.4935 33.2591 12.0677 32.8581 12.3685C32.7578 11.4661 32.6029 10.263 32.5391 9.30599C33.0768 9.1237 32.7943 8.4401 32.3477 7.69271C32.0378 7.11849 31.9102 7.35547 31.6914 7.72005C31.4635 8.07552 31.6276 8.23047 31.7826 8.53125C31.6549 8.76823 31.8737 9.1237 31.974 9.78906C32.0013 10.2083 32.1016 11.4023 32.1927 12.4596C31.7552 12.4596 31.5 12.1862 31.3451 11.8307C30.9987 11.0742 31.0898 10.3906 31.2448 9.9349C31.4089 9.48828 31.5638 8.79557 31.2812 8.6224C31.026 8.4401 30.6797 8.64974 30.4609 8.97786C30.0781 9.51562 29.7318 10.2995 29.7044 11.1107C29.668 11.4388 29.5768 12.0677 29.4219 12.3047C29.2943 12.5508 29.0755 12.5781 28.8477 12.2135C28.474 11.6484 28.3464 10.2083 28.3828 9.46094C28.3828 9.09635 28.2826 9.04167 28.1549 9.46094C28.0456 9.84375 28 10.2357 28 10.6094C28 11.6667 28.3099 12.6328 28.5651 13.1159C28.9115 13.7721 29.3581 13.6263 29.668 13.0885C30.1419 12.2773 29.9505 11.5573 30.3971 10.3542C30.6523 9.60677 30.7435 10.181 30.6523 10.6276C30.4245 11.8307 30.4883 13.7721 32.2839 13.7448ZM29.5768 9.04167C29.8958 8.19401 29.9232 7.44661 29.5495 7.72005C29.2305 7.95703 29.0391 7.72005 29.2943 7.44661C29.6042 7.05469 30.0143 6.9362 30.1146 7.60156C30.1419 8.11198 29.7682 8.74089 29.5768 9.04167Z" fill="white"/>
</svg>
