<svg width="95" height="147" viewBox="0 0 95 147" fill="none" xmlns="http://www.w3.org/2000/svg">
<g id="argentina">
<path id="Vector" d="M29.3315 0.250501C29.2578 0.405223 29.0146 1.09042 28.7862 1.76824C28.5505 2.45344 28.2263 3.43334 28.0642 3.95645C27.8948 4.47218 27.7032 5.0837 27.6443 5.3121C27.578 5.5405 27.3127 6.33621 27.0475 7.08771C26.7896 7.83185 26.5096 8.4802 26.4212 8.53178C26.3402 8.58335 24.3288 8.61282 21.949 8.59072C19.5766 8.57598 17.5947 8.59072 17.5579 8.62019C17.5137 8.64966 17.9484 9.02541 18.5157 9.45274C19.0904 9.88743 19.8198 10.4179 20.1366 10.6389C20.4608 10.86 20.8071 11.1031 20.9028 11.1841C21.006 11.2652 21.4554 11.5967 21.9122 11.9356C22.369 12.2672 23.0026 12.7166 23.3268 12.9303C23.651 13.1513 24.1151 13.505 24.3583 13.7186L24.8077 14.1091C24.4614 15.1185 24.0783 16.2826 23.7394 17.3583C23.3931 18.4266 23.0689 19.4138 23.0174 19.5391C22.9584 19.6717 22.73 20.4011 22.5016 21.1673C22.2732 21.9262 22.089 22.604 22.089 22.6704C22.089 22.7367 22.2585 22.663 22.4721 22.5009C22.6858 22.3462 23.1794 21.9852 23.5847 21.7052C23.9825 21.4252 24.7267 20.8947 25.235 20.5337C25.7434 20.1727 26.237 19.797 26.3328 19.7012C26.4286 19.6054 26.8559 19.296 27.2759 19.0086C27.6958 18.7286 28.3221 18.2645 28.661 17.9845C28.9999 17.7045 29.3609 17.4761 29.4567 17.4761C29.5525 17.4761 29.8619 17.6677 30.1345 17.9035C30.4071 18.1392 30.7387 18.3824 30.8713 18.4487C31.0039 18.515 31.1365 18.6034 31.166 18.6476C31.1955 18.6844 31.5197 18.9349 31.8733 19.2002C32.227 19.4654 32.9195 19.9591 33.4058 20.2906C33.8921 20.6221 34.3931 20.9905 34.5257 21.1084C34.6583 21.2337 34.9972 21.4768 35.2919 21.661C35.5866 21.8452 36.0508 22.1694 36.3234 22.3904C36.7286 22.7146 36.8244 22.7514 36.8244 22.5819C36.8244 22.4714 36.5592 21.5505 36.235 20.5485C35.9108 19.5391 35.3803 17.8887 35.0561 16.8867C34.732 15.8774 34.3857 14.8311 34.2899 14.5512L34.1131 14.0502C35.0709 13.3502 36.4413 12.3556 37.7675 11.3978C39.0936 10.4326 40.4714 9.43063 40.825 9.1654L41.466 8.67913C40.6556 8.63492 38.6147 8.60545 36.4192 8.59072L32.4112 8.56125C32.1901 8.10445 31.9028 7.27927 31.6375 6.43199C31.3723 5.59207 30.805 3.83856 30.3777 2.54185C29.9503 1.23777 29.5672 0.132618 29.5304 0.0663091C29.4862 0.00736769 29.3978 0.0884122 29.3315 0.250501V0.250501ZM64.0185 0.854651C63.849 1.32618 63.6796 1.87139 63.6354 2.07032C63.5838 2.26188 63.3996 2.82182 63.2228 3.30809C63.046 3.79436 62.5892 5.15738 62.2134 6.34357C61.5356 8.436 61.5135 8.48757 61.1672 8.55388C60.9756 8.59072 58.9053 8.62019 56.5698 8.62756C52.7828 8.62756 52.3481 8.64966 52.5618 8.80438C52.6944 8.90016 52.8786 9.04751 52.9743 9.12119C53.0775 9.20223 53.4459 9.49694 53.7995 9.76955C54.1605 10.0422 54.4995 10.2705 54.5658 10.2779C54.6321 10.2779 54.8678 10.44 55.0962 10.6389C55.3246 10.8305 55.5604 11.0294 55.6267 11.081C55.693 11.1252 56.0098 11.3462 56.334 11.5673C56.6582 11.7883 56.9529 12.002 56.9824 12.0388C57.0118 12.0756 57.336 12.3188 57.6897 12.584C58.0433 12.8419 58.5222 13.1734 58.7506 13.3134C58.979 13.4534 59.2811 13.6744 59.4284 13.807C59.6642 14.0281 59.6789 14.1017 59.5684 14.4922C59.5021 14.7354 59.4137 15.0153 59.3769 15.1111C59.3327 15.2143 59.2074 15.6121 59.0969 16.0026C58.9864 16.3857 58.8096 16.9457 58.7064 17.2404C58.6033 17.5277 58.3085 18.4045 58.0433 19.1854C57.7854 19.9664 57.5497 20.74 57.5128 20.9021C57.4834 21.0642 57.3507 21.4989 57.2181 21.8746C57.0855 22.2504 56.9824 22.5819 56.9824 22.6114C56.9824 22.6409 57.0192 22.6704 57.0708 22.6704C57.1224 22.6704 57.7412 22.243 58.4559 21.7199C59.1706 21.2042 60.0178 20.6 60.342 20.3716C60.6662 20.1506 61.6977 19.4065 62.6407 18.7139C64.0701 17.6603 64.3869 17.4688 64.5858 17.5646C64.7184 17.6309 65.0573 17.874 65.3521 18.1098C65.6468 18.3455 65.9341 18.5813 66.0004 18.6329C66.0667 18.6844 66.2804 18.8318 66.4719 18.957C66.6635 19.0823 67.1498 19.4212 67.5403 19.7159C67.9307 20.0106 68.4023 20.3569 68.5865 20.4895C68.7707 20.6148 69.058 20.8358 69.2275 20.9684C69.3969 21.101 70.0158 21.5431 70.5978 21.941C71.1799 22.3462 71.6956 22.6777 71.7472 22.6704C71.7988 22.6704 71.8135 22.604 71.784 22.523C71.7546 22.442 71.4083 21.3368 71.0104 20.0696C70.6126 18.8097 70.2368 17.6382 70.1705 17.4761C70.1042 17.3141 69.9421 16.8646 69.8095 16.4741C69.6769 16.0836 69.559 15.6858 69.5443 15.5826C69.5295 15.4869 69.478 15.3027 69.4337 15.1701C69.3822 15.0448 69.2938 14.8164 69.2348 14.6691C69.1759 14.5217 69.1243 14.3007 69.1243 14.1681C69.1243 14.0133 69.3895 13.7481 69.92 13.3797C70.3547 13.0776 71.1504 12.503 71.6809 12.1125C72.2114 11.7146 73.3165 10.9189 74.1417 10.3295C74.9669 9.74744 75.8289 9.12119 76.0647 8.937C76.4109 8.67176 76.4478 8.61282 76.2562 8.60545C76.1236 8.60545 74.1122 8.60545 71.7767 8.61282C69.4411 8.61282 67.4666 8.57598 67.3929 8.53178C67.3192 8.4802 66.995 7.64765 66.6709 6.67512C66.3467 5.69522 65.7425 3.80172 65.3226 2.45344C64.9026 1.10515 64.5048 0 64.4385 0C64.3722 0 64.1806 0.383119 64.0185 0.854651V0.854651Z" fill="#D5B048"/>
<path id="Vector_2" d="M21.8533 8.59073C22.148 8.61283 22.568 8.61283 22.7964 8.59073C23.0248 8.56126 22.7817 8.53915 22.2659 8.53915C21.7502 8.53915 21.5586 8.56126 21.8533 8.59073V8.59073ZM25.0362 8.59073C25.3309 8.61283 25.7508 8.61283 25.9792 8.59073C26.2076 8.56126 25.9645 8.53915 25.4488 8.53915C24.933 8.53915 24.7415 8.56126 25.0362 8.59073ZM35.9993 8.59073C36.294 8.61283 36.7139 8.61283 36.9423 8.59073C37.1707 8.56126 36.9276 8.53915 36.4119 8.53915C35.8961 8.53915 35.7046 8.56126 35.9993 8.59073ZM39.1232 8.59073C39.381 8.61283 39.8305 8.61283 40.1252 8.59073C40.4199 8.56126 40.2062 8.54652 39.6536 8.54652C39.1011 8.54652 38.8653 8.56126 39.1232 8.59073ZM53.0923 8.59073C53.4459 8.61283 53.9764 8.61283 54.2711 8.59073C54.5658 8.56126 54.2711 8.54652 53.6228 8.54652C52.9744 8.54652 52.7386 8.56863 53.0923 8.59073ZM57.0414 8.59073C57.2992 8.61283 57.7487 8.61283 58.0434 8.59073C58.3381 8.56126 58.1244 8.54652 57.5718 8.54652C57.0193 8.54652 56.7835 8.56126 57.0414 8.59073ZM71.1873 8.59073C71.4452 8.61283 71.8946 8.61283 72.1893 8.59073C72.484 8.56126 72.2704 8.54652 71.7178 8.54652C71.1652 8.54652 70.9294 8.56126 71.1873 8.59073Z" fill="#FFFFFE"/>
<path id="Vector_3" d="M15.3551 34.0829L15.3699 37.4278L4.81934 37.4868C4.8267 44.4419 4.86354 46.5269 4.91512 46.608C4.97406 46.7185 5.74766 46.7553 8.14953 46.7553H11.3029L11.244 49.1204L4.8267 49.1793C4.81934 56.7164 4.86354 58.33 4.93722 58.3447C5.00353 58.3521 7.09595 58.3668 9.59359 58.3815C12.0912 58.3963 14.4121 58.4184 14.751 58.4257L15.3699 58.4478C15.3699 104.319 15.4067 112.858 15.5025 113.912C15.5762 114.737 15.7603 115.923 15.9151 116.535C16.0698 117.154 16.4013 118.06 16.6518 118.546C16.9023 119.032 17.2486 119.644 17.4254 119.902C17.5949 120.16 18.0959 120.771 18.5306 121.25C18.9653 121.729 19.7463 122.444 20.262 122.834C20.7777 123.224 21.684 123.77 22.266 124.05C22.907 124.359 23.8353 124.676 24.6237 124.86C25.3383 125.022 26.5835 125.214 27.3939 125.28C28.2044 125.339 30.4883 125.442 32.4629 125.508C35.0268 125.59 36.412 125.685 37.2961 125.84C37.9739 125.965 39.1454 126.26 39.8895 126.503C40.6557 126.746 41.7167 127.203 42.3282 127.549C42.9323 127.888 43.8533 128.514 44.3838 128.934C44.9143 129.354 45.6658 130.076 46.0489 130.526C46.432 130.983 46.9109 131.66 47.1172 132.036C47.3235 132.405 47.5298 132.714 47.5814 132.714C47.6329 132.714 47.6698 132.662 47.6698 132.596C47.6698 132.53 47.9792 132.014 48.3623 131.447C48.8044 130.776 49.4233 130.069 50.1011 129.458C50.6758 128.934 51.6262 128.212 52.2083 127.851C52.7903 127.498 53.8291 126.982 54.507 126.717C55.1848 126.452 56.2752 126.127 56.9236 126.002C57.5719 125.869 58.5518 125.707 59.1044 125.634C59.657 125.567 61.4842 125.486 63.1714 125.45C64.8586 125.42 66.6637 125.361 67.1794 125.332C67.6951 125.295 68.6234 125.192 69.2423 125.103C69.8612 125.007 70.8632 124.764 71.4821 124.558C72.101 124.352 72.7862 124.094 73.0146 123.976C73.243 123.858 73.8545 123.49 74.3702 123.143C74.886 122.805 75.6891 122.141 76.1459 121.685C76.6027 121.22 77.251 120.447 77.5752 119.961C77.8994 119.474 78.2456 118.914 78.3414 118.723C78.4372 118.524 78.6803 117.89 78.8866 117.308C79.0856 116.719 79.3066 115.894 79.3803 115.474C79.4539 115.054 79.5571 113.934 79.6013 112.998C79.6455 112.055 79.6823 99.3974 79.6823 84.8683C79.675 58.551 79.675 58.4552 79.9107 58.4036C80.0434 58.3742 82.3494 58.3668 85.0386 58.3815C87.7278 58.3963 89.9824 58.3889 90.0487 58.3668C90.1223 58.3373 90.1592 56.7091 90.1371 53.7252L90.1076 49.1204H83.7419V46.7553C88.4499 46.7553 89.8792 46.7111 89.9529 46.6669C90.056 46.6006 90.1002 45.3997 90.115 42.0326L90.1371 37.4868L79.675 37.4278C79.7044 33.3535 79.6897 31.8579 79.6529 31.4674L79.5939 30.7601L15.333 30.7306L15.3551 34.0829Z" fill="#D5B048"/>
<path id="Vector_4" d="M37.5317 30.7822C37.7601 30.8117 38.158 30.8117 38.4158 30.7822C38.6737 30.7601 38.4895 30.738 38.0033 30.738C37.517 30.738 37.3033 30.7601 37.5317 30.7822ZM79.6528 34.1197C79.6528 34.6134 79.6749 34.8197 79.7043 34.5986C79.7264 34.3702 79.7264 33.9724 79.7043 33.7072C79.6749 33.4493 79.6528 33.6335 79.6528 34.1197ZM4.79712 39.4981C4.80449 40.0139 4.81922 40.1981 4.84869 39.9107C4.8708 39.616 4.8708 39.1887 4.84869 38.9677C4.81922 38.7393 4.79712 38.975 4.79712 39.4981Z" fill="#FFFFFE"/>
<path id="Vector_5" d="M7.17695 39.6308C7.12538 39.675 7.08854 40.8464 7.09591 42.2316L7.11801 44.7513L87.9931 44.6924C88.0373 40.2644 88.0078 39.6602 87.8973 39.616C87.8162 39.5792 69.6402 39.5571 47.515 39.5571C25.3825 39.5571 7.22853 39.5866 7.17695 39.6308V39.6308Z" fill="#43A1D5"/>
<path id="Vector_6" d="M90.1517 41.2074C90.1517 41.76 90.1665 41.9737 90.1959 41.679C90.218 41.3843 90.218 40.9348 90.1959 40.677C90.1665 40.4191 90.1517 40.6549 90.1517 41.2074ZM4.80449 43.0936C4.80449 43.6461 4.81922 43.8598 4.84869 43.5725C4.8708 43.2778 4.8708 42.8283 4.84869 42.5631C4.81922 42.3052 4.80449 42.5484 4.80449 43.0936ZM90.1517 44.9871C90.1517 45.5396 90.1665 45.7533 90.1959 45.4586C90.218 45.1639 90.218 44.7145 90.1959 44.4566C90.1665 44.1914 90.1517 44.4345 90.1517 44.9871ZM13.7194 47.9931V51.2422L81.0526 51.1833L81.0305 44.8102L13.7194 44.7513V47.9931ZM4.79712 50.1813C4.79712 50.6675 4.81922 50.8812 4.84869 50.6528C4.8708 50.4244 4.8708 50.0266 4.84869 49.7687C4.81922 49.5108 4.79712 49.695 4.79712 50.1813ZM90.1517 51.7727C90.1517 52.3621 90.1665 52.6273 90.1959 52.3621C90.218 52.1042 90.218 51.6253 90.1959 51.3012C90.1665 50.977 90.1517 51.1906 90.1517 51.7727Z" fill="#FFFFFE"/>
<path id="Vector_7" d="M7.17695 51.3233C7.12538 51.3675 7.08854 52.5316 7.09591 53.9167L7.11801 56.4365H87.9857C88.0373 52.3621 88.0004 51.3896 87.9267 51.3307C87.8604 51.2865 69.6917 51.2496 47.5445 51.2422C25.3972 51.2422 7.22853 51.2791 7.17695 51.3233Z" fill="#43A1D5"/>
<path id="Vector_8" d="M4.79712 53.6662C4.80449 54.1819 4.81922 54.3661 4.84869 54.0788C4.8708 53.7841 4.8708 53.3567 4.84869 53.1357C4.81922 52.9073 4.79712 53.1431 4.79712 53.6662ZM90.1517 55.3755C90.1517 55.9281 90.1665 56.1417 90.1959 55.847C90.218 55.5597 90.218 55.1029 90.1959 54.845C90.1665 54.5871 90.1517 54.8229 90.1517 55.3755ZM4.80449 57.269C4.80449 57.8142 4.81922 58.0279 4.84869 57.7405C4.8708 57.4458 4.8708 56.9964 4.84869 56.7311C4.81922 56.4733 4.80449 56.7164 4.80449 57.269ZM5.88017 58.411C6.07173 58.4404 6.44748 58.4404 6.70535 58.411C6.96322 58.3889 6.8085 58.3668 6.3517 58.3668C5.8949 58.3668 5.68861 58.3889 5.88017 58.411ZM9.35771 58.411C9.65242 58.4404 10.0724 58.4404 10.3008 58.411C10.5292 58.3889 10.286 58.3668 9.7703 58.3668C9.25457 58.3668 9.06301 58.3889 9.35771 58.411V58.411ZM12.8942 58.411C13.1889 58.4404 13.6089 58.4404 13.8373 58.411C14.0657 58.3889 13.8225 58.3668 13.3068 58.3668C12.7911 58.3668 12.5995 58.3889 12.8942 58.411V58.411ZM83.624 58.411C83.9187 58.4404 84.3386 58.4404 84.567 58.411C84.7954 58.3889 84.5523 58.3668 84.0365 58.3668C83.5208 58.3668 83.3292 58.3889 83.624 58.411ZM87.1604 58.411C87.4551 58.4404 87.8751 58.4404 88.1035 58.411C88.3319 58.3889 88.0888 58.3668 87.573 58.3668C87.0573 58.3668 86.8657 58.3889 87.1604 58.411Z" fill="#FFFFFE"/>
<path id="Vector_9" d="M28.9263 60.5107C28.9263 60.6065 29.221 61.2623 29.582 61.9622C29.943 62.6547 30.4882 63.5757 30.7903 63.9957C31.0924 64.4156 31.4976 64.9387 31.6892 65.1598C31.8881 65.3808 32.3596 65.8597 32.7354 66.2207C33.1185 66.5891 33.73 67.1122 34.091 67.3848C34.4594 67.6574 35.1593 68.0774 35.6456 68.3205C36.1319 68.5563 36.8981 68.8804 37.3549 69.0352C37.8117 69.1899 38.7916 69.4698 39.5357 69.6614C40.2799 69.853 41.3703 70.0887 41.9523 70.1845C42.5344 70.2877 43.2269 70.3687 43.4848 70.3761C43.7427 70.3761 44.0226 70.4129 44.1037 70.4645C44.2142 70.5308 44.2437 74.1778 44.2216 87.5354L44.1921 104.518C42.2765 105.203 41.4808 105.52 41.1861 105.675C40.8914 105.822 40.3904 106.139 40.0662 106.382C39.742 106.618 39.3221 107.001 39.1379 107.222C38.9463 107.443 38.6958 107.833 38.5779 108.099C38.46 108.356 38.3643 108.769 38.3569 109.012C38.3569 109.329 38.4379 109.535 38.6516 109.749C38.8947 109.992 39.02 110.029 39.3884 109.97C39.6315 109.933 40.1988 109.705 40.6409 109.469C41.0903 109.233 41.5692 108.975 41.7018 108.894C41.8418 108.813 42.2691 108.695 42.6596 108.629C43.0501 108.563 43.7648 108.511 44.251 108.511C44.7373 108.504 45.533 108.607 46.0193 108.732C46.5056 108.85 47.1981 109.101 47.5518 109.277C47.9791 109.491 48.5832 109.999 49.32 110.751C50.1747 111.62 50.6388 111.996 51.2945 112.328C51.7661 112.563 52.5618 112.865 53.0628 112.991C53.6743 113.153 54.3669 113.227 55.1552 113.227C55.8036 113.227 56.5993 113.16 56.9235 113.072C57.2476 112.983 57.7486 112.792 58.0433 112.644C58.3381 112.49 58.8391 112.173 59.1632 111.93C59.4874 111.694 59.9 111.289 60.0842 111.038C60.2979 110.736 60.4231 110.405 60.4378 110.088C60.4526 109.823 60.3789 109.462 60.2831 109.277C60.1873 109.101 59.9589 108.88 59.7821 108.791C59.6053 108.703 59.2959 108.629 59.1043 108.629C58.9127 108.629 58.257 108.769 57.6602 108.939C56.8719 109.16 56.4077 109.233 55.9804 109.189C55.6562 109.152 55.0742 108.968 54.6837 108.769C54.2932 108.578 53.3133 107.922 52.5028 107.325C51.6777 106.713 50.5652 106.006 49.9684 105.726C49.3863 105.454 48.5464 105.115 48.1117 104.975L47.316 104.732V87.4912H52.0313V92.2139H55.4499V78.6352L52.0903 78.6942L52.0313 83.1222H47.316L47.3086 70.3098C48.3622 70.0666 49.3716 69.7277 50.2336 69.4109C51.0956 69.0941 52.2081 68.7331 52.7091 68.6005C53.2102 68.4752 54.1016 68.3205 54.6837 68.2542C55.3173 68.1952 56.1277 68.1879 56.6877 68.2542C57.2034 68.3131 57.9476 68.4678 58.3381 68.6005C58.7285 68.7331 59.3106 68.9983 59.6348 69.1825C59.9589 69.3593 60.6515 69.8309 61.1672 70.2214C61.683 70.6118 62.6113 71.2455 63.2302 71.6359C63.8491 72.0191 64.6448 72.4538 64.9984 72.6085C65.3521 72.7558 65.912 72.9032 66.2362 72.9327C66.6046 72.9695 66.9803 72.9253 67.2382 72.8148C67.4666 72.719 67.7982 72.4759 67.975 72.2769C68.1518 72.0706 68.336 71.7096 68.3728 71.4665C68.417 71.2234 68.417 70.4129 68.3802 69.6614C68.3434 68.9173 68.2107 67.93 68.0855 67.4806C67.9676 67.0238 67.7245 66.3828 67.555 66.0586C67.3929 65.7344 67.0245 65.1819 66.7372 64.8208C66.4572 64.4672 65.8531 63.8925 65.4037 63.5536C64.9542 63.2147 64.2175 62.78 63.7607 62.5884C63.3039 62.3969 62.6187 62.1537 62.2282 62.0506C61.8377 61.9474 61.042 61.8075 60.4599 61.7411C59.6863 61.6454 59.0306 61.6454 58.0433 61.7411C57.2992 61.8148 56.393 61.9474 56.0393 62.0285C55.6857 62.1169 54.4627 62.4853 53.328 62.8463C52.1934 63.2073 50.7051 63.6125 50.0273 63.7452C49.3495 63.8778 48.2296 64.0472 47.5518 64.1135C46.8739 64.1799 45.1867 64.2314 43.809 64.2314C42.2765 64.2314 40.7661 64.1651 39.9188 64.0546C39.16 63.9588 38.0033 63.7673 37.3549 63.6273C36.7065 63.4947 35.5646 63.1999 34.8204 62.9715C34.0763 62.7432 32.9048 62.3232 32.227 62.0211C31.5492 61.7264 30.6945 61.3212 30.3409 61.1223C29.9872 60.9307 29.5452 60.6655 29.3683 60.5476C29.1915 60.4297 29.0147 60.3339 28.9852 60.3339C28.9557 60.3339 28.9263 60.415 28.9263 60.5107V60.5107Z" fill="#173E69"/>
<path id="Vector_10" d="M79.6527 62.4632C79.6527 62.9495 79.6748 63.1631 79.7043 62.9347C79.7264 62.7063 79.7264 62.3085 79.7043 62.0506C79.6748 61.7854 79.6527 61.9769 79.6527 62.4632Z" fill="#FFFFFE"/>
<path id="Vector_11" d="M5.4455 69.1015C5.27604 69.3815 4.88555 70.3466 4.58348 71.2602C4.27404 72.1664 3.92775 73.36 3.8025 73.9126C3.66989 74.4652 3.5078 75.2093 3.42675 75.5629L3.2794 76.2187C2.85207 74.9367 2.48369 74.1041 2.18161 73.5442C1.87954 72.9843 1.40801 72.277 1.1354 71.9823C0.862799 71.6802 0.60493 71.4444 0.575459 71.4665C0.545988 71.4813 0.457576 71.8349 0.376532 72.2622C0.266016 72.8811 0.280752 73.4116 0.442841 75.0325C0.545988 76.1376 0.708077 77.2796 0.79649 77.5743C0.884902 77.869 0.995417 78.3995 1.04699 78.7532C1.0912 79.1142 1.20908 79.6962 1.30486 80.0499C1.39327 80.4109 1.5701 81.074 1.69535 81.5308C1.81323 81.9802 2.12267 82.9969 2.38054 83.7705C2.63841 84.5515 2.91838 85.3472 2.99943 85.5462C3.0731 85.7377 3.37518 86.3787 3.65515 86.9608C3.94249 87.5428 4.34771 88.2501 4.55401 88.5301L4.93713 89.0458C4.70873 90.5414 4.40665 91.7203 4.12668 92.6265C3.84671 93.5401 3.52253 94.6821 3.41202 95.1683C3.3015 95.6546 3.15415 96.2367 3.08784 96.4651L2.96259 96.8777C2.37317 95.4115 2.049 94.6894 1.8648 94.3284C1.67324 93.9674 1.28276 93.3706 0.988049 93.0022C0.693342 92.6339 0.391267 92.3318 0.310223 92.3318C0.22181 92.3318 0.133398 92.5602 0.0891921 92.8917C0.044986 93.2012 0.044986 94.0632 0.0818244 94.8147C0.126031 95.5588 0.207075 96.5977 0.273384 97.1134C0.339693 97.6365 0.501782 98.5354 0.641768 99.1248C0.781754 99.7068 0.914373 100.37 0.943843 100.598C0.973314 100.827 1.20908 101.726 1.47432 102.602C1.74692 103.479 2.16688 104.798 2.41738 105.527C2.66788 106.257 3.09521 107.296 3.36781 107.826C3.63305 108.364 4.0309 109.042 4.24456 109.336L4.62768 109.867C4.44349 111.237 4.42876 112.247 4.4656 112.998C4.5098 113.742 4.56137 114.59 4.59821 114.884C4.62768 115.179 4.70873 115.813 4.76767 116.299C4.83398 116.785 4.90766 117.308 4.94449 117.456C4.97397 117.596 4.95923 117.713 4.90766 117.713C4.85608 117.713 4.63505 117.463 4.40665 117.161C4.17826 116.859 3.62568 116.247 3.16888 115.805C2.71209 115.363 2.30686 115.002 2.25529 115.002C2.20372 115.002 2.10057 114.936 2.01952 114.847C1.93848 114.766 1.62167 114.553 1.31223 114.376L0.752283 114.059C0.744916 114.744 0.818593 115.157 0.914372 115.415C1.00278 115.673 1.23855 116.247 1.44485 116.682C1.64377 117.124 1.81323 117.507 1.81323 117.544C1.81323 117.573 2.19635 118.303 2.66788 119.165C3.13204 120.027 3.57411 120.786 3.64778 120.845C3.72146 120.911 4.10458 121.508 4.50243 122.178C4.90766 122.841 5.28341 123.387 5.34972 123.387C5.41603 123.387 5.4676 123.453 5.47497 123.534C5.47497 123.615 5.67389 123.947 5.91703 124.271C6.15279 124.595 6.55065 125.096 6.80115 125.391C7.04428 125.685 7.35373 126.054 7.48635 126.216C7.61896 126.385 8.23785 127.041 8.8641 127.682C9.49035 128.323 10.1387 128.912 10.3008 128.993C10.4629 129.082 11.0744 129.664 11.6565 130.305C12.2385 130.938 13.0858 131.727 13.5426 132.066C13.9994 132.405 14.5446 132.751 14.7582 132.839C14.9719 132.935 15.1414 133.046 15.1414 133.097C15.134 133.149 15.2298 133.215 15.3403 133.245C15.4508 133.281 15.6497 133.377 15.7824 133.451C15.915 133.532 16.2539 133.775 16.5486 133.989C16.8433 134.202 17.1748 134.372 17.2854 134.372C17.3959 134.364 17.4917 134.409 17.4917 134.453C17.4843 134.504 17.779 134.674 18.1326 134.836C18.4863 134.998 18.7515 135.175 18.7221 135.219C18.6926 135.271 17.86 135.3 16.8728 135.285C15.8266 135.271 14.7951 135.322 14.3972 135.403C13.9331 135.506 13.6826 135.617 13.6015 135.786C13.5352 135.912 13.4836 136.03 13.4836 136.052C13.4763 136.066 13.5721 136.184 13.6899 136.317C13.8004 136.442 14.0067 136.612 14.132 136.685C14.2646 136.759 14.5814 136.855 14.8393 136.899C15.0972 136.943 15.5098 137.061 15.7529 137.149C15.996 137.245 16.3423 137.319 16.5191 137.319C16.6959 137.319 17.1748 137.429 17.5801 137.555C17.9853 137.687 18.5821 137.79 18.9063 137.79C19.2304 137.79 19.5251 137.842 19.5546 137.908C19.5841 137.975 19.8419 138.026 20.1146 138.026C20.3872 138.026 20.9103 138.078 21.2639 138.137C21.6176 138.203 22.207 138.284 22.5606 138.321C22.9143 138.358 24.1668 138.439 25.3309 138.505C26.495 138.564 27.9317 138.579 28.5137 138.535C29.0958 138.49 29.6262 138.446 29.6925 138.439C29.7588 138.431 29.9946 138.387 30.223 138.343C30.4514 138.299 30.9377 138.232 31.3134 138.203C31.8071 138.159 32.0134 138.188 32.0797 138.306C32.1312 138.395 32.3007 138.49 32.4628 138.527C32.6249 138.557 33.5016 138.785 34.4079 139.028C35.3141 139.271 36.1245 139.529 36.2129 139.603C36.294 139.677 36.3235 139.772 36.2719 139.816C36.2203 139.861 35.9403 140.023 35.6456 140.185C35.3509 140.347 34.7689 140.664 34.3489 140.885C33.929 141.106 33.3469 141.445 33.0522 141.629C32.7575 141.813 32.2639 142.182 31.9544 142.447C31.6376 142.712 31.284 143.11 31.1513 143.338C31.0261 143.567 30.9524 143.78 30.9966 143.81C31.0335 143.847 31.7923 143.891 32.6764 143.913C33.5679 143.935 34.8204 143.883 35.4688 143.81C36.1172 143.729 37.1486 143.515 37.7675 143.331C38.3864 143.147 39.5358 142.734 40.3241 142.425C41.1198 142.115 41.7682 141.902 41.7682 141.953C41.7755 142.005 41.7313 142.056 41.6871 142.071C41.6356 142.086 41.2672 142.498 40.8767 142.985C40.4788 143.471 39.8305 144.377 39.4326 144.996C38.8727 145.858 38.7106 146.212 38.7106 146.558V147H41.2451C41.5619 145.946 41.8566 145.246 42.0997 144.76C42.3502 144.267 42.8512 143.419 43.2122 142.867C43.5806 142.314 44.1848 141.526 44.5679 141.113C44.9436 140.693 45.4004 140.281 45.5773 140.192C45.7909 140.089 46.3361 140.03 47.1982 140.03C48.0602 140.03 48.6054 140.089 48.819 140.192C48.9959 140.281 49.4527 140.693 49.8284 141.113C50.2042 141.526 50.823 142.314 51.1914 142.867C51.5672 143.419 52.0903 144.326 52.3482 144.878C52.606 145.423 52.8934 146.131 52.9818 146.44L53.1512 147H55.6857C55.6857 146.359 55.5899 145.976 55.4647 145.733C55.3468 145.49 55.0374 145.003 54.7869 144.65C54.5364 144.303 54.028 143.64 53.6596 143.176C53.2912 142.712 52.9081 142.24 52.805 142.13C52.7018 142.019 52.6208 141.894 52.6208 141.865C52.6208 141.828 53.2691 142.078 54.0648 142.41C54.8605 142.749 55.7741 143.095 56.0983 143.191C56.4225 143.287 56.953 143.434 57.2771 143.53C57.6013 143.618 58.2128 143.736 58.6328 143.78C59.0527 143.832 60.2832 143.869 61.3662 143.869C62.4419 143.869 63.3628 143.832 63.3997 143.78C63.4365 143.736 63.3776 143.545 63.2671 143.368C63.1565 143.191 62.825 142.793 62.5303 142.484C62.2356 142.174 61.9556 141.924 61.904 141.924C61.8525 141.924 61.5651 141.754 61.2557 141.555C60.9462 141.349 60.2168 140.944 59.6348 140.656C59.0527 140.362 58.456 140.023 58.3086 139.898C58.1097 139.735 58.0802 139.654 58.1907 139.573C58.2718 139.507 58.5517 139.411 58.8096 139.345C59.0675 139.279 59.598 139.139 59.9884 139.036C60.3789 138.925 61.1967 138.711 61.8156 138.557C62.7734 138.313 63.046 138.284 63.7018 138.38C64.1217 138.439 65.1606 138.52 66.0005 138.564C66.8404 138.601 68.3802 138.579 69.4191 138.512C70.4579 138.446 71.8062 138.336 72.4251 138.269C73.044 138.203 74.046 138.063 74.6649 137.96C75.2838 137.857 76.4184 137.65 77.1994 137.496C77.9803 137.341 78.8497 137.135 79.1444 137.046C79.4391 136.958 80.1096 136.715 80.6474 136.508C81.2442 136.28 81.6052 136.081 81.5831 135.993C81.561 135.912 81.119 135.72 80.6106 135.573C79.8886 135.366 79.2476 135.285 77.7888 135.234C75.9468 135.16 75.91 135.153 76.2858 134.969C76.4994 134.865 77.2951 134.409 78.0466 133.952C78.8055 133.495 79.476 133.068 79.5496 133.001C79.616 132.928 79.9033 132.729 80.1759 132.559C80.4485 132.383 81.0895 131.882 81.5905 131.439C82.0915 130.997 82.7177 130.364 82.9756 130.032C83.2335 129.701 83.6608 129.288 83.9187 129.126C84.1765 128.957 84.9207 128.271 85.569 127.608C86.2174 126.938 87.0205 126.076 87.352 125.685C87.6836 125.295 88.1256 124.713 88.3467 124.389C88.5677 124.064 88.9434 123.534 89.1866 123.21C89.4371 122.886 89.7023 122.539 89.7834 122.444C89.857 122.34 89.9823 122.156 90.0486 122.031C90.1149 121.898 90.358 121.5 90.5938 121.139C90.8222 120.786 91.279 120.012 91.5958 119.43C91.9126 118.848 92.2294 118.237 92.3031 118.074C92.3768 117.912 92.6494 117.323 92.9072 116.77C93.1651 116.225 93.4451 115.555 93.5188 115.297C93.5998 115.039 93.644 114.656 93.6219 114.45L93.5851 114.074C92.4652 114.752 91.9568 115.105 91.7432 115.304C91.5221 115.503 91.0506 115.982 90.6969 116.365C90.3359 116.756 89.9233 117.227 89.776 117.426C89.636 117.618 89.4886 117.75 89.4665 117.721C89.4371 117.684 89.4886 117.183 89.5771 116.594C89.6655 116.012 89.7686 115.245 89.7981 114.884C89.8349 114.531 89.8939 113.654 89.9307 112.939C89.9749 112.225 89.9528 111.237 89.8865 110.751C89.776 109.904 89.7834 109.852 90.056 109.484C90.2107 109.27 90.3433 109.071 90.3433 109.042C90.3433 109.005 90.5643 108.592 90.8369 108.128C91.1022 107.657 91.559 106.684 91.8463 105.969C92.1336 105.255 92.4062 104.459 92.4578 104.201C92.5168 103.936 92.7452 103.118 92.9662 102.367C93.1946 101.622 93.4672 100.561 93.5703 100.009C93.6809 99.4563 93.8503 98.6017 93.9461 98.1154C94.0492 97.6291 94.1745 96.944 94.2261 96.5829C94.285 96.2293 94.3292 95.1904 94.3366 94.2842C94.3366 93.3706 94.2997 92.5381 94.2555 92.4276C94.2113 92.3171 94.1155 92.2581 94.0419 92.3097C93.9756 92.3539 93.6809 92.6854 93.3861 93.0391C93.0988 93.4001 92.7746 93.8201 92.6641 93.9821C92.561 94.1516 92.2368 94.8663 91.9494 95.5809L91.4263 96.8777C91.2274 96.1482 91.0432 95.4557 90.8885 94.8736C90.7338 94.2842 90.5643 93.599 90.5201 93.3338C90.4759 93.0759 90.2844 92.4644 90.1002 91.9781C89.9086 91.4919 89.6949 90.6299 89.6065 90.0699L89.4592 89.0458C90.0265 88.2501 90.4906 87.4102 90.8517 86.666C91.22 85.9219 91.6547 84.9125 91.8168 84.4189C91.9863 83.9326 92.2736 83.0043 92.4578 82.356C92.642 81.7076 92.8999 80.7498 93.0325 80.2341C93.1651 79.7109 93.364 78.8047 93.4746 78.2227C93.5851 77.6406 93.7251 76.867 93.7766 76.5134C93.8356 76.1524 93.9314 75.5187 93.9977 75.0914C94.064 74.6715 94.1229 74.2736 94.1229 74.2073C94.1229 74.141 94.0934 73.5295 94.0566 72.8516C94.0198 72.1664 93.9387 71.5549 93.8872 71.496C93.8208 71.4223 93.6145 71.5697 93.3272 71.8865C93.0841 72.1738 92.7231 72.6232 92.5389 72.8958C92.3547 73.1611 92.0894 73.6473 91.9421 73.9715C91.7947 74.2957 91.5516 74.9367 91.4042 75.3861L91.1243 76.2187C90.7264 74.4799 90.4464 73.3895 90.2475 72.6748C90.0486 71.9602 89.717 70.9213 89.5181 70.3687C89.3192 69.8162 89.0687 69.212 88.9582 69.0204C88.8403 68.8363 88.7003 68.6594 88.634 68.6373C88.5677 68.6152 88.4203 68.792 88.2951 69.0425C88.1772 69.2857 87.9046 69.934 87.6909 70.4866C87.4404 71.135 87.1678 72.2328 86.9321 73.5589C86.7331 74.6936 86.5416 75.7471 86.5121 75.8945C86.4753 76.0345 86.4016 76.1597 86.3353 76.1597C86.269 76.1597 85.9522 75.5335 85.6206 74.7672C85.2891 74.0084 84.987 73.3526 84.9354 73.3232C84.8912 73.2937 84.6849 72.999 84.4713 72.6748C84.265 72.3506 83.9776 71.9454 83.8303 71.7833C83.6829 71.6212 83.4692 71.4444 83.3587 71.4002C83.1819 71.3265 83.1524 71.3855 83.1524 71.7612C83.1524 72.0044 83.204 72.8001 83.2703 73.5295C83.3366 74.2589 83.5503 75.8134 83.7419 76.9849C83.9334 78.149 84.1397 79.2247 84.1986 79.372C84.2576 79.5194 84.3902 80.013 84.5007 80.4698C84.6039 80.9192 84.7954 81.6413 84.928 82.0612C85.0607 82.4812 85.2522 83.0927 85.3554 83.4169C85.4585 83.7411 85.6353 84.1979 85.7532 84.4189C85.8711 84.6473 86.1658 85.2588 86.409 85.7819C86.6521 86.2977 87.0499 87.0565 87.3004 87.4618C87.5436 87.867 87.7499 88.2501 87.7499 88.3164C87.7499 88.3827 87.7867 88.4343 87.8383 88.4343C87.8899 88.4343 87.9709 89.0311 88.0151 89.7605C88.1035 91.0424 88.0962 91.1309 87.7572 92.155C87.5657 92.737 87.271 93.9379 87.1089 94.8147C86.9468 95.6915 86.8068 96.5756 86.8068 96.7892C86.8068 97.0029 86.77 97.1724 86.7184 97.1797C86.6668 97.1797 86.4532 96.7671 86.2321 96.2661C86.0111 95.7578 85.7238 95.102 85.5911 94.8147C85.4585 94.52 85.1933 94.0411 85.0017 93.7464C84.8102 93.459 84.4344 92.9949 84.1692 92.7149C83.9039 92.4349 83.6019 92.2139 83.5061 92.2139C83.3587 92.2139 83.344 92.3318 83.4177 92.9507C83.4693 93.3559 83.5577 94.2769 83.624 94.9915C83.6903 95.7062 83.7934 96.524 83.8524 96.8187C83.9113 97.1134 84.0218 97.7249 84.0955 98.1744C84.1692 98.6312 84.3681 99.5595 84.5302 100.245C84.6923 100.923 84.8544 101.615 84.8838 101.777C84.9133 101.939 84.987 102.182 85.0386 102.308C85.0901 102.44 85.2522 102.89 85.3848 103.317C85.5175 103.737 85.628 104.172 85.628 104.29C85.628 104.4 85.6796 104.496 85.7459 104.496C85.8122 104.496 85.8637 104.577 85.8637 104.673C85.8637 104.768 86.0479 105.233 86.269 105.704C86.49 106.176 86.6963 106.669 86.7331 106.795C86.77 106.927 87.1531 107.59 87.573 108.275C88.3098 109.462 88.3393 109.543 88.3467 110.279C88.3467 110.965 88.3024 111.112 87.9414 111.635C87.713 111.959 87.352 112.497 87.1236 112.821C86.9026 113.145 86.3426 114.059 85.8785 114.855C85.4143 115.65 85.0017 116.299 84.9502 116.299C84.8986 116.299 84.8249 115.569 84.7733 114.678C84.7291 113.786 84.6481 113.028 84.5965 112.998C84.5449 112.961 84.4418 112.696 84.3681 112.401C84.2944 112.114 84.1176 111.62 83.985 111.311C83.8524 111.001 83.6903 110.751 83.624 110.751C83.5577 110.751 83.4766 110.898 83.4398 111.075C83.4029 111.252 83.2703 111.746 83.1451 112.166C83.0198 112.593 82.7546 113.624 82.5557 114.472C82.3567 115.319 82.1357 116.431 82.0768 116.947C82.0104 117.47 81.9073 118.163 81.841 118.487C81.782 118.811 81.6789 119.902 81.6126 120.904C81.5463 122.046 81.5389 123.409 81.6052 124.506C81.6715 125.597 81.8189 126.739 81.9883 127.476L82.2683 128.669C81.5389 129.399 81.2147 129.738 81.0748 129.892C80.8611 130.135 80.6843 130.187 79.7191 130.261C79.1149 130.305 77.8477 130.489 76.9046 130.658C75.9616 130.828 74.9596 130.99 74.6649 131.019L74.1344 131.078C74.5912 130.681 74.8859 130.43 75.0775 130.261C75.269 130.091 75.7479 129.664 76.1384 129.303C76.5289 128.949 77.0078 128.448 77.1994 128.19C77.3909 127.932 77.6709 127.535 77.8109 127.299C77.9509 127.063 78.0687 126.776 78.0761 126.665C78.0761 126.547 78.054 126.459 78.0245 126.459C77.9951 126.459 77.2657 126.768 76.4036 127.159C75.5416 127.542 74.6796 127.932 74.488 128.013C73.367 128.549 72.2614 129.117 71.1726 129.715C70.9737 129.841 70.4432 130.15 69.9938 130.408C69.5517 130.673 68.8886 131.093 68.535 131.358C68.1813 131.616 67.7245 131.933 67.533 132.058C67.3414 132.176 66.7593 132.604 66.2436 133.001C65.7352 133.392 64.829 134.18 64.2396 134.74C63.6502 135.3 63.0092 135.978 62.8176 136.243C62.6261 136.508 62.3682 136.722 62.2577 136.722C62.1472 136.729 61.5578 136.538 60.961 136.302C60.3642 136.066 59.8337 135.853 59.7822 135.831C59.7306 135.801 59.8264 135.639 59.9884 135.455C60.1505 135.278 60.5558 134.792 60.8873 134.364C61.2262 133.944 61.6462 133.267 61.8304 132.861C62.0146 132.456 62.2209 131.911 62.2872 131.653C62.3682 131.336 62.3682 131.159 62.2872 131.123C62.2209 131.086 61.3883 131.277 60.4305 131.535C59.4727 131.793 58.2423 132.147 57.6897 132.309C57.1372 132.478 56.1278 132.773 55.45 132.965C54.7721 133.163 53.7112 133.569 53.0923 133.871C52.1713 134.328 51.7956 134.608 50.963 135.425C50.4105 135.978 49.7179 136.744 49.4306 137.12L48.9075 137.798H45.4888C44.8502 136.97 44.1586 136.185 43.4185 135.447C42.4607 134.504 42.1439 134.276 41.1861 133.819C40.5672 133.524 39.5873 133.149 39.0053 132.987C38.4232 132.825 37.0971 132.434 36.0582 132.125C35.0194 131.808 33.7374 131.447 33.1996 131.307C32.6617 131.174 32.1975 131.064 32.1681 131.064C32.1386 131.064 32.1091 131.152 32.1091 131.27C32.1091 131.38 32.2049 131.793 32.3228 132.184C32.4481 132.574 32.6175 133.023 32.6986 133.186C32.787 133.348 33.229 133.974 33.6932 134.578C34.15 135.182 34.5773 135.676 34.6363 135.668C34.7099 135.668 34.7099 135.705 34.6363 135.779C34.5773 135.845 34.0247 136.088 33.4058 136.317C32.787 136.545 32.2049 136.729 32.1091 136.737C32.0134 136.737 31.7997 136.612 31.6302 136.464C31.4681 136.317 31.2692 136.052 31.1882 135.875C31.1145 135.691 30.864 135.425 30.6356 135.278C30.4146 135.138 30.223 134.961 30.2304 134.895C30.2304 134.836 29.8988 134.475 29.4862 134.099C29.081 133.731 28.5358 133.274 28.2706 133.097C28.0053 132.92 27.5559 132.589 27.2686 132.36C26.9812 132.132 26.6571 131.896 26.5465 131.83C26.436 131.764 26.1413 131.572 25.8982 131.403C25.1724 130.91 24.4328 130.439 23.6805 129.988C23.4226 129.841 22.5975 129.391 21.8533 128.993C21.1092 128.588 20.3135 128.183 20.0851 128.08C19.8567 127.977 18.9799 127.594 18.14 127.232C17.3001 126.864 16.5412 126.569 16.4602 126.569C16.3791 126.569 16.3128 126.584 16.3128 126.606C16.3055 126.621 16.3865 126.835 16.4897 127.078C16.5854 127.321 16.9391 127.851 17.278 128.257C17.6169 128.662 18.1842 129.273 18.5452 129.612C18.9063 129.951 19.3041 130.268 19.4367 130.312C19.5693 130.356 19.8714 130.541 20.1146 130.725C20.4387 130.968 20.505 131.078 20.3798 131.123C20.284 131.152 20.0851 131.182 19.9377 131.182C19.7904 131.182 19.4588 131.108 19.201 131.019C18.9431 130.931 18.3831 130.821 17.9632 130.784C17.5432 130.74 16.9022 130.629 16.5486 130.526C16.1949 130.43 15.3771 130.312 14.7361 130.261L13.5721 130.172C12.4964 129.074 12.1869 128.677 12.1869 128.581C12.1943 128.485 12.2459 128.19 12.3122 127.932C12.3859 127.675 12.5332 126.739 12.6437 125.862C12.7616 124.934 12.8427 123.585 12.8353 122.62C12.8279 121.707 12.7542 120.3 12.6732 119.489C12.5921 118.679 12.4743 117.853 12.4153 117.662C12.3564 117.463 12.3048 117.146 12.3048 116.947C12.3048 116.756 12.2311 116.255 12.1427 115.827C12.0543 115.407 11.8922 114.744 11.7891 114.354C11.6859 113.963 11.5459 113.352 11.4796 112.998C11.4133 112.637 11.2365 111.989 11.0965 111.547C10.9492 111.105 10.7797 110.766 10.7134 110.788C10.6471 110.81 10.4408 111.252 10.2566 111.768C10.0724 112.276 9.87347 112.807 9.80716 112.939C9.74822 113.064 9.66718 113.875 9.6156 114.737C9.5714 115.599 9.49035 116.321 9.43141 116.336C9.37247 116.35 9.13671 116.004 8.90094 115.569C8.66517 115.127 8.20838 114.332 7.89157 113.794C7.56739 113.256 7.08849 112.527 6.81589 112.166C6.55065 111.812 6.27068 111.399 6.18963 111.252C6.11596 111.105 6.05701 110.655 6.04965 110.25C6.04965 109.565 6.09385 109.447 6.61696 108.629C6.9264 108.143 7.48635 107.089 7.85473 106.294C8.23048 105.498 8.53256 104.783 8.53256 104.702C8.52519 104.621 8.56939 104.511 8.62097 104.452C8.66517 104.393 8.80516 104.076 8.91568 103.744C9.03356 103.405 9.29143 102.529 9.49035 101.777C9.68928 101.033 9.92505 100.105 10.0061 99.7142C10.0871 99.3237 10.2713 98.3954 10.4039 97.6439C10.5439 96.8997 10.6544 96.0893 10.6544 95.8462C10.6544 95.603 10.6987 95.3083 10.7576 95.1978C10.8165 95.0799 10.8828 94.3653 10.9049 93.599C10.9418 92.5455 10.9123 92.2139 10.8018 92.2139C10.7208 92.2139 10.4039 92.4939 10.0945 92.8402C9.78506 93.1864 9.40931 93.7095 9.26196 93.9969L8.8199 94.8147C8.73148 94.9768 8.46625 95.5736 8.23785 96.1409C8.00945 96.7082 7.78842 97.1724 7.73685 97.1724C7.68527 97.1797 7.58212 96.7082 7.49371 96.1409C7.41267 95.5736 7.28742 94.8442 7.22111 94.52C7.16217 94.1958 7.05902 93.6506 6.99271 93.3043C6.93377 92.9654 6.74958 92.3318 6.58012 91.8897C6.29278 91.1382 6.28541 91.0203 6.37383 89.7605C6.4254 89.0311 6.49908 88.4343 6.52855 88.4343C6.55802 88.4343 6.69064 88.2206 6.82325 87.9628C6.95587 87.6975 7.08849 87.4912 7.11796 87.4912C7.14743 87.4986 7.43477 86.9534 7.75158 86.2829C8.06102 85.6198 8.41467 84.8831 8.52519 84.6547C8.6357 84.4336 8.94515 83.579 9.21775 82.7685C9.48299 81.9581 9.85874 80.654 10.0577 79.873C10.2492 79.0994 10.4924 78.0311 10.5881 77.5154C10.6839 76.9923 10.8755 75.7324 11.0081 74.7083C11.1333 73.6842 11.2439 72.5348 11.2439 72.1443C11.2439 71.6581 11.1997 71.4297 11.0965 71.4297C11.0155 71.4223 10.765 71.6212 10.5366 71.8717C10.3082 72.1149 9.87347 72.719 9.5714 73.2053C9.26932 73.6916 8.8641 74.4873 8.65781 74.9735C8.45888 75.4598 8.24522 75.9387 8.17891 76.0418C8.07576 76.1966 8.04629 76.1966 7.95051 76.0418C7.89157 75.9387 7.78105 75.4082 7.70738 74.8557C7.6337 74.3031 7.49371 73.4853 7.39793 73.0285C7.30215 72.5717 7.1769 71.9896 7.11796 71.7317C7.06639 71.4665 6.83799 70.8034 6.60959 70.2508C6.38856 69.6983 6.13069 69.1015 6.04228 68.9247C5.95387 68.7405 5.85072 68.5931 5.81388 68.6005C5.78441 68.6005 5.61495 68.8289 5.4455 69.1015V69.1015Z" fill="#D5B048"/>
<path id="Vector_12" d="M79.6527 73.1463C79.6601 73.6621 79.6748 73.8536 79.7043 73.5589C79.7264 73.2642 79.7264 72.8443 79.7043 72.6159C79.6748 72.3875 79.6527 72.6232 79.6527 73.1463Z" fill="#FFFFFE"/>
<path id="Vector_13" d="M29.8251 74.7083C29.7957 74.7599 29.1031 76.926 28.2779 79.5194C27.4527 82.1202 26.7012 84.5073 26.6055 84.8389C26.5097 85.163 26.355 85.664 26.2518 85.9588C26.156 86.2461 25.3972 88.6406 24.5646 91.2709C23.7321 93.9011 22.9216 96.4503 22.7669 96.9366C22.6122 97.4229 22.3838 98.1523 22.2585 98.5575L22.0301 99.2943L19.6135 99.3016C19.6135 102.411 19.6504 103.332 19.7019 103.346C19.7535 103.369 21.7502 103.354 24.1446 103.317L28.4989 103.258L28.4621 99.3606C25.4045 99.3016 25.3898 99.2943 25.4487 99.0364C25.4782 98.889 25.6771 98.0344 25.8908 97.1429L26.2739 95.522C33.8626 95.522 34.8278 95.5515 34.8646 95.6694C34.8941 95.7504 35.093 96.5756 35.3067 97.5039C35.5277 98.4322 35.6824 99.2132 35.653 99.2427C35.6309 99.2721 34.9236 99.3016 34.091 99.3016H32.5806V103.192H41.5397V99.3016C38.9905 99.3016 38.9463 99.2869 38.8947 99.0364C38.8653 98.889 37.8559 95.1831 36.655 90.7993C35.454 86.4156 34.2973 82.216 34.0984 81.4718C33.8921 80.7203 33.5237 79.3942 33.2806 78.5174C33.0374 77.6406 32.7133 76.4692 32.5733 75.924C32.4259 75.3714 32.2491 74.8483 32.1754 74.7672C32.087 74.6567 31.7113 74.6125 30.9671 74.6199C30.3703 74.6199 29.8546 74.6641 29.8251 74.7083V74.7083ZM63.0607 74.7672C63.0313 74.8483 62.7587 75.6882 62.464 76.6313C62.1619 77.5743 61.7567 78.8489 61.5577 79.4605C61.3662 80.0793 61.0567 81.0592 60.8725 81.6487C60.6884 82.2307 60.2389 83.6674 59.8779 84.8389C59.5095 86.003 58.9127 87.8891 58.5517 89.0237C58.1981 90.1657 57.5129 92.3171 57.034 93.8053C56.5625 95.301 55.973 97.1503 55.7225 97.9165L55.2731 99.309L52.8565 99.3016L52.9155 103.376C53.6006 103.376 55.6047 103.361 57.8076 103.346L61.8156 103.317V99.3016C59.4432 99.3016 58.7286 99.2574 58.7064 99.2132C58.6843 99.1616 58.8391 98.4322 59.0527 97.5849C59.2664 96.745 59.4432 95.9346 59.4506 95.7872C59.4579 95.6031 59.539 95.5146 59.7232 95.4925C59.8705 95.4778 61.8156 95.4852 64.048 95.522L68.115 95.581L68.9254 98.9775L69.0065 99.3016H65.8236L65.8826 103.133H74.8417L74.9006 99.3016L72.263 99.2427C71.1873 95.3967 70.62 93.3485 70.3032 92.2139C69.9864 91.0793 69.6254 89.7531 69.4927 89.2595C69.3675 88.7732 68.8591 86.9166 68.3655 85.1336C67.8792 83.3432 67.334 81.3761 67.1645 80.7645C67.0025 80.1457 66.6783 78.9742 66.4572 78.1637C66.2362 77.3533 65.9783 76.425 65.8826 76.1008C65.7942 75.7766 65.6689 75.3198 65.6173 75.0914L65.5142 74.6788C63.4218 74.6199 63.0976 74.6494 63.0607 74.7672V74.7672Z" fill="#173E69"/>
<path id="Vector_14" d="M79.6527 76.6313C79.6527 77.1175 79.6748 77.3312 79.7043 77.1028C79.7264 76.8744 79.7264 76.4766 79.7043 76.2187C79.6748 75.9535 79.6527 76.145 79.6527 76.6313Z" fill="#FFFFFE"/>
<path id="Vector_15" d="M64.1291 81.0887C64.0997 81.1329 63.967 81.5455 63.8418 82.0023C63.7092 82.4591 63.3334 83.7337 63.0019 84.8388C62.6703 85.9366 62.2651 87.2702 62.1104 87.7859C61.9557 88.309 61.6168 89.4363 61.3515 90.2983C61.0863 91.1529 60.8726 91.8897 60.8726 91.9192C60.8726 91.9486 62.2504 91.9781 63.9376 91.9781C65.6248 91.9781 67.0025 91.9413 67.0025 91.8897C67.0099 91.8381 66.4205 89.37 65.6984 86.4008C64.9764 83.4316 64.3428 81.0003 64.2839 81.0003C64.2323 81.0003 64.1586 81.0371 64.1291 81.0887V81.0887ZM30.7756 81.3171C30.7388 81.435 30.5399 82.0907 30.3409 82.7685C30.1347 83.4537 29.8178 84.5147 29.6263 85.1335C29.4421 85.7451 28.9116 87.4986 28.4622 89.0237C28.0054 90.5562 27.6296 91.8381 27.6296 91.8897C27.6296 91.9413 29.0074 91.9781 30.6946 91.9781H33.7595C33.6638 91.4771 33.067 89.0458 32.3671 86.2608C31.6745 83.4758 31.0482 81.1771 30.9746 81.1476C30.9083 81.1255 30.8125 81.1992 30.7756 81.3171V81.3171Z" fill="#D5B048"/>
<path id="Vector_16" d="M79.6527 87.3144C79.6601 87.8375 79.6748 88.0217 79.7043 87.727C79.7264 87.4323 79.7264 87.0123 79.7043 86.7839C79.6748 86.5555 79.6527 86.7987 79.6527 87.3144ZM79.6527 90.7993C79.6527 91.2856 79.6748 91.4992 79.7043 91.2708C79.7264 91.0424 79.7264 90.6446 79.7043 90.3867C79.6748 90.1215 79.6527 90.313 79.6527 90.7993ZM79.6527 101.482C79.6601 102.006 79.6748 102.19 79.7043 101.895C79.7264 101.608 79.7264 101.18 79.7043 100.952C79.6748 100.724 79.6527 100.967 79.6527 101.482ZM79.6527 104.967C79.6527 105.454 79.6748 105.667 79.7043 105.439C79.7264 105.21 79.7264 104.813 79.7043 104.555C79.6748 104.297 79.6527 104.481 79.6527 104.967Z" fill="#FFFFFE"/>
</g>
</svg>
