<svg width="83" height="160" viewBox="0 0 83 160" fill="none" xmlns="http://www.w3.org/2000/svg">
<g id="belgica">
<path id="polygon8" d="M42.2346 3.13058V0H39.9704V3.13058H36.8398V5.39471H39.9704V8.53045H42.2346V5.39471H45.3703V3.13058H42.2346Z" fill="#B59C56"/>
<path id="rect10" d="M55.1745 28.2216H27.0354V30.4858H55.1745V28.2216Z" fill="#B59C56"/>
<path id="rect12" d="M55.1745 23.6728H27.0354V25.9369H55.1745V23.6728Z" fill="#B59C56"/>
<path id="rect14" d="M42.2345 10.7894H39.9703V21.3983H42.2345V10.7894Z" fill="#B59C56"/>
<path id="path16" d="M28.2628 20.6299C27.4119 19.0414 26.5351 17.3961 26.5351 16.1274C26.5688 15.6348 26.7137 15.1563 26.9588 14.7277C27.2039 14.2991 27.5429 13.9316 27.9503 13.6527C28.3577 13.3738 28.823 13.1908 29.3112 13.1174C29.7994 13.044 30.298 13.0821 30.7694 13.2289C31.0282 12.5082 31.3933 11.8303 31.8524 11.2175C31.0314 10.8842 30.1421 10.754 29.2599 10.8378C28.3778 10.9216 27.5289 11.217 26.7853 11.6989C26.0417 12.1808 25.4253 12.835 24.9885 13.6059C24.5517 14.3769 24.3073 15.2418 24.2761 16.1274C24.2761 17.8655 25.1838 19.6603 26.107 21.4035H28.6858L28.2628 20.6299" fill="#B59C56"/>
<path id="path18" d="M36.3653 21.3983C36.2931 21.2126 36.2157 21.027 36.1332 20.8361C35.5195 19.3405 34.7562 17.4838 34.7562 16.2254C34.7562 14.3429 35.7877 13.3888 36.7005 13.1309C37.037 13.03 37.3956 13.03 37.732 13.1309V10.8307C37.1948 10.7646 36.6497 10.8049 36.128 10.9493C33.9361 11.5527 32.5178 13.6209 32.5178 16.2151C32.5178 17.8294 33.2502 19.7015 33.9464 21.3725L36.3653 21.3983Z" fill="#B59C56"/>
<path id="path20" d="M52.6939 10.8307C51.8954 10.7908 51.098 10.9263 50.3575 11.2278C50.8183 11.8404 51.1851 12.5183 51.4458 13.2392C51.9169 13.0923 52.4151 13.0541 52.9031 13.1275C53.3911 13.201 53.8561 13.384 54.2631 13.663C54.6702 13.942 55.0087 14.3096 55.2532 14.7382C55.4977 15.1669 55.6419 15.6453 55.6749 16.1377C55.6749 17.4064 54.7981 19.0517 53.9523 20.6402C53.8131 20.898 53.6789 21.1559 53.5449 21.4138H56.1236C57.0519 19.6706 57.9596 17.8758 57.9596 16.1377C57.9348 14.745 57.3734 13.4157 56.3923 12.4269C55.4112 11.4382 54.0863 10.8663 52.6939 10.8307" fill="#B59C56"/>
<path id="path22" d="M44.5038 10.8307V13.1515C44.8322 13.0557 45.1811 13.0557 45.5095 13.1515C46.4172 13.4094 47.4487 14.3429 47.4487 16.2254C47.4487 17.4838 46.6854 19.3199 46.0716 20.8362L45.8396 21.3983H48.2894C48.9805 19.7118 49.7128 17.8397 49.7128 16.2409C49.7128 13.6621 48.2945 11.5991 46.1026 10.9751C45.5843 10.8227 45.041 10.7737 44.5038 10.8307" fill="#B59C56"/>
<path id="path28" d="M74.84 144.853C71.0854 144.853 67.47 147.586 67.47 147.586H82.21C82.21 147.586 78.5998 144.853 74.84 144.853Z" fill="#B59C56"/>
<path id="path30" d="M66.4334 149.211C62.6736 149.211 59.0634 151.944 59.0634 151.944H73.8034C73.8034 151.944 70.1932 149.211 66.4334 149.211Z" fill="#B59C56"/>
<path id="path32" d="M60.8581 154.265C57.4954 152.589 53.0446 153.424 53.0446 153.424L66.2373 160C66.2373 160 64.2259 155.941 60.8581 154.265Z" fill="#B59C56"/>
<path id="path34" d="M49.9552 154.265C46.5925 152.589 42.1365 153.424 42.1365 153.424L55.3293 160C55.3293 160 53.3179 155.941 49.9552 154.265Z" fill="#B59C56"/>
<path id="path36" d="M77.9139 139.427C80.3069 136.528 80.4926 132 80.4926 132L71.1163 143.378C71.1163 143.378 75.526 142.346 77.9139 139.427" fill="#B59C56"/>
<path id="path38" d="M68.8574 143.378C70.9203 140.242 70.647 135.724 70.647 135.724L62.5137 148.019C62.5137 148.019 66.784 146.518 68.8574 143.378Z" fill="#B59C56"/>
<path id="path40" d="M56.072 151.207C59.4347 149.53 61.4461 145.471 61.4461 145.471L48.2533 152.052C48.2533 152.052 52.7093 152.888 56.072 151.207" fill="#B59C56"/>
<path id="path42" d="M7.37002 144.853C11.1298 144.853 14.74 147.586 14.74 147.586H0C0 147.586 3.61022 144.853 7.37002 144.853Z" fill="#B59C56"/>
<path id="path44" d="M15.7767 149.211C19.5365 149.211 23.1468 151.944 23.1468 151.944H8.40674C8.40674 151.944 12.017 149.211 15.7767 149.211Z" fill="#B59C56"/>
<path id="path46" d="M21.3312 154.265C24.6939 152.589 29.15 153.424 29.15 153.424L15.9572 160C15.9572 160 17.9686 155.941 21.3312 154.265Z" fill="#B59C56"/>
<path id="path48" d="M32.26 154.265C35.6226 152.589 40.0735 153.424 40.0735 153.424L26.8807 160C26.8807 160 28.8973 155.941 32.26 154.265Z" fill="#B59C56"/>
<path id="path50" d="M4.29626 139.427C1.9032 136.528 1.71753 132 1.71753 132L11.0938 143.378C11.0938 143.378 6.7048 142.346 4.29626 139.427Z" fill="#B59C56"/>
<path id="path52" d="M13.3527 143.378C11.2897 140.242 11.563 135.724 11.563 135.724L19.7015 148.019C19.7015 148.019 15.426 146.518 13.3527 143.378" fill="#B59C56"/>
<path id="path54" d="M26.1433 151.212C22.7755 149.53 20.764 145.471 20.764 145.471L33.9568 152.052C33.9568 152.052 29.5059 152.888 26.1433 151.212Z" fill="#B59C56"/>
<path id="path60" d="M15.2094 134.228C18.9917 137.605 23.3982 140.208 28.1804 141.892V36.1641H15.2558L15.2094 134.228Z" fill="#FFD500"/>
<path id="path62" d="M28.1804 141.892C33.4772 144.1 41.136 144.1 41.136 144.1L41.105 36.1487H28.1804L28.1804 141.892Z" fill="#E30613"/>
<path id="path64" d="M15.2558 36.1487L15.2094 134.228C11.1018 130.576 7.81542 126.094 5.56711 121.078C3.31879 116.062 2.15965 110.626 2.16617 105.13V36.1487H15.2558Z" fill="#1D1D1B"/>
<path id="path66" d="M41.136 66.1599C51.4701 66.162 61.3802 70.2687 68.6867 77.5767C75.9933 84.8847 80.098 94.7957 80.098 105.13C80.098 115.464 75.9933 125.375 68.6867 132.683C61.3802 139.991 51.4701 144.097 41.136 144.1V66.1599Z" fill="#1D1D1B"/>
<path id="path68" d="M1.0315 35.0192V105.13C1.02985 110.397 2.06597 115.614 4.08067 120.481C6.09537 125.348 9.04918 129.771 12.7734 133.496C16.4976 137.221 20.9192 140.177 25.7857 142.193C30.6523 144.209 35.8683 145.247 41.1359 145.247C46.4036 145.247 51.6196 144.209 56.4861 142.193C61.3526 140.177 65.7743 137.221 69.4985 133.496C73.2227 129.771 76.1765 125.348 78.1912 120.481C80.2059 115.614 81.242 110.397 81.2404 105.13V35.0192H1.0315ZM39.9755 142.939C36.3505 142.831 32.7601 142.2 29.315 141.067V37.2833H39.9755V142.939ZM16.3853 37.2833H27.0457V140.237C23.1566 138.667 19.5543 136.464 16.3853 133.718V37.2833ZM3.29562 105.13V37.2833H14.1263V131.588C7.18351 124.532 3.29344 115.029 3.29562 105.13V105.13ZM78.9711 105.13C78.9582 114.968 75.1175 124.416 68.2618 131.473C61.4062 138.529 52.0737 142.642 42.2396 142.939V67.3204C52.0742 67.6165 61.4074 71.7284 68.2633 78.7855C75.1192 85.8425 78.9595 95.2908 78.9711 105.13V105.13Z" fill="#B59C56"/>
<path id="path70" d="M49.4755 58.3877H49.6612L50.2646 60.8581H48.8515L49.4755 58.3877ZM46.8143 63.8288H48.0933L48.5523 62.0133H50.5431L50.9918 63.8288H52.4256V62.9572L50.7649 57.0312H48.4801L46.8194 62.9572L46.8143 63.8288ZM42.286 63.8288H43.8693V60.9922H46.1541V59.8266H43.8693V58.2123H46.2676V57.0416H42.2912L42.286 63.8288Z" fill="#1D1D1B"/>
<path id="path72" d="M73.561 54.7723H75.036V50.6463H75.2114L77.166 54.7723H78.9557V47.9644H77.4755V52.0904H77.2898L75.3506 47.9644H73.561V54.7723ZM69.6258 49.3311H69.8115L70.4149 51.7809H69.0018L69.6258 49.3311ZM66.9439 54.7723H68.2281L68.682 52.9569H70.6831L71.1318 54.7723H72.5707V53.8955L70.9049 47.9644H68.5943L66.9439 53.8955V54.7723ZM64.3652 54.7723H65.9486V47.9644H64.3652V54.7723ZM60.755 52.1213H61.7297V53.1528C61.6444 53.3047 61.5219 53.4324 61.3739 53.5242C61.1729 53.6429 60.9417 53.7003 60.7086 53.6892C60.4725 53.7001 60.2386 53.6389 60.0381 53.5139C59.8826 53.4183 59.7574 53.2806 59.6771 53.1167V49.6148C59.7573 49.4498 59.8802 49.3091 60.0329 49.2074C60.2294 49.0927 60.4528 49.0323 60.6802 49.0323C60.9076 49.0323 61.131 49.0927 61.3275 49.2074C61.483 49.3044 61.6054 49.4465 61.6782 49.6148V50.3111H63.2254V49.1971C63.1408 49.0407 63.0425 48.8923 62.9314 48.7535C62.7831 48.5803 62.6092 48.4307 62.4157 48.31C62.1876 48.1635 61.9414 48.0473 61.6833 47.9644C61.3592 47.8659 61.0215 47.8189 60.6828 47.8252C60.3334 47.8164 59.9849 47.8652 59.6513 47.9696C59.3849 48.057 59.1315 48.1801 58.8983 48.3358C58.7018 48.467 58.5277 48.629 58.3825 48.8154C58.2642 48.9767 58.1622 49.1495 58.0783 49.3311V53.4571C58.1622 53.6388 58.2642 53.8115 58.3825 53.9729C58.5277 54.1593 58.7018 54.3213 58.8983 54.4525C59.1304 54.6101 59.384 54.7334 59.6513 54.8187C59.9849 54.9231 60.3334 54.9718 60.6828 54.9631C61.0215 54.9694 61.3592 54.9224 61.6833 54.8238C61.9434 54.7436 62.1902 54.6255 62.4157 54.4731C62.608 54.3508 62.7817 54.2014 62.9314 54.0296C63.0398 53.8925 63.138 53.7477 63.2254 53.5964V51.0176H60.7756L60.755 52.1213ZM53.6377 54.7723H57.3304V53.5964H55.1849V47.9644H53.6377V54.7723ZM48.3719 54.7723H52.4979V53.5964H49.9192V51.8892H52.24V50.7134H49.9192V49.1661H52.4154V47.9644H48.3513L48.3719 54.7723ZM43.8694 53.6376V51.848H44.87C45.0495 51.8461 45.2267 51.8886 45.3857 51.9718C45.5285 52.0397 45.6472 52.1494 45.7261 52.2864V53.1683C45.654 53.3068 45.5452 53.4228 45.4115 53.5035C45.2332 53.6008 45.0316 53.6472 44.8287 53.6376H43.8694ZM43.8694 50.7495V49.1197H44.8287C45.0085 49.1153 45.1863 49.158 45.3445 49.2435C45.4845 49.3202 45.5964 49.4394 45.6642 49.5839V50.2956C45.5797 50.4256 45.4668 50.5349 45.3342 50.6154C45.1942 50.6995 45.0333 50.7425 44.87 50.7391L43.8694 50.7495ZM42.2913 54.7723H45.1794C45.4241 54.7766 45.6678 54.7418 45.9015 54.6691C46.1024 54.6071 46.2934 54.5168 46.4688 54.4009C46.6315 54.2982 46.7791 54.1732 46.9072 54.0296C47.0207 53.9026 47.1209 53.7643 47.2063 53.617V51.9666C47.1108 51.8092 46.9887 51.6696 46.8453 51.554C46.7087 51.4465 46.5638 51.35 46.4121 51.2652C46.567 51.176 46.7107 51.0687 46.8401 50.9454C46.958 50.8347 47.062 50.71 47.1496 50.5741V49.13C47.0657 48.9814 46.9672 48.8414 46.8556 48.7123C46.7307 48.5713 46.5886 48.4465 46.4327 48.3409C46.2617 48.2271 46.076 48.1369 45.8809 48.0727C45.6547 47.9978 45.4177 47.9611 45.1794 47.9644H42.2913L42.2913 54.7723Z" fill="#1D1D1B"/>
<path id="path74" d="M65.9073 45.7158H69.5949V44.5399H67.4906V38.9131H65.9073V45.7158ZM61.9515 40.2746H62.1372L62.7355 42.7244H61.3275L61.9515 40.2746ZM59.3109 45.7158H60.5899L61.049 43.9003H63.0501L63.4988 45.7158H64.9325V44.839L63.2718 38.9131H60.9716L59.3109 44.839V45.7158ZM55.9173 45.7158H57.5006V43.0442L59.3109 39.7898V38.9131H58.0061L56.8869 41.2597H56.7012L55.6181 38.9285H54.1895V39.8053L55.8967 42.8998L55.9173 45.7158ZM48.2791 44.3542C48.3629 44.537 48.4667 44.7099 48.5885 44.8699C48.7333 45.0568 48.9075 45.2188 49.1043 45.3496C49.3375 45.5052 49.5908 45.6284 49.8573 45.7158C50.5174 45.9083 51.2188 45.9083 51.879 45.7158C52.1458 45.6294 52.3993 45.5061 52.632 45.3496C52.8285 45.2183 53.0026 45.0564 53.1477 44.8699C53.27 44.7112 53.3722 44.538 53.452 44.3542V40.2282C53.3722 40.0444 53.27 39.8712 53.1477 39.7125C53.0026 39.526 52.8285 39.3641 52.632 39.2328C52.3993 39.0763 52.1458 38.9531 51.879 38.8666C51.2188 38.6741 50.5174 38.6741 49.8573 38.8666C49.5908 38.954 49.3375 39.0772 49.1043 39.2328C48.9075 39.3636 48.7333 39.5257 48.5885 39.7125C48.4667 39.8725 48.3629 40.0454 48.2791 40.2282V44.3542ZM49.8624 40.5377C49.9419 40.3707 50.0648 40.2282 50.2183 40.1251C50.4147 40.0104 50.6381 39.95 50.8655 39.95C51.093 39.95 51.3164 40.0104 51.5128 40.1251C51.6661 40.2269 51.7877 40.3699 51.8635 40.5377V44.0499C51.7839 44.2124 51.663 44.3512 51.5128 44.4522C51.3164 44.5668 51.093 44.6272 50.8655 44.6272C50.6381 44.6272 50.4147 44.5668 50.2183 44.4522C50.0678 44.3501 49.9454 44.2117 49.8624 44.0499V40.5377ZM43.8694 42.0849V40.089H44.8133C44.9927 40.0879 45.1696 40.1304 45.329 40.2127C45.48 40.2873 45.603 40.4084 45.6797 40.5583V41.6517C45.6049 41.8012 45.4837 41.9224 45.3342 41.9972C45.1749 42.08 44.9979 42.1225 44.8184 42.121L43.8694 42.0849ZM46.0356 45.6951H47.2682V44.8184L46.0923 43.0236C46.329 42.9304 46.5473 42.7959 46.737 42.6264C46.9195 42.4541 47.0759 42.256 47.2012 42.0385V40.0683C47.0077 39.7017 46.7121 39.3989 46.3502 39.1967C45.9865 38.9928 45.5757 38.8879 45.1588 38.8924H42.2913V45.7158H43.8746V43.2195H44.5348L46.0356 45.6951Z" fill="#1D1D1B"/>
<path id="path76" d="M54.6692 60.8942C54.7228 61.0078 54.809 61.1029 54.9167 61.1675C55.071 61.2637 55.2509 61.3105 55.4325 61.3016C55.6143 61.3126 55.7948 61.2656 55.9482 61.1675C56.056 61.1029 56.1422 61.0078 56.1958 60.8942V60.1567C56.1394 60.045 56.0538 59.9505 55.9482 59.8833C55.7937 59.7877 55.614 59.741 55.4325 59.7492C55.2512 59.7426 55.0719 59.7892 54.9167 59.8833C54.8112 59.9505 54.7256 60.045 54.6692 60.1567V60.8942Z" fill="#1D1D1B"/>
<path id="path78" d="M74.3397 62.8592C74.4187 62.9773 74.5085 63.0878 74.6079 63.1893C74.7433 63.3319 74.8978 63.4551 75.0669 63.5554C75.2781 63.6842 75.5053 63.7848 75.7426 63.8546C76.0374 63.9396 76.3435 63.9796 76.6503 63.9732C76.9574 63.9784 77.2635 63.9366 77.558 63.8494C77.7957 63.7764 78.0242 63.676 78.2388 63.5503C78.5306 63.3819 78.7767 63.1446 78.9557 62.8592V60.4764C78.8877 60.3435 78.8046 60.2189 78.7081 60.1051C78.5957 59.9736 78.4635 59.8605 78.3161 59.7699C78.156 59.6674 77.9824 59.5875 77.8004 59.5326C77.5881 59.4682 77.3672 59.4369 77.1454 59.4398C76.8885 59.435 76.6325 59.4716 76.3872 59.5481C76.1842 59.6198 75.9943 59.7244 75.8251 59.8575V58.2793H78.9196V57.057H74.4016V60.92H75.8148C75.8989 60.8258 76.0005 60.7487 76.1139 60.693C76.2727 60.6093 76.4501 60.5667 76.6296 60.5693C76.8299 60.5655 77.0276 60.6154 77.2021 60.7137C77.3424 60.7827 77.4551 60.8972 77.5219 61.0386V62.3692C77.4574 62.5147 77.3444 62.6332 77.2021 62.7044C77.0272 62.8012 76.8295 62.8492 76.6296 62.8437C76.4274 62.8508 76.2272 62.8007 76.052 62.6993C75.9133 62.624 75.8002 62.5091 75.7271 62.3692V61.8535H74.3191L74.3397 62.8592Z" fill="#1D1D1B"/>
<path id="path80" d="M72.9884 57.7636C72.8366 57.6013 72.663 57.4607 72.4727 57.3458C72.2505 57.2072 72.0112 57.098 71.7609 57.0209C71.4622 56.928 71.1506 56.8827 70.8378 56.8868C70.5286 56.8814 70.2205 56.9249 69.9249 57.0158C69.6848 57.0893 69.4545 57.1914 69.2389 57.32C69.0698 57.4224 68.9154 57.5473 68.7799 57.6914C68.6854 57.7876 68.6008 57.893 68.5272 58.006V60.3836C68.5887 60.5233 68.6723 60.6522 68.7748 60.7652C68.8888 60.8936 69.0208 61.0048 69.1667 61.0953C69.3283 61.1952 69.5015 61.2749 69.6825 61.3325C69.9001 61.3969 70.1261 61.4282 70.353 61.4254C70.6153 61.4306 70.8768 61.3923 71.1266 61.3119C71.3382 61.2441 71.537 61.1412 71.7145 61.0076V62.3486C71.6452 62.4894 71.5334 62.6049 71.3948 62.6786C71.2161 62.7735 71.0169 62.8231 70.8146 62.8231C70.6123 62.8231 70.413 62.7735 70.2343 62.6786C70.0958 62.6049 69.9839 62.4894 69.9146 62.3486V61.8896H68.5427V62.8695C68.6214 62.9847 68.7094 63.0934 68.8057 63.1944C68.9428 63.3352 69.097 63.4583 69.2647 63.5606C69.4793 63.6863 69.7078 63.7867 69.9455 63.8597C70.2401 63.9465 70.5461 63.9883 70.8532 63.9835C71.1654 63.9882 71.4765 63.9465 71.7764 63.8597C72.0273 63.7865 72.2668 63.6789 72.4881 63.5399C72.68 63.4252 72.8538 63.2827 73.0039 63.117C73.118 62.9843 73.2167 62.8389 73.2979 62.6838V58.1762C73.2151 58.0245 73.1108 57.8856 72.9884 57.7636V57.7636ZM71.7506 60.0741C71.624 60.1639 71.4873 60.2383 71.3432 60.2959C71.1927 60.3505 71.0339 60.3784 70.8739 60.3784C70.6646 60.3837 70.4578 60.332 70.2756 60.2289C70.1344 60.1569 70.0204 60.0411 69.9507 59.8988V58.5217C70.02 58.3809 70.1318 58.2654 70.2704 58.1917C70.4481 58.0937 70.6477 58.0423 70.8507 58.0423C71.0536 58.0423 71.2532 58.0937 71.4309 58.1917C71.5695 58.2654 71.6813 58.3809 71.7506 58.5217V60.0741Z" fill="#1D1D1B"/>
<path id="path82" d="M67.145 60.7704C66.9756 60.5889 66.7769 60.4372 66.5571 60.3217C66.7439 60.2181 66.9172 60.0916 67.0728 59.9452C67.1686 59.8495 67.2582 59.7479 67.341 59.6409V57.9338C67.2653 57.835 67.1844 57.7403 67.0986 57.6501C66.9664 57.5162 66.8173 57.4001 66.6551 57.3046C66.4444 57.1796 66.2193 57.0809 65.9846 57.0106C65.6875 56.9187 65.3775 56.8752 65.0666 56.8817C64.7595 56.8765 64.4534 56.9182 64.1589 57.0054C63.9241 57.0732 63.6989 57.1702 63.4884 57.2943C63.3245 57.3915 63.1737 57.5094 63.0397 57.645C62.9508 57.7356 62.8681 57.832 62.7922 57.9338V59.6409C62.8674 59.757 62.9576 59.8628 63.0603 59.9555C63.2127 60.103 63.3866 60.2265 63.5761 60.3217C63.3578 60.4415 63.1609 60.5966 62.9933 60.7807C62.8655 60.9183 62.7547 61.0706 62.6632 61.2346V62.6735C62.737 62.8273 62.8325 62.9698 62.9469 63.0964C63.0971 63.2619 63.2709 63.4044 63.4626 63.5193C63.8473 63.7472 64.2747 63.8936 64.7182 63.9495C65.1618 64.0054 65.6122 63.9695 66.0413 63.8442C66.2896 63.7661 66.527 63.6569 66.7479 63.5193C66.9396 63.4044 67.1134 63.2619 67.2637 63.0964C67.3794 62.9698 67.4767 62.8274 67.5525 62.6735V61.2346C67.4383 61.0621 67.3012 60.906 67.145 60.7704V60.7704ZM64.1847 58.4444C64.2675 58.334 64.373 58.2425 64.4941 58.1762C64.6665 58.085 64.8586 58.0373 65.0537 58.0373C65.2488 58.0373 65.4409 58.085 65.6133 58.1762C65.7353 58.2411 65.8411 58.3328 65.9227 58.4444V59.4295C65.842 59.5445 65.7362 59.6397 65.6133 59.708C65.4409 59.7992 65.2488 59.8469 65.0537 59.8469C64.8586 59.8469 64.6665 59.7992 64.4941 59.708C64.3723 59.6382 64.2668 59.5433 64.1847 59.4295V58.4444ZM65.9537 62.3434C65.8844 62.4843 65.7725 62.5998 65.6339 62.6735C65.4566 62.7743 65.255 62.8243 65.0511 62.8179C64.8505 62.8243 64.6522 62.7742 64.4786 62.6735C64.3388 62.5998 64.2252 62.4844 64.1537 62.3434V61.3119C64.2246 61.1692 64.3382 61.052 64.4786 60.9767C64.6532 60.8784 64.8508 60.8286 65.0511 60.8323C65.2547 60.8285 65.4557 60.8783 65.6339 60.9767C65.7729 61.0523 65.8847 61.1696 65.9537 61.3119V62.3434Z" fill="#1D1D1B"/>
<path id="polygon84" d="M58.0886 62.8282V63.8288H61.5647V62.8282H60.6054V57.0312H59.3315L58.0782 57.4542V58.367L59.0891 58.2639V62.8282H58.0886Z" fill="#1D1D1B"/>
</g>
</svg>
