<svg width="124" height="119" viewBox="0 0 124 119" fill="none" xmlns="http://www.w3.org/2000/svg">
<g id="camerun">
<path id="path12" d="M58.4974 102.484L58.5018 102.487L59.613 103.322L59.6199 103.327L61.1688 104.477L62.7127 103.327L62.7176 103.324L63.8308 102.487L63.8351 102.484C83.0015 88.1912 94.0829 74.8537 100.021 59.2054C105.456 44.8652 106.516 29.5355 106.516 5.91426C106.516 5.91406 106.516 5.91387 106.516 5.91367L106.515 1.5H15.8163V5.91367C15.8163 29.5351 16.8765 44.866 22.3116 59.205L58.4974 102.484ZM58.4974 102.484C39.3303 88.1914 28.2481 74.8532 22.3117 59.2054L58.4974 102.484ZM61.3862 99.2506L60.268 100.091L62.0701 102.489L63.1882 101.649L61.3862 99.2506Z" fill="url(#paint0_linear_169_2)" stroke="#F2EFEA" stroke-width="3"/>
<g id="g4935">
<g id="path4868">
<path fill-rule="evenodd" clip-rule="evenodd" d="M47.3258 107.57C49.1321 106.836 47.1238 102.488 45.7671 101.137C44.2583 103.133 45.7622 106.497 47.3744 107.985" fill="#6FE260"/>
<path d="M47.3258 107.57C49.1321 106.836 47.1238 102.488 45.7671 101.137C44.2583 103.133 45.7622 106.497 47.3744 107.985" stroke="black"/>
</g>
<g id="path4870">
<path fill-rule="evenodd" clip-rule="evenodd" d="M42.9572 103.748C44.7636 103.014 42.7552 98.6665 41.3986 97.3156C39.8898 99.3112 41.3937 102.676 43.0059 104.164" fill="#6FE260"/>
<path d="M42.9572 103.748C44.7636 103.014 42.7552 98.6665 41.3986 97.3156C39.8898 99.3112 41.3937 102.676 43.0059 104.164" stroke="black"/>
</g>
<g id="path4872">
<path fill-rule="evenodd" clip-rule="evenodd" d="M38.4786 99.8488C40.2849 99.1146 38.2766 94.767 36.9199 93.4161C35.4111 95.4118 36.9151 98.7764 38.5273 100.264" fill="#6FE260"/>
<path d="M38.4786 99.8488C40.2849 99.1146 38.2766 94.767 36.9199 93.4161C35.4111 95.4118 36.9151 98.7764 38.5273 100.264" stroke="black"/>
</g>
<g id="path4874">
<path fill-rule="evenodd" clip-rule="evenodd" d="M33.9085 95.9599C35.7149 95.2258 33.7065 90.8781 32.3499 89.5272C30.8411 91.5229 32.345 94.8876 33.9572 96.3753" fill="#6FE260"/>
<path d="M33.9085 95.9599C35.7149 95.2258 33.7065 90.8781 32.3499 89.5272C30.8411 91.5229 32.345 94.8876 33.9572 96.3753" stroke="black"/>
</g>
<g id="path4876">
<path fill-rule="evenodd" clip-rule="evenodd" d="M29.2428 91.7559C31.1495 91.328 29.7599 87.2407 28.5969 85.8812C26.8086 87.4602 27.8339 90.6172 29.2326 92.1289" fill="#6FE260"/>
<path d="M29.2428 91.7559C31.1495 91.328 29.7599 87.2407 28.5969 85.8812C26.8086 87.4602 27.8339 90.6172 29.2326 92.1289" stroke="black"/>
</g>
<g id="path4878">
<path fill-rule="evenodd" clip-rule="evenodd" d="M24.9069 87.7551C26.9712 87.7652 26.4632 84.0254 25.5712 82.6443C23.3685 83.6339 23.7112 86.5131 24.8119 88.0695" fill="#6FE260"/>
<path d="M24.9069 87.7551C26.9712 87.7652 26.4632 84.0254 25.5712 82.6443C23.3685 83.6339 23.7112 86.5131 24.8119 88.0695" stroke="black"/>
</g>
<g id="path4880">
<path fill-rule="evenodd" clip-rule="evenodd" d="M20.9062 82.9677C22.8631 83.1275 22.6975 79.7993 21.9682 78.5188C19.7954 79.2288 19.8771 81.7874 20.7895 83.2374" fill="#6FE260"/>
<path d="M20.9062 82.9677C22.8631 83.1275 22.6975 79.7993 21.9682 78.5188C19.7954 79.2288 19.8771 81.7874 20.7895 83.2374" stroke="black"/>
</g>
<g id="path4882">
<path fill-rule="evenodd" clip-rule="evenodd" d="M18.2673 78.7053C20.3178 79.165 20.7593 76.1007 20.2218 74.8149C17.7805 75.1145 17.3924 77.463 18.0932 78.9329" fill="#6FE260"/>
<path d="M18.2673 78.7053C20.3178 79.165 20.7593 76.1007 20.2218 74.8149C17.7805 75.1145 17.3924 77.463 18.0932 78.9329" stroke="black"/>
</g>
<g id="path4884">
<path fill-rule="evenodd" clip-rule="evenodd" d="M16.1958 74.0002C18.0837 74.4235 18.4901 71.6022 17.9952 70.4183C15.7476 70.6941 15.3903 72.8564 16.0355 74.2097" fill="#6FE260"/>
<path d="M16.1958 74.0002C18.0837 74.4235 18.4901 71.6022 17.9952 70.4183C15.7476 70.6941 15.3903 72.8564 16.0355 74.2097" stroke="black"/>
</g>
<g id="path4886">
<path fill-rule="evenodd" clip-rule="evenodd" d="M13.708 68.9017C15.5959 69.3249 16.0023 66.5036 15.5075 65.3198C13.2598 65.5956 12.9025 67.7579 13.5477 69.1111" fill="#6FE260"/>
<path d="M13.708 68.9017C15.5959 69.3249 16.0023 66.5036 15.5075 65.3198C13.2598 65.5956 12.9025 67.7579 13.5477 69.1111" stroke="black"/>
</g>
<g id="path4898">
<path fill-rule="evenodd" clip-rule="evenodd" d="M12.6338 69.1605C12.6309 67.5429 9.22747 65.2078 7.97472 64.8999C8.88918 67.3576 11.5096 69.1934 12.9208 69.4652" fill="#6FE260"/>
<path d="M12.6338 69.1605C12.6309 67.5429 9.22747 65.2078 7.97472 64.8999C8.88918 67.3576 11.5096 69.1934 12.9208 69.4652" stroke="black"/>
</g>
<g id="path4900">
<path fill-rule="evenodd" clip-rule="evenodd" d="M14.5032 74.9758C14.5003 73.3582 11.0969 71.0231 9.8441 70.7152C10.7586 73.1729 13.379 75.0088 14.7901 75.2805" fill="#6FE260"/>
<path d="M14.5032 74.9758C14.5003 73.3582 11.0969 71.0231 9.8441 70.7152C10.7586 73.1729 13.379 75.0088 14.7901 75.2805" stroke="black"/>
</g>
<g id="path4902">
<path fill-rule="evenodd" clip-rule="evenodd" d="M16.9538 79.4001C16.3096 77.6156 12.7193 76.2052 11.6167 76.295C13.3077 78.6943 16.0871 79.822 17.2993 79.6381" fill="#6FE260"/>
<path d="M16.9538 79.4001C16.3096 77.6156 12.7193 76.2052 11.6167 76.295C13.3077 78.6943 16.0871 79.822 17.2993 79.6381" stroke="black"/>
</g>
<g id="path4904">
<path fill-rule="evenodd" clip-rule="evenodd" d="M19.8196 83.8386C18.5958 84.7692 14.8666 82.3048 13.9106 81.0791C16.2954 80.6845 19.1954 82.5602 20.2155 83.9841" fill="#6FE260"/>
<path d="M19.8196 83.8386C18.5958 84.7692 14.8666 82.3048 13.9106 81.0791C16.2954 80.6845 19.1954 82.5602 20.2155 83.9841" stroke="black"/>
</g>
<g id="path4906">
<path fill-rule="evenodd" clip-rule="evenodd" d="M23.8235 88.5729C22.915 89.7876 19.044 87.8237 17.9282 86.6854C19.9938 85.835 22.9955 87.3186 24.2103 88.6573" fill="#6FE260"/>
<path d="M23.8235 88.5729C22.915 89.7876 19.044 87.8237 17.9282 86.6854C19.9938 85.835 22.9955 87.3186 24.2103 88.6573" stroke="black"/>
</g>
<g id="path4908">
<path fill-rule="evenodd" clip-rule="evenodd" d="M27.5104 92.5747C26.6019 93.7895 22.7309 91.8255 21.6151 90.6873C23.6807 89.8368 26.6824 91.3204 27.8972 92.6591" fill="#6FE260"/>
<path d="M27.5104 92.5747C26.6019 93.7895 22.7309 91.8255 21.6151 90.6873C23.6807 89.8368 26.6824 91.3204 27.8972 92.6591" stroke="black"/>
</g>
<g id="path4910">
<path fill-rule="evenodd" clip-rule="evenodd" d="M32.6315 96.8899C30.8808 94.6696 26.6571 94.6412 25.699 95.3888C28.8131 97.9119 32.1061 97.9858 33.1042 97.0405" fill="#6FE260"/>
<path d="M32.6315 96.8899C30.8808 94.6696 26.6571 94.6412 25.699 95.3888C28.8131 97.9119 32.1061 97.9858 33.1042 97.0405" stroke="black"/>
</g>
<g id="path4912">
<path fill-rule="evenodd" clip-rule="evenodd" d="M37.4879 100.812C35.4642 98.7429 31.628 99.4292 30.9057 100.389C34.2254 102.549 37.2266 102.07 37.9462 100.893" fill="#6FE260"/>
<path d="M37.4879 100.812C35.4642 98.7429 31.628 99.4292 30.9057 100.389C34.2254 102.549 37.2266 102.07 37.9462 100.893" stroke="black"/>
</g>
<g id="path4914">
<path fill-rule="evenodd" clip-rule="evenodd" d="M42.1432 104.84C40.1195 102.771 36.2832 103.457 35.561 104.416C38.8807 106.577 41.8818 106.097 42.6015 104.92" fill="#6FE260"/>
<path d="M42.1432 104.84C40.1195 102.771 36.2832 103.457 35.561 104.416C38.8807 106.577 41.8818 106.097 42.6015 104.92" stroke="black"/>
</g>
<path id="path4888" fill-rule="evenodd" clip-rule="evenodd" d="M11.9945 65.5108C15.8228 88.3983 41.4361 102.057 49.0961 110.528C49.6092 110.379 55.9637 115.408 55.7404 115.016C55.223 114.105 46.9425 107.398 45.9197 106.468L46.046 106.659C34.503 95.9542 21.1689 89.0776 13.5737 69.9333C12.9537 68.4849 12.4221 67.012 11.9945 65.5108Z" fill="#6FE260"/>
<path id="path4893" fill-rule="evenodd" clip-rule="evenodd" d="M11.7816 65.5953C15.61 88.4828 41.2232 102.142 48.8832 110.613C49.3963 110.464 55.7512 115.493 55.5279 115.1C55.4542 114.97 55.2096 114.714 54.8644 114.382C53.1072 113.106 49.5992 110.437 49.222 110.547C41.6197 102.139 16.9347 88.6368 11.8813 65.9228C11.8489 65.8135 11.8129 65.7049 11.7816 65.5953V65.5953Z" fill="#2C9F1D"/>
</g>
<g id="g4935_2">
<g id="path4868_2">
<path fill-rule="evenodd" clip-rule="evenodd" d="M76.2411 104.594C74.3352 104.055 76.2042 99.3389 77.5436 97.7857C79.2025 99.6592 77.8082 103.303 76.2109 105.028" fill="#6FE260"/>
<path d="M76.2411 104.594C74.3352 104.055 76.2042 99.3389 77.5436 97.7857C79.2025 99.6592 77.8082 103.303 76.2109 105.028" stroke="#2C9F1D"/>
</g>
<g id="path4870_2">
<path fill-rule="evenodd" clip-rule="evenodd" d="M80.5795 100.137C78.6736 99.5976 80.5426 94.8815 81.882 93.3282C83.5409 95.2017 82.1466 98.8455 80.5493 100.57" fill="#6FE260"/>
<path d="M80.5795 100.137C78.6736 99.5976 80.5426 94.8815 81.882 93.3282C83.5409 95.2017 82.1466 98.8455 80.5493 100.57" stroke="#2C9F1D"/>
</g>
<g id="path4872_2">
<path fill-rule="evenodd" clip-rule="evenodd" d="M85.0282 95.5859C83.1222 95.0466 84.9912 90.3305 86.3306 88.7773C87.9895 90.6508 86.5952 94.2946 84.9979 96.0193" fill="#6FE260"/>
<path d="M85.0282 95.5859C83.1222 95.0466 84.9912 90.3305 86.3306 88.7773C87.9895 90.6508 86.5952 94.2946 84.9979 96.0193" stroke="#2C9F1D"/>
</g>
<g id="path4874_2">
<path fill-rule="evenodd" clip-rule="evenodd" d="M89.5721 91.035C87.6662 90.4958 89.5352 85.7797 90.8745 84.2264C92.5335 86.0999 91.1391 89.7437 89.5418 91.4684" fill="#6FE260"/>
<path d="M89.5721 91.035C87.6662 90.4958 89.5352 85.7797 90.8745 84.2264C92.5335 86.0999 91.1391 89.7437 89.5418 91.4684" stroke="#2C9F1D"/>
</g>
<g id="path4876_2">
<path fill-rule="evenodd" clip-rule="evenodd" d="M94.1996 86.1482C92.2045 85.9362 93.4455 81.5623 94.5839 80.0234C96.5121 81.4344 95.6034 84.8071 94.2283 86.5308" fill="#6FE260"/>
<path d="M94.1996 86.1482C92.2045 85.9362 93.4455 81.5623 94.5839 80.0234C96.5121 81.4344 95.6034 84.8071 94.2283 86.5308" stroke="#2C9F1D"/>
</g>
<g id="path4878_2">
<path fill-rule="evenodd" clip-rule="evenodd" d="M98.4954 81.51C96.3584 81.7679 96.7033 77.8573 97.5601 76.3287C99.8889 77.0834 99.6735 80.0882 98.6091 81.8223" fill="#6FE260"/>
<path d="M98.4954 81.51C96.3584 81.7679 96.7033 77.8573 97.5601 76.3287C99.8889 77.0834 99.6735 80.0882 98.6091 81.8223" stroke="#2C9F1D"/>
</g>
<g id="path4880_2">
<path fill-rule="evenodd" clip-rule="evenodd" d="M102.406 76.1024C100.388 76.5014 100.398 73.0557 101.091 71.65C103.375 72.1204 103.415 74.7641 102.54 76.3661" fill="#6FE260"/>
<path d="M102.406 76.1024C100.388 76.5014 100.398 73.0557 101.091 71.65C103.375 72.1204 103.415 74.7641 102.54 76.3661" stroke="#2C9F1D"/>
</g>
<g id="path4882_2">
<path fill-rule="evenodd" clip-rule="evenodd" d="M104.932 71.3985C102.831 72.1175 102.226 69.0161 102.72 67.6281C105.262 67.6438 105.778 70.0148 105.123 71.6119" fill="#6FE260"/>
<path d="M104.932 71.3985C102.831 72.1175 102.226 69.0161 102.72 67.6281C105.262 67.6438 105.778 70.0148 105.123 71.6119" stroke="#2C9F1D"/>
</g>
<g id="path4884_2">
<path fill-rule="evenodd" clip-rule="evenodd" d="M106.849 66.3069C104.915 66.9688 104.358 64.1133 104.813 62.8354C107.153 62.8499 107.628 65.0329 107.026 66.5032" fill="#6FE260"/>
<path d="M106.849 66.3069C104.915 66.9688 104.358 64.1133 104.813 62.8354C107.153 62.8499 107.628 65.0329 107.026 66.5032" stroke="#2C9F1D"/>
</g>
<g id="path4886_2">
<path fill-rule="evenodd" clip-rule="evenodd" d="M109.178 60.7603C107.244 61.4223 106.687 58.5668 107.142 57.2888C109.482 57.3033 109.957 59.4863 109.355 60.9567" fill="#6FE260"/>
<path d="M109.178 60.7603C107.244 61.4223 106.687 58.5668 107.142 57.2888C109.482 57.3033 109.957 59.4863 109.355 60.9567" stroke="#2C9F1D"/>
</g>
<g id="path4898_2">
<path fill-rule="evenodd" clip-rule="evenodd" d="M110.303 60.8979C110.228 59.2325 113.639 56.4208 114.921 55.9537C114.093 58.5932 111.469 60.7971 110.021 61.246" fill="#6FE260"/>
<path d="M110.303 60.8979C110.228 59.2325 113.639 56.4208 114.921 55.9537C114.093 58.5932 111.469 60.7971 110.021 61.246" stroke="#2C9F1D"/>
</g>
<g id="path4900_2">
<path fill-rule="evenodd" clip-rule="evenodd" d="M108.649 67.1082C108.574 65.4428 111.985 62.6311 113.267 62.164C112.439 64.8035 109.815 67.0074 108.367 67.4563" fill="#6FE260"/>
<path d="M108.649 67.1082C108.574 65.4428 111.985 62.6311 113.267 62.164C112.439 64.8035 109.815 67.0074 108.367 67.4563" stroke="#2C9F1D"/>
</g>
<g id="path4902_2">
<path fill-rule="evenodd" clip-rule="evenodd" d="M106.326 71.9562C106.906 70.042 110.556 68.1598 111.702 68.12C110.067 70.7925 107.244 72.2866 105.98 72.2426" fill="#6FE260"/>
<path d="M106.326 71.9562C106.906 70.042 110.556 68.1598 111.702 68.12C110.067 70.7925 107.244 72.2866 105.98 72.2426" stroke="#2C9F1D"/>
</g>
<g id="path4904_2">
<path fill-rule="evenodd" clip-rule="evenodd" d="M103.574 76.8686C104.886 77.6799 108.628 74.696 109.558 73.3197C107.07 73.1994 104.158 75.4778 103.171 77.0658" fill="#6FE260"/>
<path d="M103.574 76.8686C104.886 77.6799 108.628 74.696 109.558 73.3197C107.07 73.1994 104.158 75.4778 103.171 77.0658" stroke="#2C9F1D"/>
</g>
<g id="path4906_2">
<path fill-rule="evenodd" clip-rule="evenodd" d="M99.6569 82.2221C100.656 83.3636 104.57 80.878 105.67 79.5725C103.49 78.9447 100.453 80.8317 99.2604 82.3553" fill="#6FE260"/>
<path d="M99.6569 82.2221C100.656 83.3636 104.57 80.878 105.67 79.5725C103.49 78.9447 100.453 80.8317 99.2604 82.3553" stroke="#2C9F1D"/>
</g>
<g id="path4908_2">
<path fill-rule="evenodd" clip-rule="evenodd" d="M96.0331 86.7835C97.0327 87.925 100.946 85.4393 102.046 84.1339C99.866 83.506 96.8297 85.3931 95.6367 86.9167" fill="#6FE260"/>
<path d="M96.0331 86.7835C97.0327 87.925 100.946 85.4393 102.046 84.1339C99.866 83.506 96.8297 85.3931 95.6367 86.9167" stroke="#2C9F1D"/>
</g>
<g id="path4910_2">
<path fill-rule="evenodd" clip-rule="evenodd" d="M90.9393 91.8392C92.6445 89.3438 97.0166 88.8082 98.0449 89.463C94.9425 92.4335 91.5363 92.9044 90.4571 92.0509" fill="#6FE260"/>
<path d="M90.9393 91.8392C92.6445 89.3438 97.0166 88.8082 98.0449 89.463C94.9425 92.4335 91.5363 92.9044 90.4571 92.0509" stroke="#2C9F1D"/>
</g>
<g id="path4912_2">
<path fill-rule="evenodd" clip-rule="evenodd" d="M86.1006 96.4591C88.0958 94.0862 92.1014 94.3328 92.8957 95.2339C89.5629 97.8562 86.4321 97.7219 85.6299 96.5967" fill="#6FE260"/>
<path d="M86.1006 96.4591C88.0958 94.0862 92.1014 94.3328 92.8957 95.2339C89.5629 97.8562 86.4321 97.7219 85.6299 96.5967" stroke="#2C9F1D"/>
</g>
<g id="path4914_2">
<path fill-rule="evenodd" clip-rule="evenodd" d="M81.4753 101.163C83.4705 98.7903 87.476 99.0369 88.2703 99.9379C84.9375 102.56 81.8067 102.426 81.0046 101.301" fill="#6FE260"/>
<path d="M81.4753 101.163C83.4705 98.7903 87.476 99.0369 88.2703 99.9379C84.9375 102.56 81.8067 102.426 81.0046 101.301" stroke="#2C9F1D"/>
</g>
<path id="path4888_2" fill-rule="evenodd" clip-rule="evenodd" d="M110.788 57.0644C107.933 81.0834 82.0728 98.2138 74.5514 107.852C74.0128 107.76 67.6766 113.699 67.8888 113.268C68.3804 112.268 76.6298 104.372 77.6438 103.291L77.5223 103.504C88.9562 91.1004 102.43 82.4234 109.367 61.8061C109.939 60.2409 110.418 58.6609 110.788 57.0644Z" fill="#6FE260"/>
<path id="path4893_2" fill-rule="evenodd" clip-rule="evenodd" d="M111.013 57.1259C108.157 81.1448 82.2972 98.2753 74.7758 107.913C74.2372 107.821 67.9006 113.76 68.1128 113.329C68.1828 113.187 68.4236 112.893 68.765 112.511C70.5227 110.986 74.0259 107.818 74.4217 107.886C81.8865 98.3205 106.793 81.4621 110.926 57.475C110.954 57.3585 110.986 57.2425 111.013 57.1259V57.1259Z" fill="#121211"/>
</g>
<path id="path12_2" d="M57.9226 102.484L57.9269 102.487L59.0382 103.322L59.045 103.327L60.594 104.477L62.1379 103.327L62.1428 103.324L63.256 102.487L63.2603 102.484C82.4269 88.1911 93.5084 74.8534 99.4462 59.2049C104.881 44.8648 105.941 29.5352 105.941 5.91426C105.941 5.91406 105.941 5.91387 105.941 5.91367L105.94 1.5H15.2415V5.91367C15.2415 29.5351 16.3017 44.866 21.7368 59.205L57.9226 102.484ZM57.9226 102.484C38.7555 88.1914 27.6733 74.8532 21.7369 59.2053L57.9226 102.484ZM104.864 4.0523V2.5523H103.364H17.8162H16.3162V4.0523V5.91369C16.3162 29.0708 17.3177 44.5219 22.7499 58.8375C28.6656 74.4314 39.7915 87.6397 58.5708 101.652L58.571 101.652L59.6974 102.492L60.5975 103.164L61.4953 102.489L62.6094 101.652C62.6103 101.651 62.6111 101.651 62.612 101.65C81.3896 87.6397 92.5136 74.432 98.4386 58.8381L98.4391 58.8368C103.863 44.5199 104.864 29.0688 104.864 5.91369V4.0523Z" fill="#141414" stroke="#171716" stroke-width="3"/>
<circle id="Ellipse 3" cx="60.323" cy="60.644" r="26.3669" fill="#FFFBF7"/>
<path id="path1458" d="M58.2276 86.915C47.1175 86.1544 37.3614 77.4002 34.6079 66.8018C32.0675 55.8122 37.1124 43.437 46.9557 37.6997C53.2871 33.9202 61.2318 33.4477 68.2388 35.4163C76.8941 38.0747 83.4825 45.7724 85.7953 54.3607C87.873 62.275 86.3744 71.2614 80.8521 77.4979C75.8506 83.7243 67.8557 87.3114 59.8608 86.9911C59.3159 86.9798 58.7712 86.9542 58.2276 86.915ZM64.8497 85.6695C66.8433 85.4956 66.4929 84.8846 64.6796 84.7295C61.44 84.1064 57.942 84.0901 54.8155 85.1829C57.5677 86.5092 61.224 86.1677 64.305 85.772L64.8497 85.6695L64.8497 85.6695ZM55.0341 83.9188C56.4569 82.4679 54.9726 79.001 53.7292 77.6273C50.9503 76.2102 48.7955 73.8939 46.2537 72.1472C44.3394 71.4508 42.4723 72.7745 40.6219 73.223C40.6137 75.0505 40.4944 77.1139 42.1036 78.3845C44.7527 80.9978 47.9501 83.2886 51.5587 84.3295C52.7178 84.3835 53.935 84.3131 55.0341 83.9188ZM70.2688 83.9919C74.8797 82.0061 79.2049 78.8149 81.805 74.4721C82.7412 73.2223 83.4286 71.0343 80.9833 71.7579C77.9117 73.6872 75.1379 76.0751 71.9911 77.9029C70.0832 79.4107 68.7089 81.4856 67.3525 83.4698C67.8254 84.5691 69.3624 84.307 70.2688 83.9919ZM73.3945 76.0122C75.7123 74.1128 79.0659 72.8891 80.2827 70.0078C80.8325 67.7421 80.8757 65.3973 81.105 63.086C78.7954 61.0387 75.959 59.6503 73.1859 58.3385C70.4452 58.5577 68.2303 60.9883 66.0629 62.5635C64.908 63.2004 65.2045 64.6314 64.8907 65.7286C64.4708 68.294 63.9845 70.8516 63.7046 73.4371C65.8609 75.0308 68.2681 76.4935 70.8901 77.1083C71.8376 77.1199 72.6248 76.4788 73.3945 76.0122ZM56.863 76.4121C58.962 75.6123 61.7395 75.0084 62.7249 72.7875C63.4556 69.6755 63.862 66.4908 64.2482 63.3207C62.1628 61.3404 59.9363 59.2526 57.2019 58.2191C54.8431 58.1813 52.8439 59.8473 50.7449 60.7573C47.921 61.5226 46.9401 64.0875 46.8166 66.7365C45.9881 69.357 46.9389 72.0488 49.3202 73.4932C51.4 75.0241 54.0731 77.4651 56.863 76.4121ZM39.2945 72.7395C37.5916 69.5957 36.4172 66.1527 35.9483 62.6106C34.2642 62.9491 35.7949 67.0752 36.2589 68.7588C37.053 71.0329 38.2678 73.1234 39.5273 75.1676C39.7576 74.3265 39.8942 73.4912 39.2945 72.7395ZM38.5611 58.7442C39.3047 57.6841 40.4883 56.8472 40.9344 55.636C41.7217 51.9693 43.0059 48.4295 44.8426 45.1513C44.765 43.0333 42.3952 41.7465 41.2153 44.0804C37.8533 48.4007 35.2159 53.6653 35.0998 59.2217C34.6577 61.1275 36.3193 62.5139 37.2765 60.2573C37.7054 59.7535 38.1335 59.2491 38.5611 58.7442ZM81.8539 61.3712C83.279 59.5047 85.2485 57.2893 84.7363 54.7612C83.8446 49.9674 81.3781 45.4159 77.5894 42.2918C76.4646 41.8158 74.409 40.064 73.6243 41.7186C72.4645 43.9418 69.5801 46.0434 70.6194 48.812C71.5103 51.545 72.1603 54.4015 73.459 56.9751C75.848 58.8359 78.6154 60.2822 81.3978 61.5029L81.8539 61.3712H81.8539ZM50.067 60.1283C52.2731 59.0167 54.4158 57.7877 56.5671 56.5758C57.2925 54.0468 58.2029 51.5761 59.0511 49.0895C59.1698 46.4006 56.7658 44.4687 55.1577 42.5829C53.5785 40.0604 50.9061 41.9953 48.9565 42.9178C44.6659 45.2043 43.6809 50.2377 42.2231 54.4392C42.4254 56.0126 43.8692 57.3258 44.9229 58.502C46.3794 59.9606 48.0168 61.9099 50.067 60.1283ZM65.8902 46.5369C67.0315 46.3807 68.306 46.4951 69.3655 46.1728C70.9503 44.4702 72.3453 42.4756 73.0054 40.2379C72.2086 37.9821 69.5684 36.9541 67.4488 36.1862C64.7484 35.3846 61.8571 34.9919 59.0543 35.3087C57.0312 36.3395 53.4023 39.3311 55.4513 41.6497C56.952 43.4327 58.5495 45.1318 60.1761 46.801C62.0843 46.8195 63.9881 46.671 65.8902 46.5369Z" fill="black"/>
<path id="Star 4" d="M60.3196 4.94635L63.7437 15.4847L74.8244 15.4847L65.86 21.9978L69.2841 32.5361L60.3196 26.0231L51.3552 32.5361L54.7793 21.9978L45.8148 15.4847L56.8955 15.4847L60.3196 4.94635Z" fill="#FFC845"/>
</g>
<defs>
<linearGradient id="paint0_linear_169_2" x1="108.016" y1="31.6166" x2="14.3163" y2="31.6166" gradientUnits="userSpaceOnUse">
<stop stop-color="#2C9F1D"/>
<stop offset="0.166667" stop-color="#2C9F1D"/>
<stop offset="0.333333" stop-color="#C8102E"/>
<stop offset="0.640625" stop-color="#C8102E"/>
<stop offset="0.71875" stop-color="#FFC845"/>
<stop offset="1" stop-color="#FFC845"/>
</linearGradient>
</defs>
</svg>
