<svg width="100" height="45" viewBox="0 0 100 45" fill="none" xmlns="http://www.w3.org/2000/svg">
<rect width="100" height="45" fill="#FF2303"/>
<path d="M27 0H75V45H27V0ZM51.9 41.5313L51.45 33.4406C51.4435 33.3076 51.4688 33.1748 51.5243 33.0522C51.5797 32.9296 51.6637 32.8201 51.7702 32.732C51.8767 32.6438 52.003 32.5792 52.1397 32.5428C52.2763 32.5065 52.42 32.4993 52.56 32.5219L61.15 33.9375L59.99 30.9375C59.9429 30.8181 59.9369 30.6879 59.9728 30.5652C60.0087 30.4425 60.0846 30.3333 60.19 30.2531L69.6 23.1094L67.48 22.1813C67.3368 22.1178 67.2233 22.0076 67.1607 21.8712C67.0981 21.7348 67.0907 21.5817 67.14 21.4406L69 16.0781L63.58 17.1563C63.4332 17.185 63.2803 17.1652 63.1472 17.1002C63.0142 17.0353 62.9091 16.9292 62.85 16.8L61.8 14.4844L57.57 18.7406C57.4733 18.8363 57.3461 18.8999 57.2075 18.9221C57.0689 18.9442 56.9264 18.9237 56.8014 18.8634C56.6763 18.8032 56.5755 18.7067 56.5139 18.5882C56.4524 18.4697 56.4334 18.3357 56.46 18.2063L58.5 8.34375L55.23 10.1156C55.1532 10.1578 55.068 10.1848 54.9797 10.1948C54.8914 10.2049 54.8018 10.1978 54.7164 10.1741C54.6311 10.1504 54.5519 10.1105 54.4837 10.0569C54.4155 10.0033 54.3598 9.93711 54.32 9.8625L51 3.75L47.68 9.8625C47.6402 9.93711 47.5845 10.0033 47.5163 10.0569C47.4481 10.1105 47.3689 10.1504 47.2836 10.1741C47.1982 10.1978 47.1086 10.2049 47.0203 10.1948C46.932 10.1848 46.8468 10.1578 46.77 10.1156L43.5 8.34375L45.54 18.2063C45.5666 18.3357 45.5476 18.4697 45.4861 18.5882C45.4245 18.7067 45.3237 18.8032 45.1986 18.8634C45.0736 18.9237 44.9311 18.9442 44.7925 18.9221C44.6539 18.8999 44.5267 18.8363 44.43 18.7406L40.2 14.4844L39.15 16.8C39.0909 16.9292 38.9858 17.0353 38.8528 17.1002C38.7197 17.1652 38.5668 17.185 38.42 17.1563L33 16.0781L34.86 21.4406C34.9093 21.5817 34.9019 21.7348 34.8393 21.8712C34.7767 22.0076 34.6632 22.1178 34.52 22.1813L32.4 23.1094L41.81 30.2531C41.9154 30.3333 41.9913 30.4425 42.0272 30.5652C42.0631 30.6879 42.0571 30.8181 42.01 30.9375L40.85 33.9375L49.44 32.5219C49.58 32.4993 49.7237 32.5065 49.8603 32.5428C49.997 32.5792 50.1233 32.6438 50.2298 32.732C50.3363 32.8201 50.4203 32.9296 50.4757 33.0522C50.5312 33.1748 50.5565 33.3076 50.55 33.4406L50.1 41.5313H51.9Z" fill="white"/>
</svg>
