<svg width="108" height="123" viewBox="0 0 108 123" fill="none" xmlns="http://www.w3.org/2000/svg">
<g id="costaRica">
<g id="g8">
<path id="path2" d="M46.941 0C45.8536 3.2714 44.5684 5.70852 43.2405 7.96562C41.7915 5.79687 40.3601 3.5754 39.2058 0.522439L25.9225 3.0544C22.8108 15.6091 12.0008 24.5518 0.801527 28.0321V49.7907H5.67534C7.32634 49.7907 8.65546 51.1092 8.65546 52.747C8.65546 54.3848 7.32634 55.7033 5.67534 55.7033H0.801346V78.6064C0.784978 94.9206 13.9266 102.665 18.5769 105.111L54.2817 123L89.9865 105.111C94.6367 102.665 107.778 94.9206 107.762 78.6064V55.7033H102.888C101.237 55.7033 99.9079 54.3848 99.9079 52.747C99.9079 51.1092 101.237 49.7907 102.888 49.7907H107.762V28.0321C96.5626 24.5518 85.7526 15.6091 82.6409 3.0544L69.3576 0.522439C68.2033 3.5754 66.7719 5.79687 65.3229 7.96562C63.995 5.70852 62.7098 3.2714 61.6224 0H54.2817H46.941Z" fill="#EBC17D"/>
<path id="path4" d="M48.2363 1.67554C46.9359 5.64928 45.2893 8.86485 43.2406 11.4916C41.3522 8.95545 39.5595 5.57209 37.967 2.59211L27.4429 4.61735C26.3161 9.24545 23.6317 14.2246 19.0614 18.9775C15.7053 22.4677 10.1052 26.828 2.65204 29.3274V47.8005H5.46591C8.33354 47.8005 10.6421 49.9669 10.6421 52.6581C10.6421 55.3492 8.33354 57.5158 5.46591 57.5158H2.65204V78.6064C2.75039 93.7956 15.5071 101.4 19.1321 103.26L54.2817 120.779L89.4313 103.26C93.0563 101.4 105.813 93.7956 105.911 78.6064V57.5158H103.098C100.23 57.5158 97.9214 55.3492 97.9214 52.6581C97.9214 49.9669 100.23 47.8005 103.098 47.8005H105.911V29.3274C98.4582 26.828 92.8581 22.4677 89.502 18.9775C84.9317 14.2246 82.2474 9.24545 81.1206 4.61735L70.5964 2.59211C69.004 5.57209 67.2112 8.95545 65.3229 11.4916C63.2741 8.86485 61.6276 5.64928 60.3271 1.67554H54.2817H48.2363Z" fill="white"/>
<path id="path6" d="M17.9684 24.1491C13.3109 28.2697 9.41812 30.1347 5.72717 31.6297V44.6759C10.3157 44.8672 13.9485 48.3814 13.9485 52.7188V52.7752C13.9485 57.1126 10.3157 60.627 5.72717 60.8183V77.3264C5.72993 88.4662 11.8376 95.7394 20.1426 100.076L54.2817 117.25L88.4207 100.076C96.7257 95.7394 102.833 88.4662 102.836 77.3264V60.8183C98.2477 60.627 94.6148 57.1126 94.6148 52.7752V52.7188C94.6148 48.3814 98.2477 44.8672 102.836 44.6759V31.6297C99.1452 30.1347 95.2524 28.2697 90.5949 24.1491V79.0171C90.4965 88.2375 86.3555 92.0429 81.8858 94.6914L54.2817 109.676L26.6775 94.6914C22.2079 92.0429 18.0668 88.2375 17.9684 79.0171V24.1491Z" fill="#132361"/>
</g>
<g id="g16">
<path id="path10" d="M36.2473 6.20676L29.9969 7.33295C28.0198 13.1384 24.8896 17.1188 21.8319 20.6281V21.8834C27.2041 19.319 35.1908 17.2865 43.3871 16.2699C40.2609 13.2548 37.9992 9.84659 36.2473 6.20676Z" fill="#132361"/>
<path id="path12" d="M72.3161 6.20676L78.5666 7.33295C80.5436 13.1384 83.6738 17.1188 86.7315 20.6281V21.8834C81.3594 19.319 73.3726 17.2865 65.1763 16.2699C68.3025 13.2548 70.5642 9.84659 72.3161 6.20676V6.20676Z" fill="#132361"/>
<path id="path14" d="M50.4374 4.79898C48.8227 9.41077 46.3783 12.8322 43.4232 16.265C47.0786 15.813 50.7698 15.5591 54.2817 15.5543C57.7935 15.5591 61.4847 15.813 65.1401 16.265C62.185 12.8322 59.7407 9.41077 58.126 4.79898H50.4374Z" fill="#EC1D25"/>
</g>
<g id="g22">
<path id="path18" d="M50.8573 24.3083C46.3256 24.3457 34.621 26.034 30.4471 27.7702C27.8439 28.8531 26.2107 30.5054 26.2503 33.0681V78.024C26.2448 80.8566 26.0848 84.0535 29.5153 86.2241L50.8573 98.5276V66.8331L42.0578 73.0844V83.6758L36.2046 80.1719C35.1471 79.4662 34.9352 78.6564 34.9302 77.1059V37.7666C34.8821 36.6003 35.052 35.5198 36.7222 35.0192L42.0578 33.7052V56.7195L50.8573 50.4682V24.3083Z" fill="#EC1D25"/>
<path id="path20" d="M57.7062 24.3083V98.5275L64.6679 94.5142C66.083 93.8002 66.5338 92.5485 66.5056 91.6009V61.5466L72.5577 65.8392C73.2557 66.3898 73.6352 66.8603 73.6333 67.6832V89.3457L79.0481 86.2241C82.4786 84.0536 82.3185 80.8565 82.313 78.0239V64.5862C82.3372 63.3536 81.9637 62.4498 81.1581 61.856L76.1412 58.2325C77.6072 57.2039 79.2806 56.4987 80.6111 54.8165C81.2156 54.0522 82.3639 51.9963 82.313 50.1454V33.0681C82.3527 30.5054 80.7195 28.853 78.1164 27.7702C73.9425 26.034 62.2379 24.3457 57.7062 24.3083V24.3083ZM66.5056 33.7051L71.8413 35.0191C73.5115 35.5197 73.6814 36.6003 73.6333 37.7665V51.7288C73.655 52.6456 73.0196 53.1641 72.5577 53.4545L66.5056 57.7471V33.7051Z" fill="#EC1D25"/>
</g>
</g>
</svg>
