<svg width="96" height="132" viewBox="0 0 96 132" fill="none" xmlns="http://www.w3.org/2000/svg">
<g id="estadosUnidos">
<path id="path8" d="M96 0V82.6948C95.9977 87.0406 94.9602 91.3233 92.9732 95.1882C90.9863 99.0532 88.1072 102.389 84.5743 104.92L48.0298 131.083L11.4257 104.92C7.89284 102.389 5.0137 99.0532 3.02676 95.1882C1.03982 91.3233 0.00225149 87.0406 0 82.6948V0H96Z" fill="white"/>
<path id="polygon10" d="M20.5543 50.6551V100.922L26.6103 105.308V53.4593L20.5543 50.6551Z" fill="#C10230"/>
<path id="polygon12" d="M38.7819 114.078V59.0379L32.726 56.2635V109.723L38.7819 114.078Z" fill="#C10230"/>
<path id="polygon14" d="M44.8677 118.493L47.9702 120.731L50.9236 118.583V61.872L47.8807 63.2443L44.8677 61.872V118.493Z" fill="#C10230"/>
<path id="polygon16" d="M57.0392 59.0677V114.168L63.0951 109.782V56.2933L57.0392 59.0677Z" fill="#C10230"/>
<path id="polygon18" d="M69.2107 53.4891V105.397L75.2666 101.012V50.7148L69.2107 53.4891Z" fill="#C10230"/>
<path id="path20" d="M14.409 96.716L16.7359 98.4164C15.5416 96.7838 14.782 94.8744 14.5283 92.8676V91.4357V47.8509L8.56187 45.0466V84.2163C8.41399 89.1022 10.5172 93.7584 14.409 96.716Z" fill="#C10230"/>
<path id="path22" d="M81.3524 47.8509V91.4357C81.382 91.9125 81.382 92.3908 81.3524 92.8676C81.1076 94.8717 80.3583 96.7808 79.1747 98.4164L81.5016 96.716C85.3855 93.7519 87.606 89.1001 87.468 84.2163V45.0466L81.3524 47.8509Z" fill="#C10230"/>
<path id="path24" d="M39.8857 51.5798L47.9105 55.3089L55.9652 51.6097C57.61 50.8582 58.661 49.2117 58.6501 47.4033V34.3368C58.6509 32.4691 57.5687 30.7702 55.8757 29.9813L44.3307 24.701V15.7514H51.4904V20.972L58.6501 24.2834V11.9627C58.6501 10.3151 57.3145 8.97946 55.6669 8.97946H40.184C38.5364 8.97946 37.2008 10.3151 37.2008 11.9627V26.491C37.1924 28.3609 38.277 30.0634 39.9752 30.8465L51.5202 36.1566V46.4487L47.9702 48.0895L44.3903 46.4487V40.4823L37.2008 37.1411V47.3735C37.1897 49.1818 38.2408 50.8283 39.8857 51.5798V51.5798Z" fill="#202945"/>
<path id="path26" d="M73.059 15.7514H80.2485V24.7011L73.059 28.0124V15.7514ZM73.059 37.3201C73.0601 36.8993 73.1814 36.4876 73.4087 36.1335C73.6359 35.7794 73.9597 35.4976 74.3417 35.3213L80.3082 32.6066V40.542L84.6935 38.4239C85.5067 38.0552 86.1958 37.4591 86.6775 36.7073C87.1592 35.9556 87.413 35.0805 87.4083 34.1877V8.91982H69.0018C68.5848 8.8984 68.1679 8.96475 67.7782 9.11459C67.3884 9.26442 67.0345 9.49441 66.7392 9.78966C66.444 10.0849 66.214 10.4389 66.0642 10.8286C65.9143 11.2183 65.848 11.6352 65.8694 12.0522V47.1349L73.059 43.8533V37.3201Z" fill="#202945"/>
<path id="path28" d="M11.1871 38.4239L29.8322 47.0752V8.91983H22.7322V35.918L16.7657 33.1734C16.4042 33.0089 16.0972 32.7447 15.8805 32.4118C15.6639 32.0789 15.5467 31.6911 15.5426 31.294V8.91983H8.41272V34.0982C8.41441 35.0088 8.6765 35.8998 9.16809 36.6663C9.65968 37.4327 10.3602 38.0426 11.1871 38.4239V38.4239Z" fill="#202945"/>
<path id="path30" d="M93.6433 82.6948C93.6396 86.6667 92.6908 90.5806 90.8753 94.1132C89.0597 97.6458 86.4295 100.696 83.202 103.011L48.0298 128.189L12.798 103.011C9.57053 100.696 6.94031 97.6458 5.12473 94.1132C3.30916 90.5806 2.36035 86.6667 2.35674 82.6948V2.38657H93.6433V82.6948ZM0 0V82.6948C0.00225149 87.0406 1.03982 91.3233 3.02676 95.1882C5.0137 99.0532 7.89284 102.389 11.4257 104.92L48.0298 131.083L84.5743 104.92C88.1072 102.389 90.9863 99.0532 92.9732 95.1882C94.9602 91.3233 95.9977 87.0406 96 82.6948V0H0Z" fill="#202945"/>
</g>
</svg>
