<svg width="106" height="141" viewBox="0 0 106 141" fill="none" xmlns="http://www.w3.org/2000/svg">
<g id="portugal">
<path id="path1572" fill-rule="evenodd" clip-rule="evenodd" d="M63.4336 114.99C62.3998 115.717 61.1858 116.051 59.9855 116.387C59.6249 116.448 59.0935 116.532 59.1174 117.007C59.1174 121.665 59.1174 126.323 59.1174 130.981C54.9291 130.981 50.7407 130.981 46.5524 130.981C46.5524 126.306 46.5524 121.631 46.5524 116.956C46.5035 116.418 45.8868 116.463 45.4925 116.342C44.3732 116.042 43.2642 115.651 42.2845 115.022C41.9138 114.852 41.5343 115.214 41.5785 115.592C41.5061 118.923 41.5548 122.255 41.5407 125.586C41.5407 126.689 41.5407 127.792 41.5407 128.894C38.9304 131.006 36.2934 133.085 33.7111 135.23C33.375 135.542 33.6765 136.12 34.1191 136.058C44.8389 136.113 55.5589 136.091 66.279 136.088C68.0741 136.067 69.8724 136.117 71.6656 136.028C72.1164 135.994 72.2562 135.343 71.8671 135.119C69.3221 133.048 66.7596 130.999 64.2052 128.939C64.1842 124.423 64.1716 119.906 64.1569 115.389C64.1296 115.027 63.7585 114.819 63.4355 114.99L63.4336 114.99Z" fill="#F01823"/>
<path id="path1797" d="M29.8875 46.4202L48.2962 43.9049L61.0745 43.5671L75.3398 46.6169L72.3884 63.9321L72.1888 89.6485L58.1231 102.203L49.4655 102.596L41.7917 96.2013L35.2414 88.8384L33.3309 65.4078L29.6908 49.6667L29.8875 46.4202Z" fill="white"/>
<path id="path1576" fill-rule="evenodd" clip-rule="evenodd" d="M52.6761 28.6056C50.8267 30.6203 47.5301 30.5242 45.6077 28.6704C43.4581 29.2196 41.6321 30.9683 39.483 31.7705C35.0032 33.6866 29.872 35.4416 25.044 33.9212C23.8277 33.2195 22.4 32.3348 21.5964 34.0929C20.1095 35.853 18.2003 37.3626 16.9662 39.2725C23.333 51.9033 26.7222 66.0421 26.7131 80.1844C26.7651 84.4191 26.8407 88.6433 26.312 92.8334C27.7186 94.3224 29.94 95.0366 31.424 96.5924C35.5938 100.326 38.4634 105.299 42.9059 108.771C44.3794 109.802 46.075 111.802 48.0614 111.098C49.1185 110.192 50.6993 108.485 52.053 109.969C53.1469 110.994 53.9835 108.951 55.2065 109.535C56.7743 109.761 57.865 112.099 59.5657 111.052C64.6393 108.077 68.2285 103.268 71.9464 98.8395C73.8825 96.4879 76.8749 95.0527 79.1832 93.1512C80.0596 91.7126 78.8455 89.7827 79.0491 88.1899C78.0941 71.5381 80.9013 54.4319 88.6755 39.5105C88.1919 37.9498 86.4289 36.8988 85.4307 35.5482C84.3658 34.8257 83.5575 32.5474 82.0059 33.3581C76.6852 35.9047 70.6198 33.7844 65.5984 31.4565C63.6801 30.7033 62.0422 29.1115 60.1017 28.64C58.2564 30.3629 54.977 30.8477 53.2917 28.6316C53.086 28.6357 52.9205 27.9887 52.7255 28.2354L52.6761 28.6056ZM51.9401 31.7643C53.0256 31.6405 51.6066 33.1432 51.4362 34.5139C51.5474 35.6483 54.2707 36.0097 52.7988 36.1083C51.8527 35.9858 51.6796 36.6101 51.8979 37.6878C52.1686 38.3222 51.627 39.9877 51.4185 38.5156V31.7894L51.9401 31.7643ZM61.849 32.2245C62.818 32.3985 64.0628 32.401 64.8769 32.7494C64.7069 34.0889 62.8726 32.5873 62.0414 33.3758C61.5432 34.0678 61.4124 35.438 62.5764 35.5132C63.2164 35.5602 64.4998 35.7542 63.6985 36.4493C62.2501 35.9821 60.7864 36.1677 61.0877 38.0923C61.241 38.5983 60.4113 39.996 60.5322 38.7453C60.7664 36.5457 61.2049 34.3578 61.6099 32.2001L61.849 32.2245ZM45.0763 32.6889C45.1424 33.6203 43.6073 32.8083 43.1031 33.443C42.0261 34.0846 42.4532 36.2516 43.905 35.7207C44.4746 35.6704 45.4218 35.2735 45.3116 36.2423C44.1861 36.0121 42.6658 36.6393 43.0559 38.0179C43.0024 38.5111 43.6355 40.0518 42.8924 39.8645C42.4885 37.5129 41.8485 35.0693 42.0079 32.6994C43.0262 32.5935 44.0602 32.5156 45.0763 32.3493V32.6334L45.0763 32.6889ZM57.0011 38.1833C57.5999 38.3665 57.1942 39.6368 56.5975 38.9007C56.4758 38.5247 56.4779 38.0643 57.0011 38.1833ZM48.6899 40.6108C50.6445 40.5512 52.4306 42.0767 54.4095 41.1367C57.6763 39.8733 61.0233 41.321 64.0647 42.4824C67.7918 43.6197 71.7392 43.4423 75.5876 43.4784C76.7921 44.9297 78.1397 46.2808 79.1511 47.8808C76.6756 56.1928 74.3648 64.6979 74.1893 73.438C74.0047 79.0573 73.3355 84.7081 73.8015 90.3226C69.5795 92.7976 66.4508 96.6187 63.6569 100.549C60.0056 105.177 53.1605 106.762 47.7801 104.545C43.9539 103.272 41.5712 99.8899 39.3272 96.7658C37.3225 94.2075 34.858 92.0283 32.0778 90.3448C32.4419 83.7957 31.7735 77.2249 31.4835 70.6795C31.1205 62.8545 28.814 55.2889 26.7288 47.8026C27.8911 46.3012 29.0922 44.5045 30.5663 43.4768C35.4394 43.5444 40.5188 43.4915 44.9809 41.2723C45.9438 40.8884 47.6898 42.1558 47.3691 40.6096C48.9554 40.9348 48.2382 40.6688 48.6899 40.6111V40.6108ZM65.2931 39.1759C65.9975 39.1737 65.2448 40.6787 65.0669 39.7497C65.1005 39.5253 64.9011 39.0698 65.2931 39.1759Z" fill="#F01823"/>
<path id="path1566" d="M37.2402 110.65L41.3596 113.882L41.0755 126.631V128.726L31.8068 136.325L74.3148 136.574L64.5491 128.584L64.5281 113.802L68.6713 110.563L68.8974 126.91L84.5665 139.892L20.7931 140.09L23.9537 137.391L37.1824 126.91L37.2402 110.65Z" fill="#D9C491" fill-opacity="0.996078"/>
<path id="path1574" fill-rule="evenodd" clip-rule="evenodd" d="M49.7035 116.389C48.9448 116.809 47.3799 116.195 47.545 117.495C47.5986 121.568 47.4365 125.687 47.6252 129.732C48.5695 130.375 50.0695 129.85 51.231 130.021C53.4799 129.922 55.8125 130.22 58.0076 129.867C58.2964 126.593 58.0496 123.219 58.1315 119.906C57.867 118.889 58.7626 116.92 57.4611 116.62C56.6909 116.725 55.211 115.862 55.3789 117.248C55.3789 120.387 55.3789 123.526 55.3789 126.665C53.6849 126.665 51.991 126.665 50.297 126.665C50.2425 123.337 50.4062 119.962 50.2173 116.662C50.2173 116.427 49.8704 116.389 49.7037 116.389H49.7035Z" fill="#D9C491" fill-opacity="0.996078"/>
<path id="path1623" fill-rule="evenodd" clip-rule="evenodd" d="M49.0334 5.06224C44.2937 5.17452 37.9083 4.29592 33.1985 4.76387C32.4558 5.81733 35.9618 7.10177 36.4918 7.83782C38.1802 9.26896 39.9255 10.6311 41.6419 12.0281C41.7647 15.9741 41.1869 21.1454 41.7089 25.0548C42.8466 25.5866 44.3469 23.1104 45.5473 22.9275C47.4793 22.4694 46.1937 19.9322 46.5635 18.5224V9.97955H59.2557C59.3619 14.0997 59.0475 18.3439 59.411 22.3883C60.7113 23.1568 62.6613 24.3932 64.1595 24.7163C64.8084 22.8699 64.8664 19.912 65.0795 17.914C65.2558 15.7794 64.8465 13.3576 65.3881 11.4019C67.695 9.52344 70.0885 7.74276 72.3122 5.76614C72.5995 4.3833 70.5313 5.10391 69.7433 4.88078C63.1632 4.76052 55.6144 5.05666 49.0333 5.06211L49.0334 5.06224Z" fill="#F01823"/>
<path id="path1631" fill-rule="evenodd" clip-rule="evenodd" d="M99.4385 40.1909C97.1359 42.3954 96.0286 45.2339 93.9701 47.6705C92.5669 47.9583 90.0649 46.3996 89.8619 48.5394C89.7691 49.4008 88.1624 51.3873 88.8901 52.1131C91.1347 52.5193 93.911 51.9167 96.1807 51.993L96.0353 65.1469C92.6023 65.1969 88.8679 64.958 85.4349 65.008C85.0471 66.0098 83.8701 69.2315 85.0306 69.7462C87.8575 69.7959 91.1991 69.569 94.0261 69.6182C96.0833 72.0462 98.4522 76.1544 100.739 78.3602C101.752 78.0105 100.371 74.9393 100.675 74.1246C100.769 62.9204 101.301 50.6794 100.884 39.4858C100.841 39.2965 99.9179 39.9367 99.765 39.9274L99.4385 40.1909Z" fill="#F01823"/>
<path id="path1633" fill-rule="evenodd" clip-rule="evenodd" d="M4.63167 44.6694C4.58277 55.0893 4.33762 67.55 4.76956 77.9605C5.45503 78.8246 7.08463 76.1598 7.63701 75.7683C9.18476 73.9652 10.5012 71.4489 12.0018 69.6069C14.8831 69.5192 18.0585 70.0619 20.8914 69.7672C20.7084 68.5412 20.9609 66.1937 20.4542 65.048C18.0247 64.3393 15.303 65.0144 12.7869 64.8228C10.5713 65.2966 9.3194 65.0198 9.86996 62.7275L10.0475 52.1794C12.2247 51.988 14.7093 52.6735 16.7976 51.9823C17.1138 50.7684 15.6265 49.1328 15.4908 47.8869C14.1155 47.1512 11.8641 48.5442 11.1467 46.5604C9.44352 44.5007 7.38493 40.9896 5.52031 39.0733C4.8452 39.8474 4.92699 42.7103 4.63167 44.6695V44.6694Z" fill="#F01823"/>
<path id="path1635" fill-rule="evenodd" clip-rule="evenodd" d="M57.1888 41.8915C55.6337 41.809 54.1831 42.4416 52.8301 43.1325C51.4313 42.3604 49.8743 41.7549 48.247 41.8927C46.7868 41.7898 45.3791 42.2616 44.0994 42.9249C41.4328 44.163 38.4607 44.6382 35.5241 44.5929C34.0216 44.633 32.499 44.5653 31.0097 44.6655C30.0849 45.4988 29.3227 46.5573 28.4629 47.4788C27.7316 48.0116 28.287 48.9106 28.4482 49.5781C30.2885 55.4538 31.6901 61.4813 32.519 67.5702C32.9758 72.5242 33.0547 77.5145 33.2901 82.4865C33.3753 84.8888 33.4918 87.3032 33.4269 89.6939C33.9344 90.2893 34.767 90.6088 35.3889 91.1186C38.4528 93.231 40.5961 96.3292 42.7218 99.3294C44.5732 101.85 47.415 103.551 50.4799 104.115C52.1302 104.459 53.8544 104.356 55.5126 104.119C58.6913 103.482 61.6667 101.63 63.4443 98.8909C65.4742 95.9099 67.6818 92.9698 70.7146 90.9468C71.2625 90.48 72.076 90.2274 72.4285 89.6063C72.3384 85.903 72.6199 82.1939 72.7257 78.4892C72.9073 74.9403 72.9539 71.3822 73.2791 67.8464C74.1772 61.1887 75.775 54.6216 77.8282 48.2183C77.7579 47.6143 77.0893 47.2748 76.7801 46.7807C76.0893 46.0818 75.5442 45.1788 74.7471 44.627C72.0737 44.5437 69.3878 44.7425 66.7335 44.3787C64.5933 44.0702 62.5873 43.3815 60.6401 42.434C59.557 41.9285 58.3666 41.8541 57.189 41.8919L57.1888 41.8915ZM48.296 43.9049C49.9566 43.9133 51.5437 44.6244 52.7866 45.7022C53.3393 45.8617 53.7302 45.1924 54.2378 45.032C55.5404 44.2804 57.0601 43.6029 58.5905 44.0306C60.2955 44.4715 61.8096 45.4511 63.5352 45.8443C66.8712 46.7833 70.3692 46.728 73.8033 46.7414C74.3382 47.3294 74.8761 47.9237 75.3763 48.5305C72.7476 56.8099 71.0296 65.3806 70.3827 74.046C69.9524 78.9215 70.1209 83.8206 70.1236 88.708C67.0766 90.7336 64.4742 93.3859 62.4635 96.4397C61.2241 98.4105 59.6596 100.29 57.4706 101.233C55.2862 102.291 52.7398 102.544 50.395 101.945C47.6792 101.403 45.2671 99.6626 43.8146 97.331C41.6764 93.9602 38.9313 90.9134 35.5612 88.7403C35.7732 81.6261 35.5738 74.4862 34.5922 67.4298C33.7273 61.0156 32.2972 54.6762 30.2848 48.5239C30.8269 47.9117 31.369 47.2995 31.9111 46.6872C36.3119 46.9394 40.8848 46.6287 44.9593 44.8202C45.9891 44.2818 47.1208 43.8866 48.296 43.9049V43.9049Z" fill="#D9C491" fill-opacity="0.996078"/>
<path id="path1637" fill-rule="evenodd" clip-rule="evenodd" d="M47.7248 11.1657C47.4819 11.6335 47.6778 12.2134 47.615 12.7266C47.615 15.8033 47.615 18.8799 47.615 21.9565C47.7548 22.4691 48.4253 22.253 48.8247 22.3942C49.2409 22.4236 49.6175 22.6699 50.0315 22.653C50.4195 22.3415 50.1476 21.7512 50.2317 21.3194C50.2423 18.9543 50.2527 16.5892 50.2617 14.2241C51.9725 14.2241 53.6831 14.2241 55.3939 14.2241C55.5202 16.9301 55.4149 19.6487 55.5341 22.3587C55.6697 22.8543 56.2261 22.5235 56.5511 22.4565C57.0173 22.3188 57.5387 22.3824 57.9733 22.1637C58.1607 21.5678 58.0003 20.9057 58.0534 20.2842C58.0534 17.3244 58.0534 14.3645 58.0534 11.4047C57.9204 10.8672 57.2298 11.1674 56.8343 11.0899C53.8661 11.0899 50.8979 11.0899 47.9298 11.0899C47.8613 11.1151 47.7931 11.1405 47.7249 11.1657L47.7248 11.1657Z" fill="#D9C491" fill-opacity="0.996078"/>
<path id="path1639" fill-rule="evenodd" clip-rule="evenodd" d="M46.4646 1.57091C38.828 1.60657 30.6958 1.45757 23.0617 1.62548C22.3754 2.06797 23.8824 2.61625 24.1973 2.94106C28.6751 6.62698 33.2158 10.2356 37.7294 13.8774C37.7753 18.0373 37.6307 22.2146 37.8322 26.3646C38.3619 26.8308 38.9993 26.0375 39.5511 25.8989C40.6328 25.7234 40.4822 24.6961 40.446 23.8626C40.4047 20.1396 40.5245 16.38 40.3828 12.6797C37.0315 9.80476 33.4579 7.11697 30.0615 4.26364C29.0671 3.67493 30.1258 3.80216 30.7714 3.79523C45.9029 3.71169 61.045 3.67917 76.1765 3.81938C72.6155 6.76479 68.9919 9.63116 65.3953 12.5328C65.1248 14.0461 65.3531 15.6728 65.2778 17.2305C65.3153 19.9434 65.2024 22.6882 65.3342 25.3811C65.9515 25.8867 66.7972 26.2028 67.5462 26.5404C68.2571 26.3864 67.8286 25.4024 67.9678 24.879C68.0199 21.1833 68.0004 17.487 68.0117 13.791C72.8598 9.90347 77.7135 6.02307 82.5565 2.12915C82.8292 1.13874 81.1505 1.72776 80.5494 1.56959C69.1878 1.56997 57.8262 1.56737 46.4646 1.57108L46.4646 1.57091Z" fill="#D9C491" fill-opacity="0.996078"/>
<path id="path1641" fill-rule="evenodd" clip-rule="evenodd" d="M11.2251 53.5001C10.9822 53.9678 11.1783 54.5477 11.1153 55.061C11.1321 57.8871 11.0833 60.7248 11.1395 63.5438C11.3042 63.9865 11.9048 63.7215 12.265 63.7933C14.7404 63.7765 17.2273 63.8254 19.6956 63.7692C20.1651 63.5926 19.8116 63.0024 19.7988 62.6413C19.6756 62.2028 19.692 61.7071 19.4489 61.3162C18.5951 61.164 17.6956 61.2798 16.8237 61.2341C15.9424 61.2278 15.0611 61.2215 14.1798 61.2173C14.1798 59.4789 14.1798 57.7405 14.1798 56.002C15.4092 55.9742 16.651 56.0126 17.8728 55.9433C18.3637 55.7628 17.9345 55.1776 17.8896 54.8301C17.7175 54.3849 17.6944 53.865 17.4103 53.4759C16.3763 53.359 15.311 53.4591 14.2649 53.4253C13.2792 53.4572 12.2707 53.3615 11.2994 53.4736L11.2341 53.4977L11.2251 53.5001Z" fill="#D9C491" fill-opacity="0.996078"/>
<path id="path1643" fill-rule="evenodd" clip-rule="evenodd" d="M88.2405 53.4738C87.9278 54.1437 87.8086 54.8939 87.5696 55.5957C87.5612 56.1217 88.22 56.0058 88.5666 56.0357C89.6415 56.0525 90.7167 56.042 91.7917 56.0462C91.7917 57.7609 91.7917 59.4758 91.7917 61.1905C89.9845 61.2073 88.1656 61.1584 86.3655 61.2147C85.9577 61.383 86.0901 61.9745 85.9495 62.331C85.8989 62.78 85.6926 63.2263 85.7625 63.6773C86.1274 64.0097 86.6983 63.7606 87.1499 63.8376C89.634 63.8209 92.1296 63.87 94.6065 63.8135C95.0493 63.6487 94.7843 63.0482 94.8561 62.688C94.8561 59.6966 94.8561 56.7053 94.8561 53.7139C94.723 53.1764 94.0325 53.4766 93.6369 53.3991C91.8861 53.4159 90.1237 53.367 88.38 53.4233C88.3334 53.44 88.287 53.4575 88.2404 53.4749L88.2405 53.4738Z" fill="#D9C491" fill-opacity="0.996078"/>
<path id="path1647" fill-rule="evenodd" clip-rule="evenodd" d="M57.444 23.6667C55.4396 23.6256 53.4717 25.9788 54.4307 27.9021C55.3703 29.5302 57.838 29.1396 58.9217 27.8698C59.2982 27.4799 59.6131 27.0359 59.909 26.5833C63.6129 29.1126 67.6698 31.1586 71.9243 32.5819C74.4257 33.2946 77.2038 33.8838 79.7343 32.9932C80.9293 32.5759 82.0353 31.7331 83.1564 31.3315C85.5811 33.8501 87.9666 36.4215 90.2769 39.0523C88.1341 43.1535 86.2162 47.3825 84.7909 51.7916C80.4433 64.8487 79.2491 78.8405 80.5541 92.5045C80.5582 93.1565 81.0399 94.0542 80.094 94.1927C76.5826 96.0073 73.3833 98.5146 71.082 101.755C67.9988 105.868 64.4137 109.704 59.9096 112.265C58.4645 112.891 56.7839 112.339 55.7685 111.192C55.3996 110.79 54.717 110.296 54.2866 110.911C53.173 112.209 53.8984 114.354 55.444 114.947C57.847 116.047 60.7117 115.316 62.8759 113.998C66.2413 111.685 69.2664 108.841 71.7686 105.613C73.6706 102.895 75.6868 100.204 78.3388 98.1632C79.8923 96.8595 81.6508 95.8515 83.423 94.9284C83.529 93.7516 83.1754 92.4651 83.139 91.2384C82.7238 85.5046 82.6863 79.7075 83.0664 73.976C84.0813 61.6529 87.1326 49.3284 93.135 38.4449C93.0143 37.6272 92.039 37.1357 91.5714 36.4528C89.1314 33.8846 86.7804 31.19 84.2851 28.7005C83.5228 28.8226 82.9282 29.635 82.1606 29.9193C79.8996 31.0325 77.3403 30.8158 74.9382 30.4633C70.2252 29.5809 65.8905 27.389 61.7853 24.9208C60.4416 24.2453 58.9613 23.7083 57.4439 23.6667L57.444 23.6667Z" fill="#D9C491" fill-opacity="0.996078"/>
<path id="path1645" fill-rule="evenodd" clip-rule="evenodd" d="M48.0872 23.6678C44.5612 23.8399 41.8749 26.4077 38.7634 27.747C34.6102 29.6738 29.9647 31.2649 25.383 30.5478C23.9494 30.4076 22.8062 29.4154 21.5588 28.7945C20.7907 29.0532 20.3637 29.9352 19.7408 30.439C17.3375 33.0171 14.8521 35.5619 12.5575 38.2138C12.9052 39.3961 13.7303 40.5137 14.2279 41.6838C20.4666 54.6648 23.0837 69.2166 22.9065 83.5497C22.8318 87.2602 22.5962 90.9729 22.196 94.6578C22.5918 95.4331 23.653 95.5135 24.3036 96.0304C28.011 98.1725 31.0263 101.339 33.3667 104.896C36.1913 108.59 39.496 112.046 43.5359 114.411C45.6805 115.535 48.4223 116.018 50.6138 114.749C51.9587 114.004 52.4602 111.699 51.1133 110.741C50.185 110.427 49.6662 111.616 48.9499 111.991C47.5592 112.939 45.6862 112.503 44.4632 111.477C40.2245 108.677 36.8755 104.795 33.8209 100.777C31.6039 97.9401 28.6548 95.793 25.4891 94.1263C24.6827 93.912 25.2093 92.9524 25.1289 92.3982C26.4907 78.3846 25.1394 64.0133 20.5268 50.6776C19.1003 46.6526 17.2856 42.7803 15.3554 38.9757C17.7471 36.4262 20.115 33.854 22.5376 31.3337C24.4811 32.216 26.3687 33.5904 28.6143 33.4291C33.8594 33.2983 38.6619 30.8049 43.1287 28.2782C44.0487 27.7966 44.9892 27.0111 45.8328 26.6439C46.634 27.9762 48.0478 29.3337 49.7366 28.9334C51.2135 28.6967 51.9957 26.8654 51.2092 25.6113C50.5803 24.4945 49.4349 23.5635 48.0872 23.6678V23.6678Z" fill="#D9C491" fill-opacity="0.996078"/>
<path id="path1681" fill-rule="evenodd" clip-rule="evenodd" d="M1.74362 29.1089C1.54549 29.9619 1.70561 30.8886 1.64099 31.7668C1.5734 50.2934 1.56018 68.8205 1.65358 87.347C1.59334 87.6973 1.65765 88.4693 2.19486 88.1742C6.14195 83.4461 9.94015 78.5934 13.8129 73.8036C16.2407 73.7748 18.6884 73.8462 21.1039 73.7551C21.5624 73.4826 21.0913 72.8341 21.1746 72.3956C21.0573 71.9146 21.3322 70.9305 20.5736 70.9988C17.9465 71.0265 15.2995 70.9543 12.6846 71.0441C11.9281 71.7203 11.3664 72.6537 10.6832 73.4265C8.41047 76.2532 6.15288 79.0922 3.84877 81.8935C3.75978 66.3422 3.81244 50.7905 3.80155 35.2391C6.72065 38.8569 9.62177 42.4892 12.5304 46.1154C13.0835 46.347 13.7662 46.2462 14.3607 46.1679C14.9138 45.9067 14.3566 45.2858 14.2534 44.9043C13.7231 43.7653 13.3184 42.544 12.4074 41.6384C8.9983 37.4449 5.67417 33.1772 2.18139 29.0547C2.00279 28.9712 1.89814 28.9903 1.74309 29.1091L1.74362 29.1089Z" fill="#D9C491" fill-opacity="0.996078"/>
<path id="path1683" fill-rule="evenodd" clip-rule="evenodd" d="M103.861 28.9379C102.467 30.4808 101.213 32.154 99.8902 33.7606C97.269 37.0263 94.6261 40.2768 92.0182 43.5519C91.7116 44.3168 91.2595 45.0421 91.0566 45.8404C91.1652 46.3396 91.8174 46.1721 92.1865 46.2142C92.6976 46.1642 93.3967 46.4157 93.6725 45.8257C96.4923 42.3268 99.2925 38.8119 102.139 35.3345C102.201 50.7188 102.194 66.1034 102.145 81.4877C102.237 82.1077 101.977 81.737 101.742 81.4256C98.9729 78.0179 96.2345 74.5856 93.4827 71.1641C93.042 70.9084 92.4769 71.111 91.985 71.0466C89.6121 71.0717 87.2341 70.9903 84.8641 71.1127C84.4034 71.2586 84.6159 71.8757 84.5038 72.2357C84.4934 72.7217 84.3196 73.2169 84.4211 73.6944C84.8245 73.9918 85.393 73.7594 85.8644 73.8331C87.9606 73.8338 90.0568 73.8346 92.1531 73.8353C96.0443 78.6518 99.8796 83.5153 103.826 88.2862C104.179 88.5491 104.455 88.0906 104.363 87.7683C104.434 71.0567 104.412 54.3448 104.394 37.6331C104.373 34.7974 104.411 31.9581 104.334 29.1245C104.26 28.9331 104.045 28.8337 103.861 28.9373L103.861 28.9379Z" fill="#D9C491" fill-opacity="0.996078"/>
<path id="path590" d="M21.1498 75.343H14.5826L0.00222394 93.4788L0 23.7438L11.0355 37.4637L21.1896 26.531L23.5528 28.124C25.6097 29.7506 30.4663 29.5302 36.1058 27.232V14.5846L17.9763 -3.6477e-06L87.7071 0.00625842L69.5797 14.5846V27.232C75.2171 29.5302 80.0758 29.7506 82.1326 28.124L84.4938 26.531L94.6478 37.4637L105.977 23.7438L105.969 93.4788L91.3884 75.343H84.5337C84.3909 77.5971 84.3175 79.8533 84.3175 82.0969C84.3175 86.7332 84.6491 91.2918 85.2389 95.8903C80.4431 97.9807 76.6506 100.992 73.8675 105.463C72.5663 107.266 71.1391 108.97 69.5797 110.536V126.411L87.7071 140.994L17.9763 141L36.1058 126.411V110.536C34.5485 108.968 33.1171 107.262 31.8179 105.463C29.0328 100.993 25.2402 97.9807 20.4466 95.8903C21.0363 91.2918 21.3679 86.729 21.3679 82.097C21.3679 79.8533 21.2945 77.5971 21.1497 75.343M41.9761 115.336V129.117L33.8686 135.64H71.8172L63.7095 129.117V115.34C63.3883 115.548 63.063 115.753 62.7377 115.949C62.7377 115.949 62.0199 116.247 61.1594 116.52C60.6977 116.669 60.1394 116.828 59.5727 116.939C59.5705 117.586 59.5705 131.421 59.5705 131.421H46.1171V116.943C45.0216 116.729 43.8441 116.324 42.9479 115.947C42.6226 115.747 42.2973 115.544 41.9762 115.336M51.7881 115.877V125.272H53.8953V115.877C53.4798 115.562 53.1208 115.18 52.8396 114.757C52.5626 115.18 52.2037 115.562 51.7881 115.877M47.9326 117.074V129.599H57.7529V117.074C57.0393 117.036 56.3509 116.923 55.7108 116.742V127.083H49.9728V116.742C49.3326 116.923 48.6463 117.036 47.9327 117.074M37.9215 112.248V127.28L23.1291 139.18L82.5548 139.174L67.7624 127.28V112.249C67.0404 112.882 66.2953 113.491 65.525 114.07V128.248L76.9717 137.451H28.7116L40.1585 128.248V114.066C39.3883 113.491 38.6453 112.882 37.9212 112.248M37.9212 26.4324C38.6621 26.0798 39.4093 25.6978 40.1585 25.2781V12.7461L28.7116 3.54279H76.9716L65.5247 12.7461V25.2781C66.2761 25.6978 67.0254 26.0798 67.7621 26.4324V13.7157L82.5545 1.82178L23.1288 1.81767L37.9212 13.7158V26.4324ZM46.1171 22.3838V9.57897H59.5704V22.3838C60.8906 22.7406 62.1079 23.2359 63.1363 23.8362L63.7093 24.1993V11.8772L71.817 5.35406H33.8684L41.9761 11.8772V24.1993L42.5449 23.8362C43.5733 23.2359 44.7969 22.7406 46.1171 22.3838M57.7528 22.0312V11.3966H47.9325V22.0312C48.6398 22.0123 49.3366 22.1571 49.9726 22.4258V13.9088H55.7107L55.7695 22.4027C56.3928 22.1508 57.0644 22.0123 57.7528 22.0312M53.8952 23.704V15.7201H51.788V23.704C52.2498 24.2077 52.615 24.7953 52.8395 25.4313C53.0683 24.7953 53.4293 24.2035 53.8952 23.704ZM15.7263 57.5577V59.667H18.8682C18.7045 58.9597 18.5303 58.2587 18.3498 57.5577H15.7263ZM19.2691 61.4804H13.9067V55.7359H17.8587C17.6677 55.0538 17.4683 54.3759 17.2563 53.7022H11.3944V63.5225H19.6763C19.5482 62.8404 19.4139 62.1604 19.2691 61.4804M20.8075 71.2944H12.7481L3.54064 82.7413V34.4813L12.7481 45.9282L14.4188 45.9323C13.9738 44.885 13.5079 43.8482 13.0147 42.8218L1.81542 28.9005L1.82168 88.3198L13.7156 73.5295H21.0153C20.9544 72.7823 20.8851 72.0394 20.8075 71.2943M15.1617 47.7436H11.875L5.35607 39.638V77.5844L11.875 69.4725H20.5997C20.4297 68.0915 20.2282 66.7147 20.0016 65.34H9.57678V51.8845H16.6728C16.209 50.4888 15.7053 49.1099 15.1617 47.7436M91.2645 45.9323L93.229 45.9282L102.434 34.4813V82.7413L93.229 71.2944H84.8757C84.798 72.0395 84.7288 72.7825 84.6658 73.5296H92.2593L104.153 88.3199L104.157 28.9006L92.2592 43.6909C91.915 44.4318 91.5876 45.1789 91.2643 45.9324M86.8149 59.667H90.003V57.5577H87.3354C87.1549 58.2587 86.9807 58.9597 86.8149 59.667M89.0103 51.8846H96.3792V65.3401H85.6836C85.4528 66.7148 85.2513 68.0916 85.0834 69.4726H94.0957L100.615 77.5845V39.6381L94.0957 47.7437H90.5172C89.9757 49.11 89.4762 50.4889 89.0103 51.8846M86.009 63.5225H94.5637V53.7022H88.4268C88.2169 54.3759 88.0154 55.0538 87.8244 55.7359H92.0472V61.4804H86.414C86.2692 62.1604 86.1349 62.8404 86.009 63.5225M60.2044 112.439C59.7154 112.666 59.155 112.782 58.5737 112.782C57.5704 112.782 56.6239 112.439 55.9271 111.699C54.7538 109.929 53.7212 111.415 54.0801 113.042C54.1368 113.283 54.2081 113.474 54.311 113.678C54.6132 114.221 55.1694 114.666 55.9103 114.912C56.6071 115.139 57.4025 115.267 58.2588 115.267C59.3334 115.267 60.8907 114.736 61.9128 114.32C65.8523 111.932 69.3783 108.582 72.3586 104.451C74.9653 100.256 78.7495 96.8999 83.2682 94.7759C82.7666 90.6748 82.5043 86.4352 82.5043 82.097C82.5043 65.2876 86.45 49.8971 92.9437 38.2991L84.219 28.9069L83.2011 29.5869C79.4253 32.5777 70.7992 30.7014 63.042 25.9287L62.1941 25.3872C61.0188 24.7009 59.579 24.1741 57.8999 23.8613C56.1915 23.6452 54.439 25.1416 54.4054 26.8311C54.3908 29.398 58.0259 29.2658 59.2893 27.0809L59.7931 26.2141C64.5028 29.5848 75.7734 35.5706 80.8147 32.2356L83.1843 30.9574L90.656 38.9728C83.3858 52.1134 80.2858 67.2605 80.2858 82.1746C80.2858 86.154 80.5314 90.0913 80.9637 94.0455C77.0306 95.9155 73.897 98.3019 71.3134 101.836C68.2093 106.204 64.486 109.814 60.2947 112.387L60.2044 112.439ZM45.4792 112.439C41.1976 109.814 37.4764 106.204 34.3744 101.836C31.7866 98.3019 28.6509 95.9155 24.722 94.0455C25.1543 90.0913 25.3978 86.154 25.3978 82.1746C25.3978 67.2647 22.3 52.1113 15.0318 38.9728L22.4993 30.9574L24.8689 32.2356C29.9102 35.5706 41.1787 29.5848 45.8927 26.2141C46.686 27.5888 47.7375 29.0055 49.5971 28.7327C50.657 28.5732 51.2866 27.7945 51.2824 26.8311C51.2467 25.1416 49.49 23.6452 47.7858 23.8613C46.1025 24.1741 44.6649 24.7009 43.4874 25.3872L42.6416 25.9287C34.8907 30.7014 26.2583 32.5777 22.4826 29.5869L21.4688 28.9069L12.7399 38.2991C19.2294 49.8971 23.1794 65.2876 23.1794 82.097C23.1794 86.4352 22.9191 90.6748 22.4154 94.7759C26.9362 96.8999 30.7141 100.256 33.325 104.451C36.3032 108.582 39.8313 111.932 43.7708 114.32C44.1401 114.469 46.1739 115.267 47.4269 115.267C48.2811 115.267 49.0807 115.139 49.7755 114.912C50.5163 114.666 51.0725 114.221 51.3768 113.678C51.4776 113.474 51.5468 113.283 51.6014 113.042C51.9603 111.415 50.9319 109.929 49.7587 111.699C49.0639 112.439 48.1132 112.782 47.1121 112.782C46.5286 112.782 45.9682 112.666 45.4792 112.439M52.8397 28.336C51.7546 31.2114 47.4542 31.1253 45.3952 28.7893L43.7246 29.8681C36.2129 34.496 27.9269 36.3576 23.9748 33.8097L22.8729 33.2178L17.2544 39.2477C23.4585 50.7387 27.2133 65.7766 27.2133 82.1746C27.2133 85.8496 27.0265 89.4533 26.6613 92.9688C30.3069 94.8157 33.4551 97.5064 35.8436 100.776C38.826 104.972 42.3813 108.403 46.3418 110.842C46.4824 110.901 46.7762 110.97 47.1121 110.97C47.6745 110.97 48.1468 110.727 48.3818 110.517C49.7859 108.496 51.8155 108.769 52.8439 110.208C53.8702 108.769 55.8956 108.496 57.2997 110.517C57.5347 110.727 58.0133 110.97 58.5737 110.97C58.9053 110.97 59.1991 110.901 59.4384 110.792C63.361 108.359 66.8807 104.942 69.84 100.776C72.2285 97.5064 75.3788 94.8157 79.0202 92.9688C78.6571 89.4533 78.4704 85.8496 78.4704 82.1746C78.4704 65.7766 82.2272 50.7387 88.4313 39.2477L82.8128 33.2178L81.7109 33.8097C77.7526 36.3472 69.4686 34.496 61.9611 29.8681L60.2884 28.7893C58.2315 31.1253 53.9332 31.2114 52.8397 28.336M43.2146 99.6388C45.6513 102.481 49.2528 104.134 53.0076 104.076C56.7204 104.134 60.1373 102.527 62.574 99.7228L64.0641 97.5274C65.8628 94.8598 67.9931 92.4483 70.732 90.5929L72.1886 89.6485L72.0774 86.92L72.8728 68.7633C73.6431 62.8551 74.873 57.0624 76.5646 51.3515L77.593 48.1026L74.7009 44.8179C73.6893 44.883 72.6818 44.9481 71.666 44.9565C68.48 44.9732 64.6938 44.6395 61.6253 43.1851C61.2706 43.0067 60.9453 42.8073 60.5801 42.6583C57.9104 41.6487 55.247 41.9951 52.8397 43.4642C50.445 41.9993 47.939 41.6487 45.2756 42.6583C44.9041 42.8073 44.5809 43.0067 44.2304 43.1851C41.1577 44.6395 37.3715 44.9733 34.1855 44.9565C33.1718 44.9481 32.1581 44.883 31.1464 44.8179L28.2585 48.1026L29.2869 51.3515C30.9764 57.0624 32.2063 62.8551 32.9766 68.7633L33.7699 86.92L33.6608 89.6485L35.1216 90.5929C38.7567 93.059 40.8303 96.1065 43.2146 99.6388M41.8042 100.781L40.2846 98.5432C38.5678 96.0037 36.6012 93.7957 34.1162 92.1125L31.8034 90.6034L31.9608 86.8844L31.1674 68.8829C30.4077 63.0965 29.2071 57.478 27.5491 51.8846L26.2184 47.6702L30.3741 42.9521C31.6459 43.0319 32.922 43.1284 34.2023 43.1452C37.3085 43.1578 40.7359 42.8325 43.4266 41.5543C43.8253 41.3528 44.1926 41.1366 44.6082 40.9687C47.2149 39.9823 50.2939 40.0096 52.8439 41.357C55.4107 40.0096 58.6366 39.9823 61.2433 40.9687C61.6589 41.1366 62.0199 41.3528 62.4187 41.5543C65.1156 42.8325 68.5409 43.1578 71.6492 43.1452C72.9253 43.1284 74.2056 43.0319 75.4817 42.9521L79.6331 47.6702L78.3003 51.8846C76.6381 57.4989 75.4376 63.1489 74.6757 68.9605L73.8928 86.9599L74.0482 90.6034L71.7332 92.1125C69.2461 93.7957 67.2795 96.0037 65.569 98.5432L64.0431 100.781C61.2727 104.015 57.3291 105.958 53.0076 105.895C48.6988 105.958 44.5851 104.025 41.8042 100.781M60.0008 44.161C63.0924 45.987 67.9364 46.5012 71.2316 46.5012C72.1152 46.5012 72.9967 46.4592 73.8761 46.4067L75.6894 48.4657C72.0354 59.7384 70.2997 71.1979 70.2997 83.0477C70.2997 84.9807 70.3564 86.9095 70.4424 88.8383C66.6771 91.2394 63.9739 94.3246 61.6778 98.1403C59.7259 100.781 56.5567 102.535 53.0223 102.535C49.129 102.535 45.9556 100.781 44.0058 98.1403C41.7139 94.3246 39.0065 91.2394 35.2412 88.8383C35.3294 86.9095 35.386 84.9807 35.386 83.0477C35.386 71.1979 33.6461 59.7384 29.9942 48.4657L31.8076 46.4067C32.6891 46.4592 33.5705 46.5012 34.4499 46.5012C37.7472 46.5012 42.5954 45.987 45.6282 44.1778C46.4845 43.8189 47.3492 43.6321 48.2811 43.6321C50.1029 43.6321 51.7546 44.3604 52.9572 45.5462L53.9521 44.8767C54.8651 44.3247 56.1978 43.6321 57.4025 43.6321C58.3218 43.6321 59.1991 43.8189 60.0008 44.161M59.2935 45.8275C58.7101 45.584 58.0762 45.4497 57.4025 45.4497C55.9795 45.4497 53.7695 47.1875 52.697 48.069C51.5112 46.5453 50.3883 45.4497 48.2811 45.4497C47.6116 45.4497 46.9735 45.584 46.3922 45.8338C43.7435 47.3617 39.3276 48.3167 34.4499 48.3167L32.5841 48.2684L32.0384 48.8938C35.3482 59.2787 37.1973 70.8579 37.1973 83.0477C37.1973 84.668 37.1637 86.2778 37.1007 87.8813C40.2972 90.0326 43.1348 93.2039 45.4876 97.0993C47.1142 99.2988 49.7209 100.724 52.6529 100.724C55.9292 100.724 58.5149 99.3261 60.1478 97.1685C62.5089 93.2416 65.3675 90.0494 68.5829 87.8813C68.5199 86.2778 68.4863 84.668 68.4863 83.0477C68.4863 70.8579 70.3354 59.2829 73.6452 48.8938L73.1037 48.2684L71.2316 48.3167C66.3497 48.3167 61.9401 47.3617 59.2935 45.8275M52.208 39.3652H50.9613Z" fill="#293033"/>
<path id="path590-0-3" d="M58.878 66.7485H67.2187V76.7703C67.2187 78.5039 65.3466 79.9059 63.0484 79.9059C60.7544 79.9059 58.878 78.5039 58.878 76.7703V66.7485ZM48.8373 50.638H57.178V60.664C57.178 62.3914 55.3017 63.7997 53.0077 63.7997C50.7095 63.7997 48.8373 62.3914 48.8373 60.664V50.638ZM50.5982 53.5974C51.0285 53.5974 51.379 53.2511 51.379 52.8208C51.379 52.3905 51.0285 52.04 50.5982 52.04C50.1659 52.04 49.8154 52.3905 49.8154 52.8208C49.8154 53.2511 50.1659 53.5974 50.5982 53.5974ZM55.4129 52.04C54.9847 52.04 54.6321 52.3905 54.6321 52.8208C54.6321 53.2511 54.9847 53.5974 55.4129 53.5974C55.8453 53.5974 56.1937 53.2511 56.1937 52.8208C56.1937 52.3905 55.8453 52.04 55.4129 52.04ZM52.9972 55.9165C52.5648 55.9165 52.2164 56.2691 52.2164 56.6973C52.2164 57.1276 52.5648 57.4781 52.9972 57.4781C53.4253 57.4781 53.7779 57.1276 53.7779 56.6973C53.7779 56.2691 53.4253 55.9165 52.9972 55.9165ZM50.5982 61.3378C51.0285 61.3378 51.379 60.9873 51.379 60.5549C51.379 60.1225 51.0285 59.7721 50.5982 59.7721C50.1659 59.7721 49.8154 60.1225 49.8154 60.5549C49.8154 60.9873 50.1659 61.3378 50.5982 61.3378ZM55.4129 61.3378C55.8453 61.3378 56.1937 60.9873 56.1937 60.5549C56.1937 60.1225 55.8453 59.7721 55.4129 59.7721C54.9847 59.7721 54.6321 60.1225 54.6321 60.5549C54.6321 60.9873 54.9847 61.3378 55.4129 61.3378ZM65.4599 77.4419C65.8859 77.4419 66.2385 77.0872 66.2385 76.6591C66.2385 76.2288 65.8859 75.8783 65.4599 75.8783C65.0275 75.8783 64.6728 76.2288 64.6728 76.6591C64.6728 77.0872 65.0275 77.4419 65.4599 77.4419ZM60.6389 77.4419C61.0713 77.4419 61.4197 77.0872 61.4197 76.6591C61.4197 76.2288 61.0713 75.8783 60.6389 75.8783C60.2108 75.8783 59.8582 76.2288 59.8582 76.6591C59.8582 77.0872 60.2108 77.4419 60.6389 77.4419ZM63.0589 72.0186C62.6307 72.0186 62.2781 72.3691 62.2781 72.8014C62.2781 73.2317 62.6307 73.5801 63.0589 73.5801C63.487 73.5801 63.8396 73.2317 63.8396 72.8014C63.8396 72.3691 63.487 72.0186 63.0589 72.0186ZM65.4599 68.1421C65.0275 68.1421 64.6728 68.4926 64.6728 68.9229C64.6728 69.3531 65.0275 69.7015 65.4599 69.7015C65.8859 69.7015 66.2385 69.3531 66.2385 68.9229C66.2385 68.4926 65.8859 68.1421 65.4599 68.1421ZM60.6389 69.7015C61.0713 69.7015 61.4197 69.3531 61.4197 68.9229C61.4197 68.4926 61.0713 68.1421 60.6389 68.1421C60.2108 68.1421 59.8582 68.4926 59.8582 68.9229C59.8582 69.3531 60.2108 69.7015 60.6389 69.7015ZM55.4129 93.5628C55.8453 93.5628 56.1937 93.2144 56.1937 92.7779C56.1937 92.356 55.8453 91.9992 55.4129 91.9992C54.9847 91.9992 54.6321 92.356 54.6321 92.7779C54.6321 93.2144 54.9847 93.5628 55.4129 93.5628ZM50.5982 93.5628C51.0285 93.5628 51.379 93.2144 51.379 92.7821C51.379 92.356 51.0285 91.9992 50.5982 91.9992C50.1659 91.9992 49.8154 92.356 49.8154 92.7821C49.8154 93.2144 50.1659 93.5628 50.5982 93.5628ZM52.9972 88.1248C52.5648 88.1248 52.2164 88.4753 52.2164 88.9014C52.2164 89.3338 52.5648 89.6885 52.9972 89.6885C53.4253 89.6885 53.7779 89.3338 53.7779 88.9014C53.7779 88.4753 53.4253 88.1248 52.9972 88.1248ZM55.4129 84.2442C54.9847 84.2442 54.6321 84.5946 54.6321 85.0291C54.6321 85.4573 54.9847 85.8099 55.4129 85.8099C55.8453 85.8099 56.1937 85.4573 56.1937 85.0291C56.1937 84.5946 55.8453 84.2442 55.4129 84.2442ZM50.5982 85.8099C51.0285 85.8099 51.379 85.4573 51.379 85.0291C51.379 84.5946 51.0285 84.2442 50.5982 84.2442C50.1659 84.2442 49.8154 84.5946 49.8154 85.0291C49.8154 85.4573 50.1659 85.8099 50.5982 85.8099ZM48.8373 82.8547H57.178V92.8786C57.178 94.6039 55.3017 96.0164 53.0077 96.0164C50.7095 96.0164 48.8373 94.6039 48.8373 92.8786V82.8547ZM55.4129 77.4419C55.8453 77.4419 56.1937 77.0872 56.1937 76.6591C56.1937 76.2246 55.8453 75.8783 55.4129 75.8783C54.9847 75.8783 54.6321 76.2246 54.6321 76.6591C54.6321 77.0872 54.9847 77.4419 55.4129 77.4419ZM50.5982 77.4419C51.0285 77.4419 51.379 77.0872 51.379 76.6591C51.379 76.2246 51.0285 75.8783 50.5982 75.8783C50.1659 75.8783 49.8154 76.2246 49.8154 76.6591C49.8154 77.0872 50.1659 77.4419 50.5982 77.4419ZM52.9972 72.0186C52.5648 72.0186 52.2164 72.3691 52.2164 72.8014C52.2164 73.2296 52.5648 73.5801 52.9972 73.5801C53.4253 73.5801 53.7779 73.2296 53.7779 72.8014C53.7779 72.3691 53.4253 72.0186 52.9972 72.0186ZM55.4129 68.1421C54.9847 68.1421 54.6321 68.4926 54.6321 68.9229C54.6321 69.3531 54.9847 69.7015 55.4129 69.7015C55.8453 69.7015 56.1937 69.3531 56.1937 68.9229C56.1937 68.4926 55.8453 68.1421 55.4129 68.1421ZM50.5982 69.7015C51.0285 69.7015 51.379 69.3531 51.379 68.9229C51.379 68.4926 51.0285 68.1421 50.5982 68.1421C50.1659 68.1421 49.8154 68.4926 49.8154 68.9229C49.8154 69.3531 50.1659 69.7015 50.5982 69.7015ZM48.8373 66.7485H57.178V76.7703C57.178 78.4955 55.3017 79.9059 53.0077 79.9059C50.7095 79.9059 48.8373 78.4955 48.8373 76.7703V66.7485ZM45.3722 77.4419C45.8004 77.4419 46.153 77.0872 46.153 76.6591C46.153 76.2288 45.8004 75.8783 45.3722 75.8783C44.944 75.8783 44.5914 76.2288 44.5914 76.6591C44.5914 77.0872 44.944 77.4419 45.3722 77.4419ZM40.5554 77.4419C40.9857 77.4419 41.3383 77.0872 41.3383 76.6591C41.3383 76.2288 40.9857 75.8783 40.5554 75.8783C40.1252 75.8783 39.7747 76.2288 39.7747 76.6591C39.7747 77.0872 40.1252 77.4419 40.5554 77.4419ZM42.9544 72.0186C42.5241 72.0186 42.1736 72.3691 42.1736 72.8014C42.1736 73.2317 42.5241 73.5801 42.9544 73.5801C43.3846 73.5801 43.733 73.2317 43.733 72.8014C43.733 72.3691 43.3846 72.0186 42.9544 72.0186ZM45.3722 68.1421C44.944 68.1421 44.5914 68.4926 44.5914 68.9229C44.5914 69.3531 44.944 69.7015 45.3722 69.7015C45.8004 69.7015 46.153 69.3531 46.153 68.9229C46.153 68.4926 45.8004 68.1421 45.3722 68.1421ZM40.5554 69.7015C40.9857 69.7015 41.3383 69.3531 41.3383 68.9229C41.3383 68.4926 40.9857 68.1421 40.5554 68.1421C40.1252 68.1421 39.7747 68.4926 39.7747 68.9229C39.7747 69.3531 40.1252 69.7015 40.5554 69.7015ZM38.7966 66.7485H47.1352V76.7703C47.1352 78.5039 45.261 79.9059 42.9628 79.9059C40.6646 79.9059 38.7966 78.5039 38.7966 76.7703V66.7485Z" fill="#033C8E"/>
<path id="path590-6" d="M42.522 40.3013L41.4117 32.4958L45.3701 31.9334L45.5611 33.3081L42.7697 33.7006L43.0236 35.5034L45.4708 35.1529L45.6639 36.5256L43.2209 36.8698L43.6847 40.1418L42.522 40.3013ZM54.2837 33.9902C54.2837 33.178 53.9332 32.8338 53.3561 32.8338H52.208V35.1823H53.3561C53.9332 35.1823 54.2837 34.8003 54.2837 33.9902M55.4968 33.9902C55.4968 35.8225 54.7644 36.5109 53.4547 36.5109H52.208V39.3652H50.9613V31.4737H53.5471C54.7308 31.4737 55.4968 32.2839 55.4968 33.9902ZM59.9862 39.5143L61.3042 31.7361L65.2437 32.4056L65.0128 33.7719L62.2277 33.3018L61.9276 35.09L64.3601 35.5034L64.1271 36.8656L61.6946 36.4584L61.1468 39.7074L59.9862 39.5143ZM64.6078 40.295L64.8722 38.7335L66.0077 38.9245L65.7432 40.4839L64.6078 40.295ZM47.1625 39.6465L46.9379 38.0787L48.0755 37.9108L48.3 39.4807L47.1625 39.6465ZM56.3091 37.789H57.5243V39.3632H56.3091V37.789Z" fill="#D9C491" fill-opacity="0.996078"/>
</g>
</svg>
