<svg width="124" height="154" viewBox="0 0 124 154" fill="none" xmlns="http://www.w3.org/2000/svg">
<g id="serbia">
<path id="Vector" d="M112.48 39.7074C111.864 36.7612 110.889 31.9123 110.63 30.6705C111.981 29.4325 119.155 22.9372 119.155 22.9372C119.155 22.9372 109.487 21.9511 107.624 21.7651C106.864 20.0721 102.872 11.2891 102.872 11.2891L100.652 16.2386C100.652 16.2386 98.9297 20.0652 98.1584 21.7651C96.8977 21.8854 92.0162 22.3876 89.0254 22.6984C86.6704 9.79168 75.3927 0 61.8075 0C48.2224 0 36.945 9.79175 34.5911 22.6984C31.5997 22.3876 26.7164 21.8868 25.4573 21.7651C24.686 20.0652 22.9627 16.2386 22.9627 16.2386L20.743 11.2891C20.743 11.2891 16.7515 20.0721 15.991 21.7651C14.1292 21.9511 4.46008 22.9372 4.46008 22.9372C4.46008 22.9372 11.6349 29.4325 12.9851 30.6705C12.7256 31.9123 11.7512 36.7612 11.1343 39.7074H0L0.279496 45.2447C1.23689 64.4552 4.9049 82.0586 11.174 97.5439C16.2304 110.039 22.9677 121.197 31.2237 130.708C45.4262 147.085 59.197 152.928 59.7874 153.161L61.8116 154L63.841 153.161C64.4054 152.928 78.1938 147.085 92.4004 130.708C100.647 121.197 107.389 110.039 112.449 97.5439C118.713 82.0586 122.37 64.4552 123.341 45.2447L123.615 39.7074H112.481H112.48ZM14.6952 39.7074H14.6972C14.6972 39.7074 19.8813 36.7279 20.7242 36.2499C21.5235 36.7127 24.1562 38.2307 26.7294 39.7074H14.6952ZM30.2953 39.7074C30.2953 39.7074 28.704 31.9123 28.4517 30.6705C29.2569 29.9348 32.0515 27.399 34.2324 25.42C34.1711 26.1709 34.1177 26.9249 34.1177 27.6909C34.1177 32.0038 35.1319 36.0685 36.8895 39.7074H30.2953ZM86.7248 39.7074C88.4831 36.0686 89.4972 32.0038 89.4972 27.6909C89.4972 26.9249 89.4448 26.1709 89.3829 25.42C91.5624 27.399 94.3582 29.9347 95.1638 30.6705C94.911 31.9123 93.3199 39.7074 93.3199 39.7074H86.7248V39.7074ZM96.8788 39.7074C99.294 38.3243 102.067 36.7279 102.891 36.2478C103.734 36.7279 108.918 39.7074 108.918 39.7074H96.8788V39.7074Z" fill="#E1BC6D"/>
<path id="Vector_2" d="M61.8168 3.96187C48.6998 3.96187 38.0789 14.5809 38.0789 27.6939C38.0789 30.2635 38.4949 32.7221 39.2416 35.0422C42.1332 31.9137 56.9151 16.7778 78.0491 10.3808C73.8015 6.40384 68.0902 3.96179 61.8168 3.96179V3.96187Z" fill="#1F5CA9"/>
<path id="Vector_3" d="M85.2858 43.6579L84.8874 44.2086C79.5596 51.6408 70.9408 56.077 61.8076 56.077C52.6673 56.077 44.0542 51.6409 38.7207 44.2086L38.3164 43.6579H4.16101L4.22876 45.0571C5.16536 63.8153 8.7377 80.9752 14.8458 96.0545C19.7179 108.154 26.2529 118.933 34.208 128.112C47.8104 143.797 60.7506 149.282 61.2979 149.508L61.8077 149.711L62.3174 149.508C62.8647 149.282 75.7937 143.797 89.402 128.112C97.3773 118.933 103.886 108.154 108.778 96.0545C114.872 80.9753 118.438 63.8153 119.375 45.0571L119.455 43.6579H85.2859H85.2858Z" fill="#FEFEFE"/>
<path id="Vector_4" d="M86.1507 44.9854H85.9664C80.5715 52.4969 71.7568 57.3988 61.8075 57.3988C51.8399 57.3988 43.0303 52.4969 37.6428 44.9854H5.55859C9.62937 126.618 61.8075 148.285 61.8075 148.285C61.8075 148.285 113.984 126.618 118.062 44.9854H86.1507V44.9854Z" fill="#1F5CA9"/>
<path id="Vector_5" d="M78.0492 10.3809C56.9152 16.7778 42.1333 31.9138 39.2417 35.0422C40.9839 40.3973 44.5597 44.9028 49.2478 47.8265C51.6497 45.213 65.2085 31.1183 85.1858 23.6179C84.2978 18.4393 81.7208 13.8324 78.0491 10.3809L78.0492 10.3809Z" fill="#FEFEFE"/>
<path id="Vector_6" d="M85.1859 23.6178C65.2086 31.1182 51.6498 45.2129 49.2479 47.8265C52.8988 50.0966 57.1952 51.4207 61.817 51.4207C74.9188 51.4207 85.536 40.7964 85.536 27.6939C85.536 26.3115 85.4151 24.9496 85.186 23.6177L85.1859 23.6178Z" fill="#ED3237"/>
<path id="Vector_7" d="M23.7941 24.0603L20.7282 17.2429L17.6354 24.0603L10.1787 24.8106L15.6602 29.7903L14.1515 37.1824L20.6603 33.4655H20.7657L27.2854 37.1824L25.7731 29.7903L31.2585 24.8106L23.7941 24.0603Z" fill="#1F5CA9"/>
<path id="Vector_8" d="M113.436 24.8105L105.98 24.0603L102.887 17.2413L99.8212 24.0603L92.3563 24.8105L97.8422 29.7879L96.3296 37.1824L102.849 33.4655H102.955L109.464 37.1824L107.955 29.7879L113.436 24.8105Z" fill="#1F5CA9"/>
<path id="Vector_9" d="M61.8077 128.01L61.8558 127.953L62.0538 127.723C62.1182 127.648 63.5338 125.958 64.2706 123.627C64.9063 124.159 65.7941 124.456 66.7677 124.419L66.9996 124.409L67.0636 124.187C67.2083 123.683 67.1894 122.953 67.0814 122.34C67.735 122.591 68.4334 122.715 69.197 122.715C73.2663 122.715 74.7641 119.641 74.8258 119.509L75.0189 119.1L74.5681 119.053C74.3554 119.032 69.3337 118.446 67.1352 112.471C66.2708 110.119 65.7346 107.779 65.4265 106.151C65.6921 106.675 65.9783 107.213 66.2406 107.643C67.0007 108.895 69.028 110.729 69.1137 110.807L69.3665 111.035L69.5789 110.769C69.5959 110.748 69.9558 110.295 70.3644 109.626C70.7273 109.774 71.5432 110.178 72.7318 111.196C73.5513 111.901 74.2806 112.663 74.6841 113.227C74.2918 113.471 73.7366 113.866 73.5264 114.63C73.1123 116.134 73.9689 117.438 74.0055 117.493L74.4827 118.191L74.5929 117.323C74.5995 117.091 74.6572 116.651 74.7836 116.462C74.9951 116.141 75.5626 115.687 75.925 115.612L75.9877 115.592C75.9877 115.592 76.0209 115.576 76.0452 115.556C76.07 115.555 76.1956 115.561 76.4595 115.755C77.0872 116.215 77.1461 116.957 77.165 118.035C77.1923 119.915 75.6042 121.761 75.5883 121.78L75.0961 122.345L75.8447 122.311C75.9165 122.308 77.6211 122.221 78.5058 121.389C79.2516 120.697 79.6349 119.946 79.7492 118.954C79.7719 118.755 79.78 118.502 79.78 118.245C79.78 118.043 79.7749 117.848 79.7679 117.668C80.0765 117.892 80.4462 118.253 80.5786 118.778C80.661 119.097 80.6911 119.393 80.6911 119.655C80.6911 120.343 80.4832 120.792 80.4802 120.798L80.1906 121.408L80.8454 121.249C80.8673 121.244 83.0016 120.691 83.0016 118.231C83.0016 118.228 83.0016 118.224 83.0016 118.224C83.0016 117.115 82.5266 116.233 82.0616 115.678C82.4004 115.724 82.7907 115.842 83.0855 116.138C83.9491 117 83.9629 118.025 83.9629 118.084C83.9629 118.085 83.95 118.866 83.95 118.866L84.5073 118.323C84.558 118.273 85.7474 117.085 85.287 115.235C84.7358 113.034 81.7395 113.009 81.6124 113.009C80.5371 113.009 79.3324 113.357 78.8945 113.496C78.3146 112.99 76.0254 110.987 74.9471 109.902C73.9267 108.878 72.1259 106.369 71.6774 105.724C71.6768 105.504 71.6657 105.282 71.6461 105.06H71.9438V104.759C72.8994 105.507 73.4761 105.521 73.899 105.53L74.5782 105.552L74.3719 105.081C74.3685 105.073 73.9994 104.255 73.5295 102.393C73.2085 101.114 73.0448 99.8683 72.9599 98.9156C73.0928 99.161 73.239 99.4015 73.3948 99.6093C73.4956 99.7445 73.5957 99.8683 73.6949 99.9831C74.6657 102.894 77.4009 105.007 80.6316 105.057C81.7485 106.289 81.8445 107.149 81.8483 107.186C81.8468 107.206 81.8461 107.228 81.8461 107.281C81.8461 107.735 81.9256 109.278 82.9532 110.134C83.6285 110.701 84.2917 110.751 84.7758 110.788C84.7758 110.788 84.7826 110.788 84.7832 110.788C85.0064 111.025 85.6831 111.788 85.9661 112.617C86.3939 113.872 86.5749 115.22 86.5764 115.234L86.6775 115.999L87.1487 115.388C89.1913 112.739 89.2889 110.49 89.2889 109.597C89.2889 109.546 89.288 109.498 89.288 109.456C89.2851 108.607 89.0816 107.898 88.9478 107.521C89.2321 107.243 89.673 106.581 89.9588 105.04C92.7598 104.827 94.9651 102.765 94.9651 100.259C94.9651 97.6774 92.6252 95.5661 89.7041 95.463C89.67 95.2593 89.6359 95.0559 89.5988 94.8491C89.6192 94.7975 89.6458 94.7254 89.6769 94.6347H94.9189V90.2452H90.5335C90.5828 89.7628 90.616 89.2276 90.616 88.6282C90.616 87.375 90.4656 85.8401 90.0102 83.9474C90.1795 83.5484 90.7506 82.0502 90.7506 79.9818C90.7506 79.3608 90.6985 78.6886 90.5699 77.9783C90.2196 76.0433 89.4379 74.437 88.9613 73.5869C89.8304 73.6354 90.5239 73.1605 90.8164 72.824L91.221 72.3574L90.6062 72.2945C90.5933 72.293 89.3517 72.154 88.7543 71.2411C88.7543 71.242 88.5494 70.9235 88.5494 70.9235C87.9421 69.9783 86.8121 68.2193 86.0265 67.4337C85.2695 66.6765 83.6027 65.4546 80.9385 65.7691C78.9557 66.0021 77.4409 67.271 76.6727 69.343C76.3013 70.3458 76.156 71.4264 76.0154 72.4723H67.9898C67.9326 72.2728 67.912 72.0302 67.9293 71.707C67.9851 70.7156 68.712 69.4285 70.5784 69.0657C71.8549 68.8197 73.9257 68.9718 73.9468 68.9733L74.6183 69.0241L74.2344 68.4703C74.2195 68.4485 73.9472 68.0674 73.3716 67.7382C73.5815 67.7564 73.8106 67.8025 74.0668 67.8555C74.5808 67.9598 75.2208 68.0905 75.9927 68.0325C77.7903 67.8934 78.0315 66.7309 78.0407 66.6817L78.1578 66.0663L77.5893 66.3308C77.5816 66.3346 76.8058 66.6909 75.9406 66.6054C75.5111 66.5629 75.2517 66.4579 74.9509 66.3362C74.6313 66.2069 74.2693 66.06 73.6879 65.9996C72.4974 65.8772 71.3792 66.2953 70.7428 66.6025C70.7445 66.5926 70.7462 66.5827 70.7477 66.5729C71.0292 66.3755 71.9736 65.7948 73.3713 65.7691C74.39 65.7509 76.0322 66.2924 76.0481 66.2976L76.3476 66.3975L76.452 66.0995C76.4609 66.0738 76.5623 65.775 76.5623 65.3818C76.5623 64.9394 76.4346 64.3769 75.9036 63.9473C74.8852 63.1276 73.9236 62.9792 72.8058 62.9242C72.7553 62.7297 72.6513 62.4794 72.4107 62.2328C71.9539 61.7641 71.2129 61.5266 70.2091 61.5266C69.3928 61.5266 68.8862 61.6703 68.2997 61.8359C67.6223 62.0273 66.8545 62.2443 65.3269 62.3094C64.5276 62.3417 63.6722 62.1936 63.6636 62.1921L63.114 62.0953L63.307 62.6185C63.3352 62.6951 63.5915 63.3748 63.9088 63.7296C64.3523 64.2287 64.9384 64.5153 65.3699 64.6741C64.6229 65.3811 63.0507 67.0146 61.8073 69.2804C60.564 67.0146 58.9919 65.3811 58.2449 64.6741C58.677 64.5153 59.2626 64.2287 59.7057 63.7296C60.0234 63.3749 60.2794 62.6951 60.3075 62.6185L60.5009 62.0953L59.9512 62.1921C59.9428 62.1937 59.0875 62.3417 58.2879 62.3094C56.7603 62.2442 55.9927 62.0273 55.3153 61.8359C54.7286 61.6704 54.222 61.5266 53.4059 61.5266C52.4018 61.5266 51.661 61.7641 51.2038 62.2328C50.9637 62.4793 50.8597 62.7297 50.8089 62.9242C49.6914 62.9792 48.7295 63.1276 47.7113 63.9473C47.1805 64.3769 47.0523 64.9394 47.0523 65.3818C47.0523 65.775 47.1537 66.0738 47.1625 66.0995L47.2671 66.3975L47.5667 66.2976C47.583 66.2923 49.2248 65.7508 50.2435 65.7691C51.641 65.7948 52.5857 66.3755 52.8668 66.5729C52.8681 66.5827 52.87 66.5926 52.8718 66.6025C52.2355 66.2953 51.1174 65.8773 49.9267 65.9996C49.3455 66.0601 48.9834 66.2069 48.6639 66.3362C48.3626 66.4579 48.1035 66.563 47.6746 66.6054C46.8085 66.6909 46.0329 66.3346 46.025 66.3308L45.457 66.0663L45.5738 66.6817C45.5833 66.7309 45.8244 67.8933 47.6214 68.0325C48.3935 68.0905 49.0336 67.9598 49.5479 67.8555C49.8039 67.8025 50.0333 67.7564 50.2431 67.7382C49.6674 68.0673 49.3954 68.4485 49.3801 68.4703L48.9964 69.0241L49.668 68.9733C49.6888 68.9718 51.7596 68.8197 53.0361 69.0657C54.9026 69.4285 55.6297 70.7156 55.685 71.707C55.7028 72.0301 55.682 72.2728 55.6248 72.4731H47.5992C47.4589 71.4272 47.313 70.3458 46.9421 69.3429C46.1742 67.2709 44.6591 66.0021 42.6761 65.7691C40.0121 65.4546 38.345 66.6765 37.5886 67.4336C36.8025 68.2192 35.6723 69.9783 35.0652 70.9234C35.0652 70.9234 34.8603 71.2419 34.8606 71.2411C34.2636 72.1539 33.0211 72.2929 33.0084 72.2944L32.3938 72.3573L32.7987 72.8239C33.0912 73.1604 33.7841 73.6353 34.6532 73.5868C34.1773 74.437 33.3944 76.0433 33.0451 77.9783C32.9157 78.6885 32.8645 79.3607 32.8645 79.9817C32.8645 82.0502 33.4349 83.5484 33.6045 83.9473C33.1491 85.8401 32.9983 87.375 32.9983 88.6281C32.9983 89.2515 33.0347 89.8056 33.0875 90.3027C30.4635 90.6605 28.4491 92.6513 28.4491 95.0464C28.4491 97.5393 30.6329 99.5944 33.4147 99.8244C33.3995 100.111 33.3893 100.393 33.3832 100.671H28.7141V105.06L33.6593 105.06C33.9456 106.587 34.3842 107.244 34.6672 107.521C34.533 107.898 34.33 108.607 34.3265 109.456C34.3265 109.498 34.3258 109.546 34.3258 109.597C34.3258 110.49 34.4234 112.739 36.4661 115.388L36.9373 115.999L37.038 115.234C37.0397 115.22 37.2204 113.872 37.6483 112.617C37.9312 111.788 38.6082 111.025 38.8313 110.788C38.8317 110.788 38.8391 110.788 38.8391 110.788C39.323 110.751 39.9861 110.701 40.6616 110.134C41.6896 109.278 41.7685 107.735 41.7685 107.281C41.7685 107.227 41.7675 107.206 41.7665 107.186C41.7701 107.149 41.8656 106.29 42.981 105.06H44.8193C47.8436 105.06 50.3038 102.906 50.3038 100.259C50.3038 100.025 50.2837 99.7952 50.2468 99.5699C50.3921 99.371 50.5296 99.1465 50.6547 98.9156C50.5699 99.8683 50.4058 101.114 50.0851 102.393C49.6148 104.255 49.2461 105.073 49.2426 105.081L49.036 105.552L49.7153 105.53C50.1487 105.521 50.7423 105.509 51.7408 104.705C51.8499 104.617 51.9483 104.52 52.0429 104.421C51.9813 104.845 51.9378 105.29 51.9372 105.724C51.4886 106.369 49.6875 108.878 48.6673 109.902C47.5892 110.986 45.3004 112.99 44.7196 113.496C44.2825 113.357 43.0775 113.009 42.0021 113.009C41.8747 113.009 38.8788 113.034 38.3279 115.235C37.8672 117.085 39.0563 118.273 39.1071 118.323L39.6649 118.866C39.6649 118.866 39.6518 118.085 39.6518 118.084C39.6518 118.025 39.6658 117 40.5287 116.138C40.824 115.842 41.2145 115.724 41.5526 115.678C41.088 116.232 40.6129 117.115 40.6129 118.224C40.6129 118.224 40.6129 118.228 40.6129 118.231C40.6129 120.69 42.7466 121.243 42.7687 121.248L43.4235 121.408L43.1341 120.798C43.1313 120.792 42.9234 120.343 42.9234 119.654C42.9234 119.393 42.9531 119.097 43.0359 118.777C43.1686 118.253 43.5375 117.892 43.8462 117.668C43.8399 117.848 43.8341 118.043 43.8341 118.245C43.8341 118.502 43.8425 118.755 43.8655 118.953C43.9795 119.946 44.3632 120.697 45.1083 121.389C45.9935 122.221 47.6974 122.308 47.7699 122.311L48.5183 122.345L48.0263 121.78C48.01 121.761 46.4225 119.915 46.4499 118.035C46.4683 116.957 46.5277 116.215 47.1547 115.755C47.4188 115.561 47.5446 115.555 47.5693 115.556C47.5934 115.576 47.6269 115.592 47.6269 115.592L47.6896 115.612C48.0518 115.687 48.6197 116.141 48.8308 116.462C48.9571 116.651 49.0152 117.09 49.0218 117.323L49.1318 118.191L49.6089 117.492C49.6458 117.438 50.5025 116.134 50.088 114.63C49.8782 113.866 49.3225 113.471 48.9302 113.227C49.3336 112.663 50.0632 111.901 50.8828 111.196C52.0715 110.178 52.8873 109.773 53.2503 109.626C53.6587 110.295 54.0186 110.748 54.0357 110.769L54.2479 111.035L54.5007 110.807C54.5866 110.729 56.6137 108.895 57.3736 107.643C57.6364 107.213 57.9221 106.675 58.1877 106.151C57.8801 107.779 57.3435 110.119 56.4792 112.471C54.281 118.446 49.259 119.031 49.0464 119.053L48.5956 119.1L48.7887 119.509C48.8504 119.64 50.3482 122.714 54.4173 122.714C55.181 122.714 55.8793 122.591 56.5331 122.34C56.4253 122.953 56.406 123.683 56.5511 124.186L56.6148 124.409L56.8472 124.418C57.8204 124.456 58.7085 124.159 59.3443 123.627C60.0808 125.958 61.4963 127.647 61.561 127.722L61.7566 127.951L61.8069 128.01L61.8077 128.01ZM86.2417 100.671C86.2264 100.393 86.2091 100.119 86.1902 99.8476H89.5591C89.5744 100.127 89.5842 100.401 89.5909 100.671L86.2417 100.671ZM82.4931 100.672C82.4605 99.5192 82.4084 98.2664 82.3273 96.9559C82.2753 96.1069 82.1912 95.3354 82.0862 94.6351H84.9514C84.9953 94.9041 85.0385 95.1784 85.08 95.4582H82.7411V99.8476H85.5488C85.5678 100.119 85.5843 100.393 85.6002 100.671L82.493 100.672L82.4931 100.672ZM75.1099 92.302C75.3495 92.2411 75.6005 92.1678 75.8577 92.0826C75.6346 92.2777 75.4221 92.4848 75.2232 92.705C75.1811 92.55 75.1424 92.4128 75.1099 92.302V92.302ZM77.6312 87.2876C79.1429 87.2876 80.5123 86.7501 81.5061 85.882C79.2396 91.5419 74.1498 91.978 72.8599 91.9939V87.2876H77.6312ZM72.8599 82.8987V82.0749H77.96C78.1868 82.0749 78.3714 82.2598 78.3714 82.4869C78.3714 82.7141 78.1868 82.8987 77.96 82.8987H72.8599ZM83.0926 82.0523C83.098 82.0103 83.104 81.971 83.1085 81.9287C83.2295 80.8438 83.2409 79.8641 83.1788 78.9822C84.937 81.6696 86.659 85.8239 87.882 90.2456H84.6695C83.9714 87.6419 83.1872 85.8093 82.5928 84.6479C82.614 84.5725 82.6323 84.4928 82.6526 84.4154C82.9497 83.8247 83.1163 83.1727 83.1163 82.4867C83.1163 82.3401 83.107 82.1954 83.0927 82.0524L83.0926 82.0523ZM84.0062 90.2455H80.8815C80.6418 89.7092 80.427 89.3446 80.29 89.1351C81.0863 88.205 81.7912 87.0251 82.3138 85.5359C82.8317 86.6376 83.4435 88.19 84.0062 90.2455L84.0062 90.2455ZM81.6868 96.9953C81.7557 98.107 81.8041 99.1769 81.8367 100.178C81.4834 99.9192 80.9995 99.5467 80.641 99.2073C79.8538 98.4643 79.4363 97.1978 79.2708 96.5843C79.2683 96.4698 79.2654 96.3545 79.2615 96.2404C79.2526 95.9026 79.2034 95.5196 79.1316 95.1186C79.6148 94.8136 80.1887 94.635 80.8058 94.635H81.4343C81.5447 95.3434 81.6339 96.1262 81.6868 96.9952V96.9953ZM78.8738 90.485C79.2019 90.2299 79.5257 89.9467 79.8387 89.628C79.9302 89.7812 80.048 89.9954 80.179 90.2698C79.7321 90.3039 79.2956 90.3752 78.8738 90.485V90.485ZM77.7112 97.6531C77.7112 96.8529 78.035 96.1262 78.5576 95.5855C78.5917 95.8247 78.615 96.0525 78.6203 96.2585C78.6536 97.4298 78.6688 98.6581 78.6135 99.7803C78.057 99.2344 77.7112 98.4823 77.7112 97.6531ZM79.2277 100.244C79.2668 99.6598 79.2857 99.0442 79.2902 98.4188C79.5247 98.8694 79.8221 99.3168 80.2001 99.6731C80.5745 100.028 81.0607 100.404 81.4236 100.672H80.8058C80.2288 100.672 79.6905 100.514 79.2277 100.244L79.2277 100.244ZM90.2217 100.259C90.2217 100.261 90.2217 100.262 90.2217 100.262C90.2217 100.259 90.2208 100.254 90.22 100.251C90.2208 100.254 90.2217 100.256 90.2217 100.259ZM88.9497 94.8592C88.9868 95.0611 89.02 95.2598 89.0541 95.4583H85.7273C85.6857 95.1784 85.6434 94.9042 85.6002 94.6352H88.9065C88.9209 94.7096 88.9359 94.7846 88.9496 94.8592L88.9497 94.8592ZM88.5458 90.2456C87.1445 85.1233 85.0709 80.3216 83.0223 77.6453C82.7788 76.2048 82.3432 75.1074 81.9348 74.3301V72.4726H81.1899C81.2679 72.0274 81.317 71.5629 81.3419 71.0941C82.378 71.5652 85.2523 73.2714 87.4048 78.3259C88.278 80.373 88.9383 82.2887 89.3641 84.0205L89.37 84.0185C90.0521 86.8134 90.0423 88.7882 89.8873 90.2456H88.5458H88.5458ZM89.9387 78.0937C90.3064 80.1122 89.994 81.8351 89.7111 82.8391C89.2868 81.3544 88.7136 79.7581 87.9944 78.0748C85.5654 72.37 82.2819 70.7554 81.3654 70.403C81.3714 69.7873 81.3466 69.1833 81.3047 68.6311C81.8584 68.6825 82.8921 68.858 83.7172 69.4651C84.5141 70.0521 85.1562 70.7569 85.7772 71.4382C86.1182 71.8127 86.4404 72.1657 86.7678 72.4757C87.2608 72.9394 87.6745 73.2206 88.0942 73.3773C88.3551 73.7908 89.5106 75.7216 89.9386 78.0938L89.9387 78.0937ZM85.573 67.887C86.3104 68.6244 87.4159 70.3461 88.0104 71.2702L88.2168 71.5918C88.6577 72.2655 89.3315 72.5998 89.8428 72.7684C89.5056 72.9446 89.017 73.0694 88.4324 72.8176L88.4029 72.8062C88.0445 72.6928 87.6648 72.4394 87.2089 72.0098C86.8986 71.7166 86.5842 71.3717 86.2515 71.0064C85.6389 70.3348 84.9454 69.5734 84.0978 68.9487C83.0828 68.2022 81.8412 68.0231 81.2474 67.9806C81.1779 67.2926 81.0939 66.7337 81.0388 66.4039C83.4193 66.1317 84.9008 67.2146 85.573 67.887V67.887ZM81.9348 76.8626V75.9953C82.313 77.1038 82.6055 78.566 82.5669 80.3949C81.8402 79.0875 80.4557 78.1104 78.7926 77.795C79.0355 77.4902 79.2563 77.1778 79.4552 76.8626H81.9348H81.9348ZM77.2741 69.5665C77.8822 67.9276 78.9583 66.8851 80.4064 66.5189C80.5577 67.4474 80.9487 70.2811 80.541 72.4726H76.6631C76.7954 71.489 76.9377 70.4756 77.2741 69.5665V69.5665ZM75.2293 76.8626H78.6762C78.4704 77.1606 78.2527 77.4397 78.0258 77.6997C77.8957 77.6915 77.7641 77.6862 77.6312 77.6862H74.4059C74.6852 77.4576 74.96 77.1878 75.2293 76.8626V76.8626ZM74.3632 76.8626C74.0082 77.2144 73.6425 77.4753 73.2682 77.6862H67.845C67.7936 77.5297 67.7479 77.3724 67.7112 77.2159C67.6778 77.0992 67.6483 76.9805 67.6206 76.8626H74.3632V76.8626ZM70.9941 68.3581C70.9606 68.3082 70.9234 68.2477 70.8852 68.1652C71.1887 68.0366 71.7928 67.8475 72.4267 68.0306C72.6689 68.1009 72.8713 68.1932 73.0424 68.29C72.4535 68.2756 71.6839 68.2809 70.9941 68.3581ZM73.6222 66.6385C74.1132 66.6891 74.4033 66.8069 74.7107 66.9311C75.0282 67.0596 75.3564 67.1926 75.8775 67.244C76.1746 67.2736 76.4567 67.2584 76.7137 67.2251C76.5164 67.3053 76.2652 67.3682 75.9448 67.3939C75.2618 67.4454 74.695 67.3296 74.1956 67.2276C73.8409 67.1549 73.506 67.0861 73.1798 67.0876C71.9418 67.0951 71.1354 67.3335 70.7093 67.5065C70.7037 67.4574 70.7026 67.4023 70.6997 67.3485C71.1187 67.1149 72.35 66.5069 73.6222 66.6385L73.6222 66.6385ZM72.6157 63.5567C73.7514 63.6037 74.5793 63.7058 75.5009 64.4477C75.8396 64.7214 75.922 65.0919 75.922 65.3892C75.922 65.4586 75.9175 65.5244 75.9099 65.5842C75.3465 65.417 74.1999 65.113 73.36 65.1274C72.3151 65.1471 71.4993 65.4373 70.9645 65.7035C71.2785 64.7689 71.8388 64.0354 72.6157 63.5567L72.6157 63.5567ZM64.3879 63.3034C64.3011 63.2058 64.2139 63.0545 64.1354 62.9018C64.4731 62.9374 64.9142 62.9683 65.3537 62.9509C66.9571 62.8822 67.7982 62.6447 68.4745 62.4534C69.0373 62.2945 69.4819 62.1683 70.2092 62.1683C71.3779 62.1683 71.8624 62.5252 72.0658 62.8255C71.9248 62.7936 71.7622 62.7649 71.5505 62.7612L71.1855 62.749C70.8481 62.7346 70.7087 62.7286 70.0024 62.8285C69.5244 62.895 69.0935 63.1603 68.6371 63.4403C68.1636 63.7314 67.6736 64.0324 67.1167 64.1111C66.3319 64.2235 66.0961 64.2161 66.0594 64.2139C65.9814 64.1972 64.9895 63.9801 64.388 63.3034H64.3879ZM70.291 63.7366C70.291 63.8538 70.2007 63.9463 70.085 63.9463C69.9713 63.9463 69.8791 63.8524 69.8791 63.7366C69.8791 63.6246 69.973 63.5302 70.085 63.5302C70.1986 63.5302 70.291 63.6226 70.291 63.7366ZM66.1222 64.8551C66.346 64.8536 66.7173 64.8165 67.2075 64.7462C67.8959 64.6486 68.4682 64.297 68.9728 63.987C69.065 63.9303 69.1561 63.8743 69.2459 63.8215C69.2892 64.2502 69.6467 64.5882 70.0849 64.5882C70.552 64.5882 70.9327 64.2056 70.9327 63.7366C70.9327 63.6103 70.9031 63.4916 70.8531 63.3835C70.9523 63.3811 71.0406 63.3851 71.1586 63.3903L71.5384 63.4023C71.6081 63.4039 71.669 63.4092 71.7272 63.4167C70.906 64.1195 70.3586 65.1107 70.1385 66.3336H70.1374C70.1042 66.512 70.048 66.8553 70.048 67.1601H70.0502C70.0448 67.7433 70.1784 68.1735 70.3222 68.4684C68.1957 68.9387 67.3562 70.4755 67.2894 71.6717C67.2847 71.7558 67.2825 71.8359 67.2825 71.9131C67.2825 72.1233 67.3012 72.3077 67.3355 72.4725H66.7473C66.2705 72.4725 65.808 72.527 65.3664 72.6278C65.3067 72.6011 65.2474 72.5784 65.1874 72.5506C63.6353 71.8207 62.5194 70.4065 62.1824 69.9445C63.6139 67.176 65.6712 65.2566 66.1222 64.8551V64.8551ZM67.1728 77.6861H66.6301C66.4028 77.6861 66.2181 77.5016 66.2181 77.2739C66.2181 77.0471 66.4028 76.8626 66.6301 76.8626H66.9615C66.9994 77.0348 67.0419 77.2066 67.0908 77.3759C67.1145 77.4797 67.1428 77.5832 67.1728 77.6861V77.6861ZM64.4832 72.903C64.4629 72.9112 64.4422 72.9189 64.4219 72.9271C64.4082 72.9014 64.3946 72.8742 64.3808 72.8485C64.4133 72.868 64.4495 72.8839 64.4832 72.9029V72.903ZM63.8382 73.2069C63.6873 73.2893 63.5417 73.3787 63.4011 73.4738C63.3542 72.9626 63.2482 72.4983 63.0965 72.0438C63.3165 72.3441 63.5818 72.7419 63.8382 73.2069ZM61.2834 77.6945C61.2909 77.7708 61.3007 77.8472 61.3126 77.9228C60.8373 78.4233 60.2808 78.8313 59.6911 79.1612C59.4915 78.9353 59.2941 78.6545 59.1353 78.297V78.1005C59.1353 78.1005 59.1074 78.1005 59.0544 78.1005C58.9284 77.761 58.8414 77.3534 58.815 76.8619C59.4496 76.8619 59.8294 76.8619 59.8294 76.8619V73.1115C60.0693 72.6866 60.314 72.3236 60.5192 72.0438C60.3111 72.6661 60.1866 73.306 60.1866 74.0599C60.1866 75.4528 60.5578 76.6689 61.2834 77.6945L61.2834 77.6945ZM59.1353 80.1559C59.9674 79.794 60.791 79.3094 61.4933 78.654C61.7479 79.3958 62.203 80.062 62.8024 80.6056H59.1353V80.1559V80.1559ZM62.7833 73.9603C62.0367 74.644 61.5181 75.5182 61.3351 76.4922C61.0009 75.7653 60.8281 74.9548 60.8281 74.06C60.8281 72.7888 61.2264 71.8398 61.8077 70.6737C62.374 71.8088 62.7627 72.7398 62.7833 73.9603V73.9603ZM53.4064 62.1684C54.1335 62.1684 54.5781 62.2946 55.1408 62.4534C55.817 62.6447 56.6583 62.8822 58.2618 62.951C58.7012 62.9684 59.1424 62.9376 59.48 62.9019C59.4018 63.0546 59.3143 63.2059 59.2273 63.3035C58.6261 63.9801 57.6339 64.1973 57.556 64.214C57.5194 64.2161 57.2838 64.2236 56.4988 64.1111C55.9419 64.0325 55.452 63.7315 54.9782 63.4404C54.5221 63.1604 54.0912 62.895 53.6129 62.8286C52.9069 62.7287 52.7674 62.7347 52.43 62.7491L52.0651 62.7613C51.8533 62.765 51.6908 62.7936 51.5498 62.8256C51.7528 62.5253 52.2376 62.1684 53.4064 62.1684ZM53.7364 63.7367C53.7364 63.8524 53.6443 63.9463 53.5304 63.9463C53.4149 63.9463 53.3247 63.854 53.3247 63.7367C53.3247 63.6226 53.4166 63.5303 53.5304 63.5303C53.6422 63.5303 53.7364 63.6247 53.7364 63.7367ZM50.2554 65.1275C49.4155 65.1131 48.2687 65.4171 47.7055 65.5843C47.6982 65.5244 47.6938 65.4587 47.6938 65.3892C47.6938 65.0919 47.7763 64.7215 48.115 64.4478C49.0363 63.7058 49.864 63.6038 50.9995 63.5568C51.7767 64.0355 52.3367 64.7691 52.6512 65.7037C52.1161 65.4375 51.3002 65.1472 50.2554 65.1276V65.1275ZM52.6213 68.3582C51.9315 68.281 51.1621 68.2757 50.5733 68.29C50.7444 68.1933 50.9465 68.1009 51.1887 68.0307C51.8228 67.8475 52.4267 68.0366 52.7304 68.1652C52.6921 68.2478 52.655 68.3083 52.6213 68.3582V68.3582ZM52.9062 67.5065C52.4801 67.3336 51.6738 67.0952 50.4357 67.0877C50.1097 67.0862 49.7744 67.155 49.4196 67.2276C48.9201 67.3297 48.3531 67.4454 47.6707 67.394C47.3503 67.3683 47.0988 67.3054 46.9016 67.2252C47.1589 67.2585 47.441 67.2737 47.7378 67.2441C48.2589 67.1927 48.5872 67.0597 48.9046 66.9312C49.2121 66.807 49.5027 66.6892 49.9933 66.6385C51.2656 66.507 52.4967 67.1149 52.9155 67.3485C52.9128 67.4024 52.9115 67.4574 52.9061 67.5065L52.9062 67.5065ZM53.2933 68.4687C53.4371 68.1737 53.5707 67.7435 53.5653 67.1604H53.5671C53.5671 66.8556 53.5111 66.5122 53.4781 66.3338H53.477C53.2568 65.1109 52.7095 64.1196 51.8882 63.4169C51.9462 63.4095 52.0071 63.404 52.0768 63.4026L52.4569 63.3906C52.5748 63.3852 52.6631 63.3813 52.7624 63.3838C52.7124 63.4918 52.6829 63.6106 52.6829 63.7368C52.6829 64.2059 53.0631 64.5885 53.5304 64.5885C53.9688 64.5885 54.3264 64.2504 54.3695 63.8217C54.4593 63.8746 54.5502 63.9306 54.6425 63.9872C55.1473 64.2973 55.7195 64.649 56.408 64.7464C56.8981 64.8167 57.2696 64.8538 57.4933 64.8553C57.9443 65.2569 60.0016 67.1763 61.4327 69.9448C61.1076 70.3918 60.0524 71.7257 58.5804 72.4737H56.2798C56.3139 72.3087 56.333 72.1235 56.333 71.9133C56.333 71.8362 56.3307 71.7559 56.3256 71.6719C56.259 70.4758 55.4195 68.939 53.2932 68.4687H53.2933ZM58.3797 78.1008H56.3077C56.3939 77.8616 56.4689 77.6182 56.5246 77.3761C56.5738 77.2068 56.6161 77.0351 56.6537 76.8621H58.1729C58.1963 77.3369 58.2705 77.7476 58.3797 78.1008ZM55.995 76.8621C55.9674 76.9806 55.9373 77.0994 55.904 77.2161C55.8353 77.5116 55.7358 77.8102 55.6211 78.1008H51.2243C50.539 77.824 49.8793 77.4844 49.2519 76.8621H55.995V76.8621ZM48.3857 76.8621C48.839 77.4118 49.3106 77.8021 49.7896 78.1008H45.9591C45.7754 77.9162 45.5972 77.718 45.4246 77.5078V76.8621H48.3857V76.8621ZM43.2088 66.519C44.6569 66.8851 45.7333 67.9278 46.3412 69.5666C46.6774 70.4758 46.8197 71.4891 46.9522 72.4737H43.0743C42.6666 70.2813 43.0578 67.4477 43.2087 66.519H43.2088ZM39.6111 90.2458C39.9215 89.1107 40.2466 88.1237 40.5638 87.2872H42.0711C42.4486 87.9906 42.8714 88.6052 43.325 89.1354C43.1883 89.3447 42.9741 89.7094 42.7342 90.2458H39.6112H39.6111ZM41.7907 99.8476L42.215 99.8478C42.0609 99.9676 41.9102 100.082 41.7789 100.178C41.7828 100.07 41.7871 99.9578 41.7907 99.8476V99.8476ZM34.6661 94.8593C34.6798 94.7847 34.6946 94.7097 34.709 94.6353H38.0144C37.9707 94.9041 37.9291 95.1793 37.8884 95.4584H34.5611C34.5951 95.2599 34.629 95.0612 34.6661 94.8592V94.8593ZM33.9358 90.2458C33.8661 90.2458 33.7968 90.2484 33.728 90.2505C33.5725 88.7929 33.5628 86.8168 34.2452 84.0186L34.2519 84.0206C34.6776 82.2889 35.3368 80.3732 36.2106 78.326C38.3632 73.2716 41.2376 71.5654 42.2732 71.0942C42.2981 71.563 42.3479 72.0276 42.4256 72.4737H40.5063V77.7627C38.4859 80.46 36.4515 85.1968 35.0693 90.2458H33.9358V90.2458ZM35.7332 90.2458C36.9566 85.8241 38.6786 81.6697 40.4361 78.9824C40.3748 79.863 40.3861 80.8412 40.5063 81.9235V85.7353C40.012 86.8527 39.4562 88.3443 38.9461 90.2458H35.7332ZM33.7724 72.7685C34.2841 72.5999 34.9579 72.2657 35.3986 71.592L35.605 71.2704C36.1994 70.3462 37.3052 68.6245 38.0426 67.8871C38.7143 67.2148 40.1962 66.1318 42.5767 66.4041C42.5219 66.7338 42.4379 67.2926 42.368 67.9808C41.774 68.0232 40.5326 68.2024 39.5177 68.9489C38.6701 69.5735 37.9763 70.335 37.3643 71.0065C37.0314 71.3719 36.7167 71.7168 36.4067 72.01C35.9504 72.4396 35.5709 72.693 35.2127 72.8063L35.1829 72.8177C34.5988 73.0695 34.1099 72.9448 33.7724 72.7685V72.7685ZM33.6768 78.0938C34.1046 75.7216 35.2598 73.7909 35.5209 73.3773C35.9406 73.2206 36.3543 72.9394 36.847 72.4757C37.1748 72.1657 37.4971 71.8127 37.838 71.4382C38.4588 70.7569 39.1013 70.0521 39.8983 69.4651C40.7231 68.858 41.7566 68.6825 42.3103 68.6311C42.2689 69.1833 42.2439 69.7873 42.2501 70.403C41.3335 70.7554 38.0501 72.3701 35.6205 78.0748C34.9022 79.7581 34.3283 81.3544 33.9045 82.8391C33.6213 81.8351 33.3092 80.1122 33.6768 78.0937L33.6768 78.0938ZM33.9113 95.4584H33.8185C33.5912 95.4584 33.4064 95.2739 33.4064 95.0471C33.4064 94.8199 33.5912 94.6353 33.8185 94.6353H33.9378C33.9688 94.726 33.9957 94.798 34.0164 94.8497C33.9793 95.0546 33.9456 95.2567 33.9113 95.4585V95.4584ZM34.056 99.8475H37.4238C37.4052 100.118 37.3885 100.393 37.3728 100.671H34.0249C34.0315 100.401 34.0413 100.126 34.056 99.8475V99.8475ZM34.3106 105.06H36.1445C36.0694 105.159 35.9929 105.259 35.9136 105.36C35.5569 105.819 35.1923 106.292 34.9344 106.84C34.7509 106.563 34.5029 106.03 34.3106 105.06H34.3106ZM37.0417 112.411C36.799 113.122 36.6363 113.841 36.5349 114.367C35.061 112.165 34.968 110.349 34.968 109.591C34.968 109.543 34.9682 109.5 34.9686 109.46C34.9725 108.482 35.2839 107.689 35.3463 107.54L35.3558 107.512H35.3565C35.5625 106.857 35.9792 106.321 36.4206 105.754C36.5951 105.53 36.7723 105.299 36.9372 105.06H37.4303C37.6624 107.394 38.1353 109.64 38.3188 110.397C38.0249 110.715 37.3481 111.513 37.0418 112.411L37.0417 112.411ZM40.2505 109.642C39.7804 110.037 39.3259 110.104 38.9158 110.139C38.724 109.322 38.292 107.233 38.0725 105.06H41.0809C41.0927 106.284 41.1208 107.054 41.1249 107.169V107.171L41.126 107.187C41.126 107.189 41.127 107.218 41.127 107.267C41.127 107.609 41.0727 108.957 40.2505 109.642H40.2505ZM41.1225 100.671H38.016C38.0317 100.393 38.0496 100.119 38.0681 99.8475H41.1487C41.1389 100.127 41.1303 100.402 41.1225 100.671V100.671ZM41.4205 95.4584H38.5373C38.5782 95.1784 38.6216 94.9043 38.6657 94.6353H41.5296C41.4903 94.8994 41.4536 95.174 41.4205 95.4584ZM41.7301 105.645C41.7271 105.465 41.7247 105.267 41.723 105.06H42.1432C41.9813 105.266 41.8443 105.462 41.7301 105.645ZM42.192 100.671C42.4967 100.447 42.8844 100.148 43.2237 99.8477H44.3662C44.3803 100.129 44.3996 100.404 44.4235 100.671H42.192ZM44.4285 95.4584H42.0666C42.1011 95.1715 42.1404 94.8995 42.1818 94.6353H44.5798C44.5189 94.9168 44.4672 95.1933 44.4285 95.4584V95.4584ZM43.4478 90.2457C43.5743 89.9829 43.6876 89.7773 43.7766 89.6281C43.9966 89.8516 44.2225 90.0541 44.4505 90.2457H43.4477H43.4478ZM42.785 87.2871H45.4247C45.4247 87.2871 45.4247 83.3183 45.4247 82.4892H50.7555V91.9941C50.4243 91.9896 49.8427 91.9579 49.1231 91.8171V90.2458H45.4281C44.4699 89.5608 43.5413 88.6098 42.785 87.2872L42.785 87.2871ZM45.1483 100.671H45.0651C45.0403 100.405 45.0208 100.13 45.006 99.8477H45.1483C45.3756 99.8477 45.5601 100.033 45.5601 100.259C45.5601 100.487 45.3756 100.671 45.1483 100.671V100.671ZM47.7827 95.5896C47.7615 95.7786 47.7486 95.9849 47.7396 96.1984C46.9613 95.7679 46.0522 95.5037 45.0761 95.4644C45.1177 95.1982 45.1717 94.9197 45.2365 94.6352H47.9321C47.8688 94.9636 47.8157 95.2895 47.7827 95.5896ZM50.0209 98.738C49.6999 97.9002 49.1227 97.1652 48.3705 96.6042C48.3747 96.2638 48.3889 95.9418 48.4202 95.6599C48.4552 95.342 48.5148 94.9902 48.5865 94.6352H49.1231V92.4781C49.1266 92.4667 49.1302 92.4536 49.1335 92.4429C49.8451 92.5809 50.4196 92.6201 50.7555 92.63V97.1071C50.7062 97.2456 50.4116 98.0515 50.0209 98.738V98.738ZM51.3393 104.205C50.7259 104.699 50.332 104.832 50.0147 104.87C50.1744 104.433 50.4207 103.686 50.7078 102.55C50.913 101.732 51.0555 100.936 51.1551 100.216C51.3967 101.001 51.7818 101.779 52.3957 102.328C52.4268 102.356 52.4568 102.379 52.4875 102.406C52.3741 102.745 52.0217 103.657 51.3394 104.205L51.3393 104.205ZM40.1176 115.647C40.1037 115.66 40.0893 115.671 40.0757 115.684C39.5411 116.219 39.278 116.797 39.1452 117.256C38.9971 116.956 38.8648 116.561 38.8648 116.077C38.8648 115.864 38.8905 115.635 38.9508 115.391C39.0305 115.072 39.1849 114.812 39.3833 114.6C39.5047 114.583 39.9752 114.54 40.1826 114.861C40.3035 115.05 40.1995 115.447 40.1177 115.647L40.1176 115.647ZM42.6229 118.091C42.537 118.251 42.4639 118.426 42.4148 118.619C42.3173 118.998 42.2815 119.348 42.2815 119.659C42.2815 119.932 42.3123 120.159 42.3499 120.363C41.8669 120.058 41.2551 119.435 41.2551 118.23V118.225C41.2551 117.987 41.2826 117.767 41.3262 117.56C41.4676 117.48 41.8484 117.299 42.2195 117.441C42.6178 117.593 42.6228 118.045 42.623 118.064V118.091H42.6229ZM47.0702 121.572C46.5726 121.476 45.9396 121.289 45.5469 120.921C45.1617 120.563 44.9223 120.213 44.7683 119.88L44.7788 119.825C44.783 119.805 44.8806 119.323 45.3237 119.223C45.7543 119.126 45.9802 119.428 46.0043 119.462L46.0433 119.518C46.3048 120.357 46.7359 121.086 47.0702 121.572V121.572ZM49.4701 114.8C49.5332 115.029 49.5587 115.254 49.5587 115.469C49.5587 115.763 49.5085 116.034 49.4425 116.273C49.417 116.217 49.3984 116.155 49.3662 116.107C49.1264 115.743 48.6035 115.301 48.1189 115.094C48.2005 114.702 48.3548 114.22 48.5932 113.773C48.9246 113.979 49.3232 114.265 49.4701 114.8V114.8ZM50.4657 110.71C49.6708 111.393 48.6635 112.392 48.2116 113.153L48.2114 113.153C48.2097 113.156 48.2084 113.159 48.2072 113.161C48.2065 113.162 48.2056 113.163 48.205 113.164C47.8869 113.663 47.6343 114.297 47.5002 114.916C47.3159 114.932 47.077 115.016 46.7754 115.239C45.8455 115.921 45.8264 117.038 45.8092 118.025C45.8091 118.044 45.8091 118.064 45.8091 118.083C45.8091 118.261 45.8204 118.437 45.8423 118.611C45.6579 118.557 45.4385 118.54 45.1827 118.597C44.8833 118.665 44.6706 118.815 44.5167 118.984C44.5119 118.949 44.5074 118.915 44.5034 118.88C44.484 118.709 44.4765 118.484 44.4765 118.253C44.4765 117.706 44.5156 117.123 44.5163 117.114L44.5513 116.603L44.0765 116.795C44.0432 116.808 43.5615 117.009 43.1142 117.445C43.0003 117.214 42.8007 116.976 42.4492 116.842C42.1445 116.725 41.8489 116.731 41.5977 116.781C41.9594 116.057 42.4805 115.666 42.4976 115.655C42.7752 115.442 42.9536 115.299 42.9536 115.299C42.8468 115.24 42.6742 115.139 42.5224 115.087C42.4194 115.028 41.6338 114.905 40.8742 115.185C40.8858 114.96 40.8539 114.72 40.7222 114.514C40.5694 114.278 40.3655 114.14 40.158 114.057C41.0125 113.66 41.9868 113.651 42.0028 113.651C43.2039 113.651 44.6747 114.155 44.6897 114.16L44.8646 114.221L45.0046 114.1C45.0329 114.075 47.8721 111.613 49.1227 110.355C49.9598 109.515 51.291 107.728 52.0316 106.7C52.1886 107.546 52.5688 108.398 52.9285 109.065C52.4717 109.262 51.629 109.713 50.4658 110.71L50.4657 110.71ZM54.3212 106.484C54.1342 107.484 54.0162 108.719 53.9516 109.535C53.8606 109.394 53.7656 109.242 53.6685 109.075L53.5508 108.873C53.5508 108.872 53.5516 108.87 53.5515 108.87C53.1523 108.147 52.7072 107.167 52.6153 106.26L52.605 106.158L52.58 105.825H52.5793V105.82C52.5789 105.793 52.5789 105.764 52.5789 105.736C52.5789 104.655 52.867 103.447 53.0325 102.842C53.5613 103.225 54.0537 103.467 54.5225 103.625C54.6777 103.739 54.8378 103.846 55.0021 103.948C54.7992 104.58 54.4767 105.645 54.3212 106.484ZM56.827 107.31C56.335 108.119 55.2205 109.241 54.5706 109.863C54.628 109.084 54.75 107.681 54.9517 106.602C55.0902 105.856 55.376 104.894 55.574 104.268C56.3307 104.648 57.1609 104.904 58.0382 105.007C57.6883 105.734 57.2229 106.661 56.827 107.31V107.31ZM57.082 112.692C57.9899 110.222 58.5425 107.764 58.8507 106.103C59.1661 107.958 59.5785 109.732 60.0937 111.444C60.0846 112.198 59.6321 113.698 59.075 114.812C58.6327 115.698 56.9832 118.641 54.3212 119.313C52.8935 119.674 51.438 119.548 50.4421 119.371C52.2483 118.779 55.4486 117.133 57.082 112.692V112.692ZM57.124 123.77C57.1032 123.628 57.0897 123.475 57.0897 123.309C57.0897 122.849 57.1628 122.34 57.2723 121.99C57.8889 121.642 58.435 121.187 58.9296 120.663C58.8831 121.398 58.9546 122.145 59.1471 122.947C58.6852 123.451 57.9521 123.746 57.124 123.77H57.124ZM56.8554 121.49V121.49C56.1191 121.882 55.3218 122.073 54.418 122.073C51.8573 122.073 50.4373 120.738 49.7959 119.899C50.8163 120.131 52.6448 120.398 54.478 119.935C57.405 119.197 59.1759 116.047 59.649 115.099C59.9737 114.449 60.3077 113.577 60.5186 112.775C60.8026 113.614 61.1169 114.436 61.4527 115.248C61.1301 116.01 60.7855 116.763 60.4092 117.522C59.4594 119.104 58.3717 120.68 56.8553 121.49L56.8554 121.49ZM61.4861 126.547C60.9614 125.775 60.2011 124.477 59.8086 122.959L59.8076 122.956C59.5087 121.801 59.4762 120.779 59.7043 119.743C60.1626 119.138 60.578 118.486 60.9714 117.83C61.1518 117.467 61.3221 117.109 61.488 116.751L61.4861 126.547ZM61.8076 114.413C60.656 111.497 59.8451 108.41 59.3409 105.06H60.4211C61.2209 105.636 61.5032 106.187 61.5195 106.221L61.8085 106.813L62.0959 106.22C62.1124 106.186 62.3929 105.636 63.1926 105.06H64.2743C63.7704 108.41 62.9594 111.497 61.8076 114.413L61.8076 114.413ZM61.4179 105.06H62.196C62.0344 105.221 61.906 105.371 61.8074 105.5C61.7079 105.371 61.5795 105.221 61.4179 105.06V105.06ZM63.8074 122.956L63.8067 122.959C63.414 124.478 62.6526 125.777 62.1274 126.549L62.1291 116.755C62.2939 117.111 62.4639 117.468 62.6438 117.83C63.0372 118.486 63.4529 119.138 63.9106 119.743C64.139 120.779 64.1064 121.801 63.8073 122.956L63.8074 122.956ZM66.4912 123.77C65.6631 123.746 64.93 123.451 64.4683 122.947C64.6609 122.146 64.7319 121.398 64.6859 120.663C65.1805 121.187 65.7264 121.643 66.3429 121.99C66.4524 122.34 66.5257 122.849 66.5257 123.309C66.5257 123.475 66.512 123.628 66.4912 123.77ZM69.1969 122.073C68.2934 122.073 67.4962 121.882 66.76 121.49V121.49C65.2435 120.68 64.1558 119.104 63.2061 117.522C62.8299 116.764 62.4848 116.01 62.1623 115.248C62.4982 114.436 62.8127 113.614 63.0965 112.775C63.3074 113.578 63.6411 114.449 63.9661 115.099C64.4392 116.047 66.2103 119.197 69.1371 119.935C70.9703 120.399 72.7988 120.131 73.819 119.899C73.1778 120.738 71.7578 122.073 69.1969 122.073L69.1969 122.073ZM66.5334 112.692C68.1668 117.133 71.3668 118.779 73.1731 119.371C72.1773 119.548 70.7219 119.674 69.2942 119.313C66.6322 118.641 64.9826 115.698 64.5403 114.812C63.9832 113.698 63.5308 112.198 63.5216 111.444C64.0366 109.732 64.4494 107.958 64.7648 106.103C65.073 107.764 65.6254 110.222 66.5335 112.692L66.5334 112.692ZM66.7885 107.31C66.4021 106.676 65.9497 105.779 65.603 105.06H68.2818C68.4284 105.567 68.5756 106.128 68.6636 106.602C68.8652 107.681 68.9875 109.084 69.0445 109.863C68.3947 109.241 67.2805 108.119 66.7885 107.31V107.31ZM70.0646 108.873L69.9467 109.075C69.8493 109.242 69.7549 109.394 69.6637 109.535C69.5992 108.719 69.4809 107.484 69.2941 106.484C69.2121 106.041 69.0829 105.534 68.9494 105.06H71.0031C71.0237 105.287 71.0365 105.514 71.0365 105.736C71.0365 105.764 71.0361 105.793 71.0358 105.82V105.825H71.0354L71.0104 106.158L70.9999 106.26C70.9081 107.167 70.4629 108.147 70.0635 108.87C70.0635 108.87 70.0646 108.872 70.0646 108.873ZM74.249 116.107C74.2171 116.155 74.1983 116.217 74.1727 116.273C74.1065 116.034 74.0566 115.763 74.0566 115.469C74.0566 115.254 74.0821 115.029 74.1451 114.8C74.2917 114.265 74.6907 113.979 75.0221 113.773C75.2602 114.22 75.4152 114.702 75.4969 115.093C75.0118 115.301 74.4892 115.743 74.2491 116.107L74.249 116.107ZM78.0688 120.921C77.6756 121.289 77.0426 121.476 76.5457 121.572C76.8793 121.086 77.3104 120.357 77.5719 119.518L77.6113 119.462C77.6355 119.428 77.8609 119.126 78.2919 119.223C78.7344 119.323 78.8319 119.805 78.8364 119.825L78.8468 119.881C78.6934 120.213 78.4537 120.563 78.0688 120.921H78.0688ZM82.2895 117.56C82.3325 117.767 82.3605 117.987 82.3605 118.225V118.23C82.3605 119.435 81.7486 120.058 81.2654 120.363C81.3032 120.159 81.3342 119.932 81.3342 119.659C81.3342 119.348 81.298 118.998 81.2004 118.619C81.152 118.426 81.0778 118.251 80.9925 118.091V118.064C80.9925 118.045 80.9976 117.593 81.3955 117.441C81.7668 117.299 82.1479 117.48 82.2894 117.56H82.2895ZM84.2323 114.6C84.4303 114.812 84.5845 115.072 84.6646 115.391C84.7253 115.635 84.751 115.864 84.751 116.077C84.751 116.561 84.6186 116.956 84.4704 117.256C84.3373 116.797 84.0741 116.219 83.5395 115.684C83.5259 115.671 83.5116 115.66 83.4979 115.647C83.4162 115.447 83.3117 115.05 83.4329 114.861C83.64 114.54 84.1105 114.582 84.2323 114.599V114.6ZM74.4928 110.355C75.7433 111.613 78.5823 114.075 78.6103 114.1L78.751 114.221L78.9256 114.16C78.9408 114.155 80.4116 113.651 81.6124 113.651C81.6283 113.651 82.6033 113.66 83.4571 114.057C83.2498 114.139 83.0464 114.278 82.8929 114.514C82.7612 114.72 82.7295 114.96 82.7409 115.185C81.9816 114.905 81.1958 115.028 81.0931 115.087C80.9411 115.139 80.7685 115.24 80.662 115.299C80.662 115.299 80.8397 115.442 81.118 115.655C81.1347 115.666 81.6556 116.057 82.0179 116.781C81.7668 116.731 81.4704 116.725 81.1664 116.842C80.8146 116.976 80.6151 117.214 80.5016 117.445C80.0541 117.009 79.5722 116.808 79.539 116.795L79.0641 116.603L79.0989 117.114C79.0996 117.123 79.139 117.706 79.139 118.253C79.139 118.484 79.1322 118.709 79.1117 118.88C79.1078 118.915 79.1033 118.949 79.0988 118.984C78.9453 118.815 78.7321 118.665 78.4326 118.597C78.1771 118.539 77.9569 118.557 77.7732 118.611C77.7944 118.437 77.8064 118.261 77.8064 118.083C77.8064 118.064 77.8064 118.044 77.8056 118.025C77.7891 117.038 77.7694 115.921 76.8399 115.239C76.5383 115.016 76.2993 114.932 76.1148 114.916C75.9809 114.297 75.7284 113.663 75.4099 113.164C75.4099 113.163 75.4083 113.162 75.4083 113.161C75.4068 113.159 75.4053 113.156 75.4038 113.153V113.153C74.952 112.392 73.9446 111.393 73.1496 110.71C71.9865 109.713 71.1435 109.262 70.6868 109.065C71.0465 108.398 71.4267 107.546 71.5836 106.7C72.3245 107.727 73.6557 109.515 74.4928 110.355V110.355ZM71.6064 100.671L58.9702 100.672C57.2641 100.672 55.8765 99.3177 55.8765 97.6534C55.8765 95.989 57.2641 94.6353 58.9702 94.6353H71.944V90.2458H58.9138C54.815 90.2458 51.4802 93.5689 51.4802 97.6531C51.4802 99.1668 51.939 100.575 52.724 101.749C51.4745 100.504 51.3951 97.955 51.3951 97.3556C51.3951 97.2768 51.3963 97.2315 51.3963 97.2277C51.3963 97.2277 51.3963 86.2656 51.3963 82.4892C55.0984 82.4892 59.135 82.4892 59.135 82.4892V81.2472H63.6707C64.5489 81.7696 65.6081 82.075 66.747 82.075H72.218V82.8988H61.526V87.2877H72.218C72.218 91.8162 72.218 97.228 72.218 97.228C72.2183 97.2315 72.2193 97.2767 72.2193 97.3562C72.2193 97.812 72.1741 99.3918 71.6063 100.671H71.6064ZM73.6006 104.87C73.2833 104.832 72.8893 104.699 72.2761 104.205C72.1536 104.107 72.0456 103.995 71.944 103.878V101.418C72.1635 101.039 72.332 100.627 72.4593 100.212C72.5596 100.933 72.7019 101.731 72.9075 102.55C73.1944 103.686 73.4412 104.433 73.6005 104.87H73.6006ZM72.8598 97.1068V92.6301C73.1955 92.6202 73.7701 92.581 74.4816 92.443C74.5421 92.649 74.6293 92.9607 74.7235 93.3234C73.8392 94.5423 73.3157 96.0375 73.3157 97.6531C73.3157 97.8563 73.3262 98.0571 73.3425 98.2565C73.0812 97.7165 72.8975 97.2132 72.8598 97.1068ZM81.4727 105.06H81.8925C81.89 105.267 81.8886 105.465 81.8856 105.645C81.7707 105.462 81.6338 105.266 81.4727 105.06ZM84.6996 110.139C84.2897 110.104 83.835 110.037 83.3647 109.642C82.5427 108.957 82.4882 107.609 82.4882 107.267C82.4882 107.218 82.4899 107.189 82.4899 107.187V107.171V107.169C82.4944 107.054 82.5223 106.284 82.5345 105.06L85.5427 105.06C85.3233 107.233 84.8916 109.322 84.6996 110.139V110.139ZM87.0802 114.367C86.9787 113.841 86.8162 113.122 86.5736 112.411C86.2673 111.513 85.5903 110.715 85.2961 110.397C85.4798 109.64 85.9534 107.394 86.1847 105.06H86.6777C86.8426 105.299 87.0203 105.53 87.1949 105.754C87.6359 106.321 88.0526 106.858 88.2591 107.512L88.2689 107.54C88.3317 107.689 88.6425 108.482 88.6462 109.46C88.647 109.5 88.647 109.543 88.647 109.591C88.647 110.349 88.5539 112.165 87.0801 114.367L87.0802 114.367ZM88.681 106.84C88.4231 106.291 88.058 105.819 87.7009 105.36C87.6231 105.259 87.5459 105.159 87.4702 105.06H89.3049C89.112 106.03 88.864 106.563 88.6809 106.84H88.681Z" fill="#E1BC6D"/>
<path id="Vector_10" d="M58.7863 73.517C58.7863 74.1237 58.7863 75.2127 58.7863 75.8181C57.8171 75.8181 44.3814 75.8181 44.3814 75.8181V79.144C44.3814 79.144 57.1264 79.144 58.092 79.144C58.092 79.7494 58.092 80.8395 58.092 81.4452C57.1265 81.4452 44.3814 81.4452 44.3814 81.4452C44.3814 81.4452 44.3814 85.4148 44.3814 86.2436C43.7215 86.2436 42.2092 86.2436 41.5496 86.2436C41.5496 85.3161 41.5496 74.445 41.5496 73.517C42.505 73.517 57.8304 73.517 58.7862 73.517H58.7863Z" fill="#FEFEFE"/>
<path id="Vector_11" d="M77.9601 83.9433C78.7632 83.9433 79.4158 83.2895 79.4158 82.4869C79.4158 81.6841 78.7632 81.0303 77.9601 81.0303H66.7473C64.298 81.0303 62.3052 79.3454 62.3052 77.274C62.3052 75.2028 64.298 73.5179 66.7473 73.5179C66.7473 73.5179 79.9187 73.5179 80.8904 73.5179C80.8904 74.1237 80.8904 75.2118 80.8904 75.8176C79.9181 75.8176 66.6301 75.8176 66.6301 75.8176C65.8267 75.8176 65.1736 76.471 65.1736 77.274C65.1736 78.0773 65.8268 78.7306 66.6301 78.7306H77.6312C80.0797 78.7306 82.0718 80.4153 82.0718 82.4867C82.0718 84.5581 80.0797 86.243 77.6312 86.243C77.6312 86.243 63.5458 86.243 62.5704 86.243C62.5704 85.6375 62.5704 84.5489 62.5704 83.9433C63.5473 83.9433 77.9601 83.9433 77.9601 83.9433V83.9433Z" fill="#FEFEFE"/>
<path id="Vector_12" d="M45.1482 101.716C45.9511 101.716 46.6044 101.062 46.6044 100.259C46.6044 99.4562 45.9511 98.8035 45.1482 98.8035L33.9357 98.8026C31.4862 98.8026 29.4938 97.1179 29.4938 95.047C29.4938 92.9756 31.4861 91.2903 33.9357 91.2903C33.9357 91.2903 47.1076 91.2903 48.0787 91.2903C48.0787 91.8965 48.0787 92.9844 48.0787 93.5906C47.1069 93.5906 33.8185 93.5906 33.8185 93.5906C33.0152 93.5906 32.3621 94.2438 32.3621 95.047C32.3621 95.8498 33.0153 96.503 33.8185 96.503H44.8198C47.2682 96.503 49.26 98.1884 49.26 100.259C49.26 102.331 47.2682 104.015 44.8198 104.015C44.8198 104.015 30.7342 104.016 29.759 104.016C29.759 103.41 29.759 102.322 29.759 101.716C30.7357 101.716 45.1483 101.716 45.1483 101.716L45.1482 101.716Z" fill="#FEFEFE"/>
<path id="Vector_13" d="M52.5245 97.653C52.5245 94.1447 55.3908 91.2903 58.9139 91.2903C58.9139 91.2903 69.9406 91.2903 70.8994 91.2903C70.8994 91.8965 70.8994 92.9844 70.8994 93.5906C69.9407 93.5906 58.9702 93.5906 58.9702 93.5906C56.6881 93.5906 54.8318 95.4129 54.8318 97.6532C54.8318 99.8933 56.6881 101.716 58.9702 101.716C58.9702 101.716 69.9407 101.716 70.8994 101.716C70.8994 102.322 70.8994 103.41 70.8994 104.016C69.9406 104.016 58.9139 104.016 58.9139 104.016C55.3908 104.016 52.5245 101.161 52.5245 97.6529V97.653Z" fill="#FEFEFE"/>
<path id="Vector_14" d="M89.4814 96.5029H83.7854V98.8035H89.8095C90.6125 98.8035 91.2659 99.4562 91.2659 100.259C91.2659 101.062 90.6125 101.716 89.8095 101.716L80.8058 101.716C78.5242 101.716 76.6677 99.8933 76.6677 97.6532C76.6677 95.4129 78.5242 93.5906 80.8058 93.5906C80.8058 93.5906 92.9161 93.5906 93.8743 93.5906C93.8743 92.9844 93.8743 91.8965 93.8743 91.2903C92.9153 91.2903 80.7498 91.2903 80.7498 91.2903C77.2265 91.2903 74.3602 94.1448 74.3602 97.653C74.3602 101.161 77.2265 104.016 80.7498 104.016L89.4814 104.015C91.9292 104.015 93.921 102.331 93.921 100.259C93.921 98.1883 91.9291 96.5029 89.4814 96.5029Z" fill="#FEFEFE"/>
</g>
</svg>
