<svg width="110" height="125" viewBox="0 0 110 125" fill="none" xmlns="http://www.w3.org/2000/svg">
<g id="suiza">
<g id="gales">
<g id="g10">
<path id="path4" d="M11.3419 68.844L11.3415 68.8429C5.08673 52.2872 3.87744 34.4383 3.87744 6.94919V3.87967H105.636V6.94919C105.636 34.4383 104.427 52.2872 98.1719 68.8429L98.1716 68.8438C91.384 86.8425 78.6436 102.236 56.6032 118.774C56.6023 118.774 56.6014 118.775 56.6005 118.776L54.753 120.155L52.9132 118.776C30.8813 102.237 18.1297 86.8524 11.3419 68.844Z" fill="#C8102E" stroke="#F2EFEA" stroke-width="3"/>
</g>
<path id="path12" d="M106.256 4.76308V3.26308H104.756H4.76283H3.26283V4.76308V6.95096C3.26283 34.169 4.43492 52.2856 10.7653 69.0617C17.6559 87.3271 30.6195 102.815 52.5474 119.269L52.5477 119.269L53.8643 120.256L54.7676 120.934L55.6685 120.253L56.9714 119.269C56.9722 119.268 56.9731 119.267 56.9739 119.267C78.9 102.816 91.8617 87.328 98.7632 69.0624L98.7637 69.061C105.084 52.2834 106.256 34.1667 106.256 6.95096V4.76308ZM51.4977 120.676L51.4933 120.673C29.0662 103.856 16.0721 88.1414 9.10953 69.6855C2.7378 52.7813 1.5 34.7172 1.5 6.95094V1.5H108.02L108.022 6.95094C108.022 6.95113 108.022 6.95133 108.022 6.95152C108.022 34.7173 106.784 52.7799 100.413 69.6854C93.4482 88.1419 80.4551 103.856 58.0287 120.673L58.0244 120.676L56.7224 121.66L56.7175 121.664L54.7643 123.127L52.8046 121.664L52.7977 121.659L51.4977 120.676Z" fill="#C8102E" stroke="#F2EFEA" stroke-width="3"/>
</g>
<g id="Group 42">
<path id="Rectangle 8" d="M45.129 14H67.0645V82H45.129V14Z" fill="#FFFBF7"/>
<path id="Rectangle 9" d="M21 57.871V35.9355H89V57.871L21 57.871Z" fill="#FFFBF7"/>
</g>
</g>
</svg>
