<svg width="98" height="154" viewBox="0 0 98 154" fill="none" xmlns="http://www.w3.org/2000/svg">
<g id="uruguay">
<path id="path4497" d="M1.25572 107.424C1.12065 80.0927 1.36174 47.1754 0.908875 23.4506C34.5909 23.654 60.5423 23.438 95.8013 23.6752C95.4876 53.3682 95.7019 75.9369 95.3296 108.121C91.168 125.37 65.7795 146.631 48.6059 152.52C18.9101 145.989 2.90583 112.89 1.25572 107.424Z" fill="white"/>
<g id="g4769">
<path id="path4771" d="M48.2633 154C19.6414 140.98 5.9083 129.618 0.247648 107.417C-0.249481 79.8542 0.145312 50.027 0.205944 22.4582H97.0999C96.9428 50.9877 96.7858 79.5172 96.6287 108.047C92.2417 128.91 72.3278 143.85 48.2633 154ZM93.7333 107.926C93.9477 80.3932 94.7916 49.0792 94.7998 24.6069L1.98274 24.4873C2.12607 51.823 2.06676 56.3711 2.47685 107.407C8.51735 129.066 26.441 142.253 48.2476 151.315C69.4504 142.089 89.3244 128.244 93.7333 107.926V107.926Z" fill="#EBBC03"/>
</g>
<g id="Background">
<g id="svg2">
<g id="_761874112">
<path id="polygon325" d="M96.862 7.98937L90.8893 12.2991L93.1751 19.2757L87.2377 14.9244L81.296 19.2055L83.6112 12.2572L77.6714 7.96634L85.0093 8.01059L87.2666 1L89.5217 8.00529L96.862 7.98937Z" fill="#EBBC03" stroke="#FFC905" stroke-width="1.24576" stroke-linejoin="round"/>
<path id="polygon329" d="M68.4848 19.2475L62.5729 14.9345L56.6577 19.245L58.9098 12.289L52.998 7.97607L60.3412 7.97153L62.5931 1.01578L64.8248 7.97874L72.172 8.01636L66.2104 12.2885L68.4848 19.2475Z" fill="#EBBC03" stroke="#FFC905" stroke-width="1.24576" stroke-linejoin="round"/>
<path id="polygon333" d="M36.5355 14.9348L30.6165 19.2378L32.9025 12.2828L26.9485 8.00043L34.2956 7.97521L36.5393 1.01608L38.779 7.97579L46.1222 7.99291L40.2032 12.2958L42.4856 19.2595L36.5355 14.9348Z" fill="#EBBC03" stroke="#FFC905" stroke-width="1.24576" stroke-linejoin="round"/>
<path id="polygon3156" d="M5.95038 19.1919L8.25555 12.2567L2.32581 7.89719L9.67091 7.94184L11.976 1.00677L14.1628 7.99997L21.4876 8.00748L15.5429 12.2846L17.767 19.2573L11.8949 14.9147L5.95038 19.1919Z" fill="#EBBC03" stroke="#FFC905" stroke-width="1.24576" stroke-linejoin="round"/>
</g>
</g>
</g>
<path id="polyline4-9" d="M63.5849 130.618L48.3725 124.987L33.4913 130.618V34.3513L48.3015 39.9584L63.5849 34.3513V130.618Z" fill="#EBBC03"/>
<path id="path14-4" d="M53.601 57.3238H57.9069L51.59 46.2752H45.5098L39.1693 57.3238H43.4988C43.4988 57.3238 43.7827 56.3774 44.1849 55.3365H52.9149C53.3171 56.4011 53.601 57.3238 53.601 57.3238ZM48.5144 47.9313L48.5618 47.8604L48.5854 47.9313C48.5854 47.9313 50.7147 51.0306 51.7793 52.8523H45.3205C46.3851 51.0306 48.5144 47.9313 48.5144 47.9313H48.5144Z" fill="#D51C27"/>
<path id="path16-1" d="M53.3171 61.8662V70.4069H43.7591V61.8662H39.2876C39.2876 61.8662 39.2876 69.0584 39.2876 69.6972C39.2876 71.0694 41.6298 72.8911 43.4988 72.8911H46.811C48.6327 72.8911 50.2888 72.8911 50.2888 72.8911H53.601C55.47 72.8911 57.8122 71.093 57.8122 69.6972C57.8122 69.0584 57.8122 61.8662 57.8122 61.8662H53.3171" fill="#D51C27"/>
<path id="polyline18-0" d="M57.5993 79.823V77.3389H39.4769V88.5057H43.9483V84.4601H57.5993V81.976H43.9483V79.823H57.5993Z" fill="#D51C27"/>
<path id="path20-0" d="M25.4001 51.835C25.4001 51.835 27.0562 51.2435 27.0562 49.4691C27.0562 47.6947 25.4237 46.1806 25.4237 46.1806H25.4001C25.4001 46.1806 23.7676 47.7184 23.7676 49.4691C23.7676 51.2435 25.4237 51.835 25.4237 51.835H25.4001" fill="#EBBC03"/>
<path id="path22-6" d="M26.0625 58.0099C26.0625 58.0099 27.6003 58.8852 28.9488 57.726C30.2974 56.5667 30.392 54.3428 30.392 54.3428L30.3684 54.3192C30.3684 54.3192 28.1445 54.0589 26.7959 55.2182C25.4711 56.3775 26.0862 58.0336 26.0625 58.0099" fill="#EBBC03"/>
<path id="path24-2" d="M24.8559 57.9152C24.8559 57.9152 23.3417 58.8379 21.9695 57.7496C20.5737 56.6377 20.4081 54.4138 20.4081 54.4138L20.4317 54.3901C20.4317 54.3901 22.6556 54.0589 24.0278 55.1709C25.4237 56.2828 24.8559 57.9389 24.8559 57.9153" fill="#EBBC03"/>
<path id="path26-6" d="M26.0388 65.2967C26.0388 65.2967 27.5766 66.1721 28.9252 65.0128C30.2737 63.8535 30.3683 61.6296 30.3683 61.6296L30.3447 61.606C30.3447 61.606 28.1208 61.3457 26.7723 62.505C25.4237 63.6643 26.0625 65.3204 26.0389 65.2967" fill="#EBBC03"/>
<path id="path28-0" d="M24.8323 65.2257C24.8323 65.2257 23.3181 66.1484 21.9459 65.0601C20.5501 63.9482 20.3845 61.7243 20.3845 61.7243L20.4081 61.7006C20.4081 61.7006 22.632 61.3694 24.0042 62.4813C25.3764 63.5696 24.8086 65.2494 24.8323 65.2257" fill="#EBBC03"/>
<path id="path30-8" d="M26.0388 72.5835C26.0388 72.5835 27.5766 73.4589 28.9252 72.2996C30.2737 71.1404 30.3683 68.9165 30.3683 68.9165L30.3447 68.8928C30.3447 68.8928 28.1208 68.6326 26.7723 69.7918C25.4237 70.9511 26.0625 72.6072 26.0389 72.5836" fill="#EBBC03"/>
<path id="path32-5" d="M24.8323 72.5126C24.8323 72.5126 23.3181 73.4352 21.9459 72.347C20.5501 71.235 20.3845 69.0111 20.3845 69.0111L20.4081 68.9875C20.4081 68.9875 22.632 68.6562 24.0042 69.7682C25.3764 70.8565 24.8086 72.5362 24.8323 72.5126" fill="#EBBC03"/>
<path id="path34-1" d="M26.0388 79.8704C26.0388 79.8704 27.5766 80.7457 28.9252 79.5865C30.2737 78.4272 30.3683 76.2033 30.3683 76.2033L30.3447 76.1797C30.3447 76.1797 28.1208 75.9194 26.7723 77.0787C25.4237 78.238 26.0625 79.8941 26.0389 79.8704" fill="#EBBC03"/>
<path id="path36-9" d="M24.8323 79.7994C24.8323 79.7994 23.3181 80.7221 21.9459 79.6338C20.5501 78.5218 20.3845 76.2979 20.3845 76.2979L20.4081 76.2743C20.4081 76.2743 22.632 75.943 24.0042 77.055C25.3764 78.1433 24.8086 79.8231 24.8323 79.7994" fill="#EBBC03"/>
<path id="path38-9" d="M26.0388 87.1809C26.0388 87.1809 27.5766 88.0562 28.9252 86.897C30.2737 85.7377 30.3683 83.5138 30.3683 83.5138L30.3447 83.4902C30.3447 83.4902 28.1208 83.2299 26.7723 84.3892C25.4237 85.5485 26.0625 87.2046 26.0389 87.1809" fill="#EBBC03"/>
<path id="path40-6" d="M24.8323 87.1099C24.8323 87.1099 23.3181 88.0326 21.9459 86.9443C20.5501 85.8323 20.3845 83.6084 20.3845 83.6084L20.4081 83.5848C20.4081 83.5848 22.632 83.2535 24.0042 84.3655C25.3764 85.4538 24.8086 87.1336 24.8323 87.1099" fill="#EBBC03"/>
<path id="rect42-7" d="M25.7077 51.2672H25.0925V96.2657H25.7077V51.2672Z" fill="#EBBC03"/>
<path id="path44-5" d="M71.6999 51.835C71.6999 51.835 73.356 51.2435 73.356 49.4691C73.356 47.6947 71.7235 46.1806 71.7235 46.1806H71.6999C71.6999 46.1806 70.0674 47.7184 70.0674 49.4691C70.0674 51.2435 71.7235 51.835 71.7235 51.835H71.6999" fill="#EBBC03"/>
<path id="path46-0" d="M72.3859 58.0099C72.3859 58.0099 73.9237 58.8852 75.2723 57.726C76.6208 56.5667 76.7155 54.3428 76.7155 54.3428L76.6918 54.3192C76.6918 54.3192 74.4679 54.0589 73.1194 55.2182C71.7708 56.3775 72.386 58.0336 72.386 58.0099" fill="#EBBC03"/>
<path id="path48-7" d="M71.1794 57.9152C71.1794 57.9152 69.6652 58.8379 68.293 57.7496C66.8972 56.6377 66.7316 54.4138 66.7316 54.4138L66.7552 54.3901C66.7552 54.3901 68.9791 54.0589 70.3513 55.1709C71.7235 56.2828 71.1557 57.9389 71.1793 57.9153" fill="#EBBC03"/>
<path id="path50-0" d="M72.3386 65.2967C72.3386 65.2967 73.8764 66.1721 75.225 65.0128C76.5735 63.8535 76.6681 61.6296 76.6681 61.6296L76.6445 61.606C76.6445 61.606 74.4206 61.3457 73.0721 62.505C71.7472 63.6643 72.3623 65.3204 72.3387 65.2967" fill="#EBBC03"/>
<path id="path52-6" d="M71.1321 65.2257C71.1321 65.2257 69.6179 66.1484 68.2457 65.0601C66.8499 63.9482 66.6843 61.7243 66.6843 61.7243L66.7079 61.7006C66.7079 61.7006 68.9318 61.3694 70.304 62.4813C71.6762 63.5696 71.1084 65.2494 71.1321 65.2257" fill="#EBBC03"/>
<path id="path54-0" d="M72.3386 72.5835C72.3386 72.5835 73.8764 73.4589 75.225 72.2996C76.5735 71.1404 76.6681 68.9165 76.6681 68.9165L76.6445 68.8928C76.6445 68.8928 74.4206 68.6326 73.0721 69.7918C71.7472 70.9511 72.3623 72.6072 72.3387 72.5836" fill="#EBBC03"/>
<path id="path56-5" d="M71.1321 72.5126C71.1321 72.5126 69.6179 73.4352 68.2457 72.347C66.8499 71.235 66.6843 69.0111 66.6843 69.0111L66.7079 68.9875C66.7079 68.9875 68.9318 68.6562 70.304 69.7682C71.6762 70.8565 71.1084 72.5362 71.1321 72.5126" fill="#EBBC03"/>
<path id="path58-2" d="M72.3386 79.8704C72.3386 79.8704 73.8764 80.7457 75.225 79.5865C76.5735 78.4272 76.6681 76.2033 76.6681 76.2033L76.6445 76.1797C76.6445 76.1797 74.4206 75.9194 73.0721 77.0787C71.7472 78.238 72.3623 79.8941 72.3387 79.8704" fill="#EBBC03"/>
<path id="path60-8" d="M71.1321 79.7994C71.1321 79.7994 69.6179 80.7221 68.2457 79.6338C66.8499 78.5218 66.6843 76.2979 66.6843 76.2979L66.7079 76.2743C66.7079 76.2743 68.9318 75.943 70.304 77.055C71.6762 78.1433 71.1084 79.8231 71.1321 79.7994" fill="#EBBC03"/>
<path id="path62-1" d="M72.3386 87.1809C72.3386 87.1809 73.8764 88.0562 75.225 86.897C76.5735 85.7377 76.6681 83.5138 76.6681 83.5138L76.6445 83.4902C76.6445 83.4902 74.4206 83.2299 73.0721 84.3892C71.7472 85.5485 72.3623 87.2046 72.3387 87.1809" fill="#EBBC03"/>
<path id="path64-5" d="M71.1321 87.1099C71.1321 87.1099 69.6179 88.0326 68.2457 86.9443C66.8499 85.8323 66.6843 83.6084 66.6843 83.6084L66.7079 83.5848C66.7079 83.5848 68.9318 83.2535 70.304 84.3655C71.6762 85.4538 71.1084 87.1336 71.1321 87.1099" fill="#EBBC03"/>
<path id="rect66-4" d="M72.0074 51.2672H71.3923V96.2657H72.0074V51.2672Z" fill="#EBBC03"/>
<path id="rect68-3" d="M76.7154 96.526H20.3844V117.062H76.7154V96.526Z" fill="white"/>
<path id="rect70-1" d="M76.7154 98.8208H20.3844V101.068H76.7154V98.8208Z" fill="#43B5E5"/>
<path id="rect72-2" d="M76.7154 103.411H20.3844V105.658H76.7154V103.411Z" fill="#43B5E5"/>
<path id="rect74-7" d="M76.7154 108H20.3844V110.248H76.7154V108Z" fill="#43B5E5"/>
<path id="rect76-6" d="M76.7154 112.566H20.3844V114.814H76.7154V112.566Z" fill="#43B5E5"/>
<path id="path78-8" d="M35.5259 106.888H35.6442H35.5259C35.5259 99.7672 41.2986 94.0182 48.4198 93.9945C55.5411 94.0182 61.2901 99.7672 61.3138 106.888C61.3138 114.01 55.5411 119.759 48.4198 119.782C41.2986 119.759 35.5259 114.01 35.5259 106.888Z" fill="white"/>
<path id="path80-1" d="M48.4199 120.374C41.1803 120.35 35.2657 114.625 34.9345 107.48H34.9108V106.888V106.273H34.9345C35.2657 99.1284 41.1803 93.4031 48.4199 93.3794C55.8486 93.3794 61.9052 99.436 61.9052 106.865C61.8816 114.317 55.8486 120.374 48.4199 120.374ZM36.1174 106.888C36.1174 113.655 41.6299 119.167 48.3962 119.167C55.1625 119.144 60.675 113.655 60.675 106.888C60.675 100.122 55.1625 94.6096 48.3962 94.6096C41.6535 94.6096 36.1411 100.122 36.1174 106.888Z" fill="#293634"/>
<path id="path82-2" d="M48.4198 93.9945C41.2986 93.9945 35.5259 99.7672 35.5259 106.888C35.5259 114.01 41.2986 119.782 48.4198 119.782C55.5411 119.782 61.3138 114.01 61.3138 106.888C61.2901 99.7672 55.5174 93.9945 48.4198 93.9945ZM50.9513 116.73L47.1659 113.82L47.6155 110.934L52.3708 108.545L55.4701 110.082L55.0206 114.577C53.8613 115.595 52.4655 116.352 50.9513 116.73V116.73ZM39.3823 111.809L39.7135 107.953L43.2386 107.243L47.1659 110.934L46.7164 113.82L42.4106 115.193C41.1803 114.294 40.1394 113.158 39.3823 111.809V111.809ZM48.3489 96.5733C50.0523 96.5733 51.6611 96.9992 53.0806 97.7326L54.1925 100.643L51.6847 102.748L46.1013 101.873L44.8711 99.436L47.1659 96.6443C47.5445 96.597 47.9467 96.5733 48.3489 96.5733V96.5733ZM58.5694 107.575L55.754 109.751L52.6311 108.19L51.945 103.103L54.4528 101.021L58.0725 103.458C58.4274 104.499 58.6403 105.635 58.6403 106.817C58.593 107.078 58.593 107.338 58.5694 107.575V107.575ZM39.6425 107.527L38.1993 105.327C38.4359 103.766 39.0037 102.346 39.8554 101.092L44.5162 99.6962L45.6281 101.92L43.1203 106.817L39.6425 107.527ZM39.5006 100.808C38.6489 102.038 38.0811 103.458 37.7972 104.972L36.0464 105.303C36.354 102.914 37.324 100.737 38.7908 98.9628L39.5006 100.808ZM59.0189 107.575C59.0425 107.314 59.0425 107.078 59.0425 106.817C59.0425 105.682 58.8532 104.594 58.5457 103.576L60.1308 102.701C60.604 104.002 60.8642 105.422 60.8642 106.888C60.8642 107.716 60.7696 108.521 60.6276 109.302L59.0189 107.575ZM54.642 96.1238L53.0569 97.2357C51.6374 96.526 50.0286 96.1475 48.3489 96.1475C47.9703 96.1475 47.5918 96.1711 47.2133 96.1948L45.6991 94.7516C46.5745 94.5623 47.4735 94.444 48.4198 94.444C50.6911 94.444 52.8203 95.0592 54.642 96.1238V96.1238ZM37.395 112.685L39.264 112.448C39.9737 113.607 40.9201 114.625 42.0084 115.429L42.0794 117.606C40.092 116.423 38.4596 114.719 37.395 112.685V112.685ZM50.2652 119.191L51.1406 117.133C52.6547 116.73 54.0269 115.973 55.2099 115.003L57.2918 115.571C55.4701 117.464 53.0096 118.789 50.2652 119.191V119.191Z" fill="#293634"/>
</g>
</svg>
