<svg width="100" height="45" viewBox="0 0 100 45" fill="none" xmlns="http://www.w3.org/2000/svg">
<rect width="100" height="45" fill="#FFFBF7"/>
<path d="M33 4H100V10H33V4Z" fill="#0038A8"/>
<path d="M33 16H100V22H33V16Z" fill="#0038A8"/>
<path d="M0 28H100V34H0V28Z" fill="#0038A8"/>
<path d="M0 39H100V45H0V39Z" fill="#0038A8"/>
<path d="M16 3L17.6079 10.1182L23.7782 6.22183L19.8818 12.3921L27 14L19.8818 15.6079L23.7782 21.7782L17.6079 17.8818L16 25L14.3921 17.8818L8.22183 21.7782L12.1182 15.6079L5 14L12.1182 12.3921L8.22183 6.22183L14.3921 10.1182L16 3Z" fill="#F2C94C"/>
</svg>
